<svg width="50" height="50" viewBox="0 0 50 50" fill="none" xmlns="http://www.w3.org/2000/svg">
<path d="M0.732 5.52C0.732 4.856 0.996 4.34 1.524 3.972C2.052 3.604 2.736 3.42 3.576 3.42C4.472 3.42 5.292 3.512 6.036 3.696L5.976 6H5.436L4.836 4.272C4.5 4.208 4.16 4.176 3.816 4.176C3.264 4.176 2.828 4.284 2.508 4.5C2.196 4.716 2.04 5.016 2.04 5.4C2.04 5.728 2.18 6.004 2.46 6.228C2.748 6.444 3.244 6.7 3.948 6.996C4.324 7.148 4.632 7.292 4.872 7.428C5.12 7.556 5.384 7.728 5.664 7.944C5.944 8.16 6.152 8.42 6.288 8.724C6.432 9.028 6.504 9.368 6.504 9.744C6.504 10.544 6.208 11.16 5.616 11.592C5.064 11.992 4.372 12.188 3.54 12.18C3.316 12.18 2.944 12.16 2.424 12.12C1.912 12.08 1.356 11.972 0.756 11.796V9.432H1.308L1.92 11.232C2.256 11.336 2.648 11.388 3.096 11.388C3.72 11.388 4.224 11.28 4.608 11.064C4.992 10.84 5.184 10.492 5.184 10.02C5.184 9.66 5.012 9.348 4.668 9.084C4.324 8.82 3.82 8.544 3.156 8.256C2.244 7.864 1.612 7.484 1.26 7.116C0.908 6.748 0.732 6.216 0.732 5.52ZM12.0224 3.42C12.9504 3.42 13.7304 3.56 14.3624 3.84V6.108H13.8104L13.2584 4.332C12.9464 4.26 12.5864 4.224 12.1784 4.224C10.1864 4.224 9.19041 5.416 9.19041 7.8C9.19041 10.184 10.1064 11.376 11.9384 11.376C12.2104 11.376 12.4544 11.368 12.6704 11.352C12.8864 11.336 13.0824 11.312 13.2584 11.28L13.9544 9.384H14.5064L14.4224 11.652C14.3104 11.716 14.1504 11.78 13.9424 11.844C13.7344 11.908 13.5064 11.964 13.2584 12.012C13.0184 12.06 12.7664 12.1 12.5024 12.132C12.2464 12.164 12.0104 12.18 11.7944 12.18C10.4424 12.18 9.41841 11.804 8.72241 11.052C8.02641 10.3 7.67841 9.216 7.67841 7.8C7.67841 6.384 8.03841 5.3 8.75841 4.548C9.48641 3.796 10.5744 3.42 12.0224 3.42ZM15.6452 12V11.448L16.7492 11.184V4.416L15.6452 4.152V3.6H19.0412C19.4732 3.6 19.8692 3.636 20.2292 3.708C20.5892 3.772 20.9372 3.888 21.2732 4.056C21.6172 4.216 21.8852 4.46 22.0772 4.788C22.2772 5.108 22.3772 5.496 22.3772 5.952C22.3772 7.016 21.8252 7.736 20.7212 8.112L22.3892 11.196L23.4452 11.46V12H21.2612L19.2812 8.292H18.2252V11.184L19.3292 11.448V12H15.6452ZM18.2252 7.572H18.9212C19.5052 7.572 19.9732 7.428 20.3252 7.14C20.6852 6.852 20.8652 6.448 20.8652 5.928C20.8652 5.416 20.6892 5.028 20.3372 4.764C19.9852 4.492 19.5132 4.356 18.9212 4.356H18.2252V7.572ZM27.9875 3.42C28.6355 3.42 29.2075 3.528 29.7035 3.744C30.1995 3.96 30.6195 4.26 30.9635 4.644C31.3075 5.028 31.5675 5.488 31.7435 6.024C31.9195 6.56 32.0075 7.148 32.0075 7.788C32.0075 8.436 31.9195 9.028 31.7435 9.564C31.5755 10.1 31.3195 10.564 30.9755 10.956C30.6395 11.34 30.2195 11.64 29.7155 11.856C29.2195 12.072 28.6435 12.18 27.9875 12.18C27.2915 12.18 26.6875 12.064 26.1755 11.832C25.6715 11.6 25.2555 11.288 24.9275 10.896C24.5995 10.496 24.3555 10.028 24.1955 9.492C24.0435 8.956 23.9675 8.38 23.9675 7.764C23.9675 7.164 24.0475 6.604 24.2075 6.084C24.3675 5.556 24.6115 5.096 24.9395 4.704C25.2675 4.304 25.6835 3.992 26.1875 3.768C26.6995 3.536 27.2995 3.42 27.9875 3.42ZM27.9875 4.128C27.1715 4.128 26.5515 4.472 26.1275 5.16C25.7115 5.84 25.5035 6.72 25.5035 7.8C25.5035 8.944 25.7235 9.844 26.1635 10.5C26.6115 11.148 27.2195 11.472 27.9875 11.472C28.7555 11.472 29.3595 11.148 29.7995 10.5C30.2475 9.844 30.4715 8.944 30.4715 7.8C30.4715 6.72 30.2595 5.84 29.8355 5.16C29.4195 4.472 28.8035 4.128 27.9875 4.128ZM32.9889 12V11.448L34.0929 11.184V4.416L32.9889 4.152V3.6H36.6729V4.152L35.5689 4.416V11.196H38.3889L39.0369 9.408H39.5889L39.4689 12H32.9889ZM40.4069 12V11.448L41.5109 11.184V4.416L40.4069 4.152V3.6H44.0909V4.152L42.9869 4.416V11.196H45.8069L46.4549 9.408H47.0069L46.8869 12H40.4069Z" fill="white"/>
<path d="M25.3772 0.353553C25.5724 0.158291 25.5724 -0.158291 25.3772 -0.353553L22.1952 -3.53553C21.9999 -3.7308 21.6833 -3.7308 21.4881 -3.53553C21.2928 -3.34027 21.2928 -3.02369 21.4881 -2.82843L24.3165 0L21.4881 2.82843C21.2928 3.02369 21.2928 3.34027 21.4881 3.53553C21.6833 3.7308 21.9999 3.7308 22.1952 3.53553L25.3772 0.353553ZM0 0.5H25.0236V-0.5H0V0.5Z" transform="matrix(-0.0434372 0.999056 -0.999777 -0.0211156 25 18)" fill="white"/>
</svg>
