<svg width="484" height="253" viewBox="0 0 484 253" fill="none" xmlns="http://www.w3.org/2000/svg">
<path d="M26.68 68C26.68 76.16 26.12 82.76 25 87.8C23.96 92.84 21.76 97.36 18.4 101.36C15.12 105.36 10.12 109.2 3.4 112.88C2.28 112.24 1.6 111.2 1.36 109.76C6.16 105.68 9.68 101.32 11.92 96.68C14.24 92.12 15.4 86.2 15.4 78.92V17.12C15.4 13.12 14.8 10.44 13.6 9.07999C12.48 7.64 10.32 6.84 7.12 6.68C6.72 5.56 6.52 3.84 6.52 1.52C10.04 1.75999 14.88 1.87999 21.04 1.87999C27.84 1.87999 32.68 1.75999 35.56 1.52C35.56 3.84 35.36 5.56 34.96 6.68C31.84 6.84 29.68 7.64 28.48 9.07999C27.28 10.52 26.68 13.2 26.68 17.12V68ZM124.852 78.2C125.332 79.8 125.572 81.52 125.572 83.36C120.772 83.12 116.212 83 111.892 83C107.652 83 103.132 83.12 98.3322 83.36C98.3322 81.04 98.6122 79.32 99.1722 78.2C101.412 77.96 102.972 77.6 103.852 77.12C104.812 76.64 105.292 75.84 105.292 74.72C105.292 73.76 104.692 71.8 103.492 68.84L98.2122 56.6C85.4922 56.6 74.9322 56.76 66.5322 57.08L63.2922 65.36C62.0122 68.72 61.3722 71.36 61.3722 73.28C61.3722 74.88 61.8522 76.08 62.8122 76.88C63.8522 77.6 65.4522 78.04 67.6122 78.2C68.1722 79.56 68.4522 81.28 68.4522 83.36C65.7322 83.12 61.9322 83 57.0522 83C54.9722 83 51.6522 83.12 47.0922 83.36C47.0922 81.36 47.3722 79.68 47.9322 78.32C50.0122 77.92 51.6522 76.88 52.8522 75.2C54.0522 73.52 55.6122 70.24 57.5322 65.36L82.3722 1.64C83.7322 1.32 85.2922 1.16 87.0522 1.16L115.612 66.68C117.612 71.16 119.172 74.12 120.292 75.56C121.492 77 123.012 77.88 124.852 78.2ZM95.9322 51.2L86.8122 29.84C84.4122 24.32 82.6522 19.96 81.5322 16.76C80.6522 19.48 79.1322 23.8 76.9722 29.72L68.6922 51.2H95.9322ZM192.784 65.96C195.104 69 196.984 71.28 198.424 72.8C199.864 74.24 201.544 75.4 203.464 76.28C205.384 77.16 207.864 77.68 210.904 77.84C210.904 79.84 210.704 81.56 210.304 83C202.304 83 195.944 83.24 191.224 83.72C188.024 78.44 183.184 71.68 176.704 63.44C170.224 55.2 164.344 48.68 159.064 43.88V67.76C159.064 71.76 159.624 74.48 160.744 75.92C161.944 77.28 164.144 78.04 167.344 78.2C167.744 79.32 167.944 81.04 167.944 83.36C163.144 83.12 158.304 83 153.424 83C147.824 83 142.984 83.12 138.904 83.36C138.904 81.04 139.104 79.32 139.504 78.2C142.704 78.04 144.864 77.28 145.984 75.92C147.184 74.48 147.784 71.76 147.784 67.76V17.12C147.784 13.12 147.184 10.44 145.984 9.07999C144.864 7.64 142.704 6.84 139.504 6.68C139.104 5.56 138.904 3.84 138.904 1.52C143.304 1.75999 148.144 1.87999 153.424 1.87999C158.304 1.87999 163.144 1.75999 167.944 1.52C167.944 3.84 167.744 5.56 167.344 6.68C164.144 6.84 161.944 7.64 160.744 9.07999C159.624 10.44 159.064 13.12 159.064 17.12V40.4L181.744 16.64C184.704 13.6 186.184 11.2 186.184 9.44C186.184 7.67999 184.864 6.75999 182.224 6.68C181.824 5.4 181.624 3.68 181.624 1.52C184.264 1.75999 188.384 1.87999 193.984 1.87999C199.024 1.87999 203.144 1.75999 206.344 1.52C206.344 3.84 206.104 5.56 205.624 6.68C202.744 6.84 200.104 7.64 197.704 9.07999C195.304 10.52 192.264 13.2 188.584 17.12L169.024 37.88C174.784 43.4 182.704 52.76 192.784 65.96ZM279.032 62.48C281.352 63.2 283.112 64.16 284.312 65.36C282.792 70.08 281.552 76.04 280.592 83.24C274.352 83.08 265.792 83 254.912 83C240.192 83 229.832 83.12 223.832 83.36C223.832 81.04 224.032 79.32 224.432 78.2C226.672 78.04 228.352 77.64 229.472 77C230.672 76.36 231.512 75.24 231.992 73.64C232.472 72.04 232.712 69.64 232.712 66.44V17.12C232.712 13.12 232.112 10.44 230.912 9.07999C229.792 7.64 227.632 6.84 224.432 6.68C224.032 5.56 223.832 3.84 223.832 1.52C228.552 1.75999 235.272 1.87999 243.992 1.87999C258.552 1.87999 269.792 1.75999 277.712 1.52C278.512 10.32 279.352 16.64 280.232 20.48C279.032 21.44 277.232 21.92 274.832 21.92C274.432 17.44 272.792 13.8 269.912 11C267.112 8.12 262.192 6.68 255.152 6.68H243.992V39.56H251.552C256.592 39.56 260.032 38.92 261.872 37.64C263.792 36.28 264.792 33.68 264.872 29.84C266.792 29.28 268.712 29 270.632 29C270.472 31.72 270.392 36.08 270.392 42.08C270.392 48.64 270.472 53.28 270.632 56C268.472 56 266.632 55.8 265.112 55.4C264.792 51.24 263.672 48.44 261.752 47C259.912 45.48 256.512 44.72 251.552 44.72H243.992V66.44C243.992 69.48 244.272 71.8 244.832 73.4C245.392 74.92 246.432 76 247.952 76.64C249.552 77.28 251.872 77.6 254.912 77.6H255.632C261.152 77.6 265.392 77.04 268.352 75.92C271.312 74.8 273.472 73.24 274.832 71.24C276.272 69.24 277.672 66.32 279.032 62.48ZM107.92 245.08C108.32 246.44 108.52 248.2 108.52 250.36C104.84 250.12 100.04 250 94.12 250C88.44 250 83.56 250.12 79.48 250.36C79.48 248.44 79.72 246.72 80.2 245.2C83.24 244.88 85.28 244.2 86.32 243.16C87.36 242.12 87.88 240.2 87.88 237.4C87.88 235.8 87.76 233.8 87.52 231.4L83.2 190.24L58.36 250.24C57 250.8 55.36 251.08 53.44 251.08L25.48 190.36L21.64 228.88C21.4 231.28 21.28 233.36 21.28 235.12C21.28 238.8 21.88 241.36 23.08 242.8C24.36 244.16 26.48 244.96 29.44 245.2C29.84 246.56 30.04 248.28 30.04 250.36C26.2 250.12 21.92 250 17.2 250C12.48 250 8.48 250.12 5.2 250.36C5.2 248.28 5.4 246.56 5.8 245.2C8.04 244.96 9.76 244.4 10.96 243.52C12.16 242.64 13.08 241.04 13.72 238.72C14.44 236.32 15.04 232.68 15.52 227.8L19.36 185.08C19.44 184.36 19.48 183.4 19.48 182.2C19.48 179.08 18.84 176.88 17.56 175.6C16.28 174.32 14.2 173.68 11.32 173.68C10.92 172.4 10.72 170.68 10.72 168.52C13.12 168.76 16.16 168.88 19.84 168.88C22.8 168.88 25.84 168.76 28.96 168.52L58.96 234.88L85.12 168.52C87.84 168.76 90.96 168.88 94.48 168.88C97.36 168.88 100.4 168.76 103.6 168.52C103.6 170.44 103.4 172.16 103 173.68C100.28 173.68 98.2 174.36 96.76 175.72C95.4 177.08 94.72 179.44 94.72 182.8C94.72 184.08 94.76 185.08 94.84 185.8L99.16 229.84C99.56 233.84 100.08 236.92 100.72 239.08C101.36 241.16 102.24 242.64 103.36 243.52C104.48 244.4 106 244.92 107.92 245.08ZM184.68 217.72C184.68 224.92 184.2 230.48 183.24 234.4C182.28 238.32 180.48 241.6 177.84 244.24C173.28 248.8 166.8 251.08 158.4 251.08C147.68 251.08 140.08 248.72 135.6 244C131.2 239.28 129 232.04 129 222.28V184.12C129 181.24 128.8 179.12 128.4 177.76C128.08 176.4 127.44 175.44 126.48 174.88C125.52 174.32 124 173.92 121.92 173.68C121.52 172.24 121.32 170.52 121.32 168.52C124.52 168.76 129.16 168.88 135.24 168.88C140.92 168.88 145.56 168.76 149.16 168.52C149.16 170.52 148.96 172.24 148.56 173.68C146 173.92 144.16 174.32 143.04 174.88C142 175.36 141.28 176.28 140.88 177.64C140.48 178.92 140.28 181.08 140.28 184.12V220.6C140.28 228.12 141.8 234.04 144.84 238.36C147.96 242.6 153.24 244.72 160.68 244.72C162.92 244.72 165.2 244.36 167.52 243.64C169.92 242.84 171.88 241.68 173.4 240.16C175.32 238.24 176.64 235.76 177.36 232.72C178.16 229.6 178.56 224.92 178.56 218.68V188.92C178.56 184.84 178.36 181.8 177.96 179.8C177.56 177.8 176.76 176.36 175.56 175.48C174.44 174.52 172.68 173.92 170.28 173.68C169.88 171.68 169.68 169.96 169.68 168.52C172.4 168.76 176.16 168.88 180.96 168.88C185.44 168.88 189.24 168.76 192.36 168.52C192.36 169.72 192.16 171.44 191.76 173.68C189.84 173.92 188.36 174.48 187.32 175.36C186.36 176.24 185.68 177.76 185.28 179.92C184.88 182 184.68 185 184.68 188.92V217.72ZM233.376 251.08C228.736 251.08 224.576 250.48 220.896 249.28C217.216 248 213.256 246.04 209.016 243.4C209.736 238.92 210.096 233.24 210.096 226.36C211.936 225.88 214.096 225.64 216.576 225.64C216.896 232.04 218.496 236.92 221.376 240.28C224.336 243.64 228.896 245.32 235.056 245.32C240.256 245.32 244.096 244.2 246.576 241.96C249.136 239.64 250.416 236.6 250.416 232.84C250.416 229.72 249.616 227.08 248.016 224.92C246.416 222.76 244.456 221 242.136 219.64C239.816 218.2 236.576 216.52 232.416 214.6C227.616 212.28 223.776 210.2 220.896 208.36C218.016 206.52 215.536 204.08 213.456 201.04C211.456 197.92 210.456 194.04 210.456 189.4C210.456 182.68 212.616 177.4 216.936 173.56C221.256 169.72 227.136 167.8 234.576 167.8C238.496 167.8 242.256 168.32 245.856 169.36C249.456 170.32 252.376 171.56 254.616 173.08C254.616 180.2 254.856 185.48 255.336 188.92C253.576 189.64 251.336 190 248.616 190C247.496 183.44 245.816 179 243.576 176.68C241.336 174.28 238.296 173.08 234.456 173.08C230.216 173.08 226.896 174.12 224.496 176.2C222.096 178.28 220.896 181.2 220.896 184.96C220.896 188.08 221.696 190.76 223.296 193C224.976 195.24 226.976 197.08 229.296 198.52C231.696 199.96 234.976 201.72 239.136 203.8C243.856 206.04 247.616 208.08 250.416 209.92C253.296 211.76 255.736 214.16 257.736 217.12C259.736 220.08 260.736 223.72 260.736 228.04C260.736 232.2 259.736 236.04 257.736 239.56C255.816 243 252.776 245.8 248.616 247.96C244.536 250.04 239.456 251.08 233.376 251.08ZM286.267 184.12C286.267 180.12 285.667 177.44 284.467 176.08C283.347 174.64 281.187 173.84 277.987 173.68C277.587 172.56 277.387 170.84 277.387 168.52C281.787 168.76 286.627 168.88 291.907 168.88C296.787 168.88 301.627 168.76 306.427 168.52C306.427 170.84 306.227 172.56 305.827 173.68C302.627 173.84 300.427 174.64 299.227 176.08C298.107 177.44 297.547 180.12 297.547 184.12V234.76C297.547 238.76 298.107 241.48 299.227 242.92C300.427 244.28 302.627 245.04 305.827 245.2C306.227 246.32 306.427 248.04 306.427 250.36C301.627 250.12 296.787 250 291.907 250C286.307 250 281.467 250.12 277.387 250.36C277.387 248.04 277.587 246.32 277.987 245.2C281.187 245.04 283.347 244.28 284.467 242.92C285.667 241.48 286.267 238.76 286.267 234.76V184.12ZM359.049 251.08C351.689 251.08 345.089 249.32 339.249 245.8C333.489 242.2 328.969 237.2 325.689 230.8C322.489 224.4 320.889 217.08 320.889 208.84C320.889 200.04 322.729 192.56 326.409 186.4C330.169 180.24 335.089 175.6 341.169 172.48C347.329 169.36 353.929 167.8 360.969 167.8C365.849 167.8 370.369 168.32 374.529 169.36C378.689 170.32 383.049 171.88 387.609 174.04C386.729 178.2 386.289 184.4 386.289 192.64C384.529 193.36 382.409 193.72 379.929 193.72C379.609 185.72 377.969 180.24 375.009 177.28C372.049 174.24 367.689 172.72 361.929 172.72C355.449 172.72 350.089 174.24 345.849 177.28C341.609 180.32 338.489 184.32 336.489 189.28C334.489 194.24 333.489 199.68 333.489 205.6C333.489 212.8 334.689 219.32 337.089 225.16C339.569 230.92 343.129 235.48 347.769 238.84C352.409 242.12 357.849 243.76 364.089 243.76C367.849 243.76 371.729 243.12 375.729 241.84C379.729 240.56 383.449 238.84 386.889 236.68C387.369 237.08 387.809 237.68 388.209 238.48C388.689 239.2 388.969 239.84 389.049 240.4C384.169 244.16 379.409 246.88 374.769 248.56C370.209 250.24 364.969 251.08 359.049 251.08ZM473.448 234.76C473.448 238.76 474.008 241.48 475.128 242.92C476.328 244.28 478.528 245.04 481.728 245.2C482.128 246.32 482.328 248.04 482.328 250.36C477.528 250.12 472.688 250 467.808 250C462.208 250 457.368 250.12 453.288 250.36C453.288 248.04 453.488 246.32 453.888 245.2C457.088 245.04 459.247 244.28 460.367 242.92C461.568 241.48 462.168 238.76 462.168 234.76V211C443.848 211 431.648 211.24 425.568 211.72V234.76C425.568 238.76 426.128 241.48 427.248 242.92C428.448 244.28 430.648 245.04 433.848 245.2C434.248 246.32 434.448 248.04 434.448 250.36C429.648 250.12 424.808 250 419.928 250C414.328 250 409.488 250.12 405.408 250.36C405.408 248.04 405.608 246.32 406.008 245.2C409.208 245.04 411.368 244.28 412.488 242.92C413.688 241.48 414.288 238.76 414.288 234.76V184.12C414.288 180.12 413.688 177.44 412.488 176.08C411.368 174.64 409.208 173.84 406.008 173.68C405.608 172.56 405.408 170.84 405.408 168.52C409.808 168.76 414.648 168.88 419.928 168.88C424.808 168.88 429.648 168.76 434.448 168.52C434.448 170.84 434.248 172.56 433.848 173.68C430.648 173.84 428.448 174.64 427.248 176.08C426.128 177.44 425.568 180.12 425.568 184.12V205.84H462.168V184.12C462.168 180.12 461.568 177.44 460.367 176.08C459.247 174.64 457.088 173.84 453.888 173.68C453.488 172.56 453.288 170.84 453.288 168.52C457.688 168.76 462.528 168.88 467.808 168.88C472.688 168.88 477.528 168.76 482.328 168.52C482.328 170.84 482.128 172.56 481.728 173.68C478.528 173.84 476.328 174.64 475.128 176.08C474.008 177.44 473.448 180.12 473.448 184.12V234.76Z" fill="#F2F2F2"/>
<path d="M25 87.8L24.0238 87.5831L24.0222 87.5905L24.0206 87.5979L25 87.8ZM18.4 101.36L17.6342 100.717L17.6267 100.726L18.4 101.36ZM3.4 112.88L2.90386 113.748L3.38961 114.026L3.88031 113.757L3.4 112.88ZM1.36 109.76L0.712352 108.998L0.280408 109.365L0.373606 109.924L1.36 109.76ZM11.92 96.68L11.0287 96.2265L11.024 96.2358L11.0194 96.2453L11.92 96.68ZM13.6 9.07999L12.8106 9.69393L12.8297 9.71839L12.8502 9.74161L13.6 9.07999ZM7.12 6.68L6.17826 7.01633L6.40292 7.64539L7.07006 7.67875L7.12 6.68ZM6.52 1.52L6.58802 0.522314L5.52 0.449495V1.52H6.52ZM35.56 1.52H36.56V0.433199L35.477 0.523452L35.56 1.52ZM34.96 6.68L35.0112 7.67868L35.6774 7.64452L35.9017 7.01633L34.96 6.68ZM28.48 9.07999L27.7118 8.43981L27.7118 8.43981L28.48 9.07999ZM25.68 68C25.68 76.1239 25.1216 82.643 24.0238 87.5831L25.9762 88.0169C27.1184 82.877 27.68 76.1961 27.68 68H25.68ZM24.0206 87.5979C23.0147 92.4729 20.8893 96.8418 17.6343 100.717L19.1657 102.003C22.6307 97.8782 24.9053 93.2071 25.9794 88.0021L24.0206 87.5979ZM17.6267 100.726C14.4571 104.591 9.57646 108.358 2.91969 112.003L3.88031 113.757C10.6635 110.042 15.7829 106.129 19.1733 101.994L17.6267 100.726ZM3.89614 112.012C3.0734 111.542 2.54434 110.783 2.34639 109.596L0.373606 109.924C0.655663 111.617 1.4866 112.938 2.90386 113.748L3.89614 112.012ZM2.00765 110.522C6.89075 106.371 10.5081 101.905 12.8206 97.1148L11.0194 96.2453C8.85194 100.735 5.42925 104.989 0.712352 108.998L2.00765 110.522ZM12.8113 97.1335C15.2265 92.3863 16.4 86.2953 16.4 78.92H14.4C14.4 86.1047 13.2535 91.8537 11.0287 96.2265L12.8113 97.1335ZM16.4 78.92V17.12H14.4V78.92H16.4ZM16.4 17.12C16.4 15.0766 16.2474 13.3276 15.9258 11.8915C15.6064 10.4648 15.1042 9.2733 14.3498 8.41837L12.8502 9.74161C13.2958 10.2467 13.6936 11.0752 13.9742 12.3285C14.2526 13.5724 14.4 15.1634 14.4 17.12H16.4ZM14.3894 8.46605C12.9936 6.67151 10.4528 5.84539 7.16994 5.68124L7.07006 7.67875C10.1872 7.83461 11.9664 8.60849 12.8106 9.69393L14.3894 8.46605ZM8.06174 6.34366C7.72157 5.39118 7.52 3.81292 7.52 1.52H5.52C5.52 3.86708 5.71843 5.72881 6.17826 7.01633L8.06174 6.34366ZM6.45198 2.51768C10.0053 2.75995 14.8713 2.87999 21.04 2.87999V0.879993C14.8887 0.879993 10.0747 0.760042 6.58802 0.522314L6.45198 2.51768ZM21.04 2.87999C27.8408 2.87999 32.7176 2.76033 35.643 2.51654L35.477 0.523452C32.6424 0.759662 27.8392 0.879993 21.04 0.879993V2.87999ZM34.56 1.52C34.56 3.81292 34.3584 5.39118 34.0183 6.34366L35.9017 7.01633C36.3616 5.72881 36.56 3.86708 36.56 1.52H34.56ZM34.9088 5.68131C31.688 5.84648 29.179 6.67914 27.7118 8.43981L29.2482 9.72018C30.181 8.60085 31.992 7.83352 35.0112 7.67868L34.9088 5.68131ZM27.7118 8.43981C26.2672 10.1734 25.68 13.1774 25.68 17.12H27.68C27.68 13.2226 28.2928 10.8666 29.2482 9.72018L27.7118 8.43981ZM25.68 17.12V68H27.68V17.12H25.68ZM124.852 78.2L125.81 77.9127L125.632 77.3207L125.024 77.2148L124.852 78.2ZM125.572 83.36L125.522 84.3588L126.572 84.4112V83.36H125.572ZM98.3322 83.36H97.3322V84.4112L98.3821 84.3588L98.3322 83.36ZM99.1722 78.2L99.0657 77.2057L98.5222 77.2639L98.2778 77.7528L99.1722 78.2ZM103.852 77.12L103.405 76.2256L103.389 76.2336L103.373 76.2421L103.852 77.12ZM103.492 68.84L104.419 68.4643L104.415 68.4541L104.41 68.4439L103.492 68.84ZM98.2122 56.6L99.1304 56.2039L98.8699 55.6H98.2122V56.6ZM66.5322 57.08L66.4941 56.0807L65.8396 56.1057L65.6009 56.7156L66.5322 57.08ZM63.2922 65.36L62.3609 64.9956L62.3577 65.004L63.2922 65.36ZM62.8122 76.88L62.172 77.6482L62.2063 77.6768L62.243 77.7022L62.8122 76.88ZM67.6122 78.2L68.5369 77.8192L68.3018 77.2483L67.6861 77.2027L67.6122 78.2ZM68.4522 83.36L68.3643 84.3561L69.4522 84.4521V83.36H68.4522ZM47.0922 83.36H46.0922V84.414L47.1447 84.3586L47.0922 83.36ZM47.9322 78.32L47.7433 77.338L47.2131 77.44L47.0075 77.9393L47.9322 78.32ZM52.8522 75.2L53.6659 75.7812L53.6659 75.7812L52.8522 75.2ZM57.5322 65.36L58.4628 65.7261L58.4639 65.7232L57.5322 65.36ZM82.3722 1.64L82.1431 0.666579L81.6314 0.786986L81.4405 1.27679L82.3722 1.64ZM87.0522 1.16L87.9689 0.76041L87.7072 0.159995H87.0522V1.16ZM115.612 66.68L114.695 67.0796L114.699 67.0877L115.612 66.68ZM120.292 75.56L119.503 76.1739L119.513 76.1872L119.524 76.2002L120.292 75.56ZM95.9322 51.2V52.2H97.4465L96.8519 50.8073L95.9322 51.2ZM86.8122 29.84L87.7319 29.4473L87.7293 29.4413L86.8122 29.84ZM81.5322 16.76L82.476 16.4296L81.4949 13.6265L80.5807 16.4522L81.5322 16.76ZM76.9722 29.72L77.9053 30.0797L77.9085 30.0712L77.9116 30.0628L76.9722 29.72ZM68.6922 51.2L67.7591 50.8403L67.235 52.2H68.6922V51.2ZM123.894 78.4873C124.344 79.9852 124.572 81.6075 124.572 83.36H126.572C126.572 81.4325 126.321 79.6148 125.81 77.9127L123.894 78.4873ZM125.622 82.3612C120.807 82.1205 116.231 82 111.892 82V84C116.194 84 120.737 84.1195 125.522 84.3588L125.622 82.3612ZM111.892 82C107.634 82 103.097 82.1205 98.2823 82.3612L98.3821 84.3588C103.168 84.1195 107.671 84 111.892 84V82ZM99.3322 83.36C99.3322 81.0844 99.6127 79.555 100.067 78.6472L98.2778 77.7528C97.6116 79.085 97.3322 80.9956 97.3322 83.36H99.3322ZM99.2787 79.1943C101.527 78.9535 103.262 78.5808 104.331 77.9979L103.373 76.2421C102.682 76.6192 101.298 76.9665 99.0657 77.2057L99.2787 79.1943ZM104.299 78.0144C104.923 77.7025 105.438 77.261 105.79 76.6745C106.14 76.0905 106.292 75.4247 106.292 74.72H104.292C104.292 75.1352 104.204 75.4295 104.075 75.6455C103.947 75.859 103.741 76.0575 103.405 76.2256L104.299 78.0144ZM106.292 74.72C106.292 74.0811 106.102 73.2298 105.798 72.2373C105.486 71.2183 105.025 69.9583 104.419 68.4643L102.565 69.2157C103.16 70.6817 103.598 71.8817 103.886 72.8227C104.182 73.7902 104.292 74.3989 104.292 74.72H106.292ZM104.41 68.4439L99.1304 56.2039L97.294 56.9961L102.574 69.2361L104.41 68.4439ZM98.2122 55.6C85.4852 55.6 74.9115 55.7601 66.4941 56.0807L66.5703 58.0793C74.9529 57.7599 85.4992 57.6 98.2122 57.6V55.6ZM65.6009 56.7156L62.3609 64.9956L64.2234 65.7244L67.4634 57.4444L65.6009 56.7156ZM62.3577 65.004C61.0654 68.3962 60.3722 71.1741 60.3722 73.28H62.3722C62.3722 71.5458 62.959 69.0438 64.2267 65.716L62.3577 65.004ZM60.3722 73.28C60.3722 75.0869 60.923 76.6074 62.172 77.6482L63.4524 76.1118C62.7814 75.5526 62.3722 74.6731 62.3722 73.28H60.3722ZM62.243 77.7022C63.4999 78.5724 65.3117 79.0323 67.5383 79.1973L67.6861 77.2027C65.5927 77.0477 64.2044 76.6276 63.3814 76.0578L62.243 77.7022ZM66.6875 78.5807C67.1817 79.781 67.4522 81.3606 67.4522 83.36H69.4522C69.4522 81.1994 69.1626 79.339 68.5369 77.8192L66.6875 78.5807ZM68.5401 82.3639C65.7767 82.12 61.9426 82 57.0522 82V84C61.9218 84 65.6877 84.12 68.3643 84.3561L68.5401 82.3639ZM57.0522 82C54.944 82 51.6016 82.1213 47.0396 82.3614L47.1447 84.3586C51.7028 84.1187 55.0004 84 57.0522 84V82ZM48.0922 83.36C48.0922 81.4465 48.361 79.905 48.8569 78.7007L47.0075 77.9393C46.3834 79.455 46.0922 81.2735 46.0922 83.36H48.0922ZM48.121 79.302C50.4458 78.8549 52.3125 77.676 53.6659 75.7812L52.0385 74.6188C50.9919 76.084 49.5786 76.9851 47.7433 77.338L48.121 79.302ZM53.6659 75.7812C54.9463 73.9888 56.5448 70.6008 58.4628 65.7261L56.6016 64.9939C54.6795 69.8792 53.1581 73.0512 52.0385 74.6188L53.6659 75.7812ZM58.4639 65.7232L83.3039 2.0032L81.4405 1.27679L56.6005 64.9968L58.4639 65.7232ZM82.6012 2.61341C83.8697 2.31494 85.3504 2.16 87.0522 2.16V0.159995C85.234 0.159995 83.5946 0.325051 82.1431 0.666579L82.6012 2.61341ZM86.1355 1.55958L114.695 67.0796L116.529 66.2804L87.9689 0.76041L86.1355 1.55958ZM114.699 67.0877C116.695 71.5577 118.298 74.6251 119.503 76.1739L121.082 74.9461C120.046 73.6149 118.53 70.7623 116.525 66.2723L114.699 67.0877ZM119.524 76.2002C120.875 77.8216 122.606 78.8244 124.681 79.1852L125.024 77.2148C123.418 76.9356 122.109 76.1784 121.06 74.9198L119.524 76.2002ZM96.8519 50.8073L87.7319 29.4473L85.8925 30.2327L95.0125 51.5927L96.8519 50.8073ZM87.7293 29.4413C85.3328 23.9294 83.5841 19.5954 82.476 16.4296L80.5883 17.0903C81.7203 20.3246 83.4916 24.7106 85.8951 30.2387L87.7293 29.4413ZM80.5807 16.4522C79.7069 19.1533 78.1923 23.4585 76.0328 29.3772L77.9116 30.0628C80.0721 24.1415 81.5975 19.8067 82.4836 17.0678L80.5807 16.4522ZM76.0391 29.3603L67.7591 50.8403L69.6253 51.5597L77.9053 30.0797L76.0391 29.3603ZM68.6922 52.2H95.9322V50.2H68.6922V52.2ZM192.784 65.96L193.579 65.3533L193.579 65.3531L192.784 65.96ZM198.424 72.8L197.698 73.4877L197.708 73.4976L197.717 73.5071L198.424 72.8ZM203.464 76.28L203.048 77.1891L203.464 76.28ZM210.904 77.84H211.904V76.8912L210.957 76.8414L210.904 77.84ZM210.304 83V84H211.064L211.268 83.2676L210.304 83ZM191.224 83.72L190.369 84.2383L190.697 84.7788L191.326 84.7149L191.224 83.72ZM159.064 43.88L159.737 43.1401L158.064 41.6194V43.88H159.064ZM160.744 75.92L159.955 76.5339L159.974 76.5584L159.995 76.5816L160.744 75.92ZM167.344 78.2L168.286 77.8637L168.061 77.2346L167.394 77.2012L167.344 78.2ZM167.944 83.36L167.894 84.3588L168.944 84.4112V83.36H167.944ZM138.904 83.36H137.904V84.4206L138.963 84.3583L138.904 83.36ZM139.504 78.2L139.454 77.2012L138.787 77.2346L138.563 77.8637L139.504 78.2ZM145.984 75.92L145.216 75.2798L145.212 75.2843L145.984 75.92ZM145.984 9.07999L145.195 9.69393L145.214 9.71839L145.235 9.74161L145.984 9.07999ZM139.504 6.68L138.563 7.01633L138.787 7.64539L139.454 7.67875L139.504 6.68ZM138.904 1.52L138.959 0.521482L137.904 0.463966V1.52H138.904ZM167.944 1.52H168.944V0.468749L167.894 0.521245L167.944 1.52ZM167.344 6.68L167.394 7.67875L168.061 7.64539L168.286 7.01633L167.344 6.68ZM160.744 9.07999L159.976 8.4398L159.972 8.44429L160.744 9.07999ZM159.064 40.4H158.064V42.8959L159.788 41.0905L159.064 40.4ZM181.744 16.64L181.028 15.9423L181.021 15.9495L181.744 16.64ZM182.224 6.68L181.27 6.97827L181.482 7.65797L182.194 7.67954L182.224 6.68ZM181.624 1.52L181.715 0.524104L180.624 0.424966V1.52H181.624ZM206.344 1.52H207.344V0.44219L206.27 0.522798L206.344 1.52ZM205.624 6.68L205.68 7.67846L206.299 7.64405L206.544 7.07391L205.624 6.68ZM197.704 9.07999L197.19 8.2225L197.19 8.2225L197.704 9.07999ZM188.584 17.12L189.312 17.8058L189.313 17.8044L188.584 17.12ZM169.024 37.88L168.297 37.1942L167.617 37.9159L168.332 38.602L169.024 37.88ZM191.989 66.5667C194.316 69.6159 196.222 71.9291 197.698 73.4877L199.15 72.1123C197.747 70.6309 195.892 68.3841 193.579 65.3533L191.989 66.5667ZM197.717 73.5071C199.244 75.0343 201.024 76.2614 203.048 77.1891L203.881 75.3709C202.065 74.5386 200.484 73.4457 199.131 72.0929L197.717 73.5071ZM203.048 77.1891C205.121 78.1393 207.737 78.6747 210.852 78.8386L210.957 76.8414C207.992 76.6853 205.648 76.1807 203.881 75.3709L203.048 77.1891ZM209.904 77.84C209.904 79.778 209.71 81.4032 209.341 82.7324L211.268 83.2676C211.699 81.7168 211.904 79.902 211.904 77.84H209.904ZM210.304 82C202.29 82 195.892 82.2402 191.123 82.7251L191.326 84.7149C195.997 84.2398 202.319 84 210.304 84V82ZM192.08 83.2017C188.849 77.8714 183.981 71.075 177.49 62.8218L175.918 64.0582C182.388 72.285 187.2 79.0086 190.369 84.2383L192.08 83.2017ZM177.49 62.8218C170.99 54.5564 165.072 47.9903 159.737 43.1401L158.392 44.6199C163.616 49.3696 169.458 55.8436 175.918 64.0582L177.49 62.8218ZM158.064 43.88V67.76H160.064V43.88H158.064ZM158.064 67.76C158.064 69.8009 158.207 71.5534 158.505 73.0017C158.801 74.4405 159.265 75.6462 159.955 76.5339L161.534 75.3061C161.104 74.7538 160.728 73.8795 160.464 72.5983C160.202 71.3266 160.064 69.7191 160.064 67.76H158.064ZM159.995 76.5816C161.469 78.2522 164.016 79.0348 167.294 79.1988L167.394 77.2012C164.273 77.0452 162.42 76.3078 161.494 75.2584L159.995 76.5816ZM166.403 78.5363C166.743 79.4888 166.944 81.0671 166.944 83.36H168.944C168.944 81.0129 168.746 79.1512 168.286 77.8637L166.403 78.5363ZM167.994 82.3612C163.177 82.1204 158.321 82 153.424 82V84C158.288 84 163.111 84.1196 167.894 84.3588L167.994 82.3612ZM153.424 82C147.811 82 142.951 82.1202 138.846 82.3617L138.963 84.3583C143.018 84.1198 147.837 84 153.424 84V82ZM139.904 83.36C139.904 81.0671 140.106 79.4888 140.446 78.5363L138.563 77.8637C138.103 79.1512 137.904 81.0129 137.904 83.36H139.904ZM139.554 79.1988C142.823 79.0353 145.357 78.2554 146.756 76.5557L145.212 75.2843C144.372 76.3046 142.585 77.0447 139.454 77.2012L139.554 79.1988ZM146.753 76.5602C147.493 75.6721 147.992 74.4617 148.311 73.0154C148.632 71.5614 148.784 69.8039 148.784 67.76H146.784C146.784 69.7161 146.637 71.3186 146.358 72.5846C146.077 73.8583 145.676 74.7279 145.216 75.2798L146.753 76.5602ZM148.784 67.76V17.12H146.784V67.76H148.784ZM148.784 17.12C148.784 15.0766 148.632 13.3276 148.31 11.8915C147.991 10.4648 147.489 9.2733 146.734 8.41837L145.235 9.74161C145.68 10.2467 146.078 11.0752 146.359 12.3285C146.637 13.5724 146.784 15.1634 146.784 17.12H148.784ZM146.774 8.46605C145.378 6.67151 142.837 5.84539 139.554 5.68124L139.454 7.67875C142.572 7.83461 144.351 8.60849 145.195 9.69393L146.774 8.46605ZM140.446 6.34366C140.106 5.39118 139.904 3.81292 139.904 1.52H137.904C137.904 3.86708 138.103 5.72881 138.563 7.01633L140.446 6.34366ZM138.85 2.51851C143.271 2.75967 148.13 2.87999 153.424 2.87999V0.879993C148.159 0.879993 143.338 0.760319 138.959 0.521482L138.85 2.51851ZM153.424 2.87999C158.321 2.87999 163.177 2.75959 167.994 2.51875L167.894 0.521245C163.111 0.760398 158.288 0.879993 153.424 0.879993V2.87999ZM166.944 1.52C166.944 3.81292 166.743 5.39118 166.403 6.34366L168.286 7.01633C168.746 5.72881 168.944 3.86708 168.944 1.52H166.944ZM167.294 5.68124C164.003 5.84583 161.447 6.67436 159.976 8.43981L161.513 9.72018C162.441 8.60563 164.286 7.83417 167.394 7.67875L167.294 5.68124ZM159.972 8.44429C159.268 9.29957 158.802 10.4866 158.506 11.9055C158.207 13.3358 158.064 15.0796 158.064 17.12H160.064C160.064 15.1603 160.202 13.5642 160.463 12.3145C160.727 11.0534 161.101 10.2204 161.516 9.7157L159.972 8.44429ZM158.064 17.12V40.4H160.064V17.12H158.064ZM159.788 41.0905L182.468 17.3305L181.021 15.9495L158.341 39.7095L159.788 41.0905ZM182.461 17.3376C183.969 15.7886 185.133 14.37 185.926 13.0849C186.71 11.8132 187.184 10.5856 187.184 9.44H185.184C185.184 10.0544 184.919 10.9067 184.223 12.0351C183.536 13.15 182.48 14.4514 181.028 15.9424L182.461 17.3376ZM187.184 9.44C187.184 8.26893 186.723 7.27626 185.766 6.6096C184.875 5.9882 183.656 5.72293 182.255 5.68045L182.194 7.67954C183.432 7.71706 184.194 7.95179 184.623 8.25039C184.986 8.50373 185.184 8.85106 185.184 9.44H187.184ZM183.179 6.38172C182.822 5.23883 182.624 3.63259 182.624 1.52H180.624C180.624 3.72741 180.827 5.56116 181.27 6.97827L183.179 6.38172ZM181.534 2.51589C184.222 2.76023 188.38 2.87999 193.984 2.87999V0.879993C188.389 0.879993 184.307 0.759756 181.715 0.524104L181.534 2.51589ZM193.984 2.87999C199.037 2.87999 203.184 2.7598 206.419 2.5172L206.27 0.522798C203.104 0.760191 199.012 0.879993 193.984 0.879993V2.87999ZM205.344 1.52C205.344 3.80485 205.103 5.35792 204.705 6.28608L206.544 7.07391C207.106 5.76207 207.344 3.87514 207.344 1.52H205.344ZM205.569 5.68154C202.532 5.85026 199.734 6.69632 197.19 8.2225L198.219 9.93749C200.475 8.58368 202.957 7.82973 205.68 7.67846L205.569 5.68154ZM197.19 8.2225C194.668 9.73558 191.552 12.498 187.855 16.4356L189.313 17.8044C192.977 13.9019 195.941 11.3044 198.219 9.93749L197.19 8.2225ZM187.857 16.4342L168.297 37.1942L169.752 38.5658L189.312 17.8058L187.857 16.4342ZM168.332 38.602C174.034 44.0656 181.915 53.3739 191.99 66.5669L193.579 65.3531C183.494 52.1461 175.535 42.7344 169.716 37.158L168.332 38.602ZM279.032 62.48L279.329 61.5249L278.411 61.24L278.09 62.1462L279.032 62.48ZM284.312 65.36L285.264 65.6665L285.452 65.0849L285.02 64.6529L284.312 65.36ZM280.592 83.24L280.567 84.2397L281.465 84.2627L281.584 83.3722L280.592 83.24ZM223.832 83.36H222.832V84.4008L223.872 84.3592L223.832 83.36ZM224.432 78.2L224.361 77.2025L223.71 77.249L223.491 77.8637L224.432 78.2ZM229.472 77L229.002 76.1176L228.989 76.1245L228.976 76.1318L229.472 77ZM231.992 73.64L231.035 73.3527L231.035 73.3527L231.992 73.64ZM230.912 9.07999L230.123 9.69393L230.142 9.71839L230.163 9.74161L230.912 9.07999ZM224.432 6.68L223.491 7.01633L223.715 7.64539L224.383 7.67875L224.432 6.68ZM223.832 1.52L223.883 0.521288L222.832 0.467859V1.52H223.832ZM277.712 1.52L278.708 1.42946L278.623 0.491943L277.682 0.520456L277.712 1.52ZM280.232 20.48L280.857 21.2609L281.347 20.8686L281.207 20.2566L280.232 20.48ZM274.832 21.92L273.836 22.0089L273.918 22.92H274.832V21.92ZM269.912 11L269.195 11.6971L269.205 11.7072L269.215 11.717L269.912 11ZM243.992 6.68V5.68H242.992V6.68H243.992ZM243.992 39.56H242.992V40.56H243.992V39.56ZM261.872 37.64L262.444 38.4609L262.451 38.456L261.872 37.64ZM264.872 29.84L264.592 28.88L263.888 29.0855L263.873 29.8192L264.872 29.84ZM270.632 29L271.631 29.0587L271.693 28H270.632V29ZM270.632 56V57H271.693L271.631 55.9413L270.632 56ZM265.112 55.4L264.115 55.4767L264.17 56.186L264.858 56.3671L265.112 55.4ZM261.752 47L261.116 47.771L261.134 47.7859L261.152 47.8L261.752 47ZM243.992 44.72V43.72H242.992V44.72H243.992ZM244.832 73.4L243.889 73.7303L243.891 73.738L243.894 73.7457L244.832 73.4ZM247.952 76.64L247.564 77.5616L247.573 77.5651L247.581 77.5685L247.952 76.64ZM274.832 71.24L274.021 70.6557L274.013 70.6666L274.006 70.6777L274.832 71.24ZM278.736 63.4351C280.964 64.1264 282.559 65.0206 283.605 66.0671L285.02 64.6529C283.666 63.2994 281.741 62.2736 279.329 61.5249L278.736 63.4351ZM283.361 65.0535C281.816 69.8498 280.566 75.8732 279.601 83.1078L281.584 83.3722C282.539 76.2068 283.769 70.3102 285.264 65.6665L283.361 65.0535ZM280.618 82.2403C274.366 82.08 265.796 82 254.912 82V84C265.789 84 274.339 84.08 280.567 84.2397L280.618 82.2403ZM254.912 82C240.193 82 229.815 82.1199 223.793 82.3608L223.872 84.3592C229.85 84.1201 240.192 84 254.912 84V82ZM224.832 83.36C224.832 81.0671 225.034 79.4888 225.374 78.5363L223.491 77.8637C223.031 79.1512 222.832 81.0129 222.832 83.36H224.832ZM224.504 79.1975C226.798 79.0336 228.655 78.6187 229.969 77.8682L228.976 76.1318C228.05 76.6613 226.547 77.0464 224.361 77.2025L224.504 79.1975ZM229.943 77.8824C231.43 77.0894 232.412 75.7207 232.95 73.9273L231.035 73.3527C230.613 74.7593 229.915 75.6306 229.002 76.1176L229.943 77.8824ZM232.95 73.9273C233.473 72.184 233.712 69.6655 233.712 66.44H231.712C231.712 69.6145 231.472 71.896 231.035 73.3527L232.95 73.9273ZM233.712 66.44V17.12H231.712V66.44H233.712ZM233.712 17.12C233.712 15.0766 233.56 13.3276 233.238 11.8915C232.919 10.4648 232.417 9.2733 231.662 8.41837L230.163 9.74161C230.608 10.2467 231.006 11.0752 231.287 12.3285C231.565 13.5724 231.712 15.1634 231.712 17.12H233.712ZM231.702 8.46605C230.306 6.67151 227.765 5.84539 224.482 5.68124L224.383 7.67875C227.5 7.83461 229.279 8.60849 230.123 9.69393L231.702 8.46605ZM225.374 6.34366C225.034 5.39118 224.832 3.81292 224.832 1.52H222.832C222.832 3.86708 223.031 5.72881 223.491 7.01633L225.374 6.34366ZM223.782 2.51871C228.527 2.76 235.267 2.87999 243.992 2.87999V0.879993C235.278 0.879993 228.578 0.759989 223.883 0.521288L223.782 2.51871ZM243.992 2.87999C258.556 2.87999 269.808 2.76 277.743 2.51954L277.682 0.520456C269.777 0.759994 258.549 0.879993 243.992 0.879993V2.87999ZM276.717 1.61053C277.517 10.4143 278.362 16.7924 279.258 20.7034L281.207 20.2566C280.343 16.4876 279.508 10.2257 278.708 1.42946L276.717 1.61053ZM279.608 19.6991C278.66 20.457 277.126 20.92 274.832 20.92V22.92C277.339 22.92 279.405 22.423 280.857 21.2609L279.608 19.6991ZM275.829 21.8311C275.41 17.1432 273.682 13.27 270.61 10.283L269.215 11.717C271.903 14.33 273.455 17.7368 273.836 22.0089L275.829 21.8311ZM270.629 10.3029C267.541 7.12639 262.274 5.68 255.152 5.68V7.68C262.111 7.68 266.684 9.1136 269.195 11.6971L270.629 10.3029ZM255.152 5.68H243.992V7.68H255.152V5.68ZM242.992 6.68V39.56H244.992V6.68H242.992ZM243.992 40.56H251.552V38.56H243.992V40.56ZM251.552 40.56C254.11 40.56 256.295 40.3981 258.095 40.0631C259.885 39.7302 261.36 39.2145 262.444 38.4609L261.301 36.8191C260.545 37.3454 259.38 37.7898 257.73 38.0969C256.09 38.4019 254.035 38.56 251.552 38.56V40.56ZM262.451 38.456C264.758 36.8215 265.79 33.8169 265.872 29.8608L263.873 29.8192C263.795 33.5431 262.827 35.7385 261.294 36.824L262.451 38.456ZM265.152 30.8C266.985 30.2654 268.811 30 270.632 30V28C268.614 28 266.6 28.2946 264.592 28.88L265.152 30.8ZM269.634 28.9413C269.472 31.6928 269.392 36.0779 269.392 42.08H271.392C271.392 36.0821 271.473 31.7472 271.631 29.0587L269.634 28.9413ZM269.392 42.08C269.392 48.6401 269.472 53.3063 269.634 56.0587L271.631 55.9413C271.473 53.2537 271.392 48.6399 271.392 42.08H269.392ZM270.632 55C268.529 55 266.779 54.8046 265.367 54.4329L264.858 56.3671C266.485 56.7954 268.416 57 270.632 57V55ZM266.11 55.3233C265.783 51.077 264.626 47.9049 262.352 46.2L261.152 47.8C262.719 48.9751 263.802 51.403 264.115 55.4767L266.11 55.3233ZM262.389 46.229C260.257 44.4679 256.537 43.72 251.552 43.72V45.72C256.488 45.72 259.568 46.4921 261.116 47.771L262.389 46.229ZM251.552 43.72H243.992V45.72H251.552V43.72ZM242.992 44.72V66.44H244.992V44.72H242.992ZM242.992 66.44C242.992 69.518 243.273 71.9714 243.889 73.7303L245.776 73.0696C245.272 71.6286 244.992 69.442 244.992 66.44H242.992ZM243.894 73.7457C244.552 75.5309 245.794 76.8164 247.564 77.5616L248.341 75.7184C247.071 75.1836 246.233 74.3091 245.771 73.0543L243.894 73.7457ZM247.581 77.5685C249.357 78.2788 251.827 78.6 254.912 78.6V76.6C251.918 76.6 249.748 76.2812 248.324 75.7115L247.581 77.5685ZM254.912 78.6H255.632V76.6H254.912V78.6ZM255.632 78.6C261.197 78.6 265.579 78.0386 268.706 76.8553L267.999 74.9847C265.206 76.0414 261.108 76.6 255.632 76.6V78.6ZM268.706 76.8553C271.8 75.6848 274.153 74.0178 275.659 71.8023L274.006 70.6777C272.792 72.4622 270.825 73.9152 267.999 74.9847L268.706 76.8553ZM275.644 71.8243C277.164 69.7138 278.601 66.693 279.975 62.8138L278.09 62.1462C276.744 65.947 275.381 68.7662 274.021 70.6557L275.644 71.8243ZM107.92 245.08L108.879 244.798L108.686 244.14L108.003 244.083L107.92 245.08ZM108.52 250.36L108.455 251.358L109.52 251.427V250.36H108.52ZM79.48 250.36H78.48V251.421L79.5387 251.358L79.48 250.36ZM80.2 245.2L80.0953 244.205L79.4437 244.274L79.2464 244.899L80.2 245.2ZM86.32 243.16L85.6129 242.453L85.6129 242.453L86.32 243.16ZM87.52 231.4L88.5151 231.3L88.5145 231.296L87.52 231.4ZM83.2 190.24L84.1945 190.136L82.2761 189.857L83.2 190.24ZM58.36 250.24L58.7408 251.165L59.125 251.006L59.284 250.623L58.36 250.24ZM53.44 251.08L52.5317 251.498L52.7995 252.08H53.44V251.08ZM25.48 190.36L26.3883 189.942L24.8498 186.601L24.4849 190.261L25.48 190.36ZM21.64 228.88L22.635 228.98L22.6351 228.979L21.64 228.88ZM23.08 242.8L22.3118 243.44L22.3311 243.463L22.3518 243.485L23.08 242.8ZM29.44 245.2L30.3994 244.918L30.2055 244.259L29.5208 244.203L29.44 245.2ZM30.04 250.36L29.9776 251.358L31.04 251.424V250.36H30.04ZM5.2 250.36H4.2V251.436L5.27298 251.357L5.2 250.36ZM5.8 245.2L5.69347 244.206L5.02915 244.277L4.84063 244.918L5.8 245.2ZM10.96 243.52L11.5514 244.326L11.5514 244.326L10.96 243.52ZM13.72 238.72L12.7622 238.433L12.759 238.443L12.756 238.454L13.72 238.72ZM15.52 227.8L16.5152 227.898L16.516 227.89L15.52 227.8ZM19.36 185.08L18.3661 184.97L18.365 184.98L18.364 184.99L19.36 185.08ZM17.56 175.6L16.8529 176.307L16.8529 176.307L17.56 175.6ZM11.32 173.68L10.3655 173.978L10.5848 174.68H11.32V173.68ZM10.72 168.52L10.8195 167.525L9.72 167.415V168.52H10.72ZM28.96 168.52L29.8712 168.108L29.5824 167.469L28.8833 167.523L28.96 168.52ZM58.96 234.88L58.0488 235.292L59.023 237.447L59.8903 235.247L58.96 234.88ZM85.12 168.52L85.2079 167.524L84.4637 167.458L84.1897 168.153L85.12 168.52ZM103.6 168.52H104.6V167.442L103.525 167.523L103.6 168.52ZM103 173.68V174.68H103.771L103.967 173.934L103 173.68ZM96.76 175.72L96.0734 174.993L96.063 175.003L96.0529 175.013L96.76 175.72ZM94.84 185.8L95.8353 185.702L95.8339 185.69L94.84 185.8ZM99.16 229.84L98.1648 229.938L98.165 229.94L99.16 229.84ZM100.72 239.08L99.7612 239.364L99.7642 239.374L100.72 239.08ZM103.36 243.52L102.742 244.306L102.742 244.306L103.36 243.52ZM106.961 245.362C107.324 246.596 107.52 248.251 107.52 250.36H109.52C109.52 248.149 109.316 246.284 108.879 244.798L106.961 245.362ZM108.585 249.362C104.875 249.12 100.05 249 94.12 249V251C100.03 251 104.805 251.12 108.455 251.358L108.585 249.362ZM94.12 249C88.4273 249 83.5267 249.12 79.4213 249.362L79.5387 251.358C83.5933 251.12 88.4527 251 94.12 251V249ZM80.48 250.36C80.48 248.522 80.7099 246.906 81.1536 245.501L79.2464 244.899C78.7301 246.534 78.48 248.358 78.48 250.36H80.48ZM80.3047 246.195C83.3692 245.872 85.7235 245.171 87.0271 243.867L85.6129 242.453C84.8365 243.229 83.1109 243.888 80.0953 244.205L80.3047 246.195ZM87.0271 243.867C88.3649 242.529 88.88 240.252 88.88 237.4H86.88C86.88 240.148 86.3551 241.711 85.6129 242.453L87.0271 243.867ZM88.88 237.4C88.88 235.755 88.7569 233.719 88.515 231.3L86.525 231.5C86.7631 233.881 86.88 235.845 86.88 237.4H88.88ZM88.5145 231.296L84.1945 190.136L82.2055 190.344L86.5255 231.504L88.5145 231.296ZM82.2761 189.857L57.4361 249.857L59.284 250.623L84.124 190.623L82.2761 189.857ZM57.9793 249.315C56.7708 249.813 55.2674 250.08 53.44 250.08V252.08C55.4527 252.08 57.2292 251.787 58.7408 251.165L57.9793 249.315ZM54.3483 250.662L26.3883 189.942L24.5717 190.778L52.5317 251.498L54.3483 250.662ZM24.4849 190.261L20.6449 228.781L22.6351 228.979L26.4751 190.459L24.4849 190.261ZM20.645 228.78C20.4028 231.202 20.28 233.317 20.28 235.12H22.28C22.28 233.403 22.3972 231.358 22.635 228.98L20.645 228.78ZM20.28 235.12C20.28 238.841 20.8731 241.714 22.3118 243.44L23.8482 242.16C22.8869 241.006 22.28 238.759 22.28 235.12H20.28ZM22.3518 243.485C23.8774 245.106 26.2908 245.948 29.3592 246.197L29.5208 244.203C26.6692 243.972 24.8426 243.214 23.8082 242.115L22.3518 243.485ZM28.4806 245.482C28.8443 246.719 29.04 248.335 29.04 250.36H31.04C31.04 248.225 30.8357 246.401 30.3994 244.918L28.4806 245.482ZM30.1024 249.362C26.2376 249.12 21.9364 249 17.2 249V251C21.9036 251 26.1624 251.12 29.9776 251.358L30.1024 249.362ZM17.2 249C12.4651 249 8.43922 249.12 5.12702 249.363L5.27298 251.357C8.52078 251.12 12.4949 251 17.2 251V249ZM6.2 250.36C6.2 248.335 6.3957 246.719 6.75937 245.482L4.84063 244.918C4.4043 246.401 4.2 248.225 4.2 250.36H6.2ZM5.90653 246.194C8.23873 245.944 10.1542 245.351 11.5514 244.326L10.3686 242.714C9.3658 243.449 7.84128 243.976 5.69347 244.206L5.90653 246.194ZM11.5514 244.326C13.0149 243.253 14.0184 241.399 14.684 238.986L12.756 238.454C12.1416 240.681 11.3051 242.027 10.3686 242.714L11.5514 244.326ZM14.6778 239.007C15.4265 236.512 16.0337 232.793 16.5152 227.898L14.5248 227.702C14.0463 232.567 13.4535 236.128 12.7622 238.433L14.6778 239.007ZM16.516 227.89L20.356 185.17L18.364 184.99L14.524 227.71L16.516 227.89ZM20.3539 185.19C20.4397 184.418 20.48 183.416 20.48 182.2H18.48C18.48 183.384 18.4403 184.302 18.3661 184.97L20.3539 185.19ZM20.48 182.2C20.48 178.994 19.8315 176.457 18.2671 174.893L16.8529 176.307C17.8485 177.303 18.48 179.166 18.48 182.2H20.48ZM18.2671 174.893C16.7145 173.34 14.314 172.68 11.32 172.68V174.68C14.086 174.68 15.8455 175.3 16.8529 176.307L18.2671 174.893ZM12.2745 173.382C11.9173 172.239 11.72 170.633 11.72 168.52H9.72C9.72 170.727 9.92267 172.561 10.3655 173.978L12.2745 173.382ZM10.6205 169.515C13.0659 169.76 16.1421 169.88 19.84 169.88V167.88C16.1779 167.88 13.1741 167.76 10.8195 167.525L10.6205 169.515ZM19.84 169.88C22.827 169.88 25.8926 169.759 29.0367 169.517L28.8833 167.523C25.7874 167.761 22.773 167.88 19.84 167.88V169.88ZM28.0488 168.932L58.0488 235.292L59.8712 234.468L29.8712 168.108L28.0488 168.932ZM59.8903 235.247L86.0503 168.887L84.1897 168.153L58.0297 234.513L59.8903 235.247ZM85.0321 169.516C87.7883 169.759 90.9386 169.88 94.48 169.88V167.88C90.9815 167.88 87.8917 167.761 85.2079 167.524L85.0321 169.516ZM94.48 169.88C97.3876 169.88 100.453 169.759 103.675 169.517L103.525 167.523C100.347 167.761 97.3324 167.88 94.48 167.88V169.88ZM102.6 168.52C102.6 170.372 102.407 172.005 102.033 173.426L103.967 173.934C104.393 172.315 104.6 170.508 104.6 168.52H102.6ZM103 172.68C100.121 172.68 97.759 173.401 96.0734 174.993L97.4466 176.447C98.641 175.319 100.439 174.68 103 174.68V172.68ZM96.0529 175.013C94.4066 176.659 93.72 179.358 93.72 182.8H95.72C95.72 179.522 96.3934 177.501 97.4671 176.427L96.0529 175.013ZM93.72 182.8C93.72 184.094 93.7601 185.136 93.8461 185.91L95.8339 185.69C95.7599 185.024 95.72 184.066 95.72 182.8H93.72ZM93.8448 185.898L98.1648 229.938L100.155 229.742L95.8352 185.702L93.8448 185.898ZM98.165 229.94C98.5672 233.962 99.0947 237.114 99.7612 239.364L101.679 238.796C101.065 236.726 100.553 233.718 100.155 229.74L98.165 229.94ZM99.7642 239.374C100.435 241.553 101.398 243.25 102.742 244.306L103.978 242.734C103.082 242.03 102.285 240.767 101.676 238.786L99.7642 239.374ZM102.742 244.306C104.062 245.343 105.789 245.906 107.837 246.077L108.003 244.083C106.211 243.934 104.898 243.457 103.978 242.734L102.742 244.306ZM183.24 234.4L182.268 234.162L182.268 234.162L183.24 234.4ZM177.84 244.24L177.133 243.533L177.133 243.533L177.84 244.24ZM135.6 244L134.868 244.682L134.874 244.688L135.6 244ZM128.4 177.76L127.426 177.989L127.433 178.016L127.44 178.042L128.4 177.76ZM126.48 174.88L126.984 174.016L126.984 174.016L126.48 174.88ZM121.92 173.68L120.956 173.948L121.136 174.596L121.805 174.673L121.92 173.68ZM121.32 168.52L121.394 167.523L120.32 167.442V168.52H121.32ZM149.16 168.52H150.16V167.451L149.093 167.522L149.16 168.52ZM148.56 173.68L148.653 174.676L149.339 174.611L149.523 173.948L148.56 173.68ZM143.04 174.88L143.459 175.788L143.473 175.781L143.487 175.774L143.04 174.88ZM140.88 177.64L141.834 177.938L141.837 177.93L141.839 177.922L140.88 177.64ZM144.84 238.36L144.022 238.935L144.028 238.944L144.034 238.953L144.84 238.36ZM167.52 243.64L167.816 244.595L167.826 244.592L167.836 244.589L167.52 243.64ZM173.4 240.16L174.107 240.867L174.107 240.867L173.4 240.16ZM177.36 232.72L176.391 232.472L176.389 232.481L176.387 232.49L177.36 232.72ZM177.96 179.8L176.979 179.996L176.979 179.996L177.96 179.8ZM175.56 175.48L174.909 176.239L174.938 176.264L174.968 176.286L175.56 175.48ZM170.28 173.68L169.299 173.876L169.444 174.601L170.18 174.675L170.28 173.68ZM169.68 168.52L169.768 167.524L168.68 167.428V168.52H169.68ZM192.36 168.52H193.36V167.44L192.283 167.523L192.36 168.52ZM191.76 173.68L191.884 174.672L192.615 174.581L192.744 173.856L191.76 173.68ZM187.32 175.36L186.674 174.597L186.659 174.609L186.644 174.623L187.32 175.36ZM185.28 179.92L186.262 180.109L186.263 180.102L185.28 179.92ZM183.68 217.72C183.68 224.892 183.2 230.358 182.268 234.162L184.211 234.638C185.199 230.602 185.68 224.948 185.68 217.72H183.68ZM182.268 234.162C181.348 237.919 179.633 241.033 177.133 243.533L178.547 244.947C181.327 242.167 183.211 238.721 184.211 234.638L182.268 234.162ZM177.133 243.533C172.812 247.854 166.618 250.08 158.4 250.08V252.08C166.981 252.08 173.747 249.746 178.547 244.947L177.133 243.533ZM158.4 250.08C147.784 250.08 140.525 247.736 136.325 243.312L134.874 244.688C139.635 249.704 147.575 252.08 158.4 252.08V250.08ZM136.331 243.318C132.174 238.859 130 231.913 130 222.28H128C128 232.167 130.225 239.701 134.868 244.682L136.331 243.318ZM130 222.28V184.12H128V222.28H130ZM130 184.12C130 181.222 129.801 178.982 129.359 177.478L127.44 178.042C127.798 179.258 128 181.258 128 184.12H130ZM129.373 177.531C129.007 175.977 128.238 174.748 126.984 174.016L125.976 175.744C126.641 176.132 127.152 176.823 127.426 177.989L129.373 177.531ZM126.984 174.016C125.84 173.349 124.152 172.931 122.034 172.687L121.805 174.673C123.848 174.909 125.199 175.291 125.976 175.744L126.984 174.016ZM122.883 173.412C122.514 172.083 122.32 170.458 122.32 168.52H120.32C120.32 170.582 120.525 172.397 120.956 173.948L122.883 173.412ZM121.245 169.517C124.483 169.76 129.153 169.88 135.24 169.88V167.88C129.167 167.88 124.557 167.76 121.394 167.523L121.245 169.517ZM135.24 169.88C140.931 169.88 145.595 169.76 149.226 169.518L149.093 167.522C145.524 167.76 140.909 167.88 135.24 167.88V169.88ZM148.16 168.52C148.16 170.458 147.965 172.083 147.596 173.412L149.523 173.948C149.954 172.397 150.16 170.582 150.16 168.52H148.16ZM148.466 172.684C145.885 172.926 143.888 173.338 142.592 173.986L143.487 175.774C144.431 175.302 146.114 174.914 148.653 174.676L148.466 172.684ZM142.621 173.972C141.258 174.601 140.381 175.792 139.92 177.358L141.839 177.922C142.179 176.768 142.741 176.119 143.459 175.788L142.621 173.972ZM139.925 177.342C139.476 178.78 139.28 181.074 139.28 184.12H141.28C141.28 181.086 141.484 179.06 141.834 177.938L139.925 177.342ZM139.28 184.12V220.6H141.28V184.12H139.28ZM139.28 220.6C139.28 228.242 140.823 234.389 144.022 238.935L145.657 237.785C142.777 233.691 141.28 227.998 141.28 220.6H139.28ZM144.034 238.953C147.413 243.544 153.062 245.72 160.68 245.72V243.72C153.418 243.72 148.507 241.656 145.645 237.767L144.034 238.953ZM160.68 245.72C163.028 245.72 165.408 245.342 167.816 244.595L167.223 242.685C164.991 243.378 162.811 243.72 160.68 243.72V245.72ZM167.836 244.589C170.357 243.748 172.459 242.515 174.107 240.867L172.693 239.453C171.3 240.845 169.482 241.932 167.203 242.691L167.836 244.589ZM174.107 240.867C176.177 238.797 177.577 236.143 178.333 232.95L176.387 232.49C175.703 235.377 174.463 237.683 172.693 239.453L174.107 240.867ZM178.328 232.968C179.16 229.723 179.56 224.941 179.56 218.68H177.56C177.56 224.899 177.159 229.477 176.391 232.472L178.328 232.968ZM179.56 218.68V188.92H177.56V218.68H179.56ZM179.56 188.92C179.56 184.826 179.36 181.705 178.94 179.604L176.979 179.996C177.359 181.895 177.56 184.854 177.56 188.92H179.56ZM178.94 179.604C178.51 177.451 177.617 175.749 176.151 174.674L174.968 176.286C175.903 176.971 176.61 178.149 176.979 179.996L178.94 179.604ZM176.21 174.721C174.865 173.567 172.865 172.934 170.379 172.685L170.18 174.675C172.494 174.906 174.015 175.473 174.909 176.239L176.21 174.721ZM171.26 173.484C170.868 171.524 170.68 169.873 170.68 168.52H168.68C168.68 170.047 168.891 171.836 169.299 173.876L171.26 173.484ZM169.592 169.516C172.355 169.76 176.149 169.88 180.96 169.88V167.88C176.171 167.88 172.444 167.76 169.768 167.524L169.592 169.516ZM180.96 169.88C185.455 169.88 189.283 169.76 192.436 169.517L192.283 167.523C189.197 167.76 185.424 167.88 180.96 167.88V169.88ZM191.36 168.52C191.36 169.63 191.172 171.281 190.775 173.504L192.744 173.856C193.147 171.599 193.36 169.81 193.36 168.52H191.36ZM191.636 172.688C189.6 172.942 187.912 173.549 186.674 174.597L187.966 176.123C188.808 175.411 190.079 174.898 191.884 174.672L191.636 172.688ZM186.644 174.623C185.447 175.72 184.711 177.497 184.296 179.738L186.263 180.102C186.648 178.023 187.273 176.76 187.995 176.097L186.644 174.623ZM184.298 179.731C183.88 181.905 183.68 184.98 183.68 188.92H185.68C185.68 185.02 185.88 182.095 186.262 180.109L184.298 179.731ZM183.68 188.92V217.72H185.68V188.92H183.68ZM220.896 249.28L220.568 250.224L220.577 250.228L220.586 250.231L220.896 249.28ZM209.016 243.4L208.029 243.241L207.923 243.898L208.488 244.249L209.016 243.4ZM210.096 226.36L209.844 225.392L209.096 225.587V226.36H210.096ZM216.576 225.64L217.575 225.59L217.527 224.64H216.576V225.64ZM221.376 240.28L220.617 240.931L220.626 240.941L221.376 240.28ZM246.576 241.96L247.247 242.702L247.248 242.701L246.576 241.96ZM248.016 224.92L247.213 225.515L247.213 225.515L248.016 224.92ZM242.136 219.64L241.609 220.49L241.62 220.496L241.631 220.503L242.136 219.64ZM232.416 214.6L231.981 215.5L231.989 215.504L231.997 215.508L232.416 214.6ZM213.456 201.04L212.614 201.58L212.622 201.592L212.631 201.605L213.456 201.04ZM216.936 173.56L217.601 174.307L217.601 174.307L216.936 173.56ZM245.856 169.36L245.579 170.321L245.589 170.324L245.599 170.326L245.856 169.36ZM254.616 173.08H255.616V172.55L255.178 172.253L254.616 173.08ZM255.336 188.92L255.715 189.846L256.434 189.551L256.327 188.782L255.336 188.92ZM248.616 190L247.631 190.168L247.773 191H248.616V190ZM243.576 176.68L242.845 177.362L242.851 177.369L242.857 177.375L243.576 176.68ZM224.496 176.2L225.151 176.956L225.151 176.956L224.496 176.2ZM223.296 193L222.483 193.581L222.489 193.591L222.496 193.6L223.296 193ZM229.296 198.52L228.769 199.37L228.775 199.374L228.782 199.377L229.296 198.52ZM239.136 203.8L238.689 204.694L238.698 204.699L238.708 204.703L239.136 203.8ZM250.416 209.92L249.867 210.756L249.878 210.763L250.416 209.92ZM257.736 217.12L258.565 216.56L258.565 216.56L257.736 217.12ZM257.736 239.56L256.867 239.066L256.863 239.073L257.736 239.56ZM248.616 247.96L249.07 248.851L249.077 248.847L248.616 247.96ZM233.376 250.08C228.821 250.08 224.769 249.491 221.206 248.329L220.586 250.231C224.384 251.469 228.651 252.08 233.376 252.08V250.08ZM221.225 248.336C217.631 247.086 213.739 245.162 209.545 242.551L208.488 244.249C212.774 246.918 216.801 248.914 220.568 250.224L221.225 248.336ZM210.004 243.559C210.735 239.007 211.096 233.269 211.096 226.36H209.096C209.096 233.211 208.737 238.833 208.029 243.241L210.004 243.559ZM210.349 227.328C212.086 226.874 214.157 226.64 216.576 226.64V224.64C214.035 224.64 211.787 224.886 209.844 225.392L210.349 227.328ZM215.577 225.69C215.904 232.215 217.541 237.342 220.617 240.931L222.136 239.629C219.452 236.498 217.889 231.865 217.575 225.59L215.577 225.69ZM220.626 240.941C223.839 244.589 228.722 246.32 235.056 246.32V244.32C229.071 244.32 224.833 242.691 222.127 239.619L220.626 240.941ZM235.056 246.32C240.372 246.32 244.504 245.179 247.247 242.702L245.906 241.218C243.689 243.221 240.141 244.32 235.056 244.32V246.32ZM247.248 242.701C250.037 240.173 251.416 236.854 251.416 232.84H249.416C249.416 236.346 248.236 239.107 245.905 241.219L247.248 242.701ZM251.416 232.84C251.416 229.541 250.567 226.684 248.82 224.325L247.213 225.515C248.665 227.476 249.416 229.899 249.416 232.84H251.416ZM248.82 224.325C247.14 222.056 245.078 220.205 242.642 218.777L241.631 220.503C243.834 221.795 245.693 223.464 247.213 225.515L248.82 224.325ZM242.664 218.79C240.293 217.319 237.011 215.619 232.835 213.692L231.997 215.508C236.141 217.421 239.339 219.081 241.609 220.49L242.664 218.79ZM232.851 213.7C228.07 211.388 224.268 209.328 221.435 207.517L220.358 209.203C223.284 211.072 227.163 213.172 231.981 215.5L232.851 213.7ZM221.435 207.517C218.677 205.755 216.292 203.413 214.282 200.475L212.631 201.605C214.781 204.747 217.356 207.285 220.358 209.203L221.435 207.517ZM214.298 200.5C212.425 197.578 211.456 193.897 211.456 189.4H209.456C209.456 194.183 210.488 198.262 212.614 201.58L214.298 200.5ZM211.456 189.4C211.456 182.914 213.53 177.926 217.601 174.307L216.272 172.813C211.703 176.874 209.456 182.446 209.456 189.4H211.456ZM217.601 174.307C221.69 170.672 227.309 168.8 234.576 168.8V166.8C226.964 166.8 220.823 168.768 216.272 172.813L217.601 174.307ZM234.576 168.8C238.407 168.8 242.073 169.308 245.579 170.321L246.134 168.399C242.439 167.332 238.586 166.8 234.576 166.8V168.8ZM245.599 170.326C249.128 171.267 251.935 172.469 254.055 173.907L255.178 172.253C252.817 170.651 249.784 169.373 246.114 168.394L245.599 170.326ZM253.616 173.08C253.616 180.209 253.856 185.546 254.346 189.058L256.327 188.782C255.857 185.414 255.616 180.191 255.616 173.08H253.616ZM254.958 187.994C253.358 188.649 251.258 189 248.616 189V191C251.415 191 253.795 190.631 255.715 189.846L254.958 187.994ZM249.602 189.832C248.477 183.245 246.761 178.539 244.296 175.985L242.857 177.375C244.872 179.461 246.515 183.635 247.631 190.168L249.602 189.832ZM244.307 175.998C241.846 173.36 238.522 172.08 234.456 172.08V174.08C238.07 174.08 240.827 175.2 242.845 177.362L244.307 175.998ZM234.456 172.08C230.057 172.08 226.476 173.16 223.841 175.444L225.151 176.956C227.316 175.08 230.375 174.08 234.456 174.08V172.08ZM223.841 175.444C221.181 177.75 219.896 180.969 219.896 184.96H221.896C221.896 181.431 223.011 178.81 225.151 176.956L223.841 175.444ZM219.896 184.96C219.896 188.259 220.746 191.15 222.483 193.581L224.11 192.419C222.647 190.37 221.896 187.901 221.896 184.96H219.896ZM222.496 193.6C224.249 195.937 226.341 197.862 228.769 199.37L229.824 197.67C227.612 196.298 225.704 194.543 224.096 192.4L222.496 193.6ZM228.782 199.377C231.213 200.836 234.519 202.609 238.689 204.694L239.583 202.906C235.434 200.831 232.179 199.084 229.811 197.663L228.782 199.377ZM238.708 204.703C243.406 206.933 247.121 208.951 249.867 210.756L250.965 209.084C248.112 207.209 244.306 205.147 239.565 202.897L238.708 204.703ZM249.878 210.763C252.638 212.526 254.981 214.828 256.908 217.68L258.565 216.56C256.492 213.492 253.955 210.994 250.955 209.077L249.878 210.763ZM256.908 217.68C258.774 220.443 259.736 223.877 259.736 228.04H261.736C261.736 223.563 260.698 219.717 258.565 216.56L256.908 217.68ZM259.736 228.04C259.736 232.032 258.779 235.701 256.867 239.066L258.606 240.054C260.694 236.379 261.736 232.368 261.736 228.04H259.736ZM256.863 239.073C255.055 242.312 252.175 244.985 248.155 247.073L249.077 248.847C253.377 246.615 256.577 243.688 258.609 240.047L256.863 239.073ZM248.162 247.069C244.261 249.058 239.348 250.08 233.376 250.08V252.08C239.565 252.08 244.811 251.022 249.07 248.851L248.162 247.069ZM284.467 176.08L283.678 176.694L283.697 176.718L283.717 176.742L284.467 176.08ZM277.987 173.68L277.045 174.016L277.27 174.645L277.937 174.679L277.987 173.68ZM277.387 168.52L277.442 167.521L276.387 167.464V168.52H277.387ZM306.427 168.52H307.427V167.469L306.377 167.521L306.427 168.52ZM305.827 173.68L305.877 174.679L306.544 174.645L306.769 174.016L305.827 173.68ZM299.227 176.08L298.459 175.44L298.455 175.444L299.227 176.08ZM299.227 242.92L298.438 243.534L298.457 243.558L298.477 243.582L299.227 242.92ZM305.827 245.2L306.769 244.864L306.544 244.235L305.877 244.201L305.827 245.2ZM306.427 250.36L306.377 251.359L307.427 251.411V250.36H306.427ZM277.387 250.36H276.387V251.421L277.446 251.358L277.387 250.36ZM277.987 245.2L277.937 244.201L277.27 244.235L277.045 244.864L277.987 245.2ZM284.467 242.92L283.699 242.28L283.695 242.284L284.467 242.92ZM287.267 184.12C287.267 182.077 287.115 180.328 286.793 178.892C286.474 177.465 285.971 176.273 285.217 175.418L283.717 176.742C284.163 177.247 284.561 178.075 284.841 179.328C285.12 180.572 285.267 182.163 285.267 184.12H287.267ZM285.257 175.466C283.861 173.672 281.32 172.845 278.037 172.681L277.937 174.679C281.054 174.835 282.834 175.608 283.678 176.694L285.257 175.466ZM278.929 173.344C278.589 172.391 278.387 170.813 278.387 168.52H276.387C276.387 170.867 276.586 172.729 277.045 174.016L278.929 173.344ZM277.333 169.519C281.754 169.76 286.612 169.88 291.907 169.88V167.88C286.642 167.88 281.82 167.76 277.442 167.521L277.333 169.519ZM291.907 169.88C296.804 169.88 301.66 169.76 306.477 169.519L306.377 167.521C301.594 167.76 296.771 167.88 291.907 167.88V169.88ZM305.427 168.52C305.427 170.813 305.226 172.391 304.885 173.344L306.769 174.016C307.229 172.729 307.427 170.867 307.427 168.52H305.427ZM305.777 172.681C302.486 172.846 299.93 173.674 298.459 175.44L299.995 176.72C300.924 175.606 302.769 174.834 305.877 174.679L305.777 172.681ZM298.455 175.444C297.751 176.3 297.285 177.487 296.988 178.905C296.689 180.336 296.547 182.08 296.547 184.12H298.547C298.547 182.16 298.685 180.564 298.946 179.315C299.21 178.053 299.583 177.22 299.999 176.716L298.455 175.444ZM296.547 184.12V234.76H298.547V184.12H296.547ZM296.547 234.76C296.547 236.801 296.69 238.553 296.988 240.002C297.284 241.441 297.747 242.646 298.438 243.534L300.017 242.306C299.587 241.754 299.21 240.879 298.947 239.598C298.685 238.327 298.547 236.719 298.547 234.76H296.547ZM298.477 243.582C299.951 245.252 302.499 246.035 305.777 246.199L305.877 244.201C302.756 244.045 300.903 243.308 299.977 242.258L298.477 243.582ZM304.885 245.536C305.226 246.489 305.427 248.067 305.427 250.36H307.427C307.427 248.013 307.229 246.151 306.769 244.864L304.885 245.536ZM306.477 249.361C301.66 249.12 296.804 249 291.907 249V251C296.771 251 301.594 251.12 306.377 251.359L306.477 249.361ZM291.907 249C286.294 249 281.434 249.12 277.328 249.362L277.446 251.358C281.501 251.12 286.32 251 291.907 251V249ZM278.387 250.36C278.387 248.067 278.589 246.489 278.929 245.536L277.045 244.864C276.586 246.151 276.387 248.013 276.387 250.36H278.387ZM278.037 246.199C281.306 246.035 283.839 245.255 285.239 243.556L283.695 242.284C282.855 243.305 281.068 244.045 277.937 244.201L278.037 246.199ZM285.235 243.56C285.975 242.672 286.475 241.462 286.794 240.015C287.114 238.561 287.267 236.804 287.267 234.76H285.267C285.267 236.716 285.12 238.319 284.841 239.585C284.56 240.858 284.159 241.728 283.699 242.28L285.235 243.56ZM287.267 234.76V184.12H285.267V234.76H287.267ZM339.249 245.8L338.719 246.648L338.726 246.652L338.733 246.656L339.249 245.8ZM325.689 230.8L324.795 231.247L324.799 231.256L325.689 230.8ZM326.409 186.4L325.555 185.879L325.551 185.887L326.409 186.4ZM341.169 172.48L340.717 171.588L340.713 171.59L341.169 172.48ZM374.529 169.36L374.287 170.33L374.295 170.332L374.304 170.334L374.529 169.36ZM387.609 174.04L388.587 174.247L388.751 173.474L388.037 173.136L387.609 174.04ZM386.289 192.64L386.668 193.566L387.289 193.311V192.64H386.289ZM379.929 193.72L378.93 193.76L378.968 194.72H379.929V193.72ZM375.009 177.28L374.293 177.978L374.302 177.987L375.009 177.28ZM345.849 177.28L346.432 178.093L346.432 178.093L345.849 177.28ZM336.489 189.28L335.562 188.906L335.562 188.906L336.489 189.28ZM337.089 225.16L336.164 225.54L336.167 225.548L336.171 225.555L337.089 225.16ZM347.769 238.84L347.183 239.65L347.192 239.657L347.769 238.84ZM375.729 241.84L375.424 240.888L375.424 240.888L375.729 241.84ZM386.889 236.68L387.529 235.912L386.972 235.447L386.357 235.833L386.889 236.68ZM388.209 238.48L387.315 238.927L387.342 238.983L387.377 239.035L388.209 238.48ZM389.049 240.4L389.659 241.192L390.122 240.836L390.039 240.259L389.049 240.4ZM374.769 248.56L374.429 247.62L374.423 247.622L374.769 248.56ZM359.049 250.08C351.856 250.08 345.437 248.362 339.765 244.944L338.733 246.656C344.741 250.278 351.522 252.08 359.049 252.08V250.08ZM339.779 244.952C334.181 241.453 329.782 236.593 326.579 230.344L324.799 231.256C328.156 237.807 332.797 242.947 338.719 246.648L339.779 244.952ZM326.583 230.353C323.463 224.111 321.889 216.948 321.889 208.84H319.889C319.889 217.212 321.515 224.689 324.795 231.247L326.583 230.353ZM321.889 208.84C321.889 200.18 323.699 192.886 327.268 186.913L325.551 185.887C321.759 192.234 319.889 199.9 319.889 208.84H321.889ZM327.263 186.921C330.932 180.909 335.719 176.401 341.626 173.37L340.713 171.59C334.459 174.799 329.406 179.571 325.556 185.879L327.263 186.921ZM341.621 173.372C347.638 170.324 354.083 168.8 360.969 168.8V166.8C353.775 166.8 347.02 168.396 340.717 171.588L341.621 173.372ZM360.969 168.8C365.778 168.8 370.216 169.312 374.287 170.33L374.772 168.39C370.522 167.328 365.92 166.8 360.969 166.8V168.8ZM374.304 170.334C378.383 171.276 382.675 172.809 387.181 174.944L388.037 173.136C383.424 170.951 378.995 169.364 374.754 168.386L374.304 170.334ZM386.631 173.833C385.729 178.098 385.289 184.382 385.289 192.64H387.289C387.289 184.418 387.73 178.302 388.587 174.247L386.631 173.833ZM385.91 191.714C384.301 192.373 382.317 192.72 379.929 192.72V194.72C382.501 194.72 384.757 194.347 386.668 193.566L385.91 191.714ZM380.928 193.68C380.606 185.63 378.958 179.815 375.716 176.573L374.302 177.987C376.98 180.665 378.612 185.81 378.93 193.76L380.928 193.68ZM375.726 176.582C372.518 173.288 367.859 171.72 361.929 171.72V173.72C367.519 173.72 371.58 175.192 374.293 177.978L375.726 176.582ZM361.929 171.72C355.291 171.72 349.714 173.279 345.266 176.467L346.432 178.093C350.465 175.201 355.607 173.72 361.929 173.72V171.72ZM345.266 176.467C340.868 179.621 337.631 183.775 335.562 188.906L337.416 189.654C339.347 184.865 342.35 181.019 346.432 178.093L345.266 176.467ZM335.562 188.906C333.509 193.997 332.489 199.566 332.489 205.6H334.489C334.489 199.794 335.469 194.483 337.416 189.654L335.562 188.906ZM332.489 205.6C332.489 212.912 333.708 219.564 336.164 225.54L338.014 224.78C335.67 219.076 334.489 212.688 334.489 205.6H332.489ZM336.171 225.555C338.715 231.465 342.383 236.174 347.183 239.65L348.356 238.03C343.875 234.786 340.423 230.375 338.008 224.765L336.171 225.555ZM347.192 239.657C352.017 243.068 357.664 244.76 364.089 244.76V242.76C358.035 242.76 352.801 241.172 348.346 238.023L347.192 239.657ZM364.089 244.76C367.964 244.76 371.947 244.1 376.034 242.792L375.424 240.888C371.511 242.14 367.734 242.76 364.089 242.76V244.76ZM376.034 242.792C380.111 241.488 383.908 239.733 387.421 237.527L386.357 235.833C382.991 237.947 379.347 239.632 375.424 240.888L376.034 242.792ZM386.249 237.448C386.588 237.73 386.952 238.201 387.315 238.927L389.103 238.033C388.666 237.159 388.151 236.43 387.529 235.912L386.249 237.448ZM387.377 239.035C387.814 239.69 388.008 240.187 388.059 240.541L390.039 240.259C389.93 239.493 389.564 238.71 389.041 237.925L387.377 239.035ZM388.439 239.608C383.621 243.32 378.951 245.982 374.429 247.62L375.11 249.5C379.867 247.778 384.717 245 389.659 241.192L388.439 239.608ZM374.423 247.622C369.995 249.253 364.876 250.08 359.049 250.08V252.08C365.062 252.08 370.423 251.227 375.115 249.498L374.423 247.622ZM475.128 242.92L474.338 243.534L474.357 243.558L474.378 243.582L475.128 242.92ZM481.728 245.2L482.669 244.864L482.445 244.235L481.777 244.201L481.728 245.2ZM482.328 250.36L482.278 251.359L483.328 251.411V250.36H482.328ZM453.288 250.36H452.288V251.421L453.346 251.358L453.288 250.36ZM453.888 245.2L453.838 244.201L453.17 244.235L452.946 244.864L453.888 245.2ZM460.367 242.92L459.599 242.28L459.596 242.284L460.367 242.92ZM462.168 211H463.168V210H462.168V211ZM425.568 211.72L425.489 210.723L424.568 210.796V211.72H425.568ZM427.248 242.92L426.458 243.534L426.477 243.558L426.498 243.582L427.248 242.92ZM433.848 245.2L434.789 244.864L434.565 244.235L433.897 244.201L433.848 245.2ZM434.448 250.36L434.398 251.359L435.448 251.411V250.36H434.448ZM405.408 250.36H404.408V251.421L405.466 251.358L405.408 250.36ZM406.008 245.2L405.958 244.201L405.29 244.235L405.066 244.864L406.008 245.2ZM412.488 242.92L411.719 242.28L411.716 242.284L412.488 242.92ZM412.488 176.08L411.698 176.694L411.717 176.718L411.738 176.742L412.488 176.08ZM406.008 173.68L405.066 174.016L405.29 174.645L405.958 174.679L406.008 173.68ZM405.408 168.52L405.462 167.521L404.408 167.464V168.52H405.408ZM434.448 168.52H435.448V167.469L434.398 167.521L434.448 168.52ZM433.848 173.68L433.897 174.679L434.565 174.645L434.789 174.016L433.848 173.68ZM427.248 176.08L426.479 175.44L426.476 175.444L427.248 176.08ZM425.568 205.84H424.568V206.84H425.568V205.84ZM462.168 205.84V206.84H463.168V205.84H462.168ZM460.367 176.08L459.578 176.694L459.597 176.718L459.618 176.742L460.367 176.08ZM453.888 173.68L452.946 174.016L453.17 174.645L453.838 174.679L453.888 173.68ZM453.288 168.52L453.342 167.521L452.288 167.464V168.52H453.288ZM482.328 168.52H483.328V167.469L482.278 167.521L482.328 168.52ZM481.728 173.68L481.777 174.679L482.445 174.645L482.669 174.016L481.728 173.68ZM475.128 176.08L474.359 175.44L474.356 175.444L475.128 176.08ZM472.448 234.76C472.448 236.801 472.59 238.553 472.888 240.002C473.184 241.441 473.648 242.646 474.338 243.534L475.917 242.306C475.487 241.754 475.111 240.879 474.847 239.598C474.585 238.327 474.448 236.719 474.448 234.76H472.448ZM474.378 243.582C475.852 245.252 478.399 246.035 481.678 246.199L481.777 244.201C478.656 244.045 476.803 243.308 475.877 242.258L474.378 243.582ZM480.786 245.536C481.126 246.489 481.328 248.067 481.328 250.36H483.328C483.328 248.013 483.129 246.151 482.669 244.864L480.786 245.536ZM482.377 249.361C477.561 249.12 472.704 249 467.808 249V251C472.671 251 477.494 251.12 482.278 251.359L482.377 249.361ZM467.808 249C462.195 249 457.334 249.12 453.229 249.362L453.346 251.358C457.401 251.12 462.22 251 467.808 251V249ZM454.288 250.36C454.288 248.067 454.489 246.489 454.829 245.536L452.946 244.864C452.486 246.151 452.288 248.013 452.288 250.36H454.288ZM453.937 246.199C457.206 246.035 459.74 245.255 461.139 243.556L459.596 242.284C458.755 243.305 456.969 244.045 453.838 244.201L453.937 246.199ZM461.136 243.56C461.876 242.672 462.375 241.462 462.694 240.015C463.015 238.561 463.168 236.804 463.168 234.76H461.168C461.168 236.716 461.02 238.319 460.741 239.585C460.46 240.858 460.059 241.728 459.599 242.28L461.136 243.56ZM463.168 234.76V211H461.168V234.76H463.168ZM462.168 210C443.854 210 431.615 210.239 425.489 210.723L425.646 212.717C431.68 212.241 443.841 212 462.168 212V210ZM424.568 211.72V234.76H426.568V211.72H424.568ZM424.568 234.76C424.568 236.801 424.71 238.553 425.008 240.002C425.304 241.441 425.768 242.646 426.458 243.534L428.037 242.306C427.607 241.754 427.231 240.879 426.967 239.598C426.705 238.327 426.568 236.719 426.568 234.76H424.568ZM426.498 243.582C427.972 245.252 430.519 246.035 433.798 246.199L433.897 244.201C430.776 244.045 428.923 243.308 427.997 242.258L426.498 243.582ZM432.906 245.536C433.246 246.489 433.448 248.067 433.448 250.36H435.448C435.448 248.013 435.249 246.151 434.789 244.864L432.906 245.536ZM434.497 249.361C429.681 249.12 424.824 249 419.928 249V251C424.791 251 429.614 251.12 434.398 251.359L434.497 249.361ZM419.928 249C414.315 249 409.454 249.12 405.349 249.362L405.466 251.358C409.521 251.12 414.34 251 419.928 251V249ZM406.408 250.36C406.408 248.067 406.609 246.489 406.949 245.536L405.066 244.864C404.606 246.151 404.408 248.013 404.408 250.36H406.408ZM406.057 246.199C409.326 246.035 411.86 245.255 413.259 243.556L411.716 242.284C410.875 243.305 409.089 244.045 405.958 244.201L406.057 246.199ZM413.256 243.56C413.996 242.672 414.495 241.462 414.814 240.015C415.135 238.561 415.288 236.804 415.288 234.76H413.288C413.288 236.716 413.14 238.319 412.861 239.585C412.58 240.858 412.179 241.728 411.719 242.28L413.256 243.56ZM415.288 234.76V184.12H413.288V234.76H415.288ZM415.288 184.12C415.288 182.077 415.135 180.328 414.813 178.892C414.494 177.465 413.992 176.273 413.237 175.418L411.738 176.742C412.183 177.247 412.581 178.075 412.862 179.328C413.14 180.572 413.288 182.163 413.288 184.12H415.288ZM413.277 175.466C411.881 173.672 409.34 172.845 406.057 172.681L405.958 174.679C409.075 174.835 410.854 175.608 411.698 176.694L413.277 175.466ZM406.949 173.344C406.609 172.391 406.408 170.813 406.408 168.52H404.408C404.408 170.867 404.606 172.729 405.066 174.016L406.949 173.344ZM405.353 169.519C409.774 169.76 414.633 169.88 419.928 169.88V167.88C414.662 167.88 409.841 167.76 405.462 167.521L405.353 169.519ZM419.928 169.88C424.824 169.88 429.681 169.76 434.497 169.519L434.398 167.521C429.614 167.76 424.791 167.88 419.928 167.88V169.88ZM433.448 168.52C433.448 170.813 433.246 172.391 432.906 173.344L434.789 174.016C435.249 172.729 435.448 170.867 435.448 168.52H433.448ZM433.798 172.681C430.506 172.846 427.95 173.674 426.479 175.44L428.016 176.72C428.945 175.606 430.789 174.834 433.897 174.679L433.798 172.681ZM426.476 175.444C425.771 176.3 425.305 177.487 425.009 178.905C424.71 180.336 424.568 182.08 424.568 184.12H426.568C426.568 182.16 426.705 180.564 426.966 179.315C427.23 178.053 427.604 177.22 428.019 176.716L426.476 175.444ZM424.568 184.12V205.84H426.568V184.12H424.568ZM425.568 206.84H462.168V204.84H425.568V206.84ZM463.168 205.84V184.12H461.168V205.84H463.168ZM463.168 184.12C463.168 182.077 463.015 180.328 462.693 178.892C462.374 177.465 461.872 176.273 461.117 175.418L459.618 176.742C460.063 177.247 460.461 178.075 460.742 179.328C461.02 180.572 461.168 182.163 461.168 184.12H463.168ZM461.157 175.466C459.761 173.672 457.22 172.845 453.937 172.681L453.838 174.679C456.955 174.835 458.734 175.608 459.578 176.694L461.157 175.466ZM454.829 173.344C454.489 172.391 454.288 170.813 454.288 168.52H452.288C452.288 170.867 452.486 172.729 452.946 174.016L454.829 173.344ZM453.233 169.519C457.654 169.76 462.513 169.88 467.808 169.88V167.88C462.542 167.88 457.721 167.76 453.342 167.521L453.233 169.519ZM467.808 169.88C472.704 169.88 477.561 169.76 482.377 169.519L482.278 167.521C477.494 167.76 472.671 167.88 467.808 167.88V169.88ZM481.328 168.52C481.328 170.813 481.126 172.391 480.786 173.344L482.669 174.016C483.129 172.729 483.328 170.867 483.328 168.52H481.328ZM481.678 172.681C478.386 172.846 475.83 173.674 474.359 175.44L475.896 176.72C476.825 175.606 478.669 174.834 481.777 174.679L481.678 172.681ZM474.356 175.444C473.651 176.3 473.185 177.487 472.889 178.905C472.59 180.336 472.448 182.08 472.448 184.12H474.448C474.448 182.16 474.585 180.564 474.846 179.315C475.11 178.053 475.484 177.22 475.899 176.716L474.356 175.444ZM472.448 184.12V234.76H474.448V184.12H472.448Z" fill="#F2F2F2"/>
</svg>
