<svg width="803" height="116" viewBox="0 0 803 116" fill="none" xmlns="http://www.w3.org/2000/svg">
<path d="M26.68 69C26.68 77.16 26.12 83.76 25 88.8C23.96 93.84 21.76 98.36 18.4 102.36C15.12 106.36 10.12 110.2 3.4 113.88C2.28 113.24 1.6 112.2 1.36 110.76C6.16 106.68 9.68 102.32 11.92 97.68C14.24 93.12 15.4 87.2 15.4 79.92V18.12C15.4 14.12 14.8 11.44 13.6 10.08C12.48 8.64 10.32 7.84 7.12 7.68C6.72 6.56 6.52 4.84 6.52 2.52C10.04 2.75999 14.88 2.87999 21.04 2.87999C27.84 2.87999 32.68 2.75999 35.56 2.52C35.56 4.84 35.36 6.56 34.96 7.68C31.84 7.84 29.68 8.64 28.48 10.08C27.28 11.52 26.68 14.2 26.68 18.12V69ZM124.852 79.2C125.332 80.8 125.572 82.52 125.572 84.36C120.772 84.12 116.212 84 111.892 84C107.652 84 103.132 84.12 98.3322 84.36C98.3322 82.04 98.6122 80.32 99.1722 79.2C101.412 78.96 102.972 78.6 103.852 78.12C104.812 77.64 105.292 76.84 105.292 75.72C105.292 74.76 104.692 72.8 103.492 69.84L98.2122 57.6C85.4922 57.6 74.9322 57.76 66.5322 58.08L63.2922 66.36C62.0122 69.72 61.3722 72.36 61.3722 74.28C61.3722 75.88 61.8522 77.08 62.8122 77.88C63.8522 78.6 65.4522 79.04 67.6122 79.2C68.1722 80.56 68.4522 82.28 68.4522 84.36C65.7322 84.12 61.9322 84 57.0522 84C54.9722 84 51.6522 84.12 47.0922 84.36C47.0922 82.36 47.3722 80.68 47.9322 79.32C50.0122 78.92 51.6522 77.88 52.8522 76.2C54.0522 74.52 55.6122 71.24 57.5322 66.36L82.3722 2.64C83.7322 2.32 85.2922 2.16 87.0522 2.16L115.612 67.68C117.612 72.16 119.172 75.12 120.292 76.56C121.492 78 123.012 78.88 124.852 79.2ZM95.9322 52.2L86.8122 30.84C84.4122 25.32 82.6522 20.96 81.5322 17.76C80.6522 20.48 79.1322 24.8 76.9722 30.72L68.6922 52.2H95.9322ZM192.784 66.96C195.104 70 196.984 72.28 198.424 73.8C199.864 75.24 201.544 76.4 203.464 77.28C205.384 78.16 207.864 78.68 210.904 78.84C210.904 80.84 210.704 82.56 210.304 84C202.304 84 195.944 84.24 191.224 84.72C188.024 79.44 183.184 72.68 176.704 64.44C170.224 56.2 164.344 49.68 159.064 44.88V68.76C159.064 72.76 159.624 75.48 160.744 76.92C161.944 78.28 164.144 79.04 167.344 79.2C167.744 80.32 167.944 82.04 167.944 84.36C163.144 84.12 158.304 84 153.424 84C147.824 84 142.984 84.12 138.904 84.36C138.904 82.04 139.104 80.32 139.504 79.2C142.704 79.04 144.864 78.28 145.984 76.92C147.184 75.48 147.784 72.76 147.784 68.76V18.12C147.784 14.12 147.184 11.44 145.984 10.08C144.864 8.64 142.704 7.84 139.504 7.68C139.104 6.56 138.904 4.84 138.904 2.52C143.304 2.75999 148.144 2.87999 153.424 2.87999C158.304 2.87999 163.144 2.75999 167.944 2.52C167.944 4.84 167.744 6.56 167.344 7.68C164.144 7.84 161.944 8.64 160.744 10.08C159.624 11.44 159.064 14.12 159.064 18.12V41.4L181.744 17.64C184.704 14.6 186.184 12.2 186.184 10.44C186.184 8.67999 184.864 7.75999 182.224 7.68C181.824 6.4 181.624 4.68 181.624 2.52C184.264 2.75999 188.384 2.87999 193.984 2.87999C199.024 2.87999 203.144 2.75999 206.344 2.52C206.344 4.84 206.104 6.56 205.624 7.68C202.744 7.84 200.104 8.64 197.704 10.08C195.304 11.52 192.264 14.2 188.584 18.12L169.024 38.88C174.784 44.4 182.704 53.76 192.784 66.96ZM279.032 63.48C281.352 64.2 283.112 65.16 284.312 66.36C282.792 71.08 281.552 77.04 280.592 84.24C274.352 84.08 265.792 84 254.912 84C240.192 84 229.832 84.12 223.832 84.36C223.832 82.04 224.032 80.32 224.432 79.2C226.672 79.04 228.352 78.64 229.472 78C230.672 77.36 231.512 76.24 231.992 74.64C232.472 73.04 232.712 70.64 232.712 67.44V18.12C232.712 14.12 232.112 11.44 230.912 10.08C229.792 8.64 227.632 7.84 224.432 7.68C224.032 6.56 223.832 4.84 223.832 2.52C228.552 2.75999 235.272 2.87999 243.992 2.87999C258.552 2.87999 269.792 2.75999 277.712 2.52C278.512 11.32 279.352 17.64 280.232 21.48C279.032 22.44 277.232 22.92 274.832 22.92C274.432 18.44 272.792 14.8 269.912 12C267.112 9.12 262.192 7.68 255.152 7.68H243.992V40.56H251.552C256.592 40.56 260.032 39.92 261.872 38.64C263.792 37.28 264.792 34.68 264.872 30.84C266.792 30.28 268.712 30 270.632 30C270.472 32.72 270.392 37.08 270.392 43.08C270.392 49.64 270.472 54.28 270.632 57C268.472 57 266.632 56.8 265.112 56.4C264.792 52.24 263.672 49.44 261.752 48C259.912 46.48 256.512 45.72 251.552 45.72H243.992V67.44C243.992 70.48 244.272 72.8 244.832 74.4C245.392 75.92 246.432 77 247.952 77.64C249.552 78.28 251.872 78.6 254.912 78.6H255.632C261.152 78.6 265.392 78.04 268.352 76.92C271.312 75.8 273.472 74.24 274.832 72.24C276.272 70.24 277.672 67.32 279.032 63.48ZM427.326 79.08C427.726 80.44 427.926 82.2 427.926 84.36C424.246 84.12 419.446 84 413.526 84C407.846 84 402.966 84.12 398.886 84.36C398.886 82.44 399.126 80.72 399.606 79.2C402.646 78.88 404.686 78.2 405.726 77.16C406.766 76.12 407.286 74.2 407.286 71.4C407.286 69.8 407.166 67.8 406.926 65.4L402.606 24.24L377.766 84.24C376.406 84.8 374.766 85.08 372.846 85.08L344.886 24.36L341.046 62.88C340.806 65.28 340.686 67.36 340.686 69.12C340.686 72.8 341.286 75.36 342.486 76.8C343.766 78.16 345.886 78.96 348.846 79.2C349.246 80.56 349.446 82.28 349.446 84.36C345.606 84.12 341.326 84 336.606 84C331.886 84 327.886 84.12 324.606 84.36C324.606 82.28 324.806 80.56 325.206 79.2C327.446 78.96 329.166 78.4 330.366 77.52C331.566 76.64 332.486 75.04 333.126 72.72C333.846 70.32 334.446 66.68 334.926 61.8L338.766 19.08C338.846 18.36 338.886 17.4 338.886 16.2C338.886 13.08 338.246 10.88 336.966 9.6C335.686 8.32 333.606 7.68 330.726 7.68C330.326 6.4 330.126 4.68 330.126 2.52C332.526 2.75999 335.566 2.87999 339.246 2.87999C342.206 2.87999 345.246 2.75999 348.366 2.52L378.366 68.88L404.526 2.52C407.246 2.75999 410.366 2.87999 413.886 2.87999C416.766 2.87999 419.806 2.75999 423.006 2.52C423.006 4.44 422.806 6.16 422.406 7.68C419.686 7.68 417.606 8.36 416.166 9.72C414.806 11.08 414.126 13.44 414.126 16.8C414.126 18.08 414.166 19.08 414.246 19.8L418.566 63.84C418.966 67.84 419.486 70.92 420.126 73.08C420.766 75.16 421.646 76.64 422.766 77.52C423.886 78.4 425.406 78.92 427.326 79.08ZM504.086 51.72C504.086 58.92 503.606 64.48 502.646 68.4C501.686 72.32 499.886 75.6 497.246 78.24C492.686 82.8 486.206 85.08 477.806 85.08C467.086 85.08 459.486 82.72 455.006 78C450.606 73.28 448.406 66.04 448.406 56.28V18.12C448.406 15.24 448.206 13.12 447.806 11.76C447.486 10.4 446.846 9.44 445.886 8.87999C444.926 8.32 443.406 7.92 441.326 7.68C440.926 6.24 440.726 4.52 440.726 2.52C443.926 2.75999 448.566 2.87999 454.646 2.87999C460.326 2.87999 464.966 2.75999 468.566 2.52C468.566 4.52 468.366 6.24 467.966 7.68C465.406 7.92 463.566 8.32 462.446 8.87999C461.406 9.36 460.686 10.28 460.286 11.64C459.886 12.92 459.686 15.08 459.686 18.12V54.6C459.686 62.12 461.206 68.04 464.246 72.36C467.366 76.6 472.646 78.72 480.086 78.72C482.326 78.72 484.606 78.36 486.926 77.64C489.326 76.84 491.286 75.68 492.806 74.16C494.726 72.24 496.046 69.76 496.766 66.72C497.566 63.6 497.966 58.92 497.966 52.68V22.92C497.966 18.84 497.766 15.8 497.366 13.8C496.966 11.8 496.166 10.36 494.966 9.47999C493.846 8.52 492.086 7.92 489.686 7.68C489.286 5.68 489.086 3.96 489.086 2.52C491.806 2.75999 495.566 2.87999 500.366 2.87999C504.846 2.87999 508.646 2.75999 511.766 2.52C511.766 3.72 511.566 5.44 511.166 7.68C509.246 7.92 507.766 8.48 506.726 9.36C505.766 10.24 505.086 11.76 504.686 13.92C504.286 16 504.086 19 504.086 22.92V51.72ZM552.783 85.08C548.143 85.08 543.983 84.48 540.303 83.28C536.623 82 532.663 80.04 528.423 77.4C529.143 72.92 529.503 67.24 529.503 60.36C531.343 59.88 533.503 59.64 535.983 59.64C536.303 66.04 537.903 70.92 540.783 74.28C543.743 77.64 548.303 79.32 554.463 79.32C559.663 79.32 563.503 78.2 565.983 75.96C568.543 73.64 569.823 70.6 569.823 66.84C569.823 63.72 569.023 61.08 567.423 58.92C565.823 56.76 563.863 55 561.543 53.64C559.223 52.2 555.983 50.52 551.823 48.6C547.023 46.28 543.183 44.2 540.303 42.36C537.423 40.52 534.943 38.08 532.863 35.04C530.863 31.92 529.863 28.04 529.863 23.4C529.863 16.68 532.023 11.4 536.343 7.56C540.663 3.71999 546.543 1.79999 553.983 1.79999C557.903 1.79999 561.663 2.31999 565.263 3.35999C568.863 4.32 571.783 5.56 574.023 7.08C574.023 14.2 574.263 19.48 574.743 22.92C572.983 23.64 570.743 24 568.023 24C566.903 17.44 565.223 13 562.983 10.68C560.743 8.28 557.703 7.08 553.863 7.08C549.623 7.08 546.303 8.12 543.903 10.2C541.503 12.28 540.303 15.2 540.303 18.96C540.303 22.08 541.103 24.76 542.703 27C544.383 29.24 546.383 31.08 548.703 32.52C551.103 33.96 554.383 35.72 558.543 37.8C563.263 40.04 567.023 42.08 569.823 43.92C572.703 45.76 575.143 48.16 577.143 51.12C579.143 54.08 580.143 57.72 580.143 62.04C580.143 66.2 579.143 70.04 577.143 73.56C575.223 77 572.183 79.8 568.023 81.96C563.943 84.04 558.863 85.08 552.783 85.08ZM605.673 18.12C605.673 14.12 605.073 11.44 603.873 10.08C602.753 8.64 600.593 7.84 597.393 7.68C596.993 6.56 596.793 4.84 596.793 2.52C601.193 2.75999 606.033 2.87999 611.313 2.87999C616.193 2.87999 621.033 2.75999 625.833 2.52C625.833 4.84 625.633 6.56 625.233 7.68C622.033 7.84 619.833 8.64 618.633 10.08C617.513 11.44 616.953 14.12 616.953 18.12V68.76C616.953 72.76 617.513 75.48 618.633 76.92C619.833 78.28 622.033 79.04 625.233 79.2C625.633 80.32 625.833 82.04 625.833 84.36C621.033 84.12 616.193 84 611.313 84C605.713 84 600.873 84.12 596.793 84.36C596.793 82.04 596.993 80.32 597.393 79.2C600.593 79.04 602.753 78.28 603.873 76.92C605.073 75.48 605.673 72.76 605.673 68.76V18.12ZM678.455 85.08C671.095 85.08 664.495 83.32 658.655 79.8C652.895 76.2 648.375 71.2 645.095 64.8C641.895 58.4 640.295 51.08 640.295 42.84C640.295 34.04 642.135 26.56 645.815 20.4C649.575 14.24 654.495 9.59999 660.575 6.48C666.735 3.35999 673.335 1.79999 680.375 1.79999C685.255 1.79999 689.775 2.31999 693.935 3.35999C698.095 4.32 702.455 5.88 707.015 8.04C706.135 12.2 705.695 18.4 705.695 26.64C703.935 27.36 701.815 27.72 699.335 27.72C699.015 19.72 697.375 14.24 694.415 11.28C691.455 8.24 687.095 6.71999 681.335 6.71999C674.855 6.71999 669.495 8.24 665.255 11.28C661.015 14.32 657.895 18.32 655.895 23.28C653.895 28.24 652.895 33.68 652.895 39.6C652.895 46.8 654.095 53.32 656.495 59.16C658.975 64.92 662.535 69.48 667.175 72.84C671.815 76.12 677.255 77.76 683.495 77.76C687.255 77.76 691.135 77.12 695.135 75.84C699.135 74.56 702.855 72.84 706.295 70.68C706.775 71.08 707.215 71.68 707.615 72.48C708.095 73.2 708.375 73.84 708.455 74.4C703.575 78.16 698.815 80.88 694.175 82.56C689.615 84.24 684.375 85.08 678.455 85.08ZM792.854 68.76C792.854 72.76 793.414 75.48 794.534 76.92C795.734 78.28 797.934 79.04 801.134 79.2C801.534 80.32 801.734 82.04 801.734 84.36C796.934 84.12 792.094 84 787.214 84C781.614 84 776.774 84.12 772.694 84.36C772.694 82.04 772.894 80.32 773.294 79.2C776.494 79.04 778.654 78.28 779.774 76.92C780.974 75.48 781.574 72.76 781.574 68.76V45C763.254 45 751.054 45.24 744.974 45.72V68.76C744.974 72.76 745.534 75.48 746.654 76.92C747.854 78.28 750.054 79.04 753.254 79.2C753.654 80.32 753.854 82.04 753.854 84.36C749.054 84.12 744.214 84 739.334 84C733.734 84 728.894 84.12 724.814 84.36C724.814 82.04 725.014 80.32 725.414 79.2C728.614 79.04 730.774 78.28 731.894 76.92C733.094 75.48 733.694 72.76 733.694 68.76V18.12C733.694 14.12 733.094 11.44 731.894 10.08C730.774 8.64 728.614 7.84 725.414 7.68C725.014 6.56 724.814 4.84 724.814 2.52C729.214 2.75999 734.054 2.87999 739.334 2.87999C744.214 2.87999 749.054 2.75999 753.854 2.52C753.854 4.84 753.654 6.56 753.254 7.68C750.054 7.84 747.854 8.64 746.654 10.08C745.534 11.44 744.974 14.12 744.974 18.12V39.84H781.574V18.12C781.574 14.12 780.974 11.44 779.774 10.08C778.654 8.64 776.494 7.84 773.294 7.68C772.894 6.56 772.694 4.84 772.694 2.52C777.094 2.75999 781.934 2.87999 787.214 2.87999C792.094 2.87999 796.934 2.75999 801.734 2.52C801.734 4.84 801.534 6.56 801.134 7.68C797.934 7.84 795.734 8.64 794.534 10.08C793.414 11.44 792.854 14.12 792.854 18.12V68.76Z" fill="#F2F2F2"/>
<path d="M25 88.8L24.0238 88.5831L24.0222 88.5905L24.0206 88.5979L25 88.8ZM18.4 102.36L17.6342 101.717L17.6267 101.726L18.4 102.36ZM3.4 113.88L2.90386 114.748L3.38961 115.026L3.88031 114.757L3.4 113.88ZM1.36 110.76L0.712352 109.998L0.280408 110.365L0.373606 110.924L1.36 110.76ZM11.92 97.68L11.0287 97.2265L11.024 97.2358L11.0194 97.2453L11.92 97.68ZM13.6 10.08L12.8106 10.6939L12.8297 10.7184L12.8502 10.7416L13.6 10.08ZM7.12 7.68L6.17826 8.01633L6.40292 8.64539L7.07006 8.67875L7.12 7.68ZM6.52 2.52L6.58802 1.52231L5.52 1.4495V2.52H6.52ZM35.56 2.52H36.56V1.4332L35.477 1.52345L35.56 2.52ZM34.96 7.68L35.0112 8.67868L35.6774 8.64452L35.9017 8.01633L34.96 7.68ZM28.48 10.08L27.7118 9.43981L27.7118 9.43981L28.48 10.08ZM25.68 69C25.68 77.1239 25.1216 83.643 24.0238 88.5831L25.9762 89.0169C27.1184 83.877 27.68 77.1961 27.68 69H25.68ZM24.0206 88.5979C23.0147 93.4729 20.8893 97.8418 17.6343 101.717L19.1657 103.003C22.6307 98.8782 24.9053 94.2071 25.9794 89.0021L24.0206 88.5979ZM17.6267 101.726C14.4571 105.591 9.57646 109.358 2.91969 113.003L3.88031 114.757C10.6635 111.042 15.7829 107.129 19.1733 102.994L17.6267 101.726ZM3.89614 113.012C3.0734 112.542 2.54434 111.783 2.34639 110.596L0.373606 110.924C0.655663 112.617 1.4866 113.938 2.90386 114.748L3.89614 113.012ZM2.00765 111.522C6.89075 107.371 10.5081 102.905 12.8206 98.1148L11.0194 97.2453C8.85194 101.735 5.42925 105.989 0.712352 109.998L2.00765 111.522ZM12.8113 98.1335C15.2265 93.3863 16.4 87.2953 16.4 79.92H14.4C14.4 87.1047 13.2535 92.8537 11.0287 97.2265L12.8113 98.1335ZM16.4 79.92V18.12H14.4V79.92H16.4ZM16.4 18.12C16.4 16.0766 16.2474 14.3276 15.9258 12.8915C15.6064 11.4648 15.1042 10.2733 14.3498 9.41837L12.8502 10.7416C13.2958 11.2467 13.6936 12.0752 13.9742 13.3285C14.2526 14.5724 14.4 16.1634 14.4 18.12H16.4ZM14.3894 9.46605C12.9936 7.67151 10.4528 6.84539 7.16994 6.68124L7.07006 8.67875C10.1872 8.83461 11.9664 9.60849 12.8106 10.6939L14.3894 9.46605ZM8.06174 7.34366C7.72157 6.39118 7.52 4.81292 7.52 2.52H5.52C5.52 4.86708 5.71843 6.72881 6.17826 8.01633L8.06174 7.34366ZM6.45198 3.51768C10.0053 3.75995 14.8713 3.87999 21.04 3.87999V1.87999C14.8887 1.87999 10.0747 1.76004 6.58802 1.52231L6.45198 3.51768ZM21.04 3.87999C27.8408 3.87999 32.7176 3.76033 35.643 3.51654L35.477 1.52345C32.6424 1.75966 27.8392 1.87999 21.04 1.87999V3.87999ZM34.56 2.52C34.56 4.81292 34.3584 6.39118 34.0183 7.34366L35.9017 8.01633C36.3616 6.72881 36.56 4.86708 36.56 2.52H34.56ZM34.9088 6.68131C31.688 6.84648 29.179 7.67914 27.7118 9.43981L29.2482 10.7202C30.181 9.60085 31.992 8.83352 35.0112 8.67868L34.9088 6.68131ZM27.7118 9.43981C26.2672 11.1734 25.68 14.1774 25.68 18.12H27.68C27.68 14.2226 28.2928 11.8666 29.2482 10.7202L27.7118 9.43981ZM25.68 18.12V69H27.68V18.12H25.68ZM124.852 79.2L125.81 78.9127L125.632 78.3207L125.024 78.2148L124.852 79.2ZM125.572 84.36L125.522 85.3588L126.572 85.4112V84.36H125.572ZM98.3322 84.36H97.3322V85.4112L98.3821 85.3588L98.3322 84.36ZM99.1722 79.2L99.0657 78.2057L98.5222 78.2639L98.2778 78.7528L99.1722 79.2ZM103.852 78.12L103.405 77.2256L103.389 77.2336L103.373 77.2421L103.852 78.12ZM103.492 69.84L104.419 69.4643L104.415 69.4541L104.41 69.4439L103.492 69.84ZM98.2122 57.6L99.1304 57.2039L98.8699 56.6H98.2122V57.6ZM66.5322 58.08L66.4941 57.0807L65.8396 57.1057L65.6009 57.7156L66.5322 58.08ZM63.2922 66.36L62.3609 65.9956L62.3577 66.004L63.2922 66.36ZM62.8122 77.88L62.172 78.6482L62.2063 78.6768L62.243 78.7022L62.8122 77.88ZM67.6122 79.2L68.5369 78.8192L68.3018 78.2483L67.6861 78.2027L67.6122 79.2ZM68.4522 84.36L68.3643 85.3561L69.4522 85.4521V84.36H68.4522ZM47.0922 84.36H46.0922V85.414L47.1447 85.3586L47.0922 84.36ZM47.9322 79.32L47.7433 78.338L47.2131 78.44L47.0075 78.9393L47.9322 79.32ZM52.8522 76.2L53.6659 76.7812L53.6659 76.7812L52.8522 76.2ZM57.5322 66.36L58.4628 66.7261L58.4639 66.7232L57.5322 66.36ZM82.3722 2.64L82.1431 1.66658L81.6314 1.78699L81.4405 2.27679L82.3722 2.64ZM87.0522 2.16L87.9689 1.76041L87.7072 1.16H87.0522V2.16ZM115.612 67.68L114.695 68.0796L114.699 68.0877L115.612 67.68ZM120.292 76.56L119.503 77.1739L119.513 77.1872L119.524 77.2002L120.292 76.56ZM95.9322 52.2V53.2H97.4465L96.8519 51.8073L95.9322 52.2ZM86.8122 30.84L87.7319 30.4473L87.7293 30.4413L86.8122 30.84ZM81.5322 17.76L82.476 17.4296L81.4949 14.6265L80.5807 17.4522L81.5322 17.76ZM76.9722 30.72L77.9053 31.0797L77.9085 31.0712L77.9116 31.0628L76.9722 30.72ZM68.6922 52.2L67.7591 51.8403L67.235 53.2H68.6922V52.2ZM123.894 79.4873C124.344 80.9852 124.572 82.6075 124.572 84.36H126.572C126.572 82.4325 126.321 80.6148 125.81 78.9127L123.894 79.4873ZM125.622 83.3612C120.807 83.1205 116.231 83 111.892 83V85C116.194 85 120.737 85.1195 125.522 85.3588L125.622 83.3612ZM111.892 83C107.634 83 103.097 83.1205 98.2823 83.3612L98.3821 85.3588C103.168 85.1195 107.671 85 111.892 85V83ZM99.3322 84.36C99.3322 82.0844 99.6127 80.555 100.067 79.6472L98.2778 78.7528C97.6116 80.085 97.3322 81.9956 97.3322 84.36H99.3322ZM99.2787 80.1943C101.527 79.9535 103.262 79.5808 104.331 78.9979L103.373 77.2421C102.682 77.6192 101.298 77.9665 99.0657 78.2057L99.2787 80.1943ZM104.299 79.0144C104.923 78.7025 105.438 78.261 105.79 77.6745C106.14 77.0905 106.292 76.4247 106.292 75.72H104.292C104.292 76.1352 104.204 76.4295 104.075 76.6455C103.947 76.859 103.741 77.0575 103.405 77.2256L104.299 79.0144ZM106.292 75.72C106.292 75.0811 106.102 74.2298 105.798 73.2373C105.486 72.2183 105.025 70.9583 104.419 69.4643L102.565 70.2157C103.16 71.6817 103.598 72.8817 103.886 73.8227C104.182 74.7902 104.292 75.3989 104.292 75.72H106.292ZM104.41 69.4439L99.1304 57.2039L97.294 57.9961L102.574 70.2361L104.41 69.4439ZM98.2122 56.6C85.4852 56.6 74.9115 56.7601 66.4941 57.0807L66.5703 59.0793C74.9529 58.7599 85.4992 58.6 98.2122 58.6V56.6ZM65.6009 57.7156L62.3609 65.9956L64.2234 66.7244L67.4634 58.4444L65.6009 57.7156ZM62.3577 66.004C61.0654 69.3962 60.3722 72.1741 60.3722 74.28H62.3722C62.3722 72.5458 62.959 70.0438 64.2267 66.716L62.3577 66.004ZM60.3722 74.28C60.3722 76.0869 60.923 77.6074 62.172 78.6482L63.4524 77.1118C62.7814 76.5526 62.3722 75.6731 62.3722 74.28H60.3722ZM62.243 78.7022C63.4999 79.5724 65.3117 80.0323 67.5383 80.1973L67.6861 78.2027C65.5927 78.0477 64.2044 77.6276 63.3814 77.0578L62.243 78.7022ZM66.6875 79.5807C67.1817 80.781 67.4522 82.3606 67.4522 84.36H69.4522C69.4522 82.1994 69.1626 80.339 68.5369 78.8192L66.6875 79.5807ZM68.5401 83.3639C65.7767 83.12 61.9426 83 57.0522 83V85C61.9218 85 65.6877 85.12 68.3643 85.3561L68.5401 83.3639ZM57.0522 83C54.944 83 51.6016 83.1213 47.0396 83.3614L47.1447 85.3586C51.7028 85.1187 55.0004 85 57.0522 85V83ZM48.0922 84.36C48.0922 82.4465 48.361 80.905 48.8569 79.7007L47.0075 78.9393C46.3834 80.455 46.0922 82.2735 46.0922 84.36H48.0922ZM48.121 80.302C50.4458 79.8549 52.3125 78.676 53.6659 76.7812L52.0385 75.6188C50.9919 77.084 49.5786 77.9851 47.7433 78.338L48.121 80.302ZM53.6659 76.7812C54.9463 74.9888 56.5448 71.6008 58.4628 66.7261L56.6016 65.9939C54.6795 70.8792 53.1581 74.0512 52.0385 75.6188L53.6659 76.7812ZM58.4639 66.7232L83.3039 3.0032L81.4405 2.27679L56.6005 65.9968L58.4639 66.7232ZM82.6012 3.61341C83.8697 3.31494 85.3504 3.16 87.0522 3.16V1.16C85.234 1.16 83.5946 1.32505 82.1431 1.66658L82.6012 3.61341ZM86.1355 2.55958L114.695 68.0796L116.529 67.2804L87.9689 1.76041L86.1355 2.55958ZM114.699 68.0877C116.695 72.5577 118.298 75.6251 119.503 77.1739L121.082 75.9461C120.046 74.6149 118.53 71.7623 116.525 67.2723L114.699 68.0877ZM119.524 77.2002C120.875 78.8216 122.606 79.8244 124.681 80.1852L125.024 78.2148C123.418 77.9356 122.109 77.1784 121.06 75.9198L119.524 77.2002ZM96.8519 51.8073L87.7319 30.4473L85.8925 31.2327L95.0125 52.5927L96.8519 51.8073ZM87.7293 30.4413C85.3328 24.9294 83.5841 20.5954 82.476 17.4296L80.5883 18.0903C81.7203 21.3246 83.4916 25.7106 85.8951 31.2387L87.7293 30.4413ZM80.5807 17.4522C79.7069 20.1533 78.1923 24.4585 76.0328 30.3772L77.9116 31.0628C80.0721 25.1415 81.5975 20.8067 82.4836 18.0678L80.5807 17.4522ZM76.0391 30.3603L67.7591 51.8403L69.6253 52.5597L77.9053 31.0797L76.0391 30.3603ZM68.6922 53.2H95.9322V51.2H68.6922V53.2ZM192.784 66.96L193.579 66.3533L193.579 66.3531L192.784 66.96ZM198.424 73.8L197.698 74.4877L197.708 74.4976L197.717 74.5071L198.424 73.8ZM203.464 77.28L203.048 78.1891L203.464 77.28ZM210.904 78.84H211.904V77.8912L210.957 77.8414L210.904 78.84ZM210.304 84V85H211.064L211.268 84.2676L210.304 84ZM191.224 84.72L190.369 85.2383L190.697 85.7788L191.326 85.7149L191.224 84.72ZM159.064 44.88L159.737 44.1401L158.064 42.6194V44.88H159.064ZM160.744 76.92L159.955 77.5339L159.974 77.5584L159.995 77.5816L160.744 76.92ZM167.344 79.2L168.286 78.8637L168.061 78.2346L167.394 78.2012L167.344 79.2ZM167.944 84.36L167.894 85.3588L168.944 85.4112V84.36H167.944ZM138.904 84.36H137.904V85.4206L138.963 85.3583L138.904 84.36ZM139.504 79.2L139.454 78.2012L138.787 78.2346L138.563 78.8637L139.504 79.2ZM145.984 76.92L145.216 76.2798L145.212 76.2843L145.984 76.92ZM145.984 10.08L145.195 10.6939L145.214 10.7184L145.235 10.7416L145.984 10.08ZM139.504 7.68L138.563 8.01633L138.787 8.64539L139.454 8.67875L139.504 7.68ZM138.904 2.52L138.959 1.52148L137.904 1.46397V2.52H138.904ZM167.944 2.52H168.944V1.46875L167.894 1.52125L167.944 2.52ZM167.344 7.68L167.394 8.67875L168.061 8.64539L168.286 8.01633L167.344 7.68ZM160.744 10.08L159.976 9.4398L159.972 9.44429L160.744 10.08ZM159.064 41.4H158.064V43.8959L159.788 42.0905L159.064 41.4ZM181.744 17.64L181.028 16.9423L181.021 16.9495L181.744 17.64ZM182.224 7.68L181.27 7.97827L181.482 8.65797L182.194 8.67954L182.224 7.68ZM181.624 2.52L181.715 1.5241L180.624 1.42497V2.52H181.624ZM206.344 2.52H207.344V1.44219L206.27 1.5228L206.344 2.52ZM205.624 7.68L205.68 8.67846L206.299 8.64405L206.544 8.07391L205.624 7.68ZM197.704 10.08L197.19 9.2225L197.19 9.2225L197.704 10.08ZM188.584 18.12L189.312 18.8058L189.313 18.8044L188.584 18.12ZM169.024 38.88L168.297 38.1942L167.617 38.9159L168.332 39.602L169.024 38.88ZM191.989 67.5667C194.316 70.6159 196.222 72.9291 197.698 74.4877L199.15 73.1123C197.747 71.6309 195.892 69.3841 193.579 66.3533L191.989 67.5667ZM197.717 74.5071C199.244 76.0343 201.024 77.2614 203.048 78.1891L203.881 76.3709C202.065 75.5386 200.484 74.4457 199.131 73.0929L197.717 74.5071ZM203.048 78.1891C205.121 79.1393 207.737 79.6747 210.852 79.8386L210.957 77.8414C207.992 77.6853 205.648 77.1807 203.881 76.3709L203.048 78.1891ZM209.904 78.84C209.904 80.778 209.71 82.4032 209.341 83.7324L211.268 84.2676C211.699 82.7168 211.904 80.902 211.904 78.84H209.904ZM210.304 83C202.29 83 195.892 83.2402 191.123 83.7251L191.326 85.7149C195.997 85.2398 202.319 85 210.304 85V83ZM192.08 84.2017C188.849 78.8714 183.981 72.075 177.49 63.8218L175.918 65.0582C182.388 73.285 187.2 80.0086 190.369 85.2383L192.08 84.2017ZM177.49 63.8218C170.99 55.5564 165.072 48.9903 159.737 44.1401L158.392 45.6199C163.616 50.3696 169.458 56.8436 175.918 65.0582L177.49 63.8218ZM158.064 44.88V68.76H160.064V44.88H158.064ZM158.064 68.76C158.064 70.8009 158.207 72.5534 158.505 74.0017C158.801 75.4405 159.265 76.6462 159.955 77.5339L161.534 76.3061C161.104 75.7538 160.728 74.8795 160.464 73.5983C160.202 72.3266 160.064 70.7191 160.064 68.76H158.064ZM159.995 77.5816C161.469 79.2522 164.016 80.0348 167.294 80.1988L167.394 78.2012C164.273 78.0452 162.42 77.3078 161.494 76.2584L159.995 77.5816ZM166.403 79.5363C166.743 80.4888 166.944 82.0671 166.944 84.36H168.944C168.944 82.0129 168.746 80.1512 168.286 78.8637L166.403 79.5363ZM167.994 83.3612C163.177 83.1204 158.321 83 153.424 83V85C158.288 85 163.111 85.1196 167.894 85.3588L167.994 83.3612ZM153.424 83C147.811 83 142.951 83.1202 138.846 83.3617L138.963 85.3583C143.018 85.1198 147.837 85 153.424 85V83ZM139.904 84.36C139.904 82.0671 140.106 80.4888 140.446 79.5363L138.563 78.8637C138.103 80.1512 137.904 82.0129 137.904 84.36H139.904ZM139.554 80.1988C142.823 80.0353 145.357 79.2554 146.756 77.5557L145.212 76.2843C144.372 77.3046 142.585 78.0447 139.454 78.2012L139.554 80.1988ZM146.753 77.5602C147.493 76.6721 147.992 75.4617 148.311 74.0154C148.632 72.5614 148.784 70.8039 148.784 68.76H146.784C146.784 70.7161 146.637 72.3186 146.358 73.5846C146.077 74.8583 145.676 75.7279 145.216 76.2798L146.753 77.5602ZM148.784 68.76V18.12H146.784V68.76H148.784ZM148.784 18.12C148.784 16.0766 148.632 14.3276 148.31 12.8915C147.991 11.4648 147.489 10.2733 146.734 9.41837L145.235 10.7416C145.68 11.2467 146.078 12.0752 146.359 13.3285C146.637 14.5724 146.784 16.1634 146.784 18.12H148.784ZM146.774 9.46605C145.378 7.67151 142.837 6.84539 139.554 6.68124L139.454 8.67875C142.572 8.83461 144.351 9.60849 145.195 10.6939L146.774 9.46605ZM140.446 7.34366C140.106 6.39118 139.904 4.81292 139.904 2.52H137.904C137.904 4.86708 138.103 6.72881 138.563 8.01633L140.446 7.34366ZM138.85 3.51851C143.271 3.75967 148.13 3.87999 153.424 3.87999V1.87999C148.159 1.87999 143.338 1.76032 138.959 1.52148L138.85 3.51851ZM153.424 3.87999C158.321 3.87999 163.177 3.75959 167.994 3.51875L167.894 1.52125C163.111 1.7604 158.288 1.87999 153.424 1.87999V3.87999ZM166.944 2.52C166.944 4.81292 166.743 6.39118 166.403 7.34366L168.286 8.01633C168.746 6.72881 168.944 4.86708 168.944 2.52H166.944ZM167.294 6.68124C164.003 6.84583 161.447 7.67436 159.976 9.43981L161.513 10.7202C162.441 9.60563 164.286 8.83417 167.394 8.67875L167.294 6.68124ZM159.972 9.44429C159.268 10.2996 158.802 11.4866 158.506 12.9055C158.207 14.3358 158.064 16.0796 158.064 18.12H160.064C160.064 16.1603 160.202 14.5642 160.463 13.3145C160.727 12.0534 161.101 11.2204 161.516 10.7157L159.972 9.44429ZM158.064 18.12V41.4H160.064V18.12H158.064ZM159.788 42.0905L182.468 18.3305L181.021 16.9495L158.341 40.7095L159.788 42.0905ZM182.461 18.3376C183.969 16.7886 185.133 15.37 185.926 14.0849C186.71 12.8132 187.184 11.5856 187.184 10.44H185.184C185.184 11.0544 184.919 11.9067 184.223 13.0351C183.536 14.15 182.48 15.4514 181.028 16.9424L182.461 18.3376ZM187.184 10.44C187.184 9.26893 186.723 8.27626 185.766 7.6096C184.875 6.9882 183.656 6.72293 182.255 6.68045L182.194 8.67954C183.432 8.71706 184.194 8.95179 184.623 9.25039C184.986 9.50373 185.184 9.85106 185.184 10.44H187.184ZM183.179 7.38172C182.822 6.23883 182.624 4.63259 182.624 2.52H180.624C180.624 4.72741 180.827 6.56116 181.27 7.97827L183.179 7.38172ZM181.534 3.51589C184.222 3.76023 188.38 3.87999 193.984 3.87999V1.87999C188.389 1.87999 184.307 1.75976 181.715 1.5241L181.534 3.51589ZM193.984 3.87999C199.037 3.87999 203.184 3.7598 206.419 3.5172L206.27 1.5228C203.104 1.76019 199.012 1.87999 193.984 1.87999V3.87999ZM205.344 2.52C205.344 4.80485 205.103 6.35792 204.705 7.28608L206.544 8.07391C207.106 6.76207 207.344 4.87514 207.344 2.52H205.344ZM205.569 6.68154C202.532 6.85026 199.734 7.69632 197.19 9.2225L198.219 10.9375C200.475 9.58368 202.957 8.82973 205.68 8.67846L205.569 6.68154ZM197.19 9.2225C194.668 10.7356 191.552 13.498 187.855 17.4356L189.313 18.8044C192.977 14.9019 195.941 12.3044 198.219 10.9375L197.19 9.2225ZM187.857 17.4342L168.297 38.1942L169.752 39.5658L189.312 18.8058L187.857 17.4342ZM168.332 39.602C174.034 45.0656 181.915 54.3739 191.99 67.5669L193.579 66.3531C183.494 53.1461 175.535 43.7344 169.716 38.158L168.332 39.602ZM279.032 63.48L279.329 62.5249L278.411 62.24L278.09 63.1462L279.032 63.48ZM284.312 66.36L285.264 66.6665L285.452 66.0849L285.02 65.6529L284.312 66.36ZM280.592 84.24L280.567 85.2397L281.465 85.2627L281.584 84.3722L280.592 84.24ZM223.832 84.36H222.832V85.4008L223.872 85.3592L223.832 84.36ZM224.432 79.2L224.361 78.2025L223.71 78.249L223.491 78.8637L224.432 79.2ZM229.472 78L229.002 77.1176L228.989 77.1245L228.976 77.1318L229.472 78ZM231.992 74.64L231.035 74.3527L231.035 74.3527L231.992 74.64ZM230.912 10.08L230.123 10.6939L230.142 10.7184L230.163 10.7416L230.912 10.08ZM224.432 7.68L223.491 8.01633L223.715 8.64539L224.383 8.67875L224.432 7.68ZM223.832 2.52L223.883 1.52129L222.832 1.46786V2.52H223.832ZM277.712 2.52L278.708 2.42946L278.623 1.49194L277.682 1.52046L277.712 2.52ZM280.232 21.48L280.857 22.2609L281.347 21.8686L281.207 21.2566L280.232 21.48ZM274.832 22.92L273.836 23.0089L273.918 23.92H274.832V22.92ZM269.912 12L269.195 12.6971L269.205 12.7072L269.215 12.717L269.912 12ZM243.992 7.68V6.68H242.992V7.68H243.992ZM243.992 40.56H242.992V41.56H243.992V40.56ZM261.872 38.64L262.444 39.4609L262.451 39.456L261.872 38.64ZM264.872 30.84L264.592 29.88L263.888 30.0855L263.873 30.8192L264.872 30.84ZM270.632 30L271.631 30.0587L271.693 29H270.632V30ZM270.632 57V58H271.693L271.631 56.9413L270.632 57ZM265.112 56.4L264.115 56.4767L264.17 57.186L264.858 57.3671L265.112 56.4ZM261.752 48L261.116 48.771L261.134 48.7859L261.152 48.8L261.752 48ZM243.992 45.72V44.72H242.992V45.72H243.992ZM244.832 74.4L243.889 74.7303L243.891 74.738L243.894 74.7457L244.832 74.4ZM247.952 77.64L247.564 78.5616L247.573 78.5651L247.581 78.5685L247.952 77.64ZM274.832 72.24L274.021 71.6557L274.013 71.6666L274.006 71.6777L274.832 72.24ZM278.736 64.4351C280.964 65.1264 282.559 66.0206 283.605 67.0671L285.02 65.6529C283.666 64.2994 281.741 63.2736 279.329 62.5249L278.736 64.4351ZM283.361 66.0535C281.816 70.8498 280.566 76.8732 279.601 84.1078L281.584 84.3722C282.539 77.2068 283.769 71.3102 285.264 66.6665L283.361 66.0535ZM280.618 83.2403C274.366 83.08 265.796 83 254.912 83V85C265.789 85 274.339 85.08 280.567 85.2397L280.618 83.2403ZM254.912 83C240.193 83 229.815 83.1199 223.793 83.3608L223.872 85.3592C229.85 85.1201 240.192 85 254.912 85V83ZM224.832 84.36C224.832 82.0671 225.034 80.4888 225.374 79.5363L223.491 78.8637C223.031 80.1512 222.832 82.0129 222.832 84.36H224.832ZM224.504 80.1975C226.798 80.0336 228.655 79.6187 229.969 78.8682L228.976 77.1318C228.05 77.6613 226.547 78.0464 224.361 78.2025L224.504 80.1975ZM229.943 78.8824C231.43 78.0894 232.412 76.7207 232.95 74.9273L231.035 74.3527C230.613 75.7593 229.915 76.6306 229.002 77.1176L229.943 78.8824ZM232.95 74.9273C233.473 73.184 233.712 70.6655 233.712 67.44H231.712C231.712 70.6145 231.472 72.896 231.035 74.3527L232.95 74.9273ZM233.712 67.44V18.12H231.712V67.44H233.712ZM233.712 18.12C233.712 16.0766 233.56 14.3276 233.238 12.8915C232.919 11.4648 232.417 10.2733 231.662 9.41837L230.163 10.7416C230.608 11.2467 231.006 12.0752 231.287 13.3285C231.565 14.5724 231.712 16.1634 231.712 18.12H233.712ZM231.702 9.46605C230.306 7.67151 227.765 6.84539 224.482 6.68124L224.383 8.67875C227.5 8.83461 229.279 9.60849 230.123 10.6939L231.702 9.46605ZM225.374 7.34366C225.034 6.39118 224.832 4.81292 224.832 2.52H222.832C222.832 4.86708 223.031 6.72881 223.491 8.01633L225.374 7.34366ZM223.782 3.51871C228.527 3.76 235.267 3.87999 243.992 3.87999V1.87999C235.278 1.87999 228.578 1.75999 223.883 1.52129L223.782 3.51871ZM243.992 3.87999C258.556 3.87999 269.808 3.76 277.743 3.51954L277.682 1.52046C269.777 1.75999 258.549 1.87999 243.992 1.87999V3.87999ZM276.717 2.61053C277.517 11.4143 278.362 17.7924 279.258 21.7034L281.207 21.2566C280.343 17.4876 279.508 11.2257 278.708 2.42946L276.717 2.61053ZM279.608 20.6991C278.66 21.457 277.126 21.92 274.832 21.92V23.92C277.339 23.92 279.405 23.423 280.857 22.2609L279.608 20.6991ZM275.829 22.8311C275.41 18.1432 273.682 14.27 270.61 11.283L269.215 12.717C271.903 15.33 273.455 18.7368 273.836 23.0089L275.829 22.8311ZM270.629 11.3029C267.541 8.12639 262.274 6.68 255.152 6.68V8.68C262.111 8.68 266.684 10.1136 269.195 12.6971L270.629 11.3029ZM255.152 6.68H243.992V8.68H255.152V6.68ZM242.992 7.68V40.56H244.992V7.68H242.992ZM243.992 41.56H251.552V39.56H243.992V41.56ZM251.552 41.56C254.11 41.56 256.295 41.3981 258.095 41.0631C259.885 40.7302 261.36 40.2145 262.444 39.4609L261.301 37.8191C260.545 38.3454 259.38 38.7898 257.73 39.0969C256.09 39.4019 254.035 39.56 251.552 39.56V41.56ZM262.451 39.456C264.758 37.8215 265.79 34.8169 265.872 30.8608L263.873 30.8192C263.795 34.5431 262.827 36.7385 261.294 37.824L262.451 39.456ZM265.152 31.8C266.985 31.2654 268.811 31 270.632 31V29C268.614 29 266.6 29.2946 264.592 29.88L265.152 31.8ZM269.634 29.9413C269.472 32.6928 269.392 37.0779 269.392 43.08H271.392C271.392 37.0821 271.473 32.7472 271.631 30.0587L269.634 29.9413ZM269.392 43.08C269.392 49.6401 269.472 54.3063 269.634 57.0587L271.631 56.9413C271.473 54.2537 271.392 49.6399 271.392 43.08H269.392ZM270.632 56C268.529 56 266.779 55.8046 265.367 55.4329L264.858 57.3671C266.485 57.7954 268.416 58 270.632 58V56ZM266.11 56.3233C265.783 52.077 264.626 48.9049 262.352 47.2L261.152 48.8C262.719 49.9751 263.802 52.403 264.115 56.4767L266.11 56.3233ZM262.389 47.229C260.257 45.4679 256.537 44.72 251.552 44.72V46.72C256.488 46.72 259.568 47.4921 261.116 48.771L262.389 47.229ZM251.552 44.72H243.992V46.72H251.552V44.72ZM242.992 45.72V67.44H244.992V45.72H242.992ZM242.992 67.44C242.992 70.518 243.273 72.9714 243.889 74.7303L245.776 74.0696C245.272 72.6286 244.992 70.442 244.992 67.44H242.992ZM243.894 74.7457C244.552 76.5309 245.794 77.8164 247.564 78.5616L248.341 76.7184C247.071 76.1836 246.233 75.3091 245.771 74.0543L243.894 74.7457ZM247.581 78.5685C249.357 79.2788 251.827 79.6 254.912 79.6V77.6C251.918 77.6 249.748 77.2812 248.324 76.7115L247.581 78.5685ZM254.912 79.6H255.632V77.6H254.912V79.6ZM255.632 79.6C261.197 79.6 265.579 79.0386 268.706 77.8553L267.999 75.9847C265.206 77.0414 261.108 77.6 255.632 77.6V79.6ZM268.706 77.8553C271.8 76.6848 274.153 75.0178 275.659 72.8023L274.006 71.6777C272.792 73.4622 270.825 74.9152 267.999 75.9847L268.706 77.8553ZM275.644 72.8243C277.164 70.7138 278.601 67.693 279.975 63.8138L278.09 63.1462C276.744 66.947 275.381 69.7662 274.021 71.6557L275.644 72.8243ZM427.326 79.08L428.286 78.7978L428.092 78.1404L427.409 78.0835L427.326 79.08ZM427.926 84.36L427.861 85.3579L428.926 85.4273V84.36H427.926ZM398.886 84.36H397.886V85.4206L398.945 85.3583L398.886 84.36ZM399.606 79.2L399.502 78.2055L398.85 78.2741L398.653 78.8989L399.606 79.2ZM405.726 77.16L405.019 76.4529L405.019 76.4529L405.726 77.16ZM406.926 65.4L407.921 65.3005L407.921 65.2956L406.926 65.4ZM402.606 24.24L403.601 24.1356L401.682 23.8575L402.606 24.24ZM377.766 84.24L378.147 85.1647L378.531 85.0065L378.69 84.6225L377.766 84.24ZM372.846 85.08L371.938 85.4983L372.206 86.08H372.846V85.08ZM344.886 24.36L345.795 23.9417L344.256 20.6006L343.891 24.2608L344.886 24.36ZM341.046 62.88L342.041 62.9795L342.041 62.9792L341.046 62.88ZM342.486 76.8L341.718 77.4402L341.737 77.4634L341.758 77.4854L342.486 76.8ZM348.846 79.2L349.806 78.9178L349.612 78.2588L348.927 78.2033L348.846 79.2ZM349.446 84.36L349.384 85.3581L350.446 85.4245V84.36H349.446ZM324.606 84.36H323.606V85.4358L324.679 85.3573L324.606 84.36ZM325.206 79.2L325.1 78.2057L324.435 78.2769L324.247 78.9178L325.206 79.2ZM330.366 77.52L330.958 78.3264L330.958 78.3264L330.366 77.52ZM333.126 72.72L332.168 72.4327L332.165 72.4433L332.162 72.4541L333.126 72.72ZM334.926 61.8L335.921 61.8979L335.922 61.8895L334.926 61.8ZM338.766 19.08L337.772 18.9696L337.771 18.98L337.77 18.9905L338.766 19.08ZM336.966 9.6L336.259 10.3071L336.259 10.3071L336.966 9.6ZM330.726 7.68L329.772 7.97827L329.991 8.68H330.726V7.68ZM330.126 2.52L330.226 1.52496L329.126 1.41501V2.52H330.126ZM348.366 2.52L349.277 2.10806L348.989 1.46917L348.29 1.52294L348.366 2.52ZM378.366 68.88L377.455 69.2919L378.429 71.4469L379.297 69.2467L378.366 68.88ZM404.526 2.52L404.614 1.52387L403.87 1.4582L403.596 2.15325L404.526 2.52ZM423.006 2.52H424.006V1.44219L422.931 1.5228L423.006 2.52ZM422.406 7.68V8.68H423.177L423.373 7.93449L422.406 7.68ZM416.166 9.72L415.48 8.99298L415.469 9.00279L415.459 9.01289L416.166 9.72ZM414.246 19.8L415.242 19.7024L415.24 19.6896L414.246 19.8ZM418.566 63.84L417.571 63.9376L417.571 63.9395L418.566 63.84ZM420.126 73.08L419.167 73.3641L419.17 73.3741L420.126 73.08ZM422.766 77.52L422.148 78.3063L422.148 78.3063L422.766 77.52ZM426.367 79.3622C426.73 80.5959 426.926 82.2511 426.926 84.36H428.926C428.926 82.1489 428.723 80.2841 428.286 78.7978L426.367 79.3622ZM427.991 83.3621C424.281 83.1201 419.457 83 413.526 83V85C419.436 85 424.212 85.1199 427.861 85.3579L427.991 83.3621ZM413.526 83C407.834 83 402.933 83.1202 398.828 83.3617L398.945 85.3583C403 85.1198 407.859 85 413.526 85V83ZM399.886 84.36C399.886 82.522 400.116 80.9062 400.56 79.5011L398.653 78.8989C398.136 80.5338 397.886 82.358 397.886 84.36H399.886ZM399.711 80.1945C402.775 79.8719 405.13 79.1707 406.433 77.8671L405.019 76.4529C404.243 77.2293 402.517 77.8881 399.502 78.2055L399.711 80.1945ZM406.433 77.8671C407.771 76.5293 408.286 74.2521 408.286 71.4H406.286C406.286 74.1479 405.761 75.7107 405.019 76.4529L406.433 77.8671ZM408.286 71.4C408.286 69.7547 408.163 67.7188 407.921 65.3005L405.931 65.4995C406.169 67.8812 406.286 69.8453 406.286 71.4H408.286ZM407.921 65.2956L403.601 24.1356L401.612 24.3444L405.932 65.5044L407.921 65.2956ZM401.682 23.8575L376.842 83.8575L378.69 84.6225L403.53 24.6225L401.682 23.8575ZM377.386 83.3153C376.177 83.8129 374.674 84.08 372.846 84.08V86.08C374.859 86.08 376.635 85.7871 378.147 85.1647L377.386 83.3153ZM373.755 84.6617L345.795 23.9417L343.978 24.7783L371.938 85.4983L373.755 84.6617ZM343.891 24.2608L340.051 62.7808L342.041 62.9792L345.881 24.4592L343.891 24.2608ZM340.051 62.7805C339.809 65.2024 339.686 67.3172 339.686 69.12H341.686C341.686 67.4028 341.803 65.3576 342.041 62.9795L340.051 62.7805ZM339.686 69.12C339.686 72.8413 340.279 75.7138 341.718 77.4402L343.254 76.1598C342.293 75.0062 341.686 72.7587 341.686 69.12H339.686ZM341.758 77.4854C343.284 79.1063 345.697 79.9479 348.765 80.1967L348.927 78.2033C346.075 77.9721 344.249 77.2137 343.214 76.1146L341.758 77.4854ZM347.887 79.4822C348.251 80.7186 348.446 82.3353 348.446 84.36H350.446C350.446 82.2247 350.242 80.4014 349.806 78.9178L347.887 79.4822ZM349.509 83.3619C345.644 83.1204 341.343 83 336.606 83V85C341.31 85 345.569 85.1196 349.384 85.3581L349.509 83.3619ZM336.606 83C331.871 83 327.845 83.1203 324.533 83.3627L324.679 85.3573C327.927 85.1197 331.901 85 336.606 85V83ZM325.606 84.36C325.606 82.3353 325.802 80.7186 326.166 79.4822L324.247 78.9178C323.811 80.4014 323.606 82.2247 323.606 84.36H325.606ZM325.313 80.1943C327.645 79.9444 329.56 79.351 330.958 78.3264L329.775 76.7136C328.772 77.449 327.248 77.9756 325.1 78.2057L325.313 80.1943ZM330.958 78.3264C332.421 77.2532 333.425 75.3987 334.09 72.9859L332.162 72.4541C331.548 74.6813 330.711 76.0268 329.775 76.7136L330.958 78.3264ZM334.084 73.0073C334.833 70.5118 335.44 66.7935 335.921 61.8979L333.931 61.7021C333.453 66.5665 332.86 70.1282 332.168 72.4327L334.084 73.0073ZM335.922 61.8895L339.762 19.1695L337.77 18.9905L333.93 61.7105L335.922 61.8895ZM339.76 19.1904C339.846 18.4178 339.886 17.4164 339.886 16.2H337.886C337.886 17.3836 337.847 18.3022 337.772 18.9696L339.76 19.1904ZM339.886 16.2C339.886 12.9935 339.238 10.4573 337.673 8.89289L336.259 10.3071C337.255 11.3027 337.886 13.1664 337.886 16.2H339.886ZM337.673 8.89289C336.121 7.34029 333.72 6.68 330.726 6.68V8.68C333.492 8.68 335.252 9.29971 336.259 10.3071L337.673 8.89289ZM331.681 7.38172C331.324 6.23883 331.126 4.63259 331.126 2.52H329.126C329.126 4.72741 329.329 6.56116 329.772 7.97827L331.681 7.38172ZM330.027 3.51503C332.472 3.75957 335.548 3.87999 339.246 3.87999V1.87999C335.584 1.87999 332.58 1.76042 330.226 1.52496L330.027 3.51503ZM339.246 3.87999C342.233 3.87999 345.299 3.7589 348.443 3.51705L348.29 1.52294C345.194 1.76109 342.179 1.87999 339.246 1.87999V3.87999ZM347.455 2.93194L377.455 69.2919L379.277 68.4681L349.277 2.10806L347.455 2.93194ZM379.297 69.2467L405.457 2.88674L403.596 2.15325L377.436 68.5133L379.297 69.2467ZM404.438 3.51613C407.195 3.75931 410.345 3.87999 413.886 3.87999V1.87999C410.388 1.87999 407.298 1.76067 404.614 1.52387L404.438 3.51613ZM413.886 3.87999C416.794 3.87999 419.859 3.75885 423.081 3.5172L422.931 1.5228C419.754 1.76114 416.739 1.87999 413.886 1.87999V3.87999ZM422.006 2.52C422.006 4.37232 421.813 6.00451 421.439 7.4255L423.373 7.93449C423.799 6.31549 424.006 4.50768 424.006 2.52H422.006ZM422.406 6.68C419.527 6.68 417.165 7.40101 415.48 8.99298L416.853 10.447C418.047 9.31898 419.845 8.68 422.406 8.68V6.68ZM415.459 9.01289C413.813 10.6592 413.126 13.3582 413.126 16.8H415.126C415.126 13.5218 415.8 11.5008 416.873 10.4271L415.459 9.01289ZM413.126 16.8C413.126 18.0936 413.166 19.1362 413.252 19.9104L415.24 19.6896C415.166 19.0238 415.126 18.0664 415.126 16.8H413.126ZM413.251 19.8976L417.571 63.9376L419.561 63.7424L415.241 19.7024L413.251 19.8976ZM417.571 63.9395C417.973 67.9616 418.501 71.1145 419.167 73.3641L421.085 72.7959C420.472 70.7255 419.959 67.7184 419.561 63.7405L417.571 63.9395ZM419.17 73.3741C419.841 75.5526 420.804 77.2501 422.148 78.3063L423.384 76.7337C422.488 76.0299 421.692 74.7674 421.082 72.7859L419.17 73.3741ZM422.148 78.3063C423.468 79.3429 425.195 79.9059 427.243 80.0765L427.409 78.0835C425.617 77.9341 424.305 77.4571 423.384 76.7337L422.148 78.3063ZM502.646 68.4L501.675 68.1621L501.675 68.1621L502.646 68.4ZM497.246 78.24L496.539 77.5329L496.539 77.5329L497.246 78.24ZM455.006 78L454.274 78.6819L454.281 78.6884L455.006 78ZM447.806 11.76L446.833 11.989L446.839 12.0158L446.847 12.0422L447.806 11.76ZM445.886 8.87999L446.39 8.01622L446.39 8.01621L445.886 8.87999ZM441.326 7.68L440.362 7.94764L440.543 8.59624L441.211 8.6734L441.326 7.68ZM440.726 2.52L440.801 1.5228L439.726 1.44219V2.52H440.726ZM468.566 2.52H469.566V1.45111L468.499 1.52221L468.566 2.52ZM467.966 7.68L468.059 8.67563L468.745 8.61133L468.929 7.94764L467.966 7.68ZM462.446 8.87999L462.865 9.78795L462.879 9.78141L462.893 9.77442L462.446 8.87999ZM460.286 11.64L461.24 11.9383L461.243 11.9302L461.245 11.9222L460.286 11.64ZM464.246 72.36L463.428 72.9355L463.434 72.9442L463.441 72.9527L464.246 72.36ZM486.926 77.64L487.222 78.5951L487.232 78.592L487.242 78.5887L486.926 77.64ZM492.806 74.16L493.513 74.8671L493.513 74.8671L492.806 74.16ZM496.766 66.72L495.797 66.4716L495.795 66.4806L495.793 66.4895L496.766 66.72ZM497.366 13.8L496.385 13.9961L496.385 13.9961L497.366 13.8ZM494.966 9.47999L494.315 10.2393L494.344 10.264L494.375 10.2864L494.966 9.47999ZM489.686 7.68L488.705 7.87611L488.85 8.60143L489.586 8.67503L489.686 7.68ZM489.086 2.52L489.174 1.52387L488.086 1.42788V2.52H489.086ZM511.766 2.52H512.766V1.44012L511.689 1.52294L511.766 2.52ZM511.166 7.68L511.29 8.67227L512.021 8.58091L512.15 7.85579L511.166 7.68ZM506.726 9.36L506.08 8.59661L506.065 8.60943L506.05 8.62284L506.726 9.36ZM504.686 13.92L505.668 14.1088L505.669 14.1021L504.686 13.92ZM503.086 51.72C503.086 58.8919 502.606 64.358 501.675 68.1621L503.617 68.6379C504.606 64.602 505.086 58.9481 505.086 51.72H503.086ZM501.675 68.1621C500.754 71.9194 499.039 75.0326 496.539 77.5329L497.953 78.9471C500.733 76.1674 502.617 72.7206 503.617 68.6379L501.675 68.1621ZM496.539 77.5329C492.218 81.8535 486.024 84.08 477.806 84.08V86.08C486.388 86.08 493.154 83.7465 497.953 78.9471L496.539 77.5329ZM477.806 84.08C467.19 84.08 459.931 81.7361 455.731 77.3116L454.281 78.6884C459.041 83.7039 466.982 86.08 477.806 86.08V84.08ZM455.737 77.3181C451.58 72.8586 449.406 65.9133 449.406 56.28H447.406C447.406 66.1666 449.632 73.7014 454.274 78.6819L455.737 77.3181ZM449.406 56.28V18.12H447.406V56.28H449.406ZM449.406 18.12C449.406 15.2216 449.208 12.982 448.765 11.4778L446.847 12.0422C447.204 13.258 447.406 15.2584 447.406 18.12H449.406ZM448.779 11.531C448.414 9.97691 447.645 8.74815 446.39 8.01622L445.382 9.74377C446.047 10.1318 446.558 10.8231 446.833 11.989L448.779 11.531ZM446.39 8.01621C445.247 7.3493 443.558 6.93089 441.441 6.68659L441.211 8.6734C443.254 8.90911 444.605 9.29069 445.382 9.74377L446.39 8.01621ZM442.289 7.41235C441.92 6.08322 441.726 4.45799 441.726 2.52H439.726C439.726 4.582 439.932 6.39677 440.362 7.94764L442.289 7.41235ZM440.651 3.5172C443.889 3.76004 448.559 3.87999 454.646 3.87999V1.87999C448.573 1.87999 443.963 1.75995 440.801 1.5228L440.651 3.5172ZM454.646 3.87999C460.337 3.87999 465.002 3.75984 468.632 3.51778L468.499 1.52221C464.93 1.76015 460.315 1.87999 454.646 1.87999V3.87999ZM467.566 2.52C467.566 4.45799 467.372 6.08322 467.002 7.41235L468.929 7.94764C469.36 6.39677 469.566 4.582 469.566 2.52H467.566ZM467.873 6.68436C465.291 6.92635 463.294 7.33787 461.999 7.98557L462.893 9.77442C463.838 9.30213 465.52 8.91365 468.059 8.67563L467.873 6.68436ZM462.027 7.97204C460.664 8.60092 459.787 9.7923 459.327 11.3578L461.245 11.9222C461.585 10.7677 462.148 10.1191 462.865 9.78795L462.027 7.97204ZM459.331 11.3417C458.882 12.7796 458.686 15.074 458.686 18.12H460.686C460.686 15.086 460.89 13.0604 461.24 11.9383L459.331 11.3417ZM458.686 18.12V54.6H460.686V18.12H458.686ZM458.686 54.6C458.686 62.242 460.229 68.3893 463.428 72.9355L465.064 71.7845C462.183 67.6907 460.686 61.998 460.686 54.6H458.686ZM463.441 72.9527C466.819 77.5437 472.468 79.72 480.086 79.72V77.72C472.824 77.72 467.913 75.6563 465.051 71.7673L463.441 72.9527ZM480.086 79.72C482.435 79.72 484.814 79.3423 487.222 78.5951L486.63 76.6849C484.397 77.3777 482.217 77.72 480.086 77.72V79.72ZM487.242 78.5887C489.764 77.7482 491.865 76.5147 493.513 74.8671L492.099 73.4529C490.706 74.8453 488.888 75.9318 486.61 76.6913L487.242 78.5887ZM493.513 74.8671C495.583 72.7972 496.983 70.1432 497.739 66.9505L495.793 66.4895C495.109 69.3768 493.869 71.6828 492.099 73.4529L493.513 74.8671ZM497.735 66.9684C498.567 63.7232 498.966 58.9411 498.966 52.68H496.966C496.966 58.8989 496.565 63.4768 495.797 66.4716L497.735 66.9684ZM498.966 52.68V22.92H496.966V52.68H498.966ZM498.966 22.92C498.966 18.8257 498.767 15.7046 498.347 13.6039L496.385 13.9961C496.765 15.8954 496.966 18.8543 496.966 22.92H498.966ZM498.347 13.6039C497.916 11.4506 497.023 9.74853 495.557 8.67359L494.375 10.2864C495.309 10.9715 496.016 12.1494 496.385 13.9961L498.347 13.6039ZM495.617 8.72074C494.271 7.56718 492.271 6.93355 489.785 6.68496L489.586 8.67503C491.901 8.90645 493.421 9.47281 494.315 10.2393L495.617 8.72074ZM490.667 7.48388C490.275 5.52411 490.086 3.87326 490.086 2.52H488.086C488.086 4.04674 488.297 5.83589 488.705 7.87611L490.667 7.48388ZM488.998 3.51613C491.761 3.75993 495.555 3.87999 500.366 3.87999V1.87999C495.577 1.87999 491.851 1.76006 489.174 1.52387L488.998 3.51613ZM500.366 3.87999C504.862 3.87999 508.689 3.75965 511.843 3.51705L511.689 1.52294C508.603 1.76034 504.83 1.87999 500.366 1.87999V3.87999ZM510.766 2.52C510.766 3.63005 510.579 5.28054 510.182 7.50421L512.15 7.85579C512.553 5.59946 512.766 3.80994 512.766 2.52H510.766ZM511.042 6.68772C509.007 6.94211 507.318 7.54901 506.08 8.59661L507.372 10.1234C508.214 9.41099 509.485 8.89788 511.29 8.67227L511.042 6.68772ZM506.05 8.62284C504.853 9.7202 504.118 11.4972 503.703 13.7379L505.669 14.1021C506.054 12.0228 506.679 10.7598 507.402 10.0971L506.05 8.62284ZM503.704 13.7311C503.286 15.9052 503.086 18.9804 503.086 22.92H505.086C505.086 19.0196 505.286 16.0948 505.668 14.1088L503.704 13.7311ZM503.086 22.92V51.72H505.086V22.92H503.086ZM540.303 83.28L539.974 84.2245L539.983 84.2277L539.992 84.2307L540.303 83.28ZM528.423 77.4L527.435 77.2413L527.33 77.8976L527.894 78.2489L528.423 77.4ZM529.503 60.36L529.25 59.3924L528.503 59.5874V60.36H529.503ZM535.983 59.64L536.981 59.5901L536.934 58.64H535.983V59.64ZM540.783 74.28L540.023 74.9309L540.032 74.941L540.783 74.28ZM565.983 75.96L566.653 76.7021L566.654 76.701L565.983 75.96ZM567.423 58.92L566.619 59.5152L566.619 59.5152L567.423 58.92ZM561.543 53.64L561.015 54.4896L561.026 54.4963L561.037 54.5027L561.543 53.64ZM551.823 48.6L551.387 49.5003L551.395 49.5042L551.403 49.508L551.823 48.6ZM532.863 35.04L532.021 35.5797L532.029 35.5923L532.037 35.6047L532.863 35.04ZM536.343 7.56L537.007 8.30741L537.007 8.30741L536.343 7.56ZM565.263 3.35999L564.985 4.32071L564.995 4.32357L565.005 4.32623L565.263 3.35999ZM574.023 7.08H575.023V6.55007L574.584 6.25252L574.023 7.08ZM574.743 22.92L575.121 23.8455L575.84 23.5513L575.733 22.7818L574.743 22.92ZM568.023 24L567.037 24.1683L567.179 25H568.023V24ZM562.983 10.68L562.251 11.3623L562.257 11.3685L562.263 11.3746L562.983 10.68ZM543.903 10.2L544.557 10.9557L544.557 10.9557L543.903 10.2ZM542.703 27L541.889 27.5812L541.896 27.5907L541.903 27.6L542.703 27ZM548.703 32.52L548.175 33.3696L548.182 33.3736L548.188 33.3775L548.703 32.52ZM558.543 37.8L558.095 38.6944L558.104 38.699L558.114 38.7034L558.543 37.8ZM569.823 43.92L569.273 44.7558L569.284 44.7627L569.823 43.92ZM577.143 51.12L577.971 50.5601L577.971 50.5601L577.143 51.12ZM577.143 73.56L576.273 73.066L576.269 73.0726L577.143 73.56ZM568.023 81.96L568.477 82.8509L568.483 82.8475L568.023 81.96ZM552.783 84.08C548.228 84.08 544.175 83.4909 540.613 82.3293L539.992 84.2307C543.79 85.4691 548.057 86.08 552.783 86.08V84.08ZM540.631 82.3355C537.037 81.0856 533.145 79.1623 528.951 76.5511L527.894 78.2489C532.18 80.9177 536.208 82.9144 539.974 84.2245L540.631 82.3355ZM529.41 77.5587C530.141 73.0068 530.503 67.269 530.503 60.36H528.503C528.503 67.211 528.144 72.8332 527.435 77.2413L529.41 77.5587ZM529.755 61.3276C531.492 60.8745 533.563 60.64 535.983 60.64V58.64C533.442 58.64 531.193 58.8855 529.25 59.3924L529.755 61.3276ZM534.984 59.6899C535.31 66.2153 536.947 71.3419 540.023 74.9308L541.542 73.6292C538.858 70.4981 537.295 65.8647 536.981 59.5901L534.984 59.6899ZM540.032 74.941C543.245 78.5886 548.128 80.32 554.463 80.32V78.32C548.477 78.32 544.24 76.6914 541.533 73.619L540.032 74.941ZM554.463 80.32C559.778 80.32 563.91 79.1793 566.653 76.7021L565.312 75.2179C563.095 77.2207 559.547 78.32 554.463 78.32V80.32ZM566.654 76.701C569.443 74.1735 570.823 70.8544 570.823 66.84H568.823C568.823 70.3456 567.642 73.1065 565.311 75.219L566.654 76.701ZM570.823 66.84C570.823 63.5414 569.973 60.6837 568.226 58.3248L566.619 59.5152C568.072 61.4763 568.823 63.8986 568.823 66.84H570.823ZM568.226 58.3248C566.546 56.0564 564.484 54.2054 562.048 52.7773L561.037 54.5027C563.241 55.7946 565.099 57.4636 566.619 59.5152L568.226 58.3248ZM562.07 52.7904C559.7 51.3191 556.418 49.6194 552.242 47.692L551.403 49.508C555.548 51.4206 558.745 53.0809 561.015 54.4896L562.07 52.7904ZM552.258 47.6996C547.476 45.3885 543.675 43.3278 540.841 41.5173L539.764 43.2027C542.69 45.0722 546.569 47.1715 551.387 49.5003L552.258 47.6996ZM540.841 41.5173C538.083 39.7552 535.698 37.413 533.688 34.4753L532.037 35.6047C534.187 38.747 536.762 41.2848 539.764 43.2027L540.841 41.5173ZM533.704 34.5003C531.831 31.5776 530.863 27.8968 530.863 23.4H528.863C528.863 28.1832 529.894 32.2624 532.021 35.5797L533.704 34.5003ZM530.863 23.4C530.863 16.9144 532.936 11.9261 537.007 8.30741L535.678 6.81259C531.109 10.8739 528.863 16.4455 528.863 23.4H530.863ZM537.007 8.30741C541.096 4.67247 546.715 2.79999 553.983 2.79999V0.799993C546.37 0.799993 540.229 2.76752 535.678 6.81259L537.007 8.30741ZM553.983 2.79999C557.813 2.79999 561.479 3.30795 564.985 4.32071L565.54 2.39928C561.846 1.33204 557.992 0.799993 553.983 0.799993V2.79999ZM565.005 4.32623C568.534 5.26742 571.341 6.46918 573.461 7.90747L574.584 6.25252C572.224 4.65081 569.191 3.37257 565.52 2.39376L565.005 4.32623ZM573.023 7.08C573.023 14.2088 573.262 19.5462 573.752 23.0582L575.733 22.7818C575.263 19.4138 575.023 14.1912 575.023 7.08H573.023ZM574.364 21.9945C572.764 22.649 570.664 23 568.023 23V25C570.821 25 573.201 24.631 575.121 23.8455L574.364 21.9945ZM569.008 23.8317C567.884 17.2454 566.167 12.5385 563.702 9.98541L562.263 11.3746C564.278 13.4615 565.921 17.6346 567.037 24.1683L569.008 23.8317ZM563.714 9.99768C561.252 7.36036 557.928 6.08 553.863 6.08V8.08C557.477 8.08 560.233 9.19964 562.251 11.3623L563.714 9.99768ZM553.863 6.08C549.463 6.08 545.883 7.16049 543.248 9.44431L544.557 10.9557C546.722 9.0795 549.782 8.08 553.863 8.08V6.08ZM543.248 9.44431C540.588 11.7496 539.303 14.9687 539.303 18.96H541.303C541.303 15.4313 542.417 12.8104 544.557 10.9557L543.248 9.44431ZM539.303 18.96C539.303 22.2595 540.152 25.1495 541.889 27.5812L543.516 26.4188C542.053 24.3705 541.303 21.9005 541.303 18.96H539.303ZM541.903 27.6C543.655 29.9369 545.747 31.8624 548.175 33.3696L549.23 31.6704C547.018 30.2976 545.11 28.5431 543.503 26.4L541.903 27.6ZM548.188 33.3775C550.62 34.8364 553.925 36.6094 558.095 38.6944L558.99 36.9056C554.84 34.8306 551.585 33.0836 549.217 31.6625L548.188 33.3775ZM558.114 38.7034C562.812 40.9333 566.527 42.9509 569.273 44.7557L570.372 43.0843C567.518 41.2091 563.713 39.1467 558.971 36.8966L558.114 38.7034ZM569.284 44.7627C572.044 46.5259 574.387 48.8277 576.314 51.6799L577.971 50.5601C575.898 47.4923 573.361 44.9941 570.361 43.0773L569.284 44.7627ZM576.314 51.6799C578.181 54.4426 579.143 57.8772 579.143 62.04H581.143C581.143 57.5628 580.104 53.7174 577.971 50.5601L576.314 51.6799ZM579.143 62.04C579.143 66.0318 578.185 69.7009 576.273 73.066L578.012 74.054C580.1 70.3791 581.143 66.3682 581.143 62.04H579.143ZM576.269 73.0726C574.462 76.3116 571.582 78.9853 567.562 81.0725L568.483 82.8475C572.783 80.6147 575.983 77.6884 578.016 74.0474L576.269 73.0726ZM567.568 81.0691C563.667 83.0578 558.754 84.08 552.783 84.08V86.08C558.971 86.08 564.218 85.0222 568.477 82.8509L567.568 81.0691ZM603.873 10.08L603.084 10.6939L603.103 10.7184L603.124 10.7416L603.873 10.08ZM597.393 7.68L596.452 8.01633L596.676 8.64539L597.343 8.67875L597.393 7.68ZM596.793 2.52L596.848 1.52148L595.793 1.46397V2.52H596.793ZM625.833 2.52H626.833V1.46875L625.783 1.52125L625.833 2.52ZM625.233 7.68L625.283 8.67875L625.951 8.64539L626.175 8.01633L625.233 7.68ZM618.633 10.08L617.865 9.4398L617.861 9.44429L618.633 10.08ZM618.633 76.92L617.844 77.5339L617.863 77.5584L617.884 77.5816L618.633 76.92ZM625.233 79.2L626.175 78.8637L625.951 78.2346L625.283 78.2012L625.233 79.2ZM625.833 84.36L625.783 85.3588L626.833 85.4112V84.36H625.833ZM596.793 84.36H595.793V85.4206L596.852 85.3583L596.793 84.36ZM597.393 79.2L597.343 78.2012L596.676 78.2346L596.452 78.8637L597.393 79.2ZM603.873 76.92L603.105 76.2798L603.101 76.2843L603.873 76.92ZM606.673 18.12C606.673 16.0766 606.521 14.3276 606.199 12.8915C605.88 11.4648 605.378 10.2733 604.623 9.41837L603.124 10.7416C603.569 11.2467 603.967 12.0752 604.248 13.3285C604.526 14.5724 604.673 16.1634 604.673 18.12H606.673ZM604.663 9.46605C603.267 7.67151 600.726 6.84539 597.443 6.68124L597.343 8.67875C600.461 8.83461 602.24 9.60849 603.084 10.6939L604.663 9.46605ZM598.335 7.34366C597.995 6.39118 597.793 4.81292 597.793 2.52H595.793C595.793 4.86708 595.992 6.72881 596.452 8.01633L598.335 7.34366ZM596.739 3.51851C601.16 3.75967 606.019 3.87999 611.313 3.87999V1.87999C606.048 1.87999 601.227 1.76032 596.848 1.52148L596.739 3.51851ZM611.313 3.87999C616.21 3.87999 621.066 3.75959 625.883 3.51875L625.783 1.52125C621 1.7604 616.177 1.87999 611.313 1.87999V3.87999ZM624.833 2.52C624.833 4.81292 624.632 6.39118 624.292 7.34366L626.175 8.01633C626.635 6.72881 626.833 4.86708 626.833 2.52H624.833ZM625.183 6.68124C621.892 6.84583 619.336 7.67436 617.865 9.43981L619.402 10.7202C620.33 9.60563 622.175 8.83417 625.283 8.67875L625.183 6.68124ZM617.861 9.44429C617.157 10.2996 616.691 11.4866 616.395 12.9055C616.096 14.3358 615.953 16.0796 615.953 18.12H617.953C617.953 16.1603 618.091 14.5642 618.352 13.3145C618.616 12.0534 618.99 11.2204 619.405 10.7157L617.861 9.44429ZM615.953 18.12V68.76H617.953V18.12H615.953ZM615.953 68.76C615.953 70.8009 616.096 72.5534 616.394 74.0017C616.69 75.4405 617.154 76.6462 617.844 77.5339L619.423 76.3061C618.993 75.7538 618.617 74.8795 618.353 73.5983C618.091 72.3266 617.953 70.7191 617.953 68.76H615.953ZM617.884 77.5816C619.358 79.2522 621.905 80.0348 625.183 80.1988L625.283 78.2012C622.162 78.0452 620.309 77.3078 619.383 76.2584L617.884 77.5816ZM624.292 79.5363C624.632 80.4888 624.833 82.0671 624.833 84.36H626.833C626.833 82.0129 626.635 80.1512 626.175 78.8637L624.292 79.5363ZM625.883 83.3612C621.066 83.1204 616.21 83 611.313 83V85C616.177 85 621 85.1196 625.783 85.3588L625.883 83.3612ZM611.313 83C605.7 83 600.84 83.1202 596.735 83.3617L596.852 85.3583C600.907 85.1198 605.726 85 611.313 85V83ZM597.793 84.36C597.793 82.0671 597.995 80.4888 598.335 79.5363L596.452 78.8637C595.992 80.1512 595.793 82.0129 595.793 84.36H597.793ZM597.443 80.1988C600.712 80.0353 603.246 79.2554 604.645 77.5557L603.101 76.2843C602.261 77.3046 600.475 78.0447 597.343 78.2012L597.443 80.1988ZM604.642 77.5602C605.382 76.6721 605.881 75.4617 606.2 74.0154C606.521 72.5614 606.673 70.8039 606.673 68.76H604.673C604.673 70.7161 604.526 72.3186 604.247 73.5846C603.966 74.8583 603.565 75.7279 603.105 76.2798L604.642 77.5602ZM606.673 68.76V18.12H604.673V68.76H606.673ZM658.655 79.8L658.125 80.648L658.132 80.6523L658.139 80.6565L658.655 79.8ZM645.095 64.8L644.201 65.2472L644.205 65.2561L645.095 64.8ZM645.815 20.4L644.962 19.879L644.957 19.8871L645.815 20.4ZM660.575 6.48L660.123 5.58789L660.119 5.5903L660.575 6.48ZM693.935 3.35999L693.693 4.33014L693.702 4.33234L693.71 4.33439L693.935 3.35999ZM707.015 8.04L707.994 8.24696L708.157 7.47433L707.443 7.13626L707.015 8.04ZM705.695 26.64L706.074 27.5655L706.695 27.3113V26.64H705.695ZM699.335 27.72L698.336 27.76L698.374 28.72H699.335V27.72ZM694.415 11.28L693.699 11.9777L693.708 11.9871L694.415 11.28ZM665.255 11.28L665.838 12.0927L665.838 12.0927L665.255 11.28ZM655.895 23.28L654.968 22.906L654.968 22.906L655.895 23.28ZM656.495 59.16L655.57 59.5401L655.574 59.5478L655.577 59.5555L656.495 59.16ZM667.175 72.84L666.589 73.65L666.598 73.6566L667.175 72.84ZM695.135 75.84L694.831 74.8876L694.831 74.8876L695.135 75.84ZM706.295 70.68L706.935 69.9118L706.378 69.4472L705.764 69.8331L706.295 70.68ZM707.615 72.48L706.721 72.9272L706.749 72.9829L706.783 73.0347L707.615 72.48ZM708.455 74.4L709.066 75.1921L709.528 74.8361L709.445 74.2586L708.455 74.4ZM694.175 82.56L693.835 81.6197L693.83 81.6217L694.175 82.56ZM678.455 84.08C671.262 84.08 664.843 82.3622 659.171 78.9435L658.139 80.6565C664.147 84.2778 670.928 86.08 678.455 86.08V84.08ZM659.185 78.952C653.588 75.4534 649.188 70.593 645.985 64.3439L644.205 65.2561C647.563 71.807 652.203 76.9466 658.125 80.648L659.185 78.952ZM645.99 64.3528C642.869 58.1113 641.295 50.9483 641.295 42.84H639.295C639.295 51.2117 640.922 58.6887 644.201 65.2472L645.99 64.3528ZM641.295 42.84C641.295 34.1798 643.105 26.8862 646.674 20.9129L644.957 19.8871C641.165 26.2338 639.295 33.9002 639.295 42.84H641.295ZM646.669 20.921C650.339 14.9089 655.125 10.4009 661.032 7.36969L660.119 5.5903C653.866 8.79911 648.812 13.5711 644.962 19.879L646.669 20.921ZM661.027 7.37209C667.044 4.32445 673.489 2.79999 680.375 2.79999V0.799993C673.181 0.799993 666.426 2.39553 660.123 5.5879L661.027 7.37209ZM680.375 2.79999C685.185 2.79999 689.622 3.31247 693.693 4.33014L694.178 2.38985C689.928 1.32751 685.326 0.799993 680.375 0.799993V2.79999ZM693.71 4.33439C697.789 5.27561 702.081 6.80913 706.587 8.94374L707.443 7.13626C702.83 4.95086 698.402 3.36438 694.16 2.3856L693.71 4.33439ZM706.037 7.83304C705.135 12.0979 704.695 18.3823 704.695 26.64H706.695C706.695 18.4177 707.136 12.3021 707.994 8.24696L706.037 7.83304ZM705.317 25.7145C703.707 26.3728 701.723 26.72 699.335 26.72V28.72C701.908 28.72 704.163 28.3472 706.074 27.5655L705.317 25.7145ZM700.334 27.68C700.012 19.6299 698.364 13.8145 695.122 10.5729L693.708 11.9871C696.387 14.6655 698.018 19.8101 698.336 27.76L700.334 27.68ZM695.132 10.5824C691.924 7.28783 687.266 5.71999 681.335 5.71999V7.71999C686.925 7.71999 690.987 9.19216 693.699 11.9776L695.132 10.5824ZM681.335 5.71999C674.697 5.71999 669.12 7.27872 664.673 10.4673L665.838 12.0927C669.871 9.20127 675.013 7.71999 681.335 7.71999V5.71999ZM664.673 10.4673C660.274 13.6208 657.037 17.7747 654.968 22.906L656.823 23.654C658.754 18.8653 661.756 15.0192 665.838 12.0927L664.673 10.4673ZM654.968 22.906C652.915 27.997 651.895 33.5656 651.895 39.6H653.895C653.895 33.7944 654.876 28.483 656.823 23.654L654.968 22.906ZM651.895 39.6C651.895 46.9122 653.114 53.5638 655.57 59.5401L657.42 58.7799C655.076 53.0762 653.895 46.6878 653.895 39.6H651.895ZM655.577 59.5555C658.121 65.4648 661.789 70.1744 666.589 73.6499L667.762 72.0301C663.281 68.7856 659.829 64.3752 657.414 58.7645L655.577 59.5555ZM666.598 73.6566C671.423 77.0676 677.07 78.76 683.495 78.76V76.76C677.441 76.76 672.207 75.1724 667.753 72.0234L666.598 73.6566ZM683.495 78.76C687.37 78.76 691.353 78.1003 695.44 76.7924L694.831 74.8876C690.918 76.1397 687.141 76.76 683.495 76.76V78.76ZM695.44 76.7924C699.517 75.4878 703.314 73.7329 706.827 71.5269L705.764 69.8331C702.397 71.9471 698.753 73.6322 694.831 74.8876L695.44 76.7924ZM705.655 71.4482C705.994 71.7304 706.358 72.2014 706.721 72.9272L708.51 72.0328C708.073 71.1586 707.557 70.4296 706.935 69.9118L705.655 71.4482ZM706.783 73.0347C707.22 73.6901 707.415 74.1867 707.465 74.5414L709.445 74.2586C709.336 73.4933 708.97 72.7099 708.447 71.9253L706.783 73.0347ZM707.845 73.6079C703.027 77.3198 698.357 79.9823 693.835 81.6197L694.516 83.5003C699.273 81.7777 704.123 79.0002 709.066 75.1921L707.845 73.6079ZM693.83 81.6217C689.401 83.2531 684.282 84.08 678.455 84.08V86.08C684.468 86.08 689.829 85.2269 694.521 83.4983L693.83 81.6217ZM794.534 76.92L793.744 77.5339L793.763 77.5584L793.784 77.5816L794.534 76.92ZM801.134 79.2L802.075 78.8637L801.851 78.2346L801.184 78.2012L801.134 79.2ZM801.734 84.36L801.684 85.3588L802.734 85.4112V84.36H801.734ZM772.694 84.36H771.694V85.4206L772.752 85.3583L772.694 84.36ZM773.294 79.2L773.244 78.2012L772.577 78.2346L772.352 78.8637L773.294 79.2ZM779.774 76.92L779.006 76.2798L779.002 76.2843L779.774 76.92ZM781.574 45H782.574V44H781.574V45ZM744.974 45.72L744.895 44.7231L743.974 44.7958V45.72H744.974ZM746.654 76.92L745.864 77.5339L745.883 77.5584L745.904 77.5816L746.654 76.92ZM753.254 79.2L754.195 78.8637L753.971 78.2346L753.304 78.2012L753.254 79.2ZM753.854 84.36L753.804 85.3588L754.854 85.4112V84.36H753.854ZM724.814 84.36H723.814V85.4206L724.872 85.3583L724.814 84.36ZM725.414 79.2L725.364 78.2012L724.697 78.2346L724.472 78.8637L725.414 79.2ZM731.894 76.92L731.126 76.2798L731.122 76.2843L731.894 76.92ZM731.894 10.08L731.104 10.6939L731.123 10.7184L731.144 10.7416L731.894 10.08ZM725.414 7.68L724.472 8.01633L724.697 8.64539L725.364 8.67875L725.414 7.68ZM724.814 2.52L724.868 1.52148L723.814 1.46397V2.52H724.814ZM753.854 2.52H754.854V1.46875L753.804 1.52125L753.854 2.52ZM753.254 7.68L753.304 8.67875L753.971 8.64539L754.195 8.01633L753.254 7.68ZM746.654 10.08L745.886 9.4398L745.882 9.44429L746.654 10.08ZM744.974 39.84H743.974V40.84H744.974V39.84ZM781.574 39.84V40.84H782.574V39.84H781.574ZM779.774 10.08L778.984 10.6939L779.003 10.7184L779.024 10.7416L779.774 10.08ZM773.294 7.68L772.352 8.01633L772.577 8.64539L773.244 8.67875L773.294 7.68ZM772.694 2.52L772.748 1.52148L771.694 1.46397V2.52H772.694ZM801.734 2.52H802.734V1.46875L801.684 1.52125L801.734 2.52ZM801.134 7.68L801.184 8.67875L801.851 8.64539L802.075 8.01633L801.134 7.68ZM794.534 10.08L793.766 9.4398L793.762 9.44429L794.534 10.08ZM791.854 68.76C791.854 70.8009 791.996 72.5534 792.294 74.0017C792.591 75.4405 793.054 76.6462 793.744 77.5339L795.323 76.3061C794.894 75.7538 794.517 74.8795 794.253 73.5983C793.991 72.3266 793.854 70.7191 793.854 68.76H791.854ZM793.784 77.5816C795.258 79.2522 797.805 80.0348 801.084 80.1988L801.184 78.2012C798.062 78.0452 796.21 77.3078 795.284 76.2584L793.784 77.5816ZM800.192 79.5363C800.532 80.4888 800.734 82.0671 800.734 84.36H802.734C802.734 82.0129 802.535 80.1512 802.075 78.8637L800.192 79.5363ZM801.784 83.3612C796.967 83.1204 792.11 83 787.214 83V85C792.077 85 796.901 85.1196 801.684 85.3588L801.784 83.3612ZM787.214 83C781.601 83 776.74 83.1202 772.635 83.3617L772.752 85.3583C776.807 85.1198 781.627 85 787.214 85V83ZM773.694 84.36C773.694 82.0671 773.895 80.4888 774.235 79.5363L772.352 78.8637C771.892 80.1512 771.694 82.0129 771.694 84.36H773.694ZM773.344 80.1988C776.613 80.0353 779.146 79.2554 780.546 77.5557L779.002 76.2843C778.162 77.3046 776.375 78.0447 773.244 78.2012L773.344 80.1988ZM780.542 77.5602C781.282 76.6721 781.781 75.4617 782.1 74.0154C782.421 72.5614 782.574 70.8039 782.574 68.76H780.574C780.574 70.7161 780.426 72.3186 780.147 73.5846C779.866 74.8583 779.465 75.7279 779.006 76.2798L780.542 77.5602ZM782.574 68.76V45H780.574V68.76H782.574ZM781.574 44C763.26 44 751.021 44.2395 744.895 44.7231L745.052 46.7169C751.087 46.2405 763.247 46 781.574 46V44ZM743.974 45.72V68.76H745.974V45.72H743.974ZM743.974 68.76C743.974 70.8009 744.116 72.5534 744.414 74.0017C744.711 75.4405 745.174 76.6462 745.864 77.5339L747.443 76.3061C747.014 75.7538 746.637 74.8795 746.373 73.5983C746.111 72.3266 745.974 70.7191 745.974 68.76H743.974ZM745.904 77.5816C747.378 79.2522 749.925 80.0348 753.204 80.1988L753.304 78.2012C750.182 78.0452 748.33 77.3078 747.404 76.2584L745.904 77.5816ZM752.312 79.5363C752.652 80.4888 752.854 82.0671 752.854 84.36H754.854C754.854 82.0129 754.655 80.1512 754.195 78.8637L752.312 79.5363ZM753.904 83.3612C749.087 83.1204 744.23 83 739.334 83V85C744.197 85 749.021 85.1196 753.804 85.3588L753.904 83.3612ZM739.334 83C733.721 83 728.86 83.1202 724.755 83.3617L724.872 85.3583C728.927 85.1198 733.747 85 739.334 85V83ZM725.814 84.36C725.814 82.0671 726.015 80.4888 726.355 79.5363L724.472 78.8637C724.012 80.1512 723.814 82.0129 723.814 84.36H725.814ZM725.464 80.1988C728.733 80.0353 731.266 79.2554 732.666 77.5557L731.122 76.2843C730.282 77.3046 728.495 78.0447 725.364 78.2012L725.464 80.1988ZM732.662 77.5602C733.402 76.6721 733.901 75.4617 734.22 74.0154C734.541 72.5614 734.694 70.8039 734.694 68.76H732.694C732.694 70.7161 732.546 72.3186 732.267 73.5846C731.986 74.8583 731.585 75.7279 731.126 76.2798L732.662 77.5602ZM734.694 68.76V18.12H732.694V68.76H734.694ZM734.694 18.12C734.694 16.0766 734.541 14.3276 734.22 12.8915C733.9 11.4648 733.398 10.2733 732.644 9.41837L731.144 10.7416C731.59 11.2467 731.987 12.0752 732.268 13.3285C732.546 14.5724 732.694 16.1634 732.694 18.12H734.694ZM732.683 9.46605C731.287 7.67151 728.747 6.84539 725.464 6.68124L725.364 8.67875C728.481 8.83461 730.26 9.60849 731.104 10.6939L732.683 9.46605ZM726.355 7.34366C726.015 6.39118 725.814 4.81292 725.814 2.52H723.814C723.814 4.86708 724.012 6.72881 724.472 8.01633L726.355 7.34366ZM724.759 3.51851C729.181 3.75967 734.039 3.87999 739.334 3.87999V1.87999C734.068 1.87999 729.247 1.76032 724.868 1.52148L724.759 3.51851ZM739.334 3.87999C744.23 3.87999 749.087 3.75959 753.904 3.51875L753.804 1.52125C749.021 1.7604 744.197 1.87999 739.334 1.87999V3.87999ZM752.854 2.52C752.854 4.81292 752.652 6.39118 752.312 7.34366L754.195 8.01633C754.655 6.72881 754.854 4.86708 754.854 2.52H752.854ZM753.204 6.68124C749.912 6.84583 747.357 7.67436 745.886 9.43981L747.422 10.7202C748.351 9.60563 750.195 8.83417 753.304 8.67875L753.204 6.68124ZM745.882 9.44429C745.177 10.2996 744.711 11.4866 744.415 12.9055C744.116 14.3358 743.974 16.0796 743.974 18.12H745.974C745.974 16.1603 746.111 14.5642 746.373 13.3145C746.636 12.0534 747.01 11.2204 747.426 10.7157L745.882 9.44429ZM743.974 18.12V39.84H745.974V18.12H743.974ZM744.974 40.84H781.574V38.84H744.974V40.84ZM782.574 39.84V18.12H780.574V39.84H782.574ZM782.574 18.12C782.574 16.0766 782.421 14.3276 782.1 12.8915C781.78 11.4648 781.278 10.2733 780.524 9.41837L779.024 10.7416C779.47 11.2467 779.867 12.0752 780.148 13.3285C780.426 14.5724 780.574 16.1634 780.574 18.12H782.574ZM780.563 9.46605C779.167 7.67151 776.627 6.84539 773.344 6.68124L773.244 8.67875C776.361 8.83461 778.14 9.60849 778.984 10.6939L780.563 9.46605ZM774.235 7.34366C773.895 6.39118 773.694 4.81292 773.694 2.52H771.694C771.694 4.86708 771.892 6.72881 772.352 8.01633L774.235 7.34366ZM772.639 3.51851C777.061 3.75967 781.919 3.87999 787.214 3.87999V1.87999C781.948 1.87999 777.127 1.76032 772.748 1.52148L772.639 3.51851ZM787.214 3.87999C792.11 3.87999 796.967 3.75959 801.784 3.51875L801.684 1.52125C796.901 1.7604 792.077 1.87999 787.214 1.87999V3.87999ZM800.734 2.52C800.734 4.81292 800.532 6.39118 800.192 7.34366L802.075 8.01633C802.535 6.72881 802.734 4.86708 802.734 2.52H800.734ZM801.084 6.68124C797.792 6.84583 795.237 7.67436 793.766 9.43981L795.302 10.7202C796.231 9.60563 798.075 8.83417 801.184 8.67875L801.084 6.68124ZM793.762 9.44429C793.057 10.2996 792.591 11.4866 792.295 12.9055C791.996 14.3358 791.854 16.0796 791.854 18.12H793.854C793.854 16.1603 793.991 14.5642 794.253 13.3145C794.516 12.0534 794.89 11.2204 795.306 10.7157L793.762 9.44429ZM791.854 18.12V68.76H793.854V18.12H791.854Z" fill="#F2F2F2"/>
</svg>
