<svg width="158" height="26" viewBox="0 0 158 26" fill="none" xmlns="http://www.w3.org/2000/svg">
<path d="M26.1124 22.936L26.8239 22.6988L26.6703 22.2381L26.187 22.1897L26.1124 22.936ZM26.3524 25.096L26.3149 25.8451L27.1024 25.8844V25.096H26.3524ZM16.3204 25.096H15.5704V25.8844L16.3578 25.8451L16.3204 25.096ZM16.6084 22.936L16.5114 22.1923L16.0874 22.2476L15.919 22.6406L16.6084 22.936ZM18.1444 22.552L18.5086 23.2076L18.5195 23.2015L18.5302 23.1951L18.1444 22.552ZM18.1444 20.248L18.8272 19.9376L18.8244 19.9317L18.1444 20.248ZM17.1844 18.184L17.8644 17.8677L17.6627 17.434H17.1844V18.184ZM6.28838 18.424L6.24328 17.6754L5.77891 17.7033L5.59765 18.1318L6.28838 18.424ZM5.76038 19.672L6.44821 19.9711L6.4511 19.9642L5.76038 19.672ZM7.24838 22.936L7.95989 22.6988L7.80589 22.2368L7.3212 22.1895L7.24838 22.936ZM7.53638 25.096L7.49696 25.845L8.28638 25.8865V25.096H7.53638ZM0.144375 25.096H-0.605625V25.8943L0.191159 25.8445L0.144375 25.096ZM0.432375 22.936L0.298211 22.1981L-0.160644 22.2815L-0.288768 22.73L0.432375 22.936ZM2.06438 22.072L2.63382 22.5601L2.64209 22.5504L2.65003 22.5405L2.06438 22.072ZM3.60038 19.24L4.28315 19.5504L4.28395 19.5486L3.60038 19.24ZM11.8564 0.951998L11.7019 0.218085L11.3294 0.296496L11.1728 0.643404L11.8564 0.951998ZM13.7764 0.76L14.4521 0.434532L14.2476 0.0100002H13.7764V0.76ZM22.6084 19.096L23.285 18.7724L23.2841 18.7705L22.6084 19.096ZM24.3844 22.072L23.8372 22.585L23.8455 22.5938L23.854 22.6023L24.3844 22.072ZM16.2244 16.216V16.966H17.4122L16.9015 15.8935L16.2244 16.216ZM13.3444 10.168L14.0216 9.84553L14.0177 9.83768L13.3444 10.168ZM11.6164 6.136L12.3302 5.90575L11.6135 3.68413L10.9021 5.90742L11.6164 6.136ZM10.6564 8.536L9.98013 8.2114L9.97458 8.22351L10.6564 8.536ZM9.98438 9.976L9.31356 9.64059L9.3051 9.65751L9.2975 9.67483L9.98438 9.976ZM7.24838 16.216L6.5615 15.9148L6.1006 16.966H7.24838V16.216ZM25.4009 23.1732C25.5218 23.5359 25.6024 24.1579 25.6024 25.096H27.1024C27.1024 24.1141 27.023 23.2961 26.8239 22.6988L25.4009 23.1732ZM26.3898 24.3469C25.0924 24.2821 23.4307 24.25 21.4084 24.25V25.75C23.4181 25.75 25.0523 25.7819 26.3149 25.8451L26.3898 24.3469ZM21.4084 24.25C19.2907 24.25 17.5808 24.282 16.2829 24.3469L16.3578 25.8451C17.62 25.782 19.302 25.75 21.4084 25.75V24.25ZM17.0704 25.096C17.0704 24.1221 17.169 23.5317 17.2977 23.2314L15.919 22.6406C15.6637 23.2363 15.5704 24.0859 15.5704 25.096H17.0704ZM16.7054 23.6797C17.4469 23.583 18.0852 23.4429 18.5086 23.2076L17.7801 21.8964C17.6276 21.9811 17.2418 22.097 16.5114 22.1923L16.7054 23.6797ZM18.5302 23.1951C19.0596 22.8775 19.3744 22.3702 19.3744 21.736H17.8744C17.8744 21.7941 17.8625 21.8159 17.8579 21.8237C17.8521 21.8336 17.8307 21.8656 17.7585 21.9089L18.5302 23.1951ZM19.3744 21.736C19.3744 21.4746 19.3061 21.1902 19.2182 20.9177C19.1263 20.6329 18.9939 20.3046 18.8272 19.9376L17.4616 20.5584C17.6148 20.8954 17.7225 21.1671 17.7906 21.3783C17.8627 21.6018 17.8744 21.7094 17.8744 21.736H19.3744ZM18.8244 19.9317L17.8644 17.8677L16.5043 18.5003L17.4643 20.5643L18.8244 19.9317ZM17.1844 17.434C12.5705 17.434 8.92126 17.514 6.24328 17.6754L6.33347 19.1726C8.96749 19.014 12.5823 18.934 17.1844 18.934V17.434ZM5.59765 18.1318L5.06965 19.3798L6.4511 19.9642L6.9791 18.7162L5.59765 18.1318ZM5.07257 19.373C4.74261 20.1319 4.53038 20.8245 4.53038 21.4H6.03038C6.03038 21.1435 6.13814 20.6841 6.44818 19.971L5.07257 19.373ZM4.53038 21.4C4.53038 22.0586 4.7853 22.637 5.31092 23.0472C5.79883 23.428 6.45349 23.612 7.17555 23.6825L7.3212 22.1895C6.73126 22.132 6.40192 21.996 6.23383 21.8648C6.10345 21.763 6.03038 21.6374 6.03038 21.4H4.53038ZM6.53686 23.1732C6.69509 23.6479 6.78638 24.2814 6.78638 25.096H8.28638C8.28638 24.1826 8.18566 23.3761 7.95989 22.6988L6.53686 23.1732ZM7.57579 24.347C6.34456 24.2822 5.00323 24.25 3.55238 24.25V25.75C4.98152 25.75 6.29619 25.7818 7.49696 25.845L7.57579 24.347ZM3.55238 24.25C2.29197 24.25 1.14006 24.2823 0.0975914 24.3475L0.191159 25.8445C1.19669 25.7817 2.31678 25.75 3.55238 25.75V24.25ZM0.894375 25.096C0.894375 24.3909 0.98245 23.7408 1.15352 23.142L-0.288768 22.73C-0.5017 23.4752 -0.605625 24.2651 -0.605625 25.096H0.894375ZM0.566539 23.6739C1.4027 23.5219 2.1153 23.165 2.63382 22.5601L1.49493 21.5839C1.24546 21.875 0.870055 22.0941 0.298211 22.1981L0.566539 23.6739ZM2.65003 22.5405C3.09934 21.9789 3.64466 20.955 4.28315 19.5504L2.9176 18.9296C2.27609 20.341 1.79741 21.2051 1.47872 21.6035L2.65003 22.5405ZM4.28395 19.5486L12.5399 1.26059L11.1728 0.643404L2.9168 18.9314L4.28395 19.5486ZM12.0109 1.68591C12.5641 1.56944 13.1521 1.51 13.7764 1.51V0.0100002C13.0566 0.0100002 12.3646 0.0785624 11.7019 0.218085L12.0109 1.68591ZM13.1007 1.08547L21.9327 19.4215L23.2841 18.7705L14.4521 0.434532L13.1007 1.08547ZM21.9318 19.4196C22.6367 20.8936 23.2705 21.9805 23.8372 22.585L24.9315 21.559C24.5382 21.1395 23.988 20.2424 23.285 18.7724L21.9318 19.4196ZM23.854 22.6023C24.4721 23.2204 25.2038 23.5989 26.0377 23.6823L26.187 22.1897C25.7409 22.1451 25.3206 21.9476 24.9147 21.5417L23.854 22.6023ZM16.9015 15.8935L14.0215 9.84555L12.6672 10.4904L15.5472 16.5384L16.9015 15.8935ZM14.0177 9.83768C13.1911 8.15256 12.6336 6.84646 12.3302 5.90575L10.9026 6.36625C11.2391 7.40954 11.8337 8.79144 12.671 10.4983L14.0177 9.83768ZM10.9021 5.90742C10.6571 6.6728 10.3502 7.44079 9.98023 8.21145L11.3325 8.86055C11.7306 8.03121 12.0636 7.19919 12.3307 6.36458L10.9021 5.90742ZM9.97458 8.22351C9.62066 8.9957 9.4026 9.4625 9.31356 9.64059L10.6552 10.3114C10.7582 10.1055 10.9881 9.6123 11.3382 8.84849L9.97458 8.22351ZM9.2975 9.67483L6.5615 15.9148L7.93525 16.5172L10.6713 10.2772L9.2975 9.67483ZM7.24838 16.966H16.2244V15.466H7.24838V16.966ZM48.516 11.992L48.4276 11.2472L48.4686 12.7405L48.516 11.992ZM54.516 13.768L54.0877 14.3837L54.0953 14.389L54.1031 14.3941L54.516 13.768ZM54.132 23.176L54.5636 23.7894L54.5658 23.7878L54.132 23.176ZM34.548 25.096H33.798V25.8615L34.5633 25.8458L34.548 25.096ZM34.788 22.936L34.7257 22.1886L34.2442 22.2287L34.0817 22.6837L34.788 22.936ZM37.428 21.496L36.7258 21.2327L36.7184 21.2523L36.7121 21.2723L37.428 21.496ZM37.428 4.456L36.7165 4.69317L36.7235 4.71408L36.7316 4.73454L37.428 4.456ZM36.564 3.448L36.2286 4.11882L36.2391 4.12406L36.2497 4.12897L36.564 3.448ZM34.788 3.064L34.0604 3.2459L34.1911 3.76864L34.7282 3.81161L34.788 3.064ZM34.596 0.903998L34.6286 0.154706L33.846 0.120681V0.903998H34.596ZM38.964 1V1.75007L38.9741 1.74993L38.964 1ZM42.516 0.951998L42.5261 1.70193L42.5389 1.70176L42.5517 1.70115L42.516 0.951998ZM52.98 10.072L52.4654 9.52625L52.4576 9.53381L52.98 10.072ZM42.132 3.256L41.9849 2.52056L41.382 2.64115V3.256H42.132ZM42.132 11.416H41.382V12.166H42.132V11.416ZM48.516 10.36L48.9595 10.9648L48.9595 10.9648L48.516 10.36ZM42.132 13.72V12.97H41.382V13.72H42.132ZM42.852 22.216L42.3217 22.7463L42.3308 22.7555L42.3403 22.7643L42.852 22.216ZM48.4686 12.7405C50.9136 12.8952 52.7653 13.4638 54.0877 14.3837L54.9443 13.1523C53.3227 12.0242 51.1744 11.4088 48.5634 11.2435L48.4686 12.7405ZM54.1031 14.3941C55.3766 15.2341 56.022 16.4591 56.022 18.184H57.522C57.522 16.0049 56.6634 14.2859 54.9289 13.1419L54.1031 14.3941ZM56.022 18.184C56.022 20.0103 55.2686 21.4506 53.6982 22.5642L54.5658 23.7878C56.5154 22.4054 57.522 20.5177 57.522 18.184H56.022ZM53.7004 22.5626C52.1571 23.6487 49.7327 24.25 46.308 24.25V25.75C49.8593 25.75 52.6509 25.1353 54.5636 23.7894L53.7004 22.5626ZM46.308 24.25C41.6011 24.25 37.6756 24.282 34.5327 24.3462L34.5633 25.8458C37.6924 25.782 41.6069 25.75 46.308 25.75V24.25ZM35.298 25.096C35.298 24.1174 35.3803 23.5074 35.4943 23.1883L34.0817 22.6837C33.8757 23.2606 33.798 24.0906 33.798 25.096H35.298ZM34.8503 23.6834C35.6544 23.6164 36.3467 23.4783 36.8783 23.233L36.2497 21.871C35.9493 22.0097 35.4576 22.1276 34.7257 22.1886L34.8503 23.6834ZM36.8783 23.233C37.5201 22.9368 37.9325 22.3961 38.1439 21.7197L36.7121 21.2723C36.6035 21.6199 36.4399 21.7832 36.2497 21.871L36.8783 23.233ZM38.1302 21.7593C38.3705 21.1187 38.466 20.2416 38.466 19.192H36.966C36.966 20.1904 36.8695 20.8493 36.7258 21.2327L38.1302 21.7593ZM38.466 19.192V6.568H36.966V19.192H38.466ZM38.466 6.568C38.466 5.6082 38.3695 4.79042 38.1244 4.17746L36.7316 4.73454C36.8705 5.08158 36.966 5.67179 36.966 6.568H38.466ZM38.1395 4.21883C37.9216 3.56512 37.503 3.05534 36.8783 2.76703L36.2497 4.12897C36.457 4.22466 36.6144 4.38688 36.7165 4.69317L38.1395 4.21883ZM36.8994 2.77718C36.3839 2.51941 35.675 2.38257 34.8478 2.31639L34.7282 3.81161C35.501 3.87343 35.9761 3.99258 36.2286 4.11882L36.8994 2.77718ZM35.5156 2.8821C35.4096 2.45811 35.346 1.80944 35.346 0.903998H33.846C33.846 1.85455 33.9104 2.64589 34.0604 3.2459L35.5156 2.8821ZM34.5634 1.65329C36.046 1.71775 37.5129 1.75 38.964 1.75V0.25C37.5351 0.25 36.09 0.218246 34.6286 0.154706L34.5634 1.65329ZM38.9741 1.74993L42.5261 1.70193L42.5059 0.202066L38.9539 0.250068L38.9741 1.74993ZM42.5517 1.70115C43.2071 1.66994 44.058 1.654 45.108 1.654V0.153998C44.046 0.153998 43.1689 0.170058 42.4803 0.202847L42.5517 1.70115ZM45.108 1.654C48.0258 1.654 50.228 2.07989 51.7756 2.86828L52.4564 1.53172C50.612 0.592105 48.1422 0.153998 45.108 0.153998V1.654ZM51.7756 2.86828C52.5272 3.25117 53.0508 3.71911 53.3897 4.25621C53.7275 4.7915 53.91 5.44024 53.91 6.232H55.41C55.41 5.19976 55.1686 4.26449 54.6583 3.45579C54.1492 2.64889 53.4009 2.01283 52.4564 1.53172L51.7756 2.86828ZM53.91 6.232C53.91 7.52401 53.4392 8.60825 52.4655 9.52631L53.4945 10.6177C54.7608 9.42375 55.41 7.94799 55.41 6.232H53.91ZM52.4576 9.53381C51.515 10.4488 50.1944 11.0376 48.4276 11.2472L48.6044 12.7368C50.6136 12.4984 52.2691 11.8072 53.5024 10.6102L52.4576 9.53381ZM50.706 7.336C50.706 5.72108 50.1398 4.40569 48.934 3.52609C47.7723 2.6786 46.1209 2.314 44.1 2.314V3.814C45.9831 3.814 47.2597 4.1614 48.05 4.73791C48.7962 5.28231 49.206 6.10292 49.206 7.336H50.706ZM44.1 2.314C43.3801 2.314 42.6748 2.3826 41.9849 2.52056L42.2791 3.99144C42.8692 3.8734 43.4759 3.814 44.1 3.814V2.314ZM41.382 3.256V11.416H42.882V3.256H41.382ZM42.132 12.166H43.476V10.666H42.132V12.166ZM43.476 12.166C45.9008 12.166 47.7935 11.8199 48.9595 10.9648L48.0725 9.7552C47.3185 10.3081 45.8512 10.666 43.476 10.666V12.166ZM48.9595 10.9648C50.1339 10.1036 50.706 8.85866 50.706 7.336H49.206C49.206 8.43734 48.8181 9.20839 48.0725 9.7552L48.9595 10.9648ZM45.636 23.638C47.7455 23.638 49.4599 23.2838 50.6656 22.4643C51.9232 21.6095 52.53 20.3163 52.53 18.712H51.03C51.03 19.8917 50.6129 20.6865 49.8224 21.2237C48.9801 21.7962 47.6225 22.138 45.636 22.138V23.638ZM52.53 18.712C52.53 16.7783 51.6614 15.2829 49.9817 14.3177C48.3644 13.3885 46.0352 12.97 43.092 12.97V14.47C45.9408 14.47 47.9556 14.8835 49.2344 15.6183C50.4506 16.3171 51.03 17.3177 51.03 18.712H52.53ZM43.092 12.97H42.132V14.47H43.092V12.97ZM41.382 13.72V19.336H42.882V13.72H41.382ZM41.382 19.336C41.382 20.0922 41.4445 20.7582 41.5844 21.3179C41.7232 21.8731 41.9513 22.3759 42.3217 22.7463L43.3823 21.6857C43.2727 21.5761 43.1408 21.3589 43.0396 20.9541C42.9395 20.5538 42.882 20.0198 42.882 19.336H41.382ZM42.3403 22.7643C42.7081 23.1076 43.1957 23.3196 43.732 23.4491C44.2728 23.5796 44.9123 23.638 45.636 23.638V22.138C44.9837 22.138 44.4712 22.0844 44.084 21.9909C43.6923 21.8964 43.4759 21.7724 43.3637 21.6677L42.3403 22.7643ZM72.0964 23.896L71.7692 24.5709L71.7692 24.5709L72.0964 23.896ZM67.1524 19.576L66.5151 19.9716L66.5201 19.9794L67.1524 19.576ZM67.1524 6.616L66.5169 6.2175L66.5121 6.22535L67.1524 6.616ZM72.0964 2.248L72.4236 2.92287L72.4278 2.92082L72.0964 2.248ZM86.7844 2.2L86.4572 2.87486L86.4572 2.87486L86.7844 2.2ZM91.6804 6.568L91.0402 6.95865L91.0441 6.96504L91.0481 6.97136L91.6804 6.568ZM91.6804 19.528L91.045 19.1295L91.0432 19.1325L91.6804 19.528ZM86.7364 23.896L87.0636 24.5709L87.0678 24.5688L86.7364 23.896ZM86.2084 20.632L85.6478 20.1337L85.6427 20.1396L86.2084 20.632ZM87.2644 8.152L86.5935 8.48742L86.5962 8.49264L87.2644 8.152ZM83.7604 4.264L83.3604 4.89847L83.3665 4.90228L83.7604 4.264ZM72.6244 5.512L73.1901 6.00441L73.1946 5.99924L72.6244 5.512ZM71.6164 18.088L70.9455 18.4234L70.9482 18.4286L71.6164 18.088ZM75.0724 21.88L75.4623 21.2394L75.4623 21.2394L75.0724 21.88ZM79.3924 24.682C76.7343 24.682 74.4174 24.1879 72.4236 23.2211L71.7692 24.5709C73.9993 25.6521 76.5465 26.182 79.3924 26.182V24.682ZM72.4236 23.2211C70.4278 22.2535 68.8891 20.9038 67.7847 19.1726L66.5201 19.9794C67.7837 21.9602 69.5409 23.4905 71.7692 24.5709L72.4236 23.2211ZM67.7896 19.1805C66.7204 17.4579 66.1744 15.4386 66.1744 13.096H64.6744C64.6744 15.6814 65.2803 17.9821 66.5151 19.9715L67.7896 19.1805ZM66.1744 13.096C66.1744 10.7877 66.7194 8.76545 67.7926 7.00665L66.5121 6.22535C65.2813 8.24255 64.6744 10.5403 64.6744 13.096H66.1744ZM67.7878 7.01447C68.8929 5.25216 70.4312 3.88889 72.4236 2.92286L71.7692 1.57314C69.5376 2.65511 67.7798 4.20384 66.517 6.21753L67.7878 7.01447ZM72.4278 2.92082C74.453 1.92333 76.8004 1.414 79.4884 1.414V-0.0860014C76.6084 -0.0860014 74.0278 0.460666 71.765 1.57518L72.4278 2.92082ZM79.4884 1.414C82.1465 1.414 84.4633 1.90814 86.4572 2.87486L87.1116 1.52514C84.8814 0.443853 82.3343 -0.0860014 79.4884 -0.0860014V1.414ZM86.4572 2.87486C88.448 3.84013 89.9677 5.20109 91.0402 6.95865L92.3206 6.17735C91.089 4.1589 89.3447 2.60787 87.1116 1.52514L86.4572 2.87486ZM91.0481 6.97136C92.1473 8.69444 92.7064 10.6954 92.7064 13H94.2064C94.2064 10.4406 93.5815 8.15356 92.3127 6.16464L91.0481 6.97136ZM92.7064 13C92.7064 15.3384 92.1463 17.3733 91.045 19.1295L92.3158 19.9265C93.5824 17.9067 94.2064 15.5896 94.2064 13H92.7064ZM91.0432 19.1325C89.972 20.8581 88.4354 22.2231 86.405 23.2232L87.0678 24.5688C89.3254 23.4569 91.0847 21.9099 92.3176 19.9235L91.0432 19.1325ZM86.4092 23.2211C84.4164 24.1873 82.0839 24.682 79.3924 24.682V26.182C82.2688 26.182 84.8323 25.6527 87.0636 24.5709L86.4092 23.2211ZM80.0644 23.974C82.8415 23.974 85.108 23.0386 86.7741 21.1244L85.6427 20.1396C84.3007 21.6814 82.4712 22.474 80.0644 22.474V23.974ZM86.7689 21.1303C88.4549 19.2336 89.2624 16.7368 89.2624 13.72H87.7624C87.7624 16.4632 87.0339 18.5744 85.6478 20.1337L86.7689 21.1303ZM89.2624 13.72C89.2624 11.5378 88.8252 9.56237 87.9326 7.81136L86.5962 8.49264C87.3675 10.0056 87.7624 11.7422 87.7624 13.72H89.2624ZM87.9352 7.81659C87.0443 6.03472 85.7833 4.6309 84.1542 3.62572L83.3665 4.90228C84.7455 5.7531 85.8205 6.94128 86.5936 8.48741L87.9352 7.81659ZM84.1604 3.62956C82.5605 2.62098 80.7561 2.122 78.7684 2.122V3.622C80.4927 3.622 82.0162 4.05102 83.3604 4.89844L84.1604 3.62956ZM78.7684 2.122C75.9865 2.122 73.7188 3.07687 72.0542 5.02476L73.1946 5.99924C74.538 4.42713 76.3663 3.622 78.7684 3.622V2.122ZM72.0587 5.01961C70.4089 6.91501 69.6184 9.39264 69.6184 12.376H71.1184C71.1184 9.66336 71.8318 7.56499 73.1901 6.00439L72.0587 5.01961ZM69.6184 12.376C69.6184 14.6186 70.0541 16.6405 70.9456 18.4234L72.2872 17.7526C71.5147 16.2075 71.1184 14.4213 71.1184 12.376H69.6184ZM70.9482 18.4286C71.8392 20.1764 73.0841 21.5478 74.6824 22.5206L75.4623 21.2394C74.1167 20.4202 73.0576 19.2636 72.2846 17.7474L70.9482 18.4286ZM74.6824 22.5206C76.281 23.4937 78.0818 23.974 80.0644 23.974V22.474C78.3349 22.474 76.8078 22.0583 75.4623 21.2394L74.6824 22.5206ZM108.449 24.424L108.155 25.1141L108.164 25.1178L108.172 25.1214L108.449 24.424ZM105.185 21.592L104.514 21.9274L104.519 21.9376L104.524 21.9476L105.185 21.592ZM104.033 4.456L104.757 4.26275L104.757 4.26275L104.033 4.456ZM103.313 3.496L102.927 4.13912L102.963 4.1611L103.002 4.17877L103.313 3.496ZM101.729 3.064L101.013 3.28771L101.156 3.74565L101.632 3.8077L101.729 3.064ZM101.489 0.903998L101.52 0.154649L100.739 0.122097V0.903998H101.489ZM111.761 0.903998H112.511V0.125706L111.733 0.154512L111.761 0.903998ZM111.569 3.064L111.648 3.80973L112.19 3.75169L112.302 3.21851L111.569 3.064ZM109.649 3.496L109.937 4.18831L109.961 4.17837L109.984 4.16682L109.649 3.496ZM108.833 4.456L108.121 4.21883L108.116 4.23429L108.111 4.24996L108.833 4.456ZM110.177 21.208L109.616 21.7063L109.624 21.7148L110.177 21.208ZM117.953 22.6L118.155 23.3222L118.168 23.3185L118.181 23.3143L117.953 22.6ZM120.017 21.496L120.497 22.0722L120.507 22.0637L120.517 22.0549L120.017 21.496ZM121.313 19.336L120.596 19.1137L120.594 19.1218L120.591 19.13L121.313 19.336ZM121.505 4.984L120.769 5.13109L120.773 5.15313L120.779 5.17487L121.505 4.984ZM120.689 3.64L120.262 4.25664L120.278 4.26815L120.295 4.27874L120.689 3.64ZM118.817 3.064L118.077 3.1873L118.17 3.74433L118.731 3.80906L118.817 3.064ZM118.625 0.903998L118.662 0.154934L117.875 0.115561V0.903998H118.625ZM126.737 0.903998H127.487V0.120681L126.704 0.154706L126.737 0.903998ZM126.497 3.064L126.569 3.81051L127.096 3.75952L127.224 3.2459L126.497 3.064ZM124.481 4.12L123.831 3.74422L123.824 3.75731L123.817 3.77069L124.481 4.12ZM123.473 20.392L122.751 20.1884L122.747 20.2011L123.473 20.392ZM121.553 23.368L121.084 22.7823L121.077 22.788L121.553 23.368ZM114.689 24.586C112.11 24.586 110.136 24.2855 108.725 23.7266L108.172 25.1214C109.833 25.7785 112.019 26.086 114.689 26.086V24.586ZM108.742 23.7339C107.37 23.1498 106.424 22.3121 105.845 21.2364L104.524 21.9476C105.289 23.3679 106.519 24.4182 108.155 25.1141L108.742 23.7339ZM105.855 21.2566C105.284 20.1144 104.975 18.5922 104.975 16.648H103.475C103.475 18.7358 103.805 20.5096 104.514 21.9274L105.855 21.2566ZM104.975 16.648V6.664H103.475V16.648H104.975ZM104.975 6.664C104.975 5.65798 104.911 4.84118 104.757 4.26275L103.308 4.64925C103.41 5.03082 103.475 5.68602 103.475 6.664H104.975ZM104.757 4.26275C104.589 3.6326 104.235 3.09141 103.623 2.81322L103.002 4.17877C103.094 4.22059 103.22 4.3194 103.308 4.64925L104.757 4.26275ZM103.698 2.85288C103.24 2.5777 102.583 2.41904 101.826 2.3203L101.632 3.8077C102.346 3.90096 102.745 4.0303 102.927 4.13912L103.698 2.85288ZM102.444 2.84029C102.318 2.43481 102.239 1.80289 102.239 0.903998H100.739C100.739 1.86111 100.819 2.66919 101.013 3.28771L102.444 2.84029ZM101.457 1.65335C103.005 1.71785 104.68 1.75 106.481 1.75V0.25C104.697 0.25 103.044 0.218152 101.52 0.154649L101.457 1.65335ZM106.481 1.75C108.281 1.75 110.051 1.71784 111.788 1.65348L111.733 0.154512C110.014 0.218159 108.264 0.25 106.481 0.25V1.75ZM111.011 0.903998C111.011 1.70035 110.949 2.36607 110.835 2.90949L112.302 3.21851C112.444 2.54593 112.511 1.77165 112.511 0.903998H111.011ZM111.489 2.31827C110.58 2.41566 109.825 2.5693 109.313 2.82518L109.984 4.16682C110.24 4.0387 110.765 3.90433 111.648 3.80973L111.489 2.31827ZM109.36 2.80369C108.733 3.06494 108.333 3.58159 108.121 4.21883L109.544 4.69317C109.652 4.37041 109.796 4.24706 109.937 4.18831L109.36 2.80369ZM108.111 4.24996C107.952 4.80631 107.891 5.63311 107.891 6.664H109.391C109.391 5.64689 109.457 5.00169 109.554 4.66204L108.111 4.24996ZM107.891 6.664V16.072H109.391V6.664H107.891ZM107.891 16.072C107.891 18.4425 108.423 20.3644 109.616 21.7063L110.737 20.7097C109.882 19.7476 109.391 18.2455 109.391 16.072H107.891ZM109.624 21.7148C110.89 23.0967 112.96 23.686 115.601 23.686V22.186C113.121 22.186 111.575 21.6233 110.729 20.7012L109.624 21.7148ZM115.601 23.686C116.442 23.686 117.294 23.5632 118.155 23.3222L117.75 21.8778C117.011 22.0848 116.295 22.186 115.601 22.186V23.686ZM118.181 23.3143C119.062 23.0324 119.838 22.621 120.497 22.0722L119.536 20.9198C119.043 21.331 118.443 21.6556 117.724 21.8857L118.181 23.3143ZM120.517 22.0549C121.245 21.4037 121.744 20.5543 122.034 19.542L120.591 19.13C120.369 19.9097 120.005 20.5003 119.516 20.9371L120.517 22.0549ZM122.029 19.5583C122.351 18.5213 122.495 17.0712 122.495 15.256H120.995C120.995 17.0248 120.85 18.2947 120.596 19.1137L122.029 19.5583ZM122.495 15.256V7.72H120.995V15.256H122.495ZM122.495 7.72C122.495 6.48768 122.415 5.49717 122.23 4.79313L120.779 5.17487C120.914 5.68682 120.995 6.52032 120.995 7.72H122.495ZM122.24 4.83691C122.085 4.06432 121.729 3.39966 121.082 3.00126L120.295 4.27874C120.48 4.39233 120.668 4.62368 120.769 5.13109L122.24 4.83691ZM121.115 3.02336C120.552 2.63345 119.786 2.42089 118.902 2.31894L118.731 3.80906C119.511 3.89911 119.993 4.07055 120.262 4.25664L121.115 3.02336ZM119.556 2.9407C119.434 2.20721 119.375 1.52881 119.375 0.903998H117.875C117.875 1.62319 117.943 2.38479 118.077 3.1873L119.556 2.9407ZM118.587 1.65306C119.881 1.71774 121.237 1.75 122.657 1.75V0.25C121.26 0.25 119.928 0.218254 118.662 0.154934L118.587 1.65306ZM122.657 1.75C123.917 1.75 125.288 1.71768 126.769 1.65329L126.704 0.154706C125.241 0.218317 123.892 0.25 122.657 0.25V1.75ZM125.987 0.903998C125.987 1.65517 125.911 2.3126 125.769 2.8821L127.224 3.2459C127.402 2.5354 127.487 1.75283 127.487 0.903998H125.987ZM126.424 2.31749C125.299 2.42637 124.35 2.84807 123.831 3.74422L125.13 4.49578C125.315 4.17593 125.71 3.89363 126.569 3.81051L126.424 2.31749ZM123.817 3.77069C123.599 4.18536 123.463 4.71922 123.378 5.3234C123.291 5.93766 123.251 6.6751 123.251 7.528H124.751C124.751 6.71689 124.79 6.05434 124.863 5.5326C124.938 5.00078 125.042 4.66264 125.144 4.46931L123.817 3.77069ZM123.251 7.528V15.304H124.751V7.528H123.251ZM123.251 15.304C123.251 17.4178 123.076 19.0357 122.751 20.1884L124.194 20.5956C124.573 19.2523 124.751 17.4782 124.751 15.304H123.251ZM122.747 20.2011C122.467 21.2652 121.915 22.1174 121.084 22.7823L122.021 23.9537C123.11 23.0826 123.838 21.9508 124.198 20.5829L122.747 20.2011ZM121.077 22.788C119.659 23.9508 117.565 24.586 114.689 24.586V26.086C117.764 26.086 120.246 25.4092 122.028 23.948L121.077 22.788ZM157.044 0.903998L157.793 0.945601L157.839 0.122261L157.015 0.154574L157.044 0.903998ZM157.38 7.144L157.676 7.83336L158.198 7.60952L158.124 7.04616L157.38 7.144ZM155.028 7.576L154.279 7.60722L154.309 8.326H155.028V7.576ZM153.78 4.168L153.25 4.69833L153.256 4.70397L153.261 4.70949L153.78 4.168ZM148.164 3.064V2.314H147.414V3.064H148.164ZM148.404 21.736L147.693 21.9732L147.703 22.0028L147.715 22.0314L148.404 21.736ZM149.364 22.696L149.069 23.3854L149.077 23.389L149.086 23.3924L149.364 22.696ZM151.524 23.08L152.217 22.7915L152.038 22.3626L151.574 22.3317L151.524 23.08ZM151.764 25.096L151.744 25.8457L152.514 25.8665V25.096H151.764ZM140.004 25.096H139.254V25.8691L140.027 25.8457L140.004 25.096ZM140.244 23.08L140.194 22.3317L139.731 22.3626L139.552 22.7915L140.244 23.08ZM142.404 22.696L142.141 21.9938L142.133 21.9966L142.126 21.9996L142.404 22.696ZM143.46 21.688L144.157 21.9665L144.157 21.9665L143.46 21.688ZM143.748 3.064H144.498V2.314H143.748V3.064ZM138.804 3.592L139.127 4.26915L139.133 4.26604L139.14 4.26282L138.804 3.592ZM136.5 7.576V8.326H137.115L137.236 7.72309L136.5 7.576ZM134.244 7.144L133.512 6.98244L133.396 7.50945L133.859 7.78712L134.244 7.144ZM134.964 0.903998L134.993 0.154553L134.214 0.124597V0.903998H134.964ZM156.296 0.862396C156.196 2.65172 156.313 4.78107 156.637 7.24184L158.124 7.04616C157.808 4.64293 157.701 2.61228 157.793 0.945601L156.296 0.862396ZM157.085 6.45464C156.525 6.69469 155.845 6.826 155.028 6.826V8.326C156.004 8.326 156.892 8.16931 157.676 7.83336L157.085 6.45464ZM155.778 7.54478C155.709 5.90116 155.259 4.54601 154.299 3.62651L153.261 4.70949C153.838 5.26199 154.22 6.17884 154.279 7.60722L155.778 7.54478ZM154.311 3.63767C153.374 2.70122 151.971 2.314 150.276 2.314V3.814C151.782 3.814 152.715 4.16278 153.25 4.69833L154.311 3.63767ZM150.276 2.314H148.164V3.814H150.276V2.314ZM147.414 3.064V19.528H148.914V3.064H147.414ZM147.414 19.528C147.414 20.5387 147.493 21.3744 147.693 21.9732L149.116 21.4988C148.995 21.1376 148.914 20.5013 148.914 19.528H147.414ZM147.715 22.0314C147.983 22.6565 148.444 23.1175 149.069 23.3854L149.66 22.0066C149.389 21.8905 149.21 21.7115 149.094 21.4406L147.715 22.0314ZM149.086 23.3924C149.677 23.6288 150.491 23.7628 151.474 23.8283L151.574 22.3317C150.637 22.2692 150.012 22.1472 149.643 21.9996L149.086 23.3924ZM150.832 23.3685C150.929 23.6015 151.014 24.1388 151.014 25.096H152.514C152.514 24.1332 152.44 23.3265 152.217 22.7915L150.832 23.3685ZM151.785 24.3463C149.413 24.2822 147.47 24.25 145.956 24.25V25.75C147.451 25.75 149.38 25.7818 151.744 25.8457L151.785 24.3463ZM145.956 24.25C144.092 24.25 142.1 24.2821 139.982 24.3463L140.027 25.8457C142.133 25.7819 144.109 25.75 145.956 25.75V24.25ZM140.754 25.096C140.754 24.1388 140.84 23.6015 140.937 23.3685L139.552 22.7915C139.329 23.3265 139.254 24.1332 139.254 25.096H140.754ZM140.294 23.8283C141.277 23.7628 142.092 23.6288 142.683 23.3924L142.126 21.9996C141.757 22.1472 141.131 22.2692 140.194 22.3317L140.294 23.8283ZM142.668 23.3982C143.364 23.137 143.881 22.6548 144.157 21.9665L142.764 21.4095C142.655 21.6812 142.468 21.871 142.141 21.9938L142.668 23.3982ZM144.157 21.9665C144.403 21.3516 144.498 20.5159 144.498 19.528H142.998C142.998 20.4601 142.902 21.0644 142.764 21.4095L144.157 21.9665ZM144.498 19.528V3.064H142.998V19.528H144.498ZM143.748 2.314H141.78V3.814H143.748V2.314ZM141.78 2.314C140.449 2.314 139.323 2.49436 138.469 2.92118L139.14 4.26282C139.694 3.98564 140.552 3.814 141.78 3.814V2.314ZM138.482 2.91485C137.677 3.2983 137.054 3.8713 136.653 4.63469L137.98 5.33331C138.218 4.88069 138.588 4.5257 139.127 4.26915L138.482 2.91485ZM136.653 4.63469C136.284 5.33444 135.995 6.27845 135.765 7.42891L137.236 7.72309C137.454 6.63355 137.708 5.84955 137.98 5.33331L136.653 4.63469ZM136.5 6.826C135.516 6.826 134.932 6.68206 134.63 6.50088L133.859 7.78712C134.517 8.18194 135.437 8.326 136.5 8.326V6.826ZM134.977 7.30556C135.467 5.08289 135.714 2.9485 135.714 0.903998H134.214C134.214 2.82749 133.982 4.85311 133.512 6.98244L134.977 7.30556ZM134.936 1.65344C136.617 1.71811 140.296 1.75 145.956 1.75V0.25C140.289 0.25 136.64 0.217891 134.993 0.154553L134.936 1.65344ZM145.956 1.75C151.712 1.75 155.424 1.71812 157.074 1.65342L157.015 0.154574C155.401 0.217882 151.721 0.25 145.956 0.25V1.75Z" fill="#F2F2F2"/>
</svg>
