<svg width="574" height="213" viewBox="0 0 574 213" fill="none" xmlns="http://www.w3.org/2000/svg">
<path d="M58.6 90.7L60.4974 90.0675L60.0878 88.8388L58.799 88.7099L58.6 90.7ZM59.1 95.2L59.0001 97.1975L61.1 97.3025V95.2H59.1ZM38.2 95.2H36.2V97.3025L38.2999 97.1975L38.2 95.2ZM38.8 90.7L38.5413 88.7168L37.4108 88.8643L36.9617 89.9122L38.8 90.7ZM42 89.9L42.9713 91.6483L43.0004 91.6321L43.029 91.615L42 89.9ZM42 85.1L43.8207 84.2724L43.8171 84.2644L43.8134 84.2565L42 85.1ZM40 80.8L41.8134 79.9565L41.2755 78.8H40V80.8ZM17.3 81.3L17.1797 79.3036L15.9414 79.3782L15.4581 80.5207L17.3 81.3ZM16.2 83.9L18.0341 84.6975L18.0381 84.6884L18.0419 84.6793L16.2 83.9ZM19.3 90.7L21.1974 90.0675L20.7867 88.8355L19.4942 88.7095L19.3 90.7ZM19.9 95.2L19.7949 97.1972L21.9 97.308V95.2H19.9ZM4.5 95.2H2.5V97.3289L4.62476 97.1961L4.5 95.2ZM5.1 90.7L4.74223 88.7323L3.51862 88.9547L3.17695 90.1506L5.1 90.7ZM8.5 88.9L10.0185 90.2016L10.0406 90.1759L10.0617 90.1494L8.5 88.9ZM11.7 83L13.5207 83.8276L13.5229 83.8229L11.7 83ZM28.9 44.9L28.488 42.9429L27.4948 43.152L27.0771 44.0771L28.9 44.9ZM32.9 44.5L34.7019 43.6321L34.1566 42.5H32.9V44.5ZM51.3 82.7L53.1043 81.8371L53.1019 81.8321L51.3 82.7ZM55 88.9L53.5409 90.2679L53.563 90.2914L53.5858 90.3142L55 88.9ZM38 76.7V78.7H41.1676L39.8057 75.8401L38 76.7ZM32 64.1L33.8057 63.2401L33.8007 63.2296L33.7956 63.2191L32 64.1ZM28.4 55.7L30.3034 55.086L28.3924 49.1617L26.4952 55.0904L28.4 55.7ZM26.4 60.7L24.597 59.8345L24.5893 59.8505L24.5819 59.8667L26.4 60.7ZM25 63.7L23.2111 62.8056L23.1886 62.8507L23.1683 62.8969L25 63.7ZM19.3 76.7L17.4683 75.8969L16.2393 78.7H19.3V76.7ZM56.7026 91.3325C56.9317 92.0198 57.1 93.2584 57.1 95.2H61.1C61.1 93.1416 60.9349 91.3802 60.4974 90.0675L56.7026 91.3325ZM59.1999 93.2025C56.4868 93.0668 53.0168 93 48.8 93V97C52.9832 97 56.3799 97.0665 59.0001 97.1975L59.1999 93.2025ZM48.8 93C44.385 93 40.8144 93.0668 38.1001 93.2025L38.2999 97.1975C40.919 97.0665 44.415 97 48.8 97V93ZM40.2 95.2C40.2 93.1817 40.4071 92.0272 40.6383 91.4878L36.9617 89.9122C36.3929 91.2394 36.2 93.085 36.2 95.2H40.2ZM39.0587 92.6832C40.6068 92.4813 42.0101 92.1823 42.9713 91.6483L41.0287 88.1517C40.7899 88.2844 40.0599 88.5187 38.5413 88.7168L39.0587 92.6832ZM43.029 91.615C44.254 90.88 45 89.6858 45 88.2H41C41 88.2312 40.9966 88.2361 41.0002 88.222C41.0019 88.2153 41.0048 88.2058 41.0095 88.1945C41.0142 88.1831 41.0198 88.1717 41.0261 88.161C41.0324 88.1503 41.0383 88.142 41.0428 88.1364C41.0472 88.1308 41.0493 88.129 41.0475 88.1308C41.0438 88.1343 41.0223 88.1543 40.971 88.185L43.029 91.615ZM45 88.2C45 87.5869 44.8412 86.943 44.6534 86.361C44.455 85.746 44.1721 85.0455 43.8207 84.2724L40.1793 85.9276C40.4945 86.6212 40.7116 87.1707 40.8466 87.589C40.9922 88.0404 41 88.2131 41 88.2H45ZM43.8134 84.2565L41.8134 79.9565L38.1866 81.6435L40.1866 85.9435L43.8134 84.2565ZM40 78.8C30.3843 78.8 22.7717 78.9668 17.1797 79.3036L17.4203 83.2964C22.895 82.9666 30.4157 82.8 40 82.8V78.8ZM15.4581 80.5207L14.3581 83.1207L18.0419 84.6793L19.1419 82.0793L15.4581 80.5207ZM14.3659 83.1025C13.6726 84.697 13.2 86.208 13.2 87.5H17.2C17.2 87.0586 17.394 86.1697 18.0341 84.6975L14.3659 83.1025ZM13.2 87.5C13.2 88.9948 13.7841 90.332 14.9945 91.2766C16.1042 92.1428 17.563 92.54 19.1058 92.6905L19.4942 88.7095C18.3037 88.5933 17.7124 88.3239 17.4555 88.1234C17.2992 88.0013 17.2 87.8718 17.2 87.5H13.2ZM17.4026 91.3325C17.7126 92.2623 17.9 93.5318 17.9 95.2H21.9C21.9 93.2682 21.6874 91.5377 21.1974 90.0675L17.4026 91.3325ZM20.0051 93.2028C17.4312 93.0673 14.6289 93 11.6 93V97C14.5711 97 17.3022 97.066 19.7949 97.1972L20.0051 93.2028ZM11.6 93C8.96691 93 6.55783 93.0675 4.37524 93.2039L4.62476 97.1961C6.70884 97.0659 9.03309 97 11.6 97V93ZM6.5 95.2C6.5 93.7676 6.67887 92.4541 7.02305 91.2494L3.17695 90.1506C2.72113 91.7459 2.5 93.4324 2.5 95.2H6.5ZM5.45777 92.6677C7.27685 92.337 8.85979 91.5534 10.0185 90.2016L6.98149 87.5984C6.54021 88.1132 5.85648 88.5297 4.74223 88.7323L5.45777 92.6677ZM10.0617 90.1494C11.0359 88.9317 12.1914 86.7521 13.5207 83.8276L9.87927 82.1724C8.5419 85.1146 7.56409 86.8683 6.93826 87.6506L10.0617 90.1494ZM13.5229 83.8229L30.7229 45.7229L27.0771 44.0771L9.87714 82.1771L13.5229 83.8229ZM29.312 46.8571C30.4327 46.6212 31.6273 46.5 32.9 46.5V42.5C31.3727 42.5 29.9006 42.6455 28.488 42.9429L29.312 46.8571ZM31.0981 45.3679L49.4981 83.5679L53.1019 81.8321L34.7019 43.6321L31.0981 45.3679ZM49.4957 83.5629C50.965 86.635 52.3097 88.9545 53.5409 90.2679L56.4591 87.5321C55.6903 86.7121 54.5684 84.8984 53.1043 81.8371L49.4957 83.5629ZM53.5858 90.3142C54.9354 91.6638 56.5505 92.505 58.401 92.6901L58.799 88.7099C57.9828 88.6283 57.1979 88.2695 56.4142 87.4858L53.5858 90.3142ZM39.8057 75.8401L33.8057 63.2401L30.1943 64.9599L36.1943 77.5599L39.8057 75.8401ZM33.7956 63.2191C32.0765 59.7148 30.926 57.0159 30.3034 55.086L26.4966 56.314C27.2074 58.5174 28.4569 61.4185 30.2044 64.9808L33.7956 63.2191ZM26.4952 55.0904C25.9914 56.6648 25.3594 58.2461 24.597 59.8345L28.203 61.5655C29.0406 59.8206 29.742 58.0685 30.3048 56.3096L26.4952 55.0904ZM24.5819 59.8667C23.8434 61.4779 23.3926 62.4427 23.2111 62.8056L26.7889 64.5944C27.0074 64.1573 27.4899 63.1221 28.2181 61.5333L24.5819 59.8667ZM23.1683 62.8969L17.4683 75.8969L21.1317 77.5031L26.8317 64.5031L23.1683 62.8969ZM19.3 78.7H38V74.7H19.3V78.7ZM100.274 67.9L100.039 65.9139L100.148 69.896L100.274 67.9ZM112.774 71.6L111.632 73.2418L111.652 73.2559L111.673 73.2695L112.774 71.6ZM111.974 91.2L113.125 92.8356L113.131 92.8315L111.974 91.2ZM71.1742 95.2H69.1742V97.2412L71.215 97.1996L71.1742 95.2ZM71.6742 90.7L71.5081 88.7069L70.2241 88.8139L69.7907 90.0273L71.6742 90.7ZM75.3742 89.9L74.5361 88.0841L75.3742 89.9ZM77.1742 87.7L75.3016 86.9978L75.2819 87.0501L75.2653 87.1034L77.1742 87.7ZM77.1742 52.2L75.2769 52.8325L75.2954 52.8882L75.3173 52.9428L77.1742 52.2ZM75.3742 50.1L74.4798 51.8889L74.5077 51.9028L74.5361 51.9159L75.3742 50.1ZM71.6742 49.3L69.7339 49.7851L70.0824 51.179L71.5147 51.2936L71.6742 49.3ZM71.2742 44.8L71.3611 42.8019L69.2742 42.7111V44.8H71.2742ZM80.3742 45V47H80.3877L80.4012 46.9998L80.3742 45ZM87.7742 44.9L87.8012 46.8998L87.8353 46.8994L87.8693 46.8977L87.7742 44.9ZM109.574 63.9L108.202 62.4448L108.192 62.4548L108.181 62.4648L109.574 63.9ZM86.9742 49.7L86.582 47.7388L84.9742 48.0604V49.7H86.9742ZM86.9742 66.7H84.9742V68.7H86.9742V66.7ZM100.274 64.5L101.457 66.1128L101.457 66.1128L100.274 64.5ZM86.9742 71.5V69.5H84.9742V71.5H86.9742ZM88.4742 89.2L87.06 90.6142L87.0844 90.6386L87.1096 90.6621L88.4742 89.2ZM100.148 69.896C105.193 70.2153 108.964 71.3861 111.632 73.2418L113.916 69.9582C110.451 67.5473 105.889 66.2513 100.401 65.904L100.148 69.896ZM111.673 73.2695C114.192 74.9309 115.474 77.339 115.474 80.8H119.474C119.474 76.1277 117.623 72.4024 113.875 69.9305L111.673 73.2695ZM115.474 80.8C115.474 84.4569 113.979 87.327 110.817 89.5685L113.131 92.8315C117.303 89.873 119.474 85.8098 119.474 80.8H115.474ZM110.823 89.5644C107.716 91.7511 102.772 93 95.6742 93V97C103.11 97 109.033 95.7155 113.125 92.8356L110.823 89.5644ZM95.6742 93C85.8666 93 77.6852 93.0667 71.1334 93.2004L71.215 97.1996C77.7299 97.0666 85.8818 97 95.6742 97V93ZM73.1742 95.2C73.1742 93.1691 73.3471 91.9623 73.5577 91.3727L69.7907 90.0273C69.3347 91.3043 69.1742 93.0976 69.1742 95.2H73.1742ZM71.8403 92.6931C73.5366 92.5517 75.0375 92.2581 76.2123 91.7159L74.5361 88.0841C73.9776 88.3419 73.0118 88.5816 71.5081 88.7069L71.8403 92.6931ZM76.2123 91.7159C77.681 91.0381 78.6128 89.8017 79.0832 88.2965L75.2653 87.1034C75.069 87.7316 74.8007 87.9619 74.5361 88.0841L76.2123 91.7159ZM79.0469 88.4022C79.5755 86.9926 79.7742 85.1015 79.7742 82.9H75.7742C75.7742 84.9652 75.573 86.274 75.3016 86.9978L79.0469 88.4022ZM79.7742 82.9V56.6H75.7742V82.9H79.7742ZM79.7742 56.6C79.7742 54.5819 79.573 52.8118 79.0312 51.4572L75.3173 52.9428C75.5754 53.5882 75.7742 54.7515 75.7742 56.6H79.7742ZM79.0716 51.5675C78.5838 50.1043 77.6355 48.9409 76.2123 48.2841L74.5361 51.9159C74.8463 52.0591 75.0979 52.2957 75.2769 52.8325L79.0716 51.5675ZM76.2686 48.3111C75.1179 47.7358 73.573 47.4455 71.8337 47.3064L71.5147 51.2936C73.1088 51.4212 74.0305 51.6642 74.4798 51.8889L76.2686 48.3111ZM73.6145 48.8149C73.4065 47.983 73.2742 46.6732 73.2742 44.8H69.2742C69.2742 46.7935 69.4086 48.4837 69.7339 49.7851L73.6145 48.8149ZM71.1873 46.7981C74.2823 46.9327 77.3446 47 80.3742 47V43C77.4038 43 74.3995 42.934 71.3611 42.8019L71.1873 46.7981ZM80.4012 46.9998L87.8012 46.8998L87.7472 42.9002L80.3472 43.0002L80.4012 46.9998ZM87.8693 46.8977C89.2252 46.8332 90.9903 46.8 93.1742 46.8V42.8C90.9581 42.8 89.1233 42.8335 87.6791 42.9023L87.8693 46.8977ZM93.1742 46.8C99.219 46.8 103.729 47.6837 106.866 49.2821L108.682 45.7179C104.753 43.7163 99.5294 42.8 93.1742 42.8V46.8ZM106.866 49.2821C108.376 50.0511 109.401 50.9769 110.058 52.0172C110.711 53.0527 111.074 54.3206 111.074 55.9H115.074C115.074 53.6794 114.554 51.6473 113.441 49.8828C112.33 48.123 110.706 46.7489 108.682 45.7179L106.866 49.2821ZM111.074 55.9C111.074 58.468 110.145 60.6127 108.202 62.4448L110.946 65.3552C113.67 62.7873 115.074 59.5986 115.074 55.9H111.074ZM108.181 62.4648C106.302 64.2887 103.649 65.4856 100.039 65.9139L100.51 69.8861C104.766 69.381 108.313 67.9113 110.967 65.3352L108.181 62.4648ZM105.274 58.2C105.274 54.7242 104.049 51.8395 101.403 49.9092C98.8743 48.0646 95.3247 47.3 91.0742 47.3V51.3C94.957 51.3 97.5075 52.0187 99.0455 53.1408C100.466 54.1772 101.274 55.7425 101.274 58.2H105.274ZM91.0742 47.3C89.5464 47.3 88.0482 47.4456 86.582 47.7388L87.3665 51.6612C88.5669 51.4211 89.802 51.3 91.0742 51.3V47.3ZM84.9742 49.7V66.7H88.9742V49.7H84.9742ZM86.9742 68.7H89.7742V64.7H86.9742V68.7ZM89.7742 68.7C94.8404 68.7 98.9075 67.9824 101.457 66.1128L99.0915 62.8872C97.6409 63.951 94.7081 64.7 89.7742 64.7V68.7ZM101.457 66.1128C104.029 64.227 105.274 61.4951 105.274 58.2H101.274C101.274 60.3716 100.52 61.8397 99.0915 62.8872L101.457 66.1128ZM94.2742 92.6C98.7049 92.6 102.381 91.8585 104.998 90.0791C107.755 88.2058 109.074 85.3662 109.074 81.9H105.074C105.074 84.2338 104.26 85.7442 102.75 86.7709C101.101 87.8915 98.3768 88.6 94.2742 88.6V92.6ZM109.074 81.9C109.074 77.7141 107.18 74.4543 103.546 72.3659C100.078 70.3732 95.1335 69.5 88.9742 69.5V73.5C94.8816 73.5 98.9874 74.3601 101.553 75.8341C103.951 77.2123 105.074 79.1526 105.074 81.9H109.074ZM88.9742 69.5H86.9742V73.5H88.9742V69.5ZM84.9742 71.5V83.2H88.9742V71.5H84.9742ZM84.9742 83.2C84.9742 84.7965 85.1058 86.2225 85.4089 87.4351C85.7091 88.6356 86.2123 89.7665 87.06 90.6142L89.8884 87.7858C89.7362 87.6335 89.4894 87.2644 89.2895 86.4649C89.0927 85.6775 88.9742 84.6035 88.9742 83.2H84.9742ZM87.1096 90.6621C87.9504 91.4468 89.0455 91.9143 90.2049 92.1942C91.3763 92.4769 92.7458 92.6 94.2742 92.6V88.6C92.936 88.6 91.9054 88.4897 91.1435 88.3058C90.3696 88.119 89.9981 87.8865 89.8389 87.7379L87.1096 90.6621ZM144.4 92.7L143.527 94.4996L143.527 94.4996L144.4 92.7ZM134.1 83.7L132.401 84.7547L132.407 84.7652L132.414 84.7756L134.1 83.7ZM134.1 56.7L132.406 55.6374L132.399 55.6478L132.393 55.6583L134.1 56.7ZM144.4 47.6L145.273 49.3997L145.284 49.3942L144.4 47.6ZM175 47.5L174.127 49.2996L174.127 49.2996L175 47.5ZM185.2 56.6L183.493 57.6417L183.503 57.6588L183.514 57.6756L185.2 56.6ZM185.2 83.6L183.506 82.5374L183.501 82.5453L185.2 83.6ZM174.9 92.7L175.773 94.4997L175.784 94.4942L174.9 92.7ZM173.8 85.9L172.305 84.5713L172.298 84.5791L172.291 84.587L173.8 85.9ZM176 59.9L174.211 60.7944L174.215 60.8014L174.218 60.8084L176 59.9ZM168.7 51.8L167.633 53.4918L167.642 53.497L167.65 53.5021L168.7 51.8ZM145.5 54.4L147.009 55.713L147.015 55.7062L147.02 55.6993L145.5 54.4ZM143.4 80.6L141.611 81.4944L141.615 81.5014L141.618 81.5084L143.4 80.6ZM150.6 88.5L151.64 86.7916L151.64 86.7916L150.6 88.5ZM159.6 93.9C154.117 93.9 149.357 92.8809 145.273 90.9004L143.527 94.4996C148.243 96.7857 153.616 97.9 159.6 97.9V93.9ZM145.273 90.9004C141.183 88.9173 138.041 86.1583 135.786 82.6244L132.414 84.7756C135.093 88.9751 138.817 92.216 143.527 94.4996L145.273 90.9004ZM135.799 82.6453C133.62 79.1345 132.5 75.0096 132.5 70.2H128.5C128.5 75.6571 129.78 80.5322 132.401 84.7547L135.799 82.6453ZM132.5 70.2C132.5 65.4631 133.617 61.3305 135.807 57.7417L132.393 55.6583C129.783 59.9361 128.5 64.8036 128.5 70.2H132.5ZM135.794 57.7626C138.051 54.1644 141.191 51.3784 145.273 49.3996L143.527 45.8004C138.809 48.0883 135.082 51.3689 132.406 55.6374L135.794 57.7626ZM145.284 49.3942C149.434 47.3502 154.256 46.3 159.8 46.3V42.3C153.744 42.3 148.3 43.4498 143.516 45.8058L145.284 49.3942ZM159.8 46.3C165.283 46.3 170.043 47.3191 174.127 49.2996L175.873 45.7004C171.157 43.4143 165.784 42.3 159.8 42.3V46.3ZM174.127 49.2996C178.204 51.2763 181.305 54.0563 183.493 57.6417L186.907 55.5583C184.295 51.2771 180.596 47.9903 175.873 45.7004L174.127 49.2996ZM183.514 57.6756C185.754 61.1878 186.9 65.2731 186.9 70H190.9C190.9 64.5935 189.579 59.7455 186.886 55.5244L183.514 57.6756ZM186.9 70C186.9 74.7985 185.752 78.9556 183.506 82.5374L186.894 84.6626C189.581 80.3777 190.9 75.4682 190.9 70H186.9ZM183.501 82.5453C181.316 86.0644 178.18 88.855 174.016 90.9058L175.784 94.4942C180.553 92.145 184.284 88.8689 186.899 84.6547L183.501 82.5453ZM174.027 90.9004C169.946 92.8795 165.154 93.9 159.6 93.9V97.9C165.646 97.9 171.055 96.7872 175.773 94.4996L174.027 90.9004ZM161 93.3C166.894 93.3 171.743 91.3096 175.309 87.213L172.291 84.587C169.59 87.6904 165.906 89.3 161 89.3V93.3ZM175.295 87.2287C178.895 83.1789 180.6 77.8648 180.6 71.5H176.6C176.6 77.1352 175.105 81.4211 172.305 84.5713L175.295 87.2287ZM180.6 71.5C180.6 66.894 179.677 62.709 177.782 58.9916L174.218 60.8084C175.79 63.891 176.6 67.4393 176.6 71.5H180.6ZM177.789 59.0056C175.898 55.2246 173.217 52.2371 169.75 50.0979L167.65 53.5021C170.45 55.2296 172.635 57.6421 174.211 60.7944L177.789 59.0056ZM169.767 50.1081C166.359 47.9599 162.518 46.9 158.3 46.9V50.9C161.815 50.9 164.908 51.7734 167.633 53.4918L169.767 50.1081ZM158.3 46.9C152.394 46.9 147.541 48.933 143.98 53.1007L147.02 55.6993C149.726 52.5337 153.406 50.9 158.3 50.9V46.9ZM143.991 53.0869C140.47 57.1334 138.8 62.4057 138.8 68.7H142.8C142.8 63.1276 144.264 58.8666 147.009 55.713L143.991 53.0869ZM138.8 68.7C138.8 73.4297 139.719 77.7105 141.611 81.4944L145.189 79.7056C143.614 76.5561 142.8 72.9036 142.8 68.7H138.8ZM141.618 81.5084C143.509 85.2169 146.157 88.1367 149.56 90.2084L151.64 86.7916C148.91 85.13 146.758 82.7831 145.182 79.6916L141.618 81.5084ZM149.56 90.2084C152.964 92.2805 156.796 93.3 161 93.3V89.3C157.471 89.3 154.369 88.4528 151.64 86.7916L149.56 90.2084ZM215.134 93.8L214.35 95.6403L214.374 95.6503L214.397 95.6596L215.134 93.8ZM208.334 87.9L206.545 88.7944L206.558 88.8215L206.573 88.8482L208.334 87.9ZM205.934 52.2L207.866 51.6847L207.866 51.6847L205.934 52.2ZM204.434 50.2L203.405 51.915L203.502 51.9736L203.606 52.0207L204.434 50.2ZM201.134 49.3L199.225 49.8965L199.606 51.1177L200.875 51.2832L201.134 49.3ZM200.634 44.8L200.717 42.8017L198.634 42.7149V44.8H200.634ZM222.034 44.8H224.034V42.7245L221.96 42.8014L222.034 44.8ZM221.634 49.3L221.847 51.2886L223.291 51.1338L223.591 49.712L221.634 49.3ZM217.634 50.2L218.403 52.0462L218.466 52.0197L218.528 51.9889L217.634 50.2ZM215.934 52.2L214.036 51.5675L214.022 51.6088L214.011 51.6506L215.934 52.2ZM218.734 87.1L217.239 88.4287L217.249 88.4402L217.259 88.4514L218.734 87.1ZM234.934 90L235.473 91.9259L235.508 91.916L235.543 91.9048L234.934 90ZM239.234 87.7L240.514 89.2364L240.541 89.2139L240.567 89.1905L239.234 87.7ZM241.934 83.2L240.023 82.6072L240.017 82.6288L240.011 82.6506L241.934 83.2ZM242.334 53.3L240.372 53.6922L240.384 53.751L240.399 53.809L242.334 53.3ZM240.634 50.5L239.495 52.1444L239.539 52.1751L239.585 52.2033L240.634 50.5ZM236.734 49.3L234.761 49.6288L235.008 51.1142L236.504 51.2868L236.734 49.3ZM236.334 44.8L236.433 42.8025L234.334 42.6975V44.8H236.334ZM253.234 44.8H255.234V42.7111L253.147 42.8019L253.234 44.8ZM252.734 49.3L252.926 51.2907L254.331 51.1547L254.674 49.7851L252.734 49.3ZM248.534 51.5L246.803 50.4979L246.783 50.5328L246.764 50.5685L248.534 51.5ZM246.434 85.4L244.509 84.8571L244.504 84.874L244.499 84.891L246.434 85.4ZM242.434 91.6L241.184 90.0383L241.175 90.0458L241.165 90.0535L242.434 91.6ZM228.134 93.7C222.788 93.7 218.738 93.0759 215.87 91.9404L214.397 95.6596C217.929 97.0574 222.546 97.7 228.134 97.7V93.7ZM215.917 91.9597C213.134 90.7756 211.247 89.0922 210.095 86.9518L206.573 88.8482C208.22 91.9078 210.867 94.1578 214.35 95.6403L215.917 91.9597ZM210.122 87.0056C208.973 84.7064 208.334 81.6085 208.334 77.6H204.334C204.334 81.9915 205.028 85.7603 206.545 88.7944L210.122 87.0056ZM208.334 77.6V56.8H204.334V77.6H208.334ZM208.334 56.8C208.334 54.6959 208.203 52.9471 207.866 51.6847L204.001 52.7153C204.198 53.4529 204.334 54.7707 204.334 56.8H208.334ZM207.866 51.6847C207.493 50.2843 206.688 49.0278 205.261 48.3793L203.606 52.0207C203.646 52.0389 203.841 52.1157 204.001 52.7153L207.866 51.6847ZM205.463 48.485C204.426 47.8632 202.982 47.5241 201.392 47.3168L200.875 51.2832C202.352 51.4759 203.108 51.7368 203.405 51.915L205.463 48.485ZM203.043 48.7034C202.798 47.9208 202.634 46.6557 202.634 44.8H198.634C198.634 46.811 198.803 48.5458 199.225 49.8965L203.043 48.7034ZM200.55 46.7983C203.782 46.9329 207.277 47 211.034 47V43C207.324 43 203.885 42.9337 200.717 42.8017L200.55 46.7983ZM211.034 47C214.791 47 218.482 46.9329 222.108 46.7986L221.96 42.8014C218.385 42.9338 214.743 43 211.034 43V47ZM220.034 44.8C220.034 46.4383 219.907 47.7935 219.676 48.888L223.591 49.712C223.894 48.2731 224.034 46.6284 224.034 44.8H220.034ZM221.421 47.3114C219.519 47.5151 217.88 47.8408 216.739 48.4111L218.528 51.9889C218.987 51.7592 220.015 51.4849 221.847 51.2886L221.421 47.3114ZM216.864 48.3538C215.416 48.9572 214.509 50.1482 214.036 51.5675L217.831 52.8325C218.025 52.2518 218.251 52.1095 218.403 52.0462L216.864 48.3538ZM214.011 51.6506C213.661 52.8728 213.534 54.6483 213.534 56.8H217.534C217.534 54.685 217.673 53.3938 217.857 52.7494L214.011 51.6506ZM213.534 56.8V76.4H217.534V56.8H213.534ZM213.534 76.4C213.534 81.396 214.655 85.5225 217.239 88.4287L220.228 85.7713C218.545 83.8775 217.534 80.8706 217.534 76.4H213.534ZM217.259 88.4514C220.021 91.4645 224.485 92.7 230.034 92.7V88.7C224.915 88.7 221.846 87.5355 220.208 85.7486L217.259 88.4514ZM230.034 92.7C231.83 92.7 233.645 92.4378 235.473 91.9259L234.394 88.0741C232.889 88.4956 231.437 88.7 230.034 88.7V92.7ZM235.543 91.9048C237.426 91.3025 239.094 90.42 240.514 89.2364L237.953 86.1636C236.973 86.98 235.775 87.6309 234.324 88.0952L235.543 91.9048ZM240.567 89.1905C242.154 87.7711 243.235 85.9263 243.857 83.7494L240.011 82.6506C239.566 84.2071 238.847 85.3623 237.9 86.2095L240.567 89.1905ZM243.844 83.7928C244.534 81.5689 244.834 78.4951 244.834 74.7H240.834C240.834 78.3716 240.533 80.9645 240.023 82.6072L243.844 83.7928ZM244.834 74.7V59H240.834V74.7H244.834ZM244.834 59C244.834 56.4231 244.668 54.3138 244.268 52.791L240.399 53.809C240.665 54.8195 240.834 56.5102 240.834 59H244.834ZM244.295 52.9078C243.957 51.2209 243.166 49.7098 241.682 48.7967L239.585 52.2033C239.835 52.3569 240.176 52.7125 240.372 53.6922L244.295 52.9078ZM241.772 48.8556C240.513 47.9839 238.834 47.529 236.963 47.3132L236.504 51.2868C238.1 51.471 239.021 51.8161 239.495 52.1444L241.772 48.8556ZM238.706 48.9712C238.455 47.4632 238.334 46.0742 238.334 44.8H234.334C234.334 46.3258 234.479 47.9368 234.761 49.6288L238.706 48.9712ZM236.234 46.7975C238.937 46.9327 241.77 47 244.734 47V43C241.83 43 239.064 42.934 236.433 42.8025L236.234 46.7975ZM244.734 47C247.367 47 250.23 46.9325 253.32 46.7981L253.147 42.8019C250.104 42.9342 247.3 43 244.734 43V47ZM251.234 44.8C251.234 46.3365 251.08 47.6696 250.793 48.8149L254.674 49.7851C255.054 48.2637 255.234 46.5969 255.234 44.8H251.234ZM252.541 47.3093C250.119 47.5436 247.981 48.4628 246.803 50.4979L250.264 52.5021C250.553 52.0038 251.214 51.4564 252.926 51.2907L252.541 47.3093ZM246.764 50.5685C246.275 51.497 245.983 52.6662 245.803 53.9461C245.619 55.2528 245.534 56.8109 245.534 58.6H249.534C249.534 56.9224 249.615 55.5639 249.764 54.5039C249.917 53.4171 250.125 52.7697 250.303 52.4315L246.764 50.5685ZM245.534 58.6V74.8H249.534V58.6H245.534ZM245.534 74.8C245.534 79.186 245.17 82.5111 244.509 84.8571L248.358 85.9429C249.163 83.0889 249.534 79.3473 249.534 74.8H245.534ZM244.499 84.891C243.939 87.0192 242.841 88.7131 241.184 90.0383L243.683 93.1617C246.026 91.2869 247.594 88.8475 248.368 85.909L244.499 84.891ZM241.165 90.0535C238.318 92.3887 234.069 93.7 228.134 93.7V97.7C234.598 97.7 239.883 96.2779 243.702 93.1465L241.165 90.0535ZM311.375 44.8L313.372 44.9109L313.494 42.7154L311.297 42.8015L311.375 44.8ZM312.075 57.8L312.863 59.6383L314.256 59.0414L314.058 57.5391L312.075 57.8ZM307.175 58.7L305.177 58.7833L305.257 60.7H307.175V58.7ZM304.575 51.6L303.161 53.0142L303.176 53.0293L303.191 53.044L304.575 51.6ZM292.875 49.3V47.3H290.875V49.3H292.875ZM293.375 88.2L291.478 88.8325L291.504 88.9114L291.537 88.9878L293.375 88.2ZM295.375 90.2L294.587 92.0383L294.61 92.0479L294.632 92.057L295.375 90.2ZM299.875 91L301.721 90.2308L301.245 89.0869L300.008 89.0044L299.875 91ZM300.375 95.2L300.321 97.1993L302.375 97.2548V95.2H300.375ZM275.875 95.2H273.875V97.2615L275.936 97.1991L275.875 95.2ZM276.375 91L276.242 89.0044L275.005 89.0869L274.529 90.2308L276.375 91ZM280.875 90.2L280.173 88.3273L280.152 88.335L280.132 88.343L280.875 90.2ZM283.075 88.1L284.932 88.8428L284.932 88.8428L283.075 88.1ZM283.675 49.3H285.675V47.3H283.675V49.3ZM273.375 50.4L274.235 52.2057L274.252 52.1975L274.269 52.1889L273.375 50.4ZM268.575 58.7V60.7H270.215L270.536 59.0922L268.575 58.7ZM263.875 57.8L261.922 57.3692L261.612 58.7745L262.846 59.515L263.875 57.8ZM265.375 44.8L265.452 42.8015L263.375 42.7216V44.8H265.375ZM309.378 44.6891C309.169 48.4526 309.415 52.9175 310.092 58.0609L314.058 57.5391C313.401 52.5491 313.181 48.3474 313.372 44.9109L309.378 44.6891ZM311.287 55.9617C310.186 56.4338 308.83 56.7 307.175 56.7V60.7C309.253 60.7 311.164 60.3662 312.863 59.6383L311.287 55.9617ZM309.173 58.6167C309.028 55.1298 308.069 52.1787 305.959 50.156L303.191 53.044C304.281 54.088 305.055 55.8702 305.177 58.7833L309.173 58.6167ZM305.989 50.1858C303.921 48.1179 300.86 47.3 297.275 47.3V51.3C300.357 51.3 302.162 52.0154 303.161 53.0142L305.989 50.1858ZM297.275 47.3H292.875V51.3H297.275V47.3ZM290.875 49.3V83.6H294.875V49.3H290.875ZM290.875 83.6C290.875 85.7166 291.039 87.5156 291.478 88.8325L295.272 87.5675C295.045 86.8844 294.875 85.6168 294.875 83.6H290.875ZM291.537 88.9878C292.139 90.3932 293.182 91.436 294.587 92.0383L296.163 88.3617C295.702 88.164 295.411 87.8735 295.213 87.4122L291.537 88.9878ZM294.632 92.057C295.928 92.5754 297.68 92.8581 299.742 92.9956L300.008 89.0044C298.07 88.8752 296.822 88.6246 296.118 88.343L294.632 92.057ZM298.029 91.7692C298.194 92.1667 298.375 93.2074 298.375 95.2H302.375C302.375 93.1926 302.222 91.4333 301.721 90.2308L298.029 91.7692ZM300.429 93.2007C295.487 93.0672 291.433 93 288.275 93V97C291.383 97 295.397 97.0662 300.321 97.1993L300.429 93.2007ZM288.275 93C284.386 93 280.232 93.0671 275.814 93.2009L275.936 97.1991C280.318 97.0663 284.431 97 288.275 97V93ZM277.875 95.2C277.875 93.2074 278.056 92.1667 278.221 91.7692L274.529 90.2308C274.028 91.4333 273.875 93.1926 273.875 95.2H277.875ZM276.508 92.9956C278.57 92.8581 280.322 92.5754 281.618 92.057L280.132 88.343C279.428 88.6246 278.18 88.8752 276.242 89.0044L276.508 92.9956ZM281.577 92.0727C283.136 91.488 284.31 90.3981 284.932 88.8428L281.218 87.3572C281.04 87.8019 280.747 88.112 280.173 88.3273L281.577 92.0727ZM284.932 88.8428C285.476 87.4829 285.675 85.6744 285.675 83.6H281.675C281.675 85.5256 281.474 86.7171 281.218 87.3572L284.932 88.8428ZM285.675 83.6V49.3H281.675V83.6H285.675ZM283.675 47.3H279.575V51.3H283.675V47.3ZM279.575 47.3C276.77 47.3 274.346 47.6783 272.481 48.6111L274.269 52.1889C275.337 51.655 277.046 51.3 279.575 51.3V47.3ZM272.515 48.5943C270.76 49.4301 269.39 50.6875 268.505 52.3685L272.045 54.2315C272.493 53.3792 273.19 52.7032 274.235 52.2057L272.515 48.5943ZM268.505 52.3685C267.71 53.8799 267.097 55.8932 266.614 58.3078L270.536 59.0922C270.987 56.8401 271.507 55.2535 272.045 54.2315L268.505 52.3685ZM268.575 56.7C266.547 56.7 265.429 56.4002 264.904 56.085L262.846 59.515C264.321 60.3998 266.336 60.7 268.575 60.7V56.7ZM265.828 58.2308C266.855 53.573 267.375 49.0947 267.375 44.8H263.375C263.375 48.772 262.895 52.9603 261.922 57.3692L265.828 58.2308ZM265.298 46.7985C268.811 46.9336 276.485 47 288.275 47V43C276.465 43 268.873 42.933 265.452 42.8015L265.298 46.7985ZM288.275 47C300.264 47 308.006 46.9336 311.453 46.7985L311.297 42.8015C307.944 42.933 300.286 43 288.275 43V47Z" transform="translate(43 100)" fill="#0F0F0F"/>
<path d="M10.2 88.9L8.70032 90.2232L8.70576 90.2294L8.71124 90.2355L10.2 88.9ZM10.3 51.4L8.82209 50.0525L8.81664 50.0585L8.81124 50.0645L10.3 51.4ZM43.4 88.9L41.9123 87.5633L41.9112 87.5645L43.4 88.9ZM37.1 86.1L38.7692 87.2017L38.7742 87.1941L38.7791 87.1865L37.1 86.1ZM38.5 59.9L36.614 60.5656L36.6198 60.582L36.6258 60.5982L38.5 59.9ZM33.4 52L32.106 53.525L32.106 53.525L33.4 52ZM16.7 54.1L15.0411 52.9828L15.0332 52.9946L15.0255 53.0064L16.7 54.1ZM15.3 80.3L13.41 80.9542L13.4177 80.9763L13.4258 80.9982L15.3 80.3ZM20.5 88.3L19.1798 89.8023L19.1928 89.8138L19.206 89.825L20.5 88.3ZM26.8 93.7C20.2744 93.7 15.3177 91.6099 11.6888 87.5645L8.71124 90.2355C13.2156 95.2568 19.3256 97.7 26.8 97.7V93.7ZM11.6997 87.5768C8.11177 83.5105 6.2 77.8012 6.2 70.2H2.2C2.2 78.4655 4.28823 85.2229 8.70032 90.2232L11.6997 87.5768ZM6.2 70.2C6.2 62.535 8.14339 56.7992 11.7888 52.7355L8.81124 50.0645C4.32328 55.0675 2.2 61.865 2.2 70.2H6.2ZM11.7779 52.7475C15.4733 48.6945 20.5018 46.6 27.1 46.6V42.6C19.5649 42.6 13.3934 45.0388 8.82209 50.0525L11.7779 52.7475ZM27.1 46.6C33.636 46.6 38.5541 48.6634 42.1101 52.6342L45.0899 49.9658C40.6459 45.0033 34.564 42.6 27.1 42.6V46.6ZM42.1101 52.6342C45.6875 56.629 47.6 62.2969 47.6 69.9H51.6C51.6 61.6364 49.5125 54.9043 45.0899 49.9658L42.1101 52.6342ZM47.6 69.9C47.6 77.6271 45.6257 83.4307 41.9123 87.5633L44.8877 90.2367C49.441 85.1693 51.6 78.3063 51.6 69.9H47.6ZM41.9112 87.5645C38.2823 91.6099 33.3256 93.7 26.8 93.7V97.7C34.2744 97.7 40.3844 95.2568 44.8888 90.2355L41.9112 87.5645ZM28.1 93.1C32.612 93.1 36.2217 91.0616 38.7692 87.2017L35.4308 84.9983C33.5783 87.8051 31.188 89.1 28.1 89.1V93.1ZM38.7791 87.1865C41.2704 83.3364 42.4 78.134 42.4 71.8H38.4C38.4 77.7327 37.3296 82.0636 35.4209 85.0135L38.7791 87.1865ZM42.4 71.8C42.4 67.0854 41.7419 62.8731 40.3742 59.2018L36.6258 60.5982C37.7914 63.7269 38.4 67.4479 38.4 71.8H42.4ZM40.386 59.2344C39.0973 55.583 37.2235 52.6213 34.694 50.475L32.106 53.525C33.9765 55.1121 35.5027 57.417 36.614 60.5656L40.386 59.2344ZM34.694 50.475C32.1351 48.3038 29.144 47.2 25.8 47.2V51.2C28.1893 51.2 30.2649 51.9628 32.106 53.525L34.694 50.475ZM25.8 47.2C21.2532 47.2 17.6045 49.1766 15.0411 52.9828L18.3589 55.2172C20.1955 52.4901 22.6134 51.2 25.8 51.2V47.2ZM15.0255 53.0064C12.5904 56.735 11.5 61.8824 11.5 68.2H15.5C15.5 62.2509 16.5429 57.9983 18.3745 55.1936L15.0255 53.0064ZM11.5 68.2C11.5 72.9686 12.1214 77.2314 13.41 80.9542L17.19 79.6458C16.0786 76.4352 15.5 72.6314 15.5 68.2H11.5ZM13.4258 80.9982C14.7807 84.635 16.679 87.6047 19.1798 89.8023L21.8202 86.7977C19.921 85.1286 18.3526 82.765 17.1742 79.6018L13.4258 80.9982ZM19.206 89.825C21.7649 91.9962 24.756 93.1 28.1 93.1V89.1C25.7107 89.1 23.6351 88.3372 21.794 86.775L19.206 89.825ZM96.6063 81.6L98.5926 81.8337L98.7802 80.2386L97.2633 79.711L96.6063 81.6ZM97.1063 92.7L98.9858 93.3835L99.2095 92.7684L99.0263 92.14L97.1063 92.7ZM95.8063 94.5L96.9157 96.1641L96.9765 96.1236L97.0341 96.0787L95.8063 94.5ZM94.0063 95.1L93.992 97.0999L93.9991 97.1H94.0063V95.1ZM80.0063 95L80.0205 93.0001L80.0085 93L79.9965 93L80.0063 95ZM59.4063 95.1L57.7723 96.2534L58.3735 97.105L59.416 97.1L59.4063 95.1ZM58.2063 89.9L56.8623 88.4189L56.2063 89.0142V89.9H58.2063ZM63.6063 85L62.285 83.4986L62.2736 83.5086L62.2623 83.5189L63.6063 85ZM71.9063 77.5L73.2756 78.9577L73.277 78.9564L71.9063 77.5ZM78.2063 70.9L76.6877 69.5984L76.6846 69.6021L78.2063 70.9ZM82.5063 64.5L80.7051 63.6305L80.6928 63.656L80.6812 63.6819L82.5063 64.5ZM81.4063 51.7L80.0224 53.144L80.0371 53.1581L80.0521 53.1719L81.4063 51.7ZM68.3063 51.8L66.892 50.3858L66.877 50.4008L66.8623 50.4162L68.3063 51.8ZM65.3063 60.1V62.1H67.083L67.2923 60.3356L65.3063 60.1ZM60.0063 59.2L58.0217 58.9519L57.835 60.4454L59.2184 61.0383L60.0063 59.2ZM59.9063 48.1L59.124 46.2593L57.6842 46.8712L57.9314 48.416L59.9063 48.1ZM89.5063 47.7L88.3968 49.3641L88.4098 49.3727L88.4228 49.3811L89.5063 47.7ZM92.5063 62.2L90.7298 61.2812L90.7298 61.2812L92.5063 62.2ZM82.0063 74.3L80.6253 72.8533L80.6248 72.8538L82.0063 74.3ZM70.7063 85.6L69.2481 84.2311L66.0855 87.6H70.7063V85.6ZM88.6063 85.3L88.1565 83.3512L88.1565 83.3512L88.6063 85.3ZM90.5063 84.1L92.1704 85.2094L92.1968 85.1698L92.2212 85.129L90.5063 84.1ZM91.5063 81L91.3638 79.0051L89.8294 79.1147L89.5416 80.6258L91.5063 81ZM94.62 81.3663C94.4734 82.6121 94.4063 84.2341 94.4063 86.2H98.4063C98.4063 84.2992 98.4725 82.8546 98.5926 81.8337L94.62 81.3663ZM94.4063 86.2C94.4063 89.0183 94.6436 91.3994 95.1863 93.26L99.0263 92.14C98.6356 90.8006 98.4063 88.8484 98.4063 86.2H94.4063ZM95.2267 92.0165C95.085 92.406 94.873 92.6921 94.5784 92.9213L97.0341 96.0787C97.9395 95.3745 98.5941 94.4607 98.9858 93.3835L95.2267 92.0165ZM94.6969 92.8359C94.3581 93.0617 94.1376 93.1 94.0063 93.1V97.1C95.0749 97.1 96.0544 96.7383 96.9157 96.1641L94.6969 92.8359ZM94.0205 93.1001L80.0205 93.0001L79.992 96.9999L93.992 97.0999L94.0205 93.1001ZM79.9965 93L59.3965 93.1L59.416 97.1L80.016 97L79.9965 93ZM61.0402 93.9466C60.5917 93.3113 60.2063 92.0739 60.2063 89.9H56.2063C56.2063 92.3927 56.6208 94.6221 57.7723 96.2534L61.0402 93.9466ZM59.5502 91.3811L64.9502 86.4811L62.2623 83.5189L56.8623 88.4189L59.5502 91.3811ZM64.9275 86.5014C68.2703 83.5598 71.0544 81.0443 73.2756 78.9577L70.5369 76.0423C68.3581 78.089 65.6089 80.5736 62.285 83.4986L64.9275 86.5014ZM73.277 78.9564C75.5945 76.7752 77.7451 74.5225 79.7279 72.1979L76.6846 69.6021C74.8007 71.8108 72.7514 73.9581 70.5355 76.0436L73.277 78.9564ZM79.7248 72.2016C81.7987 69.782 83.3595 67.4858 84.3313 65.3181L80.6812 63.6819C79.9196 65.3809 78.6138 67.3513 76.6877 69.5984L79.7248 72.2016ZM84.3074 65.3695C85.3664 63.1758 85.9063 60.8796 85.9063 58.5H81.9063C81.9063 60.2538 81.5128 61.9575 80.7051 63.6305L84.3074 65.3695ZM85.9063 58.5C85.9063 55.1312 84.9606 52.2524 82.7604 50.2281L80.0521 53.1719C81.1852 54.2143 81.9063 55.8688 81.9063 58.5H85.9063ZM82.7901 50.256C80.718 48.2703 77.9316 47.4 74.7063 47.4V51.4C77.2143 51.4 78.8945 52.0631 80.0224 53.144L82.7901 50.256ZM74.7063 47.4C71.6111 47.4 68.9335 48.3443 66.892 50.3858L69.7205 53.2142C70.879 52.0557 72.4681 51.4 74.7063 51.4V47.4ZM66.8623 50.4162C64.871 52.4941 63.8025 55.7995 63.3202 59.8644L67.2923 60.3356C67.7434 56.5338 68.6749 54.3059 69.7502 53.1838L66.8623 50.4162ZM65.3063 58.1C63.3428 58.1 61.8666 57.8214 60.7941 57.3617L59.2184 61.0383C60.9459 61.7786 63.003 62.1 65.3063 62.1V58.1ZM61.9908 59.4481C62.2022 57.757 62.3063 55.9735 62.3063 54.1H58.3063C58.3063 55.8265 58.2103 57.443 58.0217 58.9519L61.9908 59.4481ZM62.3063 54.1C62.3063 51.6977 62.1695 49.5862 61.8811 47.784L57.9314 48.416C58.1764 49.9472 58.3063 51.8356 58.3063 54.1H62.3063ZM60.6885 49.9407C65.7713 47.7805 71.105 46.7 76.7063 46.7V42.7C70.5742 42.7 64.7078 43.8862 59.124 46.2593L60.6885 49.9407ZM76.7063 46.7C82.041 46.7 85.8576 47.6713 88.3968 49.3641L90.6157 46.0359C87.1549 43.7287 82.4381 42.7 76.7063 42.7V46.7ZM88.4228 49.3811C90.8328 50.9342 92.0063 53.0906 92.0063 56.1H96.0063C96.0063 51.7761 94.1797 48.3324 90.5897 46.0189L88.4228 49.3811ZM92.0063 56.1C92.0063 57.9069 91.586 59.6258 90.7298 61.2812L94.2827 63.1188C95.4265 60.9075 96.0063 58.5598 96.0063 56.1H92.0063ZM90.7298 61.2812C89.8148 63.0502 88.6522 64.7048 87.2344 66.2459L90.1781 68.9541C91.827 67.1619 93.1977 65.2165 94.2827 63.1188L90.7298 61.2812ZM87.2344 66.2459C85.7446 67.8652 83.5476 70.0638 80.6253 72.8533L83.3872 75.7467C86.3316 72.9362 88.6012 70.6681 90.1781 68.9541L87.2344 66.2459ZM80.6248 72.8538C76.1409 77.1369 72.3469 80.9302 69.2481 84.2311L72.1644 86.9689C75.1989 83.7364 78.9383 79.9964 83.3877 75.7462L80.6248 72.8538ZM70.7063 87.6H84.5063V83.6H70.7063V87.6ZM84.5063 87.6C86.3968 87.6 87.955 87.5029 89.056 87.2488L88.1565 83.3512C87.5242 83.4971 86.349 83.6 84.5063 83.6V87.6ZM89.056 87.2488C90.2977 86.9622 91.4249 86.3276 92.1704 85.2094L88.8422 82.9906C88.7876 83.0724 88.6482 83.2378 88.1565 83.3512L89.056 87.2488ZM92.2212 85.129C92.8045 84.1569 93.1906 82.846 93.4709 81.3742L89.5416 80.6258C89.2886 81.954 89.008 82.7097 88.7913 83.071L92.2212 85.129ZM91.6487 82.9949C93.2855 82.878 94.7087 83.0575 95.9492 83.489L97.2633 79.711C95.4372 79.0758 93.4603 78.8553 91.3638 79.0051L91.6487 82.9949ZM108.065 94.2L106.651 95.6142L106.651 95.6142L108.065 94.2ZM108.265 84.8L106.886 83.3517L106.868 83.3685L106.851 83.3858L108.265 84.8ZM118.265 84.8L116.778 86.1379L116.813 86.177L116.851 86.2142L118.265 84.8ZM118.165 94.2L119.503 95.6866L119.503 95.6866L118.165 94.2ZM113.065 94C111.318 94 110.213 93.52 109.479 92.7858L106.651 95.6142C108.316 97.28 110.545 98 113.065 98V94ZM109.479 92.7858C108.693 92.0001 108.265 90.9945 108.265 89.6H104.265C104.265 91.9389 105.036 93.9999 106.651 95.6142L109.479 92.7858ZM108.265 89.6C108.265 88.2698 108.717 87.1768 109.679 86.2142L106.851 83.3858C105.147 85.0899 104.265 87.1969 104.265 89.6H108.265ZM109.644 86.2483C110.632 85.3071 111.887 84.8 113.565 84.8V80.8C110.976 80.8 108.697 81.6262 106.886 83.3517L109.644 86.2483ZM113.565 84.8C114.981 84.8 115.989 85.2615 116.778 86.1379L119.751 83.4621C118.14 81.6718 116.016 80.8 113.565 80.8V84.8ZM116.851 86.2142C117.81 87.1739 118.165 88.0862 118.165 89H122.165C122.165 86.8471 121.253 84.9594 119.679 83.3858L116.851 86.2142ZM118.165 89C118.165 90.8597 117.633 91.988 116.827 92.7134L119.503 95.6866C121.363 94.012 122.165 91.6736 122.165 89H118.165ZM116.827 92.7134C115.916 93.5329 114.718 94 113.065 94V98C115.545 98 117.747 97.2671 119.503 95.6866L116.827 92.7134Z" fill="#0F0F0F"/>
</svg>
