<svg width="574" height="213" viewBox="0 0 574 213" fill="none" xmlns="http://www.w3.org/2000/svg">
<path d="M58.6 90.7L59.5487 90.3838L59.3439 89.7694L58.6995 89.705L58.6 90.7ZM59.1 95.2L59.0501 96.1988L60.1 96.2512V95.2H59.1ZM38.2 95.2H37.2V96.2512L38.2499 96.1988L38.2 95.2ZM38.8 90.7L38.6707 89.7084L38.1054 89.7821L37.8809 90.3061L38.8 90.7ZM42 89.9L42.4856 90.7742L42.5002 90.7661L42.5145 90.7575L42 89.9ZM42 85.1L42.9104 84.6862L42.9067 84.6783L42 85.1ZM40 80.8L40.9067 80.3783L40.6378 79.8H40V80.8ZM17.3 81.3L17.2399 80.3018L16.6207 80.3391L16.379 80.9104L17.3 81.3ZM16.2 83.9L17.1171 84.2987L17.121 84.2896L16.2 83.9ZM19.3 90.7L20.2487 90.3838L20.0434 89.7678L19.3971 89.7047L19.3 90.7ZM19.9 95.2L19.8474 96.1986L20.9 96.254V95.2H19.9ZM4.5 95.2H3.5V96.2645L4.56238 96.1981L4.5 95.2ZM5.1 90.7L4.92111 89.7161L4.30931 89.8274L4.13848 90.4253L5.1 90.7ZM8.5 88.9L9.25926 89.5508L9.27028 89.5379L9.28087 89.5247L8.5 88.9ZM11.7 83L12.6104 83.4138L12.6114 83.4115L11.7 83ZM28.9 44.9L28.694 43.9214L28.1974 44.026L27.9886 44.4885L28.9 44.9ZM32.9 44.5L33.8009 44.066L33.5283 43.5H32.9V44.5ZM51.3 82.7L52.2021 82.2685L52.2009 82.266L51.3 82.7ZM55 88.9L54.2705 89.5839L54.2815 89.5957L54.2929 89.6071L55 88.9ZM38 76.7V77.7H39.5838L38.9029 76.2701L38 76.7ZM32 64.1L32.9029 63.67L32.8978 63.6596L32 64.1ZM28.4 55.7L29.3517 55.393L28.3962 52.4308L27.4476 55.3952L28.4 55.7ZM26.4 60.7L25.4985 60.2673L25.4946 60.2753L25.4909 60.2833L26.4 60.7ZM25 63.7L24.1056 63.2528L24.0943 63.2753L24.0842 63.2984L25 63.7ZM19.3 76.7L18.3842 76.2984L17.7696 77.7H19.3V76.7ZM57.6513 91.0162C57.9325 91.8599 58.1 93.2292 58.1 95.2H60.1C60.1 93.1708 59.9341 91.5401 59.5487 90.3838L57.6513 91.0162ZM59.1499 94.2012C56.4601 94.0668 53.0084 94 48.8 94V96C52.9916 96 56.4066 96.0666 59.0501 96.1988L59.1499 94.2012ZM48.8 94C44.3925 94 40.8405 94.0667 38.1501 94.2012L38.2499 96.1988C40.8928 96.0666 44.4075 96 48.8 96V94ZM39.2 95.2C39.2 93.1575 39.4036 91.8303 39.7191 91.0939L37.8809 90.3061C37.3964 91.4364 37.2 93.1092 37.2 95.2H39.2ZM38.9293 91.6916C40.4701 91.4906 41.705 91.2078 42.4856 90.7742L41.5144 89.0258C41.095 89.2588 40.1966 89.5094 38.6707 89.7084L38.9293 91.6916ZM42.5145 90.7575C43.4603 90.19 44 89.3096 44 88.2H42C42 88.5571 41.873 88.81 41.4855 89.0425L42.5145 90.7575ZM44 88.2C44 87.7435 43.8789 87.2173 43.7017 86.668C43.5192 86.1022 43.2527 85.4394 42.9104 84.6862L41.0896 85.5138C41.4139 86.2273 41.6475 86.8145 41.7983 87.282C41.9544 87.766 42 88.0565 42 88.2H44ZM42.9067 84.6783L40.9067 80.3783L39.0933 81.2217L41.0933 85.5217L42.9067 84.6783ZM40 79.8C30.3921 79.8 22.8025 79.9667 17.2399 80.3018L17.3601 82.2982C22.8641 81.9666 30.4079 81.8 40 81.8V79.8ZM16.379 80.9104L15.279 83.5104L17.121 84.2896L18.221 81.6896L16.379 80.9104ZM15.2829 83.5013C14.603 85.0652 14.2 86.4207 14.2 87.5H16.2C16.2 86.846 16.4637 85.8015 17.1171 84.2987L15.2829 83.5013ZM14.2 87.5C14.2 88.7141 14.6629 89.7493 15.6097 90.4883C16.5063 91.1881 17.7482 91.5533 19.2029 91.6953L19.3971 89.7047C18.1185 89.58 17.3104 89.2786 16.8403 88.9117C16.4204 88.584 16.2 88.1526 16.2 87.5H14.2ZM18.3513 91.0162C18.7063 92.0811 18.9 93.4659 18.9 95.2H20.9C20.9 93.3341 20.6937 91.7189 20.2487 90.3838L18.3513 91.0162ZM19.9526 94.2014C17.3989 94.067 14.6145 94 11.6 94V96C14.5855 96 17.3344 96.0664 19.8474 96.1986L19.9526 94.2014ZM11.6 94C8.98346 94 6.59558 94.0671 4.43762 94.2019L4.56238 96.1981C6.67108 96.0663 9.01654 96 11.6 96V94ZM5.5 95.2C5.5 93.6838 5.68943 92.277 6.06152 90.9747L4.13848 90.4253C3.71057 91.923 3.5 93.5162 3.5 95.2H5.5ZM5.27889 91.6839C6.92176 91.3852 8.27989 90.6934 9.25926 89.5508L7.74074 88.2492C7.12011 88.9733 6.21157 89.4815 4.92111 89.7161L5.27889 91.6839ZM9.28087 89.5247C10.168 88.4158 11.279 86.3427 12.6104 83.4138L10.7896 82.5862C9.45428 85.524 8.43204 87.3842 7.71913 88.2753L9.28087 89.5247ZM12.6114 83.4115L29.8114 45.3115L27.9886 44.4885L10.7886 82.5885L12.6114 83.4115ZM29.106 45.8785C30.2997 45.6272 31.5637 45.5 32.9 45.5V43.5C31.4364 43.5 30.0336 43.6394 28.694 43.9214L29.106 45.8785ZM31.9991 44.934L50.3991 83.134L52.2009 82.266L33.8009 44.066L31.9991 44.934ZM50.3979 83.1315C51.8658 86.2008 53.1548 88.3939 54.2705 89.5839L55.7295 88.2161C54.8452 87.2727 53.6675 85.3325 52.2021 82.2685L50.3979 83.1315ZM54.2929 89.6071C55.501 90.8152 56.9086 91.5358 58.5005 91.695L58.6995 89.705C57.6247 89.5975 56.6323 89.1181 55.7071 88.1929L54.2929 89.6071ZM38.9029 76.2701L32.9029 63.6701L31.0971 64.5299L37.0971 77.1299L38.9029 76.2701ZM32.8978 63.6596C31.1716 60.1407 29.9963 57.3913 29.3517 55.393L27.4483 56.007C28.137 58.1421 29.3618 60.9926 31.1022 64.5404L32.8978 63.6596ZM27.4476 55.3952C26.929 57.0157 26.2797 58.6397 25.4985 60.2673L27.3015 61.1327C28.1203 59.4269 28.8043 57.7176 29.3524 56.0048L27.4476 55.3952ZM25.4909 60.2833C24.755 61.8889 24.2963 62.8713 24.1056 63.2528L25.8944 64.1472C26.1037 63.7287 26.5783 62.7111 27.3091 61.1167L25.4909 60.2833ZM24.0842 63.2984L18.3842 76.2984L20.2158 77.1016L25.9158 64.1016L24.0842 63.2984ZM19.3 77.7H38V75.7H19.3V77.7ZM100.274 67.9L100.156 66.907L100.211 68.898L100.274 67.9ZM112.774 71.6L112.203 72.4209L112.213 72.428L112.224 72.4348L112.774 71.6ZM111.974 91.2L112.55 92.0178L112.553 92.0157L111.974 91.2ZM71.1742 95.2H70.1742V96.2206L71.1946 96.1998L71.1742 95.2ZM71.6742 90.7L71.5912 89.7035L70.9492 89.757L70.7325 90.3637L71.6742 90.7ZM75.3742 89.9L74.9552 88.992L75.3742 89.9ZM77.1742 87.7L76.2379 87.3489L76.2281 87.375L76.2197 87.4017L77.1742 87.7ZM77.1742 52.2L76.2255 52.5162L76.2348 52.5441L76.2457 52.5714L77.1742 52.2ZM75.3742 50.1L74.927 50.9944L74.941 51.0014L74.9552 51.008L75.3742 50.1ZM71.6742 49.3L70.7041 49.5425L70.8783 50.2395L71.5945 50.2968L71.6742 49.3ZM71.2742 44.8L71.3177 43.8009L70.2742 43.7556V44.8H71.2742ZM80.3742 45L80.3742 46.0001L80.3877 45.9999L80.3742 45ZM87.7742 44.9L87.7877 45.8999L87.8048 45.8997L87.8218 45.8989L87.7742 44.9ZM109.574 63.9L108.888 63.1724L108.883 63.1774L108.878 63.1824L109.574 63.9ZM86.9742 49.7L86.7781 48.7194L85.9742 48.8802V49.7H86.9742ZM86.9742 66.7H85.9742V67.7H86.9742V66.7ZM100.274 64.5L100.866 65.3064L100.866 65.3064L100.274 64.5ZM86.9742 71.5V70.5H85.9742V71.5H86.9742ZM88.4742 89.2L87.7671 89.9071L87.7793 89.9193L87.7919 89.9311L88.4742 89.2ZM100.211 68.898C105.367 69.2243 109.336 70.4264 112.203 72.4209L113.345 70.7791C110.079 68.507 105.715 67.2423 100.337 66.902L100.211 68.898ZM112.224 72.4348C115.05 74.2988 116.474 77.0361 116.474 80.8H118.474C118.474 76.4305 116.765 73.0346 113.325 70.7652L112.224 72.4348ZM116.474 80.8C116.474 84.7951 114.81 87.9635 111.396 90.3843L112.553 92.0157C116.472 89.2365 118.474 85.4716 118.474 80.8H116.474ZM111.399 90.3822C108.045 92.7422 102.857 94 95.6742 94V96C103.025 96 108.703 94.7244 112.55 92.0178L111.399 90.3822ZM95.6742 94C85.8704 94 77.6964 94.0667 71.1538 94.2002L71.1946 96.1998C77.7187 96.0666 85.878 96 95.6742 96V94ZM72.1742 95.2C72.1742 93.1512 72.344 91.7978 72.616 91.0363L70.7325 90.3637C70.3378 91.4688 70.1742 93.1155 70.1742 95.2H72.1742ZM71.7573 91.6965C73.4054 91.5592 74.7725 91.2791 75.7933 90.808L74.9552 88.992C74.2426 89.3209 73.143 89.5741 71.5912 89.7035L71.7573 91.6965ZM75.7933 90.808C76.961 90.269 77.7268 89.2842 78.1287 87.9983L76.2197 87.4017C75.9549 88.2491 75.5208 88.731 74.9552 88.992L75.7933 90.808ZM78.1105 88.0511C78.5749 86.813 78.7742 85.0674 78.7742 82.9H76.7742C76.7742 84.9993 76.5736 86.4537 76.2379 87.3489L78.1105 88.0511ZM78.7742 82.9V56.6H76.7742V82.9H78.7742ZM78.7742 56.6C78.7742 54.6243 78.5736 53.0059 78.1027 51.8286L76.2457 52.5714C76.5748 53.3941 76.7742 54.7091 76.7742 56.6H78.7742ZM78.1229 51.8838C77.7124 50.6522 76.9382 49.7205 75.7933 49.192L74.9552 51.008C75.5436 51.2795 75.9694 51.7478 76.2255 52.5162L78.1229 51.8838ZM75.8214 49.2056C74.8461 48.7179 73.4569 48.4394 71.754 48.3032L71.5945 50.2968C73.2248 50.4272 74.3024 50.6821 74.927 50.9944L75.8214 49.2056ZM72.6444 49.0575C72.407 48.1081 72.2742 46.7033 72.2742 44.8H70.2742C70.2742 46.7634 70.4081 48.3585 70.7041 49.5425L72.6444 49.0575ZM71.2308 45.7991C74.3116 45.933 77.3594 46 80.3742 46V44C77.389 44 74.3702 43.9337 71.3177 43.8009L71.2308 45.7991ZM80.3877 45.9999L87.7877 45.8999L87.7607 43.9001L80.3607 44.0001L80.3877 45.9999ZM87.8218 45.8989C89.1997 45.8332 90.9823 45.8 93.1742 45.8V43.8C90.9662 43.8 89.1487 43.8334 87.7267 43.9011L87.8218 45.8989ZM93.1742 45.8C99.2966 45.8 103.985 46.6919 107.32 48.391L108.228 46.609C104.497 44.7081 99.4518 43.8 93.1742 43.8V45.8ZM107.32 48.391C108.958 49.2256 110.134 50.2635 110.903 51.4836C111.672 52.7013 112.074 54.1603 112.074 55.9H114.074C114.074 53.8397 113.593 51.9987 112.595 50.4164C111.598 48.8365 110.123 47.5744 108.228 46.609L107.32 48.391ZM112.074 55.9C112.074 58.7507 111.026 61.1563 108.888 63.1724L110.26 64.6276C112.789 62.2437 114.074 59.316 114.074 55.9H112.074ZM108.878 63.1824C106.805 65.1944 103.928 66.4595 100.156 66.907L100.392 68.893C104.487 68.4072 107.81 67.0056 110.271 64.6176L108.878 63.1824ZM104.274 58.2C104.274 54.9788 103.153 52.4239 100.814 50.7171C98.5326 49.0531 95.2328 48.3 91.0742 48.3V50.3C95.049 50.3 97.8492 51.0302 99.6349 52.3329C101.362 53.5927 102.274 55.4879 102.274 58.2H104.274ZM91.0742 48.3C89.6103 48.3 88.1779 48.4395 86.7781 48.7194L87.1703 50.6806C88.4372 50.4272 89.7381 50.3 91.0742 50.3V48.3ZM85.9742 49.7V66.7H87.9742V49.7H85.9742ZM86.9742 67.7H89.7742V65.7H86.9742V67.7ZM89.7742 67.7C94.8073 67.7 98.5909 66.9745 100.866 65.3064L99.6829 63.6936C97.9576 64.9588 94.7411 65.7 89.7742 65.7V67.7ZM100.866 65.3064C103.151 63.6301 104.274 61.2142 104.274 58.2H102.274C102.274 60.6525 101.397 62.4365 99.6829 63.6936L100.866 65.3064ZM94.2742 91.6C98.6229 91.6 102.061 90.8667 104.436 89.252C106.881 87.5904 108.074 85.0831 108.074 81.9H106.074C106.074 84.5169 105.134 86.3596 103.312 87.598C101.421 88.8833 98.4589 89.6 94.2742 89.6V91.6ZM108.074 81.9C108.074 78.0737 106.373 75.1438 103.047 73.2329C99.8051 71.37 95.0705 70.5 88.9742 70.5V72.5C94.9446 72.5 99.26 73.3634 102.051 74.9671C104.759 76.5228 106.074 78.7929 106.074 81.9H108.074ZM88.9742 70.5H86.9742V72.5H88.9742V70.5ZM85.9742 71.5V83.2H87.9742V71.5H85.9742ZM85.9742 83.2C85.9742 84.7483 86.1025 86.0862 86.3791 87.1925C86.6541 88.2928 87.0932 89.2332 87.7671 89.9071L89.1813 88.4929C88.8552 88.1668 88.5443 87.6072 88.3194 86.7075C88.0959 85.8138 87.9742 84.6517 87.9742 83.2H85.9742ZM87.7919 89.9311C88.4623 90.5568 89.3765 90.9655 90.4396 91.2221C91.5086 91.4801 92.7933 91.6 94.2742 91.6V89.6C92.8884 89.6 91.7732 89.4865 90.9089 89.2779C90.0386 89.0679 89.4861 88.7766 89.1565 88.4689L87.7919 89.9311ZM144.4 92.7L143.964 93.5998L143.964 93.5998L144.4 92.7ZM134.1 83.7L133.25 84.2274L133.257 84.2378L134.1 83.7ZM134.1 56.7L133.253 56.1687L133.246 56.1791L134.1 56.7ZM144.4 47.6L144.836 48.4998L144.842 48.4971L144.4 47.6ZM175 47.5L174.564 48.3998L174.564 48.3998L175 47.5ZM185.2 56.6L184.346 57.1209L184.352 57.1294L184.357 57.1378L185.2 56.6ZM185.2 83.6L184.353 83.0687L184.35 83.0726L185.2 83.6ZM174.9 92.7L175.336 93.5998L175.342 93.5971L174.9 92.7ZM173.8 85.9L173.053 85.2356L173.046 85.2435L173.8 85.9ZM176 59.9L175.106 60.3472L175.109 60.3542L176 59.9ZM168.7 51.8L168.167 52.646L168.175 52.651L168.7 51.8ZM145.5 54.4L146.254 55.0565L146.26 55.0497L145.5 54.4ZM143.4 80.6L142.506 81.0472L142.509 81.0542L143.4 80.6ZM150.6 88.5L151.12 87.6458L151.12 87.6458L150.6 88.5ZM159.6 94.9C153.992 94.9 149.079 93.8571 144.836 91.8002L143.964 93.5998C148.521 95.8095 153.741 96.9 159.6 96.9V94.9ZM144.836 91.8002C140.591 89.742 137.304 86.8625 134.943 83.1622L133.257 84.2378C135.83 88.2709 139.409 91.3913 143.964 93.5998L144.836 91.8002ZM134.95 83.1726C132.66 79.4839 131.5 75.1715 131.5 70.2H129.5C129.5 75.4952 130.74 80.1828 133.25 84.2274L134.95 83.1726ZM131.5 70.2C131.5 65.2982 132.659 60.9819 134.954 57.2209L133.246 56.1791C130.741 60.2847 129.5 64.9685 129.5 70.2H131.5ZM134.947 57.2313C137.309 53.4655 140.596 50.5558 144.836 48.4998L143.964 46.7002C139.404 48.9108 135.825 52.0678 133.253 56.1687L134.947 57.2313ZM144.842 48.4971C149.15 46.3751 154.128 45.3 159.8 45.3V43.3C153.872 43.3 148.583 44.4249 143.958 46.7029L144.842 48.4971ZM159.8 45.3C165.408 45.3 170.321 46.3429 174.564 48.3998L175.436 46.6002C170.879 44.3905 165.659 43.3 159.8 43.3V45.3ZM174.564 48.3998C178.802 50.4548 182.052 53.3615 184.346 57.1209L186.054 56.0791C183.548 51.9719 179.998 48.8118 175.436 46.6002L174.564 48.3998ZM184.357 57.1378C186.711 60.8273 187.9 65.1032 187.9 70H189.9C189.9 64.7634 188.623 60.1061 186.043 56.0622L184.357 57.1378ZM187.9 70C187.9 74.9659 186.709 79.3111 184.353 83.0687L186.047 84.1313C188.624 80.0222 189.9 75.3007 189.9 70H187.9ZM184.35 83.0726C182.058 86.7655 178.773 89.6775 174.458 91.8029L175.342 93.5971C179.96 91.3225 183.542 88.1678 186.05 84.1274L184.35 83.0726ZM174.464 91.8002C170.223 93.8564 165.277 94.9 159.6 94.9V96.9C165.523 96.9 170.777 95.8102 175.336 93.5998L174.464 91.8002ZM161 92.3C166.647 92.3 171.205 90.4048 174.554 86.5565L173.046 85.2435C170.128 88.5952 166.153 90.3 161 90.3V92.3ZM174.547 86.5644C177.947 82.7394 179.6 77.6824 179.6 71.5H177.6C177.6 77.3176 176.053 81.8606 173.053 85.2356L174.547 86.5644ZM179.6 71.5C179.6 67.0303 178.705 63.0045 176.891 59.4458L175.109 60.3542C176.762 63.5955 177.6 67.303 177.6 71.5H179.6ZM176.894 59.4528C175.083 55.829 172.525 52.9852 169.225 50.949L168.175 52.651C171.141 54.4815 173.451 57.0377 175.106 60.3472L176.894 59.4528ZM169.233 50.9541C165.996 48.9133 162.342 47.9 158.3 47.9V49.9C161.991 49.9 165.27 50.82 168.167 52.6459L169.233 50.9541ZM158.3 47.9C152.647 47.9 148.087 49.8332 144.74 53.7503L146.26 55.0497C149.179 51.6335 153.153 49.9 158.3 49.9V47.9ZM144.746 53.7435C141.418 57.5667 139.8 62.5862 139.8 68.7H141.8C141.8 62.9471 143.315 58.4333 146.254 55.0565L144.746 53.7435ZM139.8 68.7C139.8 73.2982 140.693 77.4219 142.506 81.0472L144.294 80.1528C142.64 76.8447 141.8 73.0351 141.8 68.7H139.8ZM142.509 81.0542C144.321 84.6085 146.845 87.385 150.08 89.3542L151.12 87.6458C148.222 85.8817 145.946 83.3915 144.291 80.1458L142.509 81.0542ZM150.08 89.3542C153.315 91.3236 156.965 92.3 161 92.3V90.3C157.302 90.3 154.018 89.4098 151.12 87.6458L150.08 89.3542ZM215.134 93.8L214.742 94.7202L214.754 94.7251L214.766 94.7298L215.134 93.8ZM208.334 87.9L207.439 88.3472L207.446 88.3608L207.453 88.3741L208.334 87.9ZM205.934 52.2L206.9 51.9423L206.9 51.9423L205.934 52.2ZM204.434 50.2L203.919 51.0575L203.968 51.0868L204.02 51.1104L204.434 50.2ZM201.134 49.3L200.179 49.5983L200.37 50.2089L201.004 50.2916L201.134 49.3ZM200.634 44.8L200.675 43.8009L199.634 43.7575V44.8H200.634ZM222.034 44.8H223.034V43.7623L221.997 43.8007L222.034 44.8ZM221.634 49.3L221.74 50.2943L222.462 50.2169L222.612 49.506L221.634 49.3ZM217.634 50.2L218.018 51.1231L218.05 51.1098L218.081 51.0944L217.634 50.2ZM215.934 52.2L214.985 51.8838L214.978 51.9044L214.972 51.9253L215.934 52.2ZM218.734 87.1L217.986 87.7644L217.991 87.7701L217.996 87.7757L218.734 87.1ZM234.934 90L235.203 90.963L235.221 90.958L235.238 90.9524L234.934 90ZM239.234 87.7L239.874 88.4682L239.887 88.457L239.9 88.4452L239.234 87.7ZM241.934 83.2L240.979 82.9036L240.975 82.9144L240.972 82.9253L241.934 83.2ZM242.334 53.3L241.353 53.4961L241.359 53.5255L241.367 53.5545L242.334 53.3ZM240.634 50.5L240.064 51.3222L240.087 51.3375L240.109 51.3517L240.634 50.5ZM236.734 49.3L235.747 49.4644L235.871 50.2071L236.619 50.2934L236.734 49.3ZM236.334 44.8L236.384 43.8012L235.334 43.7487V44.8H236.334ZM253.234 44.8H254.234V43.7556L253.19 43.8009L253.234 44.8ZM252.734 49.3L252.83 50.2953L253.533 50.2274L253.704 49.5425L252.734 49.3ZM248.534 51.5L247.668 50.999L247.658 51.0164L247.649 51.0343L248.534 51.5ZM246.434 85.4L245.471 85.1285L245.469 85.137L245.467 85.1455L246.434 85.4ZM242.434 91.6L241.809 90.8191L241.8 90.8267L242.434 91.6ZM228.134 94.7C222.727 94.7 218.536 94.0713 215.502 92.8702L214.766 94.7298C218.131 96.062 222.606 96.7 228.134 96.7V94.7ZM215.525 92.8798C212.567 91.6211 210.49 89.7961 209.214 87.4259L207.453 88.3741C208.977 91.2039 211.433 93.3122 214.742 94.7202L215.525 92.8798ZM209.228 87.4528C207.987 84.9699 207.334 81.7042 207.334 77.6H205.334C205.334 81.8958 206.014 85.4968 207.439 88.3472L209.228 87.4528ZM207.334 77.6V56.8H205.334V77.6H207.334ZM207.334 56.8C207.334 54.7146 207.201 53.0736 206.9 51.9423L204.967 52.4577C205.199 53.3264 205.334 54.752 205.334 56.8H207.334ZM206.9 51.9423C206.58 50.7421 205.927 49.7805 204.847 49.2896L204.02 51.1104C204.406 51.2861 204.754 51.6579 204.967 52.4577L206.9 51.9423ZM204.948 49.3425C204.097 48.8316 202.824 48.5121 201.263 48.3084L201.004 50.2916C202.51 50.4879 203.437 50.7684 203.919 51.0575L204.948 49.3425ZM202.088 49.0017C201.799 48.0771 201.634 46.6945 201.634 44.8H199.634C199.634 46.7721 199.801 48.3896 200.179 49.5983L202.088 49.0017ZM200.592 45.7991C203.808 45.9331 207.289 46 211.034 46V44C207.312 44 203.859 43.9335 200.675 43.8009L200.592 45.7991ZM211.034 46C214.779 46 218.458 45.9331 222.071 45.7993L221.997 43.8007C218.409 43.9335 214.755 44 211.034 44V46ZM221.034 44.8C221.034 46.4858 220.904 47.9134 220.655 49.094L222.612 49.506C222.897 48.1532 223.034 46.5809 223.034 44.8H221.034ZM221.527 48.3057C219.643 48.5076 218.157 48.8204 217.186 49.3056L218.081 51.0944C218.71 50.7796 219.891 50.4924 221.74 50.2943L221.527 48.3057ZM217.249 49.2769C216.125 49.7453 215.388 50.6741 214.985 51.8838L216.882 52.5162C217.146 51.7259 217.542 51.3214 218.018 51.1231L217.249 49.2769ZM214.972 51.9253C214.664 53.0031 214.534 54.6575 214.534 56.8H216.534C216.534 54.6758 216.67 53.2636 216.895 52.4747L214.972 51.9253ZM214.534 56.8V76.4H216.534V56.8H214.534ZM214.534 76.4C214.534 81.2647 215.628 85.1113 217.986 87.7644L219.481 86.4356C217.573 84.2887 216.534 81.002 216.534 76.4H214.534ZM217.996 87.7757C220.477 90.4823 224.593 91.7 230.034 91.7V89.7C224.808 89.7 221.39 88.5177 219.471 86.4243L217.996 87.7757ZM230.034 91.7C231.732 91.7 233.456 91.4522 235.203 90.963L234.664 89.037C233.078 89.4811 231.535 89.7 230.034 89.7V91.7ZM235.238 90.9524C237.013 90.3846 238.564 89.56 239.874 88.4682L238.593 86.9318C237.504 87.84 236.188 88.5488 234.629 89.0476L235.238 90.9524ZM239.9 88.4452C241.327 87.1689 242.317 85.4965 242.895 83.4747L240.972 82.9253C240.483 84.6369 239.674 85.9645 238.567 86.9548L239.9 88.4452ZM242.889 83.4964C243.534 81.4178 243.834 78.4642 243.834 74.7H241.834C241.834 78.4025 241.533 81.1156 240.979 82.9036L242.889 83.4964ZM243.834 74.7V59H241.834V74.7H243.834ZM243.834 59C243.834 56.4449 243.668 54.4402 243.301 53.0455L241.367 53.5545C241.666 54.6931 241.834 56.4884 241.834 59H243.834ZM243.314 53.1039C243.012 51.5938 242.333 50.3716 241.158 49.6483L240.109 51.3517C240.668 51.6951 241.122 52.3396 241.353 53.4961L243.314 53.1039ZM241.203 49.6778C240.14 48.9419 238.65 48.5145 236.848 48.3066L236.619 50.2934C238.284 50.4855 239.394 50.8581 240.064 51.3222L241.203 49.6778ZM237.72 49.1356C237.461 47.5816 237.334 46.1371 237.334 44.8H235.334C235.334 46.2629 235.473 47.8184 235.747 49.4644L237.72 49.1356ZM236.284 45.7987C238.968 45.933 241.785 46 244.734 46V44C241.815 44 239.032 43.9337 236.384 43.8012L236.284 45.7987ZM244.734 46C247.35 46 250.198 45.9329 253.277 45.7991L253.19 43.8009C250.135 43.9338 247.317 44 244.734 44V46ZM252.234 44.8C252.234 46.4016 252.073 47.8181 251.763 49.0575L253.704 49.5425C254.061 48.1152 254.234 46.5318 254.234 44.8H252.234ZM252.637 48.3046C250.393 48.5218 248.624 49.3481 247.668 50.999L249.399 52.001C249.91 51.1186 250.941 50.4782 252.83 50.2953L252.637 48.3046ZM247.649 51.0343C247.238 51.8151 246.967 52.854 246.793 54.0855C246.618 55.3305 246.534 56.8388 246.534 58.6H248.534C248.534 56.8945 248.616 55.4861 248.774 54.3645C248.934 53.2294 249.163 52.4515 249.419 51.9657L247.649 51.0343ZM246.534 58.6V74.8H248.534V58.6H246.534ZM246.534 74.8C246.534 79.2264 246.169 82.6556 245.471 85.1285L247.396 85.6715C248.165 82.9444 248.534 79.307 248.534 74.8H246.534ZM245.467 85.1455C244.853 87.4763 243.637 89.3565 241.809 90.8191L243.058 92.3809C245.23 90.6435 246.681 88.3904 247.401 85.6545L245.467 85.1455ZM241.8 90.8267C238.709 93.361 234.201 94.7 228.134 94.7V96.7C234.466 96.7 239.492 95.3056 243.068 92.3733L241.8 90.8267ZM311.375 44.8L312.373 44.8555L312.434 43.7577L311.336 43.8008L311.375 44.8ZM312.075 57.8L312.469 58.7191L313.165 58.4207L313.066 57.6695L312.075 57.8ZM307.175 58.7L306.176 58.7416L306.216 59.7H307.175V58.7ZM304.575 51.6L303.868 52.3071L303.875 52.3146L303.883 52.322L304.575 51.6ZM292.875 49.3V48.3H291.875V49.3H292.875ZM293.375 88.2L292.426 88.5162L292.439 88.5557L292.456 88.5939L293.375 88.2ZM295.375 90.2L294.981 91.1191L294.992 91.1239L295.004 91.1285L295.375 90.2ZM299.875 91L300.798 90.6154L300.56 90.0434L299.942 90.0022L299.875 91ZM300.375 95.2L300.348 96.1996L301.375 96.2274V95.2H300.375ZM275.875 95.2H274.875V96.2308L275.905 96.1995L275.875 95.2ZM276.375 91L276.308 90.0022L275.69 90.0434L275.452 90.6154L276.375 91ZM280.875 90.2L280.524 89.2637L280.514 89.2675L280.504 89.2715L280.875 90.2ZM283.075 88.1L284.003 88.4714L284.003 88.4714L283.075 88.1ZM283.675 49.3H284.675V48.3H283.675V49.3ZM273.375 50.4L273.805 51.3029L273.814 51.2987L273.822 51.2944L273.375 50.4ZM268.575 58.7V59.7H269.395L269.556 58.8961L268.575 58.7ZM263.875 57.8L262.898 57.5846L262.743 58.2873L263.361 58.6575L263.875 57.8ZM265.375 44.8L265.413 43.8007L264.375 43.7608V44.8H265.375ZM310.377 44.7445C310.172 48.4263 310.412 52.8254 311.084 57.9305L313.066 57.6695C312.405 52.6412 312.178 48.3737 312.373 44.8555L310.377 44.7445ZM311.681 56.8809C310.43 57.4169 308.936 57.7 307.175 57.7V59.7C309.147 59.7 310.92 59.3831 312.469 58.7191L311.681 56.8809ZM308.174 58.6584C308.035 55.3149 307.122 52.656 305.267 50.878L303.883 52.322C305.228 53.6106 306.049 55.6851 306.176 58.7416L308.174 58.6584ZM305.282 50.8929C303.482 49.0923 300.734 48.3 297.275 48.3V50.3C300.483 50.3 302.602 51.041 303.868 52.3071L305.282 50.8929ZM297.275 48.3H292.875V50.3H297.275V48.3ZM291.875 49.3V83.6H293.875V49.3H291.875ZM291.875 83.6C291.875 85.6916 292.04 87.3578 292.426 88.5162L294.324 87.8838C294.043 87.0422 293.875 85.6417 293.875 83.6H291.875ZM292.456 88.5939C292.957 89.7633 293.812 90.618 294.981 91.1191L295.769 89.2809C295.072 88.982 294.593 88.5034 294.294 87.8061L292.456 88.5939ZM295.004 91.1285C296.152 91.5877 297.778 91.8624 299.808 91.9978L299.942 90.0022C297.972 89.8709 296.598 89.6123 295.746 89.2715L295.004 91.1285ZM298.952 91.3846C299.201 91.9833 299.375 93.2037 299.375 95.2H301.375C301.375 93.1963 301.215 91.6167 300.798 90.6154L298.952 91.3846ZM300.402 94.2004C295.464 94.0669 291.421 94 288.275 94V96C291.396 96 295.419 96.0664 300.348 96.1996L300.402 94.2004ZM288.275 94C284.397 94 280.253 94.0669 275.845 94.2005L275.905 96.1995C280.297 96.0665 284.42 96 288.275 96V94ZM276.875 95.2C276.875 93.2037 277.049 91.9833 277.298 91.3846L275.452 90.6154C275.035 91.6167 274.875 93.1963 274.875 95.2H276.875ZM276.442 91.9978C278.472 91.8624 280.098 91.5877 281.246 91.1285L280.504 89.2715C279.652 89.6123 278.278 89.8709 276.308 90.0022L276.442 91.9978ZM281.226 91.1363C282.539 90.644 283.492 89.749 284.003 88.4714L282.147 87.7286C281.858 88.451 281.344 88.956 280.524 89.2637L281.226 91.1363ZM284.003 88.4714C284.475 87.2915 284.675 85.6372 284.675 83.6H282.675C282.675 85.5628 282.475 86.9085 282.147 87.7286L284.003 88.4714ZM284.675 83.6V49.3H282.675V83.6H284.675ZM283.675 48.3H279.575V50.3H283.675V48.3ZM279.575 48.3C276.839 48.3 274.594 48.6725 272.928 49.5056L273.822 51.2944C275.089 50.6609 276.977 50.3 279.575 50.3V48.3ZM272.945 49.4971C271.367 50.2484 270.166 51.3604 269.39 52.8343L271.16 53.7657C271.718 52.7063 272.583 51.8849 273.805 51.3029L272.945 49.4971ZM269.39 52.8343C268.659 54.2233 268.069 56.1299 267.594 58.5039L269.556 58.8961C270.014 56.6034 270.558 54.9101 271.16 53.7657L269.39 52.8343ZM268.575 57.7C266.495 57.7 265.152 57.4001 264.389 56.9425L263.361 58.6575C264.598 59.3999 266.389 59.7 268.575 59.7V57.7ZM264.852 58.0154C265.865 53.4199 266.375 49.014 266.375 44.8H264.375C264.375 48.8527 263.885 53.1135 262.898 57.5846L264.852 58.0154ZM265.337 45.7993C268.826 45.9335 276.48 46 288.275 46V44C276.47 44 268.857 43.9332 265.413 43.8007L265.337 45.7993ZM288.275 46C300.269 46 307.991 45.9335 311.414 45.7992L311.336 43.8008C307.959 43.9332 300.281 44 288.275 44V46Z" transform="translate(43 100)" fill="#0F0F0F"/>
<path d="M10.2 88.9L9.45014 89.5616L9.45562 89.5678L10.2 88.9ZM10.3 51.4L9.56102 50.7262L9.55562 50.7322L10.3 51.4ZM43.4 88.9L42.6562 88.2316L42.6556 88.2322L43.4 88.9ZM37.1 86.1L37.9346 86.6509L37.9396 86.6433L37.1 86.1ZM38.5 59.9L37.557 60.2328L37.5599 60.241L37.5629 60.2491L38.5 59.9ZM33.4 52L32.753 52.7625L32.753 52.7625L33.4 52ZM16.7 54.1L15.8706 53.5414L15.8666 53.5473L15.8627 53.5532L16.7 54.1ZM15.3 80.3L14.355 80.6271L14.3588 80.6382L14.3629 80.6491L15.3 80.3ZM20.5 88.3L19.8399 89.0512L19.8464 89.0569L19.853 89.0625L20.5 88.3ZM26.8 94.7C20.0372 94.7 14.7922 92.5216 10.9444 88.2322L9.45562 89.5678C13.7411 94.3451 19.5628 96.7 26.8 96.7V94.7ZM10.9498 88.2384C7.15589 83.9386 5.2 77.9673 5.2 70.2H3.2C3.2 78.2994 5.24411 84.7948 9.45016 89.5616L10.9498 88.2384ZM5.2 70.2C5.2 62.3675 7.18836 56.3663 11.0444 52.0678L9.55562 50.7322C5.27831 55.5004 3.2 62.0325 3.2 70.2H5.2ZM11.039 52.0738C14.9533 47.7806 20.2676 45.6 27.1 45.6V43.6C19.7991 43.6 13.9134 45.9527 9.56104 50.7262L11.039 52.0738ZM27.1 45.6C33.868 45.6 39.0771 47.7484 42.8551 51.9671L44.345 50.6329C40.1229 45.9183 34.332 43.6 27.1 43.6V45.6ZM42.8551 51.9671C46.6438 56.1978 48.6 62.1318 48.6 69.9H50.6C50.6 61.8015 48.5562 55.3355 44.345 50.6329L42.8551 51.9671ZM48.6 69.9C48.6 77.7969 46.5795 83.8653 42.6562 88.2316L44.1438 89.5684C48.4872 84.7347 50.6 78.1365 50.6 69.9H48.6ZM42.6556 88.2322C38.8078 92.5216 33.5628 94.7 26.8 94.7V96.7C34.0372 96.7 39.8589 94.3451 44.1444 89.5678L42.6556 88.2322ZM28.1 92.1C32.256 92.1 35.5608 90.2475 37.9346 86.6508L36.2654 85.5492C34.2392 88.6192 31.544 90.1 28.1 90.1V92.1ZM37.9396 86.6433C40.2852 83.0182 41.4 78.0337 41.4 71.8H39.4C39.4 77.833 38.3148 82.3818 36.2604 85.5567L37.9396 86.6433ZM41.4 71.8C41.4 67.176 40.7543 63.0865 39.4371 59.5509L37.5629 60.2491C38.779 63.5135 39.4 67.3573 39.4 71.8H41.4ZM39.443 59.5672C38.1986 56.0415 36.4118 53.244 34.047 51.2375L32.753 52.7625C34.7882 54.4894 36.4014 56.9585 37.557 60.2328L39.443 59.5672ZM34.047 51.2375C31.6676 49.2186 28.9053 48.2 25.8 48.2V50.2C28.428 50.2 30.7324 51.0481 32.753 52.7625L34.047 51.2375ZM25.8 48.2C21.5933 48.2 18.2523 50.0049 15.8706 53.5414L17.5294 54.6586C19.5477 51.6617 22.2734 50.2 25.8 50.2V48.2ZM15.8627 53.5532C13.5786 57.0509 12.5 61.9745 12.5 68.2H14.5C14.5 62.1588 15.5548 57.6825 17.5373 54.6468L15.8627 53.5532ZM12.5 68.2C12.5 72.8843 13.1107 77.0324 14.355 80.6271L16.245 79.9729C15.0893 76.6343 14.5 72.7157 14.5 68.2H12.5ZM14.3629 80.6491C15.6737 84.1675 17.4895 86.9857 19.8399 89.0512L21.1601 87.5488C19.1105 85.7476 17.4596 83.2325 16.2371 79.9509L14.3629 80.6491ZM19.853 89.0625C22.2324 91.0814 24.9947 92.1 28.1 92.1V90.1C25.472 90.1 23.1676 89.2519 21.147 87.5375L19.853 89.0625ZM96.6063 81.6L97.5994 81.7168L97.6932 80.9193L96.9348 80.6555L96.6063 81.6ZM97.1063 92.7L98.046 93.0417L98.1579 92.7342L98.0663 92.42L97.1063 92.7ZM95.8063 94.5L96.361 95.3321L96.3914 95.3118L96.4202 95.2894L95.8063 94.5ZM94.0063 95.1L93.9991 96.1H94.0063V95.1ZM80.0063 95L80.0134 94L80.0014 94L80.0063 95ZM59.4063 95.1L58.5893 95.6767L58.8899 96.1025L59.4111 96.1L59.4063 95.1ZM58.2063 89.9L57.5343 89.1594L57.2063 89.4571V89.9H58.2063ZM63.6063 85L62.9456 84.2493L62.9399 84.2543L62.9343 84.2594L63.6063 85ZM71.9063 77.5L72.5909 78.2288L72.5916 78.2282L71.9063 77.5ZM78.2063 70.9L77.447 70.2492L77.4454 70.2511L78.2063 70.9ZM82.5063 64.5L81.6057 64.0653L81.5995 64.078L81.5937 64.0909L82.5063 64.5ZM81.4063 51.7L80.7143 52.422L80.7217 52.429L80.7292 52.4359L81.4063 51.7ZM68.3063 51.8L67.5991 51.0929L67.5916 51.1004L67.5843 51.1081L68.3063 51.8ZM65.3063 60.1V61.1H66.1946L66.2993 60.2178L65.3063 60.1ZM60.0063 59.2L59.014 59.076L58.9206 59.8227L59.6123 60.1191L60.0063 59.2ZM59.9063 48.1L59.5151 47.1797L58.7952 47.4856L58.9188 48.258L59.9063 48.1ZM89.5063 47.7L88.9516 48.532L88.958 48.5364L88.9645 48.5406L89.5063 47.7ZM92.5063 62.2L91.618 61.7406L91.618 61.7406L92.5063 62.2ZM82.0063 74.3L81.3158 73.5766L81.3155 73.5769L82.0063 74.3ZM70.7063 85.6L69.9772 84.9156L68.3959 86.6H70.7063V85.6ZM88.6063 85.3L88.3814 84.3256L88.3814 84.3256L88.6063 85.3ZM90.5063 84.1L91.3383 84.6547L91.3515 84.6349L91.3637 84.6145L90.5063 84.1ZM91.5063 81L91.435 80.0025L90.6678 80.0573L90.5239 80.8129L91.5063 81ZM95.6131 81.4832C95.4732 82.6727 95.4063 84.2504 95.4063 86.2H97.4063C97.4063 84.2829 97.4727 82.7939 97.5994 81.7168L95.6131 81.4832ZM95.4063 86.2C95.4063 88.9758 95.6416 91.2497 96.1463 92.98L98.0663 92.42C97.6376 90.9503 97.4063 88.8908 97.4063 86.2H95.4063ZM96.1665 92.3583C95.9623 92.9197 95.6396 93.3627 95.1923 93.7106L96.4202 95.2894C97.1729 94.7039 97.7169 93.947 98.046 93.0417L96.1665 92.3583ZM95.2516 93.6679C94.7822 93.9809 94.3719 94.1 94.0063 94.1V96.1C94.8406 96.1 95.6303 95.8191 96.361 95.3321L95.2516 93.6679ZM94.0134 94.1L80.0134 94L79.9991 96L93.9991 96.1L94.0134 94.1ZM80.0014 94L59.4014 94.1L59.4111 96.1L80.0111 96L80.0014 94ZM60.2232 94.5233C59.599 93.639 59.2063 92.1536 59.2063 89.9H57.2063C57.2063 92.313 57.6135 94.2944 58.5893 95.6767L60.2232 94.5233ZM58.8782 90.6406L64.2782 85.7406L62.9343 84.2594L57.5343 89.1594L58.8782 90.6406ZM64.2669 85.7507C67.6049 82.8132 70.3803 80.3055 72.5909 78.2288L71.2216 76.7712C69.0322 78.8278 66.2742 81.3201 62.9456 84.2493L64.2669 85.7507ZM72.5916 78.2282C74.8837 76.071 77.009 73.8446 78.9671 71.5489L77.4454 70.2511C75.5368 72.4887 73.4621 74.6624 71.2209 76.7718L72.5916 78.2282ZM78.9655 71.5508C81.0025 69.1743 82.4996 66.9596 83.4188 64.9091L81.5937 64.0909C80.7796 65.9071 79.41 67.959 77.447 70.2492L78.9655 71.5508ZM83.4068 64.9347C84.403 62.8712 84.9063 60.7231 84.9063 58.5H82.9063C82.9063 60.4102 82.4762 62.2621 81.6057 64.0653L83.4068 64.9347ZM84.9063 58.5C84.9063 55.3156 84.0168 52.7429 82.0833 50.9641L80.7292 52.4359C82.1291 53.7238 82.9063 55.6844 82.9063 58.5H84.9063ZM82.0982 50.978C80.2621 49.2185 77.7522 48.4 74.7063 48.4V50.4C77.3936 50.4 79.3504 51.1149 80.7143 52.422L82.0982 50.978ZM74.7063 48.4C71.8253 48.4 69.4199 49.2722 67.5991 51.0929L69.0134 52.5071C70.3926 51.1278 72.2538 50.4 74.7063 50.4V48.4ZM67.5843 51.1081C65.8219 52.947 64.7877 55.9831 64.3132 59.9822L66.2993 60.2178C66.7581 56.3502 67.7239 53.853 69.0282 52.4919L67.5843 51.1081ZM65.3063 59.1C63.2579 59.1 61.6364 58.8107 60.4002 58.2809L59.6123 60.1191C61.1761 60.7893 63.088 61.1 65.3063 61.1V59.1ZM60.9985 59.324C61.2042 57.6785 61.3063 55.9368 61.3063 54.1H59.3063C59.3063 55.8632 59.2083 57.5215 59.014 59.076L60.9985 59.324ZM61.3063 54.1C61.3063 51.7322 61.1712 49.6764 60.8937 47.942L58.9188 48.258C59.1746 49.8569 59.3063 51.8011 59.3063 54.1H61.3063ZM60.2974 49.0203C65.5055 46.8069 70.9723 45.7 76.7063 45.7V43.7C70.7069 43.7 64.9737 44.8598 59.5151 47.1797L60.2974 49.0203ZM76.7063 45.7C82.1403 45.7 86.1819 46.6856 88.9516 48.532L90.061 46.8679C86.8306 44.7144 82.3389 43.7 76.7063 43.7V45.7ZM88.9645 48.5406C91.6695 50.2838 93.0063 52.7619 93.0063 56.1H95.0063C95.0063 52.1047 93.343 48.9829 90.048 46.8594L88.9645 48.5406ZM93.0063 56.1C93.0063 58.0701 92.5461 59.9463 91.618 61.7406L93.3945 62.6594C94.4664 60.5871 95.0063 58.3965 95.0063 56.1H93.0063ZM91.618 61.7406C90.6605 63.5918 89.4459 65.3191 87.9703 66.9229L89.4422 68.2771C91.0333 66.5476 92.352 64.6749 93.3945 62.6594L91.618 61.7406ZM87.9703 66.9229C86.4588 68.5659 84.2436 70.7819 81.3158 73.5766L82.6967 75.0234C85.6356 72.2181 87.8871 69.9674 89.4422 68.2771L87.9703 66.9229ZM81.3155 73.5769C76.8402 77.8518 73.0599 81.6318 69.9772 84.9156L71.4353 86.2844C74.4859 83.0349 78.2389 79.2815 82.697 75.0231L81.3155 73.5769ZM70.7063 86.6H84.5063V84.6H70.7063V86.6ZM84.5063 86.6C86.3849 86.6 87.8473 86.5014 88.8311 86.2744L88.3814 84.3256C87.6319 84.4986 86.361 84.6 84.5063 84.6V86.6ZM88.8311 86.2744C89.8853 86.0311 90.7656 85.5138 91.3383 84.6547L89.6742 83.5453C89.4469 83.8862 89.0605 84.1689 88.3814 84.3256L88.8311 86.2744ZM91.3637 84.6145C91.8554 83.7951 92.2151 82.623 92.4886 81.1871L90.5239 80.8129C90.2641 82.177 89.9571 83.0715 89.6488 83.5855L91.3637 84.6145ZM91.5775 81.9975C93.3292 81.8723 94.8908 82.0621 96.2777 82.5445L96.9348 80.6555C95.255 80.0713 93.4166 79.861 91.435 80.0025L91.5775 81.9975ZM108.065 94.2L107.358 94.9071L107.358 94.9071L108.065 94.2ZM108.265 84.8L107.575 84.0759L107.566 84.0843L107.558 84.0929L108.265 84.8ZM118.265 84.8L117.522 85.469L117.539 85.4885L117.558 85.5071L118.265 84.8ZM118.165 94.2L118.834 94.9433L118.834 94.9433L118.165 94.2ZM113.065 95C111.125 95 109.739 94.46 108.772 93.4929L107.358 94.9071C108.791 96.34 110.738 97 113.065 97V95ZM108.772 93.4929C107.779 92.5001 107.265 91.2306 107.265 89.6H105.265C105.265 91.7028 105.951 93.4999 107.358 94.9071L108.772 93.4929ZM107.265 89.6C107.265 88.0016 107.824 86.655 108.972 85.5071L107.558 84.0929C106.039 85.6116 105.265 87.4651 105.265 89.6H107.265ZM108.954 85.5241C110.149 84.3869 111.659 83.8 113.565 83.8V81.8C111.204 81.8 109.181 82.5464 107.575 84.0759L108.954 85.5241ZM113.565 83.8C115.239 83.8 116.527 84.3641 117.522 85.469L119.008 84.131C117.603 82.5692 115.757 81.8 113.565 81.8V83.8ZM117.558 85.5071C118.671 86.6203 119.165 87.7765 119.165 89H121.165C121.165 87.1569 120.392 85.513 118.972 84.0929L117.558 85.5071ZM119.165 89C119.165 91.0632 118.566 92.494 117.496 93.4567L118.834 94.9433C120.431 93.506 121.165 91.4702 121.165 89H119.165ZM117.496 93.4567C116.374 94.4665 114.925 95 113.065 95V97C115.338 97 117.289 96.3335 118.834 94.9433L117.496 93.4567Z" fill="#0F0F0F"/>
</svg>
