<svg width="231" height="38" viewBox="0 0 231 38" fill="none" xmlns="http://www.w3.org/2000/svg">
<path d="M39.2803 33.904C39.5203 34.624 39.6403 35.704 39.6403 37.144C37.7203 37.048 35.2483 37 32.2243 37C29.0563 37 26.5123 37.048 24.5923 37.144C24.5923 35.656 24.7363 34.576 25.0243 33.904C26.1283 33.76 26.8963 33.568 27.3283 33.328C27.8083 33.04 28.0483 32.632 28.0483 32.104C28.0483 31.672 27.8083 30.928 27.3283 29.872L25.8883 26.776C18.9763 26.776 13.5283 26.896 9.54428 27.136L8.75228 29.008C8.27228 30.112 8.03228 30.976 8.03228 31.6C8.03228 32.944 9.01628 33.712 10.9843 33.904C11.2723 34.768 11.4163 35.848 11.4163 37.144C9.59228 37.048 7.60028 37 5.44028 37C3.56828 37 1.86428 37.048 0.328277 37.144C0.328277 35.992 0.472277 34.912 0.760277 33.904C1.81628 33.712 2.63228 33.28 3.20828 32.608C3.78428 31.888 4.55228 30.472 5.51228 28.36L17.8963 0.927997C18.8083 0.735999 19.7683 0.64 20.7763 0.64L34.0243 28.144C35.0803 30.352 35.9683 31.84 36.6883 32.608C37.4563 33.376 38.3203 33.808 39.2803 33.904ZM24.4483 23.824L20.1283 14.752C18.8803 12.208 18.0163 10.192 17.5363 8.704C17.1523 9.904 16.6723 11.104 16.0963 12.304C15.5683 13.456 15.2323 14.176 15.0883 14.464L10.9843 23.824H24.4483ZM71.4457 17.488C75.2377 17.728 78.2377 18.616 80.4457 20.152C82.7017 21.64 83.8297 23.848 83.8297 26.776C83.8297 29.896 82.5097 32.392 79.8697 34.264C77.2777 36.088 73.3657 37 68.1337 37C61.0777 37 55.1977 37.048 50.4937 37.144C50.4937 35.656 50.6137 34.576 50.8537 33.904C52.0057 33.808 52.8937 33.616 53.5177 33.328C54.1417 33.04 54.5737 32.512 54.8137 31.744C55.1017 30.976 55.2457 29.824 55.2457 28.288L55.2457 9.352C55.2457 7.96 55.1017 6.904 54.8137 6.184C54.5737 5.464 54.1417 4.96 53.5177 4.672C52.9417 4.384 52.0537 4.192 50.8537 4.096C50.6617 3.328 50.5657 2.248 50.5657 0.855998C52.7737 0.951999 54.9577 1 57.1177 1L62.4457 0.927997C63.4537 0.879997 64.7497 0.855998 66.3337 0.855998C70.7977 0.855998 74.3017 1.504 76.8457 2.8C79.3897 4.096 80.6617 6.112 80.6617 8.848C80.6617 11.104 79.8217 13.024 78.1417 14.608C76.5097 16.192 74.2777 17.152 71.4457 17.488ZM73.6057 10.504C73.6057 6.232 70.6777 4.096 64.8217 4.096C63.8137 4.096 62.8297 4.192 61.8697 4.384L61.8697 16.624H63.8857C67.4857 16.624 70.0057 16.096 71.4457 15.04C72.8857 13.984 73.6057 12.472 73.6057 10.504ZM67.1257 33.832C73.2697 33.832 76.3417 31.744 76.3417 27.568C76.3417 22.576 71.9977 20.08 63.3097 20.08H61.8697L61.8697 28.504C61.8697 30.664 62.2297 32.104 62.9497 32.824C63.6697 33.496 65.0617 33.832 67.1257 33.832ZM116.32 37.648C112.192 37.648 108.544 36.88 105.376 35.344C102.208 33.808 99.7363 31.648 97.9603 28.864C96.2323 26.08 95.3683 22.84 95.3683 19.144C95.3683 15.496 96.2323 12.256 97.9603 9.424C99.7363 6.592 102.208 4.408 105.376 2.872C108.592 1.288 112.288 0.495998 116.464 0.495998C120.592 0.495998 124.24 1.264 127.408 2.8C130.576 4.336 133.024 6.52 134.752 9.352C136.528 12.136 137.416 15.352 137.416 19C137.416 22.696 136.528 25.96 134.752 28.792C133.024 31.576 130.552 33.76 127.336 35.344C124.168 36.88 120.496 37.648 116.32 37.648ZM117.328 34.336C121.216 34.336 124.288 33.04 126.544 30.448C128.848 27.856 130 24.4 130 20.08C130 16.96 129.376 14.176 128.128 11.728C126.88 9.232 125.128 7.288 122.872 5.896C120.664 4.504 118.168 3.808 115.384 3.808C111.496 3.808 108.424 5.128 106.168 7.768C103.912 10.36 102.784 13.792 102.784 18.064C102.784 21.28 103.408 24.136 104.656 26.632C105.904 29.08 107.632 30.976 109.84 32.32C112.048 33.664 114.544 34.336 117.328 34.336ZM167.824 37.504C163.888 37.504 160.768 37.048 158.464 36.136C156.208 35.176 154.576 33.76 153.568 31.888C152.608 29.968 152.128 27.496 152.128 24.472L152.128 9.496C152.128 8.008 152.032 6.904 151.84 6.184C151.648 5.464 151.288 4.984 150.76 4.744C150.28 4.456 149.488 4.24 148.384 4.096C148.144 3.328 148.024 2.248 148.024 0.855998C150.328 0.951999 152.824 1 155.512 1C158.2 1 160.84 0.951999 163.432 0.855998C163.432 2.104 163.336 3.184 163.144 4.096C161.8 4.24 160.84 4.456 160.264 4.744C159.688 4.984 159.28 5.464 159.04 6.184C158.848 6.856 158.752 7.96 158.752 9.496L158.752 23.608C158.752 27.016 159.52 29.584 161.056 31.312C162.64 33.04 165.352 33.904 169.192 33.904C170.344 33.904 171.52 33.736 172.72 33.4C173.92 33.016 174.952 32.464 175.816 31.744C176.728 30.928 177.376 29.848 177.76 28.504C178.192 27.112 178.408 25.072 178.408 22.384L178.408 11.08C178.408 9.256 178.288 7.888 178.048 6.976C177.856 6.016 177.448 5.344 176.824 4.96C176.2 4.528 175.264 4.24 174.016 4.096C173.824 2.944 173.728 1.864 173.728 0.855998C175.648 0.951999 177.664 1 179.776 1C181.648 1 183.688 0.951999 185.896 0.855998C185.896 2.056 185.776 3.136 185.536 4.096C184.048 4.24 183.04 4.768 182.512 5.68C182.032 6.592 181.792 8.296 181.792 10.792L181.792 22.456C181.792 25.672 181.528 28.216 181 30.088C180.52 31.912 179.56 33.4 178.12 34.552C175.72 36.52 172.288 37.504 167.824 37.504ZM229.918 0.855998C229.774 3.448 229.942 6.568 230.422 10.216C229.414 10.648 228.238 10.864 226.894 10.864C226.798 8.56 226.174 6.856 225.022 5.752C223.918 4.648 222.166 4.096 219.766 4.096H216.598L216.598 28.792C216.598 30.28 216.718 31.384 216.958 32.104C217.246 32.776 217.726 33.256 218.398 33.544C219.118 33.832 220.198 34.024 221.638 34.12C221.878 34.696 221.998 35.704 221.998 37.144C218.446 37.048 215.542 37 213.286 37C210.502 37 207.526 37.048 204.358 37.144C204.358 35.704 204.478 34.696 204.718 34.12C206.158 34.024 207.238 33.832 207.958 33.544C208.726 33.256 209.254 32.752 209.542 32.032C209.83 31.312 209.974 30.232 209.974 28.792L209.974 4.096H207.022C205.102 4.096 203.614 4.36 202.558 4.888C201.55 5.368 200.806 6.064 200.326 6.976C199.846 7.888 199.438 9.184 199.102 10.864C197.566 10.864 196.438 10.648 195.718 10.216C196.438 6.952 196.798 3.832 196.798 0.855998C199.294 0.951999 204.79 1 213.286 1C221.926 1 227.47 0.951999 229.918 0.855998Z" fill="white"/>
</svg>
