<svg width="339" height="38" viewBox="0 0 339 38" fill="none" xmlns="http://www.w3.org/2000/svg">
<path d="M16.7234 21.16C19.2674 21.16 21.3314 20.536 22.9154 19.288C24.5474 18.04 25.3634 15.976 25.3634 13.096C25.3634 10.36 24.4994 8.2 22.7714 6.616C21.0914 4.984 18.4994 4.168 14.9954 4.168C14.0834 4.168 13.0274 4.312 11.8274 4.6L11.8274 27.784C11.8274 30.04 12.2594 31.6 13.1234 32.464C13.9874 33.328 15.4754 33.808 17.5874 33.904C17.8274 34.624 17.9474 35.704 17.9474 37.144C15.2594 37.048 12.4754 37 9.5954 37C5.9474 37 2.9234 37.048 0.523404 37.144C0.523404 35.656 0.643404 34.576 0.883404 33.904C2.5634 33.808 3.6914 33.424 4.2674 32.752C4.8914 32.032 5.2034 30.64 5.2034 28.576L5.20341 9.352C5.20341 7.96 5.08341 6.904 4.84341 6.184C4.60341 5.464 4.17141 4.96 3.54741 4.672C2.97141 4.384 2.08341 4.192 0.883405 4.096C0.643405 3.376 0.523406 2.296 0.523406 0.855998C5.03541 0.951999 7.98741 1 9.37941 1L18.0194 0.855998C22.9634 0.855998 26.5874 1.888 28.8914 3.952C31.1954 6.016 32.3474 8.656 32.3474 11.872C32.3474 14.176 31.7954 16.288 30.6914 18.208C29.5874 20.128 27.9314 21.664 25.7234 22.816C23.5634 23.968 20.9474 24.544 17.8754 24.544C16.0034 24.544 14.5394 24.376 13.4834 24.04C13.3874 23.368 13.3394 22.864 13.3394 22.528C13.3394 21.904 13.4114 21.376 13.5554 20.944C14.2754 21.088 15.3314 21.16 16.7234 21.16ZM79.2706 33.904C79.5106 34.624 79.6306 35.704 79.6306 37.144C77.7106 37.048 75.2386 37 72.2146 37C69.0466 37 66.5026 37.048 64.5826 37.144C64.5826 35.656 64.7266 34.576 65.0146 33.904C66.1186 33.76 66.8866 33.568 67.3186 33.328C67.7986 33.04 68.0386 32.632 68.0386 32.104C68.0386 31.672 67.7986 30.928 67.3186 29.872L65.8786 26.776C58.9666 26.776 53.5186 26.896 49.5346 27.136L48.7426 29.008C48.2626 30.112 48.0226 30.976 48.0226 31.6C48.0226 32.944 49.0066 33.712 50.9746 33.904C51.2626 34.768 51.4066 35.848 51.4066 37.144C49.5826 37.048 47.5906 37 45.4306 37C43.5586 37 41.8546 37.048 40.3186 37.144C40.3186 35.992 40.4626 34.912 40.7506 33.904C41.8066 33.712 42.6226 33.28 43.1986 32.608C43.7746 31.888 44.5426 30.472 45.5026 28.36L57.8866 0.927997C58.7986 0.735999 59.7586 0.64 60.7666 0.64L74.0146 28.144C75.0706 30.352 75.9586 31.84 76.6786 32.608C77.4466 33.376 78.3106 33.808 79.2706 33.904ZM64.4386 23.824L60.1186 14.752C58.8706 12.208 58.0066 10.192 57.5266 8.704C57.1426 9.904 56.6626 11.104 56.0866 12.304C55.5586 13.456 55.2226 14.176 55.0786 14.464L50.9746 23.824L64.4386 23.824ZM90.484 37.144C90.484 35.656 90.604 34.576 90.844 33.904C92.044 33.808 92.932 33.616 93.508 33.328C94.132 33.04 94.564 32.536 94.804 31.816C95.044 31.096 95.164 30.016 95.164 28.576L95.164 9.352C95.164 7.96 95.044 6.904 94.804 6.184C94.564 5.464 94.132 4.96 93.508 4.672C92.932 4.384 92.044 4.192 90.844 4.096C90.604 3.376 90.484 2.296 90.484 0.855998C93.556 0.951999 96.244 1 98.548 1C100.468 1 103.108 0.951999 106.468 0.855998C106.468 2.344 106.372 3.424 106.18 4.096C104.452 4.192 103.276 4.576 102.652 5.248C102.076 5.92 101.788 7.288 101.788 9.352L101.788 28.576C101.788 30.64 102.076 32.032 102.652 32.752C103.276 33.424 104.452 33.808 106.18 33.904C106.372 34.624 106.468 35.704 106.468 37.144C103.204 37.048 100.564 37 98.548 37C96.148 37 93.46 37.048 90.484 37.144ZM154.494 1C156.318 1 158.334 0.951999 160.542 0.855998C160.542 2.296 160.446 3.376 160.254 4.096C159.246 4.192 158.478 4.456 157.95 4.888C157.422 5.32 157.038 6.064 156.798 7.12C156.606 8.128 156.51 9.64 156.51 11.656L156.51 37.072C155.886 37.36 154.902 37.504 153.558 37.504L127.71 8.92L127.71 26.2C127.71 28.264 127.83 29.824 128.07 30.88C128.358 31.936 128.814 32.68 129.438 33.112C130.062 33.544 130.974 33.808 132.174 33.904C132.414 34.672 132.534 35.752 132.534 37.144C129.942 37.048 127.806 37 126.126 37C123.87 37 121.686 37.048 119.574 37.144C119.574 35.752 119.694 34.672 119.934 33.904C121.134 33.808 122.022 33.544 122.598 33.112C123.222 32.68 123.654 31.936 123.894 30.88C124.182 29.824 124.326 28.264 124.326 26.2L124.326 5.176L124.254 5.104C123.918 4.768 123.486 4.552 122.958 4.456C122.43 4.312 121.422 4.192 119.934 4.096C119.694 3.232 119.574 2.152 119.574 0.855998C121.302 0.951999 122.982 1 124.614 1C126.102 1 127.614 0.951999 129.15 0.855998L153.126 27.712L153.126 11.656C153.126 9.64 152.982 8.128 152.694 7.12C152.454 6.064 152.022 5.32 151.398 4.888C150.774 4.456 149.838 4.192 148.59 4.096C148.398 2.992 148.302 1.912 148.302 0.855998C150.702 0.951999 152.766 1 154.494 1ZM205.592 0.855998C205.448 3.448 205.616 6.568 206.096 10.216C205.088 10.648 203.912 10.864 202.568 10.864C202.472 8.56 201.848 6.856 200.696 5.752C199.592 4.648 197.84 4.096 195.44 4.096H192.272L192.272 28.792C192.272 30.28 192.392 31.384 192.632 32.104C192.92 32.776 193.4 33.256 194.072 33.544C194.792 33.832 195.872 34.024 197.312 34.12C197.552 34.696 197.672 35.704 197.672 37.144C194.12 37.048 191.216 37 188.96 37C186.176 37 183.2 37.048 180.032 37.144C180.032 35.704 180.152 34.696 180.392 34.12C181.832 34.024 182.912 33.832 183.632 33.544C184.4 33.256 184.928 32.752 185.216 32.032C185.504 31.312 185.648 30.232 185.648 28.792L185.648 4.096L182.696 4.096C180.776 4.096 179.288 4.36 178.232 4.888C177.224 5.368 176.48 6.064 176 6.976C175.52 7.888 175.112 9.184 174.776 10.864C173.24 10.864 172.112 10.648 171.392 10.216C172.112 6.952 172.472 3.832 172.472 0.855998C174.968 0.951999 180.464 1 188.96 1C197.6 1 203.144 0.951999 205.592 0.855998ZM217.058 37.144C217.058 35.656 217.178 34.576 217.418 33.904C218.618 33.808 219.506 33.616 220.082 33.328C220.706 33.04 221.138 32.536 221.378 31.816C221.618 31.096 221.738 30.016 221.738 28.576L221.738 9.352C221.738 7.96 221.618 6.904 221.378 6.184C221.138 5.464 220.706 4.96 220.082 4.672C219.506 4.384 218.618 4.192 217.418 4.096C217.178 3.376 217.058 2.296 217.058 0.855998C220.13 0.951999 222.818 1 225.122 1C227.042 1 229.682 0.951999 233.042 0.855998C233.042 2.344 232.946 3.424 232.754 4.096C231.026 4.192 229.85 4.576 229.226 5.248C228.65 5.92 228.362 7.288 228.362 9.352L228.362 28.576C228.362 30.64 228.65 32.032 229.226 32.752C229.85 33.424 231.026 33.808 232.754 33.904C232.946 34.624 233.042 35.704 233.042 37.144C229.778 37.048 227.138 37 225.122 37C222.722 37 220.034 37.048 217.058 37.144ZM281.067 1C282.891 1 284.907 0.951999 287.115 0.855998C287.115 2.296 287.019 3.376 286.827 4.096C285.819 4.192 285.051 4.456 284.523 4.888C283.995 5.32 283.611 6.064 283.371 7.12C283.179 8.128 283.083 9.64 283.083 11.656L283.083 37.072C282.459 37.36 281.475 37.504 280.131 37.504L254.283 8.92L254.283 26.2C254.283 28.264 254.403 29.824 254.643 30.88C254.931 31.936 255.387 32.68 256.011 33.112C256.635 33.544 257.547 33.808 258.747 33.904C258.987 34.672 259.107 35.752 259.107 37.144C256.515 37.048 254.379 37 252.699 37C250.443 37 248.259 37.048 246.147 37.144C246.147 35.752 246.267 34.672 246.507 33.904C247.707 33.808 248.595 33.544 249.171 33.112C249.795 32.68 250.227 31.936 250.467 30.88C250.755 29.824 250.899 28.264 250.899 26.2L250.899 5.176L250.827 5.104C250.491 4.768 250.059 4.552 249.531 4.456C249.003 4.312 247.995 4.192 246.507 4.096C246.267 3.232 246.147 2.152 246.147 0.855998C247.875 0.951999 249.555 1 251.187 1C252.675 1 254.187 0.951999 255.723 0.855998L279.699 27.712L279.699 11.656C279.699 9.64 279.555 8.128 279.267 7.12C279.027 6.064 278.595 5.32 277.971 4.888C277.347 4.456 276.411 4.192 275.163 4.096C274.971 2.992 274.875 1.912 274.875 0.855998C277.275 0.951999 279.339 1 281.067 1ZM319.638 37.504C315.51 37.504 311.862 36.712 308.694 35.128C305.526 33.544 303.054 31.336 301.278 28.504C299.55 25.624 298.686 22.336 298.686 18.64C298.686 14.8 299.718 11.536 301.782 8.848C303.846 6.112 306.558 4.048 309.918 2.656C313.278 1.264 316.878 0.567997 320.718 0.567997C323.646 0.567997 326.43 0.807997 329.07 1.288C331.758 1.72 334.014 2.344 335.838 3.16C335.406 4.984 335.19 7.744 335.19 11.44C334.326 11.824 333.102 12.016 331.518 12.016C331.374 8.992 330.39 6.856 328.566 5.608C326.742 4.36 324.27 3.736 321.15 3.736C317.838 3.736 315.03 4.36 312.726 5.608C310.47 6.856 308.79 8.536 307.686 10.648C306.582 12.712 306.03 14.968 306.03 17.416C306.03 22.312 307.302 26.296 309.846 29.368C312.438 32.44 316.11 33.976 320.862 33.976C322.35 33.976 323.502 33.952 324.318 33.904C325.134 33.856 325.974 33.712 326.838 33.472C327.606 33.28 328.158 32.92 328.494 32.392C328.83 31.816 328.998 30.88 328.998 29.584L328.998 27.352C328.998 25.96 328.878 24.976 328.638 24.4C328.398 23.776 327.918 23.368 327.198 23.176C326.478 22.936 325.302 22.792 323.67 22.744C323.382 21.88 323.238 20.776 323.238 19.432C324.342 19.528 326.958 19.576 331.086 19.576C335.166 19.576 337.686 19.528 338.646 19.432C338.646 20.776 338.526 21.88 338.286 22.744C337.374 22.792 336.726 22.936 336.342 23.176C335.958 23.368 335.694 23.752 335.55 24.328C335.406 24.856 335.334 25.72 335.334 26.92L335.334 28.72C335.334 29.824 335.382 30.712 335.478 31.384C335.622 32.008 335.862 32.68 336.198 33.4C334.278 34.648 331.878 35.656 328.998 36.424C326.166 37.144 323.046 37.504 319.638 37.504Z" fill="white"/>
</svg>
