<svg width="233" height="26" viewBox="0 0 233 26" fill="none" xmlns="http://www.w3.org/2000/svg">
<path d="M15.2979 13.192L14.8422 12.5962L14.8337 12.6029L15.2979 13.192ZM15.2019 4.744L14.6793 5.28196L14.6871 5.28953L14.6951 5.29686L15.2019 4.744ZM7.90586 3.4L7.73083 2.67071L7.15586 2.8087V3.4H7.90586ZM11.7459 22.936L12.4574 22.6988L12.2945 22.2102L11.7799 22.1868L11.7459 22.936ZM11.9859 25.096L11.9591 25.8455L12.7359 25.8733V25.096H11.9859ZM0.369863 25.096H-0.380137V25.8766L0.399839 25.8454L0.369863 25.096ZM0.609863 22.936L0.567075 22.1872L0.0707581 22.2156L-0.0964437 22.6837L0.609863 22.936ZM2.86586 22.168L2.29909 21.6768L2.29642 21.6799L2.86586 22.168ZM3.24986 4.456L3.96138 4.21883L3.96138 4.21883L3.24986 4.456ZM2.38586 3.448L2.05045 4.11882L2.06093 4.12406L2.07157 4.12897L2.38586 3.448ZM0.609863 3.064L-0.10165 3.30117L0.0553035 3.77203L0.550054 3.81161L0.609863 3.064ZM0.369863 0.903998L0.385817 0.154168L-0.380137 0.137871V0.903998H0.369863ZM6.27386 1L6.27386 1.7501L6.28636 1.7499L6.27386 1ZM12.0339 0.903998L12.0339 0.153894L12.0214 0.154103L12.0339 0.903998ZM19.2819 2.968L19.7823 2.40937L19.7823 2.40937L19.2819 2.968ZM20.4819 12.472L21.132 12.8459L21.132 12.8459L20.4819 12.472ZM17.1699 15.544L16.8229 14.879L16.8169 14.8822L17.1699 15.544ZM9.00986 16.36L8.2674 16.4661L8.33396 16.932L8.78246 17.0747L9.00986 16.36ZM9.05786 14.296L9.20495 13.5606L8.55572 13.4307L8.34635 14.0588L9.05786 14.296ZM11.1699 15.19C12.9894 15.19 14.5424 14.742 15.762 13.7811L14.8337 12.6029C13.9414 13.3059 12.7423 13.69 11.1699 13.69V15.19ZM15.7535 13.7878C17.0939 12.7627 17.6799 11.118 17.6799 9.064H16.1799C16.1799 10.85 15.6778 11.9573 14.8423 12.5962L15.7535 13.7878ZM17.6799 9.064C17.6799 7.06825 17.0419 5.41326 15.7087 4.19113L14.6951 5.29686C15.6658 6.18674 16.1799 7.41175 16.1799 9.064H17.6799ZM15.7245 4.20604C14.4084 2.92762 12.4537 2.362 10.0179 2.362V3.862C12.2541 3.862 13.7553 4.38438 14.6793 5.28196L15.7245 4.20604ZM10.0179 2.362C9.33437 2.362 8.56947 2.46944 7.73083 2.67071L8.08089 4.12929C8.84226 3.94656 9.48535 3.862 10.0179 3.862V2.362ZM7.15586 3.4V18.856H8.65586V3.4H7.15586ZM7.15586 18.856C7.15586 20.407 7.44318 21.71 8.23953 22.5063L9.30019 21.4457C8.94455 21.09 8.65586 20.313 8.65586 18.856H7.15586ZM8.23953 22.5063C9.01568 23.2825 10.2422 23.6184 11.7118 23.6852L11.7799 22.1868C10.4336 22.1256 9.67605 21.8215 9.30019 21.4457L8.23953 22.5063ZM11.0344 23.1732C11.1553 23.5359 11.2359 24.1579 11.2359 25.096H12.7359C12.7359 24.1141 12.6565 23.2961 12.4574 22.6988L11.0344 23.1732ZM12.0126 24.3465C10.2111 24.2821 8.34617 24.25 6.41786 24.25V25.75C8.32956 25.75 10.1766 25.7819 11.9591 25.8455L12.0126 24.3465ZM6.41786 24.25C3.98041 24.25 1.95357 24.2821 0.339887 24.3466L0.399839 25.8454C1.98616 25.7819 3.99132 25.75 6.41786 25.75V24.25ZM1.11986 25.096C1.11986 24.1174 1.20219 23.5074 1.31617 23.1883L-0.0964437 22.6837C-0.302469 23.2606 -0.380137 24.0906 -0.380137 25.096H1.11986ZM0.65265 23.6848C1.81206 23.6185 2.84011 23.3505 3.43531 22.6561L2.29642 21.6799C2.12361 21.8815 1.64766 22.1255 0.567075 22.1872L0.65265 23.6848ZM3.43263 22.6592C3.75233 22.2903 3.947 21.8056 4.06571 21.276C4.18581 20.7402 4.23986 20.105 4.23986 19.384H2.73986C2.73986 20.039 2.68991 20.5558 2.60202 20.948C2.51272 21.3464 2.39539 21.5657 2.2991 21.6768L3.43263 22.6592ZM4.23986 19.384V6.568H2.73986V19.384H4.23986ZM4.23986 6.568C4.23986 5.61483 4.1599 4.81441 3.96138 4.21883L2.53835 4.69317C2.65982 5.05759 2.73986 5.66517 2.73986 6.568H4.23986ZM3.96138 4.21883C3.74347 3.56512 3.32483 3.05534 2.70016 2.76703L2.07157 4.12897C2.2789 4.22466 2.43625 4.38688 2.53835 4.69317L3.96138 4.21883ZM2.72127 2.77718C2.20574 2.51941 1.49691 2.38257 0.669672 2.31639L0.550054 3.81161C1.32282 3.87343 1.79798 3.99258 2.05045 4.11882L2.72127 2.77718ZM1.32138 2.82683C1.20046 2.46408 1.11986 1.84211 1.11986 0.903998H-0.380137C-0.380137 1.88589 -0.300734 2.70392 -0.10165 3.30117L1.32138 2.82683ZM0.353909 1.65383C3.36012 1.71779 5.33641 1.75 6.27386 1.75V0.25C5.35532 0.25 3.39561 0.218207 0.385817 0.154168L0.353909 1.65383ZM6.28636 1.7499L12.0464 1.65389L12.0214 0.154103L6.26137 0.250104L6.28636 1.7499ZM12.0339 1.654C15.2499 1.654 17.4449 2.32932 18.7814 3.52663L19.7823 2.40937C18.0468 0.85468 15.4098 0.153998 12.0339 0.153998V1.654ZM18.7814 3.52663C20.1516 4.75407 20.8359 6.30761 20.8359 8.248H22.3359C22.3359 5.90039 21.4841 3.93393 19.7823 2.40937L18.7814 3.52663ZM20.8359 8.248C20.8359 9.65831 20.4996 10.9366 19.8317 12.0981L21.132 12.8459C21.9361 11.4474 22.3359 9.90969 22.3359 8.248H20.8359ZM19.8317 12.0981C19.1756 13.2392 18.1844 14.1687 16.8229 14.8791L17.5168 16.2089C19.0993 15.3833 20.3162 14.2648 21.132 12.8459L19.8317 12.0981ZM16.8169 14.8822C15.5098 15.5794 13.8935 15.946 11.9379 15.946V17.446C14.0782 17.446 15.9499 17.0446 17.5228 16.2058L16.8169 14.8822ZM11.9379 15.946C10.7216 15.946 9.8343 15.8353 9.23727 15.6453L8.78246 17.0747C9.59343 17.3327 10.6581 17.446 11.9379 17.446V15.946ZM9.75233 16.2539C9.68937 15.8132 9.66386 15.5205 9.66386 15.352H8.16386C8.16386 15.6315 8.20236 16.0108 8.2674 16.4661L9.75233 16.2539ZM9.66386 15.352C9.66386 14.9889 9.70635 14.7222 9.76938 14.5332L8.34635 14.0588C8.21737 14.4458 8.16386 14.8831 8.16386 15.352H9.66386ZM8.91078 15.0314C9.46471 15.1422 10.228 15.19 11.1699 15.19V13.69C10.2557 13.69 9.61102 13.6418 9.20495 13.5606L8.91078 15.0314ZM53.828 22.936L54.5395 22.6988L54.3859 22.2381L53.9026 22.1897L53.828 22.936ZM54.068 25.096L54.0305 25.8451L54.818 25.8844V25.096H54.068ZM44.036 25.096H43.286V25.8844L44.0734 25.8451L44.036 25.096ZM44.324 22.936L44.227 22.1923L43.803 22.2476L43.6346 22.6406L44.324 22.936ZM45.86 22.552L46.2242 23.2076L46.2351 23.2015L46.2459 23.1951L45.86 22.552ZM45.86 20.248L46.5428 19.9376L46.54 19.9317L45.86 20.248ZM44.9 18.184L45.58 17.8677L45.3783 17.434H44.9V18.184ZM34.004 18.424L33.9589 17.6754L33.4945 17.7033L33.3133 18.1318L34.004 18.424ZM33.476 19.672L34.1638 19.9711L34.1667 19.9642L33.476 19.672ZM34.964 22.936L35.6755 22.6988L35.5215 22.2368L35.0368 22.1895L34.964 22.936ZM35.252 25.096L35.2126 25.845L36.002 25.8865V25.096H35.252ZM27.86 25.096H27.11V25.8943L27.9068 25.8445L27.86 25.096ZM28.148 22.936L28.0138 22.1981L27.555 22.2815L27.4268 22.73L28.148 22.936ZM29.78 22.072L30.3494 22.5601L30.3577 22.5504L30.3656 22.5405L29.78 22.072ZM31.316 19.24L31.9988 19.5504L31.9996 19.5486L31.316 19.24ZM39.572 0.951998L39.4175 0.218085L39.045 0.296496L38.8884 0.643404L39.572 0.951998ZM41.492 0.76L42.1677 0.434532L41.9632 0.0100002H41.492V0.76ZM50.324 19.096L51.0006 18.7724L50.9997 18.7705L50.324 19.096ZM52.1 22.072L51.5528 22.585L51.5611 22.5938L51.5697 22.6023L52.1 22.072ZM43.94 16.216V16.966H45.1278L44.6171 15.8935L43.94 16.216ZM41.06 10.168L41.7372 9.84553L41.7333 9.83768L41.06 10.168ZM39.332 6.136L40.0458 5.90575L39.3291 3.68413L38.6177 5.90742L39.332 6.136ZM38.372 8.536L37.6957 8.2114L37.6902 8.22351L38.372 8.536ZM37.7 9.976L37.0292 9.64059L37.0207 9.65751L37.0131 9.67483L37.7 9.976ZM34.964 16.216L34.2771 15.9148L33.8162 16.966H34.964V16.216ZM53.1165 23.1732C53.2374 23.5359 53.318 24.1579 53.318 25.096H54.818C54.818 24.1141 54.7386 23.2961 54.5395 22.6988L53.1165 23.1732ZM54.1054 24.3469C52.808 24.2821 51.1463 24.25 49.124 24.25V25.75C51.1337 25.75 52.768 25.7819 54.0305 25.8451L54.1054 24.3469ZM49.124 24.25C47.0064 24.25 45.2964 24.282 43.9985 24.3469L44.0734 25.8451C45.3356 25.782 47.0176 25.75 49.124 25.75V24.25ZM44.786 25.096C44.786 24.1221 44.8847 23.5317 45.0133 23.2314L43.6346 22.6406C43.3793 23.2363 43.286 24.0859 43.286 25.096H44.786ZM44.421 23.6797C45.1625 23.583 45.8008 23.4429 46.2242 23.2076L45.4958 21.8964C45.3432 21.9811 44.9574 22.097 44.227 22.1923L44.421 23.6797ZM46.2459 23.1951C46.7752 22.8775 47.09 22.3702 47.09 21.736H45.59C45.59 21.7941 45.5781 21.8159 45.5735 21.8237C45.5678 21.8336 45.5463 21.8656 45.4741 21.9089L46.2459 23.1951ZM47.09 21.736C47.09 21.4746 47.0217 21.1902 46.9338 20.9177C46.8419 20.6329 46.7095 20.3046 46.5428 19.9376L45.1772 20.5584C45.3304 20.8954 45.4381 21.1671 45.5062 21.3783C45.5783 21.6018 45.59 21.7094 45.59 21.736H47.09ZM46.54 19.9317L45.58 17.8677L44.2199 18.5003L45.1799 20.5643L46.54 19.9317ZM44.9 17.434C40.2861 17.434 36.6369 17.514 33.9589 17.6754L34.0491 19.1726C36.6831 19.014 40.2979 18.934 44.9 18.934V17.434ZM33.3133 18.1318L32.7853 19.3798L34.1667 19.9642L34.6947 18.7162L33.3133 18.1318ZM32.7882 19.373C32.4582 20.1319 32.246 20.8245 32.246 21.4H33.746C33.746 21.1435 33.8538 20.6841 34.1638 19.971L32.7882 19.373ZM32.246 21.4C32.246 22.0586 32.5009 22.637 33.0265 23.0472C33.5144 23.428 34.1691 23.612 34.8912 23.6825L35.0368 22.1895C34.4469 22.132 34.1175 21.996 33.9494 21.8648C33.8191 21.763 33.746 21.6374 33.746 21.4H32.246ZM34.2525 23.1732C34.4107 23.6479 34.502 24.2814 34.502 25.096H36.002C36.002 24.1826 35.9013 23.3761 35.6755 22.6988L34.2525 23.1732ZM35.2914 24.347C34.0602 24.2822 32.7188 24.25 31.268 24.25V25.75C32.6971 25.75 34.0118 25.7818 35.2126 25.845L35.2914 24.347ZM31.268 24.25C30.0076 24.25 28.8557 24.2823 27.8132 24.3475L27.9068 25.8445C28.9123 25.7817 30.0324 25.75 31.268 25.75V24.25ZM28.61 25.096C28.61 24.3909 28.6981 23.7408 28.8691 23.142L27.4268 22.73C27.2139 23.4752 27.11 24.2651 27.11 25.096H28.61ZM28.2822 23.6739C29.1183 23.5219 29.8309 23.165 30.3494 22.5601L29.2105 21.5839C28.9611 21.875 28.5857 22.0941 28.0138 22.1981L28.2822 23.6739ZM30.3656 22.5405C30.815 21.9789 31.3603 20.955 31.9988 19.5504L30.6332 18.9296C29.9917 20.341 29.513 21.2051 29.1943 21.6035L30.3656 22.5405ZM31.9996 19.5486L40.2556 1.26059L38.8884 0.643404L30.6324 18.9314L31.9996 19.5486ZM39.7265 1.68591C40.2798 1.56944 40.8677 1.51 41.492 1.51V0.0100002C40.7723 0.0100002 40.0802 0.0785624 39.4175 0.218085L39.7265 1.68591ZM40.8163 1.08547L49.6483 19.4215L50.9997 18.7705L42.1677 0.434532L40.8163 1.08547ZM49.6474 19.4196C50.3524 20.8936 50.9861 21.9805 51.5528 22.585L52.6471 21.559C52.2539 21.1395 51.7036 20.2424 51.0006 18.7724L49.6474 19.4196ZM51.5697 22.6023C52.1878 23.2204 52.9194 23.5989 53.7534 23.6823L53.9026 22.1897C53.4565 22.1451 53.0362 21.9476 52.6303 21.5417L51.5697 22.6023ZM44.6171 15.8935L41.7371 9.84555L40.3828 10.4904L43.2628 16.5384L44.6171 15.8935ZM41.7333 9.83768C40.9067 8.15256 40.3492 6.84646 40.0458 5.90575L38.6182 6.36625C38.9548 7.40954 39.5493 8.79144 40.3866 10.4983L41.7333 9.83768ZM38.6177 5.90742C38.3727 6.6728 38.0658 7.44079 37.6958 8.21145L39.0481 8.86055C39.4462 8.03121 39.7792 7.19919 40.0463 6.36458L38.6177 5.90742ZM37.6902 8.22351C37.3363 8.9957 37.1182 9.4625 37.0292 9.64059L38.3708 10.3114C38.4738 10.1055 38.7037 9.6123 39.0538 8.84849L37.6902 8.22351ZM37.0131 9.67483L34.2771 15.9148L35.6509 16.5172L38.3869 10.2772L37.0131 9.67483ZM34.964 16.966H43.94V15.466H34.964V16.966ZM62.2636 25.096H61.5136V25.8706L62.2878 25.8456L62.2636 25.096ZM62.5036 22.936L62.4438 22.1884L61.9604 22.2271L61.7973 22.6837L62.5036 22.936ZM64.2796 22.552L63.9653 21.871L63.9547 21.8759L63.9442 21.8812L64.2796 22.552ZM65.1436 4.456L65.8551 4.21883L65.8551 4.21883L65.1436 4.456ZM64.2796 3.448L63.9442 4.11882L63.9547 4.12406L63.9653 4.12897L64.2796 3.448ZM62.5036 3.064L61.7921 3.30117L61.9491 3.77203L62.4438 3.81161L62.5036 3.064ZM62.2636 0.903998L62.287 0.154364L61.5136 0.130194V0.903998H62.2636ZM72.9196 0.903998H73.6696V0.132263L72.8982 0.154304L72.9196 0.903998ZM72.7276 3.064L72.7692 3.81284L73.3021 3.78324L73.4488 3.27004L72.7276 3.064ZM70.3756 3.832L69.826 3.32166L69.8159 3.33259L69.8062 3.34391L70.3756 3.832ZM70.3756 22.168L69.79 22.6365L69.8072 22.6581L69.826 22.6783L70.3756 22.168ZM72.7276 22.936L73.4523 22.7428L73.3122 22.2173L72.7692 22.1872L72.7276 22.936ZM72.9196 25.096L72.8976 25.8457L73.6696 25.8684V25.096H72.9196ZM63.0136 25.096C63.0136 24.1174 63.0959 23.5074 63.2099 23.1883L61.7973 22.6837C61.5913 23.2606 61.5136 24.0906 61.5136 25.096H63.0136ZM62.5634 23.6836C63.3907 23.6174 64.0995 23.4806 64.615 23.2228L63.9442 21.8812C63.6917 22.0074 63.2166 22.1266 62.4438 22.1884L62.5634 23.6836ZM64.5939 23.233C65.2186 22.9447 65.6372 22.4349 65.8551 21.7812L64.4321 21.3068C64.33 21.6131 64.1726 21.7753 63.9653 21.871L64.5939 23.233ZM65.8551 21.7812C66.0542 21.1839 66.1336 20.3659 66.1336 19.384H64.6336C64.6336 20.3221 64.553 20.9441 64.4321 21.3068L65.8551 21.7812ZM66.1336 19.384V6.568H64.6336V19.384H66.1336ZM66.1336 6.568C66.1336 5.61483 66.0537 4.81441 65.8551 4.21883L64.4321 4.69317C64.5536 5.05759 64.6336 5.66517 64.6336 6.568H66.1336ZM65.8551 4.21883C65.6372 3.56512 65.2186 3.05534 64.5939 2.76703L63.9653 4.12897C64.1726 4.22466 64.33 4.38688 64.4321 4.69317L65.8551 4.21883ZM64.615 2.77718C64.0995 2.51941 63.3907 2.38257 62.5634 2.31639L62.4438 3.81161C63.2166 3.87343 63.6917 3.99258 63.9442 4.11882L64.615 2.77718ZM63.2151 2.82683C63.0942 2.46408 63.0136 1.84211 63.0136 0.903998H61.5136C61.5136 1.88589 61.593 2.70392 61.7921 3.30117L63.2151 2.82683ZM62.2402 1.65363C64.2936 1.7178 66.0937 1.75 67.6396 1.75V0.25C66.1135 0.25 64.3296 0.218196 62.287 0.154364L62.2402 1.65363ZM67.6396 1.75C68.9301 1.75 70.6983 1.71777 72.941 1.65369L72.8982 0.154304C70.6609 0.218228 68.9091 0.25 67.6396 0.25V1.75ZM72.1696 0.903998C72.1696 1.88647 72.1039 2.51713 72.0065 2.85796L73.4488 3.27004C73.6074 2.71487 73.6696 1.90553 73.6696 0.903998H72.1696ZM72.686 2.31515C71.4929 2.38144 70.4506 2.64908 69.826 3.32166L70.9252 4.34234C71.1327 4.11892 71.6583 3.87456 72.7692 3.81284L72.686 2.31515ZM69.8062 3.34391C69.498 3.70347 69.3181 4.18274 69.2097 4.69749C69.0993 5.22211 69.0496 5.85015 69.0496 6.568H70.5496C70.5496 5.90985 70.596 5.39389 70.6775 5.00651C70.7612 4.60925 70.8693 4.40853 70.9451 4.32009L69.8062 3.34391ZM69.0496 6.568V19.384H70.5496V6.568H69.0496ZM69.0496 19.384C69.0496 20.1023 69.0993 20.7331 69.2092 21.264C69.3174 21.7869 69.4948 22.2676 69.79 22.6365L70.9613 21.6995C70.8724 21.5884 70.7619 21.3651 70.6781 20.96C70.5959 20.5629 70.5496 20.0417 70.5496 19.384H69.0496ZM69.826 22.6783C70.4506 23.3509 71.4929 23.6186 72.686 23.6848L72.7692 22.1872C71.6583 22.1254 71.1327 21.8811 70.9252 21.6577L69.826 22.6783ZM72.0029 23.1292C72.105 23.5121 72.1696 24.1526 72.1696 25.096H73.6696C73.6696 24.1194 73.6062 23.3199 73.4523 22.7428L72.0029 23.1292ZM72.9417 24.3463C70.7622 24.2822 68.994 24.25 67.6396 24.25V25.75C68.9732 25.75 70.725 25.7818 72.8976 25.8457L72.9417 24.3463ZM67.6396 24.25C66.0299 24.25 64.2297 24.2822 62.2394 24.3464L62.2878 25.8456C64.2656 25.7818 66.0493 25.75 67.6396 25.75V24.25ZM109.929 0.903998H110.679V0.120681L109.896 0.154706L109.929 0.903998ZM109.737 3.064L109.808 3.81062L110.327 3.76117L110.461 3.25725L109.737 3.064ZM107.433 5.08L106.701 4.91378L106.698 4.92668L106.696 4.93966L107.433 5.08ZM107.241 25.048L107.555 25.729L107.991 25.5279V25.048H107.241ZM105.273 25.336L104.716 25.839L104.94 26.086H105.273V25.336ZM88.0407 6.28L88.597 5.77696L87.2907 4.33241V6.28H88.0407ZM88.2807 20.92L87.5494 21.0862L87.5529 21.1019L87.5572 21.1173L88.2807 20.92ZM89.1927 22.408L89.6196 21.7914L89.6196 21.7914L89.1927 22.408ZM91.0167 22.936L91.7326 22.7123L91.5815 22.2288L91.0765 22.1884L91.0167 22.936ZM91.2567 25.096L91.229 25.8455L92.0067 25.8743V25.096H91.2567ZM82.6167 25.096H81.8667V25.8809L82.6508 25.8452L82.6167 25.096ZM82.8567 22.936L82.7969 22.1884L82.292 22.2288L82.1409 22.7123L82.8567 22.936ZM84.6327 22.408L84.2058 21.7914L84.1941 21.7995L84.1827 21.808L84.6327 22.408ZM85.4967 20.92L84.7732 20.7227L84.7689 20.7381L84.7654 20.7538L85.4967 20.92ZM85.7847 3.784H86.5347V3.47334L86.3151 3.25366L85.7847 3.784ZM85.7367 3.736L85.2064 4.26633L85.2064 4.26633L85.7367 3.736ZM84.8727 3.304L84.6754 4.02757L84.7067 4.0361L84.7386 4.0419L84.8727 3.304ZM82.8567 3.064L82.1341 3.26473L82.2767 3.77814L82.8084 3.81244L82.8567 3.064ZM82.6167 0.903998L82.6583 0.155153L81.8667 0.111174V0.903998H82.6167ZM89.0007 0.903998L89.5602 0.404516L89.3176 0.132732L88.954 0.155459L89.0007 0.903998ZM104.985 18.808L104.425 19.3075L105.735 20.7743V18.808H104.985ZM104.697 5.08L103.965 5.24621L103.97 5.26627L103.976 5.28604L104.697 5.08ZM101.961 3.064L101.222 3.19251L101.322 3.76706L101.903 3.81179L101.961 3.064ZM101.769 0.903998L101.799 0.154598L101.019 0.123398V0.903998H101.769ZM105.897 1.75C107.126 1.75 108.481 1.71767 109.961 1.65329L109.896 0.154706C108.433 0.21833 107.1 0.25 105.897 0.25V1.75ZM109.179 0.903998C109.179 1.84742 109.114 2.48792 109.012 2.87075L110.461 3.25725C110.615 2.68008 110.679 1.88058 110.679 0.903998H109.179ZM109.666 2.31738C108.913 2.38904 108.236 2.59394 107.726 3.01153L108.676 4.17247C108.869 4.01405 109.216 3.86695 109.808 3.81062L109.666 2.31738ZM107.726 3.01153C107.188 3.45138 106.878 4.13623 106.701 4.91378L108.164 5.24621C108.307 4.61577 108.509 4.30862 108.676 4.17247L107.726 3.01153ZM106.696 4.93966C106.554 5.68329 106.491 6.74876 106.491 8.104H107.991C107.991 6.77124 108.055 5.82071 108.169 5.22033L106.696 4.93966ZM106.491 8.104V25.048H107.991V8.104H106.491ZM106.926 24.367C106.664 24.4881 106.144 24.586 105.273 24.586V26.086C106.193 26.086 106.985 25.9919 107.555 25.729L106.926 24.367ZM105.829 24.833L88.597 5.77696L87.4845 6.78304L104.716 25.839L105.829 24.833ZM87.2907 6.28V17.8H88.7907V6.28H87.2907ZM87.2907 17.8C87.2907 19.1913 87.3704 20.2987 87.5494 21.0862L89.0121 20.7538C88.8711 20.1333 88.7907 19.1607 88.7907 17.8H87.2907ZM87.5572 21.1173C87.7755 21.9179 88.1523 22.5999 88.7658 23.0246L89.6196 21.7914C89.4012 21.6401 89.17 21.3301 89.0043 20.7227L87.5572 21.1173ZM88.7658 23.0246C89.3365 23.4197 90.0951 23.6147 90.9569 23.6836L91.0765 22.1884C90.3384 22.1293 89.881 21.9723 89.6196 21.7914L88.7658 23.0246ZM90.3009 23.1597C90.4276 23.5652 90.5067 24.1971 90.5067 25.096H92.0067C92.0067 24.1389 91.9259 23.3308 91.7326 22.7123L90.3009 23.1597ZM91.2845 24.3465C89.5516 24.2823 88.1175 24.25 86.9847 24.25V25.75C88.0919 25.75 89.5058 25.7817 91.229 25.8455L91.2845 24.3465ZM86.9847 24.25C85.4701 24.25 84.0027 24.2822 82.5827 24.3468L82.6508 25.8452C84.0467 25.7818 85.4913 25.75 86.9847 25.75V24.25ZM83.3667 25.096C83.3667 24.1971 83.4459 23.5652 83.5726 23.1597L82.1409 22.7123C81.9476 23.3308 81.8667 24.1389 81.8667 25.096H83.3667ZM82.9165 23.6836C83.7731 23.6151 84.5324 23.4208 85.0827 23.008L84.1827 21.808C83.9651 21.9712 83.5404 22.1289 82.7969 22.1884L82.9165 23.6836ZM85.0596 23.0246C85.6848 22.5918 86.0442 21.8955 86.2281 21.0862L84.7654 20.7538C84.6293 21.3525 84.4127 21.6482 84.2058 21.7914L85.0596 23.0246ZM86.2203 21.1173C86.4391 20.3152 86.5347 19.1949 86.5347 17.8H85.0347C85.0347 19.1571 84.9384 20.1168 84.7732 20.7227L86.2203 21.1173ZM86.5347 17.8V3.784H85.0347V17.8H86.5347ZM86.3151 3.25366L86.2671 3.20567L85.2064 4.26633L85.2544 4.31433L86.3151 3.25366ZM86.2671 3.20567C85.9216 2.86017 85.4888 2.65372 85.0069 2.5661L84.7386 4.0419C84.9606 4.08228 85.1039 4.16383 85.2064 4.26633L86.2671 3.20567ZM85.0701 2.58043C84.6344 2.46162 83.8896 2.37907 82.905 2.31556L82.8084 3.81244C83.8079 3.87692 84.407 3.95438 84.6754 4.02757L85.0701 2.58043ZM83.5794 2.86327C83.4436 2.37456 83.3667 1.72748 83.3667 0.903998H81.8667C81.8667 1.80852 81.9498 2.60143 82.1341 3.26473L83.5794 2.86327ZM82.5751 1.65284C83.7402 1.71757 84.8741 1.75 85.9767 1.75V0.25C84.9034 0.25 83.7973 0.21843 82.6583 0.155153L82.5751 1.65284ZM85.9767 1.75C86.9849 1.75 88.0085 1.71748 89.0475 1.65254L88.954 0.155459C87.945 0.21852 86.9526 0.25 85.9767 0.25V1.75ZM88.4413 1.40348L104.425 19.3075L105.544 18.3085L89.5602 0.404516L88.4413 1.40348ZM105.735 18.808V8.104H104.235V18.808H105.735ZM105.735 8.104C105.735 6.74197 105.639 5.64909 105.418 4.87396L103.976 5.28604C104.138 5.85491 104.235 6.77803 104.235 8.104H105.735ZM105.428 4.91378C105.244 4.10452 104.885 3.40816 104.26 2.97536L103.406 4.20864C103.613 4.35184 103.829 4.64747 103.965 5.24621L105.428 4.91378ZM104.26 2.97536C103.685 2.57741 102.906 2.3845 102.018 2.31621L101.903 3.81179C102.679 3.8715 103.149 4.03059 103.406 4.20864L104.26 2.97536ZM102.7 2.93549C102.579 2.23936 102.519 1.56239 102.519 0.903998H101.019C101.019 1.65361 101.087 2.41664 101.222 3.19251L102.7 2.93549ZM101.739 1.6534C103.345 1.71766 104.732 1.75 105.897 1.75V0.25C104.758 0.25 103.392 0.21834 101.799 0.154598L101.739 1.6534ZM140.922 0.903998L141.671 0.945601L141.717 0.122261L140.893 0.154574L140.922 0.903998ZM141.258 7.144L141.554 7.83336L142.076 7.60952L142.002 7.04616L141.258 7.144ZM138.906 7.576L138.157 7.60722L138.187 8.326H138.906V7.576ZM137.658 4.168L137.128 4.69833L137.134 4.70397L137.14 4.70949L137.658 4.168ZM132.042 3.064V2.314H131.292V3.064H132.042ZM132.282 21.736L131.571 21.9732L131.581 22.0028L131.593 22.0314L132.282 21.736ZM133.242 22.696L132.947 23.3854L132.955 23.389L132.964 23.3924L133.242 22.696ZM135.402 23.08L136.095 22.7915L135.916 22.3626L135.452 22.3317L135.402 23.08ZM135.642 25.096L135.622 25.8457L136.392 25.8665V25.096H135.642ZM123.882 25.096H123.132V25.8691L123.905 25.8457L123.882 25.096ZM124.122 23.08L124.073 22.3317L123.609 22.3626L123.43 22.7915L124.122 23.08ZM126.282 22.696L126.019 21.9938L126.012 21.9966L126.004 21.9996L126.282 22.696ZM127.338 21.688L128.035 21.9665L128.035 21.9665L127.338 21.688ZM127.626 3.064H128.376V2.314H127.626V3.064ZM122.682 3.592L123.005 4.26915L123.011 4.26604L123.018 4.26282L122.682 3.592ZM120.378 7.576V8.326H120.993L121.114 7.72309L120.378 7.576ZM118.122 7.144L117.39 6.98244L117.274 7.50945L117.737 7.78712L118.122 7.144ZM118.842 0.903998L118.871 0.154553L118.092 0.124597V0.903998H118.842ZM140.174 0.862396C140.074 2.65172 140.191 4.78107 140.515 7.24184L142.002 7.04616C141.686 4.64293 141.579 2.61228 141.671 0.945601L140.174 0.862396ZM140.963 6.45464C140.403 6.69469 139.723 6.826 138.906 6.826V8.326C139.882 8.326 140.77 8.16931 141.554 7.83336L140.963 6.45464ZM139.656 7.54478C139.587 5.90116 139.137 4.54601 138.177 3.62651L137.14 4.70949C137.716 5.26199 138.098 6.17884 138.157 7.60722L139.656 7.54478ZM138.189 3.63767C137.252 2.70122 135.849 2.314 134.154 2.314V3.814C135.66 3.814 136.593 4.16278 137.128 4.69833L138.189 3.63767ZM134.154 2.314H132.042V3.814H134.154V2.314ZM131.292 3.064V19.528H132.792V3.064H131.292ZM131.292 19.528C131.292 20.5387 131.371 21.3744 131.571 21.9732L132.994 21.4988C132.874 21.1376 132.792 20.5013 132.792 19.528H131.292ZM131.593 22.0314C131.861 22.6565 132.322 23.1175 132.947 23.3854L133.538 22.0066C133.267 21.8905 133.088 21.7115 132.972 21.4406L131.593 22.0314ZM132.964 23.3924C133.555 23.6288 134.369 23.7628 135.353 23.8283L135.452 22.3317C134.516 22.2692 133.89 22.1472 133.521 21.9996L132.964 23.3924ZM134.71 23.3685C134.807 23.6015 134.892 24.1388 134.892 25.096H136.392C136.392 24.1332 136.318 23.3265 136.095 22.7915L134.71 23.3685ZM135.663 24.3463C133.291 24.2822 131.348 24.25 129.834 24.25V25.75C131.329 25.75 133.258 25.7818 135.622 25.8457L135.663 24.3463ZM129.834 24.25C127.97 24.25 125.978 24.2821 123.86 24.3463L123.905 25.8457C126.011 25.7819 127.987 25.75 129.834 25.75V24.25ZM124.632 25.096C124.632 24.1388 124.718 23.6015 124.815 23.3685L123.43 22.7915C123.207 23.3265 123.132 24.1332 123.132 25.096H124.632ZM124.172 23.8283C125.156 23.7628 125.97 23.6288 126.561 23.3924L126.004 21.9996C125.635 22.1472 125.009 22.2692 124.073 22.3317L124.172 23.8283ZM126.546 23.3982C127.242 23.137 127.76 22.6548 128.035 21.9665L126.642 21.4095C126.533 21.6812 126.347 21.871 126.019 21.9938L126.546 23.3982ZM128.035 21.9665C128.281 21.3516 128.376 20.5159 128.376 19.528H126.876C126.876 20.4601 126.78 21.0644 126.642 21.4095L128.035 21.9665ZM128.376 19.528V3.064H126.876V19.528H128.376ZM127.626 2.314H125.658V3.814H127.626V2.314ZM125.658 2.314C124.327 2.314 123.201 2.49436 122.347 2.92118L123.018 4.26282C123.572 3.98564 124.43 3.814 125.658 3.814V2.314ZM122.36 2.91485C121.555 3.2983 120.933 3.8713 120.531 4.63469L121.858 5.33331C122.096 4.88069 122.466 4.5257 123.005 4.26915L122.36 2.91485ZM120.531 4.63469C120.163 5.33444 119.873 6.27845 119.643 7.42891L121.114 7.72309C121.332 6.63355 121.586 5.84955 121.858 5.33331L120.531 4.63469ZM120.378 6.826C119.394 6.826 118.81 6.68206 118.508 6.50088L117.737 7.78712C118.395 8.18194 119.315 8.326 120.378 8.326V6.826ZM118.855 7.30556C119.345 5.08289 119.592 2.9485 119.592 0.903998H118.092C118.092 2.82749 117.86 4.85311 117.39 6.98244L118.855 7.30556ZM118.814 1.65344C120.495 1.71811 124.174 1.75 129.834 1.75V0.25C124.167 0.25 120.518 0.217891 118.871 0.154553L118.814 1.65344ZM129.834 1.75C135.59 1.75 139.302 1.71812 140.952 1.65342L140.893 0.154574C139.279 0.217882 135.599 0.25 129.834 0.25V1.75ZM149.526 25.096H148.776V25.8706L149.55 25.8456L149.526 25.096ZM149.766 22.936L149.706 22.1884L149.223 22.2271L149.06 22.6837L149.766 22.936ZM151.542 22.552L151.228 21.871L151.217 21.8759L151.207 21.8812L151.542 22.552ZM152.406 4.456L153.118 4.21883L153.118 4.21883L152.406 4.456ZM151.542 3.448L151.207 4.11882L151.217 4.12406L151.228 4.12897L151.542 3.448ZM149.766 3.064L149.055 3.30117L149.212 3.77203L149.706 3.81161L149.766 3.064ZM149.526 0.903998L149.55 0.154364L148.776 0.130194V0.903998H149.526ZM160.182 0.903998H160.932V0.132263L160.161 0.154304L160.182 0.903998ZM159.99 3.064L160.032 3.81284L160.565 3.78324L160.711 3.27004L159.99 3.064ZM157.638 3.832L157.089 3.32166L157.078 3.33259L157.069 3.34391L157.638 3.832ZM157.638 22.168L157.052 22.6365L157.07 22.6581L157.089 22.6783L157.638 22.168ZM159.99 22.936L160.715 22.7428L160.575 22.2173L160.032 22.1872L159.99 22.936ZM160.182 25.096L160.16 25.8457L160.932 25.8684V25.096H160.182ZM150.276 25.096C150.276 24.1174 150.358 23.5074 150.472 23.1883L149.06 22.6837C148.854 23.2606 148.776 24.0906 148.776 25.096H150.276ZM149.826 23.6836C150.653 23.6174 151.362 23.4806 151.878 23.2228L151.207 21.8812C150.954 22.0074 150.479 22.1266 149.706 22.1884L149.826 23.6836ZM151.856 23.233C152.481 22.9447 152.9 22.4349 153.118 21.7812L151.695 21.3068C151.593 21.6131 151.435 21.7753 151.228 21.871L151.856 23.233ZM153.118 21.7812C153.317 21.1839 153.396 20.3659 153.396 19.384H151.896C151.896 20.3221 151.816 20.9441 151.695 21.3068L153.118 21.7812ZM153.396 19.384V6.568H151.896V19.384H153.396ZM153.396 6.568C153.396 5.61483 153.316 4.81441 153.118 4.21883L151.695 4.69317C151.816 5.05759 151.896 5.66517 151.896 6.568H153.396ZM153.118 4.21883C152.9 3.56512 152.481 3.05534 151.856 2.76703L151.228 4.12897C151.435 4.22466 151.593 4.38688 151.695 4.69317L153.118 4.21883ZM151.878 2.77718C151.362 2.51941 150.653 2.38257 149.826 2.31639L149.706 3.81161C150.479 3.87343 150.954 3.99258 151.207 4.11882L151.878 2.77718ZM150.478 2.82683C150.357 2.46408 150.276 1.84211 150.276 0.903998H148.776C148.776 1.88589 148.856 2.70392 149.055 3.30117L150.478 2.82683ZM149.503 1.65363C151.556 1.7178 153.356 1.75 154.902 1.75V0.25C153.376 0.25 151.592 0.218196 149.55 0.154364L149.503 1.65363ZM154.902 1.75C156.193 1.75 157.961 1.71777 160.204 1.65369L160.161 0.154304C157.923 0.218228 156.172 0.25 154.902 0.25V1.75ZM159.432 0.903998C159.432 1.88647 159.366 2.51713 159.269 2.85796L160.711 3.27004C160.87 2.71487 160.932 1.90553 160.932 0.903998H159.432ZM159.949 2.31515C158.755 2.38144 157.713 2.64908 157.089 3.32166L158.188 4.34234C158.395 4.11892 158.921 3.87456 160.032 3.81284L159.949 2.31515ZM157.069 3.34391C156.76 3.70347 156.581 4.18274 156.472 4.69749C156.362 5.22211 156.312 5.85015 156.312 6.568H157.812C157.812 5.90985 157.858 5.39389 157.94 5.00651C158.024 4.60925 158.132 4.40853 158.208 4.32009L157.069 3.34391ZM156.312 6.568V19.384H157.812V6.568H156.312ZM156.312 19.384C156.312 20.1023 156.362 20.7331 156.472 21.264C156.58 21.7869 156.757 22.2676 157.052 22.6365L158.224 21.6995C158.135 21.5884 158.024 21.3651 157.941 20.96C157.858 20.5629 157.812 20.0417 157.812 19.384H156.312ZM157.089 22.6783C157.713 23.3509 158.755 23.6186 159.949 23.6848L160.032 22.1872C158.921 22.1254 158.395 21.8811 158.188 21.6577L157.089 22.6783ZM159.265 23.1292C159.368 23.5121 159.432 24.1526 159.432 25.096H160.932C160.932 24.1194 160.869 23.3199 160.715 22.7428L159.265 23.1292ZM160.204 24.3463C158.025 24.2822 156.257 24.25 154.902 24.25V25.75C156.236 25.75 157.988 25.7818 160.16 25.8457L160.204 24.3463ZM154.902 24.25C153.292 24.25 151.492 24.2822 149.502 24.3464L149.55 25.8456C151.528 25.7818 153.312 25.75 154.902 25.75V24.25ZM197.191 0.903998H197.941V0.120681L197.159 0.154706L197.191 0.903998ZM196.999 3.064L197.07 3.81062L197.59 3.76117L197.724 3.25725L196.999 3.064ZM194.695 5.08L193.964 4.91378L193.961 4.92668L193.958 4.93966L194.695 5.08ZM194.503 25.048L194.818 25.729L195.253 25.5279V25.048H194.503ZM192.535 25.336L191.979 25.839L192.202 26.086H192.535V25.336ZM175.303 6.28L175.86 5.77696L174.553 4.33241V6.28H175.303ZM175.543 20.92L174.812 21.0862L174.815 21.1019L174.82 21.1173L175.543 20.92ZM176.455 22.408L176.882 21.7914L176.882 21.7914L176.455 22.408ZM178.279 22.936L178.995 22.7123L178.844 22.2288L178.339 22.1884L178.279 22.936ZM178.519 25.096L178.491 25.8455L179.269 25.8743V25.096H178.519ZM169.879 25.096H169.129V25.8809L169.913 25.8452L169.879 25.096ZM170.119 22.936L170.059 22.1884L169.554 22.2288L169.403 22.7123L170.119 22.936ZM171.895 22.408L171.468 21.7914L171.457 21.7995L171.445 21.808L171.895 22.408ZM172.759 20.92L172.036 20.7227L172.031 20.7381L172.028 20.7538L172.759 20.92ZM173.047 3.784H173.797V3.47334L173.578 3.25366L173.047 3.784ZM172.999 3.736L172.469 4.26633L172.469 4.26633L172.999 3.736ZM172.135 3.304L171.938 4.02757L171.969 4.0361L172.001 4.0419L172.135 3.304ZM170.119 3.064L169.397 3.26473L169.539 3.77814L170.071 3.81244L170.119 3.064ZM169.879 0.903998L169.921 0.155153L169.129 0.111174V0.903998H169.879ZM176.263 0.903998L176.823 0.404516L176.58 0.132732L176.216 0.155459L176.263 0.903998ZM192.247 18.808L191.688 19.3075L192.997 20.7743V18.808H192.247ZM191.959 5.08L191.228 5.24621L191.232 5.26627L191.238 5.28604L191.959 5.08ZM189.223 3.064L188.484 3.19251L188.584 3.76706L189.166 3.81179L189.223 3.064ZM189.031 0.903998L189.061 0.154598L188.281 0.123398V0.903998H189.031ZM193.159 1.75C194.388 1.75 195.743 1.71767 197.224 1.65329L197.159 0.154706C195.695 0.21833 194.362 0.25 193.159 0.25V1.75ZM196.441 0.903998C196.441 1.84742 196.377 2.48792 196.275 2.87075L197.724 3.25725C197.878 2.68008 197.941 1.88058 197.941 0.903998H196.441ZM196.928 2.31738C196.176 2.38904 195.499 2.59394 194.988 3.01153L195.938 4.17247C196.132 4.01405 196.479 3.86695 197.07 3.81062L196.928 2.31738ZM194.988 3.01153C194.451 3.45138 194.141 4.13623 193.964 4.91378L195.427 5.24621C195.57 4.61577 195.772 4.30862 195.938 4.17247L194.988 3.01153ZM193.958 4.93966C193.817 5.68329 193.753 6.74876 193.753 8.104H195.253C195.253 6.77124 195.318 5.82071 195.432 5.22033L193.958 4.93966ZM193.753 8.104V25.048H195.253V8.104H193.753ZM194.189 24.367C193.927 24.4881 193.407 24.586 192.535 24.586V26.086C193.456 26.086 194.248 25.9919 194.818 25.729L194.189 24.367ZM193.092 24.833L175.86 5.77696L174.747 6.78304L191.979 25.839L193.092 24.833ZM174.553 6.28V17.8H176.053V6.28H174.553ZM174.553 17.8C174.553 19.1913 174.633 20.2987 174.812 21.0862L176.275 20.7538C176.134 20.1333 176.053 19.1607 176.053 17.8H174.553ZM174.82 21.1173C175.038 21.9179 175.415 22.5999 176.028 23.0246L176.882 21.7914C176.664 21.6401 176.432 21.3301 176.267 20.7227L174.82 21.1173ZM176.028 23.0246C176.599 23.4197 177.358 23.6147 178.219 23.6836L178.339 22.1884C177.601 22.1293 177.143 21.9723 176.882 21.7914L176.028 23.0246ZM177.563 23.1597C177.69 23.5652 177.769 24.1971 177.769 25.096H179.269C179.269 24.1389 179.188 23.3308 178.995 22.7123L177.563 23.1597ZM178.547 24.3465C176.814 24.2823 175.38 24.25 174.247 24.25V25.75C175.354 25.75 176.768 25.7817 178.491 25.8455L178.547 24.3465ZM174.247 24.25C172.733 24.25 171.265 24.2822 169.845 24.3468L169.913 25.8452C171.309 25.7818 172.754 25.75 174.247 25.75V24.25ZM170.629 25.096C170.629 24.1971 170.708 23.5652 170.835 23.1597L169.403 22.7123C169.21 23.3308 169.129 24.1389 169.129 25.096H170.629ZM170.179 23.6836C171.036 23.6151 171.795 23.4208 172.345 23.008L171.445 21.808C171.228 21.9712 170.803 22.1289 170.059 22.1884L170.179 23.6836ZM172.322 23.0246C172.947 22.5918 173.307 21.8955 173.491 21.0862L172.028 20.7538C171.892 21.3525 171.675 21.6482 171.468 21.7914L172.322 23.0246ZM173.483 21.1173C173.702 20.3152 173.797 19.1949 173.797 17.8H172.297C172.297 19.1571 172.201 20.1168 172.036 20.7227L173.483 21.1173ZM173.797 17.8V3.784H172.297V17.8H173.797ZM173.578 3.25366L173.53 3.20567L172.469 4.26633L172.517 4.31433L173.578 3.25366ZM173.53 3.20567C173.184 2.86017 172.751 2.65372 172.269 2.5661L172.001 4.0419C172.223 4.08228 172.366 4.16383 172.469 4.26633L173.53 3.20567ZM172.333 2.58043C171.897 2.46162 171.152 2.37907 170.168 2.31556L170.071 3.81244C171.07 3.87692 171.67 3.95438 171.938 4.02757L172.333 2.58043ZM170.842 2.86327C170.706 2.37456 170.629 1.72748 170.629 0.903998H169.129C169.129 1.80852 169.212 2.60143 169.397 3.26473L170.842 2.86327ZM169.838 1.65284C171.003 1.71757 172.137 1.75 173.239 1.75V0.25C172.166 0.25 171.06 0.21843 169.921 0.155153L169.838 1.65284ZM173.239 1.75C174.247 1.75 175.271 1.71748 176.31 1.65254L176.216 0.155459C175.207 0.21852 174.215 0.25 173.239 0.25V1.75ZM175.704 1.40348L191.688 19.3075L192.807 18.3085L176.823 0.404516L175.704 1.40348ZM192.997 18.808V8.104H191.497V18.808H192.997ZM192.997 8.104C192.997 6.74197 192.902 5.64909 192.68 4.87396L191.238 5.28604C191.401 5.85491 191.497 6.77803 191.497 8.104H192.997ZM192.691 4.91378C192.507 4.10452 192.147 3.40816 191.522 2.97536L190.668 4.20864C190.875 4.35184 191.092 4.64747 191.228 5.24621L192.691 4.91378ZM191.522 2.97536C190.947 2.57741 190.169 2.3845 189.281 2.31621L189.166 3.81179C189.942 3.8715 190.411 4.03059 190.668 4.20864L191.522 2.97536ZM189.962 2.93549C189.841 2.23936 189.781 1.56239 189.781 0.903998H188.281C188.281 1.65361 188.349 2.41664 188.484 3.19251L189.962 2.93549ZM189.001 1.6534C190.608 1.71766 191.994 1.75 193.159 1.75V0.25C192.02 0.25 190.655 0.21834 189.061 0.154598L189.001 1.6534ZM212.537 23.752L212.202 24.4228L212.202 24.4228L212.537 23.752ZM207.593 19.336L206.95 19.7219L206.954 19.7282L206.958 19.7345L207.593 19.336ZM207.929 6.232L208.524 6.68878L208.528 6.68368L207.929 6.232ZM226.121 1.192L225.987 1.9299L225.994 1.93128L226.002 1.9325L226.121 1.192ZM230.633 2.44L231.363 2.61285L231.506 2.00886L230.939 1.75538L230.633 2.44ZM230.201 7.96L230.506 8.64536L230.951 8.4474V7.96H230.201ZM227.753 8.344L227.004 8.37967L227.038 9.094H227.753V8.344ZM225.785 4.072L226.209 3.45302L226.209 3.45302L225.785 4.072ZM215.225 4.072L214.868 3.4125L214.862 3.41572L215.225 4.072ZM211.865 7.432L212.526 7.78575L212.53 7.77944L211.865 7.432ZM213.305 19.912L212.727 20.3904L212.732 20.3957L213.305 19.912ZM222.953 22.936L222.997 23.6847L222.997 23.6847L222.953 22.936ZM224.633 22.648L224.451 21.9204L224.442 21.9228L224.432 21.9254L224.633 22.648ZM225.737 21.928L226.37 22.3307L226.378 22.3184L226.385 22.3059L225.737 21.928ZM225.833 16.6L225.133 16.8692L225.137 16.8789L225.141 16.8885L225.833 16.6ZM224.873 15.784L224.636 16.4955L224.658 16.5028L224.68 16.5087L224.873 15.784ZM222.521 15.496L221.809 15.7332L221.975 16.2303L222.499 16.2457L222.521 15.496ZM222.233 13.288L222.298 12.5408L221.483 12.47V13.288H222.233ZM232.505 13.288H233.255V12.4593L232.43 12.5417L232.505 13.288ZM232.265 15.496L232.304 16.245L232.843 16.2166L232.988 15.6967L232.265 15.496ZM230.969 15.784L231.304 16.4548L231.336 16.4389L231.366 16.42L230.969 15.784ZM230.441 16.552L231.165 16.7493L231.167 16.7416L231.169 16.7339L230.441 16.552ZM230.393 21.256L229.651 21.3621L229.655 21.3936L229.662 21.4246L230.393 21.256ZM230.873 22.6L231.282 23.2288L231.828 22.8736L231.553 22.2828L230.873 22.6ZM226.073 24.616L226.258 25.3429L226.266 25.3407L226.073 24.616ZM219.833 24.586C217.178 24.586 214.864 24.0771 212.872 23.0812L212.202 24.4228C214.434 25.5389 216.984 26.086 219.833 26.086V24.586ZM212.872 23.0812C210.876 22.0829 209.335 20.7019 208.228 18.9375L206.958 19.7345C208.219 21.7461 209.974 23.3091 212.202 24.4228L212.872 23.0812ZM208.236 18.9501C207.161 17.1582 206.615 15.1021 206.615 12.76H205.115C205.115 15.3459 205.721 17.6738 206.95 19.7219L208.236 18.9501ZM206.615 12.76C206.615 10.3421 207.262 8.33256 208.524 6.68877L207.334 5.77523C205.844 7.71544 205.115 10.0579 205.115 12.76H206.615ZM208.528 6.68368C209.818 4.97302 211.516 3.67696 213.64 2.79689L213.066 1.41111C210.71 2.38703 208.792 3.84298 207.33 5.78032L208.528 6.68368ZM213.64 2.79689C215.784 1.90867 218.086 1.462 220.553 1.462V-0.038002C217.9 -0.038002 215.402 0.443324 213.066 1.41111L213.64 2.79689ZM220.553 1.462C222.464 1.462 224.275 1.61864 225.987 1.9299L226.255 0.454097C224.447 0.125356 222.546 -0.038002 220.553 -0.038002V1.462ZM226.002 1.9325C227.751 2.21359 229.188 2.61499 230.327 3.12461L230.939 1.75538C229.646 1.177 228.075 0.746409 226.24 0.451501L226.002 1.9325ZM229.903 2.26715C229.594 3.57107 229.451 5.4825 229.451 7.96H230.951C230.951 5.5095 231.096 3.74093 231.363 2.61285L229.903 2.26715ZM229.896 7.27464C229.46 7.46861 228.766 7.594 227.753 7.594V9.094C228.852 9.094 229.79 8.96339 230.506 8.64536L229.896 7.27464ZM228.502 8.30833C228.399 6.15068 227.684 4.46271 226.209 3.45302L225.361 4.69098C226.318 5.34528 226.915 6.50532 227.004 8.37967L228.502 8.30833ZM226.209 3.45302C224.826 2.50715 223.012 2.074 220.841 2.074V3.574C222.83 3.574 224.312 3.97284 225.361 4.69098L226.209 3.45302ZM220.841 2.074C218.54 2.074 216.539 2.50745 214.868 3.41253L215.582 4.73147C216.983 3.97255 218.725 3.574 220.841 3.574V2.074ZM214.862 3.41572C213.24 4.3128 212.01 5.53556 211.2 7.08456L212.53 7.77944C213.192 6.51244 214.202 5.4952 215.588 4.72827L214.862 3.41572ZM211.204 7.07826C210.407 8.56813 210.011 10.1944 210.011 11.944H211.511C211.511 10.4296 211.851 9.04787 212.526 7.78574L211.204 7.07826ZM210.011 11.944C210.011 15.3416 210.896 18.1793 212.727 20.3904L213.883 19.4336C212.322 17.5487 211.511 15.0744 211.511 11.944H210.011ZM212.732 20.3957C214.629 22.6439 217.305 23.734 220.649 23.734V22.234C217.657 22.234 215.437 21.2761 213.878 19.4283L212.732 20.3957ZM220.649 23.734C221.646 23.734 222.431 23.718 222.997 23.6847L222.909 22.1873C222.387 22.218 221.636 22.234 220.649 22.234V23.734ZM222.997 23.6847C223.599 23.6493 224.211 23.5435 224.834 23.3706L224.432 21.9254C223.903 22.0725 223.395 22.1587 222.909 22.1873L222.997 23.6847ZM224.815 23.3756C225.462 23.2139 226.017 22.8846 226.37 22.3307L225.104 21.5253C225.009 21.6754 224.828 21.8261 224.451 21.9204L224.815 23.3756ZM226.385 22.3059C226.714 21.7423 226.823 20.9491 226.823 20.056H225.323C225.323 20.8909 225.208 21.3457 225.089 21.5501L226.385 22.3059ZM226.823 20.056V18.568H225.323V20.056H226.823ZM226.823 18.568C226.823 17.6332 226.748 16.8449 226.525 16.3115L225.141 16.8885C225.238 17.1231 225.323 17.6468 225.323 18.568H226.823ZM226.533 16.3308C226.276 15.6624 225.748 15.241 225.066 15.0593L224.68 16.5087C224.958 16.583 225.07 16.7056 225.133 16.8692L226.533 16.3308ZM225.11 15.0725C224.519 14.8753 223.64 14.7786 222.543 14.7463L222.499 16.2457C223.578 16.2774 224.267 16.3727 224.636 16.4955L225.11 15.0725ZM223.233 15.2588C223.075 14.7864 222.983 14.138 222.983 13.288H221.483C221.483 14.23 221.583 15.0536 221.809 15.7332L223.233 15.2588ZM222.168 14.0352C222.943 14.1026 224.724 14.134 227.465 14.134V12.634C224.702 12.634 222.995 12.6014 222.298 12.5408L222.168 14.0352ZM227.465 14.134C230.17 14.134 231.894 14.1029 232.58 14.0343L232.43 12.5417C231.836 12.6011 230.2 12.634 227.465 12.634V14.134ZM231.755 13.288C231.755 14.1463 231.678 14.8084 231.542 15.2953L232.988 15.6967C233.172 15.0316 233.255 14.2216 233.255 13.288H231.755ZM232.226 14.747C231.595 14.7802 230.999 14.8811 230.571 15.148L231.366 16.42C231.451 16.3669 231.719 16.2758 232.304 16.245L232.226 14.747ZM230.634 15.1132C230.115 15.3725 229.841 15.8587 229.713 16.3701L231.169 16.7339C231.201 16.606 231.238 16.534 231.263 16.4969C231.285 16.4643 231.299 16.4573 231.304 16.4548L230.634 15.1132ZM229.717 16.3547C229.593 16.8105 229.547 17.4732 229.547 18.28H231.047C231.047 17.4868 231.097 16.9975 231.165 16.7493L229.717 16.3547ZM229.547 18.28V19.48H231.047V18.28H229.547ZM229.547 19.48C229.547 20.2325 229.579 20.8641 229.651 21.3621L231.135 21.1499C231.079 20.7519 231.047 20.1995 231.047 19.48H229.547ZM229.662 21.4246C229.772 21.9023 229.952 22.4004 230.193 22.9172L231.553 22.2828C231.346 21.8396 231.206 21.4417 231.124 21.0874L229.662 21.4246ZM230.464 21.9712C229.267 22.7493 227.745 23.3939 225.88 23.8913L226.266 25.3407C228.241 24.8141 229.919 24.1147 231.282 23.2288L230.464 21.9712ZM225.888 23.8891C224.07 24.3515 222.053 24.586 219.833 24.586V26.086C222.157 26.086 224.3 25.8405 226.258 25.3429L225.888 23.8891Z" fill="#F2F2F2"/>
</svg>
