<svg width="574" height="208" viewBox="0 0 574 208" fill="none" xmlns="http://www.w3.org/2000/svg">
<path d="M38.7 70.4L38.0926 69.6056L38.0868 69.61L38.0811 69.6145L38.7 70.4ZM38.5 52.8L37.8032 53.5173L37.8136 53.5274L37.8243 53.5372L38.5 52.8ZM23.3 50L23.0666 49.0276L22.3 49.2116V50H23.3ZM25.1 88.7L24.3929 89.4071L25.1 88.7ZM31.3 90.7L32.2487 90.3838L32.0315 89.7322L31.3454 89.701L31.3 90.7ZM31.8 95.2L31.7643 96.1994L32.8 96.2364V95.2H31.8ZM7.6 95.2H6.6V96.2408L7.63997 96.1992L7.6 95.2ZM8.1 90.7L8.04295 89.7016L7.38119 89.7394L7.15826 90.3637L8.1 90.7ZM12.8 89.1L12.0443 88.4451L12.0407 88.4492L12.8 89.1ZM13.6 52.2L14.5487 51.8838L14.5487 51.8838L13.6 52.2ZM11.8 50.1L11.3528 50.9944L11.3668 51.0014L11.3809 51.008L11.8 50.1ZM8.1 49.3L7.15132 49.6162L7.36059 50.244L8.02025 50.2968L8.1 49.3ZM7.6 44.8L7.62127 43.8002L6.6 43.7785V44.8H7.6ZM19.9 45V46H19.9083L19.9167 45.9999L19.9 45ZM31.9 44.8V43.8H31.8917L31.8833 43.8001L31.9 44.8ZM47 49.1L47.6673 48.3552L47.6673 48.3552L47 49.1ZM49.5 68.9L50.3669 69.3985L50.3669 69.3985L49.5 68.9ZM42.6 75.3L42.1374 74.4134L42.1294 74.4176L42.6 75.3ZM25.6 77L24.6101 77.1414L24.6988 77.7627L25.2968 77.9529L25.6 77ZM25.7 72.7L25.8961 71.7194L25.0305 71.5463L24.7513 72.3838L25.7 72.7ZM30.1 74C33.7981 74 36.9007 73.0907 39.3189 71.1855L38.0811 69.6145C36.0993 71.1759 33.4686 72 30.1 72V74ZM39.3075 71.1944C41.9107 69.2036 43.1 65.9787 43.1 61.8H41.1C41.1 65.6213 40.0226 68.1297 38.0926 69.6056L39.3075 71.1944ZM43.1 61.8C43.1 57.771 41.8174 54.4843 39.1757 52.0628L37.8243 53.5372C39.9826 55.5156 41.1 58.229 41.1 61.8H43.1ZM39.1968 52.0827C36.6021 49.5622 32.6997 48.4 27.7 48.4V50.4C32.4336 50.4 35.7312 51.5045 37.8032 53.5173L39.1968 52.0827ZM27.7 48.4C26.3327 48.4 24.7848 48.6152 23.0666 49.0276L23.5334 50.9724C25.1485 50.5847 26.534 50.4 27.7 50.4V48.4ZM22.3 50V82.2H24.3V50H22.3ZM22.3 82.2C22.3 85.396 22.8991 87.9133 24.3929 89.4071L25.8071 87.9929C24.9009 87.0867 24.3 85.2707 24.3 82.2H22.3ZM24.3929 89.4071C25.8598 90.874 28.2391 91.5619 31.2546 91.699L31.3454 89.701C28.4943 89.5714 26.7403 88.926 25.8071 87.9929L24.3929 89.4071ZM30.3513 91.0162C30.6325 91.8599 30.8 93.2292 30.8 95.2H32.8C32.8 93.1708 32.6341 91.5401 32.2487 90.3838L30.3513 91.0162ZM31.8357 94.2006C28.0897 94.0669 24.2111 94 20.2 94V96C24.1889 96 28.0437 96.0665 31.7643 96.1994L31.8357 94.2006ZM20.2 94C15.1261 94 10.9116 94.0667 7.56003 94.2008L7.63997 96.1992C10.9551 96.0666 15.1406 96 20.2 96V94ZM8.6 95.2C8.6 93.1512 8.76978 91.7978 9.04174 91.0363L7.15826 90.3637C6.76356 91.4688 6.6 93.1155 6.6 95.2H8.6ZM8.15705 91.6984C10.5429 91.562 12.4777 91.0126 13.5593 89.7508L12.0407 88.4492C11.5223 89.054 10.3237 89.5713 8.04295 89.7016L8.15705 91.6984ZM13.5557 89.7549C14.138 89.0831 14.5145 88.1728 14.7508 87.1187C14.9889 86.0562 15.1 84.7773 15.1 83.3H13.1C13.1 84.6893 12.9944 85.8105 12.7992 86.6813C12.6021 87.5605 12.3287 88.1169 12.0443 88.4451L13.5557 89.7549ZM15.1 83.3V56.6H13.1V83.3H15.1ZM15.1 56.6C15.1 54.6331 14.9334 53.0379 14.5487 51.8838L12.6513 52.5162C12.9333 53.3621 13.1 54.7002 13.1 56.6H15.1ZM14.5487 51.8838C14.1381 50.6522 13.364 49.7205 12.2191 49.192L11.3809 51.008C11.9694 51.2795 12.3952 51.7478 12.6513 52.5162L14.5487 51.8838ZM12.2472 49.2056C11.2718 48.7179 9.88273 48.4394 8.17975 48.3032L8.02025 50.2968C9.65061 50.4272 10.7282 50.6821 11.3528 50.9944L12.2472 49.2056ZM9.04868 48.9838C8.76746 48.1401 8.6 46.7708 8.6 44.8H6.6C6.6 46.8292 6.76587 48.4599 7.15132 49.6162L9.04868 48.9838ZM7.57873 45.7998C13.843 45.9331 17.9541 46 19.9 46V44C17.9793 44 13.8903 43.9336 7.62127 43.8002L7.57873 45.7998ZM19.9167 45.9999L31.9167 45.7999L31.8833 43.8001L19.8833 44.0001L19.9167 45.9999ZM31.9 45.8C38.66 45.8 43.3987 47.2164 46.3328 49.8448L47.6673 48.3552C44.2013 45.2502 38.8733 43.8 31.9 43.8V45.8ZM46.3328 49.8448C49.3116 52.5134 50.8 55.9048 50.8 60.1H52.8C52.8 55.3619 51.0884 51.4199 47.6673 48.3552L46.3328 49.8448ZM50.8 60.1C50.8 63.1324 50.0756 65.8928 48.6331 68.4015L50.3669 69.3985C51.991 66.5739 52.8 63.4676 52.8 60.1H50.8ZM48.6331 68.4015C47.2063 70.8829 45.0568 72.8903 42.1374 74.4134L43.0626 76.1866C46.2766 74.5097 48.7271 72.2504 50.3669 69.3985L48.6331 68.4015ZM42.1294 74.4176C39.3066 75.9232 35.8435 76.7 31.7 76.7V78.7C36.0898 78.7 39.8934 77.8768 43.0706 76.1824L42.1294 74.4176ZM31.7 76.7C29.1424 76.7 27.2273 76.4684 25.9032 76.0471L25.2968 77.9529C26.9061 78.465 29.0576 78.7 31.7 78.7V76.7ZM26.59 76.8586C26.458 75.935 26.4 75.2927 26.4 74.9H24.4C24.4 75.4406 24.4753 76.1984 24.6101 77.1414L26.59 76.8586ZM26.4 74.9C26.4 74.1039 26.4927 73.4843 26.6487 73.0162L24.7513 72.3838C24.5073 73.1157 24.4 73.9628 24.4 74.9H26.4ZM25.5039 73.6806C26.6025 73.9003 28.1482 74 30.1 74V72C28.1852 72 26.7975 71.8997 25.8961 71.7194L25.5039 73.6806ZM113.971 90.7L114.92 90.3838L114.715 89.7694L114.071 89.705L113.971 90.7ZM114.471 95.2L114.421 96.1988L115.471 96.2512V95.2H114.471ZM93.5711 95.2H92.5711V96.2512L93.621 96.1988L93.5711 95.2ZM94.1711 90.7L94.0418 89.7084L93.4765 89.7821L93.2519 90.3061L94.1711 90.7ZM97.3711 89.9L97.8567 90.7742L97.8713 90.7661L97.8856 90.7575L97.3711 89.9ZM97.3711 85.1L98.2815 84.6862L98.2778 84.6783L97.3711 85.1ZM95.3711 80.8L96.2778 80.3783L96.0089 79.8H95.3711V80.8ZM72.6711 81.3L72.611 80.3018L71.9918 80.3391L71.7501 80.9104L72.6711 81.3ZM71.5711 83.9L72.4882 84.2987L72.4921 84.2896L71.5711 83.9ZM74.6711 90.7L75.6198 90.3838L75.4144 89.7678L74.7682 89.7047L74.6711 90.7ZM75.2711 95.2L75.2185 96.1986L76.2711 96.254V95.2H75.2711ZM59.8711 95.2H58.8711V96.2645L59.9335 96.1981L59.8711 95.2ZM60.4711 90.7L60.2922 89.7161L59.6804 89.8274L59.5096 90.4253L60.4711 90.7ZM63.8711 88.9L64.6304 89.5508L64.6414 89.5379L64.652 89.5247L63.8711 88.9ZM67.0711 83L67.9815 83.4138L67.9825 83.4115L67.0711 83ZM84.2711 44.9L84.0651 43.9214L83.5685 44.026L83.3597 44.4885L84.2711 44.9ZM88.2711 44.5L89.172 44.066L88.8994 43.5H88.2711V44.5ZM106.671 82.7L107.573 82.2685L107.572 82.266L106.671 82.7ZM110.371 88.9L109.642 89.5839L109.653 89.5957L109.664 89.6071L110.371 88.9ZM93.3711 76.7V77.7H94.9549L94.274 76.2701L93.3711 76.7ZM87.3711 64.1L88.274 63.67L88.2689 63.6596L87.3711 64.1ZM83.7711 55.7L84.7228 55.393L83.7673 52.4308L82.8187 55.3952L83.7711 55.7ZM81.7711 60.7L80.8696 60.2673L80.8657 60.2753L80.862 60.2833L81.7711 60.7ZM80.3711 63.7L79.4767 63.2528L79.4654 63.2753L79.4553 63.2984L80.3711 63.7ZM74.6711 76.7L73.7553 76.2984L73.1407 77.7H74.6711V76.7ZM113.022 91.0162C113.304 91.8599 113.471 93.2292 113.471 95.2H115.471C115.471 93.1708 115.305 91.5401 114.92 90.3838L113.022 91.0162ZM114.521 94.2012C111.831 94.0668 108.38 94 104.171 94V96C108.363 96 111.778 96.0666 114.421 96.1988L114.521 94.2012ZM104.171 94C99.7636 94 96.2116 94.0667 93.5212 94.2012L93.621 96.1988C96.2639 96.0666 99.7786 96 104.171 96V94ZM94.5711 95.2C94.5711 93.1575 94.7747 91.8303 95.0902 91.0939L93.2519 90.3061C92.7675 91.4364 92.5711 93.1092 92.5711 95.2H94.5711ZM94.3004 91.6916C95.8412 91.4906 97.0761 91.2078 97.8567 90.7742L96.8855 89.0258C96.4661 89.2588 95.5677 89.5094 94.0418 89.7084L94.3004 91.6916ZM97.8856 90.7575C98.8314 90.19 99.3711 89.3096 99.3711 88.2H97.3711C97.3711 88.5571 97.2441 88.81 96.8566 89.0425L97.8856 90.7575ZM99.3711 88.2C99.3711 87.7435 99.25 87.2173 99.0728 86.668C98.8903 86.1022 98.6238 85.4394 98.2815 84.6862L96.4607 85.5138C96.785 86.2273 97.0186 86.8145 97.1694 87.282C97.3255 87.766 97.3711 88.0565 97.3711 88.2H99.3711ZM98.2778 84.6783L96.2778 80.3783L94.4644 81.2217L96.4644 85.5217L98.2778 84.6783ZM95.3711 79.8C85.7632 79.8 78.1736 79.9667 72.611 80.3018L72.7312 82.2982C78.2352 81.9666 85.779 81.8 95.3711 81.8V79.8ZM71.7501 80.9104L70.6501 83.5104L72.4921 84.2896L73.5921 81.6896L71.7501 80.9104ZM70.654 83.5013C69.9741 85.0652 69.5711 86.4207 69.5711 87.5H71.5711C71.5711 86.846 71.8348 85.8015 72.4882 84.2987L70.654 83.5013ZM69.5711 87.5C69.5711 88.7141 70.034 89.7493 70.9808 90.4883C71.8774 91.1881 73.1192 91.5533 74.574 91.6953L74.7682 89.7047C73.4896 89.58 72.6815 89.2786 72.2114 88.9117C71.7915 88.584 71.5711 88.1526 71.5711 87.5H69.5711ZM73.7224 91.0162C74.0774 92.0811 74.2711 93.4659 74.2711 95.2H76.2711C76.2711 93.3341 76.0648 91.7189 75.6198 90.3838L73.7224 91.0162ZM75.3237 94.2014C72.77 94.067 69.9856 94 66.9711 94V96C69.9566 96 72.7055 96.0664 75.2185 96.1986L75.3237 94.2014ZM66.9711 94C64.3546 94 61.9667 94.0671 59.8087 94.2019L59.9335 96.1981C62.0422 96.0663 64.3876 96 66.9711 96V94ZM60.8711 95.2C60.8711 93.6838 61.0605 92.277 61.4326 90.9747L59.5096 90.4253C59.0817 91.923 58.8711 93.5162 58.8711 95.2H60.8711ZM60.65 91.6839C62.2929 91.3852 63.651 90.6934 64.6304 89.5508L63.1118 88.2492C62.4912 88.9733 61.5827 89.4815 60.2922 89.7161L60.65 91.6839ZM64.652 89.5247C65.5391 88.4158 66.6501 86.3427 67.9815 83.4138L66.1607 82.5862C64.8254 85.524 63.8031 87.3842 63.0902 88.2753L64.652 89.5247ZM67.9825 83.4115L85.1825 45.3115L83.3597 44.4885L66.1597 82.5885L67.9825 83.4115ZM84.4771 45.8785C85.6708 45.6272 86.9347 45.5 88.2711 45.5V43.5C86.8074 43.5 85.4047 43.6394 84.0651 43.9214L84.4771 45.8785ZM87.3702 44.934L105.77 83.134L107.572 82.266L89.172 44.066L87.3702 44.934ZM105.769 83.1315C107.237 86.2008 108.526 88.3939 109.642 89.5839L111.101 88.2161C110.216 87.2727 109.039 85.3325 107.573 82.2685L105.769 83.1315ZM109.664 89.6071C110.872 90.8152 112.28 91.5358 113.872 91.695L114.071 89.705C112.996 89.5975 112.003 89.1181 111.078 88.1929L109.664 89.6071ZM94.274 76.2701L88.274 63.6701L86.4682 64.5299L92.4682 77.1299L94.274 76.2701ZM88.2689 63.6596C86.5427 60.1407 85.3674 57.3913 84.7228 55.393L82.8194 56.007C83.5081 58.1421 84.7329 60.9926 86.4733 64.5404L88.2689 63.6596ZM82.8187 55.3952C82.3001 57.0157 81.6508 58.6397 80.8696 60.2673L82.6726 61.1327C83.4914 59.4269 84.1754 57.7176 84.7235 56.0048L82.8187 55.3952ZM80.862 60.2833C80.1261 61.8889 79.6674 62.8713 79.4767 63.2528L81.2655 64.1472C81.4748 63.7287 81.9494 62.7111 82.6802 61.1167L80.862 60.2833ZM79.4553 63.2984L73.7553 76.2984L75.5869 77.1016L81.2869 64.1016L79.4553 63.2984ZM74.6711 77.7H93.3711V75.7H74.6711V77.7ZM126.545 95.2H125.545V96.2328L126.578 96.1995L126.545 95.2ZM127.045 90.7L126.966 89.7032L126.321 89.7547L126.104 90.3637L127.045 90.7ZM130.745 89.9L130.326 88.992L130.312 88.9986L130.298 89.0056L130.745 89.9ZM132.545 52.2L133.494 51.8838L133.494 51.8838L132.545 52.2ZM130.745 50.1L130.298 50.9944L130.312 51.0014L130.326 51.008L130.745 50.1ZM127.045 49.3L126.097 49.6162L126.306 50.244L126.966 50.2968L127.045 49.3ZM126.545 44.8L126.577 43.8005L125.545 43.7683V44.8H126.545ZM148.745 44.8H149.745V43.771L148.717 43.8004L148.745 44.8ZM148.345 49.3L148.401 50.2985L149.111 50.259L149.307 49.5747L148.345 49.3ZM143.445 50.9L142.713 50.2195L142.699 50.2341L142.686 50.2492L143.445 50.9ZM143.445 89.1L142.664 89.7247L142.687 89.7535L142.713 89.7805L143.445 89.1ZM148.345 90.7L149.312 90.4423L149.125 89.7418L148.401 89.7015L148.345 90.7ZM148.745 95.2L148.716 96.1996L149.745 96.2298V95.2H148.745ZM127.545 95.2C127.545 93.1512 127.715 91.7978 127.987 91.0363L126.104 90.3637C125.709 91.4688 125.545 93.1155 125.545 95.2H127.545ZM127.125 91.6968C128.828 91.5606 130.217 91.2821 131.193 90.7944L130.298 89.0056C129.673 89.3179 128.596 89.5728 126.966 89.7032L127.125 91.6968ZM131.164 90.808C132.309 90.2795 133.083 89.3478 133.494 88.1162L131.597 87.4838C131.34 88.2522 130.915 88.7205 130.326 88.992L131.164 90.808ZM133.494 88.1162C133.879 86.9599 134.045 85.3292 134.045 83.3H132.045C132.045 85.2708 131.878 86.6401 131.597 87.4838L133.494 88.1162ZM134.045 83.3V56.6H132.045V83.3H134.045ZM134.045 56.6C134.045 54.6331 133.879 53.0379 133.494 51.8838L131.597 52.5162C131.879 53.3621 132.045 54.7002 132.045 56.6H134.045ZM133.494 51.8838C133.083 50.6522 132.309 49.7205 131.164 49.192L130.326 51.008C130.915 51.2795 131.34 51.7478 131.597 52.5162L133.494 51.8838ZM131.193 49.2056C130.217 48.7179 128.828 48.4394 127.125 48.3032L126.966 50.2968C128.596 50.4272 129.673 50.6821 130.298 50.9944L131.193 49.2056ZM127.994 48.9838C127.713 48.1401 127.545 46.7708 127.545 44.8H125.545C125.545 46.8292 125.711 48.4599 126.097 49.6162L127.994 48.9838ZM126.514 45.7995C130.788 45.9331 134.532 46 137.745 46V44C134.558 44 130.836 43.9336 126.577 43.8005L126.514 45.7995ZM137.745 46C140.426 46 144.104 45.933 148.774 45.7996L148.717 43.8004C144.054 43.9336 140.398 44 137.745 44V46ZM147.745 44.8C147.745 46.854 147.61 48.2348 147.384 49.0253L149.307 49.5747C149.614 48.4985 149.745 46.8794 149.745 44.8H147.745ZM148.29 48.3015C145.835 48.4379 143.857 48.9868 142.713 50.2195L144.178 51.5805C144.767 50.9466 146.056 50.4287 148.401 50.2985L148.29 48.3015ZM142.686 50.2492C142.131 50.8966 141.783 51.7907 141.567 52.819C141.348 53.8605 141.245 55.1269 141.245 56.6H143.245C143.245 55.2065 143.343 54.0895 143.524 53.231C143.707 52.3593 143.959 51.8367 144.205 51.5508L142.686 50.2492ZM141.245 56.6V83.3H143.245V56.6H141.245ZM141.245 83.3C141.245 84.7738 141.348 86.0468 141.566 87.1026C141.782 88.1478 142.127 89.0528 142.664 89.7247L144.226 88.4753C143.964 88.1472 143.708 87.5855 143.525 86.6974C143.343 85.8199 143.245 84.6929 143.245 83.3H141.245ZM142.713 89.7805C143.857 91.0132 145.835 91.5621 148.29 91.6985L148.401 89.7015C146.056 89.5712 144.767 89.0534 144.178 88.4195L142.713 89.7805ZM147.379 90.9577C147.611 91.8281 147.745 93.2221 147.745 95.2H149.745C149.745 93.1779 149.613 91.5719 149.312 90.4423L147.379 90.9577ZM148.775 94.2004C144.237 94.067 140.559 94 137.745 94V96C140.531 96 144.187 96.0664 148.716 96.1996L148.775 94.2004ZM137.745 94C134.399 94 130.655 94.0669 126.513 94.2005L126.578 96.1995C130.703 96.0664 134.425 96 137.745 96V94ZM220.848 44.8H221.848V43.7556L220.804 43.8009L220.848 44.8ZM220.448 49.3L220.542 50.2955L221.235 50.2296L221.414 49.5577L220.448 49.3ZM215.648 53.5L214.673 53.2784L214.669 53.2956L214.665 53.3129L215.648 53.5ZM215.248 95.1L215.667 96.008L216.248 95.7398V95.1H215.248ZM211.148 95.7L210.406 96.3707L210.704 96.7H211.148V95.7ZM175.248 56L175.989 55.3293L174.248 53.4032V56H175.248ZM175.748 86.5L174.773 86.7216L174.777 86.7425L174.783 86.7631L175.748 86.5ZM177.648 89.6L178.217 88.7778L178.217 88.7778L177.648 89.6ZM181.448 90.7L182.402 90.4017L182.201 89.757L181.527 89.7032L181.448 90.7ZM181.948 95.2L181.911 96.1993L182.948 96.2377V95.2H181.948ZM163.948 95.2H162.948V96.2465L163.993 96.199L163.948 95.2ZM164.448 90.7L164.368 89.7032L163.695 89.757L163.493 90.4017L164.448 90.7ZM168.148 89.6L167.578 88.7778L167.563 88.7886L167.548 88.8L168.148 89.6ZM169.948 86.5L168.983 86.2369L168.977 86.2575L168.973 86.2784L169.948 86.5ZM170.548 50.8H171.548V50.3858L171.255 50.0929L170.548 50.8ZM170.448 50.7L169.741 51.4071L169.741 51.4071L170.448 50.7ZM168.648 49.8L168.385 50.7648L168.426 50.7761L168.469 50.7839L168.648 49.8ZM164.448 49.3L163.484 49.5676L163.674 50.2522L164.383 50.2979L164.448 49.3ZM163.948 44.8L164.003 43.8015L162.948 43.7429V44.8H163.948ZM177.248 44.8L177.994 44.134L177.67 43.7716L177.185 43.8019L177.248 44.8ZM210.548 82.1L209.802 82.766L211.548 84.7217V82.1H210.548ZM209.948 53.5L208.973 53.7216L208.979 53.7484L208.986 53.7747L209.948 53.5ZM204.248 49.3L203.262 49.4713L203.396 50.2374L204.171 50.2971L204.248 49.3ZM203.848 44.8L203.888 43.8008L202.848 43.7592V44.8H203.848ZM212.448 46C214.998 46 217.813 45.9329 220.891 45.7991L220.804 43.8009C217.749 43.9338 214.964 44 212.448 44V46ZM219.848 44.8C219.848 46.7779 219.714 48.1719 219.481 49.0423L221.414 49.5577C221.715 48.4281 221.848 46.8221 221.848 44.8H219.848ZM220.353 48.3045C218.846 48.4481 217.559 48.8533 216.614 49.626L217.881 51.174C218.403 50.7467 219.25 50.4186 220.542 50.2955L220.353 48.3045ZM216.614 49.626C215.634 50.4285 215.028 51.7136 214.673 53.2784L216.623 53.7216C216.934 52.353 217.395 51.5715 217.881 51.174L216.614 49.626ZM214.665 53.3129C214.38 54.8084 214.248 56.985 214.248 59.8H216.248C216.248 57.015 216.382 54.9916 216.63 53.6871L214.665 53.3129ZM214.248 59.8V95.1H216.248V59.8H214.248ZM214.829 94.192C214.167 94.4974 212.982 94.7 211.148 94.7V96.7C213.047 96.7 214.595 96.5026 215.667 96.008L214.829 94.192ZM211.889 95.0293L175.989 55.3293L174.506 56.6707L210.406 96.3707L211.889 95.0293ZM174.248 56V80H176.248V56H174.248ZM174.248 80C174.248 82.887 174.414 85.1436 174.773 86.7216L176.723 86.2784C176.415 84.923 176.248 82.8463 176.248 80H174.248ZM174.783 86.7631C175.218 88.3586 175.948 89.6398 177.078 90.4222L178.217 88.7778C177.614 88.3602 177.077 87.5748 176.712 86.2369L174.783 86.7631ZM177.078 90.4222C178.151 91.1649 179.619 91.5569 181.368 91.6968L181.527 89.7032C179.943 89.5764 178.877 89.2351 178.217 88.7778L177.078 90.4222ZM180.493 90.9983C180.782 91.9229 180.948 93.3055 180.948 95.2H182.948C182.948 93.2279 182.78 91.6104 182.402 90.4017L180.493 90.9983ZM181.985 94.2007C178.378 94.0671 175.398 94 173.048 94V96C175.364 96 178.317 96.0662 181.911 96.1993L181.985 94.2007ZM173.048 94C169.9 94 166.852 94.067 163.902 94.201L163.993 96.199C166.91 96.0664 169.928 96 173.048 96V94ZM164.948 95.2C164.948 93.3055 165.113 91.9229 165.402 90.9983L163.493 90.4017C163.115 91.6104 162.948 93.2279 162.948 95.2H164.948ZM164.527 91.6968C166.269 91.5574 167.726 91.1664 168.748 90.4L167.548 88.8C166.969 89.2336 165.959 89.5759 164.368 89.7032L164.527 91.6968ZM168.717 90.4222C169.862 89.6291 170.558 88.3286 170.923 86.7216L168.973 86.2784C168.671 87.6047 168.166 88.3709 167.578 88.7778L168.717 90.4222ZM170.912 86.7631C171.348 85.1656 171.548 82.8918 171.548 80H169.548C169.548 82.8415 169.347 84.9011 168.983 86.2369L170.912 86.7631ZM171.548 80V50.8H169.548V80H171.548ZM171.255 50.0929L171.155 49.9929L169.741 51.4071L169.841 51.5071L171.255 50.0929ZM171.155 49.9929C170.526 49.3642 169.733 48.981 168.827 48.8161L168.469 50.7839C169.029 50.8857 169.436 51.1024 169.741 51.4071L171.155 49.9929ZM168.911 48.8352C168.066 48.6048 166.569 48.4348 164.512 48.3021L164.383 50.2979C166.46 50.4319 167.763 50.5952 168.385 50.7648L168.911 48.8352ZM165.411 49.0324C165.11 47.9488 164.948 46.546 164.948 44.8H162.948C162.948 46.654 163.118 48.2512 163.484 49.5676L165.411 49.0324ZM163.892 45.7985C166.31 45.9328 168.661 46 170.948 46V44C168.701 44 166.386 43.9339 164.003 43.8015L163.892 45.7985ZM170.948 46C173.036 46 175.157 45.9326 177.31 45.798L177.185 43.8019C175.072 43.934 172.993 44 170.948 44V46ZM176.502 45.466L209.802 82.766L211.294 81.434L177.994 44.134L176.502 45.466ZM211.548 82.1V59.8H209.548V82.1H211.548ZM211.548 59.8C211.548 56.976 211.348 54.7628 210.909 53.2253L208.986 53.7747C209.347 55.0372 209.548 57.024 209.548 59.8H211.548ZM210.923 53.2784C210.558 51.6714 209.862 50.3709 208.717 49.5778L207.578 51.2222C208.166 51.6291 208.671 52.3953 208.973 53.7216L210.923 53.2784ZM208.717 49.5778C207.638 48.8312 206.132 48.442 204.324 48.3029L204.171 50.2971C205.83 50.4247 206.924 50.7688 207.578 51.2222L208.717 49.5778ZM205.233 49.1287C204.975 47.6485 204.848 46.2059 204.848 44.8H202.848C202.848 46.3275 202.987 47.8848 203.262 49.4713L205.233 49.1287ZM203.808 45.7992C207.15 45.9329 210.03 46 212.448 46V44C210.065 44 207.212 43.9338 203.888 43.8008L203.808 45.7992ZM280.418 44.8L281.416 44.8555L281.477 43.7577L280.379 43.8008L280.418 44.8ZM281.118 57.8L281.512 58.7191L282.208 58.4207L282.109 57.6695L281.118 57.8ZM276.218 58.7L275.219 58.7416L275.259 59.7H276.218V58.7ZM273.618 51.6L272.911 52.3071L272.918 52.3146L272.926 52.322L273.618 51.6ZM261.918 49.3V48.3H260.918V49.3H261.918ZM262.418 88.2L261.469 88.5162L261.482 88.5557L261.499 88.5939L262.418 88.2ZM264.418 90.2L264.024 91.1191L264.035 91.1239L264.047 91.1285L264.418 90.2ZM268.918 91L269.841 90.6154L269.603 90.0434L268.984 90.0022L268.918 91ZM269.418 95.2L269.391 96.1996L270.418 96.2274V95.2H269.418ZM244.918 95.2H243.918V96.2308L244.948 96.1995L244.918 95.2ZM245.418 91L245.351 90.0022L244.733 90.0434L244.495 90.6154L245.418 91ZM249.918 90.2L249.567 89.2637L249.557 89.2675L249.547 89.2715L249.918 90.2ZM252.118 88.1L253.046 88.4714L253.046 88.4714L252.118 88.1ZM252.718 49.3H253.718V48.3H252.718V49.3ZM242.418 50.4L242.848 51.3029L242.857 51.2987L242.865 51.2944L242.418 50.4ZM237.618 58.7V59.7H238.438L238.599 58.8961L237.618 58.7ZM232.918 57.8L231.941 57.5846L231.786 58.2873L232.403 58.6575L232.918 57.8ZM234.418 44.8L234.456 43.8007L233.418 43.7608V44.8H234.418ZM279.42 44.7445C279.215 48.4263 279.455 52.8254 280.127 57.9305L282.109 57.6695C281.448 52.6412 281.221 48.3737 281.416 44.8555L279.42 44.7445ZM280.724 56.8809C279.473 57.4169 277.979 57.7 276.218 57.7V59.7C278.19 59.7 279.963 59.3831 281.512 58.7191L280.724 56.8809ZM277.217 58.6584C277.078 55.3149 276.165 52.656 274.31 50.878L272.926 52.322C274.271 53.6106 275.091 55.6851 275.219 58.7416L277.217 58.6584ZM274.325 50.8929C272.524 49.0923 269.777 48.3 266.318 48.3V50.3C269.525 50.3 271.645 51.041 272.911 52.3071L274.325 50.8929ZM266.318 48.3H261.918V50.3H266.318V48.3ZM260.918 49.3V83.6H262.918V49.3H260.918ZM260.918 83.6C260.918 85.6916 261.083 87.3578 261.469 88.5162L263.367 87.8838C263.086 87.0422 262.918 85.6417 262.918 83.6H260.918ZM261.499 88.5939C262 89.7633 262.855 90.618 264.024 91.1191L264.812 89.2809C264.115 88.982 263.636 88.5034 263.337 87.8061L261.499 88.5939ZM264.047 91.1285C265.195 91.5877 266.821 91.8624 268.851 91.9978L268.984 90.0022C267.015 89.8709 265.641 89.6123 264.789 89.2715L264.047 91.1285ZM267.995 91.3846C268.244 91.9833 268.418 93.2037 268.418 95.2H270.418C270.418 93.1963 270.258 91.6167 269.841 90.6154L267.995 91.3846ZM269.445 94.2004C264.507 94.0669 260.464 94 257.318 94V96C260.439 96 264.462 96.0664 269.391 96.1996L269.445 94.2004ZM257.318 94C253.44 94 249.296 94.0669 244.888 94.2005L244.948 96.1995C249.34 96.0665 253.463 96 257.318 96V94ZM245.918 95.2C245.918 93.2037 246.092 91.9833 246.341 91.3846L244.495 90.6154C244.078 91.6167 243.918 93.1963 243.918 95.2H245.918ZM245.484 91.9978C247.515 91.8624 249.141 91.5877 250.289 91.1285L249.547 89.2715C248.695 89.6123 247.321 89.8709 245.351 90.0022L245.484 91.9978ZM250.269 91.1363C251.582 90.644 252.535 89.749 253.046 88.4714L251.189 87.7286C250.901 88.451 250.387 88.956 249.567 89.2637L250.269 91.1363ZM253.046 88.4714C253.518 87.2915 253.718 85.6372 253.718 83.6H251.718C251.718 85.5628 251.518 86.9085 251.189 87.7286L253.046 88.4714ZM253.718 83.6V49.3H251.718V83.6H253.718ZM252.718 48.3H248.618V50.3H252.718V48.3ZM248.618 48.3C245.882 48.3 243.637 48.6725 241.971 49.5056L242.865 51.2944C244.132 50.6609 246.02 50.3 248.618 50.3V48.3ZM241.988 49.4971C240.41 50.2484 239.209 51.3604 238.433 52.8343L240.203 53.7657C240.761 52.7063 241.626 51.8849 242.848 51.3029L241.988 49.4971ZM238.433 52.8343C237.702 54.2233 237.112 56.1299 236.637 58.5039L238.599 58.8961C239.057 56.6034 239.601 54.9101 240.203 53.7657L238.433 52.8343ZM237.618 57.7C235.538 57.7 234.195 57.4001 233.432 56.9425L232.403 58.6575C233.641 59.3999 235.432 59.7 237.618 59.7V57.7ZM233.894 58.0154C234.908 53.4199 235.418 49.014 235.418 44.8H233.418C233.418 48.8527 232.928 53.1135 231.941 57.5846L233.894 58.0154ZM234.38 45.7993C237.869 45.9335 245.523 46 257.318 46V44C245.513 44 237.9 43.9332 234.456 43.8007L234.38 45.7993ZM257.318 46C269.312 46 277.034 45.9335 280.457 45.7992L280.379 43.8008C277.002 43.9332 269.324 44 257.318 44V46ZM293.342 95.2H292.342V96.2328L293.374 96.1995L293.342 95.2ZM293.842 90.7L293.762 89.7032L293.118 89.7547L292.9 90.3637L293.842 90.7ZM297.542 89.9L297.123 88.992L297.109 88.9986L297.095 89.0056L297.542 89.9ZM299.342 52.2L300.291 51.8838L300.291 51.8838L299.342 52.2ZM297.542 50.1L297.095 50.9944L297.109 51.0014L297.123 51.008L297.542 50.1ZM293.842 49.3L292.894 49.6162L293.103 50.244L293.762 50.2968L293.842 49.3ZM293.342 44.8L293.373 43.8005L292.342 43.7683V44.8H293.342ZM315.542 44.8H316.542V43.771L315.514 43.8004L315.542 44.8ZM315.142 49.3L315.198 50.2985L315.908 50.259L316.104 49.5747L315.142 49.3ZM310.242 50.9L309.509 50.2195L309.496 50.2341L309.483 50.2492L310.242 50.9ZM310.242 89.1L309.461 89.7247L309.484 89.7535L309.509 89.7805L310.242 89.1ZM315.142 90.7L316.108 90.4423L315.922 89.7418L315.198 89.7015L315.142 90.7ZM315.542 95.2L315.513 96.1996L316.542 96.2298V95.2H315.542ZM294.342 95.2C294.342 93.1512 294.512 91.7978 294.784 91.0363L292.9 90.3637C292.506 91.4688 292.342 93.1155 292.342 95.2H294.342ZM293.922 91.6968C295.625 91.5606 297.014 91.2821 297.989 90.7944L297.095 89.0056C296.47 89.3179 295.393 89.5728 293.762 89.7032L293.922 91.6968ZM297.961 90.808C299.106 90.2795 299.88 89.3478 300.291 88.1162L298.394 87.4838C298.137 88.2522 297.712 88.7205 297.123 88.992L297.961 90.808ZM300.291 88.1162C300.676 86.9599 300.842 85.3292 300.842 83.3H298.842C298.842 85.2708 298.675 86.6401 298.394 87.4838L300.291 88.1162ZM300.842 83.3V56.6H298.842V83.3H300.842ZM300.842 56.6C300.842 54.6331 300.676 53.0379 300.291 51.8838L298.394 52.5162C298.675 53.3621 298.842 54.7002 298.842 56.6H300.842ZM300.291 51.8838C299.88 50.6522 299.106 49.7205 297.961 49.192L297.123 51.008C297.712 51.2795 298.137 51.7478 298.394 52.5162L300.291 51.8838ZM297.989 49.2056C297.014 48.7179 295.625 48.4394 293.922 48.3032L293.762 50.2968C295.393 50.4272 296.47 50.6821 297.095 50.9944L297.989 49.2056ZM294.791 48.9838C294.51 48.1401 294.342 46.7708 294.342 44.8H292.342C292.342 46.8292 292.508 48.4599 292.894 49.6162L294.791 48.9838ZM293.311 45.7995C297.585 45.9331 301.329 46 304.542 46V44C301.355 44 297.633 43.9336 293.373 43.8005L293.311 45.7995ZM304.542 46C307.223 46 310.9 45.933 315.571 45.7996L315.514 43.8004C310.851 43.9336 307.195 44 304.542 44V46ZM314.542 44.8C314.542 46.854 314.407 48.2348 314.181 49.0253L316.104 49.5747C316.411 48.4985 316.542 46.8794 316.542 44.8H314.542ZM315.087 48.3015C312.632 48.4379 310.654 48.9868 309.509 50.2195L310.975 51.5805C311.564 50.9466 312.852 50.4287 315.198 50.2985L315.087 48.3015ZM309.483 50.2492C308.928 50.8966 308.58 51.7907 308.364 52.819C308.144 53.8605 308.042 55.1269 308.042 56.6H310.042C310.042 55.2065 310.14 54.0895 310.321 53.231C310.504 52.3593 310.756 51.8367 311.001 51.5508L309.483 50.2492ZM308.042 56.6V83.3H310.042V56.6H308.042ZM308.042 83.3C308.042 84.7738 308.144 86.0468 308.363 87.1026C308.579 88.1478 308.924 89.0528 309.461 89.7247L311.023 88.4753C310.761 88.1472 310.505 87.5855 310.321 86.6974C310.14 85.8199 310.042 84.6929 310.042 83.3H308.042ZM309.509 89.7805C310.654 91.0132 312.632 91.5621 315.087 91.6985L315.198 89.7015C312.852 89.5712 311.564 89.0534 310.975 88.4195L309.509 89.7805ZM314.176 90.9577C314.408 91.8281 314.542 93.2221 314.542 95.2H316.542C316.542 93.1779 316.41 91.5719 316.108 90.4423L314.176 90.9577ZM315.572 94.2004C311.034 94.067 307.356 94 304.542 94V96C307.328 96 310.984 96.0664 315.513 96.1996L315.572 94.2004ZM304.542 94C301.196 94 297.452 94.0669 293.31 94.2005L293.374 96.1995C297.499 96.0664 301.222 96 304.542 96V94ZM387.645 44.8H388.645V43.7556L387.601 43.8009L387.645 44.8ZM387.245 49.3L387.339 50.2955L388.032 50.2296L388.211 49.5577L387.245 49.3ZM382.445 53.5L381.469 53.2784L381.465 53.2956L381.462 53.3129L382.445 53.5ZM382.045 95.1L382.464 96.008L383.045 95.7398V95.1H382.045ZM377.945 95.7L377.203 96.3707L377.501 96.7H377.945V95.7ZM342.045 56L342.786 55.3293L341.045 53.4032V56H342.045ZM342.545 86.5L341.569 86.7216L341.574 86.7425L341.58 86.7631L342.545 86.5ZM344.445 89.6L345.014 88.7778L345.014 88.7778L344.445 89.6ZM348.245 90.7L349.199 90.4017L348.998 89.757L348.324 89.7032L348.245 90.7ZM348.745 95.2L348.708 96.1993L349.745 96.2377V95.2H348.745ZM330.745 95.2H329.745V96.2465L330.79 96.199L330.745 95.2ZM331.245 90.7L331.165 89.7032L330.492 89.757L330.29 90.4017L331.245 90.7ZM334.945 89.6L334.375 88.7778L334.36 88.7886L334.345 88.8L334.945 89.6ZM336.745 86.5L335.78 86.2369L335.774 86.2575L335.769 86.2784L336.745 86.5ZM337.345 50.8H338.345V50.3858L338.052 50.0929L337.345 50.8ZM337.245 50.7L336.537 51.4071L336.537 51.4071L337.245 50.7ZM335.445 49.8L335.181 50.7648L335.223 50.7761L335.266 50.7839L335.445 49.8ZM331.245 49.3L330.281 49.5676L330.471 50.2522L331.18 50.2979L331.245 49.3ZM330.745 44.8L330.8 43.8015L329.745 43.7429V44.8H330.745ZM344.045 44.8L344.791 44.134L344.467 43.7716L343.982 43.8019L344.045 44.8ZM377.345 82.1L376.599 82.766L378.345 84.7217V82.1H377.345ZM376.745 53.5L375.769 53.7216L375.775 53.7484L375.783 53.7747L376.745 53.5ZM371.045 49.3L370.059 49.4713L370.193 50.2374L370.968 50.2971L371.045 49.3ZM370.645 44.8L370.685 43.8008L369.645 43.7592V44.8H370.645ZM379.245 46C381.795 46 384.61 45.9329 387.688 45.7991L387.601 43.8009C384.546 43.9338 381.761 44 379.245 44V46ZM386.645 44.8C386.645 46.7779 386.51 48.1719 386.278 49.0423L388.211 49.5577C388.512 48.4281 388.645 46.8221 388.645 44.8H386.645ZM387.15 48.3045C385.642 48.4481 384.356 48.8533 383.411 49.626L384.678 51.174C385.2 50.7467 386.047 50.4186 387.339 50.2955L387.15 48.3045ZM383.411 49.626C382.431 50.4285 381.825 51.7136 381.469 53.2784L383.42 53.7216C383.731 52.353 384.192 51.5715 384.678 51.174L383.411 49.626ZM381.462 53.3129C381.177 54.8084 381.045 56.985 381.045 59.8H383.045C383.045 57.015 383.178 54.9916 383.427 53.6871L381.462 53.3129ZM381.045 59.8V95.1H383.045V59.8H381.045ZM381.625 94.192C380.964 94.4974 379.779 94.7 377.945 94.7V96.7C379.844 96.7 381.392 96.5026 382.464 96.008L381.625 94.192ZM378.686 95.0293L342.786 55.3293L341.303 56.6707L377.203 96.3707L378.686 95.0293ZM341.045 56V80H343.045V56H341.045ZM341.045 80C341.045 82.887 341.211 85.1436 341.569 86.7216L343.52 86.2784C343.212 84.923 343.045 82.8463 343.045 80H341.045ZM341.58 86.7631C342.015 88.3586 342.745 89.6398 343.875 90.4222L345.014 88.7778C344.411 88.3602 343.874 87.5748 343.509 86.2369L341.58 86.7631ZM343.875 90.4222C344.948 91.1649 346.416 91.5569 348.165 91.6968L348.324 89.7032C346.74 89.5764 345.674 89.2351 345.014 88.7778L343.875 90.4222ZM347.29 90.9983C347.579 91.9229 347.745 93.3055 347.745 95.2H349.745C349.745 93.2279 349.577 91.6104 349.199 90.4017L347.29 90.9983ZM348.782 94.2007C345.175 94.0671 342.195 94 339.845 94V96C342.161 96 345.114 96.0662 348.708 96.1993L348.782 94.2007ZM339.845 94C336.697 94 333.649 94.067 330.699 94.201L330.79 96.199C333.707 96.0664 336.725 96 339.845 96V94ZM331.745 95.2C331.745 93.3055 331.91 91.9229 332.199 90.9983L330.29 90.4017C329.912 91.6104 329.745 93.2279 329.745 95.2H331.745ZM331.324 91.6968C333.066 91.5574 334.523 91.1664 335.545 90.4L334.345 88.8C333.766 89.2336 332.756 89.5759 331.165 89.7032L331.324 91.6968ZM335.514 90.4222C336.659 89.6291 337.354 88.3286 337.72 86.7216L335.769 86.2784C335.468 87.6047 334.963 88.3709 334.375 88.7778L335.514 90.4222ZM337.709 86.7631C338.145 85.1656 338.345 82.8918 338.345 80H336.345C336.345 82.8415 336.144 84.9011 335.78 86.2369L337.709 86.7631ZM338.345 80V50.8H336.345V80H338.345ZM338.052 50.0929L337.952 49.9929L336.537 51.4071L336.637 51.5071L338.052 50.0929ZM337.952 49.9929C337.323 49.3642 336.53 48.981 335.623 48.8161L335.266 50.7839C335.826 50.8857 336.233 51.1024 336.537 51.4071L337.952 49.9929ZM335.708 48.8352C334.863 48.6048 333.366 48.4348 331.309 48.3021L331.18 50.2979C333.257 50.4319 334.56 50.5952 335.181 50.7648L335.708 48.8352ZM332.208 49.0324C331.907 47.9488 331.745 46.546 331.745 44.8H329.745C329.745 46.654 329.915 48.2512 330.281 49.5676L332.208 49.0324ZM330.689 45.7985C333.106 45.9328 335.458 46 337.745 46V44C335.497 44 333.183 43.9339 330.8 43.8015L330.689 45.7985ZM337.745 46C339.833 46 341.954 45.9326 344.107 45.798L343.982 43.8019C341.869 43.934 339.79 44 337.745 44V46ZM343.299 45.466L376.599 82.766L378.091 81.434L344.791 44.134L343.299 45.466ZM378.345 82.1V59.8H376.345V82.1H378.345ZM378.345 59.8C378.345 56.976 378.145 54.7628 377.706 53.2253L375.783 53.7747C376.144 55.0372 376.345 57.024 376.345 59.8H378.345ZM377.72 53.2784C377.354 51.6714 376.659 50.3709 375.514 49.5778L374.375 51.2222C374.963 51.6291 375.468 52.3953 375.769 53.7216L377.72 53.2784ZM375.514 49.5778C374.435 48.8312 372.929 48.442 371.121 48.3029L370.968 50.2971C372.627 50.4247 373.72 50.7688 374.375 51.2222L375.514 49.5778ZM372.03 49.1287C371.772 47.6485 371.645 46.2059 371.645 44.8H369.645C369.645 46.3275 369.783 47.8848 370.059 49.4713L372.03 49.1287ZM370.605 45.7992C373.947 45.9329 376.827 46 379.245 46V44C376.862 44 374.009 43.9338 370.685 43.8008L370.605 45.7992ZM414.615 92.4L414.168 93.2944L414.168 93.2944L414.615 92.4ZM404.315 83.2L403.457 83.7145L403.462 83.7229L403.468 83.7313L404.315 83.2ZM405.015 55.9L405.808 56.509L405.813 56.5022L405.015 55.9ZM442.915 45.4L442.736 46.3839L442.746 46.3857L442.756 46.3873L442.915 45.4ZM452.315 48L453.288 48.2305L453.479 47.4251L452.723 47.0872L452.315 48ZM451.415 59.5L451.821 60.4138L452.415 60.1499V59.5H451.415ZM446.315 60.3L445.316 60.3476L445.361 61.3H446.315V60.3ZM442.215 51.4L442.78 50.5747L442.78 50.5747L442.215 51.4ZM420.215 51.4L419.739 50.5207L419.731 50.525L420.215 51.4ZM413.215 58.4L414.097 58.8717L414.101 58.8633L413.215 58.4ZM416.215 84.4L415.445 85.0378L415.451 85.0449L416.215 84.4ZM436.315 90.7L436.374 91.6983L436.374 91.6983L436.315 90.7ZM439.815 90.1L439.572 89.1299L439.56 89.133L439.547 89.1365L439.815 90.1ZM442.115 88.6L442.959 89.1369L442.969 89.1206L442.979 89.1039L442.115 88.6ZM442.315 77.5L441.381 77.859L441.386 77.8719L441.392 77.8846L442.315 77.5ZM440.315 75.8L439.999 76.7487L440.028 76.7584L440.057 76.7662L440.315 75.8ZM435.415 75.2L434.466 75.5162L434.687 76.179L435.385 76.1996L435.415 75.2ZM434.815 70.6L434.901 69.6038L433.815 69.5093V70.6H434.815ZM456.215 70.6H457.215V69.495L456.115 69.605L456.215 70.6ZM455.715 75.2L455.767 76.1986L456.486 76.1608L456.678 75.4676L455.715 75.2ZM453.015 75.8L453.462 76.6944L453.505 76.6732L453.545 76.648L453.015 75.8ZM451.915 77.4L452.88 77.6631L452.882 77.6529L452.885 77.6425L451.915 77.4ZM451.815 87.2L450.825 87.3414L450.831 87.3835L450.84 87.4249L451.815 87.2ZM452.815 90L453.36 90.8384L454.089 90.3648L453.721 89.5771L452.815 90ZM442.815 94.2L443.061 95.1692L443.073 95.1662L442.815 94.2ZM429.815 94.7C424.211 94.7 419.302 93.6255 415.062 91.5056L414.168 93.2944C418.728 95.5745 423.952 96.7 429.815 96.7V94.7ZM415.062 91.5056C410.816 89.3825 407.525 86.4372 405.162 82.6687L403.468 83.7313C406.038 87.8295 409.614 91.0175 414.168 93.2944L415.062 91.5056ZM405.172 82.6855C402.875 78.8563 401.715 74.4709 401.715 69.5H399.715C399.715 74.7958 400.955 79.5437 403.457 83.7145L405.172 82.6855ZM401.715 69.5C401.715 64.3562 403.093 60.0447 405.808 56.509L404.222 55.291C401.203 59.2219 399.715 63.9772 399.715 69.5H401.715ZM405.813 56.5022C408.566 52.8534 412.185 50.0933 416.698 48.2239L415.932 46.3761C411.111 48.3734 407.197 51.3466 404.217 55.2978L405.813 56.5022ZM416.698 48.2239C421.236 46.3436 426.105 45.4 431.315 45.4V43.4C425.858 43.4 420.727 44.3898 415.932 46.3761L416.698 48.2239ZM431.315 45.4C435.327 45.4 439.133 45.7289 442.736 46.3839L443.094 44.4161C439.363 43.7378 435.436 43.4 431.315 43.4V45.4ZM442.756 46.3873C446.432 46.9781 449.476 47.8253 451.906 48.9128L452.723 47.0872C450.087 45.908 446.864 45.0219 443.074 44.4127L442.756 46.3873ZM451.342 47.7695C450.714 50.4201 450.415 54.3487 450.415 59.5H452.415C452.415 54.3847 452.716 50.6466 453.288 48.2305L451.342 47.7695ZM451.009 58.5862C449.995 59.0368 448.457 59.3 446.315 59.3V61.3C448.573 61.3 450.435 61.0298 451.821 60.4138L451.009 58.5862ZM447.314 60.2524C447.105 55.8636 445.659 52.545 442.78 50.5747L441.65 52.2253C443.837 53.7217 445.125 56.3364 445.316 60.3476L447.314 60.2524ZM442.78 50.5747C440.024 48.6895 436.37 47.8 431.915 47.8V49.8C436.127 49.8 439.339 50.6438 441.65 52.2253L442.78 50.5747ZM431.915 47.8C427.192 47.8 423.118 48.6899 419.739 50.5207L420.691 52.2793C423.711 50.6434 427.438 49.8 431.915 49.8V47.8ZM419.731 50.525C416.441 52.3451 413.96 54.8154 412.329 57.9367L414.101 58.8633C415.536 56.1179 417.722 53.9216 420.699 52.275L419.731 50.525ZM412.333 57.9283C410.719 60.9468 409.915 64.2433 409.915 67.8H411.915C411.915 64.5567 412.645 61.5865 414.097 58.8716L412.333 57.9283ZM409.915 67.8C409.915 74.7781 411.731 80.5537 415.445 85.0378L416.985 83.7622C413.632 79.713 411.915 74.4219 411.915 67.8H409.915ZM415.451 85.0449C419.276 89.5785 424.68 91.8 431.515 91.8V89.8C425.15 89.8 420.354 87.7548 416.979 83.7551L415.451 85.0449ZM431.515 91.8C433.588 91.8 435.211 91.7667 436.374 91.6983L436.256 89.7017C435.152 89.7667 433.575 89.8 431.515 89.8V91.8ZM436.374 91.6983C437.584 91.6271 438.821 91.414 440.082 91.0635L439.547 89.1365C438.409 89.4527 437.312 89.6396 436.256 89.7017L436.374 91.6983ZM440.057 91.0701C441.304 90.7585 442.321 90.1394 442.959 89.1369L441.271 88.0631C440.976 88.5272 440.459 88.9081 439.572 89.1299L440.057 91.0701ZM442.979 89.1039C443.585 88.0644 443.815 86.5387 443.815 84.7H441.815C441.815 86.4613 441.578 87.5356 441.251 88.0961L442.979 89.1039ZM443.815 84.7V81.6H441.815V84.7H443.815ZM443.815 81.6C443.815 79.6576 443.654 78.1145 443.238 77.1154L441.392 77.8846C441.642 78.4855 441.815 79.6757 441.815 81.6H443.815ZM443.248 77.141C442.785 75.9379 441.841 75.172 440.573 74.8338L440.057 76.7662C440.789 76.9613 441.178 77.3288 441.381 77.859L443.248 77.141ZM440.631 74.8513C439.482 74.4684 437.723 74.2675 435.444 74.2004L435.385 76.1996C437.64 76.2659 439.147 76.4649 439.999 76.7487L440.631 74.8513ZM436.364 74.8838C436.01 73.8218 435.815 72.4053 435.815 70.6H433.815C433.815 72.528 434.02 74.1782 434.466 75.5162L436.364 74.8838ZM434.728 71.5962C436.314 71.7341 439.996 71.8 445.715 71.8V69.8C439.967 69.8 436.382 69.7325 434.901 69.6038L434.728 71.5962ZM445.715 71.8C451.361 71.8 454.92 71.7345 456.314 71.595L456.115 69.605C454.843 69.7322 451.402 69.8 445.715 69.8V71.8ZM455.215 70.6C455.215 72.4165 455.052 73.8513 454.751 74.9324L456.678 75.4676C457.045 74.1487 457.215 72.5169 457.215 70.6H455.215ZM455.662 74.2014C454.366 74.2696 453.246 74.4761 452.485 74.952L453.545 76.648C453.85 76.4572 454.531 76.2637 455.767 76.1986L455.662 74.2014ZM452.568 74.9056C451.684 75.3473 451.187 76.1876 450.945 77.1575L452.885 77.6425C453.043 77.0124 453.279 76.786 453.462 76.6944L452.568 74.9056ZM450.95 77.1369C450.712 78.0087 450.615 79.3242 450.615 81H452.615C452.615 79.3425 452.717 78.258 452.88 77.6631L450.95 77.1369ZM450.615 81V83.5H452.615V81H450.615ZM450.615 83.5C450.615 85.0553 450.682 86.3415 450.825 87.3414L452.805 87.0586C452.681 86.1918 452.615 85.0114 452.615 83.5H450.615ZM450.84 87.4249C451.059 88.3737 451.419 89.3739 451.909 90.4229L453.721 89.5771C453.277 88.6261 452.97 87.7596 452.789 86.9751L450.84 87.4249ZM452.27 89.1616C449.714 90.8231 446.484 92.1865 442.557 93.2338L443.073 95.1662C447.145 94.0801 450.583 92.6436 453.36 90.8384L452.27 89.1616ZM442.568 93.2308C438.728 94.2073 434.478 94.7 429.815 94.7V96.7C434.618 96.7 439.035 96.1927 443.061 95.1692L442.568 93.2308Z" transform="translate(43 95)" fill="#0F0F0F"/>
<path d="M10.2 88.9L9.45014 89.5616L9.45562 89.5678L10.2 88.9ZM10.3 51.4L9.56102 50.7262L9.55562 50.7322L10.3 51.4ZM43.4 88.9L42.6562 88.2316L42.6556 88.2322L43.4 88.9ZM37.1 86.1L37.9346 86.6509L37.9396 86.6433L37.1 86.1ZM38.5 59.9L37.557 60.2328L37.5599 60.241L37.5629 60.2491L38.5 59.9ZM33.4 52L32.753 52.7625L32.753 52.7625L33.4 52ZM16.7 54.1L15.8706 53.5414L15.8666 53.5473L15.8627 53.5532L16.7 54.1ZM15.3 80.3L14.355 80.6271L14.3588 80.6382L14.3629 80.6491L15.3 80.3ZM20.5 88.3L19.8399 89.0512L19.8464 89.0569L19.853 89.0625L20.5 88.3ZM26.8 94.7C20.0372 94.7 14.7922 92.5216 10.9444 88.2322L9.45562 89.5678C13.7411 94.3451 19.5628 96.7 26.8 96.7V94.7ZM10.9498 88.2384C7.15589 83.9386 5.2 77.9673 5.2 70.2H3.2C3.2 78.2994 5.24411 84.7948 9.45016 89.5616L10.9498 88.2384ZM5.2 70.2C5.2 62.3675 7.18836 56.3663 11.0444 52.0678L9.55562 50.7322C5.27831 55.5004 3.2 62.0325 3.2 70.2H5.2ZM11.039 52.0738C14.9533 47.7806 20.2676 45.6 27.1 45.6V43.6C19.7991 43.6 13.9134 45.9527 9.56104 50.7262L11.039 52.0738ZM27.1 45.6C33.868 45.6 39.0771 47.7484 42.8551 51.9671L44.345 50.6329C40.1229 45.9183 34.332 43.6 27.1 43.6V45.6ZM42.8551 51.9671C46.6438 56.1978 48.6 62.1318 48.6 69.9H50.6C50.6 61.8015 48.5562 55.3355 44.345 50.6329L42.8551 51.9671ZM48.6 69.9C48.6 77.7969 46.5795 83.8653 42.6562 88.2316L44.1438 89.5684C48.4872 84.7347 50.6 78.1365 50.6 69.9H48.6ZM42.6556 88.2322C38.8078 92.5216 33.5628 94.7 26.8 94.7V96.7C34.0372 96.7 39.8589 94.3451 44.1444 89.5678L42.6556 88.2322ZM28.1 92.1C32.256 92.1 35.5608 90.2475 37.9346 86.6508L36.2654 85.5492C34.2392 88.6192 31.544 90.1 28.1 90.1V92.1ZM37.9396 86.6433C40.2852 83.0182 41.4 78.0337 41.4 71.8H39.4C39.4 77.833 38.3148 82.3818 36.2604 85.5567L37.9396 86.6433ZM41.4 71.8C41.4 67.176 40.7543 63.0865 39.4371 59.5509L37.5629 60.2491C38.779 63.5135 39.4 67.3573 39.4 71.8H41.4ZM39.443 59.5672C38.1986 56.0415 36.4118 53.244 34.047 51.2375L32.753 52.7625C34.7882 54.4894 36.4014 56.9585 37.557 60.2328L39.443 59.5672ZM34.047 51.2375C31.6676 49.2186 28.9053 48.2 25.8 48.2V50.2C28.428 50.2 30.7324 51.0481 32.753 52.7625L34.047 51.2375ZM25.8 48.2C21.5933 48.2 18.2523 50.0049 15.8706 53.5414L17.5294 54.6586C19.5477 51.6617 22.2734 50.2 25.8 50.2V48.2ZM15.8627 53.5532C13.5786 57.0509 12.5 61.9745 12.5 68.2H14.5C14.5 62.1588 15.5548 57.6825 17.5373 54.6468L15.8627 53.5532ZM12.5 68.2C12.5 72.8843 13.1107 77.0324 14.355 80.6271L16.245 79.9729C15.0893 76.6343 14.5 72.7157 14.5 68.2H12.5ZM14.3629 80.6491C15.6737 84.1675 17.4895 86.9857 19.8399 89.0512L21.1601 87.5488C19.1105 85.7476 17.4596 83.2325 16.2371 79.9509L14.3629 80.6491ZM19.853 89.0625C22.2324 91.0814 24.9947 92.1 28.1 92.1V90.1C25.472 90.1 23.1676 89.2519 21.147 87.5375L19.853 89.0625ZM79.2063 65.3L78.463 64.631L77.0192 66.2352L79.1764 66.2996L79.2063 65.3ZM90.5063 69.1L89.8899 69.8876L89.9007 69.8958L90.5063 69.1ZM88.9063 91.2L88.3189 90.3907L88.9063 91.2ZM63.1063 94.7L62.8162 95.6571L62.8241 95.6594L63.1063 94.7ZM58.6063 92.3H57.6063V92.6699L57.847 92.9508L58.6063 92.3ZM59.9063 88.4L60.4875 87.5863L59.7228 87.04L59.1301 87.7694L59.9063 88.4ZM64.1063 90.1L63.8637 91.0702L63.8716 91.0721L64.1063 90.1ZM81.0063 88L80.4779 87.1509L80.4694 87.1563L81.0063 88ZM82.0063 74.4L82.5554 73.5643L82.5554 73.5643L82.0063 74.4ZM70.6063 72.5L69.847 73.1508L70.2846 73.6613L70.9225 73.4487L70.6063 72.5ZM69.5063 70.6L68.5576 70.9162L68.5691 70.9509L68.5832 70.9846L69.5063 70.6ZM69.0063 68.4L68.2857 67.7066L67.9652 68.0396L68.0112 68.4995L69.0063 68.4ZM74.1063 63.1L73.388 62.4042L73.3857 62.4066L74.1063 63.1ZM82.6063 54L83.3675 54.6485L84.7717 53H82.6063V54ZM68.2063 54.4L68.4158 55.3778L68.4486 55.3708L68.481 55.3615L68.2063 54.4ZM65.8063 55.8L65.0663 55.1273L65.0488 55.1466L65.0323 55.1668L65.8063 55.8ZM63.9063 59.4V60.4H64.5833L64.8347 59.7714L63.9063 59.4ZM59.9063 58.2L58.9277 57.994L58.8009 58.5963L59.2816 58.9809L59.9063 58.2ZM60.9063 44.8L60.9375 43.8005L59.8791 43.7674L59.9066 44.826L60.9063 44.8ZM77.1063 45V46L77.1149 46L77.1063 45ZM88.6063 44.9L88.6149 45.9L88.6418 45.8997L88.6686 45.898L88.6063 44.9ZM92.4063 44.8L93.1824 44.1694L92.8822 43.8H92.4063V44.8ZM93.5063 49.3L94.2541 49.9638L94.4804 49.7089L94.5039 49.3688L93.5063 49.3ZM85.6063 58.2L86.3488 58.8698L86.3541 58.8638L85.6063 58.2ZM79.1764 66.2996C83.4627 66.4275 87.0152 67.6377 89.8899 69.8875L91.1226 68.3125C87.864 65.7623 83.8832 64.4392 79.2361 64.3004L79.1764 66.2996ZM89.9007 69.8958C92.7033 72.0282 94.1063 74.9255 94.1063 78.7H96.1063C96.1063 74.3411 94.4426 70.8385 91.1118 68.3042L89.9007 69.8958ZM94.1063 78.7C94.1063 83.7298 92.1798 87.5884 88.3189 90.3907L89.4936 92.0093C93.8994 88.8116 96.1063 84.3369 96.1063 78.7H94.1063ZM88.3189 90.3907C84.4162 93.2233 78.9171 94.7 71.7063 94.7V96.7C79.162 96.7 85.1296 95.1767 89.4936 92.0093L88.3189 90.3907ZM71.7063 94.7C68.2949 94.7 65.5316 94.371 63.3884 93.7406L62.8241 95.6594C65.2143 96.3624 68.1843 96.7 71.7063 96.7V94.7ZM63.3963 93.743C61.2438 93.0907 59.9739 92.359 59.3655 91.6492L57.847 92.9508C58.8386 94.1077 60.5687 94.976 62.8162 95.657L63.3963 93.743ZM59.6063 92.3C59.6063 90.9681 59.9774 89.8983 60.6824 89.0306L59.1301 87.7694C58.1018 89.0351 57.6063 90.5652 57.6063 92.3H59.6063ZM59.325 89.2137C60.4067 89.9864 61.9465 90.5908 63.8637 91.0701L64.3488 89.1299C62.5327 88.6758 61.2724 88.1469 60.4875 87.5863L59.325 89.2137ZM63.8716 91.0721C65.9027 91.5624 68.2855 91.8 71.0063 91.8V89.8C68.3937 89.8 66.1764 89.571 64.3409 89.1279L63.8716 91.0721ZM71.0063 91.8C74.9151 91.8 78.4374 90.82 81.5431 88.8437L80.4694 87.1563C77.7084 88.9133 74.564 89.8 71.0063 89.8V91.8ZM81.5346 88.8491C84.7991 86.8178 86.5063 83.9447 86.5063 80.3H84.5063C84.5063 83.1886 83.2134 85.4489 80.478 87.1509L81.5346 88.8491ZM86.5063 80.3C86.5063 77.504 85.1167 75.2474 82.5554 73.5643L81.4571 75.2357C83.5625 76.6193 84.5063 78.296 84.5063 80.3H86.5063ZM82.5554 73.5643C80.0361 71.9087 77.0721 71.1 73.7063 71.1V73.1C76.7404 73.1 79.3097 73.8246 81.4571 75.2357L82.5554 73.5643ZM73.7063 71.1C72.3805 71.1 71.2295 71.2382 70.29 71.5513L70.9225 73.4487C71.583 73.2285 72.4987 73.1 73.7063 73.1V71.1ZM71.3655 71.8492C71.0554 71.4874 70.7375 70.955 70.4293 70.2154L68.5832 70.9846C68.9417 71.845 69.3571 72.5793 69.847 73.1508L71.3655 71.8492ZM70.4549 70.2838C70.206 69.5369 70.059 68.8774 70.0013 68.3005L68.0112 68.4995C68.0869 69.256 68.2732 70.0631 68.5576 70.9162L70.4549 70.2838ZM69.7268 69.0934L74.8268 63.7934L73.3857 62.4066L68.2857 67.7066L69.7268 69.0934ZM74.8245 63.7958C78.9571 59.5299 81.811 56.4757 83.3675 54.6485L81.845 53.3515C80.3348 55.1243 77.522 58.1368 73.388 62.4042L74.8245 63.7958ZM82.6063 53H72.6063V55H82.6063V53ZM72.6063 53C70.5899 53 69.0061 53.1315 67.9315 53.4385L68.481 55.3615C69.2731 55.1352 70.6226 55 72.6063 55V53ZM67.9967 53.4222C66.8509 53.6677 65.8678 54.2457 65.0663 55.1273L66.5462 56.4727C67.078 55.8877 67.695 55.5323 68.4158 55.3778L67.9967 53.4222ZM65.0323 55.1668C64.3334 56.0209 63.6548 57.3359 62.9778 59.0286L64.8347 59.7714C65.491 58.1307 66.0791 57.0458 66.5802 56.4332L65.0323 55.1668ZM63.9063 58.4C62.3976 58.4 61.3063 58.0394 60.5309 57.4191L59.2816 58.9809C60.5062 59.9606 62.0816 60.4 63.9063 60.4V58.4ZM60.8848 58.406C61.705 54.5099 62.0407 49.9619 61.9059 44.774L59.9066 44.826C60.0385 49.9048 59.7075 54.2901 58.9277 57.994L60.8848 58.406ZM60.875 45.7995C65.156 45.9333 70.5673 46 77.1063 46V44C70.5785 44 65.1898 43.9334 60.9375 43.8005L60.875 45.7995ZM77.1149 46L88.6149 45.9L88.5976 43.9L77.0976 44L77.1149 46ZM88.6686 45.898C89.7085 45.8331 90.9533 45.8 92.4063 45.8V43.8C90.9258 43.8 89.6373 43.8336 88.5439 43.9019L88.6686 45.898ZM91.6301 45.4306C92.2817 46.2325 92.6317 47.4468 92.5086 49.2312L94.5039 49.3688C94.6475 47.2865 94.2642 45.5009 93.1824 44.1694L91.6301 45.4306ZM92.7584 48.6362L84.8584 57.5362L86.3541 58.8638L94.2541 49.9638L92.7584 48.6362ZM84.8637 57.5302C81.797 60.9302 79.6634 63.2972 78.463 64.631L79.9495 65.969C81.1491 64.6361 83.2821 62.2698 86.3488 58.8698L84.8637 57.5302ZM106.6 94.2L105.893 94.9071L105.893 94.9071L106.6 94.2ZM106.8 84.8L106.11 84.0759L106.102 84.0843L106.093 84.0929L106.8 84.8ZM116.8 84.8L116.057 85.469L116.074 85.4885L116.093 85.5071L116.8 84.8ZM116.7 94.2L117.369 94.9433L117.369 94.9433L116.7 94.2ZM111.6 95C109.66 95 108.274 94.46 107.307 93.4929L105.893 94.9071C107.326 96.34 109.273 97 111.6 97V95ZM107.307 93.4929C106.314 92.5001 105.8 91.2306 105.8 89.6H103.8C103.8 91.7028 104.486 93.4999 105.893 94.9071L107.307 93.4929ZM105.8 89.6C105.8 88.0016 106.359 86.655 107.507 85.5071L106.093 84.0929C104.574 85.6116 103.8 87.4651 103.8 89.6H105.8ZM107.49 85.5241C108.684 84.3869 110.195 83.8 112.1 83.8V81.8C109.739 81.8 107.716 82.5464 106.11 84.0759L107.49 85.5241ZM112.1 83.8C113.775 83.8 115.062 84.3641 116.057 85.469L117.543 84.131C116.138 82.5692 114.292 81.8 112.1 81.8V83.8ZM116.093 85.5071C117.206 86.6203 117.7 87.7765 117.7 89H119.7C119.7 87.1569 118.927 85.513 117.507 84.0929L116.093 85.5071ZM117.7 89C117.7 91.0632 117.101 92.494 116.031 93.4567L117.369 94.9433C118.966 93.506 119.7 91.4702 119.7 89H117.7ZM116.031 93.4567C114.909 94.4665 113.46 95 111.6 95V97C113.874 97 115.824 96.3335 117.369 94.9433L116.031 93.4567Z" fill="#0F0F0F"/>
</svg>
