<svg width="574" height="208" viewBox="0 0 574 208" fill="none" xmlns="http://www.w3.org/2000/svg">
<path d="M38.7 70.4L37.4851 68.8113L37.4736 68.8201L37.4623 68.829L38.7 70.4ZM38.5 52.8L37.1064 54.2346L37.1272 54.2547L37.1486 54.2743L38.5 52.8ZM23.3 50L22.8333 48.0552L21.3 48.4232V50H23.3ZM25.1 88.7L23.6858 90.1142L25.1 88.7ZM31.3 90.7L33.1974 90.0675L32.763 88.7644L31.3908 88.7021L31.3 90.7ZM31.8 95.2L31.7286 97.1987L33.8 97.2727V95.2H31.8ZM7.6 95.2H5.6V97.2816L7.67994 97.1984L7.6 95.2ZM8.1 90.7L7.9859 88.7033L6.66239 88.7789L6.21652 90.0273L8.1 90.7ZM12.8 89.1L11.2886 87.7901L11.2815 87.7984L12.8 89.1ZM13.6 52.2L15.4974 51.5675L15.4974 51.5675L13.6 52.2ZM11.8 50.1L10.9056 51.8889L10.9335 51.9028L10.9619 51.9159L11.8 50.1ZM8.1 49.3L6.20263 49.9325L6.62118 51.1881L7.94051 51.2936L8.1 49.3ZM7.6 44.8L7.64254 42.8004L5.6 42.757V44.8H7.6ZM19.9 45V47H19.9167L19.9333 46.9997L19.9 45ZM31.9 44.8V42.8H31.8833L31.8667 42.8003L31.9 44.8ZM47 49.1L48.3345 47.6103L48.3345 47.6103L47 49.1ZM49.5 68.9L51.2338 69.8969L51.2338 69.8969L49.5 68.9ZM42.6 75.3L41.6749 73.5268L41.6668 73.531L41.6588 73.5353L42.6 75.3ZM25.6 77L23.6201 77.2828L23.7976 78.5253L24.9936 78.9059L25.6 77ZM25.7 72.7L26.0922 70.7388L24.361 70.3926L23.8026 72.0675L25.7 72.7ZM30.1 75C33.9628 75 37.3014 74.0481 39.9377 71.971L37.4623 68.829C35.6986 70.2185 33.3039 71 30.1 71V75ZM39.9149 71.9887C42.8548 69.7405 44.1 66.1574 44.1 61.8H40.1C40.1 65.4426 39.0785 67.5928 37.4851 68.8113L39.9149 71.9887ZM44.1 61.8C44.1 57.542 42.7347 53.9687 39.8515 51.3257L37.1486 54.2743C39.0653 56.0313 40.1 58.458 40.1 61.8H44.1ZM39.8936 51.3654C37.0375 48.591 32.8328 47.4 27.7 47.4V51.4C32.3005 51.4 35.2958 52.4757 37.1064 54.2346L39.8936 51.3654ZM27.7 47.4C26.232 47.4 24.603 47.6305 22.8333 48.0552L23.7667 51.9448C25.3304 51.5695 26.6346 51.4 27.7 51.4V47.4ZM21.3 50V82.2H25.3V50H21.3ZM21.3 82.2C21.3 85.4587 21.8982 88.3266 23.6858 90.1142L26.5142 87.2858C25.9018 86.6734 25.3 85.208 25.3 82.2H21.3ZM23.6858 90.1142C25.4195 91.8479 28.1115 92.5571 31.2092 92.6979L31.3908 88.7021C28.6218 88.5762 27.1805 87.9521 26.5142 87.2858L23.6858 90.1142ZM29.4026 91.3325C29.6317 92.0198 29.8 93.2584 29.8 95.2H33.8C33.8 93.1416 33.6349 91.3802 33.1974 90.0675L29.4026 91.3325ZM31.8714 93.2013C28.1127 93.067 24.2221 93 20.2 93V97C24.1779 97 28.0207 97.0663 31.7286 97.1987L31.8714 93.2013ZM20.2 93C15.1188 93 10.8899 93.0668 7.52006 93.2016L7.67994 97.1984C10.9768 97.0665 15.1479 97 20.2 97V93ZM9.6 95.2C9.6 93.1691 9.77289 91.9623 9.98348 91.3727L6.21652 90.0273C5.76045 91.3043 5.6 93.0976 5.6 95.2H9.6ZM8.2141 92.6967C10.6525 92.5574 12.9553 91.992 14.3185 90.4016L11.2815 87.7984C11.0447 88.0747 10.2141 88.5759 7.9859 88.7033L8.2141 92.6967ZM14.3114 90.4099C15.0426 89.5662 15.4707 88.479 15.7266 87.3374C15.9862 86.1791 16.1 84.8213 16.1 83.3H12.1C12.1 84.6454 11.9971 85.6876 11.8234 86.4626C11.646 87.2543 11.4241 87.6338 11.2886 87.7901L14.3114 90.4099ZM16.1 83.3V56.6H12.1V83.3H16.1ZM16.1 56.6C16.1 54.5995 15.9334 52.8758 15.4974 51.5675L11.7026 52.8325C11.9332 53.5242 12.1 54.7338 12.1 56.6H16.1ZM15.4974 51.5675C15.0096 50.1043 14.0612 48.9409 12.6381 48.2841L10.9619 51.9159C11.2721 52.0591 11.5237 52.2957 11.7026 52.8325L15.4974 51.5675ZM12.6944 48.3111C11.5437 47.7358 9.99879 47.4455 8.25949 47.3064L7.94051 51.2936C9.53455 51.4212 10.4563 51.6642 10.9056 51.8889L12.6944 48.3111ZM9.99737 48.6675C9.76826 47.9802 9.6 46.7416 9.6 44.8H5.6C5.6 46.8584 5.76508 48.6198 6.20263 49.9325L9.99737 48.6675ZM7.55746 46.7995C13.8194 46.9328 17.9415 47 19.9 47V43C17.9919 43 13.914 42.9339 7.64254 42.8004L7.55746 46.7995ZM19.9333 46.9997L31.9333 46.7997L31.8667 42.8003L19.8667 43.0003L19.9333 46.9997ZM31.9 46.8C38.5534 46.8 42.9974 48.1995 45.6655 50.5897L48.3345 47.6103C44.6026 44.2671 38.98 42.8 31.9 42.8V46.8ZM45.6655 50.5897C48.4233 53.0602 49.8 56.1763 49.8 60.1H53.8C53.8 55.0904 51.9767 50.8731 48.3345 47.6103L45.6655 50.5897ZM49.8 60.1C49.8 62.9648 49.1179 65.5522 47.7662 67.9031L51.2338 69.8969C52.9487 66.9145 53.8 63.6352 53.8 60.1H49.8ZM47.7662 67.9031C46.4459 70.1992 44.4469 72.0806 41.6749 73.5268L43.5251 77.0732C46.8865 75.3194 49.4874 72.9341 51.2338 69.8969L47.7662 67.9031ZM41.6588 73.5353C39.0131 74.9463 35.7204 75.7 31.7 75.7V79.7C36.2129 79.7 40.1869 78.8537 43.5412 77.0647L41.6588 73.5353ZM31.7 75.7C29.1847 75.7 27.3878 75.4701 26.2064 75.0941L24.9936 78.9059C26.7455 79.4633 29.0153 79.7 31.7 79.7V75.7ZM27.5799 76.7172C27.4493 75.8033 27.4 75.2187 27.4 74.9H23.4C23.4 75.5146 23.484 76.3301 23.6201 77.2828L27.5799 76.7172ZM27.4 74.9C27.4 74.1745 27.4853 73.6686 27.5974 73.3325L23.8026 72.0675C23.5147 72.9314 23.4 73.8922 23.4 74.9H27.4ZM25.3078 74.6612C26.5049 74.9006 28.1297 75 30.1 75V71C28.2036 71 26.8951 70.8994 26.0922 70.7388L25.3078 74.6612ZM113.971 90.7L115.868 90.0675L115.459 88.8388L114.17 88.7099L113.971 90.7ZM114.471 95.2L114.371 97.1975L116.471 97.3025V95.2H114.471ZM93.5711 95.2H91.5711V97.3025L93.671 97.1975L93.5711 95.2ZM94.1711 90.7L93.9124 88.7168L92.7819 88.8643L92.3328 89.9122L94.1711 90.7ZM97.3711 89.9L98.3424 91.6483L98.3715 91.6321L98.4001 91.615L97.3711 89.9ZM97.3711 85.1L99.1918 84.2724L99.1882 84.2644L99.1845 84.2565L97.3711 85.1ZM95.3711 80.8L97.1845 79.9565L96.6466 78.8H95.3711V80.8ZM72.6711 81.3L72.5508 79.3036L71.3125 79.3782L70.8292 80.5207L72.6711 81.3ZM71.5711 83.9L73.4052 84.6975L73.4092 84.6884L73.413 84.6793L71.5711 83.9ZM74.6711 90.7L76.5685 90.0675L76.1578 88.8355L74.8653 88.7095L74.6711 90.7ZM75.2711 95.2L75.166 97.1972L77.2711 97.308V95.2H75.2711ZM59.8711 95.2H57.8711V97.3289L59.9959 97.1961L59.8711 95.2ZM60.4711 90.7L60.1133 88.7323L58.8897 88.9547L58.548 90.1506L60.4711 90.7ZM63.8711 88.9L65.3896 90.2016L65.4117 90.1759L65.4328 90.1494L63.8711 88.9ZM67.0711 83L68.8918 83.8276L68.894 83.8229L67.0711 83ZM84.2711 44.9L83.8591 42.9429L82.8659 43.152L82.4482 44.0771L84.2711 44.9ZM88.2711 44.5L90.073 43.6321L89.5277 42.5H88.2711V44.5ZM106.671 82.7L108.475 81.8371L108.473 81.8321L106.671 82.7ZM110.371 88.9L108.912 90.2679L108.934 90.2914L108.957 90.3142L110.371 88.9ZM93.3711 76.7V78.7H96.5387L95.1768 75.8401L93.3711 76.7ZM87.3711 64.1L89.1768 63.2401L89.1718 63.2296L89.1667 63.2191L87.3711 64.1ZM83.7711 55.7L85.6745 55.086L83.7634 49.1617L81.8662 55.0904L83.7711 55.7ZM81.7711 60.7L79.968 59.8345L79.9604 59.8505L79.953 59.8667L81.7711 60.7ZM80.3711 63.7L78.5822 62.8056L78.5597 62.8507L78.5394 62.8969L80.3711 63.7ZM74.6711 76.7L72.8394 75.8969L71.6104 78.7H74.6711V76.7ZM112.074 91.3325C112.303 92.0198 112.471 93.2584 112.471 95.2H116.471C116.471 93.1416 116.306 91.3802 115.868 90.0675L112.074 91.3325ZM114.571 93.2025C111.858 93.0668 108.388 93 104.171 93V97C108.354 97 111.751 97.0665 114.371 97.1975L114.571 93.2025ZM104.171 93C99.7561 93 96.1854 93.0668 93.4712 93.2025L93.671 97.1975C96.2901 97.0665 99.7861 97 104.171 97V93ZM95.5711 95.2C95.5711 93.1817 95.7782 92.0272 96.0094 91.4878L92.3328 89.9122C91.764 91.2394 91.5711 93.085 91.5711 95.2H95.5711ZM94.4298 92.6832C95.9779 92.4813 97.3812 92.1823 98.3424 91.6483L96.3998 88.1517C96.161 88.2844 95.431 88.5187 93.9124 88.7168L94.4298 92.6832ZM98.4001 91.615C99.6251 90.88 100.371 89.6858 100.371 88.2H96.3711C96.3711 88.2312 96.3677 88.2361 96.3713 88.222C96.373 88.2153 96.3759 88.2058 96.3806 88.1945C96.3853 88.1831 96.3909 88.1717 96.3972 88.161C96.4035 88.1503 96.4094 88.142 96.4139 88.1364C96.4183 88.1308 96.4204 88.129 96.4186 88.1308C96.4149 88.1343 96.3934 88.1543 96.3421 88.185L98.4001 91.615ZM100.371 88.2C100.371 87.5869 100.212 86.943 100.025 86.361C99.8261 85.746 99.5432 85.0455 99.1918 84.2724L95.5504 85.9276C95.8656 86.6212 96.0827 87.1707 96.2177 87.589C96.3633 88.0404 96.3711 88.2131 96.3711 88.2H100.371ZM99.1845 84.2565L97.1845 79.9565L93.5577 81.6435L95.5577 85.9435L99.1845 84.2565ZM95.3711 78.8C85.7554 78.8 78.1428 78.9668 72.5508 79.3036L72.7914 83.2964C78.2661 82.9666 85.7868 82.8 95.3711 82.8V78.8ZM70.8292 80.5207L69.7292 83.1207L73.413 84.6793L74.513 82.0793L70.8292 80.5207ZM69.737 83.1025C69.0437 84.697 68.5711 86.208 68.5711 87.5H72.5711C72.5711 87.0586 72.7651 86.1697 73.4052 84.6975L69.737 83.1025ZM68.5711 87.5C68.5711 88.9948 69.1552 90.332 70.3656 91.2766C71.4753 92.1428 72.9341 92.54 74.4769 92.6905L74.8653 88.7095C73.6748 88.5933 73.0835 88.3239 72.8266 88.1234C72.6703 88.0013 72.5711 87.8718 72.5711 87.5H68.5711ZM72.7737 91.3325C73.0837 92.2623 73.2711 93.5318 73.2711 95.2H77.2711C77.2711 93.2682 77.0585 91.5377 76.5685 90.0675L72.7737 91.3325ZM75.3762 93.2028C72.8023 93.0673 70 93 66.9711 93V97C69.9422 97 72.6733 97.066 75.166 97.1972L75.3762 93.2028ZM66.9711 93C64.338 93 61.9289 93.0675 59.7463 93.2039L59.9959 97.1961C62.0799 97.0659 64.4042 97 66.9711 97V93ZM61.8711 95.2C61.8711 93.7676 62.05 92.4541 62.3941 91.2494L58.548 90.1506C58.0922 91.7459 57.8711 93.4324 57.8711 95.2H61.8711ZM60.8289 92.6677C62.6479 92.337 64.2309 91.5534 65.3896 90.2016L62.3526 87.5984C61.9113 88.1132 61.2276 88.5297 60.1133 88.7323L60.8289 92.6677ZM65.4328 90.1494C66.407 88.9317 67.5625 86.7521 68.8918 83.8276L65.2504 82.1724C63.913 85.1146 62.9352 86.8683 62.3094 87.6506L65.4328 90.1494ZM68.894 83.8229L86.094 45.7229L82.4482 44.0771L65.2482 82.1771L68.894 83.8229ZM84.6831 46.8571C85.8038 46.6212 86.9984 46.5 88.2711 46.5V42.5C86.7438 42.5 85.2717 42.6455 83.8591 42.9429L84.6831 46.8571ZM86.4692 45.3679L104.869 83.5679L108.473 81.8321L90.073 43.6321L86.4692 45.3679ZM104.867 83.5629C106.336 86.635 107.681 88.9545 108.912 90.2679L111.83 87.5321C111.061 86.7121 109.939 84.8984 108.475 81.8371L104.867 83.5629ZM108.957 90.3142C110.306 91.6638 111.922 92.505 113.772 92.6901L114.17 88.7099C113.354 88.6283 112.569 88.2695 111.785 87.4858L108.957 90.3142ZM95.1768 75.8401L89.1768 63.2401L85.5654 64.9599L91.5654 77.5599L95.1768 75.8401ZM89.1667 63.2191C87.4476 59.7148 86.2971 57.0159 85.6745 55.086L81.8677 56.314C82.5785 58.5174 83.8279 61.4185 85.5755 64.9808L89.1667 63.2191ZM81.8662 55.0904C81.3624 56.6648 80.7305 58.2461 79.968 59.8345L83.5741 61.5655C84.4117 59.8206 85.1131 58.0685 85.6759 56.3096L81.8662 55.0904ZM79.953 59.8667C79.2145 61.4779 78.7637 62.4427 78.5822 62.8056L82.1599 64.5944C82.3785 64.1573 82.861 63.1221 83.5892 61.5333L79.953 59.8667ZM78.5394 62.8969L72.8394 75.8969L76.5028 77.5031L82.2028 64.5031L78.5394 62.8969ZM74.6711 78.7H93.3711V74.7H74.6711V78.7ZM126.545 95.2H124.545V97.2656L126.61 97.199L126.545 95.2ZM127.045 90.7L126.886 88.7064L125.597 88.8095L125.162 90.0273L127.045 90.7ZM130.745 89.9L129.907 88.0841L129.879 88.0972L129.851 88.1111L130.745 89.9ZM132.545 52.2L134.443 51.5675L134.443 51.5675L132.545 52.2ZM130.745 50.1L129.851 51.8889L129.879 51.9028L129.907 51.9159L130.745 50.1ZM127.045 49.3L125.148 49.9325L125.566 51.1881L126.886 51.2936L127.045 49.3ZM126.545 44.8L126.608 42.801L124.545 42.7365V44.8H126.545ZM148.745 44.8H150.745V42.742L148.688 42.8008L148.745 44.8ZM148.345 49.3L148.456 51.2969L149.877 51.218L150.268 49.8494L148.345 49.3ZM143.445 50.9L141.98 49.5391L141.953 49.5682L141.927 49.5984L143.445 50.9ZM143.445 89.1L141.884 90.3494L141.93 90.4069L141.98 90.4609L143.445 89.1ZM148.345 90.7L150.278 90.1847L149.904 88.7835L148.456 88.7031L148.345 90.7ZM148.745 95.2L148.687 97.1991L150.745 97.2597V95.2H148.745ZM128.545 95.2C128.545 93.1691 128.718 91.9623 128.929 91.3727L125.162 90.0273C124.706 91.3043 124.545 93.0976 124.545 95.2H128.545ZM127.205 92.6936C128.944 92.5545 130.489 92.2642 131.64 91.6889L129.851 88.1111C129.402 88.3358 128.48 88.5788 126.886 88.7064L127.205 92.6936ZM131.583 91.7159C133.007 91.0591 133.955 89.8957 134.443 88.4325L130.648 87.1675C130.469 87.7043 130.217 87.9409 129.907 88.0841L131.583 91.7159ZM134.443 88.4325C134.88 87.1198 135.045 85.3584 135.045 83.3H131.045C131.045 85.2416 130.877 86.4802 130.648 87.1675L134.443 88.4325ZM135.045 83.3V56.6H131.045V83.3H135.045ZM135.045 56.6C135.045 54.5995 134.879 52.8758 134.443 51.5675L130.648 52.8325C130.879 53.5242 131.045 54.7338 131.045 56.6H135.045ZM134.443 51.5675C133.955 50.1043 133.007 48.9409 131.583 48.2841L129.907 51.9159C130.217 52.0591 130.469 52.2957 130.648 52.8325L134.443 51.5675ZM131.64 48.3111C130.489 47.7358 128.944 47.4455 127.205 47.3064L126.886 51.2936C128.48 51.4212 129.402 51.6642 129.851 51.8889L131.64 48.3111ZM128.943 48.6675C128.714 47.9802 128.545 46.7416 128.545 44.8H124.545C124.545 46.8584 124.71 48.6198 125.148 49.9325L128.943 48.6675ZM126.483 46.799C130.764 46.9328 134.519 47 137.745 47V43C134.572 43 130.86 42.9339 126.608 42.801L126.483 46.799ZM137.745 47C140.44 47 144.129 46.9327 148.802 46.7992L148.688 42.8008C144.029 42.9339 140.384 43 137.745 43V47ZM146.745 44.8C146.745 46.8412 146.607 48.103 146.422 48.7506L150.268 49.8494C150.617 48.6303 150.745 46.8921 150.745 44.8H146.745ZM148.234 47.3031C145.725 47.4425 143.403 48.0069 141.98 49.5391L144.911 52.2609C145.221 51.9265 146.166 51.4242 148.456 51.2969L148.234 47.3031ZM141.927 49.5984C141.217 50.4266 140.821 51.5063 140.588 52.613C140.35 53.746 140.245 55.0871 140.245 56.6H144.245C144.245 55.2463 144.341 54.204 144.502 53.437C144.669 52.6437 144.874 52.3067 144.964 52.2016L141.927 49.5984ZM140.245 56.6V83.3H144.245V56.6H140.245ZM140.245 83.3C140.245 84.8142 140.35 86.1603 140.587 87.3052C140.819 88.429 141.209 89.5055 141.884 90.3494L145.007 87.8506C144.882 87.6944 144.671 87.3044 144.504 86.4948C144.341 85.7064 144.245 84.6524 144.245 83.3H140.245ZM141.98 90.4609C143.403 91.9931 145.725 92.5575 148.234 92.6969L148.456 88.7031C146.166 88.5758 145.221 88.0735 144.911 87.7391L141.98 90.4609ZM146.413 91.2153C146.61 91.9562 146.745 93.2442 146.745 95.2H150.745C150.745 93.1558 150.614 91.4438 150.278 90.1847L146.413 91.2153ZM148.804 93.2009C144.262 93.0673 140.573 93 137.745 93V97C140.518 97 144.162 97.0661 148.687 97.1991L148.804 93.2009ZM137.745 93C134.386 93 130.631 93.0672 126.481 93.201L126.61 97.199C130.727 97.0662 134.438 97 137.745 97V93ZM220.848 44.8H222.848V42.7111L220.761 42.8019L220.848 44.8ZM220.448 49.3L220.637 51.291L222.022 51.1591L222.38 49.8153L220.448 49.3ZM215.648 53.5L213.697 53.0568L213.69 53.0911L213.683 53.1258L215.648 53.5ZM215.248 95.1L216.086 96.9159L217.248 96.3797V95.1H215.248ZM211.148 95.7L209.664 97.0414L210.26 97.7H211.148V95.7ZM175.248 56L176.731 54.6586L173.248 50.8064V56H175.248ZM175.748 86.5L173.797 86.9432L173.807 86.985L173.818 87.0262L175.748 86.5ZM177.648 89.6L178.786 87.9556L178.786 87.9556L177.648 89.6ZM181.448 90.7L183.357 90.1035L182.954 88.8141L181.607 88.7064L181.448 90.7ZM181.948 95.2L181.874 97.1986L183.948 97.2754V95.2H181.948ZM163.948 95.2H161.948V97.293L164.038 97.1979L163.948 95.2ZM164.448 90.7L164.288 88.7064L162.942 88.8141L162.539 90.1035L164.448 90.7ZM168.148 89.6L167.009 87.9556L166.978 87.9772L166.948 88L168.148 89.6ZM169.948 86.5L168.018 85.9738L168.007 86.015L167.997 86.0568L169.948 86.5ZM170.548 50.8H172.548V49.9716L171.962 49.3858L170.548 50.8ZM170.448 50.7L169.033 52.1142L169.033 52.1142L170.448 50.7ZM168.648 49.8L168.121 51.7295L168.205 51.7523L168.29 51.7677L168.648 49.8ZM164.448 49.3L162.521 49.8353L162.901 51.2044L164.319 51.2958L164.448 49.3ZM163.948 44.8L164.059 42.8031L161.948 42.6858V44.8H163.948ZM177.248 44.8L178.74 43.468L178.093 42.7433L177.123 42.8039L177.248 44.8ZM210.548 82.1L209.056 83.432L212.548 87.3434V82.1H210.548ZM209.948 53.5L207.997 53.9432L208.01 53.9967L208.025 54.0494L209.948 53.5ZM204.248 49.3L202.277 49.6427L202.544 51.1748L204.094 51.2941L204.248 49.3ZM203.848 44.8L203.928 42.8016L201.848 42.7184V44.8H203.848ZM212.448 47C215.015 47 217.845 46.9325 220.935 46.7981L220.761 42.8019C217.717 42.9342 214.947 43 212.448 43V47ZM218.848 44.8C218.848 46.7558 218.713 48.0438 218.515 48.7847L222.38 49.8153C222.716 48.5562 222.848 46.8442 222.848 44.8H218.848ZM220.258 47.309C218.643 47.4628 217.137 47.9065 215.981 48.8521L218.514 51.9479C218.825 51.6935 219.452 51.4039 220.637 51.291L220.258 47.309ZM215.981 48.8521C214.753 49.857 214.075 51.394 213.697 53.0568L217.598 53.9432C217.887 52.6727 218.276 52.143 218.514 51.9479L215.981 48.8521ZM213.683 53.1258C213.38 54.7168 213.248 56.97 213.248 59.8H217.248C217.248 57.03 217.382 55.0832 217.612 53.8742L213.683 53.1258ZM213.248 59.8V95.1H217.248V59.8H213.248ZM214.41 93.2841C213.953 93.4948 212.95 93.7 211.148 93.7V97.7C213.079 97.7 214.809 97.5052 216.086 96.9159L214.41 93.2841ZM212.631 94.3586L176.731 54.6586L173.764 57.3414L209.664 97.0414L212.631 94.3586ZM173.248 56V80H177.248V56H173.248ZM173.248 80C173.248 82.9074 173.413 85.2539 173.797 86.9432L177.698 86.0568C177.415 84.8127 177.248 82.826 177.248 80H173.248ZM173.818 87.0262C174.288 88.7505 175.116 90.2796 176.509 91.2444L178.786 87.9556C178.446 87.7204 178.007 87.1828 177.677 85.9738L173.818 87.0262ZM176.509 91.2444C177.788 92.1299 179.457 92.5471 181.288 92.6936L181.607 88.7064C180.105 88.5862 179.24 88.2701 178.786 87.9556L176.509 91.2444ZM179.539 91.2965C179.783 92.0792 179.948 93.3443 179.948 95.2H183.948C183.948 93.189 183.779 91.4542 183.357 90.1035L179.539 91.2965ZM182.022 93.2014C178.409 93.0676 175.415 93 173.048 93V97C175.347 97 178.287 97.0658 181.874 97.1986L182.022 93.2014ZM173.048 93C169.886 93 166.822 93.0673 163.857 93.2021L164.038 97.1979C166.94 97.0661 169.943 97 173.048 97V93ZM165.948 95.2C165.948 93.3443 166.112 92.0792 166.357 91.2965L162.539 90.1035C162.117 91.4542 161.948 93.189 161.948 95.2H165.948ZM164.607 92.6936C166.425 92.5482 168.104 92.1328 169.348 91.2L166.948 88C166.591 88.2672 165.804 88.5851 164.288 88.7064L164.607 92.6936ZM169.286 91.2444C170.71 90.2582 171.501 88.6906 171.898 86.9432L167.997 86.0568C167.728 87.2427 167.318 87.7418 167.009 87.9556L169.286 91.2444ZM171.877 87.0262C172.349 85.2978 172.548 82.917 172.548 80H168.548C168.548 82.8163 168.347 84.7688 168.018 85.9738L171.877 87.0262ZM172.548 80V50.8H168.548V80H172.548ZM171.962 49.3858L171.862 49.2858L169.033 52.1142L169.133 52.2142L171.962 49.3858ZM171.862 49.2858C171.071 48.4951 170.085 48.0286 169.005 47.8323L168.29 51.7677C168.677 51.8381 168.891 51.9716 169.033 52.1142L171.862 49.2858ZM169.174 47.8705C168.218 47.6097 166.623 47.4362 164.576 47.3041L164.319 51.2958C166.405 51.4305 167.611 51.5903 168.121 51.7295L169.174 47.8705ZM166.375 48.7647C166.106 47.7975 165.948 46.492 165.948 44.8H161.948C161.948 46.708 162.123 48.4025 162.521 49.8353L166.375 48.7647ZM163.837 46.7969C166.271 46.9322 168.642 47 170.948 47V43C168.72 43 166.424 42.9345 164.059 42.8031L163.837 46.7969ZM170.948 47C173.057 47 175.199 46.9319 177.372 46.7961L177.123 42.8039C175.03 42.9347 172.971 43 170.948 43V47ZM175.756 46.1319L209.056 83.432L212.04 80.768L178.74 43.468L175.756 46.1319ZM212.548 82.1V59.8H208.548V82.1H212.548ZM212.548 59.8C212.548 56.9519 212.349 54.6256 211.871 52.9506L208.025 54.0494C208.346 55.1744 208.548 57.0481 208.548 59.8H212.548ZM211.898 53.0568C211.501 51.3094 210.71 49.7418 209.286 48.7556L207.009 52.0444C207.318 52.2582 207.728 52.7573 207.997 53.9432L211.898 53.0568ZM209.286 48.7556C207.996 47.8624 206.283 47.4507 204.401 47.3059L204.094 51.2941C205.679 51.416 206.566 51.7376 207.009 52.0444L209.286 48.7556ZM206.218 48.9573C205.97 47.5303 205.848 46.145 205.848 44.8H201.848C201.848 46.3883 201.992 48.003 202.277 49.6427L206.218 48.9573ZM203.768 46.7984C207.118 46.9324 210.013 47 212.448 47V43C210.082 43 207.244 42.9342 203.928 42.8016L203.768 46.7984ZM280.418 44.8L282.415 44.9109L282.537 42.7154L280.34 42.8015L280.418 44.8ZM281.118 57.8L281.906 59.6383L283.299 59.0414L283.101 57.5391L281.118 57.8ZM276.218 58.7L274.22 58.7833L274.3 60.7H276.218V58.7ZM273.618 51.6L272.204 53.0142L272.219 53.0293L272.234 53.044L273.618 51.6ZM261.918 49.3V47.3H259.918V49.3H261.918ZM262.418 88.2L260.521 88.8325L260.547 88.9114L260.58 88.9878L262.418 88.2ZM264.418 90.2L263.63 92.0383L263.653 92.0479L263.675 92.057L264.418 90.2ZM268.918 91L270.764 90.2308L270.287 89.0869L269.051 89.0044L268.918 91ZM269.418 95.2L269.364 97.1993L271.418 97.2548V95.2H269.418ZM244.918 95.2H242.918V97.2615L244.979 97.1991L244.918 95.2ZM245.418 91L245.285 89.0044L244.048 89.0869L243.572 90.2308L245.418 91ZM249.918 90.2L249.216 88.3273L249.195 88.335L249.175 88.343L249.918 90.2ZM252.118 88.1L253.975 88.8428L253.975 88.8428L252.118 88.1ZM252.718 49.3H254.718V47.3H252.718V49.3ZM242.418 50.4L243.278 52.2057L243.295 52.1975L243.312 52.1889L242.418 50.4ZM237.618 58.7V60.7H239.258L239.579 59.0922L237.618 58.7ZM232.918 57.8L230.965 57.3692L230.655 58.7745L231.889 59.515L232.918 57.8ZM234.418 44.8L234.495 42.8015L232.418 42.7216V44.8H234.418ZM278.421 44.6891C278.212 48.4526 278.458 52.9175 279.135 58.0609L283.101 57.5391C282.444 52.5491 282.224 48.3474 282.415 44.9109L278.421 44.6891ZM280.33 55.9617C279.228 56.4338 277.873 56.7 276.218 56.7V60.7C278.296 60.7 280.207 60.3662 281.906 59.6383L280.33 55.9617ZM278.216 58.6167C278.071 55.1298 277.112 52.1787 275.002 50.156L272.234 53.044C273.324 54.088 274.098 55.8702 274.22 58.7833L278.216 58.6167ZM275.032 50.1858C272.964 48.1179 269.903 47.3 266.318 47.3V51.3C269.4 51.3 271.205 52.0154 272.204 53.0142L275.032 50.1858ZM266.318 47.3H261.918V51.3H266.318V47.3ZM259.918 49.3V83.6H263.918V49.3H259.918ZM259.918 83.6C259.918 85.7166 260.082 87.5156 260.521 88.8325L264.315 87.5675C264.088 86.8844 263.918 85.6168 263.918 83.6H259.918ZM260.58 88.9878C261.182 90.3932 262.225 91.436 263.63 92.0383L265.206 88.3617C264.745 88.164 264.454 87.8735 264.256 87.4122L260.58 88.9878ZM263.675 92.057C264.971 92.5754 266.723 92.8581 268.785 92.9956L269.051 89.0044C267.113 88.8752 265.865 88.6246 265.161 88.343L263.675 92.057ZM267.072 91.7692C267.237 92.1667 267.418 93.2074 267.418 95.2H271.418C271.418 93.1926 271.265 91.4333 270.764 90.2308L267.072 91.7692ZM269.472 93.2007C264.53 93.0672 260.476 93 257.318 93V97C260.426 97 264.44 97.0662 269.364 97.1993L269.472 93.2007ZM257.318 93C253.429 93 249.275 93.0671 244.857 93.2009L244.979 97.1991C249.361 97.0663 253.474 97 257.318 97V93ZM246.918 95.2C246.918 93.2074 247.099 92.1667 247.264 91.7692L243.572 90.2308C243.071 91.4333 242.918 93.1926 242.918 95.2H246.918ZM245.551 92.9956C247.613 92.8581 249.365 92.5754 250.661 92.057L249.175 88.343C248.471 88.6246 247.223 88.8752 245.285 89.0044L245.551 92.9956ZM250.62 92.0727C252.179 91.488 253.353 90.3981 253.975 88.8428L250.261 87.3572C250.083 87.8019 249.79 88.112 249.216 88.3273L250.62 92.0727ZM253.975 88.8428C254.519 87.4829 254.718 85.6744 254.718 83.6H250.718C250.718 85.5256 250.517 86.7171 250.261 87.3572L253.975 88.8428ZM254.718 83.6V49.3H250.718V83.6H254.718ZM252.718 47.3H248.618V51.3H252.718V47.3ZM248.618 47.3C245.813 47.3 243.389 47.6783 241.524 48.6111L243.312 52.1889C244.38 51.655 246.089 51.3 248.618 51.3V47.3ZM241.558 48.5943C239.803 49.4301 238.433 50.6875 237.548 52.3685L241.088 54.2315C241.536 53.3792 242.233 52.7032 243.278 52.2057L241.558 48.5943ZM237.548 52.3685C236.753 53.8799 236.14 55.8932 235.657 58.3078L239.579 59.0922C240.03 56.8401 240.55 55.2535 241.088 54.2315L237.548 52.3685ZM237.618 56.7C235.59 56.7 234.472 56.4002 233.947 56.085L231.889 59.515C233.364 60.3998 235.379 60.7 237.618 60.7V56.7ZM234.871 58.2308C235.898 53.573 236.418 49.0947 236.418 44.8H232.418C232.418 48.772 231.937 52.9603 230.965 57.3692L234.871 58.2308ZM234.341 46.7985C237.854 46.9336 245.528 47 257.318 47V43C245.508 43 237.916 42.933 234.495 42.8015L234.341 46.7985ZM257.318 47C269.307 47 277.049 46.9336 280.496 46.7985L280.34 42.8015C276.987 42.933 269.329 43 257.318 43V47ZM293.342 95.2H291.342V97.2656L293.407 97.199L293.342 95.2ZM293.842 90.7L293.683 88.7064L292.394 88.8095L291.959 90.0273L293.842 90.7ZM297.542 89.9L296.704 88.0841L296.676 88.0972L296.648 88.1111L297.542 89.9ZM299.342 52.2L301.24 51.5675L301.24 51.5675L299.342 52.2ZM297.542 50.1L296.648 51.8889L296.676 51.9028L296.704 51.9159L297.542 50.1ZM293.842 49.3L291.945 49.9325L292.363 51.1881L293.683 51.2936L293.842 49.3ZM293.342 44.8L293.405 42.801L291.342 42.7365V44.8H293.342ZM315.542 44.8H317.542V42.742L315.485 42.8008L315.542 44.8ZM315.142 49.3L315.253 51.2969L316.674 51.218L317.065 49.8494L315.142 49.3ZM310.242 50.9L308.777 49.5391L308.75 49.5682L308.724 49.5984L310.242 50.9ZM310.242 89.1L308.68 90.3494L308.726 90.4069L308.777 90.4609L310.242 89.1ZM315.142 90.7L317.075 90.1847L316.701 88.7835L315.253 88.7031L315.142 90.7ZM315.542 95.2L315.483 97.1991L317.542 97.2597V95.2H315.542ZM295.342 95.2C295.342 93.1691 295.515 91.9623 295.726 91.3727L291.959 90.0273C291.503 91.3043 291.342 93.0976 291.342 95.2H295.342ZM294.002 92.6936C295.741 92.5545 297.286 92.2642 298.437 91.6889L296.648 88.1111C296.199 88.3358 295.277 88.5788 293.683 88.7064L294.002 92.6936ZM298.38 91.7159C299.803 91.0591 300.752 89.8957 301.24 88.4325L297.445 87.1675C297.266 87.7043 297.014 87.9409 296.704 88.0841L298.38 91.7159ZM301.24 88.4325C301.677 87.1198 301.842 85.3584 301.842 83.3H297.842C297.842 85.2416 297.674 86.4802 297.445 87.1675L301.24 88.4325ZM301.842 83.3V56.6H297.842V83.3H301.842ZM301.842 56.6C301.842 54.5995 301.676 52.8758 301.24 51.5675L297.445 52.8325C297.675 53.5242 297.842 54.7338 297.842 56.6H301.842ZM301.24 51.5675C300.752 50.1043 299.803 48.9409 298.38 48.2841L296.704 51.9159C297.014 52.0591 297.266 52.2957 297.445 52.8325L301.24 51.5675ZM298.437 48.3111C297.286 47.7358 295.741 47.4455 294.002 47.3064L293.683 51.2936C295.277 51.4212 296.199 51.6642 296.648 51.8889L298.437 48.3111ZM295.74 48.6675C295.51 47.9802 295.342 46.7416 295.342 44.8H291.342C291.342 46.8584 291.507 48.6198 291.945 49.9325L295.74 48.6675ZM293.28 46.799C297.561 46.9328 301.316 47 304.542 47V43C301.369 43 297.657 42.9339 293.405 42.801L293.28 46.799ZM304.542 47C307.237 47 310.925 46.9327 315.599 46.7992L315.485 42.8008C310.826 42.9339 307.181 43 304.542 43V47ZM313.542 44.8C313.542 46.8412 313.404 48.103 313.219 48.7506L317.065 49.8494C317.414 48.6303 317.542 46.8921 317.542 44.8H313.542ZM315.031 47.3031C312.522 47.4425 310.199 48.0069 308.777 49.5391L311.708 52.2609C312.018 51.9265 312.963 51.4242 315.253 51.2969L315.031 47.3031ZM308.724 49.5984C308.014 50.4266 307.618 51.5063 307.385 52.613C307.147 53.746 307.042 55.0871 307.042 56.6H311.042C311.042 55.2463 311.138 54.204 311.299 53.437C311.466 52.6437 311.671 52.3067 311.761 52.2016L308.724 49.5984ZM307.042 56.6V83.3H311.042V56.6H307.042ZM307.042 83.3C307.042 84.8142 307.147 86.1603 307.384 87.3052C307.616 88.429 308.005 89.5055 308.68 90.3494L311.804 87.8506C311.679 87.6944 311.468 87.3044 311.301 86.4948C311.138 85.7064 311.042 84.6524 311.042 83.3H307.042ZM308.777 90.4609C310.199 91.9931 312.522 92.5575 315.031 92.6969L315.253 88.7031C312.963 88.5758 312.018 88.0735 311.708 87.7391L308.777 90.4609ZM313.21 91.2153C313.407 91.9562 313.542 93.2442 313.542 95.2H317.542C317.542 93.1558 317.41 91.4438 317.075 90.1847L313.21 91.2153ZM315.601 93.2009C311.058 93.0673 307.37 93 304.542 93V97C307.314 97 310.959 97.0661 315.483 97.1991L315.601 93.2009ZM304.542 93C301.183 93 297.428 93.0672 293.278 93.201L293.407 97.199C297.523 97.0662 301.235 97 304.542 97V93ZM387.645 44.8H389.645V42.7111L387.558 42.8019L387.645 44.8ZM387.245 49.3L387.434 51.291L388.819 51.1591L389.177 49.8153L387.245 49.3ZM382.445 53.5L380.494 53.0568L380.486 53.0911L380.48 53.1258L382.445 53.5ZM382.045 95.1L382.883 96.9159L384.045 96.3797V95.1H382.045ZM377.945 95.7L376.461 97.0414L377.057 97.7H377.945V95.7ZM342.045 56L343.528 54.6586L340.045 50.8064V56H342.045ZM342.545 86.5L340.594 86.9432L340.604 86.985L340.615 87.0262L342.545 86.5ZM344.445 89.6L345.583 87.9556L345.583 87.9556L344.445 89.6ZM348.245 90.7L350.153 90.1035L349.751 88.8141L348.404 88.7064L348.245 90.7ZM348.745 95.2L348.671 97.1986L350.745 97.2754V95.2H348.745ZM330.745 95.2H328.745V97.293L330.835 97.1979L330.745 95.2ZM331.245 90.7L331.085 88.7064L329.738 88.8141L329.336 90.1035L331.245 90.7ZM334.945 89.6L333.806 87.9556L333.775 87.9772L333.745 88L334.945 89.6ZM336.745 86.5L334.815 85.9738L334.804 86.015L334.794 86.0568L336.745 86.5ZM337.345 50.8H339.345V49.9716L338.759 49.3858L337.345 50.8ZM337.245 50.7L335.83 52.1142L335.83 52.1142L337.245 50.7ZM335.445 49.8L334.918 51.7295L335.002 51.7523L335.087 51.7677L335.445 49.8ZM331.245 49.3L329.317 49.8353L329.698 51.2044L331.116 51.2958L331.245 49.3ZM330.745 44.8L330.855 42.8031L328.745 42.6858V44.8H330.745ZM344.045 44.8L345.536 43.468L344.889 42.7433L343.92 42.8039L344.045 44.8ZM377.345 82.1L375.853 83.432L379.345 87.3434V82.1H377.345ZM376.745 53.5L374.794 53.9432L374.806 53.9967L374.821 54.0494L376.745 53.5ZM371.045 49.3L369.074 49.6427L369.341 51.1748L370.891 51.2941L371.045 49.3ZM370.645 44.8L370.724 42.8016L368.645 42.7184V44.8H370.645ZM379.245 47C381.812 47 384.642 46.9325 387.731 46.7981L387.558 42.8019C384.514 42.9342 381.744 43 379.245 43V47ZM385.645 44.8C385.645 46.7558 385.51 48.0438 385.312 48.7847L389.177 49.8153C389.513 48.5562 389.645 46.8442 389.645 44.8H385.645ZM387.055 47.309C385.44 47.4628 383.934 47.9065 382.778 48.8521L385.311 51.9479C385.622 51.6935 386.249 51.4039 387.434 51.291L387.055 47.309ZM382.778 48.8521C381.55 49.857 380.872 51.394 380.494 53.0568L384.395 53.9432C384.684 52.6727 385.073 52.143 385.311 51.9479L382.778 48.8521ZM380.48 53.1258C380.177 54.7168 380.045 56.97 380.045 59.8H384.045C384.045 57.03 384.179 55.0832 384.409 53.8742L380.48 53.1258ZM380.045 59.8V95.1H384.045V59.8H380.045ZM381.206 93.2841C380.75 93.4948 379.746 93.7 377.945 93.7V97.7C379.876 97.7 381.606 97.5052 382.883 96.9159L381.206 93.2841ZM379.428 94.3586L343.528 54.6586L340.561 57.3414L376.461 97.0414L379.428 94.3586ZM340.045 56V80H344.045V56H340.045ZM340.045 80C340.045 82.9074 340.21 85.2539 340.594 86.9432L344.495 86.0568C344.212 84.8127 344.045 82.826 344.045 80H340.045ZM340.615 87.0262C341.085 88.7505 341.913 90.2796 343.306 91.2444L345.583 87.9556C345.243 87.7204 344.804 87.1828 344.474 85.9738L340.615 87.0262ZM343.306 91.2444C344.585 92.1299 346.254 92.5471 348.085 92.6936L348.404 88.7064C346.902 88.5862 346.037 88.2701 345.583 87.9556L343.306 91.2444ZM346.336 91.2965C346.58 92.0792 346.745 93.3443 346.745 95.2H350.745C350.745 93.189 350.576 91.4542 350.153 90.1035L346.336 91.2965ZM348.819 93.2014C345.206 93.0676 342.212 93 339.845 93V97C342.144 97 345.083 97.0658 348.671 97.1986L348.819 93.2014ZM339.845 93C336.683 93 333.619 93.0673 330.654 93.2021L330.835 97.1979C333.736 97.0661 336.739 97 339.845 97V93ZM332.745 95.2C332.745 93.3443 332.909 92.0792 333.153 91.2965L329.336 90.1035C328.913 91.4542 328.745 93.189 328.745 95.2H332.745ZM331.404 92.6936C333.222 92.5482 334.901 92.1328 336.145 91.2L333.745 88C333.388 88.2672 332.601 88.5851 331.085 88.7064L331.404 92.6936ZM336.083 91.2444C337.507 90.2582 338.298 88.6906 338.695 86.9432L334.794 86.0568C334.525 87.2427 334.115 87.7418 333.806 87.9556L336.083 91.2444ZM338.674 87.0262C339.145 85.2978 339.345 82.917 339.345 80H335.345C335.345 82.8163 335.144 84.7688 334.815 85.9738L338.674 87.0262ZM339.345 80V50.8H335.345V80H339.345ZM338.759 49.3858L338.659 49.2858L335.83 52.1142L335.93 52.2142L338.759 49.3858ZM338.659 49.2858C337.868 48.4951 336.882 48.0286 335.802 47.8323L335.087 51.7677C335.474 51.8381 335.688 51.9716 335.83 52.1142L338.659 49.2858ZM335.971 47.8705C335.014 47.6097 333.42 47.4362 331.373 47.3041L331.116 51.2958C333.202 51.4305 334.408 51.5903 334.918 51.7295L335.971 47.8705ZM333.172 48.7647C332.903 47.7975 332.745 46.492 332.745 44.8H328.745C328.745 46.708 328.919 48.4025 329.317 49.8353L333.172 48.7647ZM330.634 46.7969C333.068 46.9322 335.439 47 337.745 47V43C335.517 43 333.221 42.9345 330.855 42.8031L330.634 46.7969ZM337.745 47C339.854 47 341.996 46.9319 344.169 46.7961L343.92 42.8039C341.827 42.9347 339.768 43 337.745 43V47ZM342.553 46.1319L375.853 83.432L378.836 80.768L345.536 43.468L342.553 46.1319ZM379.345 82.1V59.8H375.345V82.1H379.345ZM379.345 59.8C379.345 56.9519 379.146 54.6256 378.668 52.9506L374.821 54.0494C375.143 55.1744 375.345 57.0481 375.345 59.8H379.345ZM378.695 53.0568C378.298 51.3094 377.507 49.7418 376.083 48.7556L373.806 52.0444C374.115 52.2582 374.525 52.7573 374.794 53.9432L378.695 53.0568ZM376.083 48.7556C374.793 47.8624 373.08 47.4507 371.198 47.3059L370.891 51.2941C372.476 51.416 373.363 51.7376 373.806 52.0444L376.083 48.7556ZM373.015 48.9573C372.767 47.5303 372.645 46.145 372.645 44.8H368.645C368.645 46.3883 368.789 48.003 369.074 49.6427L373.015 48.9573ZM370.565 46.7984C373.915 46.9324 376.81 47 379.245 47V43C376.879 43 374.041 42.9342 370.724 42.8016L370.565 46.7984ZM414.615 92.4L413.72 94.1889L413.72 94.1889L414.615 92.4ZM404.315 83.2L402.6 84.229L402.61 84.2459L402.62 84.2626L404.315 83.2ZM405.015 55.9L406.601 57.118L406.606 57.1113L406.611 57.1045L405.015 55.9ZM442.915 45.4L442.557 47.3677L442.577 47.3714L442.597 47.3747L442.915 45.4ZM452.315 48L454.261 48.4609L454.642 46.8503L453.132 46.1744L452.315 48ZM451.415 59.5L452.227 61.3276L453.415 60.7997V59.5H451.415ZM446.315 60.3L444.317 60.3951L444.408 62.3H446.315V60.3ZM442.215 51.4L443.344 49.7494L443.344 49.7494L442.215 51.4ZM420.215 51.4L419.262 49.6414L419.254 49.6456L419.247 49.6499L420.215 51.4ZM413.215 58.4L414.978 59.3433L414.983 59.3349L414.987 59.3265L413.215 58.4ZM416.215 84.4L414.674 85.6756L414.68 85.6827L414.686 85.6897L416.215 84.4ZM436.315 90.7L436.432 92.6965L436.432 92.6965L436.315 90.7ZM439.815 90.1L439.33 88.1597L439.305 88.166L439.28 88.173L439.815 90.1ZM442.115 88.6L443.802 89.6738L443.823 89.6411L443.842 89.6077L442.115 88.6ZM442.315 77.5L440.448 78.218L440.458 78.2437L440.469 78.2692L442.315 77.5ZM440.315 75.8L439.682 77.6974L439.74 77.7167L439.8 77.7325L440.315 75.8ZM435.415 75.2L433.517 75.8325L433.959 77.1581L435.356 77.1991L435.415 75.2ZM434.815 70.6L434.988 68.6075L432.815 68.4185V70.6H434.815ZM456.215 70.6H458.215V68.39L456.016 68.6099L456.215 70.6ZM455.715 75.2L455.82 77.1972L457.257 77.1216L457.642 75.7353L455.715 75.2ZM453.015 75.8L453.909 77.5889L453.994 77.5464L454.075 77.496L453.015 75.8ZM451.915 77.4L453.844 77.9262L453.85 77.9057L453.855 77.8851L451.915 77.4ZM451.815 87.2L449.835 87.4828L449.847 87.5669L449.866 87.6497L451.815 87.2ZM452.815 90L453.905 91.6769L455.362 90.7295L454.627 89.1542L452.815 90ZM442.815 94.2L443.308 96.1383L443.319 96.1355L443.33 96.1325L442.815 94.2ZM429.815 93.7C424.341 93.7 419.589 92.651 415.509 90.6111L413.72 94.1889C418.441 96.549 423.822 97.7 429.815 97.7V93.7ZM415.509 90.6111C411.417 88.5651 408.269 85.7411 406.009 82.1374L402.62 84.2626C405.294 88.5256 409.013 91.8349 413.72 94.1889L415.509 90.6111ZM406.03 82.171C403.835 78.5125 402.715 74.3084 402.715 69.5H398.715C398.715 74.9583 399.995 79.8875 402.6 84.229L406.03 82.171ZM402.715 69.5C402.715 64.5456 404.038 60.4562 406.601 57.118L403.429 54.6819C400.258 58.8105 398.715 63.7877 398.715 69.5H402.715ZM406.611 57.1045C409.25 53.6067 412.722 50.9532 417.08 49.1477L415.549 45.4523C410.574 47.5134 406.513 50.5933 403.418 54.6955L406.611 57.1045ZM417.08 49.1477C421.491 47.3205 426.229 46.4 431.315 46.4V42.4C425.734 42.4 420.472 43.4129 415.549 45.4523L417.08 49.1477ZM431.315 46.4C435.272 46.4 439.019 46.7244 442.557 47.3677L443.273 43.4323C439.478 42.7423 435.491 42.4 431.315 42.4V46.4ZM442.597 47.3747C446.216 47.9562 449.17 48.784 451.498 49.8256L453.132 46.1744C450.393 44.9493 447.08 44.0438 443.232 43.4253L442.597 47.3747ZM450.369 47.5391C449.713 50.3068 449.415 54.3307 449.415 59.5H453.415C453.415 54.4027 453.717 50.7598 454.261 48.4609L450.369 47.5391ZM450.603 57.6724C449.775 58.0403 448.399 58.3 446.315 58.3V62.3C448.63 62.3 450.655 62.0264 452.227 61.3276L450.603 57.6724ZM448.313 60.2049C448.095 55.6271 446.57 51.9566 443.344 49.7494L441.085 53.0506C442.926 54.3101 444.135 56.5728 444.317 60.3951L448.313 60.2049ZM443.344 49.7494C440.367 47.7124 436.491 46.8 431.915 46.8V50.8C436.005 50.8 438.996 51.6209 441.085 53.0506L443.344 49.7494ZM431.915 46.8C427.068 46.8 422.822 47.7132 419.262 49.6414L421.167 53.1586C424.008 51.6201 427.562 50.8 431.915 50.8V46.8ZM419.247 49.6499C415.8 51.5568 413.172 54.1642 411.442 57.4735L414.987 59.3265C416.324 56.7692 418.363 54.7099 421.183 53.1501L419.247 49.6499ZM411.451 57.4567C409.756 60.627 408.915 64.0865 408.915 67.8H412.915C412.915 64.7135 413.607 61.9063 414.978 59.3433L411.451 57.4567ZM408.915 67.8C408.915 74.9562 410.781 80.9741 414.674 85.6756L417.755 83.1244C414.582 79.2926 412.915 74.2438 412.915 67.8H408.915ZM414.686 85.6897C418.737 90.4903 424.444 92.8 431.515 92.8V88.8C425.385 88.8 420.893 86.843 417.743 83.1103L414.686 85.6897ZM431.515 92.8C433.595 92.8 435.24 92.7667 436.432 92.6965L436.197 88.7035C435.123 88.7667 433.568 88.8 431.515 88.8V92.8ZM436.432 92.6965C437.72 92.6208 439.027 92.3946 440.35 92.027L439.28 88.173C438.203 88.472 437.177 88.6459 436.197 88.7035L436.432 92.6965ZM440.3 92.0403C441.726 91.6837 442.993 90.9455 443.802 89.6738L440.428 87.5262C440.303 87.7212 440.037 87.9829 439.33 88.1597L440.3 92.0403ZM443.842 89.6077C444.588 88.3288 444.815 86.5775 444.815 84.7H440.815C440.815 86.4225 440.575 87.2712 440.387 87.5923L443.842 89.6077ZM444.815 84.7V81.6H440.815V84.7H444.815ZM444.815 81.6C444.815 79.6485 444.66 77.9289 444.161 76.7308L440.469 78.2692C440.636 78.6711 440.815 79.6848 440.815 81.6H444.815ZM444.182 76.782C443.589 75.2424 442.367 74.2774 440.83 73.8675L439.8 77.7325C440.263 77.856 440.374 78.0242 440.448 78.218L444.182 76.782ZM440.947 73.9026C439.65 73.4701 437.764 73.2682 435.474 73.2009L435.356 77.1991C437.599 77.2651 438.98 77.4632 439.682 77.6974L440.947 73.9026ZM437.312 74.5675C437.004 73.6437 436.815 72.344 436.815 70.6H432.815C432.815 72.5893 433.025 74.3563 433.517 75.8325L437.312 74.5675ZM434.642 72.5925C436.28 72.7349 440.01 72.8 445.715 72.8V68.8C439.953 68.8 436.416 68.7317 434.988 68.6075L434.642 72.5925ZM445.715 72.8C451.34 72.8 454.958 72.7357 456.414 72.5901L456.016 68.6099C454.805 68.731 451.423 68.8 445.715 68.8V72.8ZM454.215 70.6C454.215 72.3663 454.055 73.7025 453.788 74.6647L457.642 75.7353C458.041 74.2975 458.215 72.5671 458.215 70.6H454.215ZM455.61 73.2028C454.283 73.2726 452.944 73.4855 451.955 74.104L454.075 77.496C454.072 77.4976 454.102 77.4787 454.181 77.4494C454.259 77.4205 454.371 77.3864 454.524 77.3524C454.834 77.2834 455.259 77.2267 455.82 77.1972L455.61 73.2028ZM452.12 74.0111C450.887 74.6279 450.259 75.7752 449.975 76.9149L453.855 77.8851C453.912 77.6561 453.971 77.5572 453.988 77.5331C453.995 77.5229 453.992 77.5299 453.975 77.5448C453.957 77.5603 453.935 77.5762 453.909 77.5889L452.12 74.0111ZM449.985 76.8738C449.71 77.8841 449.615 79.3151 449.615 81H453.615C453.615 79.3516 453.72 78.3826 453.844 77.9262L449.985 76.8738ZM449.615 81V83.5H453.615V81H449.615ZM449.615 83.5C449.615 85.0773 449.683 86.4163 449.835 87.4828L453.795 86.9172C453.68 86.117 453.615 84.9894 453.615 83.5H449.615ZM449.866 87.6497C450.104 88.6808 450.49 89.7479 451.002 90.8458L454.627 89.1542C454.206 88.2521 453.926 87.4526 453.764 86.7503L449.866 87.6497ZM451.725 88.3231C449.279 89.9128 446.154 91.2398 442.3 92.2675L443.33 96.1325C447.476 95.0269 451.017 93.5539 453.905 91.6769L451.725 88.3231ZM442.322 92.2617C438.574 93.2146 434.409 93.7 429.815 93.7V97.7C434.688 97.7 439.189 97.1854 443.308 96.1383L442.322 92.2617Z" transform="translate(43 95)" fill="#0F0F0F"/>
<path d="M10.2 88.9L8.70032 90.2232L8.70576 90.2294L8.71124 90.2355L10.2 88.9ZM10.3 51.4L8.82209 50.0525L8.81664 50.0585L8.81124 50.0645L10.3 51.4ZM43.4 88.9L41.9123 87.5633L41.9112 87.5645L43.4 88.9ZM37.1 86.1L38.7692 87.2017L38.7742 87.1941L38.7791 87.1865L37.1 86.1ZM38.5 59.9L36.614 60.5656L36.6198 60.582L36.6258 60.5982L38.5 59.9ZM33.4 52L32.106 53.525L32.106 53.525L33.4 52ZM16.7 54.1L15.0411 52.9828L15.0332 52.9946L15.0255 53.0064L16.7 54.1ZM15.3 80.3L13.41 80.9542L13.4177 80.9763L13.4258 80.9982L15.3 80.3ZM20.5 88.3L19.1798 89.8023L19.1928 89.8138L19.206 89.825L20.5 88.3ZM26.8 93.7C20.2744 93.7 15.3177 91.6099 11.6888 87.5645L8.71124 90.2355C13.2156 95.2568 19.3256 97.7 26.8 97.7V93.7ZM11.6997 87.5768C8.11177 83.5105 6.2 77.8012 6.2 70.2H2.2C2.2 78.4655 4.28823 85.2229 8.70032 90.2232L11.6997 87.5768ZM6.2 70.2C6.2 62.535 8.14339 56.7992 11.7888 52.7355L8.81124 50.0645C4.32328 55.0675 2.2 61.865 2.2 70.2H6.2ZM11.7779 52.7475C15.4733 48.6945 20.5018 46.6 27.1 46.6V42.6C19.5649 42.6 13.3934 45.0388 8.82209 50.0525L11.7779 52.7475ZM27.1 46.6C33.636 46.6 38.5541 48.6634 42.1101 52.6342L45.0899 49.9658C40.6459 45.0033 34.564 42.6 27.1 42.6V46.6ZM42.1101 52.6342C45.6875 56.629 47.6 62.2969 47.6 69.9H51.6C51.6 61.6364 49.5125 54.9043 45.0899 49.9658L42.1101 52.6342ZM47.6 69.9C47.6 77.6271 45.6257 83.4307 41.9123 87.5633L44.8877 90.2367C49.441 85.1693 51.6 78.3063 51.6 69.9H47.6ZM41.9112 87.5645C38.2823 91.6099 33.3256 93.7 26.8 93.7V97.7C34.2744 97.7 40.3844 95.2568 44.8888 90.2355L41.9112 87.5645ZM28.1 93.1C32.612 93.1 36.2217 91.0616 38.7692 87.2017L35.4308 84.9983C33.5783 87.8051 31.188 89.1 28.1 89.1V93.1ZM38.7791 87.1865C41.2704 83.3364 42.4 78.134 42.4 71.8H38.4C38.4 77.7327 37.3296 82.0636 35.4209 85.0135L38.7791 87.1865ZM42.4 71.8C42.4 67.0854 41.7419 62.8731 40.3742 59.2018L36.6258 60.5982C37.7914 63.7269 38.4 67.4479 38.4 71.8H42.4ZM40.386 59.2344C39.0973 55.583 37.2235 52.6213 34.694 50.475L32.106 53.525C33.9765 55.1121 35.5027 57.417 36.614 60.5656L40.386 59.2344ZM34.694 50.475C32.1351 48.3038 29.144 47.2 25.8 47.2V51.2C28.1893 51.2 30.2649 51.9628 32.106 53.525L34.694 50.475ZM25.8 47.2C21.2532 47.2 17.6045 49.1766 15.0411 52.9828L18.3589 55.2172C20.1955 52.4901 22.6134 51.2 25.8 51.2V47.2ZM15.0255 53.0064C12.5904 56.735 11.5 61.8824 11.5 68.2H15.5C15.5 62.2509 16.5429 57.9983 18.3745 55.1936L15.0255 53.0064ZM11.5 68.2C11.5 72.9686 12.1214 77.2314 13.41 80.9542L17.19 79.6458C16.0786 76.4352 15.5 72.6314 15.5 68.2H11.5ZM13.4258 80.9982C14.7807 84.635 16.679 87.6047 19.1798 89.8023L21.8202 86.7977C19.921 85.1286 18.3526 82.765 17.1742 79.6018L13.4258 80.9982ZM19.206 89.825C21.7649 91.9962 24.756 93.1 28.1 93.1V89.1C25.7107 89.1 23.6351 88.3372 21.794 86.775L19.206 89.825ZM79.2063 65.3L77.7197 63.9621L74.8322 67.1703L79.1466 67.2991L79.2063 65.3ZM90.5063 69.1L89.2736 70.675L89.2844 70.6834L89.2952 70.6917L90.5063 69.1ZM88.9063 91.2L87.7315 89.5814L88.9063 91.2ZM63.1063 94.7L62.5262 96.614L62.5341 96.6164L62.5419 96.6187L63.1063 94.7ZM58.6063 92.3H56.6063V93.0398L57.0877 93.6016L58.6063 92.3ZM59.9063 88.4L61.0687 86.7725L59.5393 85.6801L58.354 87.1388L59.9063 88.4ZM64.1063 90.1L63.6212 92.0403L63.6291 92.0423L63.637 92.0442L64.1063 90.1ZM81.0063 88L79.9496 86.3019L79.941 86.3072L79.9325 86.3127L81.0063 88ZM82.0063 74.4L83.1046 72.7286L83.1046 72.7286L82.0063 74.4ZM70.6063 72.5L69.0877 73.8016L69.9629 74.8226L71.2387 74.3974L70.6063 72.5ZM69.5063 70.6L67.6089 71.2325L67.632 71.3018L67.6601 71.3692L69.5063 70.6ZM69.0063 68.4L67.5651 67.0132L66.9242 67.6793L67.0162 68.599L69.0063 68.4ZM74.1063 63.1L72.6698 61.7084L72.6651 61.7132L74.1063 63.1ZM82.6063 54L84.1287 55.2969L86.9372 52H82.6063V54ZM68.2063 54.4L68.6253 56.3556L68.691 56.3415L68.7557 56.323L68.2063 54.4ZM65.8063 55.8L64.3264 54.4547L64.2913 54.4932L64.2583 54.5335L65.8063 55.8ZM63.9063 59.4V61.4H65.2603L65.7632 60.1428L63.9063 59.4ZM59.9063 58.2L57.9492 57.788L57.6955 58.9927L58.6569 59.7617L59.9063 58.2ZM60.9063 44.8L60.9687 42.801L58.8519 42.7348L58.9069 44.8519L60.9063 44.8ZM77.1063 45V47H77.1149L77.1236 46.9999L77.1063 45ZM88.6063 44.9L88.6236 46.8999L88.6774 46.8995L88.731 46.8961L88.6063 44.9ZM92.4063 44.8L93.9585 43.5388L93.3582 42.8H92.4063V44.8ZM93.5063 49.3L95.002 50.6277L95.4546 50.1178L95.5015 49.4376L93.5063 49.3ZM85.6063 58.2L87.0914 59.5395L87.0967 59.5336L87.102 59.5277L85.6063 58.2ZM79.1466 67.2991C83.2525 67.4217 86.5909 68.5754 89.2736 70.675L91.7389 67.525C88.2883 64.8246 84.0934 63.445 79.2659 63.3009L79.1466 67.2991ZM89.2952 70.6917C91.8336 72.623 93.1063 75.2177 93.1063 78.7H97.1063C97.1063 74.0489 95.3123 70.2436 91.7173 67.5083L89.2952 70.6917ZM93.1063 78.7C93.1063 83.4262 91.32 86.9769 87.7315 89.5814L90.081 92.8186C94.7592 89.4231 97.1063 84.6405 97.1063 78.7H93.1063ZM87.7315 89.5814C84.0595 92.2465 78.7947 93.7 71.7063 93.7V97.7C79.2845 97.7 85.4863 96.1535 90.081 92.8186L87.7315 89.5814ZM71.7063 93.7C68.3502 93.7 65.6902 93.3753 63.6706 92.7813L62.5419 96.6187C65.0556 97.3581 68.129 97.7 71.7063 97.7V93.7ZM63.6863 92.786C61.5813 92.1481 60.5415 91.4846 60.1248 90.9984L57.0877 93.6016C58.271 94.9821 60.2312 95.9186 62.5262 96.614L63.6863 92.786ZM60.6063 92.3C60.6063 91.1696 60.9152 90.3299 61.4585 89.6612L58.354 87.1388C57.164 88.6034 56.6063 90.3637 56.6063 92.3H60.6063ZM58.7438 90.0275C59.9739 90.9061 61.6534 91.5484 63.6212 92.0403L64.5913 88.1597C62.8257 87.7183 61.7053 87.2272 61.0687 86.7725L58.7438 90.0275ZM63.637 92.0442C65.7659 92.558 68.2314 92.8 71.0063 92.8V88.8C68.4478 88.8 66.3133 88.5753 64.5755 88.1558L63.637 92.0442ZM71.0063 92.8C75.0907 92.8 78.8019 91.7734 82.08 89.6873L79.9325 86.3127C77.3439 87.96 74.3885 88.8 71.0063 88.8V92.8ZM82.0629 89.6981C85.592 87.5022 87.5063 84.3228 87.5063 80.3H83.5063C83.5063 82.8105 82.4205 84.7645 79.9496 86.3019L82.0629 89.6981ZM87.5063 80.3C87.5063 77.1079 85.8938 74.5615 83.1046 72.7286L80.9079 76.0714C82.7854 77.3052 83.5063 78.6921 83.5063 80.3H87.5063ZM83.1046 72.7286C80.3993 70.9508 77.238 70.1 73.7063 70.1V74.1C76.5745 74.1 78.9465 74.7825 80.9079 76.0714L83.1046 72.7286ZM73.7063 70.1C72.3214 70.1 71.0528 70.243 69.9738 70.6026L71.2387 74.3974C71.7597 74.2237 72.5578 74.1 73.7063 74.1V70.1ZM72.1248 71.1984C71.9045 70.9414 71.6354 70.51 71.3524 69.8308L67.6601 71.3692C68.0437 72.29 68.508 73.1253 69.0877 73.8016L72.1248 71.1984ZM71.4036 69.9675C71.1724 69.2738 71.045 68.6881 70.9963 68.201L67.0162 68.599C67.1008 69.4453 67.3068 70.3262 67.6089 71.2325L71.4036 69.9675ZM70.4474 69.7868L75.5474 64.4868L72.6651 61.7132L67.5651 67.0132L70.4474 69.7868ZM75.5427 64.4916C79.6747 60.2264 82.5491 57.1513 84.1287 55.2969L81.0838 52.7031C79.5968 54.4487 76.8045 57.4403 72.6698 61.7084L75.5427 64.4916ZM82.6063 52H72.6063V56H82.6063V52ZM72.6063 52C70.5735 52 68.8726 52.1296 67.6568 52.477L68.7557 56.323C69.4066 56.1371 70.639 56 72.6063 56V52ZM67.7872 52.4444C66.4288 52.7355 65.2627 53.4247 64.3264 54.4547L67.2861 57.1453C67.6831 56.7086 68.117 56.4645 68.6253 56.3556L67.7872 52.4444ZM64.2583 54.5335C63.4606 55.5085 62.7368 56.9386 62.0493 58.6572L65.7632 60.1428C66.4091 58.5281 66.9519 57.5582 67.3542 57.0665L64.2583 54.5335ZM63.9063 57.4C62.5555 57.4 61.7064 57.0788 61.1556 56.6383L58.6569 59.7617C60.1061 60.9212 61.9236 61.4 63.9063 61.4V57.4ZM61.8633 58.612C62.7038 54.6198 63.0417 49.9905 62.9056 44.7481L58.9069 44.8519C59.0374 49.8762 58.7087 54.1802 57.9492 57.788L61.8633 58.612ZM60.8438 46.799C65.1391 46.9333 70.5617 47 77.1063 47V43C70.5841 43 65.2068 42.9334 60.9687 42.801L60.8438 46.799ZM77.1236 46.9999L88.6236 46.8999L88.5889 42.9001L77.0889 43.0001L77.1236 46.9999ZM88.731 46.8961C89.7441 46.8328 90.9671 46.8 92.4063 46.8V42.8C90.9121 42.8 89.6017 42.8339 88.4815 42.9039L88.731 46.8961ZM90.854 46.0612C91.2904 46.5983 91.6238 47.5269 91.511 49.1624L95.5015 49.4376C95.6554 47.2064 95.2554 45.135 93.9585 43.5388L90.854 46.0612ZM92.0105 47.9723L84.1105 56.8723L87.102 59.5277L95.002 50.6277L92.0105 47.9723ZM84.1211 56.8605C81.0545 60.2604 78.9205 62.6278 77.7197 63.9621L80.6928 66.6379C81.892 65.3055 84.0247 62.9396 87.0914 59.5395L84.1211 56.8605ZM106.6 94.2L105.186 95.6142L105.186 95.6142L106.6 94.2ZM106.8 84.8L105.421 83.3517L105.403 83.3685L105.386 83.3858L106.8 84.8ZM116.8 84.8L115.313 86.1379L115.349 86.177L115.386 86.2142L116.8 84.8ZM116.7 94.2L118.038 95.6866L118.038 95.6866L116.7 94.2ZM111.6 94C109.853 94 108.748 93.52 108.014 92.7858L105.186 95.6142C106.852 97.28 109.08 98 111.6 98V94ZM108.014 92.7858C107.229 92.0001 106.8 90.9945 106.8 89.6H102.8C102.8 91.9389 103.571 93.9999 105.186 95.6142L108.014 92.7858ZM106.8 89.6C106.8 88.2698 107.252 87.1768 108.214 86.2142L105.386 83.3858C103.682 85.0899 102.8 87.1969 102.8 89.6H106.8ZM108.179 86.2483C109.168 85.3071 110.422 84.8 112.1 84.8V80.8C109.511 80.8 107.232 81.6262 105.421 83.3517L108.179 86.2483ZM112.1 84.8C113.516 84.8 114.525 85.2615 115.313 86.1379L118.287 83.4621C116.675 81.6718 114.551 80.8 112.1 80.8V84.8ZM115.386 86.2142C116.345 87.1739 116.7 88.0862 116.7 89H120.7C120.7 86.8471 119.788 84.9594 118.214 83.3858L115.386 86.2142ZM116.7 89C116.7 90.8597 116.168 91.988 115.362 92.7134L118.038 95.6866C119.899 94.012 120.7 91.6736 120.7 89H116.7ZM115.362 92.7134C114.452 93.5329 113.253 94 111.6 94V98C114.081 98 116.282 97.2671 118.038 95.6866L115.362 92.7134Z" fill="#0F0F0F"/>
</svg>
