<svg width="766" height="211" viewBox="0 0 766 211" fill="none" xmlns="http://www.w3.org/2000/svg">
<path d="M38.7 70.4L37.4851 68.8113L37.4736 68.8201L37.4623 68.829L38.7 70.4ZM38.5 52.8L37.1064 54.2346L37.1272 54.2547L37.1486 54.2743L38.5 52.8ZM23.3 50L22.8333 48.0552L21.3 48.4232V50H23.3ZM25.1 88.7L23.6858 90.1142L25.1 88.7ZM31.3 90.7L33.1974 90.0675L32.763 88.7644L31.3908 88.7021L31.3 90.7ZM31.8 95.2L31.7286 97.1987L33.8 97.2727V95.2H31.8ZM7.6 95.2H5.6V97.2816L7.67994 97.1984L7.6 95.2ZM8.1 90.7L7.9859 88.7033L6.66239 88.7789L6.21652 90.0273L8.1 90.7ZM12.8 89.1L11.2886 87.7901L11.2815 87.7984L12.8 89.1ZM13.6 52.2L15.4974 51.5675L15.4974 51.5675L13.6 52.2ZM11.8 50.1L10.9056 51.8889L10.9335 51.9028L10.9619 51.9159L11.8 50.1ZM8.1 49.3L6.20263 49.9325L6.62118 51.1881L7.94051 51.2936L8.1 49.3ZM7.6 44.8L7.64254 42.8004L5.6 42.757V44.8H7.6ZM19.9 45V47H19.9167L19.9333 46.9997L19.9 45ZM31.9 44.8V42.8H31.8833L31.8667 42.8003L31.9 44.8ZM47 49.1L48.3345 47.6103L48.3345 47.6103L47 49.1ZM49.5 68.9L51.2338 69.8969L51.2338 69.8969L49.5 68.9ZM42.6 75.3L41.6749 73.5268L41.6668 73.531L41.6588 73.5353L42.6 75.3ZM25.6 77L23.6201 77.2828L23.7976 78.5253L24.9936 78.9059L25.6 77ZM25.7 72.7L26.0922 70.7388L24.361 70.3926L23.8026 72.0675L25.7 72.7ZM30.1 75C33.9628 75 37.3014 74.0481 39.9377 71.971L37.4623 68.829C35.6986 70.2185 33.3039 71 30.1 71V75ZM39.9149 71.9887C42.8548 69.7405 44.1 66.1574 44.1 61.8H40.1C40.1 65.4426 39.0785 67.5928 37.4851 68.8113L39.9149 71.9887ZM44.1 61.8C44.1 57.542 42.7347 53.9687 39.8515 51.3257L37.1486 54.2743C39.0653 56.0313 40.1 58.458 40.1 61.8H44.1ZM39.8936 51.3654C37.0375 48.591 32.8328 47.4 27.7 47.4V51.4C32.3005 51.4 35.2958 52.4757 37.1064 54.2346L39.8936 51.3654ZM27.7 47.4C26.232 47.4 24.603 47.6305 22.8333 48.0552L23.7667 51.9448C25.3304 51.5695 26.6346 51.4 27.7 51.4V47.4ZM21.3 50V82.2H25.3V50H21.3ZM21.3 82.2C21.3 85.4587 21.8982 88.3266 23.6858 90.1142L26.5142 87.2858C25.9018 86.6734 25.3 85.208 25.3 82.2H21.3ZM23.6858 90.1142C25.4195 91.8479 28.1115 92.5571 31.2092 92.6979L31.3908 88.7021C28.6218 88.5762 27.1805 87.9521 26.5142 87.2858L23.6858 90.1142ZM29.4026 91.3325C29.6317 92.0198 29.8 93.2584 29.8 95.2H33.8C33.8 93.1416 33.6349 91.3802 33.1974 90.0675L29.4026 91.3325ZM31.8714 93.2013C28.1127 93.067 24.2221 93 20.2 93V97C24.1779 97 28.0207 97.0663 31.7286 97.1987L31.8714 93.2013ZM20.2 93C15.1188 93 10.8899 93.0668 7.52006 93.2016L7.67994 97.1984C10.9768 97.0665 15.1479 97 20.2 97V93ZM9.6 95.2C9.6 93.1691 9.77289 91.9623 9.98348 91.3727L6.21652 90.0273C5.76045 91.3043 5.6 93.0976 5.6 95.2H9.6ZM8.2141 92.6967C10.6525 92.5574 12.9553 91.992 14.3185 90.4016L11.2815 87.7984C11.0447 88.0747 10.2141 88.5759 7.9859 88.7033L8.2141 92.6967ZM14.3114 90.4099C15.0426 89.5662 15.4707 88.479 15.7266 87.3374C15.9862 86.1791 16.1 84.8213 16.1 83.3H12.1C12.1 84.6454 11.9971 85.6876 11.8234 86.4626C11.646 87.2543 11.4241 87.6338 11.2886 87.7901L14.3114 90.4099ZM16.1 83.3V56.6H12.1V83.3H16.1ZM16.1 56.6C16.1 54.5995 15.9334 52.8758 15.4974 51.5675L11.7026 52.8325C11.9332 53.5242 12.1 54.7338 12.1 56.6H16.1ZM15.4974 51.5675C15.0096 50.1043 14.0612 48.9409 12.6381 48.2841L10.9619 51.9159C11.2721 52.0591 11.5237 52.2957 11.7026 52.8325L15.4974 51.5675ZM12.6944 48.3111C11.5437 47.7358 9.99879 47.4455 8.25949 47.3064L7.94051 51.2936C9.53455 51.4212 10.4563 51.6642 10.9056 51.8889L12.6944 48.3111ZM9.99737 48.6675C9.76826 47.9802 9.6 46.7416 9.6 44.8H5.6C5.6 46.8584 5.76508 48.6198 6.20263 49.9325L9.99737 48.6675ZM7.55746 46.7995C13.8194 46.9328 17.9415 47 19.9 47V43C17.9919 43 13.914 42.9339 7.64254 42.8004L7.55746 46.7995ZM19.9333 46.9997L31.9333 46.7997L31.8667 42.8003L19.8667 43.0003L19.9333 46.9997ZM31.9 46.8C38.5534 46.8 42.9974 48.1995 45.6655 50.5897L48.3345 47.6103C44.6026 44.2671 38.98 42.8 31.9 42.8V46.8ZM45.6655 50.5897C48.4233 53.0602 49.8 56.1763 49.8 60.1H53.8C53.8 55.0904 51.9767 50.8731 48.3345 47.6103L45.6655 50.5897ZM49.8 60.1C49.8 62.9648 49.1179 65.5522 47.7662 67.9031L51.2338 69.8969C52.9487 66.9145 53.8 63.6352 53.8 60.1H49.8ZM47.7662 67.9031C46.4459 70.1992 44.4469 72.0806 41.6749 73.5268L43.5251 77.0732C46.8865 75.3194 49.4874 72.9341 51.2338 69.8969L47.7662 67.9031ZM41.6588 73.5353C39.0131 74.9463 35.7204 75.7 31.7 75.7V79.7C36.2129 79.7 40.1869 78.8537 43.5412 77.0647L41.6588 73.5353ZM31.7 75.7C29.1847 75.7 27.3878 75.4701 26.2064 75.0941L24.9936 78.9059C26.7455 79.4633 29.0153 79.7 31.7 79.7V75.7ZM27.5799 76.7172C27.4493 75.8033 27.4 75.2187 27.4 74.9H23.4C23.4 75.5146 23.484 76.3301 23.6201 77.2828L27.5799 76.7172ZM27.4 74.9C27.4 74.1745 27.4853 73.6686 27.5974 73.3325L23.8026 72.0675C23.5147 72.9314 23.4 73.8922 23.4 74.9H27.4ZM25.3078 74.6612C26.5049 74.9006 28.1297 75 30.1 75V71C28.2036 71 26.8951 70.8994 26.0922 70.7388L25.3078 74.6612ZM116.924 89.4L115.362 90.6494L115.409 90.7069L115.459 90.7609L116.924 89.4ZM121.724 91L123.57 90.2308L123.089 89.0747L121.838 89.0033L121.724 91ZM122.224 95.2L122.165 97.1991L124.224 97.2597V95.2H122.224ZM100.024 95.2H98.0242V97.2656L100.089 97.199L100.024 95.2ZM100.524 91L100.41 89.0033L99.1598 89.0747L98.6781 90.2308L100.524 91ZM105.224 89.4L103.713 88.0901L103.706 88.0984L105.224 89.4ZM106.524 71.4H108.524V69.4H106.524V71.4ZM80.6242 71.9L80.4754 69.9055L78.6242 70.0437V71.9H80.6242ZM81.8242 89.4L80.2625 90.6494L80.3085 90.7069L80.3586 90.7609L81.8242 89.4ZM86.7242 91L88.6358 90.4118L88.2261 89.0804L86.8352 89.0031L86.7242 91ZM87.1242 95.2L87.0654 97.1991L89.1242 97.2597V95.2H87.1242ZM64.9242 95.2H62.9242V97.2656L64.9887 97.199L64.9242 95.2ZM65.4242 91L65.2647 89.0064L64.0477 89.1037L63.5781 90.2308L65.4242 91ZM69.1242 90.2L68.2861 88.3841L68.2577 88.3972L68.2298 88.4111L69.1242 90.2ZM70.9242 88.1L69.0269 87.4675L69.0269 87.4675L70.9242 88.1ZM70.9242 51.9L72.8216 51.2675L72.8216 51.2675L70.9242 51.9ZM69.1242 49.8L68.2298 51.5889L68.2577 51.6028L68.2861 51.6159L69.1242 49.8ZM65.4242 49L63.5407 49.6727L63.9757 50.8905L65.2647 50.9936L65.4242 49ZM64.9242 44.8L64.9867 42.801L62.9242 42.7365V44.8H64.9242ZM87.1242 44.8H89.1242V42.742L87.0671 42.8008L87.1242 44.8ZM86.7242 49L86.8352 50.9969L88.2261 50.9196L88.6358 49.5882L86.7242 49ZM81.8242 50.6L80.3586 49.2391L80.3316 49.2682L80.3057 49.2984L81.8242 50.6ZM80.6242 67H78.6242V69H80.6242V67ZM106.524 67V69H108.524V67H106.524ZM105.924 51.9L104.027 52.5325L104.045 52.5882L104.067 52.6428L105.924 51.9ZM104.124 49.8L103.23 51.5889L103.258 51.6028L103.286 51.6159L104.124 49.8ZM100.424 49L98.4918 49.5153L98.8559 50.8809L100.265 50.9936L100.424 49ZM100.024 44.8L100.087 42.801L98.0242 42.7365V44.8H100.024ZM122.224 44.8H124.224V42.742L122.167 42.8008L122.224 44.8ZM121.724 49L121.835 50.9969L123.22 50.92L123.633 49.5965L121.724 49ZM116.924 50.6L115.406 49.2984L115.406 49.2984L116.924 50.6ZM113.724 83.6C113.724 85.1142 113.829 86.4603 114.066 87.6052C114.298 88.729 114.687 89.8055 115.362 90.6494L118.486 88.1506C118.361 87.9945 118.15 87.6044 117.983 86.7948C117.82 86.0064 117.724 84.9524 117.724 83.6H113.724ZM115.459 90.7609C116.873 92.2843 119.149 92.8561 121.61 92.9967L121.838 89.0033C119.633 88.8773 118.709 88.3823 118.39 88.0391L115.459 90.7609ZM119.878 91.7692C120.044 92.1667 120.224 93.2074 120.224 95.2H124.224C124.224 93.1926 124.071 91.4333 123.57 90.2308L119.878 91.7692ZM122.283 93.2009C117.74 93.0673 114.052 93 111.224 93V97C113.996 97 117.641 97.0661 122.165 97.1991L122.283 93.2009ZM111.224 93C107.865 93 104.11 93.0672 99.9597 93.201L100.089 97.199C104.205 97.0662 107.917 97 111.224 97V93ZM102.024 95.2C102.024 93.2074 102.205 92.1667 102.37 91.7692L98.6781 90.2308C98.177 91.4333 98.0242 93.1926 98.0242 95.2H102.024ZM100.638 92.9967C103.077 92.8574 105.38 92.292 106.743 90.7016L103.706 88.0984C103.469 88.3747 102.638 88.8759 100.41 89.0033L100.638 92.9967ZM106.736 90.7099C107.467 89.8662 107.895 88.779 108.151 87.6374C108.41 86.4791 108.524 85.1213 108.524 83.6H104.524C104.524 84.9454 104.421 85.9876 104.248 86.7626C104.07 87.5543 103.848 87.9338 103.713 88.0901L106.736 90.7099ZM108.524 83.6V71.4H104.524V83.6H108.524ZM106.524 69.4C93.734 69.4 85.0278 69.5658 80.4754 69.9055L80.7731 73.8945C85.154 73.5675 93.7145 73.4 106.524 73.4V69.4ZM78.6242 71.9V83.6H82.6242V71.9H78.6242ZM78.6242 83.6C78.6242 85.1142 78.7288 86.4603 78.9657 87.6052C79.1982 88.729 79.5874 89.8055 80.2625 90.6494L83.386 88.1506C83.261 87.9944 83.0502 87.6044 82.8827 86.7948C82.7196 86.0064 82.6242 84.9524 82.6242 83.6H78.6242ZM80.3586 90.7609C81.7814 92.2931 84.1037 92.8575 86.6133 92.9969L86.8352 89.0031C84.5447 88.8758 83.6004 88.3735 83.2898 88.0391L80.3586 90.7609ZM84.8127 91.5882C84.9854 92.1497 85.1242 93.2933 85.1242 95.2H89.1242C89.1242 93.2401 88.9963 91.5837 88.6358 90.4118L84.8127 91.5882ZM87.183 93.2009C82.6405 93.0673 78.952 93 76.1242 93V97C78.8964 97 82.5413 97.0661 87.0654 97.1991L87.183 93.2009ZM76.1242 93C72.765 93 69.0097 93.0672 64.8597 93.201L64.9887 97.199C69.1054 97.0662 72.8168 97 76.1242 97V93ZM66.9242 95.2C66.9242 93.2074 67.1048 92.1667 67.2704 91.7692L63.5781 90.2308C63.077 91.4333 62.9242 93.1926 62.9242 95.2H66.9242ZM65.5837 92.9936C67.323 92.8545 68.8679 92.5642 70.0186 91.9889L68.2298 88.4111C67.7805 88.6358 66.8588 88.8788 65.2647 89.0064L65.5837 92.9936ZM69.9623 92.0159C71.3855 91.3591 72.3338 90.1957 72.8216 88.7325L69.0269 87.4675C68.8479 88.0043 68.5963 88.2409 68.2861 88.3841L69.9623 92.0159ZM72.8216 88.7325C73.2591 87.4198 73.4242 85.6584 73.4242 83.6H69.4242C69.4242 85.5416 69.256 86.7802 69.0269 87.4675L72.8216 88.7325ZM73.4242 83.6V56.3H69.4242V83.6H73.4242ZM73.4242 56.3C73.4242 54.2995 73.2577 52.5758 72.8216 51.2675L69.0269 52.5325C69.2574 53.2242 69.4242 54.4338 69.4242 56.3H73.4242ZM72.8216 51.2675C72.3338 49.8043 71.3855 48.6409 69.9623 47.9841L68.2861 51.6159C68.5963 51.7591 68.8479 51.9957 69.0269 52.5325L72.8216 51.2675ZM70.0186 48.0111C68.8679 47.4358 67.323 47.1455 65.5837 47.0064L65.2647 50.9936C66.8588 51.1212 67.7805 51.3642 68.2298 51.5889L70.0186 48.0111ZM67.3077 48.3273C67.0923 47.7243 66.9242 46.6028 66.9242 44.8H62.9242C62.9242 46.7305 63.0894 48.4091 63.5407 49.6727L67.3077 48.3273ZM64.8617 46.799C69.1428 46.9328 72.8979 47 76.1242 47V43C72.9506 43 69.2389 42.9339 64.9867 42.801L64.8617 46.799ZM76.1242 47C78.8189 47 82.5074 46.9327 87.1813 46.7992L87.0671 42.8008C82.4077 42.9339 78.7629 43 76.1242 43V47ZM85.1242 44.8C85.1242 46.7067 84.9854 47.8503 84.8127 48.4118L88.6358 49.5882C88.9963 48.4163 89.1242 46.7599 89.1242 44.8H85.1242ZM86.6133 47.0031C84.1037 47.1425 81.7814 47.7069 80.3586 49.2391L83.2898 51.9609C83.6004 51.6265 84.5447 51.1242 86.8352 50.9969L86.6133 47.0031ZM80.3057 49.2984C79.5958 50.1266 79.2001 51.2063 78.9671 52.313C78.7286 53.446 78.6242 54.7871 78.6242 56.3H82.6242C82.6242 54.9463 82.7198 53.904 82.8813 53.137C83.0483 52.3437 83.2526 52.0067 83.3427 51.9016L80.3057 49.2984ZM78.6242 56.3V67H82.6242V56.3H78.6242ZM80.6242 69H106.524V65H80.6242V69ZM108.524 67V56.3H104.524V67H108.524ZM108.524 56.3C108.524 54.2819 108.323 52.5118 107.781 51.1572L104.067 52.6428C104.325 53.2882 104.524 54.4515 104.524 56.3H108.524ZM107.822 51.2675C107.334 49.8043 106.385 48.6409 104.962 47.9841L103.286 51.6159C103.596 51.7591 103.848 51.9957 104.027 52.5325L107.822 51.2675ZM105.019 48.0111C103.868 47.4358 102.323 47.1455 100.584 47.0064L100.265 50.9936C101.859 51.1212 102.781 51.3642 103.23 51.5889L105.019 48.0111ZM102.357 48.4847C102.156 47.7322 102.024 46.5339 102.024 44.8H98.0242C98.0242 46.6661 98.1591 48.2678 98.4918 49.5153L102.357 48.4847ZM99.9617 46.799C104.242 46.9328 107.964 47 111.124 47V43C108.018 43 104.339 42.9339 100.087 42.801L99.9617 46.799ZM111.124 47C113.885 47 117.607 46.9327 122.281 46.7992L122.167 42.8008C117.508 42.9339 113.83 43 111.124 43V47ZM120.224 44.8C120.224 46.4295 120.065 47.6056 119.815 48.4034L123.633 49.5965C124.051 48.2611 124.224 46.6372 124.224 44.8H120.224ZM121.613 47.0031C119.128 47.1411 116.777 47.6987 115.406 49.2984L118.443 51.9016C118.672 51.6346 119.52 51.1255 121.835 50.9969L121.613 47.0031ZM115.406 49.2984C114.696 50.1266 114.3 51.2063 114.067 52.313C113.829 53.446 113.724 54.7871 113.724 56.3H117.724C117.724 54.9463 117.82 53.904 117.981 53.137C118.148 52.3437 118.353 52.0067 118.443 51.9016L115.406 49.2984ZM113.724 56.3V83.6H117.724V56.3H113.724ZM149.185 92.7L148.313 94.4996L148.313 94.4996L149.185 92.7ZM138.885 83.7L137.186 84.7547L137.192 84.7652L137.199 84.7756L138.885 83.7ZM138.885 56.7L137.191 55.6374L137.184 55.6478L137.178 55.6583L138.885 56.7ZM149.185 47.6L150.058 49.3997L150.069 49.3942L149.185 47.6ZM179.785 47.5L178.913 49.2996L178.913 49.2996L179.785 47.5ZM189.985 56.6L188.278 57.6417L188.288 57.6588L188.299 57.6756L189.985 56.6ZM189.985 83.6L188.291 82.5374L188.286 82.5453L189.985 83.6ZM179.685 92.7L180.558 94.4997L180.569 94.4942L179.685 92.7ZM178.585 85.9L177.09 84.5713L177.083 84.5791L177.077 84.587L178.585 85.9ZM180.785 59.9L178.996 60.7944L179 60.8014L179.003 60.8084L180.785 59.9ZM173.485 51.8L172.419 53.4918L172.427 53.497L172.435 53.5021L173.485 51.8ZM150.285 54.4L151.794 55.713L151.8 55.7062L151.806 55.6993L150.285 54.4ZM148.185 80.6L146.396 81.4944L146.4 81.5014L146.403 81.5084L148.185 80.6ZM155.385 88.5L156.425 86.7916L156.425 86.7916L155.385 88.5ZM164.385 93.9C158.902 93.9 154.143 92.8809 150.058 90.9004L148.313 94.4996C153.028 96.7857 158.401 97.9 164.385 97.9V93.9ZM150.058 90.9004C145.968 88.9173 142.826 86.1583 140.571 82.6244L137.199 84.7756C139.878 88.9751 143.603 92.216 148.313 94.4996L150.058 90.9004ZM140.584 82.6453C138.405 79.1345 137.285 75.0096 137.285 70.2H133.285C133.285 75.6571 134.565 80.5322 137.186 84.7547L140.584 82.6453ZM137.285 70.2C137.285 65.4631 138.403 61.3305 140.592 57.7417L137.178 55.6583C134.568 59.9361 133.285 64.8036 133.285 70.2H137.285ZM140.58 57.7626C142.836 54.1644 145.977 51.3784 150.058 49.3996L148.313 45.8004C143.594 48.0883 139.868 51.3689 137.191 55.6374L140.58 57.7626ZM150.069 49.3942C154.219 47.3502 159.041 46.3 164.585 46.3V42.3C158.529 42.3 153.085 43.4498 148.301 45.8058L150.069 49.3942ZM164.585 46.3C170.068 46.3 174.828 47.3191 178.913 49.2996L180.658 45.7004C175.943 43.4143 170.569 42.3 164.585 42.3V46.3ZM178.913 49.2996C182.99 51.2763 186.09 54.0563 188.278 57.6417L191.692 55.5583C189.08 51.2771 185.381 47.9903 180.658 45.7004L178.913 49.2996ZM188.299 57.6756C190.54 61.1878 191.685 65.2731 191.685 70H195.685C195.685 64.5935 194.364 59.7455 191.671 55.5244L188.299 57.6756ZM191.685 70C191.685 74.7985 190.537 78.9556 188.291 82.5374L191.68 84.6626C194.367 80.3777 195.685 75.4682 195.685 70H191.685ZM188.286 82.5453C186.102 86.0644 182.965 88.855 178.801 90.9058L180.569 94.4942C185.338 92.145 189.069 88.8689 191.684 84.6547L188.286 82.5453ZM178.813 90.9004C174.731 92.8795 169.939 93.9 164.385 93.9V97.9C170.432 97.9 175.84 96.7872 180.558 94.4996L178.813 90.9004ZM165.785 93.3C171.679 93.3 176.528 91.3096 180.094 87.213L177.077 84.587C174.375 87.6904 170.691 89.3 165.785 89.3V93.3ZM180.08 87.2287C183.68 83.1789 185.385 77.8648 185.385 71.5H181.385C181.385 77.1352 179.89 81.4211 177.09 84.5713L180.08 87.2287ZM185.385 71.5C185.385 66.894 184.462 62.709 182.567 58.9916L179.003 60.8084C180.575 63.891 181.385 67.4393 181.385 71.5H185.385ZM182.574 59.0056C180.684 55.2246 178.002 52.2371 174.535 50.0979L172.435 53.5021C175.235 55.2296 177.42 57.6421 178.996 60.7944L182.574 59.0056ZM174.552 50.1081C171.144 47.9599 167.303 46.9 163.085 46.9V50.9C166.601 50.9 169.693 51.7734 172.419 53.4918L174.552 50.1081ZM163.085 46.9C157.179 46.9 152.326 48.933 148.765 53.1007L151.806 55.6993C154.511 52.5337 158.192 50.9 163.085 50.9V46.9ZM148.777 53.0869C145.255 57.1334 143.585 62.4057 143.585 68.7H147.585C147.585 63.1276 149.049 58.8666 151.794 55.713L148.777 53.0869ZM143.585 68.7C143.585 73.4297 144.504 77.7105 146.396 81.4944L149.974 79.7056C148.399 76.5561 147.585 72.9036 147.585 68.7H143.585ZM146.403 81.5084C148.294 85.2169 150.942 88.1367 154.345 90.2084L156.425 86.7916C153.695 85.13 151.543 82.7831 149.967 79.6916L146.403 81.5084ZM154.345 90.2084C157.749 92.2805 161.581 93.3 165.785 93.3V89.3C162.256 89.3 159.154 88.4528 156.425 86.7916L154.345 90.2084ZM251.219 44.8L253.216 44.9109L253.338 42.7154L251.14 42.8015L251.219 44.8ZM251.919 57.8L252.707 59.6383L254.099 59.0414L253.902 57.5391L251.919 57.8ZM247.019 58.7L245.02 58.7833L245.1 60.7H247.019V58.7ZM244.419 51.6L243.005 53.0142L243.02 53.0293L243.035 53.044L244.419 51.6ZM232.719 49.3V47.3H230.719V49.3H232.719ZM233.219 88.2L231.321 88.8325L231.348 88.9114L231.38 88.9878L233.219 88.2ZM235.219 90.2L234.431 92.0383L234.453 92.0479L234.476 92.057L235.219 90.2ZM239.719 91L241.565 90.2308L241.088 89.0869L239.852 89.0044L239.719 91ZM240.219 95.2L240.165 97.1993L242.219 97.2548V95.2H240.219ZM215.719 95.2H213.719V97.2615L215.779 97.1991L215.719 95.2ZM216.219 91L216.086 89.0044L214.849 89.0869L214.373 90.2308L216.219 91ZM220.719 90.2L220.017 88.3273L219.996 88.335L219.976 88.343L220.719 90.2ZM222.919 88.1L224.776 88.8428L224.776 88.8428L222.919 88.1ZM223.519 49.3H225.519V47.3H223.519V49.3ZM213.219 50.4L214.079 52.2057L214.096 52.1975L214.113 52.1889L213.219 50.4ZM208.419 58.7V60.7H210.058L210.38 59.0922L208.419 58.7ZM203.719 57.8L201.766 57.3692L201.456 58.7745L202.69 59.515L203.719 57.8ZM205.219 44.8L205.296 42.8015L203.219 42.7216V44.8H205.219ZM249.222 44.6891C249.013 48.4526 249.259 52.9175 249.936 58.0609L253.902 57.5391C253.245 52.5491 253.025 48.3474 253.216 44.9109L249.222 44.6891ZM251.131 55.9617C250.029 56.4338 248.674 56.7 247.019 56.7V60.7C249.097 60.7 251.008 60.3662 252.707 59.6383L251.131 55.9617ZM249.017 58.6167C248.872 55.1298 247.913 52.1787 245.803 50.156L243.035 53.044C244.124 54.088 244.899 55.8702 245.02 58.7833L249.017 58.6167ZM245.833 50.1858C243.765 48.1179 240.704 47.3 237.119 47.3V51.3C240.2 51.3 242.006 52.0154 243.005 53.0142L245.833 50.1858ZM237.119 47.3H232.719V51.3H237.119V47.3ZM230.719 49.3V83.6H234.719V49.3H230.719ZM230.719 83.6C230.719 85.7166 230.882 87.5156 231.321 88.8325L235.116 87.5675C234.888 86.8844 234.719 85.6168 234.719 83.6H230.719ZM231.38 88.9878C231.983 90.3932 233.026 91.436 234.431 92.0383L236.007 88.3617C235.545 88.164 235.255 87.8735 235.057 87.4122L231.38 88.9878ZM234.476 92.057C235.772 92.5754 237.524 92.8581 239.586 92.9956L239.852 89.0044C237.914 88.8752 236.665 88.6246 235.962 88.343L234.476 92.057ZM237.873 91.7692C238.038 92.1667 238.219 93.2074 238.219 95.2H242.219C242.219 93.1926 242.066 91.4333 241.565 90.2308L237.873 91.7692ZM240.273 93.2007C235.33 93.0672 231.277 93 228.119 93V97C231.227 97 235.24 97.0662 240.165 97.1993L240.273 93.2007ZM228.119 93C224.229 93 220.076 93.0671 215.658 93.2009L215.779 97.1991C220.162 97.0663 224.275 97 228.119 97V93ZM217.719 95.2C217.719 93.2074 217.899 92.1667 218.065 91.7692L214.373 90.2308C213.872 91.4333 213.719 93.1926 213.719 95.2H217.719ZM216.352 92.9956C218.414 92.8581 220.165 92.5754 221.462 92.057L219.976 88.343C219.272 88.6246 218.024 88.8752 216.086 89.0044L216.352 92.9956ZM221.421 92.0727C222.98 91.488 224.154 90.3981 224.776 88.8428L221.062 87.3572C220.884 87.8019 220.591 88.112 220.017 88.3273L221.421 92.0727ZM224.776 88.8428C225.32 87.4829 225.519 85.6744 225.519 83.6H221.519C221.519 85.5256 221.318 86.7171 221.062 87.3572L224.776 88.8428ZM225.519 83.6V49.3H221.519V83.6H225.519ZM223.519 47.3H219.419V51.3H223.519V47.3ZM219.419 47.3C216.614 47.3 214.19 47.6783 212.324 48.6111L214.113 52.1889C215.181 51.655 216.89 51.3 219.419 51.3V47.3ZM212.359 48.5943C210.604 49.4301 209.234 50.6875 208.349 52.3685L211.889 54.2315C212.337 53.3792 213.034 52.7032 214.079 52.2057L212.359 48.5943ZM208.349 52.3685C207.553 53.8799 206.941 55.8932 206.458 58.3078L210.38 59.0922C210.83 56.8401 211.351 55.2535 211.889 54.2315L208.349 52.3685ZM208.419 56.7C206.391 56.7 205.273 56.4002 204.748 56.085L202.69 59.515C204.165 60.3998 206.18 60.7 208.419 60.7V56.7ZM205.672 58.2308C206.699 53.573 207.219 49.0947 207.219 44.8H203.219C203.219 48.772 202.738 52.9603 201.766 57.3692L205.672 58.2308ZM205.142 46.7985C208.654 46.9336 216.329 47 228.119 47V43C216.309 43 208.716 42.933 205.296 42.8015L205.142 46.7985ZM228.119 47C240.108 47 247.85 46.9336 251.297 46.7985L251.14 42.8015C247.788 42.933 240.13 43 228.119 43V47ZM275.943 92.7L275.07 94.4996L275.07 94.4996L275.943 92.7ZM265.643 83.7L263.944 84.7547L263.95 84.7652L263.957 84.7756L265.643 83.7ZM265.643 56.7L263.949 55.6374L263.942 55.6478L263.936 55.6583L265.643 56.7ZM275.943 47.6L276.816 49.3997L276.827 49.3942L275.943 47.6ZM306.543 47.5L305.67 49.2996L305.67 49.2996L306.543 47.5ZM316.743 56.6L315.036 57.6417L315.046 57.6588L315.057 57.6756L316.743 56.6ZM316.743 83.6L315.049 82.5374L315.044 82.5453L316.743 83.6ZM306.443 92.7L307.316 94.4997L307.327 94.4942L306.443 92.7ZM305.343 85.9L303.848 84.5713L303.841 84.5791L303.834 84.587L305.343 85.9ZM307.543 59.9L305.754 60.7944L305.758 60.8014L305.761 60.8084L307.543 59.9ZM300.243 51.8L299.176 53.4918L299.185 53.497L299.193 53.5021L300.243 51.8ZM277.043 54.4L278.552 55.713L278.558 55.7062L278.563 55.6993L277.043 54.4ZM274.943 80.6L273.154 81.4944L273.158 81.5014L273.161 81.5084L274.943 80.6ZM282.143 88.5L283.183 86.7916L283.183 86.7916L282.143 88.5ZM291.143 93.9C285.66 93.9 280.9 92.8809 276.816 90.9004L275.07 94.4996C279.785 96.7857 285.159 97.9 291.143 97.9V93.9ZM276.816 90.9004C272.726 88.9173 269.583 86.1583 267.329 82.6244L263.957 84.7756C266.636 88.9751 270.36 92.216 275.07 94.4996L276.816 90.9004ZM267.342 82.6453C265.163 79.1345 264.043 75.0096 264.043 70.2H260.043C260.043 75.6571 261.323 80.5322 263.944 84.7547L267.342 82.6453ZM264.043 70.2C264.043 65.4631 265.16 61.3305 267.35 57.7417L263.936 55.6583C261.325 59.9361 260.043 64.8036 260.043 70.2H264.043ZM267.337 57.7626C269.594 54.1644 272.734 51.3784 276.816 49.3996L275.07 45.8004C270.352 48.0883 266.625 51.3689 263.949 55.6374L267.337 57.7626ZM276.827 49.3942C280.977 47.3502 285.799 46.3 291.343 46.3V42.3C285.287 42.3 279.843 43.4498 275.059 45.8058L276.827 49.3942ZM291.343 46.3C296.826 46.3 301.585 47.3191 305.67 49.2996L307.416 45.7004C302.7 43.4143 297.327 42.3 291.343 42.3V46.3ZM305.67 49.2996C309.747 51.2763 312.848 54.0563 315.036 57.6417L318.45 55.5583C315.838 51.2771 312.139 47.9903 307.416 45.7004L305.67 49.2996ZM315.057 57.6756C317.297 61.1878 318.443 65.2731 318.443 70H322.443C322.443 64.5935 321.122 59.7455 318.429 55.5244L315.057 57.6756ZM318.443 70C318.443 74.7985 317.295 78.9556 315.049 82.5374L318.437 84.6626C321.124 80.3777 322.443 75.4682 322.443 70H318.443ZM315.044 82.5453C312.859 86.0644 309.723 88.855 305.559 90.9058L307.327 94.4942C312.096 92.145 315.827 88.8689 318.442 84.6547L315.044 82.5453ZM305.57 90.9004C301.488 92.8795 296.696 93.9 291.143 93.9V97.9C297.189 97.9 302.597 96.7872 307.316 94.4996L305.57 90.9004ZM292.543 93.3C298.437 93.3 303.286 91.3096 306.852 87.213L303.834 84.587C301.133 87.6904 297.449 89.3 292.543 89.3V93.3ZM306.838 87.2287C310.438 83.1789 312.143 77.8648 312.143 71.5H308.143C308.143 77.1352 306.648 81.4211 303.848 84.5713L306.838 87.2287ZM312.143 71.5C312.143 66.894 311.22 62.709 309.325 58.9916L305.761 60.8084C307.333 63.891 308.143 67.4393 308.143 71.5H312.143ZM309.332 59.0056C307.441 55.2246 304.76 52.2371 301.293 50.0979L299.193 53.5021C301.993 55.2296 304.178 57.6421 305.754 60.7944L309.332 59.0056ZM301.31 50.1081C297.902 47.9599 294.061 46.9 289.843 46.9V50.9C293.358 50.9 296.451 51.7734 299.176 53.4918L301.31 50.1081ZM289.843 46.9C283.937 46.9 279.084 48.933 275.523 53.1007L278.563 55.6993C281.269 52.5337 284.949 50.9 289.843 50.9V46.9ZM275.534 53.0869C272.012 57.1334 270.343 62.4057 270.343 68.7H274.343C274.343 63.1276 275.807 58.8666 278.552 55.713L275.534 53.0869ZM270.343 68.7C270.343 73.4297 271.262 77.7105 273.154 81.4944L276.732 79.7056C275.157 76.5561 274.343 72.9036 274.343 68.7H270.343ZM273.161 81.5084C275.052 85.2169 277.7 88.1367 281.103 90.2084L283.183 86.7916C280.453 85.13 278.301 82.7831 276.725 79.6916L273.161 81.5084ZM281.103 90.2084C284.507 92.2805 288.339 93.3 292.543 93.3V89.3C289.014 89.3 285.912 88.4528 283.183 86.7916L281.103 90.2084ZM345.377 92.4L344.482 94.1889L344.482 94.1889L345.377 92.4ZM335.077 83.2L333.362 84.229L333.372 84.2459L333.382 84.2626L335.077 83.2ZM335.777 55.9L337.363 57.118L337.368 57.1113L337.373 57.1045L335.777 55.9ZM373.677 45.4L373.319 47.3677L373.339 47.3714L373.359 47.3747L373.677 45.4ZM383.077 48L385.023 48.4609L385.404 46.8503L383.893 46.1744L383.077 48ZM382.177 59.5L382.989 61.3276L384.177 60.7997V59.5H382.177ZM377.077 60.3L375.079 60.3951L375.17 62.3H377.077V60.3ZM372.977 51.4L374.106 49.7494L374.106 49.7494L372.977 51.4ZM350.977 51.4L350.024 49.6414L350.016 49.6456L350.008 49.6499L350.977 51.4ZM343.977 58.4L345.74 59.3433L345.745 59.3349L345.749 59.3265L343.977 58.4ZM346.977 84.4L345.436 85.6756L345.442 85.6827L345.448 85.6897L346.977 84.4ZM367.077 90.7L367.194 92.6965L367.194 92.6965L367.077 90.7ZM370.577 90.1L370.091 88.1597L370.066 88.166L370.041 88.173L370.577 90.1ZM372.877 88.6L374.564 89.6738L374.585 89.6411L374.604 89.6077L372.877 88.6ZM373.077 77.5L371.21 78.218L371.22 78.2437L371.23 78.2692L373.077 77.5ZM371.077 75.8L370.444 77.6974L370.502 77.7167L370.561 77.7325L371.077 75.8ZM366.177 75.2L364.279 75.8325L364.721 77.1581L366.118 77.1991L366.177 75.2ZM365.577 70.6L365.75 68.6075L363.577 68.4185V70.6H365.577ZM386.977 70.6H388.977V68.39L386.778 68.6099L386.977 70.6ZM386.477 75.2L386.582 77.1972L388.019 77.1216L388.404 75.7353L386.477 75.2ZM383.777 75.8L384.671 77.5889L384.756 77.5464L384.837 77.496L383.777 75.8ZM382.677 77.4L384.606 77.9262L384.612 77.9057L384.617 77.8851L382.677 77.4ZM382.577 87.2L380.597 87.4828L380.609 87.5669L380.628 87.6497L382.577 87.2ZM383.577 90L384.667 91.6769L386.124 90.7295L385.389 89.1542L383.577 90ZM373.577 94.2L374.069 96.1383L374.081 96.1355L374.092 96.1325L373.577 94.2ZM360.577 93.7C355.102 93.7 350.351 92.651 346.271 90.6111L344.482 94.1889C349.202 96.549 354.584 97.7 360.577 97.7V93.7ZM346.271 90.6111C342.179 88.5651 339.031 85.7411 336.771 82.1374L333.382 84.2626C336.056 88.5256 339.774 91.8349 344.482 94.1889L346.271 90.6111ZM336.792 82.171C334.596 78.5125 333.477 74.3084 333.477 69.5H329.477C329.477 74.9583 330.757 79.8875 333.362 84.229L336.792 82.171ZM333.477 69.5C333.477 64.5456 334.8 60.4562 337.363 57.118L334.19 54.6819C331.02 58.8105 329.477 63.7877 329.477 69.5H333.477ZM337.373 57.1045C340.012 53.6067 343.484 50.9532 347.842 49.1477L346.311 45.4523C341.336 47.5134 337.275 50.5933 334.18 54.6955L337.373 57.1045ZM347.842 49.1477C352.253 47.3205 356.991 46.4 362.077 46.4V42.4C356.495 42.4 351.234 43.4129 346.311 45.4523L347.842 49.1477ZM362.077 46.4C366.034 46.4 369.78 46.7244 373.319 47.3677L374.034 43.4323C370.239 42.7423 366.252 42.4 362.077 42.4V46.4ZM373.359 47.3747C376.978 47.9562 379.931 48.784 382.26 49.8256L383.893 46.1744C381.155 44.9493 377.842 44.0438 373.994 43.4253L373.359 47.3747ZM381.13 47.5391C380.475 50.3068 380.177 54.3307 380.177 59.5H384.177C384.177 54.4027 384.478 50.7598 385.023 48.4609L381.13 47.5391ZM381.364 57.6724C380.536 58.0403 379.161 58.3 377.077 58.3V62.3C379.392 62.3 381.417 62.0264 382.989 61.3276L381.364 57.6724ZM379.074 60.2049C378.856 55.6271 377.332 51.9566 374.106 49.7494L371.847 53.0506C373.688 54.3101 374.897 56.5728 375.079 60.3951L379.074 60.2049ZM374.106 49.7494C371.129 47.7124 367.253 46.8 362.677 46.8V50.8C366.767 50.8 369.758 51.6209 371.847 53.0506L374.106 49.7494ZM362.677 46.8C357.83 46.8 353.584 47.7132 350.024 49.6414L351.929 53.1586C354.769 51.6201 358.323 50.8 362.677 50.8V46.8ZM350.008 49.6499C346.561 51.5568 343.934 54.1642 342.204 57.4735L345.749 59.3265C347.086 56.7692 349.125 54.7099 351.945 53.1501L350.008 49.6499ZM342.213 57.4567C340.517 60.627 339.677 64.0865 339.677 67.8H343.677C343.677 64.7135 344.369 61.9063 345.74 59.3433L342.213 57.4567ZM339.677 67.8C339.677 74.9562 341.543 80.9741 345.436 85.6756L348.517 83.1244C345.344 79.2926 343.677 74.2438 343.677 67.8H339.677ZM345.448 85.6897C349.498 90.4903 355.206 92.8 362.277 92.8V88.8C356.147 88.8 351.655 86.843 348.505 83.1103L345.448 85.6897ZM362.277 92.8C364.356 92.8 366.002 92.7667 367.194 92.6965L366.959 88.7035C365.884 88.7667 364.33 88.8 362.277 88.8V92.8ZM367.194 92.6965C368.482 92.6208 369.788 92.3946 371.112 92.027L370.041 88.173C368.965 88.472 367.938 88.6459 366.959 88.7035L367.194 92.6965ZM371.062 92.0403C372.488 91.6837 373.755 90.9455 374.564 89.6738L371.189 87.5262C371.065 87.7212 370.799 87.9829 370.091 88.1597L371.062 92.0403ZM374.604 89.6077C375.35 88.3288 375.577 86.5775 375.577 84.7H371.577C371.577 86.4225 371.336 87.2712 371.149 87.5923L374.604 89.6077ZM375.577 84.7V81.6H371.577V84.7H375.577ZM375.577 81.6C375.577 79.6485 375.422 77.9289 374.923 76.7308L371.23 78.2692C371.398 78.6711 371.577 79.6848 371.577 81.6H375.577ZM374.943 76.782C374.351 75.2424 373.129 74.2774 371.592 73.8675L370.561 77.7325C371.024 77.856 371.135 78.0242 371.21 78.218L374.943 76.782ZM371.709 73.9026C370.412 73.4701 368.526 73.2682 366.235 73.2009L366.118 77.1991C368.36 77.2651 369.742 77.4632 370.444 77.6974L371.709 73.9026ZM368.074 74.5675C367.766 73.6437 367.577 72.344 367.577 70.6H363.577C363.577 72.5893 363.787 74.3563 364.279 75.8325L368.074 74.5675ZM365.403 72.5925C367.042 72.7349 370.771 72.8 376.477 72.8V68.8C370.715 68.8 367.178 68.7317 365.75 68.6075L365.403 72.5925ZM376.477 72.8C382.102 72.8 385.72 72.7357 387.176 72.5901L386.778 68.6099C385.567 68.731 382.184 68.8 376.477 68.8V72.8ZM384.977 70.6C384.977 72.3663 384.817 73.7025 384.55 74.6647L388.404 75.7353C388.803 74.2975 388.977 72.5671 388.977 70.6H384.977ZM386.371 73.2028C385.045 73.2726 383.706 73.4855 382.717 74.104L384.837 77.496C384.834 77.4976 384.864 77.4787 384.943 77.4494C385.021 77.4205 385.132 77.3864 385.285 77.3524C385.596 77.2834 386.021 77.2267 386.582 77.1972L386.371 73.2028ZM382.882 74.0111C381.649 74.6279 381.021 75.7752 380.736 76.9149L384.617 77.8851C384.674 77.6561 384.733 77.5572 384.75 77.5331C384.757 77.5229 384.753 77.5299 384.737 77.5448C384.719 77.5603 384.696 77.5762 384.671 77.5889L382.882 74.0111ZM380.747 76.8738C380.471 77.8841 380.377 79.3151 380.377 81H384.377C384.377 79.3516 384.482 78.3826 384.606 77.9262L380.747 76.8738ZM380.377 81V83.5H384.377V81H380.377ZM380.377 83.5C380.377 85.0773 380.444 86.4163 380.597 87.4828L384.556 86.9172C384.442 86.117 384.377 84.9894 384.377 83.5H380.377ZM380.628 87.6497C380.866 88.6808 381.252 89.7479 381.764 90.8458L385.389 89.1542C384.968 88.2521 384.687 87.4526 384.525 86.7503L380.628 87.6497ZM382.487 88.3231C380.041 89.9128 376.915 91.2398 373.061 92.2675L374.092 96.1325C378.238 95.0269 381.779 93.5539 384.667 91.6769L382.487 88.3231ZM373.084 92.2617C369.336 93.2146 365.171 93.7 360.577 93.7V97.7C365.449 97.7 369.951 97.1854 374.069 96.1383L373.084 92.2617ZM444.108 83.3L445.766 82.181L445.758 82.1695L444.108 83.3ZM449.608 89L448.57 90.7096L448.605 90.7311L448.642 90.7512L449.608 89ZM456.708 90.8H458.708V88.893L456.803 88.8023L456.708 90.8ZM456.308 95V97H457.785L458.219 95.5882L456.308 95ZM441.908 95.7L440.18 96.7077L440.841 97.8406L442.143 97.6861L441.908 95.7ZM439.208 91.5L437.505 92.5495L437.524 92.5798L437.544 92.6094L439.208 91.5ZM434.708 84.2L432.99 85.2249L432.998 85.2373L433.005 85.2495L434.708 84.2ZM424.908 74.1L425.985 72.415L425.464 72.0816L424.845 72.101L424.908 74.1ZM421.708 74.2L421.639 76.1988L421.705 76.2011L421.77 76.199L421.708 74.2ZM418.808 74.1L418.877 72.1012L416.808 72.0298V74.1H418.808ZM419.308 88.1L417.399 88.6965L417.399 88.6966L419.308 88.1ZM420.908 90.3L419.95 92.0558L419.981 92.0729L420.013 92.0889L420.908 90.3ZM424.508 91L426.405 90.3675L425.969 89.0591L424.591 89.0017L424.508 91ZM424.908 95.2L424.8 97.1971L426.908 97.311V95.2H424.908ZM403.108 95.2H401.108V97.2727L403.179 97.1987L403.108 95.2ZM403.608 91L403.448 89.0064L402.159 89.1095L401.724 90.3273L403.608 91ZM407.308 90.2L406.47 88.3841L406.441 88.3972L406.413 88.4111L407.308 90.2ZM409.108 88.1L407.21 87.4675L407.21 87.4675L409.108 88.1ZM408.408 50.8L409.926 49.4984L409.926 49.4984L408.408 50.8ZM403.608 49.2L401.71 49.8325L402.14 51.1215L403.497 51.1969L403.608 49.2ZM403.108 44.8L403.213 42.8028L401.108 42.692V44.8H403.108ZM414.108 45V47H414.122L414.136 46.9998L414.108 45ZM421.308 44.9L421.336 46.8998L421.36 46.8995L421.385 46.8985L421.308 44.9ZM443.708 48.4L444.913 46.8039L443.708 48.4ZM444.908 67.5L446.322 68.9142L446.331 68.9048L446.341 68.8952L444.908 67.5ZM434.608 72.5L434.221 70.5377L429.124 71.5418L433.579 74.215L434.608 72.5ZM438.708 76L437.146 77.2494L437.181 77.2925L437.217 77.3336L438.708 76ZM434.408 66.7L435.363 68.4572L435.377 68.4493L435.392 68.4411L434.408 66.7ZM418.808 49.6L418.416 47.6388L416.808 47.9604V49.6H418.808ZM418.808 68.9H416.808V70.6346L418.525 70.8799L418.808 68.9ZM442.45 84.4189C444.342 87.2211 446.368 89.3727 448.57 90.7096L450.646 87.2904C449.114 86.3606 447.474 84.7123 445.766 82.1811L442.45 84.4189ZM448.642 90.7512C450.905 91.9998 453.587 92.6537 456.613 92.7977L456.803 88.8023C454.228 88.6797 452.177 88.1335 450.574 87.2488L448.642 90.7512ZM454.708 90.8C454.708 92.7067 454.569 93.8503 454.396 94.4118L458.219 95.5882C458.58 94.4163 458.708 92.7599 458.708 90.8H454.708ZM456.308 93C450.593 93 445.709 93.235 441.672 93.7139L442.143 97.6861C445.973 97.2317 450.689 97 456.308 97V93ZM443.635 94.6923C443.135 93.8339 442.203 92.3878 440.872 90.3906L437.544 92.6094C438.879 94.6122 439.748 95.9661 440.18 96.7077L443.635 94.6923ZM440.91 90.4505L436.41 83.1505L433.005 85.2495L437.505 92.5495L440.91 90.4505ZM436.425 83.1751C433.799 78.7742 430.313 75.1818 425.985 72.415L423.83 75.785C427.636 78.2182 430.683 81.3591 432.99 85.2249L436.425 83.1751ZM424.845 72.101L421.645 72.201L421.77 76.199L424.97 76.099L424.845 72.101ZM421.777 72.2012L418.877 72.1012L418.739 76.0988L421.639 76.1988L421.777 72.2012ZM416.808 74.1V83.2H420.808V74.1H416.808ZM416.808 83.2C416.808 85.4463 416.972 87.3296 417.399 88.6965L421.217 87.5034C420.977 86.7371 420.808 85.3537 420.808 83.2H416.808ZM417.399 88.6966C417.833 90.0866 418.625 91.3328 419.95 92.0558L421.866 88.5442C421.724 88.4672 421.449 88.2467 421.217 87.5034L417.399 88.6966ZM420.013 92.0889C421.193 92.6785 422.731 92.9277 424.425 92.9983L424.591 89.0017C423.085 88.939 422.223 88.7214 421.802 88.5111L420.013 92.0889ZM422.61 91.6325C422.764 92.094 422.908 93.2008 422.908 95.2H426.908C426.908 93.1992 426.785 91.506 426.405 90.3675L422.61 91.6325ZM425.016 93.2029C422.494 93.0666 418.817 93 414.008 93V97C418.799 97 422.389 97.0667 424.8 97.1971L425.016 93.2029ZM414.008 93C410.449 93 406.792 93.0671 403.036 93.2013L403.179 97.1987C406.89 97.0662 410.5 97 414.008 97V93ZM405.108 95.2C405.108 93.3972 405.276 92.2757 405.491 91.6727L401.724 90.3273C401.273 91.5909 401.108 93.2695 401.108 95.2H405.108ZM403.767 92.9936C405.507 92.8545 407.051 92.5642 408.202 91.9889L406.413 88.4111C405.964 88.6358 405.042 88.8788 403.448 89.0064L403.767 92.9936ZM408.146 92.0159C409.569 91.3591 410.517 90.1957 411.005 88.7325L407.21 87.4675C407.032 88.0043 406.78 88.2409 406.47 88.3841L408.146 92.0159ZM411.005 88.7325C411.443 87.4198 411.608 85.6584 411.608 83.6H407.608C407.608 85.5416 407.44 86.7802 407.21 87.4675L411.005 88.7325ZM411.608 83.6V56.5H407.608V83.6H411.608ZM411.608 56.5C411.608 54.9871 411.503 53.6459 411.265 52.513C411.032 51.4063 410.636 50.3266 409.926 49.4984L406.889 52.1016C406.979 52.2067 407.184 52.5437 407.351 53.337C407.512 54.104 407.608 55.1463 407.608 56.5H411.608ZM409.926 49.4984C408.555 47.8987 406.204 47.3411 403.719 47.2031L403.497 51.1969C405.812 51.3255 406.66 51.8346 406.889 52.1016L409.926 49.4984ZM405.505 48.5675C405.275 47.8758 405.108 46.6662 405.108 44.8H401.108C401.108 46.8005 401.274 48.5242 401.71 49.8325L405.505 48.5675ZM403.003 46.7972C405.589 46.9334 409.298 47 414.108 47V43C409.318 43 405.693 42.9333 403.213 42.8028L403.003 46.7972ZM414.136 46.9998L421.336 46.8998L421.28 42.9002L414.08 43.0002L414.136 46.9998ZM421.385 46.8985C424.845 46.7654 427.447 46.7 429.208 46.7V42.7C427.369 42.7 424.704 42.7679 421.231 42.9015L421.385 46.8985ZM429.208 46.7C435.402 46.7 439.73 47.9024 442.503 49.9961L444.913 46.8039C441.152 43.9643 435.813 42.7 429.208 42.7V46.7ZM442.503 49.9961C445.303 52.1106 446.608 54.7022 446.608 57.9H450.608C450.608 53.3645 448.646 49.6227 444.913 46.8039L442.503 49.9961ZM446.608 57.9C446.608 61.2989 445.542 63.9815 443.475 66.1048L446.341 68.8952C449.207 65.9519 450.608 62.2344 450.608 57.9H446.608ZM443.494 66.0858C441.378 68.2016 438.342 69.726 434.221 70.5377L434.994 74.4623C439.673 73.5407 443.505 71.7317 446.322 68.9142L443.494 66.0858ZM433.579 74.215C435.07 75.1094 436.247 76.1255 437.146 77.2494L440.27 74.7506C439.035 73.2079 437.479 71.8906 435.637 70.785L433.579 74.215ZM437.217 77.3336C438.254 78.4919 439.988 80.8252 442.458 84.4305L445.758 82.1695C443.295 78.5748 441.429 76.0414 440.198 74.6664L437.217 77.3336ZM422.608 71.2C427.622 71.2 431.914 70.3318 435.363 68.4572L433.453 64.9427C430.769 66.4016 427.193 67.2 422.608 67.2V71.2ZM435.392 68.4411C439.026 66.387 441.008 63.2544 441.008 59.2H437.008C437.008 61.679 435.923 63.5463 433.424 64.9589L435.392 68.4411ZM441.008 59.2C441.008 55.2899 439.632 52.0801 436.686 49.9335C433.857 47.8728 429.858 47 425.008 47V51C429.491 51 432.492 51.8272 434.33 53.1665C436.051 54.4199 437.008 56.3101 437.008 59.2H441.008ZM425.008 47C422.749 47 420.551 47.2119 418.416 47.6388L419.2 51.5612C421.065 51.1881 423 51 425.008 51V47ZM416.808 49.6V68.9H420.808V49.6H416.808ZM418.525 70.8799C419.997 71.0902 421.36 71.2 422.608 71.2V67.2C421.589 67.2 420.419 67.1098 419.091 66.9201L418.525 70.8799ZM519.928 90.7L521.825 90.0675L521.416 88.8388L520.127 88.7099L519.928 90.7ZM520.428 95.2L520.328 97.1975L522.428 97.3025V95.2H520.428ZM499.528 95.2H497.528V97.3025L499.628 97.1975L499.528 95.2ZM500.128 90.7L499.869 88.7168L498.739 88.8643L498.29 89.9122L500.128 90.7ZM503.328 89.9L504.299 91.6483L504.329 91.6321L504.357 91.615L503.328 89.9ZM503.328 85.1L505.149 84.2724L505.145 84.2644L505.142 84.2565L503.328 85.1ZM501.328 80.8L503.142 79.9565L502.604 78.8H501.328V80.8ZM478.628 81.3L478.508 79.3036L477.27 79.3782L476.786 80.5207L478.628 81.3ZM477.528 83.9L479.362 84.6975L479.366 84.6884L479.37 84.6793L477.528 83.9ZM480.628 90.7L482.525 90.0675L482.115 88.8355L480.822 88.7095L480.628 90.7ZM481.228 95.2L481.123 97.1972L483.228 97.308V95.2H481.228ZM465.828 95.2H463.828V97.3289L465.953 97.1961L465.828 95.2ZM466.428 90.7L466.07 88.7323L464.847 88.9547L464.505 90.1506L466.428 90.7ZM469.828 88.9L471.347 90.2016L471.369 90.1759L471.39 90.1494L469.828 88.9ZM473.028 83L474.849 83.8276L474.851 83.8229L473.028 83ZM490.228 44.9L489.816 42.9429L488.823 43.152L488.405 44.0771L490.228 44.9ZM494.228 44.5L496.03 43.6321L495.485 42.5H494.228V44.5ZM512.628 82.7L514.432 81.8371L514.43 81.8321L512.628 82.7ZM516.328 88.9L514.869 90.2679L514.891 90.2914L514.914 90.3142L516.328 88.9ZM499.328 76.7V78.7H502.496L501.134 75.8401L499.328 76.7ZM493.328 64.1L495.134 63.2401L495.129 63.2296L495.124 63.2191L493.328 64.1ZM489.728 55.7L491.632 55.086L489.72 49.1617L487.823 55.0904L489.728 55.7ZM487.728 60.7L485.925 59.8345L485.917 59.8505L485.91 59.8667L487.728 60.7ZM486.328 63.7L484.539 62.8056L484.517 62.8507L484.496 62.8969L486.328 63.7ZM480.628 76.7L478.796 75.8969L477.567 78.7H480.628V76.7ZM518.031 91.3325C518.26 92.0198 518.428 93.2584 518.428 95.2H522.428C522.428 93.1416 522.263 91.3802 521.825 90.0675L518.031 91.3325ZM520.528 93.2025C517.815 93.0668 514.345 93 510.128 93V97C514.311 97 517.708 97.0665 520.328 97.1975L520.528 93.2025ZM510.128 93C505.713 93 502.142 93.0668 499.428 93.2025L499.628 97.1975C502.247 97.0665 505.743 97 510.128 97V93ZM501.528 95.2C501.528 93.1817 501.735 92.0272 501.966 91.4878L498.29 89.9122C497.721 91.2394 497.528 93.085 497.528 95.2H501.528ZM500.387 92.6832C501.935 92.4813 503.338 92.1823 504.299 91.6483L502.357 88.1517C502.118 88.2844 501.388 88.5187 499.869 88.7168L500.387 92.6832ZM504.357 91.615C505.582 90.88 506.328 89.6858 506.328 88.2H502.328C502.328 88.2312 502.325 88.2361 502.328 88.222C502.33 88.2153 502.333 88.2058 502.338 88.1945C502.342 88.1831 502.348 88.1717 502.354 88.161C502.361 88.1503 502.366 88.142 502.371 88.1364C502.375 88.1308 502.377 88.129 502.376 88.1308C502.372 88.1343 502.35 88.1543 502.299 88.185L504.357 91.615ZM506.328 88.2C506.328 87.5869 506.169 86.943 505.982 86.361C505.783 85.746 505.5 85.0455 505.149 84.2724L501.507 85.9276C501.823 86.6212 502.04 87.1707 502.175 87.589C502.32 88.0404 502.328 88.2131 502.328 88.2H506.328ZM505.142 84.2565L503.142 79.9565L499.515 81.6435L501.515 85.9435L505.142 84.2565ZM501.328 78.8C491.712 78.8 484.1 78.9668 478.508 79.3036L478.748 83.2964C484.223 82.9666 491.744 82.8 501.328 82.8V78.8ZM476.786 80.5207L475.686 83.1207L479.37 84.6793L480.47 82.0793L476.786 80.5207ZM475.694 83.1025C475.001 84.697 474.528 86.208 474.528 87.5H478.528C478.528 87.0586 478.722 86.1697 479.362 84.6975L475.694 83.1025ZM474.528 87.5C474.528 88.9948 475.112 90.332 476.323 91.2766C477.432 92.1428 478.891 92.54 480.434 92.6905L480.822 88.7095C479.632 88.5933 479.041 88.3239 478.784 88.1234C478.627 88.0013 478.528 87.8718 478.528 87.5H474.528ZM478.731 91.3325C479.041 92.2623 479.228 93.5318 479.228 95.2H483.228C483.228 93.2682 483.016 91.5377 482.525 90.0675L478.731 91.3325ZM481.333 93.2028C478.759 93.0673 475.957 93 472.928 93V97C475.899 97 478.63 97.066 481.123 97.1972L481.333 93.2028ZM472.928 93C470.295 93 467.886 93.0675 465.703 93.2039L465.953 97.1961C468.037 97.0659 470.361 97 472.928 97V93ZM467.828 95.2C467.828 93.7676 468.007 92.4541 468.351 91.2494L464.505 90.1506C464.049 91.7459 463.828 93.4324 463.828 95.2H467.828ZM466.786 92.6677C468.605 92.337 470.188 91.5534 471.347 90.2016L468.31 87.5984C467.868 88.1132 467.185 88.5297 466.07 88.7323L466.786 92.6677ZM471.39 90.1494C472.364 88.9317 473.52 86.7521 474.849 83.8276L471.207 82.1724C469.87 85.1146 468.892 86.8683 468.266 87.6506L471.39 90.1494ZM474.851 83.8229L492.051 45.7229L488.405 44.0771L471.205 82.1771L474.851 83.8229ZM490.64 46.8571C491.761 46.6212 492.955 46.5 494.228 46.5V42.5C492.701 42.5 491.229 42.6455 489.816 42.9429L490.64 46.8571ZM492.426 45.3679L510.826 83.5679L514.43 81.8321L496.03 43.6321L492.426 45.3679ZM510.824 83.5629C512.293 86.635 513.638 88.9545 514.869 90.2679L517.787 87.5321C517.018 86.7121 515.896 84.8984 514.432 81.8371L510.824 83.5629ZM514.914 90.3142C516.264 91.6638 517.879 92.505 519.729 92.6901L520.127 88.7099C519.311 88.6283 518.526 88.2695 517.742 87.4858L514.914 90.3142ZM501.134 75.8401L495.134 63.2401L491.522 64.9599L497.522 77.5599L501.134 75.8401ZM495.124 63.2191C493.405 59.7148 492.254 57.0159 491.632 55.086L487.825 56.314C488.535 58.5174 489.785 61.4185 491.533 64.9808L495.124 63.2191ZM487.823 55.0904C487.319 56.6648 486.688 58.2461 485.925 59.8345L489.531 61.5655C490.369 59.8206 491.07 58.0685 491.633 56.3096L487.823 55.0904ZM485.91 59.8667C485.172 61.4779 484.721 62.4427 484.539 62.8056L488.117 64.5944C488.336 64.1573 488.818 63.1221 489.546 61.5333L485.91 59.8667ZM484.496 62.8969L478.796 75.8969L482.46 77.5031L488.16 64.5031L484.496 62.8969ZM480.628 78.7H499.328V74.7H480.628V78.7ZM563.602 70.4L562.387 68.8113L562.376 68.8201L562.365 68.829L563.602 70.4ZM563.402 52.8L562.009 54.2346L562.03 54.2547L562.051 54.2743L563.402 52.8ZM548.202 50L547.736 48.0552L546.202 48.4232V50H548.202ZM550.002 88.7L548.588 90.1142L550.002 88.7ZM556.202 90.7L558.1 90.0675L557.665 88.7644L556.293 88.7021L556.202 90.7ZM556.702 95.2L556.631 97.1987L558.702 97.2727V95.2H556.702ZM532.502 95.2H530.502V97.2816L532.582 97.1984L532.502 95.2ZM533.002 90.7L532.888 88.7033L531.565 88.7789L531.119 90.0273L533.002 90.7ZM537.702 89.1L536.191 87.7901L536.184 87.7984L537.702 89.1ZM538.502 52.2L540.4 51.5675L540.4 51.5675L538.502 52.2ZM536.702 50.1L535.808 51.8889L535.836 51.9028L535.864 51.9159L536.702 50.1ZM533.002 49.3L531.105 49.9325L531.524 51.1881L532.843 51.2936L533.002 49.3ZM532.502 44.8L532.545 42.8004L530.502 42.757V44.8H532.502ZM544.802 45V47H544.819L544.836 46.9997L544.802 45ZM556.802 44.8V42.8H556.786L556.769 42.8003L556.802 44.8ZM571.902 49.1L573.237 47.6103L573.237 47.6103L571.902 49.1ZM574.402 68.9L576.136 69.8969L576.136 69.8969L574.402 68.9ZM567.502 75.3L566.577 73.5268L566.569 73.531L566.561 73.5353L567.502 75.3ZM550.502 77L548.522 77.2828L548.7 78.5253L549.896 78.9059L550.502 77ZM550.602 72.7L550.995 70.7388L549.263 70.3926L548.705 72.0675L550.602 72.7ZM555.002 75C558.865 75 562.204 74.0481 564.84 71.971L562.365 68.829C560.601 70.2185 558.206 71 555.002 71V75ZM564.817 71.9887C567.757 69.7405 569.002 66.1574 569.002 61.8H565.002C565.002 65.4426 563.981 67.5928 562.387 68.8113L564.817 71.9887ZM569.002 61.8C569.002 57.542 567.637 53.9687 564.754 51.3257L562.051 54.2743C563.968 56.0313 565.002 58.458 565.002 61.8H569.002ZM564.796 51.3654C561.94 48.591 557.735 47.4 552.602 47.4V51.4C557.203 51.4 560.198 52.4757 562.009 54.2346L564.796 51.3654ZM552.602 47.4C551.134 47.4 549.505 47.6305 547.736 48.0552L548.669 51.9448C550.233 51.5695 551.537 51.4 552.602 51.4V47.4ZM546.202 50V82.2H550.202V50H546.202ZM546.202 82.2C546.202 85.4587 546.801 88.3266 548.588 90.1142L551.417 87.2858C550.804 86.6734 550.202 85.208 550.202 82.2H546.202ZM548.588 90.1142C550.322 91.8479 553.014 92.5571 556.112 92.6979L556.293 88.7021C553.524 88.5762 552.083 87.9521 551.417 87.2858L548.588 90.1142ZM554.305 91.3325C554.534 92.0198 554.702 93.2584 554.702 95.2H558.702C558.702 93.1416 558.537 91.3802 558.1 90.0675L554.305 91.3325ZM556.774 93.2013C553.015 93.067 549.124 93 545.102 93V97C549.08 97 552.923 97.0663 556.631 97.1987L556.774 93.2013ZM545.102 93C540.021 93 535.792 93.0668 532.422 93.2016L532.582 97.1984C535.879 97.0665 540.05 97 545.102 97V93ZM534.502 95.2C534.502 93.1691 534.675 91.9623 534.886 91.3727L531.119 90.0273C530.663 91.3043 530.502 93.0976 530.502 95.2H534.502ZM533.116 92.6967C535.555 92.5574 537.858 91.992 539.221 90.4016L536.184 87.7984C535.947 88.0747 535.116 88.5759 532.888 88.7033L533.116 92.6967ZM539.214 90.4099C539.945 89.5662 540.373 88.479 540.629 87.3374C540.889 86.1791 541.002 84.8213 541.002 83.3H537.002C537.002 84.6454 536.899 85.6876 536.726 86.4626C536.548 87.2543 536.326 87.6338 536.191 87.7901L539.214 90.4099ZM541.002 83.3V56.6H537.002V83.3H541.002ZM541.002 56.6C541.002 54.5995 540.836 52.8758 540.4 51.5675L536.605 52.8325C536.836 53.5242 537.002 54.7338 537.002 56.6H541.002ZM540.4 51.5675C539.912 50.1043 538.964 48.9409 537.54 48.2841L535.864 51.9159C536.174 52.0591 536.426 52.2957 536.605 52.8325L540.4 51.5675ZM537.597 48.3111C536.446 47.7358 534.901 47.4455 533.162 47.3064L532.843 51.2936C534.437 51.4212 535.359 51.6642 535.808 51.8889L537.597 48.3111ZM534.9 48.6675C534.671 47.9802 534.502 46.7416 534.502 44.8H530.502C530.502 46.8584 530.667 48.6198 531.105 49.9325L534.9 48.6675ZM532.46 46.7995C538.722 46.9328 542.844 47 544.802 47V43C542.894 43 538.816 42.9339 532.545 42.8004L532.46 46.7995ZM544.836 46.9997L556.836 46.7997L556.769 42.8003L544.769 43.0003L544.836 46.9997ZM556.802 46.8C563.456 46.8 567.9 48.1995 570.568 50.5897L573.237 47.6103C569.505 44.2671 563.882 42.8 556.802 42.8V46.8ZM570.568 50.5897C573.326 53.0602 574.702 56.1763 574.702 60.1H578.702C578.702 55.0904 576.879 50.8731 573.237 47.6103L570.568 50.5897ZM574.702 60.1C574.702 62.9648 574.02 65.5522 572.669 67.9031L576.136 69.8969C577.851 66.9145 578.702 63.6352 578.702 60.1H574.702ZM572.669 67.9031C571.348 70.1992 569.349 72.0806 566.577 73.5268L568.427 77.0732C571.789 75.3194 574.39 72.9341 576.136 69.8969L572.669 67.9031ZM566.561 73.5353C563.915 74.9463 560.623 75.7 556.602 75.7V79.7C561.115 79.7 565.089 78.8537 568.444 77.0647L566.561 73.5353ZM556.602 75.7C554.087 75.7 552.29 75.4701 551.109 75.0941L549.896 78.9059C551.648 79.4633 553.918 79.7 556.602 79.7V75.7ZM552.482 76.7172C552.352 75.8033 552.302 75.2187 552.302 74.9H548.302C548.302 75.5146 548.386 76.3301 548.522 77.2828L552.482 76.7172ZM552.302 74.9C552.302 74.1745 552.388 73.6686 552.5 73.3325L548.705 72.0675C548.417 72.9314 548.302 73.8922 548.302 74.9H552.302ZM550.21 74.6612C551.407 74.9006 553.032 75 555.002 75V71C553.106 71 551.797 70.8994 550.995 70.7388L550.21 74.6612ZM641.827 89.4L640.265 90.6494L640.311 90.7069L640.361 90.7609L641.827 89.4ZM646.627 91L648.473 90.2308L647.991 89.0747L646.741 89.0033L646.627 91ZM647.127 95.2L647.068 97.1991L649.127 97.2597V95.2H647.127ZM624.927 95.2H622.927V97.2656L624.991 97.199L624.927 95.2ZM625.427 91L625.312 89.0033L624.062 89.0747L623.58 90.2308L625.427 91ZM630.127 89.4L628.615 88.0901L628.608 88.0984L630.127 89.4ZM631.427 71.4H633.427V69.4H631.427V71.4ZM605.527 71.9L605.378 69.9055L603.527 70.0437V71.9H605.527ZM606.727 89.4L605.165 90.6494L605.211 90.7069L605.261 90.7609L606.727 89.4ZM611.627 91L613.538 90.4118L613.128 89.0804L611.738 89.0031L611.627 91ZM612.027 95.2L611.968 97.1991L614.027 97.2597V95.2H612.027ZM589.827 95.2H587.827V97.2656L589.891 97.199L589.827 95.2ZM590.327 91L590.167 89.0064L588.95 89.1037L588.48 90.2308L590.327 91ZM594.027 90.2L593.188 88.3841L593.16 88.3972L593.132 88.4111L594.027 90.2ZM595.827 88.1L593.929 87.4675L593.929 87.4675L595.827 88.1ZM595.827 51.9L597.724 51.2675L597.724 51.2675L595.827 51.9ZM594.027 49.8L593.132 51.5889L593.16 51.6028L593.188 51.6159L594.027 49.8ZM590.327 49L588.443 49.6727L588.878 50.8905L590.167 50.9936L590.327 49ZM589.827 44.8L589.889 42.801L587.827 42.7365V44.8H589.827ZM612.027 44.8H614.027V42.742L611.969 42.8008L612.027 44.8ZM611.627 49L611.738 50.9969L613.128 50.9196L613.538 49.5882L611.627 49ZM606.727 50.6L605.261 49.2391L605.234 49.2682L605.208 49.2984L606.727 50.6ZM605.527 67H603.527V69H605.527V67ZM631.427 67V69H633.427V67H631.427ZM630.827 51.9L628.929 52.5325L628.948 52.5882L628.97 52.6428L630.827 51.9ZM629.027 49.8L628.132 51.5889L628.16 51.6028L628.188 51.6159L629.027 49.8ZM625.327 49L623.394 49.5153L623.758 50.8809L625.167 50.9936L625.327 49ZM624.927 44.8L624.989 42.801L622.927 42.7365V44.8H624.927ZM647.127 44.8H649.127V42.742L647.069 42.8008L647.127 44.8ZM646.627 49L646.738 50.9969L648.122 50.92L648.536 49.5965L646.627 49ZM641.827 50.6L640.308 49.2984L640.308 49.2984L641.827 50.6ZM638.627 83.6C638.627 85.1142 638.731 86.4603 638.968 87.6052C639.201 88.729 639.59 89.8055 640.265 90.6494L643.388 88.1506C643.263 87.9945 643.053 87.6044 642.885 86.7948C642.722 86.0064 642.627 84.9524 642.627 83.6H638.627ZM640.361 90.7609C641.776 92.2843 644.051 92.8561 646.512 92.9967L646.741 89.0033C644.536 88.8773 643.611 88.3823 643.292 88.0391L640.361 90.7609ZM644.78 91.7692C644.946 92.1667 645.127 93.2074 645.127 95.2H649.127C649.127 93.1926 648.974 91.4333 648.473 90.2308L644.78 91.7692ZM647.185 93.2009C642.643 93.0673 638.954 93 636.127 93V97C638.899 97 642.544 97.0661 647.068 97.1991L647.185 93.2009ZM636.127 93C632.767 93 629.012 93.0672 624.862 93.201L624.991 97.199C629.108 97.0662 632.819 97 636.127 97V93ZM626.927 95.2C626.927 93.2074 627.107 92.1667 627.273 91.7692L623.58 90.2308C623.079 91.4333 622.927 93.1926 622.927 95.2H626.927ZM625.541 92.9967C627.979 92.8574 630.282 92.292 631.645 90.7016L628.608 88.0984C628.371 88.3747 627.541 88.8759 625.312 89.0033L625.541 92.9967ZM631.638 90.7099C632.369 89.8662 632.797 88.779 633.053 87.6374C633.313 86.4791 633.427 85.1213 633.427 83.6H629.427C629.427 84.9454 629.324 85.9876 629.15 86.7626C628.973 87.5543 628.751 87.9338 628.615 88.0901L631.638 90.7099ZM633.427 83.6V71.4H629.427V83.6H633.427ZM631.427 69.4C618.636 69.4 609.93 69.5658 605.378 69.9055L605.675 73.8945C610.056 73.5675 618.617 73.4 631.427 73.4V69.4ZM603.527 71.9V83.6H607.527V71.9H603.527ZM603.527 83.6C603.527 85.1142 603.631 86.4603 603.868 87.6052C604.101 88.729 604.49 89.8055 605.165 90.6494L608.288 88.1506C608.163 87.9944 607.953 87.6044 607.785 86.7948C607.622 86.0064 607.527 84.9524 607.527 83.6H603.527ZM605.261 90.7609C606.684 92.2931 609.006 92.8575 611.516 92.9969L611.738 89.0031C609.447 88.8758 608.503 88.3735 608.192 88.0391L605.261 90.7609ZM609.715 91.5882C609.888 92.1497 610.027 93.2933 610.027 95.2H614.027C614.027 93.2401 613.899 91.5837 613.538 90.4118L609.715 91.5882ZM612.085 93.2009C607.543 93.0673 603.854 93 601.027 93V97C603.799 97 607.444 97.0661 611.968 97.1991L612.085 93.2009ZM601.027 93C597.667 93 593.912 93.0672 589.762 93.201L589.891 97.199C594.008 97.0662 597.719 97 601.027 97V93ZM591.827 95.2C591.827 93.2074 592.007 92.1667 592.173 91.7692L588.48 90.2308C587.979 91.4333 587.827 93.1926 587.827 95.2H591.827ZM590.486 92.9936C592.225 92.8545 593.77 92.5642 594.921 91.9889L593.132 88.4111C592.683 88.6358 591.761 88.8788 590.167 89.0064L590.486 92.9936ZM594.865 92.0159C596.288 91.3591 597.236 90.1957 597.724 88.7325L593.929 87.4675C593.75 88.0043 593.499 88.2409 593.188 88.3841L594.865 92.0159ZM597.724 88.7325C598.161 87.4198 598.327 85.6584 598.327 83.6H594.327C594.327 85.5416 594.158 86.7802 593.929 87.4675L597.724 88.7325ZM598.327 83.6V56.3H594.327V83.6H598.327ZM598.327 56.3C598.327 54.2995 598.16 52.5758 597.724 51.2675L593.929 52.5325C594.16 53.2242 594.327 54.4338 594.327 56.3H598.327ZM597.724 51.2675C597.236 49.8043 596.288 48.6409 594.865 47.9841L593.188 51.6159C593.499 51.7591 593.75 51.9957 593.929 52.5325L597.724 51.2675ZM594.921 48.0111C593.77 47.4358 592.225 47.1455 590.486 47.0064L590.167 50.9936C591.761 51.1212 592.683 51.3642 593.132 51.5889L594.921 48.0111ZM592.21 48.3273C591.995 47.7243 591.827 46.6028 591.827 44.8H587.827C587.827 46.7305 587.992 48.4091 588.443 49.6727L592.21 48.3273ZM589.764 46.799C594.045 46.9328 597.8 47 601.027 47V43C597.853 43 594.141 42.9339 589.889 42.801L589.764 46.799ZM601.027 47C603.721 47 607.41 46.9327 612.084 46.7992L611.969 42.8008C607.31 42.9339 603.665 43 601.027 43V47ZM610.027 44.8C610.027 46.7067 609.888 47.8503 609.715 48.4118L613.538 49.5882C613.899 48.4163 614.027 46.7599 614.027 44.8H610.027ZM611.516 47.0031C609.006 47.1425 606.684 47.7069 605.261 49.2391L608.192 51.9609C608.503 51.6265 609.447 51.1242 611.738 50.9969L611.516 47.0031ZM605.208 49.2984C604.498 50.1266 604.102 51.2063 603.869 52.313C603.631 53.446 603.527 54.7871 603.527 56.3H607.527C607.527 54.9463 607.622 53.904 607.784 53.137C607.951 52.3437 608.155 52.0067 608.245 51.9016L605.208 49.2984ZM603.527 56.3V67H607.527V56.3H603.527ZM605.527 69H631.427V65H605.527V69ZM633.427 67V56.3H629.427V67H633.427ZM633.427 56.3C633.427 54.2819 633.225 52.5118 632.684 51.1572L628.97 52.6428C629.228 53.2882 629.427 54.4515 629.427 56.3H633.427ZM632.724 51.2675C632.236 49.8043 631.288 48.6409 629.865 47.9841L628.188 51.6159C628.499 51.7591 628.75 51.9957 628.929 52.5325L632.724 51.2675ZM629.921 48.0111C628.77 47.4358 627.225 47.1455 625.486 47.0064L625.167 50.9936C626.761 51.1212 627.683 51.3642 628.132 51.5889L629.921 48.0111ZM627.259 48.4847C627.058 47.7322 626.927 46.5339 626.927 44.8H622.927C622.927 46.6661 623.061 48.2678 623.394 49.5153L627.259 48.4847ZM624.864 46.799C629.145 46.9328 632.867 47 636.027 47V43C632.92 43 629.242 42.9339 624.989 42.801L624.864 46.799ZM636.027 47C638.788 47 642.509 46.9327 647.184 46.7992L647.069 42.8008C642.411 42.9339 638.732 43 636.027 43V47ZM645.127 44.8C645.127 46.4295 644.967 47.6056 644.718 48.4034L648.536 49.5965C648.953 48.2611 649.127 46.6372 649.127 44.8H645.127ZM646.516 47.0031C644.031 47.1411 641.679 47.6987 640.308 49.2984L643.345 51.9016C643.574 51.6346 644.423 51.1255 646.738 50.9969L646.516 47.0031ZM640.308 49.2984C639.598 50.1266 639.202 51.2063 638.969 52.313C638.731 53.446 638.627 54.7871 638.627 56.3H642.627C642.627 54.9463 642.722 53.904 642.884 53.137C643.051 52.3437 643.255 52.0067 643.345 51.9016L640.308 49.2984ZM638.627 56.3V83.6H642.627V56.3H638.627ZM710.488 44.8H712.488V42.7025L710.392 42.8023L710.488 44.8ZM710.088 49.2L710.403 51.1749L711.707 50.9662L712.028 49.6851L710.088 49.2ZM705.488 51.2L706.65 52.8275L706.675 52.8095L706.7 52.7909L705.488 51.2ZM701.588 56.2L699.809 55.2853L699.806 55.2903L701.588 56.2ZM689.688 79.5L687.906 78.5903L687.688 79.0188V79.5H689.688ZM690.088 87.3L688.141 87.7581L688.153 87.8116L688.169 87.8643L690.088 87.3ZM696.588 90.7L698.517 90.1738L698.153 88.838L696.774 88.7087L696.588 90.7ZM697.188 95.2L697.138 97.1994L699.188 97.2506V95.2H697.188ZM672.588 95.2H670.588V97.2727L672.659 97.1987L672.588 95.2ZM673.188 90.7L673.017 88.7073L671.683 88.8216L671.28 90.0977L673.188 90.7ZM678.088 89.8L678.875 91.6383L678.875 91.6383L678.088 89.8ZM679.988 87.6L681.896 88.1966L681.901 88.1805L681.906 88.1643L679.988 87.6ZM680.488 79.6H682.488V79.0863L682.24 78.6362L680.488 79.6ZM666.188 53.6L667.94 52.6362L667.913 52.5873L667.883 52.54L666.188 53.6ZM663.288 50.3L662.149 51.9444L662.177 51.9639L662.206 51.9824L663.288 50.3ZM659.688 49.3L657.76 49.8353L658.149 51.235L659.601 51.2981L659.688 49.3ZM659.188 44.8L659.264 42.8015L657.188 42.7216V44.8H659.188ZM680.988 44.8H682.988V42.652L680.845 42.8051L680.988 44.8ZM680.588 49.2L680.769 51.1918L682.24 51.058L682.545 49.612L680.588 49.2ZM677.388 50L678.416 51.715L678.416 51.715L677.388 50ZM677.788 55.3L679.505 54.2748L679.5 54.2674L679.496 54.2601L677.788 55.3ZM687.988 74.7L686.19 75.5774L688.05 79.387L689.808 75.5291L687.988 74.7ZM697.488 55.6L695.739 54.6287L695.731 54.6428L695.724 54.657L697.488 55.6ZM697.988 50L697.016 51.7483L697.054 51.7694L697.093 51.7889L697.988 50ZM694.888 49.3L692.962 49.8393L693.333 51.167L694.706 51.2918L694.888 49.3ZM694.188 44.8L694.361 42.8075L692.188 42.6185V44.8H694.188ZM702.888 47C705.192 47 707.758 46.9322 710.583 46.7977L710.392 42.8023C707.617 42.9344 705.116 43 702.888 43V47ZM708.488 44.8C708.488 46.5997 708.356 47.8791 708.147 48.7149L712.028 49.6851C712.352 48.3875 712.488 46.7336 712.488 44.8H708.488ZM709.772 47.2251C707.765 47.5462 705.926 48.3514 704.275 49.6091L706.7 52.7909C707.849 51.9153 709.077 51.3872 710.403 51.1749L709.772 47.2251ZM704.325 49.5725C702.565 50.8296 701.085 52.8043 699.809 55.2853L703.366 57.1147C704.49 54.9291 705.61 53.5704 706.65 52.8275L704.325 49.5725ZM699.806 55.2903L687.906 78.5903L691.469 80.4097L703.369 57.1097L699.806 55.2903ZM687.688 79.5V81.6H691.688V79.5H687.688ZM687.688 81.6C687.688 84.2749 687.816 86.3791 688.141 87.7581L692.034 86.8419C691.825 85.9543 691.688 84.2584 691.688 81.6H687.688ZM688.169 87.8643C688.636 89.4528 689.595 90.7399 691.093 91.4889L692.882 87.9111C692.513 87.7268 692.206 87.4139 692.006 86.7357L688.169 87.8643ZM691.093 91.4889C692.377 92.1309 694.225 92.4873 696.401 92.6913L696.774 88.7087C694.683 88.5127 693.464 88.2024 692.882 87.9111L691.093 91.4889ZM694.658 91.2262C695.011 92.5199 695.188 93.8429 695.188 95.2H699.188C699.188 93.4905 698.964 91.8134 698.517 90.1738L694.658 91.2262ZM697.237 93.2006C691.901 93.0672 687.914 93 685.288 93V97C687.861 97 691.807 97.0661 697.138 97.1994L697.237 93.2006ZM685.288 93C680.536 93 676.279 93.0669 672.516 93.2013L672.659 97.1987C676.363 97.0664 680.572 97 685.288 97V93ZM674.588 95.2C674.588 93.6123 674.772 92.3251 675.095 91.3023L671.28 90.0977C670.803 91.6082 670.588 93.321 670.588 95.2H674.588ZM673.358 92.6927C675.7 92.492 677.619 92.1766 678.875 91.6383L677.3 87.9617C676.689 88.2234 675.342 88.508 673.017 88.7073L673.358 92.6927ZM678.875 91.6383C680.404 90.9832 681.409 89.7578 681.896 88.1966L678.079 87.0034C677.9 87.5755 677.638 87.8168 677.3 87.9617L678.875 91.6383ZM681.906 88.1643C682.327 86.7344 682.488 84.6184 682.488 82H678.488C678.488 84.5816 678.315 86.1989 678.069 87.0357L681.906 88.1643ZM682.488 82V79.6H678.488V82H682.488ZM682.24 78.6362L667.94 52.6362L664.435 54.5638L678.735 80.5638L682.24 78.6362ZM667.883 52.54C666.822 50.8416 665.667 49.4519 664.369 48.6176L662.206 51.9824C662.775 52.3481 663.553 53.1583 664.492 54.66L667.883 52.54ZM664.426 48.6556C663.138 47.7642 661.522 47.3779 659.774 47.3019L659.601 51.2981C660.919 51.3554 661.703 51.6358 662.149 51.9444L664.426 48.6556ZM661.615 48.7647C661.346 47.7975 661.188 46.492 661.188 44.8H657.188C657.188 46.708 657.362 48.4025 657.76 49.8353L661.615 48.7647ZM659.111 46.7985C662.599 46.9327 665.858 47 668.888 47V43C665.917 43 662.709 42.934 659.264 42.8015L659.111 46.7985ZM668.888 47C675.07 47 679.179 46.9343 681.13 46.7949L680.845 42.8051C679.063 42.9324 675.105 43 668.888 43V47ZM678.988 44.8C678.988 46.3655 678.862 47.689 678.63 48.788L682.545 49.612C682.847 48.1777 682.988 46.5678 682.988 44.8H678.988ZM680.406 47.2082C678.862 47.3486 677.423 47.6462 676.359 48.285L678.416 51.715C678.685 51.5538 679.38 51.318 680.769 51.1918L680.406 47.2082ZM676.359 48.285C675.134 49.02 674.388 50.2142 674.388 51.7H678.388C678.388 51.6688 678.391 51.6639 678.387 51.678C678.386 51.6847 678.383 51.6942 678.378 51.7055C678.373 51.7169 678.368 51.7283 678.361 51.739C678.355 51.7497 678.349 51.758 678.345 51.7636C678.34 51.7692 678.338 51.771 678.34 51.7692C678.344 51.7657 678.365 51.7457 678.416 51.715L676.359 48.285ZM674.388 51.7C674.388 53.1562 675.12 54.7636 676.079 56.3399L679.496 54.2601C678.589 52.7698 678.388 51.9772 678.388 51.7H674.388ZM676.07 56.3252C678.694 60.72 682.065 67.1278 686.19 75.5774L689.785 73.8226C685.643 65.3389 682.214 58.8134 679.505 54.2748L676.07 56.3252ZM689.808 75.5291C692.521 69.5731 695.668 63.2446 699.251 56.543L695.724 54.657C692.107 61.422 688.921 67.8269 686.167 73.8709L689.808 75.5291ZM699.236 56.5713C699.765 55.6194 700.189 54.7424 700.485 53.9522C700.772 53.1865 700.988 52.3781 700.988 51.6H696.988C696.988 51.6886 696.953 51.9802 696.74 52.5478C696.536 53.091 696.21 53.7806 695.739 54.6287L699.236 56.5713ZM700.988 51.6C700.988 50.9218 700.83 50.2242 700.433 49.59C700.038 48.9577 699.483 48.5116 698.882 48.2111L697.093 51.7889C697.129 51.8067 697.131 51.8128 697.115 51.7989C697.098 51.7836 697.069 51.7541 697.042 51.71C697.014 51.6657 696.998 51.6247 696.991 51.5965C696.984 51.5702 696.988 51.5682 696.988 51.6H700.988ZM698.959 48.2517C697.966 47.6999 696.567 47.4444 695.069 47.3082L694.706 51.2918C696.142 51.4223 696.809 51.6334 697.016 51.7483L698.959 48.2517ZM696.813 48.7607C696.382 47.2204 696.188 45.9062 696.188 44.8H692.188C692.188 46.3605 692.46 48.0462 692.962 49.8393L696.813 48.7607ZM694.014 46.7925C695.647 46.9344 698.63 47 702.888 47V43C698.611 43 695.795 42.9322 694.361 42.8075L694.014 46.7925Z" transform="translate(43 98)" fill="#0F0F0F"/>
<path d="M10.2 88.9L8.70032 90.2232L8.70576 90.2294L8.71124 90.2355L10.2 88.9ZM10.3 51.4L8.82209 50.0525L8.81664 50.0585L8.81124 50.0645L10.3 51.4ZM43.4 88.9L41.9123 87.5633L41.9112 87.5645L43.4 88.9ZM37.1 86.1L38.7692 87.2017L38.7742 87.1941L38.7791 87.1865L37.1 86.1ZM38.5 59.9L36.614 60.5656L36.6198 60.582L36.6258 60.5982L38.5 59.9ZM33.4 52L32.106 53.525L32.106 53.525L33.4 52ZM16.7 54.1L15.0411 52.9828L15.0332 52.9946L15.0255 53.0064L16.7 54.1ZM15.3 80.3L13.41 80.9542L13.4177 80.9763L13.4258 80.9982L15.3 80.3ZM20.5 88.3L19.1798 89.8023L19.1928 89.8138L19.206 89.825L20.5 88.3ZM26.8 93.7C20.2744 93.7 15.3177 91.6099 11.6888 87.5645L8.71124 90.2355C13.2156 95.2568 19.3256 97.7 26.8 97.7V93.7ZM11.6997 87.5768C8.11177 83.5105 6.2 77.8012 6.2 70.2H2.2C2.2 78.4655 4.28823 85.2229 8.70032 90.2232L11.6997 87.5768ZM6.2 70.2C6.2 62.535 8.14339 56.7992 11.7888 52.7355L8.81124 50.0645C4.32328 55.0675 2.2 61.865 2.2 70.2H6.2ZM11.7779 52.7475C15.4733 48.6945 20.5018 46.6 27.1 46.6V42.6C19.5649 42.6 13.3934 45.0388 8.82209 50.0525L11.7779 52.7475ZM27.1 46.6C33.636 46.6 38.5541 48.6634 42.1101 52.6342L45.0899 49.9658C40.6459 45.0033 34.564 42.6 27.1 42.6V46.6ZM42.1101 52.6342C45.6875 56.629 47.6 62.2969 47.6 69.9H51.6C51.6 61.6364 49.5125 54.9043 45.0899 49.9658L42.1101 52.6342ZM47.6 69.9C47.6 77.6271 45.6257 83.4307 41.9123 87.5633L44.8877 90.2367C49.441 85.1693 51.6 78.3063 51.6 69.9H47.6ZM41.9112 87.5645C38.2823 91.6099 33.3256 93.7 26.8 93.7V97.7C34.2744 97.7 40.3844 95.2568 44.8888 90.2355L41.9112 87.5645ZM28.1 93.1C32.612 93.1 36.2217 91.0616 38.7692 87.2017L35.4308 84.9983C33.5783 87.8051 31.188 89.1 28.1 89.1V93.1ZM38.7791 87.1865C41.2704 83.3364 42.4 78.134 42.4 71.8H38.4C38.4 77.7327 37.3296 82.0636 35.4209 85.0135L38.7791 87.1865ZM42.4 71.8C42.4 67.0854 41.7419 62.8731 40.3742 59.2018L36.6258 60.5982C37.7914 63.7269 38.4 67.4479 38.4 71.8H42.4ZM40.386 59.2344C39.0973 55.583 37.2235 52.6213 34.694 50.475L32.106 53.525C33.9765 55.1121 35.5027 57.417 36.614 60.5656L40.386 59.2344ZM34.694 50.475C32.1351 48.3038 29.144 47.2 25.8 47.2V51.2C28.1893 51.2 30.2649 51.9628 32.106 53.525L34.694 50.475ZM25.8 47.2C21.2532 47.2 17.6045 49.1766 15.0411 52.9828L18.3589 55.2172C20.1955 52.4901 22.6134 51.2 25.8 51.2V47.2ZM15.0255 53.0064C12.5904 56.735 11.5 61.8824 11.5 68.2H15.5C15.5 62.2509 16.5429 57.9983 18.3745 55.1936L15.0255 53.0064ZM11.5 68.2C11.5 72.9686 12.1214 77.2314 13.41 80.9542L17.19 79.6458C16.0786 76.4352 15.5 72.6314 15.5 68.2H11.5ZM13.4258 80.9982C14.7807 84.635 16.679 87.6047 19.1798 89.8023L21.8202 86.7977C19.921 85.1286 18.3526 82.765 17.1742 79.6018L13.4258 80.9982ZM19.206 89.825C21.7649 91.9962 24.756 93.1 28.1 93.1V89.1C25.7107 89.1 23.6351 88.3372 21.794 86.775L19.206 89.825ZM88.9063 81.5V79.5H86.9063V81.5H88.9063ZM90.1063 89.2L88.5877 90.5016L88.6377 90.5599L88.692 90.6142L90.1063 89.2ZM95.2063 90.7L97.0897 90.0273L96.6417 88.7728L95.3114 88.7028L95.2063 90.7ZM95.7063 95.2L95.6418 97.199L97.7063 97.2656V95.2H95.7063ZM71.3063 95.2H69.3063V97.2727L71.3776 97.1987L71.3063 95.2ZM71.8063 90.7L71.7133 88.7022L70.3428 88.7659L69.9089 90.0675L71.8063 90.7ZM77.9063 88.8L79.2795 90.254L79.2817 90.2519L77.9063 88.8ZM79.8063 81.5H81.8063V79.5H79.8063V81.5ZM59.9063 82L58.1283 82.9159L58.7528 84.1281L60.1093 83.9897L59.9063 82ZM58.0063 74.9L56.4694 73.6201L55.9678 74.2224L56.009 75.0051L58.0063 74.9ZM83.4063 44.4L83.014 42.4388L82.3214 42.5774L81.8694 43.1201L83.4063 44.4ZM88.9063 45H90.9063V43.7639L89.8007 43.2111L88.9063 45ZM88.9063 73.8H86.9063V75.8H88.9063V73.8ZM97.7063 74.1L96.8118 75.8889L96.8644 75.9151L96.9184 75.9383L97.7063 74.1ZM98.9063 75.3L100.763 76.0428L101.116 75.1599L100.655 74.3287L98.9063 75.3ZM97.3063 81.5V83.5H99.0718L99.2908 81.7481L97.3063 81.5ZM80.3062 74.4V76.4H82.3062V74.4H80.3062ZM80.3062 55.1H82.3062V49.4721L78.7548 53.8379L80.3062 55.1ZM64.6063 74.4L63.0548 73.1379L60.4011 76.4H64.6063V74.4ZM86.9063 81.5V83.8H90.9063V81.5H86.9063ZM86.9063 83.8C86.9063 85.2207 87.0116 86.4938 87.2539 87.5839C87.4923 88.6569 87.8937 89.6919 88.5877 90.5016L91.6248 87.8984C91.5188 87.7748 91.3202 87.4431 91.1586 86.7161C91.0009 86.0062 90.9063 85.046 90.9063 83.8H86.9063ZM88.692 90.6142C90.1293 92.0515 92.5181 92.5613 95.1011 92.6972L95.3114 88.7028C92.8278 88.572 91.8165 88.0818 91.5205 87.7858L88.692 90.6142ZM93.3228 91.3727C93.5334 91.9623 93.7063 93.1691 93.7063 95.2H97.7063C97.7063 93.0976 97.5458 91.3043 97.0897 90.0273L93.3228 91.3727ZM95.7707 93.201C91.6146 93.067 87.3264 93 82.9063 93V97C87.2861 97 91.5312 97.0664 95.6418 97.199L95.7707 93.201ZM82.9063 93C78.8841 93 74.9936 93.067 71.2349 93.2013L71.3776 97.1987C75.0856 97.0663 78.9284 97 82.9063 97V93ZM73.3063 95.2C73.3063 93.2584 73.4745 92.0198 73.7036 91.3325L69.9089 90.0675C69.4713 91.3802 69.3063 93.1416 69.3063 95.2H73.3063ZM71.8992 92.6978C74.9231 92.5572 77.5534 91.8842 79.2795 90.254L76.533 87.346C75.8591 87.9824 74.4227 88.5761 71.7133 88.7022L71.8992 92.6978ZM79.2817 90.2519C81.1074 88.5223 81.8063 85.9802 81.8063 83.1H77.8063C77.8063 85.4198 77.2384 86.6777 76.5308 87.3481L79.2817 90.2519ZM81.8063 83.1V81.5H77.8063V83.1H81.8063ZM79.8063 79.5H71.7063V83.5H79.8063V79.5ZM71.7063 79.5C67.063 79.5 63.058 79.668 59.7032 80.0103L60.1093 83.9897C63.2878 83.6653 67.1495 83.5 71.7063 83.5V79.5ZM61.6842 81.0841C60.6838 79.1422 60.1223 77.0528 60.0035 74.7949L56.009 75.0051C56.1568 77.8139 56.862 80.4578 58.1283 82.9159L61.6842 81.0841ZM59.5431 76.1799L84.9431 45.6799L81.8694 43.1201L56.4694 73.6201L59.5431 76.1799ZM83.7985 46.3612C83.932 46.3345 84.2712 46.3 84.9063 46.3V42.3C84.2079 42.3 83.5472 42.3322 83.014 42.4388L83.7985 46.3612ZM84.9063 46.3C86.5094 46.3 87.4819 46.5239 88.0118 46.7889L89.8007 43.2111C88.464 42.5428 86.7698 42.3 84.9063 42.3V46.3ZM86.9063 45V73.8H90.9063V45H86.9063ZM88.9063 75.8H95.9063V71.8H88.9063V75.8ZM95.9063 75.8C96.2283 75.8 96.4638 75.8205 96.6275 75.8478C96.7965 75.876 96.8413 75.9036 96.8118 75.8889L98.6007 72.3111C97.7828 71.9022 96.8084 71.8 95.9063 71.8V75.8ZM96.9184 75.9383C96.8553 75.9112 96.9647 75.9235 97.1579 76.2713L100.655 74.3287C100.181 73.4765 99.4906 72.6888 98.4941 72.2617L96.9184 75.9383ZM97.0493 74.5572C96.1859 76.7157 95.6096 78.9486 95.3217 81.2519L99.2908 81.7481C99.5362 79.7847 100.027 77.8843 100.763 76.0428L97.0493 74.5572ZM97.3063 79.5H88.9063V83.5H97.3063V79.5ZM82.3062 74.4V55.1H78.3062V74.4H82.3062ZM78.7548 53.8379L63.0548 73.1379L66.1577 75.6621L81.8577 56.3621L78.7548 53.8379ZM64.6063 76.4H80.3062V72.4H64.6063V76.4ZM109.725 94.2L108.311 95.6142L108.311 95.6142L109.725 94.2ZM109.925 84.8L108.546 83.3517L108.528 83.3685L108.511 83.3858L109.925 84.8ZM119.925 84.8L118.438 86.1379L118.474 86.177L118.511 86.2142L119.925 84.8ZM119.825 94.2L121.163 95.6866L121.163 95.6866L119.825 94.2ZM114.725 94C112.978 94 111.873 93.52 111.139 92.7858L108.311 95.6142C109.977 97.28 112.205 98 114.725 98V94ZM111.139 92.7858C110.354 92.0001 109.925 90.9945 109.925 89.6H105.925C105.925 91.9389 106.696 93.9999 108.311 95.6142L111.139 92.7858ZM109.925 89.6C109.925 88.2698 110.377 87.1768 111.339 86.2142L108.511 83.3858C106.807 85.0899 105.925 87.1969 105.925 89.6H109.925ZM111.304 86.2483C112.293 85.3071 113.547 84.8 115.225 84.8V80.8C112.636 80.8 110.357 81.6262 108.546 83.3517L111.304 86.2483ZM115.225 84.8C116.641 84.8 117.65 85.2615 118.438 86.1379L121.412 83.4621C119.8 81.6718 117.676 80.8 115.225 80.8V84.8ZM118.511 86.2142C119.47 87.1739 119.825 88.0862 119.825 89H123.825C123.825 86.8471 122.913 84.9594 121.339 83.3858L118.511 86.2142ZM119.825 89C119.825 90.8597 119.293 91.988 118.487 92.7134L121.163 95.6866C123.024 94.012 123.825 91.6736 123.825 89H119.825ZM118.487 92.7134C117.577 93.5329 116.378 94 114.725 94V98C117.206 98 119.407 97.2671 121.163 95.6866L118.487 92.7134Z" fill="#0F0F0F"/>
</svg>
