<svg width="277" height="38" viewBox="0 0 277 38" fill="none" xmlns="http://www.w3.org/2000/svg">
<path d="M16.6334 21.16C19.1774 21.16 21.2414 20.536 22.8254 19.288C24.4574 18.04 25.2734 15.976 25.2734 13.096C25.2734 10.36 24.4094 8.2 22.6814 6.616C21.0014 4.984 18.4094 4.168 14.9054 4.168C13.9934 4.168 12.9374 4.312 11.7374 4.6L11.7374 27.784C11.7374 30.04 12.1694 31.6 13.0334 32.464C13.8974 33.328 15.3854 33.808 17.4974 33.904C17.7374 34.624 17.8574 35.704 17.8574 37.144C15.1694 37.048 12.3854 37 9.50541 37C5.85741 37 2.83341 37.048 0.433408 37.144C0.433408 35.656 0.553408 34.576 0.793407 33.904C2.47341 33.808 3.60141 33.424 4.17741 32.752C4.80141 32.032 5.11341 30.64 5.11341 28.576L5.11341 9.352C5.11341 7.96 4.99341 6.904 4.75341 6.184C4.51341 5.464 4.08141 4.96 3.45741 4.672C2.88141 4.384 1.99341 4.192 0.793409 4.096C0.553409 3.376 0.433409 2.296 0.433409 0.855998C4.94541 0.951999 7.89741 1 9.28941 1L17.9294 0.855998C22.8734 0.855998 26.4974 1.888 28.8014 3.952C31.1054 6.016 32.2574 8.656 32.2574 11.872C32.2574 14.176 31.7054 16.288 30.6014 18.208C29.4974 20.128 27.8414 21.664 25.6334 22.816C23.4734 23.968 20.8574 24.544 17.7854 24.544C15.9134 24.544 14.4494 24.376 13.3934 24.04C13.2974 23.368 13.2494 22.864 13.2494 22.528C13.2494 21.904 13.3214 21.376 13.4654 20.944C14.1854 21.088 15.2414 21.16 16.6334 21.16ZM80.4428 28.792C80.4428 30.856 80.7308 32.248 81.3068 32.968C81.9308 33.64 83.0828 34.024 84.7628 34.12C85.0028 34.696 85.1228 35.704 85.1228 37.144C81.8588 37.048 79.2188 37 77.2028 37C74.8028 37 72.1148 37.048 69.1388 37.144C69.1388 35.704 69.2588 34.696 69.4988 34.12C71.1788 34.024 72.3068 33.64 72.8828 32.968C73.5068 32.248 73.8188 30.856 73.8188 28.792L73.8188 20.008C64.6028 20.008 58.3868 20.128 55.1708 20.368L55.1708 28.792C55.1708 30.856 55.4588 32.248 56.0348 32.968C56.6588 33.64 57.8348 34.024 59.5628 34.12C59.7548 34.744 59.8508 35.752 59.8508 37.144C56.5868 37.048 53.9468 37 51.9308 37C49.5308 37 46.8428 37.048 43.8668 37.144C43.8668 35.704 43.9868 34.696 44.2268 34.12C45.4268 34.024 46.3148 33.832 46.8908 33.544C47.5148 33.256 47.9468 32.752 48.1868 32.032C48.4268 31.312 48.5468 30.232 48.5468 28.792L48.5468 9.136C48.5468 7.744 48.4268 6.688 48.1868 5.968C47.9468 5.248 47.5148 4.744 46.8908 4.456C46.3148 4.168 45.4268 3.976 44.2268 3.88C43.9868 3.208 43.8668 2.2 43.8668 0.855998C46.9388 0.951999 49.6268 1 51.9308 1C53.8508 1 56.4908 0.951999 59.8508 0.855998C59.8508 2.248 59.7548 3.256 59.5628 3.88C57.8348 3.976 56.6588 4.36 56.0348 5.032C55.4588 5.704 55.1708 7.072 55.1708 9.136L55.1708 16.84H73.8188L73.8188 9.136C73.8188 7.744 73.6748 6.688 73.3868 5.968C73.1468 5.248 72.7148 4.744 72.0908 4.456C71.5148 4.168 70.6268 3.976 69.4268 3.88C69.2348 3.16 69.1388 2.152 69.1388 0.855998C72.2108 0.951999 74.8748 1 77.1308 1C79.0989 1 81.7629 0.951999 85.1228 0.855998C85.1228 2.104 85.0028 3.112 84.7628 3.88C83.0348 3.976 81.8828 4.36 81.3068 5.032C80.7308 5.704 80.4428 7.072 80.4428 9.136L80.4428 28.792ZM117.639 37.648C113.511 37.648 109.863 36.88 106.695 35.344C103.527 33.808 101.055 31.648 99.2787 28.864C97.5507 26.08 96.6867 22.84 96.6867 19.144C96.6867 15.496 97.5507 12.256 99.2787 9.424C101.055 6.592 103.527 4.408 106.695 2.872C109.911 1.288 113.607 0.495998 117.783 0.495998C121.911 0.495998 125.559 1.264 128.727 2.8C131.895 4.336 134.343 6.52 136.071 9.352C137.847 12.136 138.735 15.352 138.735 19C138.735 22.696 137.847 25.96 136.071 28.792C134.343 31.576 131.871 33.76 128.655 35.344C125.487 36.88 121.815 37.648 117.639 37.648ZM118.647 34.336C122.535 34.336 125.607 33.04 127.863 30.448C130.167 27.856 131.319 24.4 131.319 20.08C131.319 16.96 130.695 14.176 129.447 11.728C128.199 9.232 126.447 7.288 124.191 5.896C121.983 4.504 119.487 3.808 116.703 3.808C112.815 3.808 109.743 5.128 107.487 7.768C105.231 10.36 104.103 13.792 104.103 18.064C104.103 21.28 104.727 24.136 105.975 26.632C107.223 29.08 108.951 30.976 111.159 32.32C113.367 33.664 115.863 34.336 118.647 34.336ZM182.319 0.855998C182.175 3.448 182.343 6.568 182.823 10.216C181.815 10.648 180.639 10.864 179.295 10.864C179.199 8.56 178.575 6.856 177.423 5.752C176.319 4.648 174.567 4.096 172.167 4.096H168.999L168.999 28.792C168.999 30.28 169.119 31.384 169.359 32.104C169.647 32.776 170.127 33.256 170.799 33.544C171.519 33.832 172.599 34.024 174.039 34.12C174.279 34.696 174.399 35.704 174.399 37.144C170.847 37.048 167.943 37 165.687 37C162.903 37 159.927 37.048 156.759 37.144C156.759 35.704 156.879 34.696 157.119 34.12C158.559 34.024 159.639 33.832 160.359 33.544C161.127 33.256 161.655 32.752 161.943 32.032C162.231 31.312 162.375 30.232 162.375 28.792L162.375 4.096H159.423C157.503 4.096 156.015 4.36 154.959 4.888C153.951 5.368 153.207 6.064 152.727 6.976C152.247 7.888 151.839 9.184 151.503 10.864C149.967 10.864 148.839 10.648 148.119 10.216C148.839 6.952 149.199 3.832 149.199 0.855998C151.695 0.951999 157.191 1 165.687 1C174.327 1 179.871 0.951999 182.319 0.855998ZM213.224 37.648C209.096 37.648 205.448 36.88 202.28 35.344C199.112 33.808 196.64 31.648 194.864 28.864C193.136 26.08 192.272 22.84 192.272 19.144C192.272 15.496 193.136 12.256 194.864 9.424C196.64 6.592 199.112 4.408 202.28 2.872C205.496 1.288 209.192 0.495998 213.368 0.495998C217.496 0.495998 221.144 1.264 224.312 2.8C227.48 4.336 229.928 6.52 231.656 9.352C233.432 12.136 234.32 15.352 234.32 19C234.32 22.696 233.432 25.96 231.656 28.792C229.928 31.576 227.456 33.76 224.24 35.344C221.072 36.88 217.4 37.648 213.224 37.648ZM214.232 34.336C218.12 34.336 221.192 33.04 223.448 30.448C225.752 27.856 226.904 24.4 226.904 20.08C226.904 16.96 226.28 14.176 225.032 11.728C223.784 9.232 222.032 7.288 219.776 5.896C217.568 4.504 215.072 3.808 212.288 3.808C208.4 3.808 205.328 5.128 203.072 7.768C200.816 10.36 199.688 13.792 199.688 18.064C199.688 21.28 200.312 24.136 201.56 26.632C202.808 29.08 204.536 30.976 206.744 32.32C208.952 33.664 211.448 34.336 214.232 34.336ZM260.913 37.504C258.273 37.504 255.873 37.24 253.713 36.712C251.601 36.184 249.297 35.392 246.801 34.336C247.329 31.12 247.521 28.336 247.377 25.984C248.433 25.648 249.729 25.48 251.265 25.48C251.361 28.456 252.297 30.616 254.073 31.96C255.897 33.304 258.441 33.976 261.705 33.976C264.489 33.976 266.673 33.544 268.257 32.68C269.889 31.816 270.705 30.664 270.705 29.224C270.705 28.216 270.297 27.352 269.481 26.632C268.713 25.864 267.753 25.24 266.601 24.76C265.497 24.232 263.865 23.584 261.705 22.816C258.729 21.808 256.329 20.872 254.505 20.008C252.729 19.096 251.169 17.872 249.825 16.336C248.529 14.752 247.881 12.784 247.881 10.432C247.881 7.216 249.081 4.768 251.481 3.088C253.929 1.408 257.265 0.567997 261.489 0.567997C263.745 0.567997 265.977 0.783998 268.185 1.216C270.441 1.648 272.193 2.2 273.441 2.872C273.393 3.4 273.369 4.216 273.369 5.32C273.369 7.48 273.513 9.184 273.801 10.432C272.793 10.96 271.473 11.224 269.841 11.224C269.169 8.488 268.065 6.592 266.529 5.536C265.041 4.432 263.193 3.88 260.985 3.88C258.873 3.88 257.145 4.24 255.801 4.96C254.505 5.68 253.857 6.736 253.857 8.128C253.857 9.712 254.625 10.984 256.161 11.944C257.697 12.904 260.097 13.96 263.361 15.112C266.145 16.072 268.425 16.984 270.201 17.848C271.977 18.712 273.489 19.888 274.737 21.376C275.985 22.816 276.609 24.64 276.609 26.848C276.609 30.016 275.313 32.584 272.721 34.552C270.129 36.52 266.193 37.504 260.913 37.504Z" fill="white"/>
</svg>
