<svg width="766" height="211" viewBox="0 0 766 211" fill="none" xmlns="http://www.w3.org/2000/svg">
<path d="M38.7 70.4L38.0926 69.6056L38.0868 69.61L38.0811 69.6145L38.7 70.4ZM38.5 52.8L37.8032 53.5173L37.8136 53.5274L37.8243 53.5372L38.5 52.8ZM23.3 50L23.0666 49.0276L22.3 49.2116V50H23.3ZM25.1 88.7L24.3929 89.4071L25.1 88.7ZM31.3 90.7L32.2487 90.3838L32.0315 89.7322L31.3454 89.701L31.3 90.7ZM31.8 95.2L31.7643 96.1994L32.8 96.2364V95.2H31.8ZM7.6 95.2H6.6V96.2408L7.63997 96.1992L7.6 95.2ZM8.1 90.7L8.04295 89.7016L7.38119 89.7394L7.15826 90.3637L8.1 90.7ZM12.8 89.1L12.0443 88.4451L12.0407 88.4492L12.8 89.1ZM13.6 52.2L14.5487 51.8838L14.5487 51.8838L13.6 52.2ZM11.8 50.1L11.3528 50.9944L11.3668 51.0014L11.3809 51.008L11.8 50.1ZM8.1 49.3L7.15132 49.6162L7.36059 50.244L8.02025 50.2968L8.1 49.3ZM7.6 44.8L7.62127 43.8002L6.6 43.7785V44.8H7.6ZM19.9 45V46H19.9083L19.9167 45.9999L19.9 45ZM31.9 44.8V43.8H31.8917L31.8833 43.8001L31.9 44.8ZM47 49.1L47.6673 48.3552L47.6673 48.3552L47 49.1ZM49.5 68.9L50.3669 69.3985L50.3669 69.3985L49.5 68.9ZM42.6 75.3L42.1374 74.4134L42.1294 74.4176L42.6 75.3ZM25.6 77L24.6101 77.1414L24.6988 77.7627L25.2968 77.9529L25.6 77ZM25.7 72.7L25.8961 71.7194L25.0305 71.5463L24.7513 72.3838L25.7 72.7ZM30.1 74C33.7981 74 36.9007 73.0907 39.3189 71.1855L38.0811 69.6145C36.0993 71.1759 33.4686 72 30.1 72V74ZM39.3075 71.1944C41.9107 69.2036 43.1 65.9787 43.1 61.8H41.1C41.1 65.6213 40.0226 68.1297 38.0926 69.6056L39.3075 71.1944ZM43.1 61.8C43.1 57.771 41.8174 54.4843 39.1757 52.0628L37.8243 53.5372C39.9826 55.5156 41.1 58.229 41.1 61.8H43.1ZM39.1968 52.0827C36.6021 49.5622 32.6997 48.4 27.7 48.4V50.4C32.4336 50.4 35.7312 51.5045 37.8032 53.5173L39.1968 52.0827ZM27.7 48.4C26.3327 48.4 24.7848 48.6152 23.0666 49.0276L23.5334 50.9724C25.1485 50.5847 26.534 50.4 27.7 50.4V48.4ZM22.3 50V82.2H24.3V50H22.3ZM22.3 82.2C22.3 85.396 22.8991 87.9133 24.3929 89.4071L25.8071 87.9929C24.9009 87.0867 24.3 85.2707 24.3 82.2H22.3ZM24.3929 89.4071C25.8598 90.874 28.2391 91.5619 31.2546 91.699L31.3454 89.701C28.4943 89.5714 26.7403 88.926 25.8071 87.9929L24.3929 89.4071ZM30.3513 91.0162C30.6325 91.8599 30.8 93.2292 30.8 95.2H32.8C32.8 93.1708 32.6341 91.5401 32.2487 90.3838L30.3513 91.0162ZM31.8357 94.2006C28.0897 94.0669 24.2111 94 20.2 94V96C24.1889 96 28.0437 96.0665 31.7643 96.1994L31.8357 94.2006ZM20.2 94C15.1261 94 10.9116 94.0667 7.56003 94.2008L7.63997 96.1992C10.9551 96.0666 15.1406 96 20.2 96V94ZM8.6 95.2C8.6 93.1512 8.76978 91.7978 9.04174 91.0363L7.15826 90.3637C6.76356 91.4688 6.6 93.1155 6.6 95.2H8.6ZM8.15705 91.6984C10.5429 91.562 12.4777 91.0126 13.5593 89.7508L12.0407 88.4492C11.5223 89.054 10.3237 89.5713 8.04295 89.7016L8.15705 91.6984ZM13.5557 89.7549C14.138 89.0831 14.5145 88.1728 14.7508 87.1187C14.9889 86.0562 15.1 84.7773 15.1 83.3H13.1C13.1 84.6893 12.9944 85.8105 12.7992 86.6813C12.6021 87.5605 12.3287 88.1169 12.0443 88.4451L13.5557 89.7549ZM15.1 83.3V56.6H13.1V83.3H15.1ZM15.1 56.6C15.1 54.6331 14.9334 53.0379 14.5487 51.8838L12.6513 52.5162C12.9333 53.3621 13.1 54.7002 13.1 56.6H15.1ZM14.5487 51.8838C14.1381 50.6522 13.364 49.7205 12.2191 49.192L11.3809 51.008C11.9694 51.2795 12.3952 51.7478 12.6513 52.5162L14.5487 51.8838ZM12.2472 49.2056C11.2718 48.7179 9.88273 48.4394 8.17975 48.3032L8.02025 50.2968C9.65061 50.4272 10.7282 50.6821 11.3528 50.9944L12.2472 49.2056ZM9.04868 48.9838C8.76746 48.1401 8.6 46.7708 8.6 44.8H6.6C6.6 46.8292 6.76587 48.4599 7.15132 49.6162L9.04868 48.9838ZM7.57873 45.7998C13.843 45.9331 17.9541 46 19.9 46V44C17.9793 44 13.8903 43.9336 7.62127 43.8002L7.57873 45.7998ZM19.9167 45.9999L31.9167 45.7999L31.8833 43.8001L19.8833 44.0001L19.9167 45.9999ZM31.9 45.8C38.66 45.8 43.3987 47.2164 46.3328 49.8448L47.6673 48.3552C44.2013 45.2502 38.8733 43.8 31.9 43.8V45.8ZM46.3328 49.8448C49.3116 52.5134 50.8 55.9048 50.8 60.1H52.8C52.8 55.3619 51.0884 51.4199 47.6673 48.3552L46.3328 49.8448ZM50.8 60.1C50.8 63.1324 50.0756 65.8928 48.6331 68.4015L50.3669 69.3985C51.991 66.5739 52.8 63.4676 52.8 60.1H50.8ZM48.6331 68.4015C47.2063 70.8829 45.0568 72.8903 42.1374 74.4134L43.0626 76.1866C46.2766 74.5097 48.7271 72.2504 50.3669 69.3985L48.6331 68.4015ZM42.1294 74.4176C39.3066 75.9232 35.8435 76.7 31.7 76.7V78.7C36.0898 78.7 39.8934 77.8768 43.0706 76.1824L42.1294 74.4176ZM31.7 76.7C29.1424 76.7 27.2273 76.4684 25.9032 76.0471L25.2968 77.9529C26.9061 78.465 29.0576 78.7 31.7 78.7V76.7ZM26.59 76.8586C26.458 75.935 26.4 75.2927 26.4 74.9H24.4C24.4 75.4406 24.4753 76.1984 24.6101 77.1414L26.59 76.8586ZM26.4 74.9C26.4 74.1039 26.4927 73.4843 26.6487 73.0162L24.7513 72.3838C24.5073 73.1157 24.4 73.9628 24.4 74.9H26.4ZM25.5039 73.6806C26.6025 73.9003 28.1482 74 30.1 74V72C28.1852 72 26.7975 71.8997 25.8961 71.7194L25.5039 73.6806ZM116.924 89.4L116.143 90.0247L116.166 90.0535L116.191 90.0805L116.924 89.4ZM121.724 91L122.647 90.6154L122.406 90.0374L121.781 90.0016L121.724 91ZM122.224 95.2L122.195 96.1996L123.224 96.2298V95.2H122.224ZM100.024 95.2H99.0242V96.2328L100.056 96.1995L100.024 95.2ZM100.524 91L100.467 90.0016L99.842 90.0374L99.6011 90.6154L100.524 91ZM105.224 89.4L104.469 88.7451L104.465 88.7492L105.224 89.4ZM106.524 71.4H107.524V70.4H106.524V71.4ZM80.6242 71.9L80.5498 70.9028L79.6242 70.9718V71.9H80.6242ZM81.8242 89.4L81.0434 90.0247L81.0664 90.0535L81.0914 90.0805L81.8242 89.4ZM86.7242 91L87.68 90.7059L87.4752 90.0402L86.7797 90.0015L86.7242 91ZM87.1242 95.2L87.0948 96.1996L88.1242 96.2298V95.2H87.1242ZM64.9242 95.2H63.9242V96.2328L64.9565 96.1995L64.9242 95.2ZM65.4242 91L65.3445 90.0032L64.7359 90.0519L64.5011 90.6154L65.4242 91ZM69.1242 90.2L68.7052 89.292L68.691 89.2986L68.677 89.3056L69.1242 90.2ZM70.9242 88.1L69.9755 87.7838L69.9755 87.7838L70.9242 88.1ZM70.9242 51.9L71.8729 51.5838L71.8729 51.5838L70.9242 51.9ZM69.1242 49.8L68.677 50.6944L68.691 50.7014L68.7052 50.708L69.1242 49.8ZM65.4242 49L64.4825 49.3363L64.6999 49.9453L65.3445 49.9968L65.4242 49ZM64.9242 44.8L64.9555 43.8005L63.9242 43.7683V44.8H64.9242ZM87.1242 44.8H88.1242V43.771L87.0957 43.8004L87.1242 44.8ZM86.7242 49L86.7797 49.9985L87.4752 49.9598L87.68 49.2941L86.7242 49ZM81.8242 50.6L81.0914 49.9195L81.0779 49.9341L81.065 49.9492L81.8242 50.6ZM80.6242 67H79.6242V68H80.6242V67ZM106.524 67V68H107.524V67H106.524ZM105.924 51.9L104.976 52.2162L104.985 52.2441L104.996 52.2714L105.924 51.9ZM104.124 49.8L103.677 50.6944L103.691 50.7014L103.705 50.708L104.124 49.8ZM100.424 49L99.458 49.2577L99.6401 49.9405L100.344 49.9968L100.424 49ZM100.024 44.8L100.055 43.8005L99.0242 43.7683V44.8H100.024ZM122.224 44.8H123.224V43.771L122.196 43.8004L122.224 44.8ZM121.724 49L121.78 49.9985L122.472 49.96L122.679 49.2983L121.724 49ZM116.924 50.6L116.165 49.9492L116.165 49.9492L116.924 50.6ZM114.724 83.6C114.724 85.0738 114.827 86.3468 115.045 87.4026C115.261 88.4478 115.606 89.3528 116.143 90.0247L117.705 88.7753C117.443 88.4472 117.187 87.8855 117.003 86.9974C116.822 86.1199 116.724 84.9929 116.724 83.6H114.724ZM116.191 90.0805C117.332 91.3088 119.27 91.8614 121.667 91.9984L121.781 90.0016C119.512 89.872 118.25 89.3578 117.657 88.7195L116.191 90.0805ZM120.801 91.3846C121.051 91.9833 121.224 93.2037 121.224 95.2H123.224C123.224 93.1963 123.065 91.6167 122.647 90.6154L120.801 91.3846ZM122.254 94.2004C117.716 94.067 114.038 94 111.224 94V96C114.01 96 117.666 96.0664 122.195 96.1996L122.254 94.2004ZM111.224 94C107.878 94 104.134 94.0669 99.992 94.2005L100.056 96.1995C104.181 96.0664 107.904 96 111.224 96V94ZM101.024 95.2C101.024 93.2037 101.198 91.9833 101.447 91.3846L99.6011 90.6154C99.1839 91.6167 99.0242 93.1963 99.0242 95.2H101.024ZM100.581 91.9984C102.967 91.862 104.902 91.3126 105.983 90.0508L104.465 88.7492C103.947 89.354 102.748 89.8713 100.467 90.0016L100.581 91.9984ZM105.98 90.0549C106.562 89.3831 106.939 88.4728 107.175 87.4187C107.413 86.3562 107.524 85.0773 107.524 83.6H105.524C105.524 84.9893 105.419 86.1105 105.223 86.9813C105.026 87.8605 104.753 88.4169 104.469 88.7451L105.98 90.0549ZM107.524 83.6V71.4H105.524V83.6H107.524ZM106.524 70.4C93.7291 70.4 85.0594 70.5662 80.5498 70.9028L80.6986 72.8972C85.1224 72.5671 93.7194 72.4 106.524 72.4V70.4ZM79.6242 71.9V83.6H81.6242V71.9H79.6242ZM79.6242 83.6C79.6242 85.0738 79.7265 86.3468 79.945 87.4026C80.1612 88.4478 80.5058 89.3528 81.0434 90.0247L82.6051 88.7753C82.3426 88.4472 82.0872 87.8855 81.9035 86.9974C81.7219 86.1199 81.6242 84.9929 81.6242 83.6H79.6242ZM81.0914 90.0805C82.2361 91.3132 84.214 91.8621 86.6687 91.9985L86.7797 90.0015C84.4345 89.8712 83.1456 89.3534 82.557 88.7195L81.0914 90.0805ZM85.7684 91.2941C85.9882 92.0082 86.1242 93.28 86.1242 95.2H88.1242C88.1242 93.2534 87.9936 91.7252 87.68 90.7059L85.7684 91.2941ZM87.1536 94.2004C82.6157 94.067 78.9381 94 76.1242 94V96C78.9103 96 82.5661 96.0664 87.0948 96.1996L87.1536 94.2004ZM76.1242 94C72.778 94 69.0336 94.0669 64.892 94.2005L64.9565 96.1995C69.0815 96.0664 72.8038 96 76.1242 96V94ZM65.9242 95.2C65.9242 93.2037 66.0978 91.9833 66.3473 91.3846L64.5011 90.6154C64.0839 91.6167 63.9242 93.1963 63.9242 95.2H65.9242ZM65.504 91.9968C67.2069 91.8606 68.5961 91.5821 69.5714 91.0944L68.677 89.3056C68.0524 89.6179 66.9748 89.8728 65.3445 90.0032L65.504 91.9968ZM69.5433 91.108C70.6882 90.5795 71.4624 89.6478 71.8729 88.4162L69.9755 87.7838C69.7194 88.5522 69.2936 89.0205 68.7052 89.292L69.5433 91.108ZM71.8729 88.4162C72.2583 87.2599 72.4242 85.6292 72.4242 83.6H70.4242C70.4242 85.5708 70.2568 86.9401 69.9755 87.7838L71.8729 88.4162ZM72.4242 83.6V56.3H70.4242V83.6H72.4242ZM72.4242 56.3C72.4242 54.3331 72.2576 52.7379 71.8729 51.5838L69.9755 52.2162C70.2575 53.0621 70.4242 54.4002 70.4242 56.3H72.4242ZM71.8729 51.5838C71.4624 50.3522 70.6882 49.4205 69.5433 48.892L68.7052 50.708C69.2936 50.9795 69.7194 51.4478 69.9755 52.2162L71.8729 51.5838ZM69.5714 48.9056C68.5961 48.4179 67.2069 48.1394 65.504 48.0032L65.3445 49.9968C66.9748 50.1272 68.0524 50.3821 68.677 50.6944L69.5714 48.9056ZM66.366 48.6637C66.0916 47.8955 65.9242 46.6347 65.9242 44.8H63.9242C63.9242 46.6986 64.0902 48.2379 64.4825 49.3363L66.366 48.6637ZM64.893 45.7995C69.1669 45.9331 72.911 46 76.1242 46V44C72.9374 44 69.2149 43.9336 64.9555 43.8005L64.893 45.7995ZM76.1242 46C78.8049 46 82.4825 45.933 87.1528 45.7996L87.0957 43.8004C82.4326 43.9336 78.7769 44 76.1242 44V46ZM86.1242 44.8C86.1242 46.72 85.9882 47.9918 85.7684 48.7059L87.68 49.2941C87.9936 48.2748 88.1242 46.7466 88.1242 44.8H86.1242ZM86.6687 48.0015C84.214 48.1379 82.2361 48.6868 81.0914 49.9195L82.557 51.2804C83.1456 50.6466 84.4345 50.1287 86.7797 49.9985L86.6687 48.0015ZM81.065 49.9492C80.51 50.5966 80.1622 51.4907 79.9457 52.519C79.7264 53.5605 79.6242 54.8269 79.6242 56.3H81.6242C81.6242 54.9065 81.722 53.7895 81.9028 52.931C82.0863 52.0593 82.3384 51.5367 82.5835 51.2508L81.065 49.9492ZM79.6242 56.3V67H81.6242V56.3H79.6242ZM80.6242 68H106.524V66H80.6242V68ZM107.524 67V56.3H105.524V67H107.524ZM107.524 56.3C107.524 54.3243 107.324 52.7059 106.853 51.5286L104.996 52.2714C105.325 53.0941 105.524 54.4091 105.524 56.3H107.524ZM106.873 51.5838C106.462 50.3522 105.688 49.4205 104.543 48.892L103.705 50.708C104.294 50.9795 104.719 51.4478 104.976 52.2162L106.873 51.5838ZM104.571 48.9056C103.596 48.4179 102.207 48.1394 100.504 48.0032L100.344 49.9968C101.975 50.1272 103.052 50.3821 103.677 50.6944L104.571 48.9056ZM101.39 48.7423C101.157 47.8661 101.024 46.5669 101.024 44.8H99.0242C99.0242 46.6331 99.1583 48.1339 99.458 49.2577L101.39 48.7423ZM99.993 45.7995C104.267 45.9331 107.978 46 111.124 46V44C108.004 44 104.315 43.9336 100.055 43.8005L99.993 45.7995ZM111.124 46C113.871 46 117.582 45.933 122.253 45.7996L122.196 43.8004C117.533 43.9336 113.844 44 111.124 44V46ZM121.224 44.8C121.224 46.4814 121.061 47.7694 120.77 48.7017L122.679 49.2983C123.054 48.0972 123.224 46.5853 123.224 44.8H121.224ZM121.669 48.0015C119.226 48.1372 117.251 48.6827 116.165 49.9492L117.683 51.2508C118.198 50.6506 119.422 50.1294 121.78 49.9985L121.669 48.0015ZM116.165 49.9492C115.61 50.5966 115.262 51.4907 115.046 52.519C114.826 53.5605 114.724 54.8269 114.724 56.3H116.724C116.724 54.9065 116.822 53.7895 117.003 52.931C117.186 52.0593 117.438 51.5367 117.683 51.2508L116.165 49.9492ZM114.724 56.3V83.6H116.724V56.3H114.724ZM149.185 92.7L148.749 93.5998L148.749 93.5998L149.185 92.7ZM138.885 83.7L138.035 84.2274L138.042 84.2378L138.885 83.7ZM138.885 56.7L138.038 56.1687L138.032 56.1791L138.885 56.7ZM149.185 47.6L149.621 48.4998L149.627 48.4971L149.185 47.6ZM179.785 47.5L179.349 48.3998L179.349 48.3998L179.785 47.5ZM189.985 56.6L189.132 57.1209L189.137 57.1294L189.142 57.1378L189.985 56.6ZM189.985 83.6L189.138 83.0687L189.136 83.0726L189.985 83.6ZM179.685 92.7L180.121 93.5998L180.127 93.5971L179.685 92.7ZM178.585 85.9L177.838 85.2356L177.831 85.2435L178.585 85.9ZM180.785 59.9L179.891 60.3472L179.894 60.3542L180.785 59.9ZM173.485 51.8L172.952 52.646L172.96 52.651L173.485 51.8ZM150.285 54.4L151.039 55.0565L151.045 55.0497L150.285 54.4ZM148.185 80.6L147.291 81.0472L147.294 81.0542L148.185 80.6ZM155.385 88.5L155.905 87.6458L155.905 87.6458L155.385 88.5ZM164.385 94.9C158.777 94.9 153.864 93.8571 149.621 91.8002L148.749 93.5998C153.306 95.8095 158.527 96.9 164.385 96.9V94.9ZM149.621 91.8002C145.376 89.742 142.089 86.8625 139.728 83.1622L138.042 84.2378C140.615 88.2709 144.194 91.3913 148.749 93.5998L149.621 91.8002ZM139.735 83.1726C137.445 79.4839 136.285 75.1715 136.285 70.2H134.285C134.285 75.4952 135.525 80.1828 138.036 84.2274L139.735 83.1726ZM136.285 70.2C136.285 65.2982 137.444 60.9819 139.739 57.2209L138.032 56.1791C135.526 60.2847 134.285 64.9685 134.285 70.2H136.285ZM139.732 57.2313C142.094 53.4655 145.381 50.5558 149.621 48.4998L148.749 46.7002C144.189 48.9108 140.61 52.0678 138.038 56.1687L139.732 57.2313ZM149.627 48.4971C153.935 46.3751 158.913 45.3 164.585 45.3V43.3C158.657 43.3 153.368 44.4249 148.743 46.7029L149.627 48.4971ZM164.585 45.3C170.193 45.3 175.106 46.3429 179.349 48.3998L180.221 46.6002C175.664 44.3905 170.444 43.3 164.585 43.3V45.3ZM179.349 48.3998C183.587 50.4548 186.838 53.3615 189.132 57.1209L190.839 56.0791C188.333 51.9719 184.783 48.8118 180.221 46.6002L179.349 48.3998ZM189.142 57.1378C191.496 60.8273 192.685 65.1032 192.685 70H194.685C194.685 64.7634 193.408 60.1061 190.828 56.0622L189.142 57.1378ZM192.685 70C192.685 74.9659 191.494 79.3111 189.138 83.0687L190.832 84.1313C193.409 80.0222 194.685 75.3007 194.685 70H192.685ZM189.136 83.0726C186.843 86.7655 183.558 89.6775 179.243 91.8029L180.127 93.5971C184.745 91.3225 188.327 88.1678 190.835 84.1274L189.136 83.0726ZM179.249 91.8002C175.008 93.8564 170.062 94.9 164.385 94.9V96.9C170.308 96.9 175.562 95.8102 180.121 93.5998L179.249 91.8002ZM165.785 92.3C171.432 92.3 175.99 90.4048 179.339 86.5565L177.831 85.2435C174.914 88.5952 170.938 90.3 165.785 90.3V92.3ZM179.333 86.5644C182.733 82.7394 184.385 77.6824 184.385 71.5H182.385C182.385 77.3176 180.838 81.8606 177.838 85.2356L179.333 86.5644ZM184.385 71.5C184.385 67.0303 183.49 63.0045 181.676 59.4458L179.894 60.3542C181.547 63.5955 182.385 67.303 182.385 71.5H184.385ZM181.68 59.4528C179.868 55.829 177.31 52.9852 174.01 50.949L172.96 52.651C175.927 54.4815 178.236 57.0377 179.891 60.3472L181.68 59.4528ZM174.018 50.9541C170.781 48.9133 167.127 47.9 163.085 47.9V49.9C166.776 49.9 170.056 50.82 172.952 52.6459L174.018 50.9541ZM163.085 47.9C157.432 47.9 152.872 49.8332 149.525 53.7503L151.045 55.0497C153.965 51.6335 157.938 49.9 163.085 49.9V47.9ZM149.531 53.7435C146.203 57.5667 144.585 62.5862 144.585 68.7H146.585C146.585 62.9471 148.1 58.4333 151.039 55.0565L149.531 53.7435ZM144.585 68.7C144.585 73.2982 145.478 77.4219 147.291 81.0472L149.08 80.1528C147.426 76.8447 146.585 73.0351 146.585 68.7H144.585ZM147.294 81.0542C149.106 84.6085 151.63 87.385 154.865 89.3542L155.905 87.6458C153.007 85.8817 150.731 83.3915 149.076 80.1458L147.294 81.0542ZM154.865 89.3542C158.101 91.3236 161.75 92.3 165.785 92.3V90.3C162.087 90.3 158.803 89.4098 155.905 87.6458L154.865 89.3542ZM251.219 44.8L252.217 44.8555L252.278 43.7577L251.18 43.8008L251.219 44.8ZM251.919 57.8L252.313 58.7191L253.009 58.4207L252.91 57.6695L251.919 57.8ZM247.019 58.7L246.02 58.7416L246.06 59.7H247.019V58.7ZM244.419 51.6L243.712 52.3071L243.719 52.3146L243.727 52.322L244.419 51.6ZM232.719 49.3V48.3H231.719V49.3H232.719ZM233.219 88.2L232.27 88.5162L232.283 88.5557L232.3 88.5939L233.219 88.2ZM235.219 90.2L234.825 91.1191L234.836 91.1239L234.847 91.1285L235.219 90.2ZM239.719 91L240.642 90.6154L240.404 90.0434L239.785 90.0022L239.719 91ZM240.219 95.2L240.192 96.1996L241.219 96.2274V95.2H240.219ZM215.719 95.2H214.719V96.2308L215.749 96.1995L215.719 95.2ZM216.219 91L216.152 90.0022L215.534 90.0434L215.296 90.6154L216.219 91ZM220.719 90.2L220.368 89.2637L220.357 89.2675L220.347 89.2715L220.719 90.2ZM222.919 88.1L223.847 88.4714L223.847 88.4714L222.919 88.1ZM223.519 49.3H224.519V48.3H223.519V49.3ZM213.219 50.4L213.649 51.3029L213.657 51.2987L213.666 51.2944L213.219 50.4ZM208.419 58.7V59.7H209.239L209.399 58.8961L208.419 58.7ZM203.719 57.8L202.742 57.5846L202.587 58.2873L203.204 58.6575L203.719 57.8ZM205.219 44.8L205.257 43.8007L204.219 43.7608V44.8H205.219ZM250.22 44.7445C250.016 48.4263 250.256 52.8254 250.927 57.9305L252.91 57.6695C252.249 52.6412 252.022 48.3737 252.217 44.8555L250.22 44.7445ZM251.525 56.8809C250.274 57.4169 248.78 57.7 247.019 57.7V59.7C248.991 59.7 250.763 59.3831 252.313 58.7191L251.525 56.8809ZM248.018 58.6584C247.879 55.3149 246.966 52.656 245.111 50.878L243.727 52.322C245.072 53.6106 245.892 55.6851 246.02 58.7416L248.018 58.6584ZM245.126 50.8929C243.325 49.0923 240.578 48.3 237.119 48.3V50.3C240.326 50.3 242.446 51.041 243.712 52.3071L245.126 50.8929ZM237.119 48.3H232.719V50.3H237.119V48.3ZM231.719 49.3V83.6H233.719V49.3H231.719ZM231.719 83.6C231.719 85.6916 231.884 87.3578 232.27 88.5162L234.167 87.8838C233.887 87.0422 233.719 85.6417 233.719 83.6H231.719ZM232.3 88.5939C232.801 89.7633 233.655 90.618 234.825 91.1191L235.613 89.2809C234.915 88.982 234.437 88.5034 234.138 87.8061L232.3 88.5939ZM234.847 91.1285C235.995 91.5877 237.621 91.8624 239.652 91.9978L239.785 90.0022C237.816 89.8709 236.442 89.6123 235.59 89.2715L234.847 91.1285ZM238.796 91.3846C239.045 91.9833 239.219 93.2037 239.219 95.2H241.219C241.219 93.1963 241.059 91.6167 240.642 90.6154L238.796 91.3846ZM240.246 94.2004C235.308 94.0669 231.265 94 228.119 94V96C231.24 96 235.263 96.0664 240.192 96.1996L240.246 94.2004ZM228.119 94C224.241 94 220.097 94.0669 215.688 94.2005L215.749 96.1995C220.14 96.0665 224.263 96 228.119 96V94ZM216.719 95.2C216.719 93.2037 216.892 91.9833 217.142 91.3846L215.296 90.6154C214.878 91.6167 214.719 93.1963 214.719 95.2H216.719ZM216.285 91.9978C218.316 91.8624 219.942 91.5877 221.09 91.1285L220.347 89.2715C219.495 89.6123 218.121 89.8709 216.152 90.0022L216.285 91.9978ZM221.07 91.1363C222.383 90.644 223.336 89.749 223.847 88.4714L221.99 87.7286C221.701 88.451 221.188 88.956 220.368 89.2637L221.07 91.1363ZM223.847 88.4714C224.319 87.2915 224.519 85.6372 224.519 83.6H222.519C222.519 85.5628 222.318 86.9085 221.99 87.7286L223.847 88.4714ZM224.519 83.6V49.3H222.519V83.6H224.519ZM223.519 48.3H219.419V50.3H223.519V48.3ZM219.419 48.3C216.683 48.3 214.438 48.6725 212.772 49.5056L213.666 51.2944C214.933 50.6609 216.821 50.3 219.419 50.3V48.3ZM212.789 49.4971C211.211 50.2484 210.01 51.3604 209.234 52.8343L211.004 53.7657C211.561 52.7063 212.426 51.8849 213.649 51.3029L212.789 49.4971ZM209.234 52.8343C208.503 54.2233 207.913 56.1299 207.438 58.5039L209.399 58.8961C209.858 56.6034 210.401 54.9101 211.004 53.7657L209.234 52.8343ZM208.419 57.7C206.338 57.7 204.996 57.4001 204.233 56.9425L203.204 58.6575C204.442 59.3999 206.233 59.7 208.419 59.7V57.7ZM204.695 58.0154C205.709 53.4199 206.219 49.014 206.219 44.8H204.219C204.219 48.8527 203.729 53.1135 202.742 57.5846L204.695 58.0154ZM205.18 45.7993C208.67 45.9335 216.324 46 228.119 46V44C216.314 44 208.701 43.9332 205.257 43.8007L205.18 45.7993ZM228.119 46C240.113 46 247.834 45.9335 251.258 45.7992L251.18 43.8008C247.803 43.9332 240.124 44 228.119 44V46ZM275.943 92.7L275.507 93.5998L275.507 93.5998L275.943 92.7ZM265.643 83.7L264.793 84.2274L264.8 84.2378L265.643 83.7ZM265.643 56.7L264.796 56.1687L264.789 56.1791L265.643 56.7ZM275.943 47.6L276.379 48.4998L276.385 48.4971L275.943 47.6ZM306.543 47.5L306.107 48.3998L306.107 48.3998L306.543 47.5ZM316.743 56.6L315.889 57.1209L315.895 57.1294L315.9 57.1378L316.743 56.6ZM316.743 83.6L315.896 83.0687L315.893 83.0726L316.743 83.6ZM306.443 92.7L306.879 93.5998L306.885 93.5971L306.443 92.7ZM305.343 85.9L304.596 85.2356L304.589 85.2435L305.343 85.9ZM307.543 59.9L306.649 60.3472L306.652 60.3542L307.543 59.9ZM300.243 51.8L299.71 52.646L299.718 52.651L300.243 51.8ZM277.043 54.4L277.797 55.0565L277.803 55.0497L277.043 54.4ZM274.943 80.6L274.049 81.0472L274.052 81.0542L274.943 80.6ZM282.143 88.5L282.663 87.6458L282.663 87.6458L282.143 88.5ZM291.143 94.9C285.535 94.9 280.622 93.8571 276.379 91.8002L275.507 93.5998C280.064 95.8095 285.284 96.9 291.143 96.9V94.9ZM276.379 91.8002C272.134 89.742 268.847 86.8625 266.486 83.1622L264.8 84.2378C267.373 88.2709 270.952 91.3913 275.507 93.5998L276.379 91.8002ZM266.493 83.1726C264.203 79.4839 263.043 75.1715 263.043 70.2H261.043C261.043 75.4952 262.283 80.1828 264.793 84.2274L266.493 83.1726ZM263.043 70.2C263.043 65.2982 264.202 60.9819 266.497 57.2209L264.789 56.1791C262.284 60.2847 261.043 64.9685 261.043 70.2H263.043ZM266.49 57.2313C268.852 53.4655 272.139 50.5558 276.379 48.4998L275.507 46.7002C270.947 48.9108 267.368 52.0678 264.796 56.1687L266.49 57.2313ZM276.385 48.4971C280.693 46.3751 285.671 45.3 291.343 45.3V43.3C285.415 43.3 280.126 44.4249 275.501 46.7029L276.385 48.4971ZM291.343 45.3C296.951 45.3 301.864 46.3429 306.107 48.3998L306.979 46.6002C302.422 44.3905 297.202 43.3 291.343 43.3V45.3ZM306.107 48.3998C310.345 50.4548 313.595 53.3615 315.889 57.1209L317.597 56.0791C315.09 51.9719 311.541 48.8118 306.979 46.6002L306.107 48.3998ZM315.9 57.1378C318.254 60.8273 319.443 65.1032 319.443 70H321.443C321.443 64.7634 320.166 60.1061 317.586 56.0622L315.9 57.1378ZM319.443 70C319.443 74.9659 318.252 79.3111 315.896 83.0687L317.59 84.1313C320.167 80.0222 321.443 75.3007 321.443 70H319.443ZM315.893 83.0726C313.601 86.7655 310.316 89.6775 306.001 91.8029L306.885 93.5971C311.503 91.3225 315.085 88.1678 317.593 84.1274L315.893 83.0726ZM306.007 91.8002C301.766 93.8564 296.82 94.9 291.143 94.9V96.9C297.066 96.9 302.32 95.8102 306.879 93.5998L306.007 91.8002ZM292.543 92.3C298.19 92.3 302.748 90.4048 306.097 86.5565L304.589 85.2435C301.671 88.5952 297.696 90.3 292.543 90.3V92.3ZM306.09 86.5644C309.49 82.7394 311.143 77.6824 311.143 71.5H309.143C309.143 77.3176 307.596 81.8606 304.596 85.2356L306.09 86.5644ZM311.143 71.5C311.143 67.0303 310.248 63.0045 308.434 59.4458L306.652 60.3542C308.305 63.5955 309.143 67.303 309.143 71.5H311.143ZM308.437 59.4528C306.625 55.829 304.068 52.9852 300.768 50.949L299.718 52.651C302.684 54.4815 304.994 57.0377 306.649 60.3472L308.437 59.4528ZM300.776 50.9541C297.539 48.9133 293.885 47.9 289.843 47.9V49.9C293.534 49.9 296.813 50.82 299.71 52.6459L300.776 50.9541ZM289.843 47.9C284.19 47.9 279.63 49.8332 276.283 53.7503L277.803 55.0497C280.722 51.6335 284.696 49.9 289.843 49.9V47.9ZM276.289 53.7435C272.961 57.5667 271.343 62.5862 271.343 68.7H273.343C273.343 62.9471 274.858 58.4333 277.797 55.0565L276.289 53.7435ZM271.343 68.7C271.343 73.2982 272.236 77.4219 274.049 81.0472L275.837 80.1528C274.183 76.8447 273.343 73.0351 273.343 68.7H271.343ZM274.052 81.0542C275.864 84.6085 278.388 87.385 281.623 89.3542L282.663 87.6458C279.765 85.8817 277.489 83.3915 275.834 80.1458L274.052 81.0542ZM281.623 89.3542C284.858 91.3236 288.508 92.3 292.543 92.3V90.3C288.845 90.3 285.561 89.4098 282.663 87.6458L281.623 89.3542ZM345.377 92.4L344.929 93.2944L344.929 93.2944L345.377 92.4ZM335.077 83.2L334.219 83.7145L334.224 83.7229L334.229 83.7313L335.077 83.2ZM335.777 55.9L336.57 56.509L336.575 56.5022L335.777 55.9ZM373.677 45.4L373.498 46.3839L373.508 46.3857L373.518 46.3873L373.677 45.4ZM383.077 48L384.05 48.2305L384.24 47.4251L383.485 47.0872L383.077 48ZM382.177 59.5L382.583 60.4138L383.177 60.1499V59.5H382.177ZM377.077 60.3L376.078 60.3476L376.123 61.3H377.077V60.3ZM372.977 51.4L373.541 50.5747L373.541 50.5747L372.977 51.4ZM350.977 51.4L350.5 50.5207L350.493 50.525L350.977 51.4ZM343.977 58.4L344.858 58.8717L344.863 58.8633L343.977 58.4ZM346.977 84.4L346.206 85.0378L346.212 85.0449L346.977 84.4ZM367.077 90.7L367.135 91.6983L367.135 91.6983L367.077 90.7ZM370.577 90.1L370.334 89.1299L370.321 89.133L370.309 89.1365L370.577 90.1ZM372.877 88.6L373.72 89.1369L373.731 89.1206L373.74 89.1039L372.877 88.6ZM373.077 77.5L372.143 77.859L372.148 77.8719L372.153 77.8846L373.077 77.5ZM371.077 75.8L370.76 76.7487L370.789 76.7584L370.819 76.7662L371.077 75.8ZM366.177 75.2L365.228 75.5162L365.449 76.179L366.147 76.1996L366.177 75.2ZM365.577 70.6L365.663 69.6038L364.577 69.5093V70.6H365.577ZM386.977 70.6H387.977V69.495L386.877 69.605L386.977 70.6ZM386.477 75.2L386.529 76.1986L387.248 76.1608L387.44 75.4676L386.477 75.2ZM383.777 75.8L384.224 76.6944L384.266 76.6732L384.307 76.648L383.777 75.8ZM382.677 77.4L383.641 77.6631L383.644 77.6529L383.647 77.6425L382.677 77.4ZM382.577 87.2L381.587 87.3414L381.593 87.3835L381.602 87.4249L382.577 87.2ZM383.577 90L384.122 90.8384L384.85 90.3648L384.483 89.5771L383.577 90ZM373.577 94.2L373.823 95.1692L373.834 95.1662L373.577 94.2ZM360.577 94.7C354.973 94.7 350.064 93.6255 345.824 91.5056L344.929 93.2944C349.489 95.5745 354.714 96.7 360.577 96.7V94.7ZM345.824 91.5056C341.578 89.3825 338.287 86.4372 335.924 82.6687L334.229 83.7313C336.799 87.8295 340.375 91.0175 344.929 93.2944L345.824 91.5056ZM335.934 82.6855C333.637 78.8563 332.477 74.4709 332.477 69.5H330.477C330.477 74.7958 331.717 79.5437 334.219 83.7145L335.934 82.6855ZM332.477 69.5C332.477 64.3562 333.855 60.0447 336.57 56.509L334.983 55.291C331.965 59.2219 330.477 63.9772 330.477 69.5H332.477ZM336.575 56.5022C339.328 52.8534 342.947 50.0933 347.459 48.2239L346.694 46.3761C341.873 48.3734 337.959 51.3466 334.978 55.2978L336.575 56.5022ZM347.459 48.2239C351.998 46.3436 356.867 45.4 362.077 45.4V43.4C356.619 43.4 351.489 44.3898 346.694 46.3761L347.459 48.2239ZM362.077 45.4C366.089 45.4 369.895 45.7289 373.498 46.3839L373.855 44.4161C370.125 43.7378 366.198 43.4 362.077 43.4V45.4ZM373.518 46.3873C377.194 46.9781 380.237 47.8253 382.668 48.9128L383.485 47.0872C380.849 45.908 377.626 45.0219 373.835 44.4127L373.518 46.3873ZM382.103 47.7695C381.476 50.4201 381.177 54.3487 381.177 59.5H383.177C383.177 54.3847 383.477 50.6466 384.05 48.2305L382.103 47.7695ZM381.77 58.5862C380.757 59.0368 379.219 59.3 377.077 59.3V61.3C379.334 61.3 381.197 61.0298 382.583 60.4138L381.77 58.5862ZM378.075 60.2524C377.866 55.8636 376.421 52.545 373.541 50.5747L372.412 52.2253C374.599 53.7217 375.887 56.3364 376.078 60.3476L378.075 60.2524ZM373.541 50.5747C370.786 48.6895 367.132 47.8 362.677 47.8V49.8C366.888 49.8 370.1 50.6438 372.412 52.2253L373.541 50.5747ZM362.677 47.8C357.953 47.8 353.88 48.6899 350.5 50.5207L351.453 52.2793C354.473 50.6434 358.2 49.8 362.677 49.8V47.8ZM350.493 50.525C347.202 52.3451 344.722 54.8154 343.09 57.9367L344.863 58.8633C346.298 56.1179 348.484 53.9216 351.461 52.275L350.493 50.525ZM343.095 57.9283C341.48 60.9468 340.677 64.2433 340.677 67.8H342.677C342.677 64.5567 343.406 61.5865 344.858 58.8716L343.095 57.9283ZM340.677 67.8C340.677 74.7781 342.493 80.5537 346.206 85.0378L347.747 83.7622C344.393 79.713 342.677 74.4219 342.677 67.8H340.677ZM346.212 85.0449C350.038 89.5785 355.441 91.8 362.277 91.8V89.8C355.912 89.8 351.116 87.7548 347.741 83.7551L346.212 85.0449ZM362.277 91.8C364.35 91.8 365.973 91.7667 367.135 91.6983L367.018 89.7017C365.914 89.7667 364.337 89.8 362.277 89.8V91.8ZM367.135 91.6983C368.346 91.6271 369.583 91.414 370.844 91.0635L370.309 89.1365C369.171 89.4527 368.074 89.6396 367.018 89.7017L367.135 91.6983ZM370.819 91.0701C372.066 90.7585 373.082 90.1394 373.72 89.1369L372.033 88.0631C371.738 88.5272 371.221 88.9081 370.334 89.1299L370.819 91.0701ZM373.74 89.1039C374.347 88.0644 374.577 86.5387 374.577 84.7H372.577C372.577 86.4613 372.34 87.5356 372.013 88.0961L373.74 89.1039ZM374.577 84.7V81.6H372.577V84.7H374.577ZM374.577 81.6C374.577 79.6576 374.416 78.1145 374 77.1154L372.153 77.8846C372.404 78.4855 372.577 79.6757 372.577 81.6H374.577ZM374.01 77.141C373.547 75.9379 372.603 75.172 371.334 74.8338L370.819 76.7662C371.55 76.9613 371.939 77.3288 372.143 77.859L374.01 77.141ZM371.393 74.8513C370.244 74.4684 368.485 74.2675 366.206 74.2004L366.147 76.1996C368.402 76.2659 369.909 76.4649 370.76 76.7487L371.393 74.8513ZM367.125 74.8838C366.771 73.8218 366.577 72.4053 366.577 70.6H364.577C364.577 72.528 364.782 74.1782 365.228 75.5162L367.125 74.8838ZM365.49 71.5962C367.076 71.7341 370.757 71.8 376.477 71.8V69.8C370.729 69.8 367.144 69.7325 365.663 69.6038L365.49 71.5962ZM376.477 71.8C382.123 71.8 385.681 71.7345 387.076 71.595L386.877 69.605C385.605 69.7322 382.164 69.8 376.477 69.8V71.8ZM385.977 70.6C385.977 72.4165 385.813 73.8513 385.513 74.9324L387.44 75.4676C387.806 74.1487 387.977 72.5169 387.977 70.6H385.977ZM386.424 74.2014C385.127 74.2696 384.008 74.4761 383.247 74.952L384.307 76.648C384.612 76.4572 385.292 76.2637 386.529 76.1986L386.424 74.2014ZM383.329 74.9056C382.446 75.3473 381.949 76.1876 381.706 77.1575L383.647 77.6425C383.804 77.0124 384.041 76.786 384.224 76.6944L383.329 74.9056ZM381.712 77.1369C381.474 78.0087 381.377 79.3242 381.377 81H383.377C383.377 79.3425 383.479 78.258 383.641 77.6631L381.712 77.1369ZM381.377 81V83.5H383.377V81H381.377ZM381.377 83.5C381.377 85.0553 381.444 86.3415 381.587 87.3414L383.567 87.0586C383.443 86.1918 383.377 85.0114 383.377 83.5H381.377ZM381.602 87.4249C381.821 88.3737 382.181 89.3739 382.67 90.4229L384.483 89.5771C384.039 88.6261 383.732 87.7596 383.551 86.9751L381.602 87.4249ZM383.032 89.1616C380.475 90.8231 377.246 92.1865 373.319 93.2338L373.834 95.1662C377.907 94.0801 381.344 92.6436 384.122 90.8384L383.032 89.1616ZM373.33 93.2308C369.489 94.2073 365.24 94.7 360.577 94.7V96.7C365.38 96.7 369.797 96.1927 373.823 95.1692L373.33 93.2308ZM444.108 83.3L444.937 82.7405L444.933 82.7348L444.108 83.3ZM449.608 89L449.089 89.8548L449.107 89.8656L449.125 89.8756L449.608 89ZM456.708 90.8H457.708V89.8465L456.755 89.8011L456.708 90.8ZM456.308 95V96H457.046L457.264 95.2941L456.308 95ZM441.908 95.7L441.044 96.2039L441.374 96.7703L442.026 96.693L441.908 95.7ZM439.208 91.5L438.357 92.0247L438.366 92.0399L438.376 92.0547L439.208 91.5ZM434.708 84.2L433.849 84.7125L433.853 84.7186L433.857 84.7247L434.708 84.2ZM424.908 74.1L425.446 73.2575L425.186 73.0908L424.877 73.1005L424.908 74.1ZM421.708 74.2L421.673 75.1994L421.706 75.2005L421.739 75.1995L421.708 74.2ZM418.808 74.1L418.842 73.1006L417.808 73.0649V74.1H418.808ZM419.308 88.1L418.353 88.3983L418.353 88.3983L419.308 88.1ZM420.908 90.3L420.429 91.1779L420.445 91.1864L420.461 91.1944L420.908 90.3ZM424.508 91L425.456 90.6838L425.238 90.0296L424.549 90.0009L424.508 91ZM424.908 95.2L424.854 96.1985L425.908 96.2555V95.2H424.908ZM403.108 95.2H402.108V96.2364L403.144 96.1994L403.108 95.2ZM403.608 91L403.528 90.0032L402.884 90.0547L402.666 90.6637L403.608 91ZM407.308 90.2L406.889 89.292L406.875 89.2986L406.861 89.3056L407.308 90.2ZM409.108 88.1L408.159 87.7838L408.159 87.7838L409.108 88.1ZM408.408 50.8L409.167 50.1492L409.167 50.1492L408.408 50.8ZM403.608 49.2L402.659 49.5162L402.874 50.1608L403.552 50.1985L403.608 49.2ZM403.108 44.8L403.16 43.8014L402.108 43.746V44.8H403.108ZM414.108 45V46.0001L414.122 45.9999L414.108 45ZM421.308 44.9L421.322 45.8999L421.334 45.8997L421.346 45.8993L421.308 44.9ZM443.708 48.4L444.31 47.602L443.708 48.4ZM444.908 67.5L445.615 68.2072L445.624 68.1976L444.908 67.5ZM434.608 72.5L434.415 71.5189L431.866 72.0209L434.093 73.3575L434.608 72.5ZM438.708 76L437.927 76.6247L437.944 76.6462L437.963 76.6668L438.708 76ZM434.408 66.7L434.885 67.5786L434.893 67.5747L434.9 67.5706L434.408 66.7ZM418.808 49.6L418.612 48.6194L417.808 48.7802V49.6H418.808ZM418.808 68.9H417.808V69.7673L418.666 69.8899L418.808 68.9ZM443.279 83.8595C445.125 86.5939 447.055 88.6197 449.089 89.8548L450.127 88.1452C448.428 87.1136 446.691 85.3395 444.937 82.7405L443.279 83.8595ZM449.125 89.8756C451.223 91.0332 453.748 91.6602 456.66 91.7989L456.755 89.8011C454.068 89.6732 451.859 89.1001 450.091 88.1244L449.125 89.8756ZM455.708 90.8C455.708 92.72 455.572 93.9918 455.352 94.7059L457.264 95.2941C457.577 94.2748 457.708 92.7466 457.708 90.8H455.708ZM456.308 94C450.617 94 445.775 94.2342 441.79 94.707L442.026 96.693C445.907 96.2325 450.665 96 456.308 96V94ZM442.772 95.1961C442.288 94.3669 441.372 92.9439 440.04 90.9453L438.376 92.0547C439.71 94.0561 440.594 95.4331 441.044 96.2039L442.772 95.1961ZM440.059 90.9753L435.559 83.6753L433.857 84.7247L438.357 92.0247L440.059 90.9753ZM435.567 83.6875C433.02 79.4204 429.644 75.9409 425.446 73.2575L424.369 74.9425C428.305 77.4591 431.462 80.7129 433.849 84.7125L435.567 83.6875ZM424.877 73.1005L421.677 73.2005L421.739 75.1995L424.939 75.0995L424.877 73.1005ZM421.742 73.2006L418.842 73.1006L418.773 75.0994L421.673 75.1994L421.742 73.2006ZM417.808 74.1V83.2H419.808V74.1H417.808ZM417.808 83.2C417.808 85.4231 417.973 87.1815 418.353 88.3983L420.262 87.8017C419.976 86.8852 419.808 85.3769 419.808 83.2H417.808ZM418.353 88.3983C418.737 89.6267 419.4 90.6164 420.429 91.1779L421.387 89.4221C420.949 89.1836 420.545 88.7067 420.262 87.8017L418.353 88.3983ZM420.461 91.1944C421.45 91.6893 422.819 91.9305 424.466 91.9991L424.549 90.0009C422.996 89.9362 421.965 89.7107 421.355 89.4056L420.461 91.1944ZM423.559 91.3162C423.769 91.947 423.908 93.2004 423.908 95.2H425.908C425.908 93.1996 425.78 91.653 425.456 90.6838L423.559 91.3162ZM424.962 94.2015C422.467 94.0666 418.812 94 414.008 94V96C418.803 96 422.415 96.0667 424.854 96.1985L424.962 94.2015ZM414.008 94C410.462 94 406.817 94.0669 403.072 94.2006L403.144 96.1994C406.866 96.0664 410.487 96 414.008 96V94ZM404.108 95.2C404.108 93.3653 404.275 92.1045 404.55 91.3363L402.666 90.6637C402.274 91.7621 402.108 93.3014 402.108 95.2H404.108ZM403.688 91.9968C405.391 91.8606 406.78 91.5821 407.755 91.0944L406.861 89.3056C406.236 89.6179 405.158 89.8728 403.528 90.0032L403.688 91.9968ZM407.727 91.108C408.872 90.5795 409.646 89.6478 410.056 88.4162L408.159 87.7838C407.903 88.5522 407.477 89.0205 406.889 89.292L407.727 91.108ZM410.056 88.4162C410.442 87.2599 410.608 85.6292 410.608 83.6H408.608C408.608 85.5708 408.44 86.9401 408.159 87.7838L410.056 88.4162ZM410.608 83.6V56.5H408.608V83.6H410.608ZM410.608 56.5C410.608 55.0269 410.506 53.7605 410.286 52.719C410.07 51.6907 409.722 50.7966 409.167 50.1492L407.649 51.4508C407.894 51.7367 408.146 52.2593 408.329 53.131C408.51 53.9895 408.608 55.1065 408.608 56.5H410.608ZM409.167 50.1492C408.081 48.8827 406.106 48.3372 403.663 48.2015L403.552 50.1985C405.91 50.3294 407.134 50.8506 407.649 51.4508L409.167 50.1492ZM404.556 48.8838C404.275 48.0379 404.108 46.6998 404.108 44.8H402.108C402.108 46.7669 402.274 48.3621 402.659 49.5162L404.556 48.8838ZM403.055 45.7986C405.615 45.9334 409.303 46 414.108 46V44C409.313 44 405.667 43.9333 403.16 43.8014L403.055 45.7986ZM414.122 45.9999L421.322 45.8999L421.294 43.9001L414.094 44.0001L414.122 45.9999ZM421.346 45.8993C424.81 45.7661 427.427 45.7 429.208 45.7V43.7C427.388 43.7 424.739 43.7673 421.269 43.9007L421.346 45.8993ZM429.208 45.7C435.505 45.7 440.086 46.9179 443.105 49.198L444.31 47.602C440.797 44.9488 435.711 43.7 429.208 43.7V45.7ZM443.105 49.198C446.139 51.4886 447.608 54.3678 447.608 57.9H449.608C449.608 53.6989 447.81 50.2447 444.31 47.602L443.105 49.198ZM447.608 57.9C447.608 61.5328 446.458 64.4741 444.191 66.8024L445.624 68.1976C448.291 65.4593 449.608 62.0005 449.608 57.9H447.608ZM444.201 66.7929C441.909 69.0841 438.675 70.6797 434.415 71.5189L434.801 73.4811C439.341 72.587 442.973 70.8492 445.615 68.2071L444.201 66.7929ZM434.093 73.3575C435.672 74.3047 436.944 75.3961 437.927 76.6247L439.489 75.3753C438.338 73.9373 436.877 72.6953 435.122 71.6425L434.093 73.3575ZM437.963 76.6668C439.047 77.8793 440.814 80.2626 443.283 83.8652L444.933 82.7348C442.468 79.1374 440.635 76.654 439.453 75.3332L437.963 76.6668ZM422.608 70.2C427.515 70.2 431.627 69.3492 434.885 67.5786L433.93 65.8214C431.055 67.3841 427.301 68.2 422.608 68.2V70.2ZM434.9 67.5706C438.25 65.6768 440.008 62.8605 440.008 59.2H438.008C438.008 62.0728 436.699 64.2565 433.916 65.8294L434.9 67.5706ZM440.008 59.2C440.008 55.5449 438.736 52.665 436.097 50.7418C433.516 48.8614 429.766 48 425.008 48V50C429.583 50 432.833 50.8386 434.919 52.3582C436.946 53.835 438.008 56.0551 438.008 59.2H440.008ZM425.008 48C422.812 48 420.679 48.2059 418.612 48.6194L419.004 50.5806C420.936 50.1941 422.937 50 425.008 50V48ZM417.808 49.6V68.9H419.808V49.6H417.808ZM418.666 69.8899C420.102 70.0951 421.417 70.2 422.608 70.2V68.2C421.532 68.2 420.313 68.1049 418.949 67.91L418.666 69.8899ZM519.928 90.7L520.877 90.3838L520.672 89.7694L520.028 89.705L519.928 90.7ZM520.428 95.2L520.378 96.1988L521.428 96.2512V95.2H520.428ZM499.528 95.2H498.528V96.2512L499.578 96.1988L499.528 95.2ZM500.128 90.7L499.999 89.7084L499.434 89.7821L499.209 90.3061L500.128 90.7ZM503.328 89.9L503.814 90.7742L503.828 90.7661L503.843 90.7575L503.328 89.9ZM503.328 85.1L504.239 84.6862L504.235 84.6783L503.328 85.1ZM501.328 80.8L502.235 80.3783L501.966 79.8H501.328V80.8ZM478.628 81.3L478.568 80.3018L477.949 80.3391L477.707 80.9104L478.628 81.3ZM477.528 83.9L478.445 84.2987L478.449 84.2896L477.528 83.9ZM480.628 90.7L481.577 90.3838L481.371 89.7678L480.725 89.7047L480.628 90.7ZM481.228 95.2L481.176 96.1986L482.228 96.254V95.2H481.228ZM465.828 95.2H464.828V96.2645L465.891 96.1981L465.828 95.2ZM466.428 90.7L466.249 89.7161L465.637 89.8274L465.467 90.4253L466.428 90.7ZM469.828 88.9L470.587 89.5508L470.598 89.5379L470.609 89.5247L469.828 88.9ZM473.028 83L473.938 83.4138L473.94 83.4115L473.028 83ZM490.228 44.9L490.022 43.9214L489.526 44.026L489.317 44.4885L490.228 44.9ZM494.228 44.5L495.129 44.066L494.856 43.5H494.228V44.5ZM512.628 82.7L513.53 82.2685L513.529 82.266L512.628 82.7ZM516.328 88.9L515.599 89.5839L515.61 89.5957L515.621 89.6071L516.328 88.9ZM499.328 76.7V77.7H500.912L500.231 76.2701L499.328 76.7ZM493.328 64.1L494.231 63.67L494.226 63.6596L493.328 64.1ZM489.728 55.7L490.68 55.393L489.724 52.4308L488.776 55.3952L489.728 55.7ZM487.728 60.7L486.827 60.2673L486.823 60.2753L486.819 60.2833L487.728 60.7ZM486.328 63.7L485.434 63.2528L485.422 63.2753L485.412 63.2984L486.328 63.7ZM480.628 76.7L479.712 76.2984L479.098 77.7H480.628V76.7ZM518.979 91.0162C519.261 91.8599 519.428 93.2292 519.428 95.2H521.428C521.428 93.1708 521.262 91.5401 520.877 90.3838L518.979 91.0162ZM520.478 94.2012C517.788 94.0668 514.337 94 510.128 94V96C514.32 96 517.735 96.0666 520.378 96.1988L520.478 94.2012ZM510.128 94C505.721 94 502.169 94.0667 499.478 94.2012L499.578 96.1988C502.221 96.0666 505.736 96 510.128 96V94ZM500.528 95.2C500.528 93.1575 500.732 91.8303 501.047 91.0939L499.209 90.3061C498.725 91.4364 498.528 93.1092 498.528 95.2H500.528ZM500.257 91.6916C501.798 91.4906 503.033 91.2078 503.814 90.7742L502.842 89.0258C502.423 89.2588 501.525 89.5094 499.999 89.7084L500.257 91.6916ZM503.843 90.7575C504.788 90.19 505.328 89.3096 505.328 88.2H503.328C503.328 88.5571 503.201 88.81 502.814 89.0425L503.843 90.7575ZM505.328 88.2C505.328 87.7435 505.207 87.2173 505.03 86.668C504.847 86.1022 504.581 85.4394 504.238 84.6862L502.418 85.5138C502.742 86.2273 502.976 86.8145 503.126 87.282C503.283 87.766 503.328 88.0565 503.328 88.2H505.328ZM504.235 84.6783L502.235 80.3783L500.421 81.2217L502.421 85.5217L504.235 84.6783ZM501.328 79.8C491.72 79.8 484.131 79.9667 478.568 80.3018L478.688 82.2982C484.192 81.9666 491.736 81.8 501.328 81.8V79.8ZM477.707 80.9104L476.607 83.5104L478.449 84.2896L479.549 81.6896L477.707 80.9104ZM476.611 83.5013C475.931 85.0652 475.528 86.4207 475.528 87.5H477.528C477.528 86.846 477.792 85.8015 478.445 84.2987L476.611 83.5013ZM475.528 87.5C475.528 88.7141 475.991 89.7493 476.938 90.4883C477.834 91.1881 479.076 91.5533 480.531 91.6953L480.725 89.7047C479.447 89.58 478.639 89.2786 478.168 88.9117C477.749 88.584 477.528 88.1526 477.528 87.5H475.528ZM479.679 91.0162C480.034 92.0811 480.228 93.4659 480.228 95.2H482.228C482.228 93.3341 482.022 91.7189 481.577 90.3838L479.679 91.0162ZM481.281 94.2014C478.727 94.067 475.943 94 472.928 94V96C475.914 96 478.663 96.0664 481.176 96.1986L481.281 94.2014ZM472.928 94C470.312 94 467.924 94.0671 465.766 94.2019L465.891 96.1981C467.999 96.0663 470.345 96 472.928 96V94ZM466.828 95.2C466.828 93.6838 467.018 92.277 467.39 90.9747L465.467 90.4253C465.039 91.923 464.828 93.5162 464.828 95.2H466.828ZM466.607 91.6839C468.25 91.3852 469.608 90.6934 470.587 89.5508L469.069 88.2492C468.448 88.9733 467.54 89.4815 466.249 89.7161L466.607 91.6839ZM470.609 89.5247C471.496 88.4158 472.607 86.3427 473.938 83.4138L472.118 82.5862C470.782 85.524 469.76 87.3842 469.047 88.2753L470.609 89.5247ZM473.94 83.4115L491.14 45.3115L489.317 44.4885L472.117 82.5885L473.94 83.4115ZM490.434 45.8785C491.628 45.6272 492.892 45.5 494.228 45.5V43.5C492.764 43.5 491.362 43.6394 490.022 43.9214L490.434 45.8785ZM493.327 44.934L511.727 83.134L513.529 82.266L495.129 44.066L493.327 44.934ZM511.726 83.1315C513.194 86.2008 514.483 88.3939 515.599 89.5839L517.058 88.2161C516.173 87.2727 514.996 85.3325 513.53 82.2685L511.726 83.1315ZM515.621 89.6071C516.829 90.8152 518.237 91.5358 519.829 91.695L520.028 89.705C518.953 89.5975 517.96 89.1181 517.035 88.1929L515.621 89.6071ZM500.231 76.2701L494.231 63.6701L492.425 64.5299L498.425 77.1299L500.231 76.2701ZM494.226 63.6596C492.5 60.1407 491.324 57.3913 490.68 55.393L488.776 56.007C489.465 58.1421 490.69 60.9926 492.43 64.5404L494.226 63.6596ZM488.776 55.3952C488.257 57.0157 487.608 58.6397 486.827 60.2673L488.63 61.1327C489.448 59.4269 490.132 57.7176 490.681 56.0048L488.776 55.3952ZM486.819 60.2833C486.083 61.8889 485.624 62.8713 485.434 63.2528L487.223 64.1472C487.432 63.7287 487.906 62.7111 488.637 61.1167L486.819 60.2833ZM485.412 63.2984L479.712 76.2984L481.544 77.1016L487.244 64.1016L485.412 63.2984ZM480.628 77.7H499.328V75.7H480.628V77.7ZM563.602 70.4L562.995 69.6056L562.989 69.61L562.983 69.6145L563.602 70.4ZM563.402 52.8L562.706 53.5173L562.716 53.5274L562.727 53.5372L563.402 52.8ZM548.202 50L547.969 49.0276L547.202 49.2116V50H548.202ZM550.002 88.7L549.295 89.4071L550.002 88.7ZM556.202 90.7L557.151 90.3838L556.934 89.7322L556.248 89.701L556.202 90.7ZM556.702 95.2L556.667 96.1994L557.702 96.2364V95.2H556.702ZM532.502 95.2H531.502V96.2408L532.542 96.1992L532.502 95.2ZM533.002 90.7L532.945 89.7016L532.284 89.7394L532.061 90.3637L533.002 90.7ZM537.702 89.1L536.947 88.4451L536.943 88.4492L537.702 89.1ZM538.502 52.2L539.451 51.8838L539.451 51.8838L538.502 52.2ZM536.702 50.1L536.255 50.9944L536.269 51.0014L536.283 51.008L536.702 50.1ZM533.002 49.3L532.054 49.6162L532.263 50.244L532.923 50.2968L533.002 49.3ZM532.502 44.8L532.524 43.8002L531.502 43.7785V44.8H532.502ZM544.802 45V46H544.811L544.819 45.9999L544.802 45ZM556.802 44.8V43.8H556.794L556.786 43.8001L556.802 44.8ZM571.902 49.1L572.57 48.3552L572.57 48.3552L571.902 49.1ZM574.402 68.9L575.269 69.3985L575.269 69.3985L574.402 68.9ZM567.502 75.3L567.04 74.4134L567.032 74.4176L567.502 75.3ZM550.502 77L549.512 77.1414L549.601 77.7627L550.199 77.9529L550.502 77ZM550.602 72.7L550.798 71.7194L549.933 71.5463L549.654 72.3838L550.602 72.7ZM555.002 74C558.7 74 561.803 73.0907 564.221 71.1855L562.983 69.6145C561.002 71.1759 558.371 72 555.002 72V74ZM564.21 71.1944C566.813 69.2036 568.002 65.9787 568.002 61.8H566.002C566.002 65.6213 564.925 68.1297 562.995 69.6056L564.21 71.1944ZM568.002 61.8C568.002 57.771 566.72 54.4843 564.078 52.0628L562.727 53.5372C564.885 55.5156 566.002 58.229 566.002 61.8H568.002ZM564.099 52.0827C561.504 49.5622 557.602 48.4 552.602 48.4V50.4C557.336 50.4 560.634 51.5045 562.706 53.5173L564.099 52.0827ZM552.602 48.4C551.235 48.4 549.687 48.6152 547.969 49.0276L548.436 50.9724C550.051 50.5847 551.436 50.4 552.602 50.4V48.4ZM547.202 50V82.2H549.202V50H547.202ZM547.202 82.2C547.202 85.396 547.801 87.9133 549.295 89.4071L550.709 87.9929C549.803 87.0867 549.202 85.2707 549.202 82.2H547.202ZM549.295 89.4071C550.762 90.874 553.141 91.5619 556.157 91.699L556.248 89.701C553.397 89.5714 551.643 88.926 550.709 87.9929L549.295 89.4071ZM555.254 91.0162C555.535 91.8599 555.702 93.2292 555.702 95.2H557.702C557.702 93.1708 557.536 91.5401 557.151 90.3838L555.254 91.0162ZM556.738 94.2006C552.992 94.0669 549.113 94 545.102 94V96C549.091 96 552.946 96.0665 556.667 96.1994L556.738 94.2006ZM545.102 94C540.028 94 535.814 94.0667 532.462 94.2008L532.542 96.1992C535.857 96.0666 540.043 96 545.102 96V94ZM533.502 95.2C533.502 93.1512 533.672 91.7978 533.944 91.0363L532.061 90.3637C531.666 91.4688 531.502 93.1155 531.502 95.2H533.502ZM533.059 91.6984C535.445 91.562 537.38 91.0126 538.462 89.7508L536.943 88.4492C536.425 89.054 535.226 89.5713 532.945 89.7016L533.059 91.6984ZM538.458 89.7549C539.04 89.0831 539.417 88.1728 539.653 87.1187C539.891 86.0562 540.002 84.7773 540.002 83.3H538.002C538.002 84.6893 537.897 85.8105 537.702 86.6813C537.504 87.5605 537.231 88.1169 536.947 88.4451L538.458 89.7549ZM540.002 83.3V56.6H538.002V83.3H540.002ZM540.002 56.6C540.002 54.6331 539.836 53.0379 539.451 51.8838L537.554 52.5162C537.836 53.3621 538.002 54.7002 538.002 56.6H540.002ZM539.451 51.8838C539.04 50.6522 538.266 49.7205 537.121 49.192L536.283 51.008C536.872 51.2795 537.298 51.7478 537.554 52.5162L539.451 51.8838ZM537.15 49.2056C536.174 48.7179 534.785 48.4394 533.082 48.3032L532.923 50.2968C534.553 50.4272 535.631 50.6821 536.255 50.9944L537.15 49.2056ZM533.951 48.9838C533.67 48.1401 533.502 46.7708 533.502 44.8H531.502C531.502 46.8292 531.668 48.4599 532.054 49.6162L533.951 48.9838ZM532.481 45.7998C538.745 45.9331 542.856 46 544.802 46V44C542.882 44 538.793 43.9336 532.524 43.8002L532.481 45.7998ZM544.819 45.9999L556.819 45.7999L556.786 43.8001L544.786 44.0001L544.819 45.9999ZM556.802 45.8C563.562 45.8 568.301 47.2164 571.235 49.8448L572.57 48.3552C569.104 45.2502 563.776 43.8 556.802 43.8V45.8ZM571.235 49.8448C574.214 52.5134 575.702 55.9048 575.702 60.1H577.702C577.702 55.3619 575.991 51.4199 572.57 48.3552L571.235 49.8448ZM575.702 60.1C575.702 63.1324 574.978 65.8928 573.535 68.4015L575.269 69.3985C576.893 66.5739 577.702 63.4676 577.702 60.1H575.702ZM573.535 68.4015C572.109 70.8829 569.959 72.8903 567.04 74.4134L567.965 76.1866C571.179 74.5097 573.629 72.2504 575.269 69.3985L573.535 68.4015ZM567.032 74.4176C564.209 75.9232 560.746 76.7 556.602 76.7V78.7C560.992 78.7 564.796 77.8768 567.973 76.1824L567.032 74.4176ZM556.602 76.7C554.045 76.7 552.13 76.4684 550.806 76.0471L550.199 77.9529C551.808 78.465 553.96 78.7 556.602 78.7V76.7ZM551.492 76.8586C551.36 75.935 551.302 75.2927 551.302 74.9H549.302C549.302 75.4406 549.378 76.1984 549.512 77.1414L551.492 76.8586ZM551.302 74.9C551.302 74.1039 551.395 73.4843 551.551 73.0162L549.654 72.3838C549.41 73.1157 549.302 73.9628 549.302 74.9H551.302ZM550.406 73.6806C551.505 73.9003 553.051 74 555.002 74V72C553.087 72 551.7 71.8997 550.798 71.7194L550.406 73.6806ZM641.827 89.4L641.046 90.0247L641.069 90.0535L641.094 90.0805L641.827 89.4ZM646.627 91L647.55 90.6154L647.309 90.0374L646.684 90.0016L646.627 91ZM647.127 95.2L647.097 96.1996L648.127 96.2298V95.2H647.127ZM624.927 95.2H623.927V96.2328L624.959 96.1995L624.927 95.2ZM625.427 91L625.37 90.0016L624.744 90.0374L624.503 90.6154L625.427 91ZM630.127 89.4L629.371 88.7451L629.367 88.7492L630.127 89.4ZM631.427 71.4H632.427V70.4H631.427V71.4ZM605.527 71.9L605.452 70.9028L604.527 70.9718V71.9H605.527ZM606.727 89.4L605.946 90.0247L605.969 90.0535L605.994 90.0805L606.727 89.4ZM611.627 91L612.582 90.7059L612.377 90.0402L611.682 90.0015L611.627 91ZM612.027 95.2L611.997 96.1996L613.027 96.2298V95.2H612.027ZM589.827 95.2H588.827V96.2328L589.859 96.1995L589.827 95.2ZM590.327 91L590.247 90.0032L589.638 90.0519L589.403 90.6154L590.327 91ZM594.027 90.2L593.608 89.292L593.593 89.2986L593.579 89.3056L594.027 90.2ZM595.827 88.1L594.878 87.7838L594.878 87.7838L595.827 88.1ZM595.827 51.9L596.775 51.5838L596.775 51.5838L595.827 51.9ZM594.027 49.8L593.579 50.6944L593.593 50.7014L593.608 50.708L594.027 49.8ZM590.327 49L589.385 49.3363L589.602 49.9453L590.247 49.9968L590.327 49ZM589.827 44.8L589.858 43.8005L588.827 43.7683V44.8H589.827ZM612.027 44.8H613.027V43.771L611.998 43.8004L612.027 44.8ZM611.627 49L611.682 49.9985L612.377 49.9598L612.582 49.2941L611.627 49ZM606.727 50.6L605.994 49.9195L605.98 49.9341L605.967 49.9492L606.727 50.6ZM605.527 67H604.527V68H605.527V67ZM631.427 67V68H632.427V67H631.427ZM630.827 51.9L629.878 52.2162L629.887 52.2441L629.898 52.2714L630.827 51.9ZM629.027 49.8L628.579 50.6944L628.593 50.7014L628.608 50.708L629.027 49.8ZM625.327 49L624.36 49.2577L624.542 49.9405L625.247 49.9968L625.327 49ZM624.927 44.8L624.958 43.8005L623.927 43.7683V44.8H624.927ZM647.127 44.8H648.127V43.771L647.098 43.8004L647.127 44.8ZM646.627 49L646.682 49.9985L647.374 49.96L647.581 49.2983L646.627 49ZM641.827 50.6L641.067 49.9492L641.067 49.9492L641.827 50.6ZM639.627 83.6C639.627 85.0738 639.729 86.3468 639.947 87.4026C640.164 88.4478 640.508 89.3528 641.046 90.0247L642.607 88.7753C642.345 88.4472 642.09 87.8855 641.906 86.9974C641.724 86.1199 641.627 84.9929 641.627 83.6H639.627ZM641.094 90.0805C642.234 91.3088 644.172 91.8614 646.57 91.9984L646.684 90.0016C644.414 89.872 643.152 89.3578 642.559 88.7195L641.094 90.0805ZM645.703 91.3846C645.953 91.9833 646.127 93.2037 646.127 95.2H648.127C648.127 93.1963 647.967 91.6167 647.55 90.6154L645.703 91.3846ZM647.156 94.2004C642.618 94.067 638.94 94 636.127 94V96C638.913 96 642.568 96.0664 647.097 96.1996L647.156 94.2004ZM636.127 94C632.78 94 629.036 94.0669 624.894 94.2005L624.959 96.1995C629.084 96.0664 632.806 96 636.127 96V94ZM625.927 95.2C625.927 93.2037 626.1 91.9833 626.35 91.3846L624.503 90.6154C624.086 91.6167 623.927 93.1963 623.927 95.2H625.927ZM625.484 91.9984C627.869 91.862 629.804 91.3126 630.886 90.0508L629.367 88.7492C628.849 89.354 627.65 89.8713 625.37 90.0016L625.484 91.9984ZM630.882 90.0549C631.465 89.3831 631.841 88.4728 632.077 87.4187C632.316 86.3562 632.427 85.0773 632.427 83.6H630.427C630.427 84.9893 630.321 86.1105 630.126 86.9813C629.929 87.8605 629.655 88.4169 629.371 88.7451L630.882 90.0549ZM632.427 83.6V71.4H630.427V83.6H632.427ZM631.427 70.4C618.631 70.4 609.962 70.5662 605.452 70.9028L605.601 72.8972C610.025 72.5671 618.622 72.4 631.427 72.4V70.4ZM604.527 71.9V83.6H606.527V71.9H604.527ZM604.527 83.6C604.527 85.0738 604.629 86.3468 604.847 87.4026C605.064 88.4478 605.408 89.3528 605.946 90.0247L607.507 88.7753C607.245 88.4472 606.99 87.8855 606.806 86.9974C606.624 86.1199 606.527 84.9929 606.527 83.6H604.527ZM605.994 90.0805C607.138 91.3132 609.116 91.8621 611.571 91.9985L611.682 90.0015C609.337 89.8712 608.048 89.3534 607.459 88.7195L605.994 90.0805ZM610.671 91.2941C610.891 92.0082 611.027 93.28 611.027 95.2H613.027C613.027 93.2534 612.896 91.7252 612.582 90.7059L610.671 91.2941ZM612.056 94.2004C607.518 94.067 603.84 94 601.027 94V96C603.813 96 607.468 96.0664 611.997 96.1996L612.056 94.2004ZM601.027 94C597.68 94 593.936 94.0669 589.794 94.2005L589.859 96.1995C593.984 96.0664 597.706 96 601.027 96V94ZM590.827 95.2C590.827 93.2037 591 91.9833 591.25 91.3846L589.403 90.6154C588.986 91.6167 588.827 93.1963 588.827 95.2H590.827ZM590.406 91.9968C592.109 91.8606 593.498 91.5821 594.474 91.0944L593.579 89.3056C592.955 89.6179 591.877 89.8728 590.247 90.0032L590.406 91.9968ZM594.446 91.108C595.591 90.5795 596.365 89.6478 596.775 88.4162L594.878 87.7838C594.622 88.5522 594.196 89.0205 593.608 89.292L594.446 91.108ZM596.775 88.4162C597.161 87.2599 597.327 85.6292 597.327 83.6H595.327C595.327 85.5708 595.159 86.9401 594.878 87.7838L596.775 88.4162ZM597.327 83.6V56.3H595.327V83.6H597.327ZM597.327 56.3C597.327 54.3331 597.16 52.7379 596.775 51.5838L594.878 52.2162C595.16 53.0621 595.327 54.4002 595.327 56.3H597.327ZM596.775 51.5838C596.365 50.3522 595.591 49.4205 594.446 48.892L593.608 50.708C594.196 50.9795 594.622 51.4478 594.878 52.2162L596.775 51.5838ZM594.474 48.9056C593.498 48.4179 592.109 48.1394 590.406 48.0032L590.247 49.9968C591.877 50.1272 592.955 50.3821 593.579 50.6944L594.474 48.9056ZM591.268 48.6637C590.994 47.8955 590.827 46.6347 590.827 44.8H588.827C588.827 46.6986 588.993 48.2379 589.385 49.3363L591.268 48.6637ZM589.795 45.7995C594.069 45.9331 597.813 46 601.027 46V44C597.84 44 594.117 43.9336 589.858 43.8005L589.795 45.7995ZM601.027 46C603.707 46 607.385 45.933 612.055 45.7996L611.998 43.8004C607.335 43.9336 603.679 44 601.027 44V46ZM611.027 44.8C611.027 46.72 610.891 47.9918 610.671 48.7059L612.582 49.2941C612.896 48.2748 613.027 46.7466 613.027 44.8H611.027ZM611.571 48.0015C609.116 48.1379 607.138 48.6868 605.994 49.9195L607.459 51.2804C608.048 50.6466 609.337 50.1287 611.682 49.9985L611.571 48.0015ZM605.967 49.9492C605.412 50.5966 605.065 51.4907 604.848 52.519C604.629 53.5605 604.527 54.8269 604.527 56.3H606.527C606.527 54.9065 606.624 53.7895 606.805 52.931C606.989 52.0593 607.241 51.5367 607.486 51.2508L605.967 49.9492ZM604.527 56.3V67H606.527V56.3H604.527ZM605.527 68H631.427V66H605.527V68ZM632.427 67V56.3H630.427V67H632.427ZM632.427 56.3C632.427 54.3243 632.226 52.7059 631.755 51.5286L629.898 52.2714C630.227 53.0941 630.427 54.4091 630.427 56.3H632.427ZM631.775 51.5838C631.365 50.3522 630.591 49.4205 629.446 48.892L628.608 50.708C629.196 50.9795 629.622 51.4478 629.878 52.2162L631.775 51.5838ZM629.474 48.9056C628.498 48.4179 627.109 48.1394 625.406 48.0032L625.247 49.9968C626.877 50.1272 627.955 50.3821 628.579 50.6944L629.474 48.9056ZM626.293 48.7423C626.059 47.8661 625.927 46.5669 625.927 44.8H623.927C623.927 46.6331 624.061 48.1339 624.36 49.2577L626.293 48.7423ZM624.895 45.7995C629.169 45.9331 632.88 46 636.027 46V44C632.907 44 629.217 43.9336 624.958 43.8005L624.895 45.7995ZM636.027 46C638.774 46 642.485 45.933 647.155 45.7996L647.098 43.8004C642.435 43.9336 638.746 44 636.027 44V46ZM646.127 44.8C646.127 46.4814 645.963 47.7694 645.672 48.7017L647.581 49.2983C647.956 48.0972 648.127 46.5853 648.127 44.8H646.127ZM646.571 48.0015C644.129 48.1372 642.153 48.6827 641.067 49.9492L642.586 51.2508C643.1 50.6506 644.325 50.1294 646.682 49.9985L646.571 48.0015ZM641.067 49.9492C640.512 50.5966 640.165 51.4907 639.948 52.519C639.729 53.5605 639.627 54.8269 639.627 56.3H641.627C641.627 54.9065 641.724 53.7895 641.905 52.931C642.089 52.0593 642.341 51.5367 642.586 51.2508L641.067 49.9492ZM639.627 56.3V83.6H641.627V56.3H639.627ZM710.488 44.8H711.488V43.7512L710.44 43.8011L710.488 44.8ZM710.088 49.2L710.245 50.1874L710.897 50.0831L711.058 49.4425L710.088 49.2ZM705.488 51.2L706.069 52.0137L706.081 52.0048L706.094 51.9954L705.488 51.2ZM701.588 56.2L700.698 55.7426L700.697 55.7452L701.588 56.2ZM689.688 79.5L688.797 79.0452L688.688 79.2594V79.5H689.688ZM690.088 87.3L689.114 87.529L689.12 87.5558L689.128 87.5822L690.088 87.3ZM696.588 90.7L697.552 90.4369L697.37 89.769L696.681 89.7044L696.588 90.7ZM697.188 95.2L697.163 96.1997L698.188 96.2253V95.2H697.188ZM672.588 95.2H671.588V96.2364L672.623 96.1994L672.588 95.2ZM673.188 90.7L673.102 89.7037L672.435 89.7608L672.234 90.3989L673.188 90.7ZM678.088 89.8L678.481 90.7191L678.481 90.7191L678.088 89.8ZM679.988 87.6L680.942 87.8983L680.944 87.8902L680.947 87.8822L679.988 87.6ZM680.488 79.6H681.488V79.3431L681.364 79.1181L680.488 79.6ZM666.188 53.6L667.064 53.1181L667.05 53.0936L667.035 53.07L666.188 53.6ZM663.288 50.3L662.718 51.1222L662.732 51.1319L662.747 51.1412L663.288 50.3ZM659.688 49.3L658.724 49.5676L658.918 50.2675L659.644 50.2991L659.688 49.3ZM659.188 44.8L659.226 43.8007L658.188 43.7608V44.8H659.188ZM680.988 44.8H681.988V43.726L680.916 43.8025L680.988 44.8ZM680.588 49.2L680.678 50.1959L681.414 50.129L681.566 49.406L680.588 49.2ZM677.388 50L677.902 50.8575L677.902 50.8575L677.388 50ZM677.788 55.3L678.646 54.7874L678.642 54.7801L677.788 55.3ZM687.988 74.7L687.089 75.1387L688.019 77.0435L688.898 75.1146L687.988 74.7ZM697.488 55.6L696.613 55.1144L696.609 55.1214L696.606 55.1285L697.488 55.6ZM697.988 50L697.502 50.8742L697.521 50.8847L697.54 50.8944L697.988 50ZM694.888 49.3L693.925 49.5696L694.11 50.2335L694.797 50.2959L694.888 49.3ZM694.188 44.8L694.274 43.8038L693.188 43.7093V44.8H694.188ZM702.888 46C705.173 46 707.723 45.9328 710.535 45.7989L710.44 43.8011C707.652 43.9339 705.135 44 702.888 44V46ZM709.488 44.8C709.488 46.6332 709.355 48.0062 709.117 48.9575L711.058 49.4425C711.353 48.2604 711.488 46.7001 711.488 44.8H709.488ZM709.93 48.2126C708.093 48.5064 706.407 49.2423 704.881 50.4046L706.094 51.9954C707.368 51.0243 708.749 50.4269 710.245 50.1874L709.93 48.2126ZM704.906 50.3863C703.326 51.5148 701.936 53.3355 700.698 55.7427L702.477 56.6573C703.639 54.3979 704.849 52.8852 706.069 52.0137L704.906 50.3863ZM700.697 55.7452L688.797 79.0452L690.578 79.9548L702.478 56.6548L700.697 55.7452ZM688.688 79.5V81.6H690.688V79.5H688.688ZM688.688 81.6C688.688 84.2708 688.819 86.2729 689.114 87.529L691.061 87.071C690.823 86.0605 690.688 84.2625 690.688 81.6H688.688ZM689.128 87.5822C689.528 88.9431 690.325 89.9866 691.54 90.5944L692.435 88.8056C691.784 88.48 691.313 87.9236 691.047 87.0178L689.128 87.5822ZM691.54 90.5944C692.649 91.1488 694.34 91.4937 696.494 91.6956L696.681 89.7044C694.569 89.5063 693.193 89.1845 692.435 88.8056L691.54 90.5944ZM695.623 90.9631C695.999 92.3433 696.188 93.7548 696.188 95.2H698.188C698.188 93.5786 697.976 91.99 697.552 90.4369L695.623 90.9631ZM697.212 94.2003C691.878 94.0669 687.901 94 685.288 94V96C687.874 96 691.831 96.0664 697.163 96.1997L697.212 94.2003ZM685.288 94C680.545 94 676.3 94.0668 672.552 94.2006L672.623 96.1994C676.342 96.0665 680.563 96 685.288 96V94ZM673.588 95.2C673.588 93.5395 673.78 92.1459 674.141 91.0011L672.234 90.3989C671.795 91.7874 671.588 93.3938 671.588 95.2H673.588ZM673.273 91.6963C675.61 91.496 677.387 91.1883 678.481 90.7191L677.694 88.8809C676.922 89.2117 675.431 89.504 673.102 89.7037L673.273 91.6963ZM678.481 90.7191C679.712 90.1916 680.531 89.2122 680.942 87.8983L679.033 87.3017C678.777 88.1211 678.329 88.6084 677.694 88.8809L678.481 90.7191ZM680.947 87.8822C681.324 86.6005 681.488 84.6092 681.488 82H679.488C679.488 84.5908 679.318 86.3328 679.028 87.3178L680.947 87.8822ZM681.488 82V79.6H679.488V82H681.488ZM681.364 79.1181L667.064 53.1181L665.311 54.0819L679.611 80.0819L681.364 79.1181ZM667.035 53.07C666.005 51.4208 664.944 50.1759 663.828 49.4588L662.747 51.1412C663.498 51.6241 664.37 52.5792 665.34 54.13L667.035 53.07ZM663.857 49.4778C662.78 48.7321 661.372 48.3723 659.731 48.3009L659.644 50.2991C661.07 50.3611 662.062 50.6679 662.718 51.1222L663.857 49.4778ZM660.651 49.0324C660.35 47.9488 660.188 46.546 660.188 44.8H658.188C658.188 46.654 658.358 48.2512 658.724 49.5676L660.651 49.0324ZM659.149 45.7993C662.627 45.933 665.873 46 668.888 46V44C665.902 44 662.682 43.9337 659.226 43.8007L659.149 45.7993ZM668.888 46C675.079 46 679.15 45.9338 681.059 45.7975L680.916 43.8025C679.092 43.9328 675.096 44 668.888 44V46ZM679.988 44.8C679.988 46.4161 679.858 47.8112 679.609 48.994L681.566 49.406C681.85 48.0555 681.988 46.5172 681.988 44.8H679.988ZM680.497 48.2041C678.991 48.341 677.739 48.6231 676.873 49.1425L677.902 50.8575C678.37 50.5769 679.25 50.3257 680.678 50.1959L680.497 48.2041ZM676.873 49.1425C675.927 49.71 675.388 50.5904 675.388 51.7H677.388C677.388 51.3429 677.514 51.09 677.902 50.8575L676.873 49.1425ZM675.388 51.7C675.388 52.8614 675.987 54.2651 676.933 55.8199L678.642 54.7801C677.721 53.2682 677.388 52.2719 677.388 51.7H675.388ZM676.929 55.8126C679.574 60.2433 682.96 66.6806 687.089 75.1387L688.886 74.2613C684.749 65.7861 681.334 59.29 678.646 54.7874L676.929 55.8126ZM688.898 75.1146C691.621 69.1366 694.778 62.789 698.369 56.0715L696.606 55.1285C692.997 61.8777 689.821 68.2634 687.077 74.2854L688.898 75.1146ZM698.362 56.0856C698.876 55.1597 699.276 54.3295 699.549 53.6011C699.817 52.8849 699.988 52.2057 699.988 51.6H697.988C697.988 51.861 697.908 52.2818 697.676 52.8989C697.449 53.5038 697.099 54.2403 696.613 55.1144L698.362 56.0856ZM699.988 51.6C699.988 51.0776 699.867 50.5705 699.586 50.12C699.305 49.6705 698.902 49.3391 698.435 49.1056L697.54 50.8944C697.74 50.9942 697.837 51.0962 697.89 51.18C697.941 51.2629 697.988 51.3891 697.988 51.6H699.988ZM698.473 49.1258C697.677 48.6833 696.46 48.4389 694.978 48.3041L694.797 50.2959C696.248 50.4278 697.098 50.65 697.502 50.8742L698.473 49.1258ZM695.85 49.0304C695.401 47.4269 695.188 46.0198 695.188 44.8H693.188C693.188 46.2469 693.44 47.8398 693.925 49.5696L695.85 49.0304ZM694.101 45.7962C695.684 45.9339 698.626 46 702.888 46V44C698.616 44 695.758 43.9328 694.274 43.8038L694.101 45.7962Z" transform="translate(43 98)" fill="#0F0F0F"/>
<path d="M10.2 88.9L9.45014 89.5616L9.45562 89.5678L10.2 88.9ZM10.3 51.4L9.56102 50.7262L9.55562 50.7322L10.3 51.4ZM43.4 88.9L42.6562 88.2316L42.6556 88.2322L43.4 88.9ZM37.1 86.1L37.9346 86.6509L37.9396 86.6433L37.1 86.1ZM38.5 59.9L37.557 60.2328L37.5599 60.241L37.5629 60.2491L38.5 59.9ZM33.4 52L32.753 52.7625L32.753 52.7625L33.4 52ZM16.7 54.1L15.8706 53.5414L15.8666 53.5473L15.8627 53.5532L16.7 54.1ZM15.3 80.3L14.355 80.6271L14.3588 80.6382L14.3629 80.6491L15.3 80.3ZM20.5 88.3L19.8399 89.0512L19.8464 89.0569L19.853 89.0625L20.5 88.3ZM26.8 94.7C20.0372 94.7 14.7922 92.5216 10.9444 88.2322L9.45562 89.5678C13.7411 94.3451 19.5628 96.7 26.8 96.7V94.7ZM10.9498 88.2384C7.15589 83.9386 5.2 77.9673 5.2 70.2H3.2C3.2 78.2994 5.24411 84.7948 9.45016 89.5616L10.9498 88.2384ZM5.2 70.2C5.2 62.3675 7.18836 56.3663 11.0444 52.0678L9.55562 50.7322C5.27831 55.5004 3.2 62.0325 3.2 70.2H5.2ZM11.039 52.0738C14.9533 47.7806 20.2676 45.6 27.1 45.6V43.6C19.7991 43.6 13.9134 45.9527 9.56104 50.7262L11.039 52.0738ZM27.1 45.6C33.868 45.6 39.0771 47.7484 42.8551 51.9671L44.345 50.6329C40.1229 45.9183 34.332 43.6 27.1 43.6V45.6ZM42.8551 51.9671C46.6438 56.1978 48.6 62.1318 48.6 69.9H50.6C50.6 61.8015 48.5562 55.3355 44.345 50.6329L42.8551 51.9671ZM48.6 69.9C48.6 77.7969 46.5795 83.8653 42.6562 88.2316L44.1438 89.5684C48.4872 84.7347 50.6 78.1365 50.6 69.9H48.6ZM42.6556 88.2322C38.8078 92.5216 33.5628 94.7 26.8 94.7V96.7C34.0372 96.7 39.8589 94.3451 44.1444 89.5678L42.6556 88.2322ZM28.1 92.1C32.256 92.1 35.5608 90.2475 37.9346 86.6508L36.2654 85.5492C34.2392 88.6192 31.544 90.1 28.1 90.1V92.1ZM37.9396 86.6433C40.2852 83.0182 41.4 78.0337 41.4 71.8H39.4C39.4 77.833 38.3148 82.3818 36.2604 85.5567L37.9396 86.6433ZM41.4 71.8C41.4 67.176 40.7543 63.0865 39.4371 59.5509L37.5629 60.2491C38.779 63.5135 39.4 67.3573 39.4 71.8H41.4ZM39.443 59.5672C38.1986 56.0415 36.4118 53.244 34.047 51.2375L32.753 52.7625C34.7882 54.4894 36.4014 56.9585 37.557 60.2328L39.443 59.5672ZM34.047 51.2375C31.6676 49.2186 28.9053 48.2 25.8 48.2V50.2C28.428 50.2 30.7324 51.0481 32.753 52.7625L34.047 51.2375ZM25.8 48.2C21.5933 48.2 18.2523 50.0049 15.8706 53.5414L17.5294 54.6586C19.5477 51.6617 22.2734 50.2 25.8 50.2V48.2ZM15.8627 53.5532C13.5786 57.0509 12.5 61.9745 12.5 68.2H14.5C14.5 62.1588 15.5548 57.6825 17.5373 54.6468L15.8627 53.5532ZM12.5 68.2C12.5 72.8843 13.1107 77.0324 14.355 80.6271L16.245 79.9729C15.0893 76.6343 14.5 72.7157 14.5 68.2H12.5ZM14.3629 80.6491C15.6737 84.1675 17.4895 86.9857 19.8399 89.0512L21.1601 87.5488C19.1105 85.7476 17.4596 83.2325 16.2371 79.9509L14.3629 80.6491ZM19.853 89.0625C22.2324 91.0814 24.9947 92.1 28.1 92.1V90.1C25.472 90.1 23.1676 89.2519 21.147 87.5375L19.853 89.0625ZM88.9063 81.5V80.5H87.9063V81.5H88.9063ZM90.1063 89.2L89.347 89.8508L89.372 89.88L89.3991 89.9071L90.1063 89.2ZM95.2063 90.7L96.148 90.3637L95.924 89.7364L95.2588 89.7014L95.2063 90.7ZM95.7063 95.2L95.674 96.1995L96.7063 96.2328V95.2H95.7063ZM71.3063 95.2H70.3063V96.2364L71.3419 96.1994L71.3063 95.2ZM71.8063 90.7L71.7598 89.7011L71.0745 89.733L70.8576 90.3838L71.8063 90.7ZM77.9063 88.8L78.5929 89.527L78.594 89.526L77.9063 88.8ZM79.8063 81.5H80.8063V80.5H79.8063V81.5ZM59.9063 82L59.0173 82.458L59.3295 83.064L60.0078 82.9948L59.9063 82ZM58.0063 74.9L57.2378 74.2601L56.987 74.5612L57.0076 74.9526L58.0063 74.9ZM83.4063 44.4L83.2101 43.4194L82.8638 43.4887L82.6378 43.7601L83.4063 44.4ZM88.9063 45H89.9063V44.382L89.3535 44.1056L88.9063 45ZM88.9063 73.8H87.9063V74.8H88.9063V73.8ZM97.7063 74.1L97.259 74.9944L97.2853 75.0076L97.3123 75.0191L97.7063 74.1ZM98.9063 75.3L99.8347 75.6714L100.011 75.23L99.7804 74.8144L98.9063 75.3ZM97.3063 81.5V82.5H98.189L98.2985 81.624L97.3063 81.5ZM80.3062 74.4V75.4H81.3062V74.4H80.3062ZM80.3062 55.1H81.3062V52.286L79.5305 54.469L80.3062 55.1ZM64.6063 74.4L63.8305 73.769L62.5037 75.4H64.6063V74.4ZM87.9063 81.5V83.8H89.9063V81.5H87.9063ZM87.9063 83.8C87.9063 85.177 88.0089 86.3719 88.2301 87.3669C88.4493 88.3535 88.8 89.2126 89.347 89.8508L90.8655 88.5492C90.6125 88.2541 90.3632 87.7465 90.1824 86.9331C90.0036 86.1281 89.9063 85.0897 89.9063 83.8H87.9063ZM89.3991 89.9071C90.5511 91.0591 92.5955 91.564 95.1537 91.6986L95.2588 89.7014C92.7504 89.5694 91.3947 89.0742 90.8134 88.4929L89.3991 89.9071ZM94.2645 91.0363C94.5365 91.7978 94.7063 93.1512 94.7063 95.2H96.7063C96.7063 93.1155 96.5427 91.4688 96.148 90.3637L94.2645 91.0363ZM95.7385 94.2005C91.5938 94.0668 87.3163 94 82.9063 94V96C87.2962 96 91.5521 96.0665 95.674 96.1995L95.7385 94.2005ZM82.9063 94C78.8952 94 75.0166 94.0669 71.2706 94.2006L71.3419 96.1994C75.0626 96.0665 78.9173 96 82.9063 96V94ZM72.3063 95.2C72.3063 93.2292 72.4737 91.8599 72.7549 91.0162L70.8576 90.3838C70.4721 91.5401 70.3063 93.1708 70.3063 95.2H72.3063ZM71.8527 91.6989C74.798 91.5619 77.1298 90.9088 78.5929 89.527L77.2196 88.073C76.2827 88.9579 74.5478 89.5714 71.7598 89.7011L71.8527 91.6989ZM78.594 89.526C80.1402 88.0612 80.8063 85.8401 80.8063 83.1H78.8063C78.8063 85.5599 78.2057 87.1388 77.2185 88.074L78.594 89.526ZM80.8063 83.1V81.5H78.8063V83.1H80.8063ZM79.8063 80.5H71.7063V82.5H79.8063V80.5ZM71.7063 80.5C67.0846 80.5 63.1155 80.6673 59.8047 81.0052L60.0078 82.9948C63.2304 82.666 67.1279 82.5 71.7063 82.5V80.5ZM60.7952 81.542C59.7284 79.4711 59.131 77.243 59.0049 74.8474L57.0076 74.9526C57.1482 77.6236 57.8175 80.1289 59.0173 82.458L60.7952 81.542ZM58.7747 75.5399L84.1747 45.0399L82.6378 43.7601L57.2378 74.2601L58.7747 75.5399ZM83.6024 45.3806C83.8358 45.3339 84.2554 45.3 84.9063 45.3V43.3C84.2238 43.3 83.6434 43.3328 83.2101 43.4194L83.6024 45.3806ZM84.9063 45.3C86.5745 45.3 87.7274 45.5286 88.459 45.8944L89.3535 44.1056C88.2184 43.5381 86.7047 43.3 84.9063 43.3V45.3ZM87.9063 45V73.8H89.9063V45H87.9063ZM88.9063 74.8H95.9063V72.8H88.9063V74.8ZM95.9063 74.8C96.6552 74.8 97.068 74.8989 97.259 74.9944L98.1535 73.2056C97.5445 72.9011 96.7573 72.8 95.9063 72.8V74.8ZM97.3123 75.0191C97.5141 75.1056 97.7688 75.3117 98.0321 75.7856L99.7804 74.8144C99.377 74.0883 98.8317 73.4944 98.1002 73.1809L97.3123 75.0191ZM97.9778 74.9286C97.1461 77.0078 96.5913 79.1576 96.314 81.376L98.2985 81.624C98.5546 79.5757 99.0664 77.5922 99.8347 75.6714L97.9778 74.9286ZM97.3063 80.5H88.9063V82.5H97.3063V80.5ZM81.3062 74.4V55.1H79.3062V74.4H81.3062ZM79.5305 54.469L63.8305 73.769L65.382 75.031L81.082 55.731L79.5305 54.469ZM64.6063 75.4H80.3062V73.4H64.6063V75.4ZM109.725 94.2L109.018 94.9071L109.018 94.9071L109.725 94.2ZM109.925 84.8L109.235 84.0759L109.227 84.0843L109.218 84.0929L109.925 84.8ZM119.925 84.8L119.182 85.469L119.199 85.4885L119.218 85.5071L119.925 84.8ZM119.825 94.2L120.494 94.9433L120.494 94.9433L119.825 94.2ZM114.725 95C112.785 95 111.399 94.46 110.432 93.4929L109.018 94.9071C110.451 96.34 112.398 97 114.725 97V95ZM110.432 93.4929C109.439 92.5001 108.925 91.2306 108.925 89.6H106.925C106.925 91.7028 107.611 93.4999 109.018 94.9071L110.432 93.4929ZM108.925 89.6C108.925 88.0016 109.484 86.655 110.632 85.5071L109.218 84.0929C107.699 85.6116 106.925 87.4651 106.925 89.6H108.925ZM110.615 85.5241C111.809 84.3869 113.32 83.8 115.225 83.8V81.8C112.864 81.8 110.841 82.5464 109.235 84.0759L110.615 85.5241ZM115.225 83.8C116.9 83.8 118.187 84.3641 119.182 85.469L120.668 84.131C119.263 82.5692 117.417 81.8 115.225 81.8V83.8ZM119.218 85.5071C120.331 86.6203 120.825 87.7765 120.825 89H122.825C122.825 87.1569 122.052 85.513 120.632 84.0929L119.218 85.5071ZM120.825 89C120.825 91.0632 120.226 92.494 119.156 93.4567L120.494 94.9433C122.091 93.506 122.825 91.4702 122.825 89H120.825ZM119.156 93.4567C118.034 94.4665 116.585 95 114.725 95V97C116.999 97 118.949 96.3335 120.494 94.9433L119.156 93.4567Z" fill="#0F0F0F"/>
</svg>
