<svg width="190" height="26" viewBox="0 0 190 26" fill="none" xmlns="http://www.w3.org/2000/svg">
<path d="M15.0979 13.192L14.6422 12.5962L14.6337 12.6029L15.0979 13.192ZM15.0019 4.744L14.4793 5.28196L14.4871 5.28953L14.4951 5.29686L15.0019 4.744ZM7.70587 3.4L7.53084 2.67071L6.95587 2.8087V3.4H7.70587ZM11.5459 22.936L12.2574 22.6988L12.0945 22.2102L11.5799 22.1868L11.5459 22.936ZM11.7859 25.096L11.7591 25.8455L12.5359 25.8733V25.096H11.7859ZM0.169866 25.096H-0.580134V25.8766L0.199842 25.8454L0.169866 25.096ZM0.409866 22.936L0.367079 22.1872L-0.129239 22.2156L-0.296441 22.6837L0.409866 22.936ZM2.66587 22.168L2.09909 21.6768L2.09642 21.6799L2.66587 22.168ZM3.04987 4.456L3.76138 4.21883L3.76138 4.21883L3.04987 4.456ZM2.18587 3.448L1.85046 4.11882L1.86094 4.12406L1.87157 4.12897L2.18587 3.448ZM0.409866 3.064L-0.301647 3.30117L-0.144693 3.77203L0.350057 3.81161L0.409866 3.064ZM0.169866 0.903998L0.18582 0.154168L-0.580134 0.137871V0.903998H0.169866ZM6.07387 1L6.07387 1.7501L6.08637 1.7499L6.07387 1ZM11.8339 0.903998V0.153894L11.8214 0.154103L11.8339 0.903998ZM19.0819 2.968L19.5823 2.40937L19.5823 2.40937L19.0819 2.968ZM20.2819 12.472L20.932 12.8459L20.932 12.8459L20.2819 12.472ZM16.9699 15.544L16.6229 14.879L16.6169 14.8822L16.9699 15.544ZM8.80987 16.36L8.0674 16.4661L8.13397 16.932L8.58246 17.0747L8.80987 16.36ZM8.85787 14.296L9.00495 13.5606L8.35572 13.4307L8.14635 14.0588L8.85787 14.296ZM10.9699 15.19C12.7894 15.19 14.3424 14.742 15.562 13.7811L14.6337 12.6029C13.7414 13.3059 12.5423 13.69 10.9699 13.69V15.19ZM15.5535 13.7878C16.8939 12.7627 17.4799 11.118 17.4799 9.064H15.9799C15.9799 10.85 15.4778 11.9573 14.6423 12.5962L15.5535 13.7878ZM17.4799 9.064C17.4799 7.06825 16.8419 5.41326 15.5087 4.19113L14.4951 5.29686C15.4658 6.18674 15.9799 7.41175 15.9799 9.064H17.4799ZM15.5245 4.20604C14.2084 2.92762 12.2537 2.362 9.81787 2.362V3.862C12.0541 3.862 13.5553 4.38438 14.4793 5.28196L15.5245 4.20604ZM9.81787 2.362C9.13438 2.362 8.36947 2.46944 7.53084 2.67071L7.8809 4.12929C8.64226 3.94656 9.28536 3.862 9.81787 3.862V2.362ZM6.95587 3.4V18.856H8.45587V3.4H6.95587ZM6.95587 18.856C6.95587 20.407 7.24318 21.71 8.03954 22.5063L9.1002 21.4457C8.74455 21.09 8.45587 20.313 8.45587 18.856H6.95587ZM8.03954 22.5063C8.81568 23.2825 10.0422 23.6184 11.5118 23.6852L11.5799 22.1868C10.2336 22.1256 9.47605 21.8215 9.1002 21.4457L8.03954 22.5063ZM10.8344 23.1732C10.9553 23.5359 11.0359 24.1579 11.0359 25.096H12.5359C12.5359 24.1141 12.4565 23.2961 12.2574 22.6988L10.8344 23.1732ZM11.8126 24.3465C10.0111 24.2821 8.14617 24.25 6.21787 24.25V25.75C8.12956 25.75 9.97662 25.7819 11.7591 25.8455L11.8126 24.3465ZM6.21787 24.25C3.78041 24.25 1.75357 24.2821 0.13989 24.3466L0.199842 25.8454C1.78616 25.7819 3.79132 25.75 6.21787 25.75V24.25ZM0.919866 25.096C0.919866 24.1174 1.0022 23.5074 1.11617 23.1883L-0.296441 22.6837C-0.502466 23.2606 -0.580134 24.0906 -0.580134 25.096H0.919866ZM0.452653 23.6848C1.61207 23.6185 2.64012 23.3505 3.23531 22.6561L2.09642 21.6799C1.92361 21.8815 1.44767 22.1255 0.367079 22.1872L0.452653 23.6848ZM3.23263 22.6592C3.55234 22.2903 3.74701 21.8056 3.86571 21.276C3.98582 20.7402 4.03987 20.105 4.03987 19.384H2.53987C2.53987 20.039 2.48991 20.5558 2.40202 20.948C2.31273 21.3464 2.1954 21.5657 2.0991 21.6768L3.23263 22.6592ZM4.03987 19.384V6.568H2.53987V19.384H4.03987ZM4.03987 6.568C4.03987 5.61483 3.95991 4.81441 3.76138 4.21883L2.33835 4.69317C2.45983 5.05759 2.53987 5.66517 2.53987 6.568H4.03987ZM3.76138 4.21883C3.54348 3.56512 3.12483 3.05534 2.50016 2.76703L1.87157 4.12897C2.0789 4.22466 2.23626 4.38688 2.33835 4.69317L3.76138 4.21883ZM2.52128 2.77718C2.00575 2.51941 1.29691 2.38257 0.469675 2.31639L0.350057 3.81161C1.12282 3.87343 1.59799 3.99258 1.85046 4.11882L2.52128 2.77718ZM1.12138 2.82683C1.00046 2.46408 0.919866 1.84211 0.919866 0.903998H-0.580134C-0.580134 1.88589 -0.500731 2.70392 -0.301647 3.30117L1.12138 2.82683ZM0.153912 1.65383C3.16012 1.71779 5.13641 1.75 6.07387 1.75V0.25C5.15532 0.25 3.19561 0.218207 0.18582 0.154168L0.153912 1.65383ZM6.08637 1.7499L11.8464 1.65389L11.8214 0.154103L6.06137 0.250104L6.08637 1.7499ZM11.8339 1.654C15.0499 1.654 17.2449 2.32932 18.5814 3.52663L19.5823 2.40937C17.8468 0.85468 15.2098 0.153998 11.8339 0.153998V1.654ZM18.5814 3.52663C19.9516 4.75407 20.6359 6.30761 20.6359 8.248H22.1359C22.1359 5.90039 21.2841 3.93393 19.5823 2.40937L18.5814 3.52663ZM20.6359 8.248C20.6359 9.65831 20.2996 10.9366 19.6317 12.0981L20.932 12.8459C21.7361 11.4474 22.1359 9.90969 22.1359 8.248H20.6359ZM19.6317 12.0981C18.9756 13.2392 17.9844 14.1687 16.6229 14.8791L17.3168 16.2089C18.8993 15.3833 20.1162 14.2648 20.932 12.8459L19.6317 12.0981ZM16.6169 14.8822C15.3098 15.5794 13.6935 15.946 11.7379 15.946V17.446C13.8782 17.446 15.7499 17.0446 17.3228 16.2058L16.6169 14.8822ZM11.7379 15.946C10.5216 15.946 9.6343 15.8353 9.03727 15.6453L8.58246 17.0747C9.39343 17.3327 10.4581 17.446 11.7379 17.446V15.946ZM9.55233 16.2539C9.48937 15.8132 9.46387 15.5205 9.46387 15.352H7.96387C7.96387 15.6315 8.00236 16.0108 8.0674 16.4661L9.55233 16.2539ZM9.46387 15.352C9.46387 14.9889 9.50636 14.7222 9.56938 14.5332L8.14635 14.0588C8.01738 14.4458 7.96387 14.8831 7.96387 15.352H9.46387ZM8.71078 15.0314C9.26471 15.1422 10.028 15.19 10.9699 15.19V13.69C10.0557 13.69 9.41102 13.6418 9.00495 13.5606L8.71078 15.0314ZM55.0455 22.312L54.4598 22.7805L54.4771 22.8021L54.4959 22.8223L55.0455 22.312ZM57.3495 23.08L58.0418 22.7915L57.8612 22.358L57.3923 22.3312L57.3495 23.08ZM57.5895 25.096L57.5674 25.8457L58.3395 25.8684V25.096H57.5895ZM46.9335 25.096H46.1835V25.8706L46.9577 25.8456L46.9335 25.096ZM47.1735 23.08L47.1307 22.3312L46.6618 22.358L46.4812 22.7915L47.1735 23.08ZM49.4295 22.312L48.8627 21.8208L48.8601 21.8239L49.4295 22.312ZM50.0535 13.672H50.8035V12.922H50.0535V13.672ZM37.6215 13.912L37.5657 13.1641L36.8715 13.2159V13.912H37.6215ZM38.1975 22.312L37.6118 22.7805L37.6291 22.8021L37.6479 22.8223L38.1975 22.312ZM40.5495 23.08L41.2663 22.8594L41.1127 22.3601L40.5911 22.3312L40.5495 23.08ZM40.7415 25.096L40.7194 25.8457L41.4915 25.8684V25.096H40.7415ZM30.0855 25.096H29.3355V25.8706L30.1097 25.8456L30.0855 25.096ZM30.3255 23.08L30.2657 22.3324L29.8093 22.3689L29.6332 22.7915L30.3255 23.08ZM32.1015 22.696L31.7872 22.015L31.7766 22.0199L31.7661 22.0252L32.1015 22.696ZM32.9655 21.688L32.254 21.4508L32.254 21.4508L32.9655 21.688ZM32.9655 4.312L33.677 4.07483L33.677 4.07483L32.9655 4.312ZM32.1015 3.304L31.7661 3.97482L31.7766 3.98006L31.7872 3.98497L32.1015 3.304ZM30.3255 2.92L29.6192 3.17225L29.7823 3.62894L30.2657 3.66761L30.3255 2.92ZM30.0855 0.903998L30.1089 0.154364L29.3355 0.130194V0.903998H30.0855ZM40.7415 0.903998H41.4915V0.132263L40.7201 0.154304L40.7415 0.903998ZM40.5495 2.92L40.5911 3.66884L41.1127 3.63987L41.2663 3.14056L40.5495 2.92ZM38.1975 3.688L37.6479 3.17766L37.6378 3.18859L37.628 3.19991L38.1975 3.688ZM37.6215 11.56H36.8715V12.31H37.6215V11.56ZM50.0535 11.56V12.31H50.8035V11.56H50.0535ZM49.7655 4.312L49.054 4.54917L49.061 4.57008L49.0691 4.59054L49.7655 4.312ZM48.9015 3.304L48.5661 3.97482L48.5766 3.98006L48.5872 3.98497L48.9015 3.304ZM47.1255 2.92L46.4008 3.11325L46.5374 3.62535L47.0657 3.66761L47.1255 2.92ZM46.9335 0.903998L46.9569 0.154364L46.1835 0.130194V0.903998H46.9335ZM57.5895 0.903998H58.3395V0.132263L57.5681 0.154304L57.5895 0.903998ZM57.3495 2.92L57.3911 3.66884L57.9103 3.64L58.0654 3.14371L57.3495 2.92ZM55.0455 3.688L54.4761 3.1999L54.476 3.19991L55.0455 3.688ZM53.7195 19.528C53.7195 20.2463 53.7692 20.8771 53.879 21.408C53.9872 21.9309 54.1647 22.4116 54.4598 22.7805L55.6311 21.8435C55.5423 21.7324 55.4318 21.5091 55.3479 21.104C55.2658 20.7069 55.2195 20.1857 55.2195 19.528H53.7195ZM54.4959 22.8223C55.1174 23.4916 56.1386 23.762 57.3067 23.8288L57.3923 22.3312C56.3204 22.27 55.8056 22.0284 55.5951 21.8017L54.4959 22.8223ZM56.6572 23.3685C56.7543 23.6015 56.8395 24.1388 56.8395 25.096H58.3395C58.3395 24.1332 58.2647 23.3265 58.0418 22.7915L56.6572 23.3685ZM57.6115 24.3463C55.4321 24.2822 53.6639 24.25 52.3095 24.25V25.75C53.6431 25.75 55.3949 25.7818 57.5674 25.8457L57.6115 24.3463ZM52.3095 24.25C50.6998 24.25 48.8995 24.2822 46.9093 24.3464L46.9577 25.8456C48.9354 25.7818 50.7192 25.75 52.3095 25.75V24.25ZM47.6835 25.096C47.6835 24.1388 47.7687 23.6015 47.8658 23.3685L46.4812 22.7915C46.2583 23.3265 46.1835 24.1332 46.1835 25.096H47.6835ZM47.2163 23.8288C48.3757 23.7625 49.4037 23.4945 49.9989 22.8001L48.8601 21.8239C48.6872 22.0255 48.2113 22.2695 47.1307 22.3312L47.2163 23.8288ZM49.9963 22.8032C50.316 22.4343 50.5106 21.9496 50.6293 21.42C50.7494 20.8842 50.8035 20.249 50.8035 19.528H49.3035C49.3035 20.183 49.2535 20.6998 49.1657 21.092C49.0764 21.4904 48.959 21.7097 48.8627 21.8208L49.9963 22.8032ZM50.8035 19.528V13.672H49.3035V19.528H50.8035ZM50.0535 12.922C43.9131 12.922 39.7418 13.0017 37.5657 13.1641L37.6773 14.6599C39.7891 14.5023 43.9058 14.422 50.0535 14.422V12.922ZM36.8715 13.912V19.528H38.3715V13.912H36.8715ZM36.8715 19.528C36.8715 20.2463 36.9212 20.8771 37.031 21.408C37.1392 21.9309 37.3167 22.4116 37.6118 22.7805L38.7831 21.8435C38.6943 21.7324 38.5838 21.5091 38.4999 21.104C38.4178 20.7069 38.3715 20.1857 38.3715 19.528H36.8715ZM37.6479 22.8223C38.2724 23.4949 39.3148 23.7626 40.5079 23.8288L40.5911 22.3312C39.4802 22.2694 38.9545 22.0251 38.7471 21.8017L37.6479 22.8223ZM39.8327 23.3006C39.9254 23.6021 39.9915 24.178 39.9915 25.096H41.4915C41.4915 24.158 41.4295 23.3899 41.2663 22.8594L39.8327 23.3006ZM40.7635 24.3463C38.5841 24.2822 36.8159 24.25 35.4615 24.25V25.75C36.7951 25.75 38.5469 25.7818 40.7194 25.8457L40.7635 24.3463ZM35.4615 24.25C33.8518 24.25 32.0515 24.2822 30.0613 24.3464L30.1097 25.8456C32.0874 25.7818 33.8712 25.75 35.4615 25.75V24.25ZM30.8355 25.096C30.8355 24.1388 30.9207 23.6015 31.0178 23.3685L29.6332 22.7915C29.4103 23.3265 29.3355 24.1332 29.3355 25.096H30.8355ZM30.3853 23.8276C31.2125 23.7614 31.9214 23.6246 32.4369 23.3668L31.7661 22.0252C31.5136 22.1514 31.0384 22.2706 30.2657 22.3324L30.3853 23.8276ZM32.4158 23.377C33.0405 23.0887 33.4591 22.5789 33.677 21.9252L32.254 21.4508C32.1519 21.7571 31.9945 21.9193 31.7872 22.015L32.4158 23.377ZM33.677 21.9252C33.8761 21.3279 33.9555 20.5099 33.9555 19.528H32.4555C32.4555 20.4661 32.3749 21.0881 32.254 21.4508L33.677 21.9252ZM33.9555 19.528V6.424H32.4555V19.528H33.9555ZM33.9555 6.424C33.9555 5.47083 33.8755 4.67041 33.677 4.07483L32.254 4.54917C32.3755 4.91359 32.4555 5.52117 32.4555 6.424H33.9555ZM33.677 4.07483C33.4591 3.42112 33.0405 2.91134 32.4158 2.62303L31.7872 3.98497C31.9945 4.08066 32.1519 4.24288 32.254 4.54917L33.677 4.07483ZM32.4369 2.63318C31.9214 2.37541 31.2125 2.23857 30.3853 2.17239L30.2657 3.66761C31.0384 3.72943 31.5136 3.84858 31.7661 3.97482L32.4369 2.63318ZM31.0318 2.66775C30.916 2.3436 30.8355 1.77605 30.8355 0.903998H29.3355C29.3355 1.82394 29.415 2.60039 29.6192 3.17225L31.0318 2.66775ZM30.0621 1.65363C32.1155 1.7178 33.9156 1.75 35.4615 1.75V0.25C33.9354 0.25 32.1515 0.218196 30.1089 0.154364L30.0621 1.65363ZM35.4615 1.75C36.752 1.75 38.5202 1.71777 40.7629 1.65369L40.7201 0.154304C38.4828 0.218228 36.731 0.25 35.4615 0.25V1.75ZM39.9915 0.903998C39.9915 1.82203 39.9254 2.39787 39.8327 2.69943L41.2663 3.14056C41.4295 2.61012 41.4915 1.84197 41.4915 0.903998H39.9915ZM40.5079 2.17115C39.3148 2.23744 38.2724 2.50508 37.6479 3.17766L38.7471 4.19834C38.9545 3.97492 39.4802 3.73056 40.5911 3.66884L40.5079 2.17115ZM37.628 3.19991C37.3199 3.55947 37.1399 4.03874 37.0316 4.55349C36.9211 5.07811 36.8715 5.70615 36.8715 6.424H38.3715C38.3715 5.76585 38.4179 5.24989 38.4994 4.86251C38.583 4.46525 38.6911 4.26453 38.7669 4.17609L37.628 3.19991ZM36.8715 6.424V11.56H38.3715V6.424H36.8715ZM37.6215 12.31H50.0535V10.81H37.6215V12.31ZM50.8035 11.56V6.424H49.3035V11.56H50.8035ZM50.8035 6.424C50.8035 5.4642 50.707 4.64642 50.4619 4.03346L49.0691 4.59054C49.208 4.93758 49.3035 5.52779 49.3035 6.424H50.8035ZM50.477 4.07483C50.2591 3.42112 49.8405 2.91134 49.2158 2.62303L48.5872 3.98497C48.7945 4.08066 48.9519 4.24288 49.054 4.54917L50.477 4.07483ZM49.2369 2.63318C48.7214 2.37541 48.0125 2.23857 47.1853 2.17239L47.0657 3.66761C47.8384 3.72943 48.3136 3.84858 48.5661 3.97482L49.2369 2.63318ZM47.8502 2.72675C47.7469 2.33959 47.6835 1.74321 47.6835 0.903998H46.1835C46.1835 1.79279 46.2481 2.54041 46.4008 3.11325L47.8502 2.72675ZM46.9101 1.65363C48.9633 1.7178 50.7475 1.75 52.2615 1.75V0.25C50.7675 0.25 48.9997 0.218202 46.9569 0.154364L46.9101 1.65363ZM52.2615 1.75C53.5839 1.75 55.368 1.71778 57.6109 1.65369L57.5681 0.154304C55.331 0.218222 53.5631 0.25 52.2615 0.25V1.75ZM56.8395 0.903998C56.8395 1.69706 56.7621 2.28508 56.6336 2.69629L58.0654 3.14371C58.2569 2.53092 58.3395 1.77494 58.3395 0.903998H56.8395ZM57.3079 2.17115C56.124 2.23693 55.0742 2.50202 54.4761 3.1999L55.6149 4.17609C55.7847 3.97798 56.271 3.73107 57.3911 3.66884L57.3079 2.17115ZM54.476 3.19991C54.1679 3.55947 53.9879 4.03874 53.8796 4.55349C53.7691 5.07811 53.7195 5.70615 53.7195 6.424H55.2195C55.2195 5.76585 55.2659 5.24989 55.3474 4.86251C55.431 4.46525 55.5391 4.26453 55.6149 4.17609L54.476 3.19991ZM53.7195 6.424V19.528H55.2195V6.424H53.7195ZM72.9307 23.896L72.6035 24.5709L72.6035 24.5709L72.9307 23.896ZM67.9867 19.576L67.3495 19.9716L67.3544 19.9794L67.9867 19.576ZM67.9867 6.616L67.3513 6.2175L67.3465 6.22535L67.9867 6.616ZM72.9307 2.248L73.258 2.92287L73.2621 2.92082L72.9307 2.248ZM87.6187 2.2L87.2915 2.87486L87.2915 2.87486L87.6187 2.2ZM92.5147 6.568L91.8745 6.95865L91.8784 6.96504L91.8824 6.97136L92.5147 6.568ZM92.5147 19.528L91.8793 19.1295L91.8775 19.1325L92.5147 19.528ZM87.5707 23.896L87.898 24.5709L87.9021 24.5688L87.5707 23.896ZM87.0427 20.632L86.4822 20.1337L86.477 20.1396L87.0427 20.632ZM88.0987 8.152L87.4279 8.48742L87.4306 8.49264L88.0987 8.152ZM84.5947 4.264L84.1947 4.89847L84.2009 4.90228L84.5947 4.264ZM73.4587 5.512L74.0245 6.00441L74.0289 5.99924L73.4587 5.512ZM72.4507 18.088L71.7799 18.4234L71.7826 18.4286L72.4507 18.088ZM75.9067 21.88L76.2967 21.2394L76.2967 21.2394L75.9067 21.88ZM80.2267 24.682C77.5686 24.682 75.2518 24.1879 73.2579 23.2211L72.6035 24.5709C74.8337 25.6521 77.3808 26.182 80.2267 26.182V24.682ZM73.2579 23.2211C71.2622 22.2535 69.7234 20.9038 68.619 19.1726L67.3544 19.9794C68.6181 21.9602 70.3753 23.4905 72.6035 24.5709L73.2579 23.2211ZM68.624 19.1805C67.5548 17.4579 67.0087 15.4386 67.0087 13.096H65.5087C65.5087 15.6814 66.1147 17.9821 67.3495 19.9715L68.624 19.1805ZM67.0087 13.096C67.0087 10.7877 67.5538 8.76545 68.627 7.00665L67.3465 6.22535C66.1157 8.24255 65.5087 10.5403 65.5087 13.096H67.0087ZM68.6221 7.01447C69.7273 5.25216 71.2655 3.88889 73.2579 2.92286L72.6035 1.57314C70.372 2.65511 68.6142 4.20384 67.3514 6.21753L68.6221 7.01447ZM73.2621 2.92082C75.2873 1.92333 77.6348 1.414 80.3227 1.414V-0.0860014C77.4427 -0.0860014 74.8622 0.460666 72.5994 1.57518L73.2621 2.92082ZM80.3227 1.414C82.9808 1.414 85.2977 1.90814 87.2915 2.87486L87.9459 1.52514C85.7158 0.443853 83.1686 -0.0860014 80.3227 -0.0860014V1.414ZM87.2915 2.87486C89.2824 3.84013 90.8021 5.20109 91.8745 6.95865L93.155 6.17735C91.9234 4.1589 90.1791 2.60787 87.9459 1.52514L87.2915 2.87486ZM91.8824 6.97136C92.9817 8.69444 93.5407 10.6954 93.5407 13H95.0407C95.0407 10.4406 94.4158 8.15356 93.147 6.16464L91.8824 6.97136ZM93.5407 13C93.5407 15.3384 92.9807 17.3733 91.8794 19.1295L93.1501 19.9265C94.4168 17.9067 95.0407 15.5896 95.0407 13H93.5407ZM91.8775 19.1325C90.8064 20.8581 89.2697 22.2231 87.2394 23.2232L87.9021 24.5688C90.1597 23.4569 91.9191 21.9099 93.152 19.9235L91.8775 19.1325ZM87.2435 23.2211C85.2508 24.1873 82.9183 24.682 80.2267 24.682V26.182C83.1032 26.182 85.6667 25.6527 87.8979 24.5709L87.2435 23.2211ZM80.8987 23.974C83.6759 23.974 85.9424 23.0386 87.6085 21.1244L86.477 20.1396C85.1351 21.6814 83.3056 22.474 80.8987 22.474V23.974ZM87.6033 21.1303C89.2893 19.2336 90.0967 16.7368 90.0967 13.72H88.5967C88.5967 16.4632 87.8682 18.5744 86.4822 20.1337L87.6033 21.1303ZM90.0967 13.72C90.0967 11.5378 89.6596 9.56237 88.7669 7.81136L87.4306 8.49264C88.2019 10.0056 88.5967 11.7422 88.5967 13.72H90.0967ZM88.7696 7.81659C87.8786 6.03472 86.6176 4.6309 84.9886 3.62572L84.2009 4.90228C85.5798 5.7531 86.6549 6.94128 87.4279 8.48741L88.7696 7.81659ZM84.9947 3.62956C83.3949 2.62098 81.5905 2.122 79.6027 2.122V3.622C81.327 3.622 82.8506 4.05102 84.1948 4.89844L84.9947 3.62956ZM79.6027 2.122C76.8208 2.122 74.5531 3.07687 72.8886 5.02476L74.0289 5.99924C75.3724 4.42713 77.2006 3.622 79.6027 3.622V2.122ZM72.893 5.01961C71.2433 6.91501 70.4527 9.39264 70.4527 12.376H71.9527C71.9527 9.66336 72.6662 7.56499 74.0245 6.00439L72.893 5.01961ZM70.4527 12.376C70.4527 14.6186 70.8884 16.6405 71.7799 18.4234L73.1216 17.7526C72.349 16.2075 71.9527 14.4213 71.9527 12.376H70.4527ZM71.7826 18.4286C72.6736 20.1764 73.9185 21.5478 75.5168 22.5206L76.2967 21.2394C74.951 20.4202 73.8919 19.2636 73.1189 17.7474L71.7826 18.4286ZM75.5168 22.5206C77.1153 23.4937 78.9162 23.974 80.8987 23.974V22.474C79.1693 22.474 77.6422 22.0583 76.2967 21.2394L75.5168 22.5206ZM124.307 0.903998L125.056 0.945601L125.101 0.122261L124.277 0.154574L124.307 0.903998ZM124.643 7.144L124.938 7.83336L125.461 7.60952L125.386 7.04616L124.643 7.144ZM122.291 7.576L121.542 7.60722L121.571 8.326H122.291V7.576ZM121.043 4.168L120.513 4.69833L120.518 4.70397L120.524 4.70949L121.043 4.168ZM115.427 3.064V2.314H114.677V3.064H115.427ZM115.667 21.736L114.955 21.9732L114.965 22.0028L114.978 22.0314L115.667 21.736ZM116.627 22.696L116.331 23.3854L116.34 23.389L116.348 23.3924L116.627 22.696ZM118.787 23.08L119.479 22.7915L119.3 22.3626L118.837 22.3317L118.787 23.08ZM119.027 25.096L119.007 25.8457L119.777 25.8665V25.096H119.027ZM107.267 25.096H106.517V25.8691L107.29 25.8457L107.267 25.096ZM107.507 23.08L107.457 22.3317L106.993 22.3626L106.815 22.7915L107.507 23.08ZM109.667 22.696L109.404 21.9938L109.396 21.9966L109.388 21.9996L109.667 22.696ZM110.723 21.688L111.419 21.9665L111.419 21.9665L110.723 21.688ZM111.011 3.064H111.761V2.314H111.011V3.064ZM106.067 3.592L106.389 4.26915L106.396 4.26604L106.402 4.26282L106.067 3.592ZM103.763 7.576V8.326H104.378L104.498 7.72309L103.763 7.576ZM101.507 7.144L100.774 6.98244L100.658 7.50945L101.121 7.78712L101.507 7.144ZM102.227 0.903998L102.256 0.154553L101.477 0.124597V0.903998H102.227ZM123.558 0.862396C123.459 2.65172 123.575 4.78107 123.899 7.24184L125.386 7.04616C125.07 4.64293 124.963 2.61228 125.056 0.945601L123.558 0.862396ZM124.347 6.45464C123.787 6.69469 123.108 6.826 122.291 6.826V8.326C123.266 8.326 124.154 8.16931 124.938 7.83336L124.347 6.45464ZM123.04 7.54478C122.972 5.90116 122.521 4.54601 121.562 3.62651L120.524 4.70949C121.1 5.26199 121.482 6.17884 121.542 7.60722L123.04 7.54478ZM121.573 3.63767C120.637 2.70122 119.233 2.314 117.539 2.314V3.814C119.045 3.814 119.977 4.16278 120.513 4.69833L121.573 3.63767ZM117.539 2.314H115.427V3.814H117.539V2.314ZM114.677 3.064V19.528H116.177V3.064H114.677ZM114.677 19.528C114.677 20.5387 114.756 21.3744 114.955 21.9732L116.378 21.4988C116.258 21.1376 116.177 20.5013 116.177 19.528H114.677ZM114.978 22.0314C115.245 22.6565 115.706 23.1175 116.331 23.3854L116.922 22.0066C116.651 21.8905 116.472 21.7115 116.356 21.4406L114.978 22.0314ZM116.348 23.3924C116.939 23.6288 117.754 23.7628 118.737 23.8283L118.837 22.3317C117.9 22.2692 117.274 22.1472 116.905 21.9996L116.348 23.3924ZM118.095 23.3685C118.192 23.6015 118.277 24.1388 118.277 25.096H119.777C119.777 24.1332 119.702 23.3265 119.479 22.7915L118.095 23.3685ZM119.047 24.3463C116.676 24.2822 114.732 24.25 113.219 24.25V25.75C114.713 25.75 116.642 25.7818 119.007 25.8457L119.047 24.3463ZM113.219 24.25C111.354 24.25 109.363 24.2821 107.244 24.3463L107.29 25.8457C109.395 25.7819 111.371 25.75 113.219 25.75V24.25ZM108.017 25.096C108.017 24.1388 108.102 23.6015 108.199 23.3685L106.815 22.7915C106.592 23.3265 106.517 24.1332 106.517 25.096H108.017ZM107.557 23.8283C108.54 23.7628 109.354 23.6288 109.945 23.3924L109.388 21.9996C109.019 22.1472 108.394 22.2692 107.457 22.3317L107.557 23.8283ZM109.93 23.3982C110.627 23.137 111.144 22.6548 111.419 21.9665L110.027 21.4095C109.918 21.6812 109.731 21.871 109.404 21.9938L109.93 23.3982ZM111.419 21.9665C111.665 21.3516 111.761 20.5159 111.761 19.528H110.261C110.261 20.4601 110.165 21.0644 110.027 21.4095L111.419 21.9665ZM111.761 19.528V3.064H110.261V19.528H111.761ZM111.011 2.314H109.043V3.814H111.011V2.314ZM109.043 2.314C107.711 2.314 106.585 2.49436 105.731 2.92118L106.402 4.26282C106.957 3.98564 107.815 3.814 109.043 3.814V2.314ZM105.744 2.91485C104.939 3.2983 104.317 3.8713 103.915 4.63469L105.243 5.33331C105.481 4.88069 105.851 4.5257 106.389 4.26915L105.744 2.91485ZM103.915 4.63469C103.547 5.33444 103.258 6.27845 103.027 7.42891L104.498 7.72309C104.716 6.63355 104.971 5.84955 105.243 5.33331L103.915 4.63469ZM103.763 6.826C102.779 6.826 102.195 6.68206 101.893 6.50088L101.121 7.78712C101.779 8.18194 102.699 8.326 103.763 8.326V6.826ZM102.239 7.30556C102.73 5.08289 102.977 2.9485 102.977 0.903998H101.477C101.477 2.82749 101.244 4.85311 100.774 6.98244L102.239 7.30556ZM102.198 1.65344C103.879 1.71811 107.559 1.75 113.219 1.75V0.25C107.551 0.25 103.902 0.217891 102.256 0.154553L102.198 1.65344ZM113.219 1.75C118.975 1.75 122.687 1.71812 124.336 1.65342L124.277 0.154574C122.663 0.217882 118.983 0.25 113.219 0.25V1.75ZM138.574 23.896L138.247 24.5709L138.247 24.5709L138.574 23.896ZM133.63 19.576L132.993 19.9716L132.998 19.9794L133.63 19.576ZM133.63 6.616L132.995 6.2175L132.99 6.22535L133.63 6.616ZM138.574 2.248L138.902 2.92287L138.906 2.92082L138.574 2.248ZM153.262 2.2L152.935 2.87486L152.935 2.87486L153.262 2.2ZM158.158 6.568L157.518 6.95865L157.522 6.96504L157.526 6.97136L158.158 6.568ZM158.158 19.528L157.523 19.1295L157.521 19.1325L158.158 19.528ZM153.214 23.896L153.542 24.5709L153.546 24.5688L153.214 23.896ZM152.686 20.632L152.126 20.1337L152.121 20.1396L152.686 20.632ZM153.742 8.152L153.072 8.48742L153.074 8.49264L153.742 8.152ZM150.238 4.264L149.839 4.89847L149.845 4.90228L150.238 4.264ZM139.102 5.512L139.668 6.00441L139.673 5.99924L139.102 5.512ZM138.094 18.088L137.424 18.4234L137.426 18.4286L138.094 18.088ZM141.55 21.88L141.94 21.2394L141.94 21.2394L141.55 21.88ZM145.87 24.682C143.212 24.682 140.896 24.1879 138.902 23.2211L138.247 24.5709C140.477 25.6521 143.025 26.182 145.87 26.182V24.682ZM138.902 23.2211C136.906 22.2535 135.367 20.9038 134.263 19.1726L132.998 19.9794C134.262 21.9602 136.019 23.4905 138.247 24.5709L138.902 23.2211ZM134.268 19.1805C133.199 17.4579 132.652 15.4386 132.652 13.096H131.152C131.152 15.6814 131.758 17.9821 132.993 19.9715L134.268 19.1805ZM132.652 13.096C132.652 10.7877 133.198 8.76545 134.271 7.00665L132.99 6.22535C131.759 8.24255 131.152 10.5403 131.152 13.096H132.652ZM134.266 7.01447C135.371 5.25216 136.909 3.88889 138.902 2.92286L138.247 1.57314C136.016 2.65511 134.258 4.20384 132.995 6.21753L134.266 7.01447ZM138.906 2.92082C140.931 1.92333 143.279 1.414 145.966 1.414V-0.0860014C143.086 -0.0860014 140.506 0.460666 138.243 1.57518L138.906 2.92082ZM145.966 1.414C148.625 1.414 150.941 1.90814 152.935 2.87486L153.59 1.52514C151.36 0.443853 148.812 -0.0860014 145.966 -0.0860014V1.414ZM152.935 2.87486C154.926 3.84013 156.446 5.20109 157.518 6.95865L158.799 6.17735C157.567 4.1589 155.823 2.60787 153.59 1.52514L152.935 2.87486ZM157.526 6.97136C158.625 8.69444 159.184 10.6954 159.184 13H160.684C160.684 10.4406 160.06 8.15356 158.791 6.16464L157.526 6.97136ZM159.184 13C159.184 15.3384 158.624 17.3733 157.523 19.1295L158.794 19.9265C160.061 17.9067 160.684 15.5896 160.684 13H159.184ZM157.521 19.1325C156.45 20.8581 154.914 22.2231 152.883 23.2232L153.546 24.5688C155.803 23.4569 157.563 21.9099 158.796 19.9235L157.521 19.1325ZM152.887 23.2211C150.895 24.1873 148.562 24.682 145.87 24.682V26.182C148.747 26.182 151.31 25.6527 153.542 24.5709L152.887 23.2211ZM146.542 23.974C149.32 23.974 151.586 23.0386 153.252 21.1244L152.121 20.1396C150.779 21.6814 148.949 22.474 146.542 22.474V23.974ZM153.247 21.1303C154.933 19.2336 155.74 16.7368 155.74 13.72H154.24C154.24 16.4632 153.512 18.5744 152.126 20.1337L153.247 21.1303ZM155.74 13.72C155.74 11.5378 155.303 9.56237 154.411 7.81136L153.074 8.49264C153.846 10.0056 154.24 11.7422 154.24 13.72H155.74ZM154.413 7.81659C153.522 6.03472 152.261 4.6309 150.632 3.62572L149.845 4.90228C151.224 5.7531 152.299 6.94128 153.072 8.48741L154.413 7.81659ZM150.638 3.62956C149.039 2.62098 147.234 2.122 145.246 2.122V3.622C146.971 3.622 148.494 4.05102 149.839 4.89844L150.638 3.62956ZM145.246 2.122C142.465 2.122 140.197 3.07687 138.532 5.02476L139.673 5.99924C141.016 4.42713 142.844 3.622 145.246 3.622V2.122ZM138.537 5.01961C136.887 6.91501 136.096 9.39264 136.096 12.376H137.596C137.596 9.66336 138.31 7.56499 139.668 6.00439L138.537 5.01961ZM136.096 12.376C136.096 14.6186 136.532 16.6405 137.424 18.4234L138.765 17.7526C137.993 16.2075 137.596 14.4213 137.596 12.376H136.096ZM137.426 18.4286C138.317 20.1764 139.562 21.5478 141.161 22.5206L141.94 21.2394C140.595 20.4202 139.536 19.2636 138.763 17.7474L137.426 18.4286ZM141.161 22.5206C142.759 23.4937 144.56 23.974 146.542 23.974V22.474C144.813 22.474 143.286 22.0583 141.94 21.2394L141.161 22.5206ZM173.823 24.808L173.641 25.5356L173.645 25.5365L173.823 24.808ZM169.215 23.224L168.475 23.1025L168.379 23.6848L168.922 23.9147L169.215 23.224ZM169.599 17.656L169.371 16.9413L168.814 17.1185L168.85 17.7018L169.599 17.656ZM172.191 17.32L172.94 17.2958L172.917 16.57H172.191V17.32ZM174.063 21.64L173.61 22.2381L173.618 22.2438L174.063 21.64ZM183.519 22.12L183.168 21.4571L183.159 21.4616L183.519 22.12ZM184.335 18.088L183.804 18.6183L183.821 18.6349L183.838 18.6504L184.335 18.088ZM182.415 16.84L182.091 17.5166L182.108 17.5249L182.126 17.5323L182.415 16.84ZM179.151 15.544L179.402 14.8373L179.391 14.8336L179.151 15.544ZM174.351 13.672L174.008 14.3392L174.019 14.3447L174.03 14.3498L174.351 13.672ZM171.231 11.224L170.65 11.6989L170.658 11.7085L170.666 11.7179L171.231 11.224ZM172.335 2.392L171.91 1.77359L171.905 1.77758L172.335 2.392ZM183.471 1.144L183.327 1.88005L183.33 1.88062L183.471 1.144ZM186.975 2.248L187.722 2.3159L187.766 1.82252L187.33 1.58764L186.975 2.248ZM187.215 7.288L187.563 7.95237L188.076 7.68365L187.945 7.11935L187.215 7.288ZM184.575 7.816L183.846 7.99489L183.987 8.566H184.575V7.816ZM182.367 4.024L181.92 4.62632L181.931 4.63438L181.942 4.64203L182.367 4.024ZM175.215 3.64L174.86 2.97881L174.85 2.98438L175.215 3.64ZM175.455 8.296L175.852 7.66L175.852 7.66L175.455 8.296ZM180.255 10.408L180.005 11.1153L180.01 11.117L180.255 10.408ZM184.815 12.232L184.487 12.9064L184.487 12.9064L184.815 12.232ZM187.839 14.584L187.264 15.066L187.272 15.0752L187.839 14.584ZM186.495 23.368L186.041 22.7707L186.041 22.7707L186.495 23.368ZM178.623 24.586C176.912 24.586 175.373 24.4148 174.001 24.0795L173.645 25.5365C175.152 25.9052 176.813 26.086 178.623 26.086V24.586ZM174.005 24.0804C172.642 23.7398 171.143 23.2256 169.507 22.5333L168.922 23.9147C170.614 24.6304 172.187 25.1722 173.641 25.5356L174.005 24.0804ZM169.955 23.3455C170.313 21.1656 170.448 19.2508 170.347 17.6102L168.85 17.7018C168.942 19.1972 168.821 20.9944 168.475 23.1025L169.955 23.3455ZM169.826 18.3707C170.434 18.1772 171.216 18.07 172.191 18.07V16.57C171.117 16.57 170.171 16.6868 169.371 16.9413L169.826 18.3707ZM171.441 17.3442C171.51 19.473 172.189 21.1628 173.61 22.2381L174.515 21.0419C173.568 20.3252 173 19.135 172.94 17.2958L171.441 17.3442ZM173.618 22.2438C175.008 23.2684 176.882 23.734 179.151 23.734V22.234C177.067 22.234 175.549 21.8036 174.508 21.0362L173.618 22.2438ZM179.151 23.734C181.07 23.734 182.668 23.4385 183.878 22.7784L183.159 21.4616C182.258 21.9535 180.943 22.234 179.151 22.234V23.734ZM183.87 22.7828C185.122 22.1199 185.901 21.1352 185.901 19.816H184.401C184.401 20.4168 184.092 20.9681 183.168 21.4572L183.87 22.7828ZM185.901 19.816C185.901 18.9102 185.522 18.1352 184.831 17.5256L183.838 18.6504C184.236 19.0008 184.401 19.3778 184.401 19.816H185.901ZM184.865 17.5577C184.274 16.9669 183.548 16.4998 182.703 16.1477L182.126 17.5323C182.817 17.8202 183.371 18.1851 183.804 18.6183L184.865 17.5577ZM182.738 16.1634C181.966 15.7943 180.849 15.352 179.402 14.8373L178.899 16.2507C180.332 16.76 181.391 17.1817 182.091 17.5166L182.738 16.1634ZM179.391 14.8336C177.421 14.1664 175.851 13.553 174.672 12.9942L174.03 14.3498C175.282 14.943 176.912 15.5776 178.91 16.2544L179.391 14.8336ZM174.693 13.0048C173.595 12.441 172.63 11.6845 171.795 10.7301L170.666 11.7179C171.623 12.8115 172.738 13.687 174.008 14.3392L174.693 13.0048ZM171.811 10.7491C171.073 9.84672 170.685 8.71009 170.685 7.288H169.185C169.185 9.00191 169.66 10.4893 170.65 11.6989L171.811 10.7491ZM170.685 7.288C170.685 5.36075 171.387 3.97076 172.765 3.00642L171.905 1.77758C170.082 3.05324 169.185 4.92725 169.185 7.288H170.685ZM172.759 3.01038C174.224 2.00533 176.281 1.462 179.007 1.462V-0.038002C176.101 -0.038002 173.71 0.538665 171.91 1.77361L172.759 3.01038ZM179.007 1.462C180.462 1.462 181.902 1.60135 183.327 1.88004L183.615 0.407955C182.095 0.110647 180.559 -0.038002 179.007 -0.038002V1.462ZM183.33 1.88062C184.799 2.16199 185.883 2.51191 186.619 2.90835L187.33 1.58764C186.402 1.08809 185.15 0.702006 183.612 0.407383L183.33 1.88062ZM186.228 2.1801C186.192 2.56776 186.177 3.14007 186.177 3.88H187.677C187.677 3.14793 187.693 2.63224 187.722 2.3159L186.228 2.1801ZM186.177 3.88C186.177 5.34374 186.273 6.54445 186.484 7.45664L187.945 7.11935C187.772 6.36754 187.677 5.29625 187.677 3.88H186.177ZM186.867 6.62363C186.338 6.9003 185.591 7.066 184.575 7.066V8.566C185.735 8.566 186.747 8.3797 187.563 7.95237L186.867 6.62363ZM185.303 7.63711C184.833 5.72298 184.028 4.25628 182.792 3.40597L181.942 4.64203C182.753 5.19972 183.42 6.26102 183.846 7.99489L185.303 7.63711ZM182.814 3.42168C181.669 2.57244 180.272 2.17 178.671 2.17V3.67C180.013 3.67 181.08 4.00356 181.92 4.62632L182.814 3.42168ZM178.671 2.17C177.184 2.17 175.899 2.42241 174.86 2.97889L175.569 4.30111C176.322 3.89759 177.341 3.67 178.671 3.67V2.17ZM174.85 2.98438C174.328 3.27473 173.899 3.65399 173.603 4.13574C173.306 4.61988 173.169 5.16709 173.169 5.752H174.669C174.669 5.40891 174.747 5.14012 174.882 4.92026C175.018 4.69801 175.237 4.48527 175.579 4.29562L174.85 2.98438ZM173.169 5.752C173.169 7.10757 173.851 8.17817 175.057 8.932L175.852 7.66C175.01 7.13383 174.669 6.50843 174.669 5.752H173.169ZM175.057 8.932C176.152 9.61657 177.815 10.3423 180.005 11.1152L180.504 9.70076C178.342 8.93769 176.805 8.25543 175.852 7.66L175.057 8.932ZM180.01 11.117C181.85 11.7515 183.339 12.3483 184.487 12.9064L185.143 11.5576C183.922 10.9637 182.371 10.3445 180.499 9.69897L180.01 11.117ZM184.487 12.9064C185.577 13.4371 186.501 14.1561 187.264 15.066L188.413 14.102C187.512 13.0279 186.42 12.1789 185.143 11.5576L184.487 12.9064ZM187.272 15.0752C187.967 15.8775 188.337 16.9101 188.337 18.232H189.837C189.837 16.6099 189.374 15.2105 188.405 14.0928L187.272 15.0752ZM188.337 18.232C188.337 20.1021 187.588 21.5959 186.041 22.7707L186.948 23.9653C188.857 22.5161 189.837 20.5859 189.837 18.232H188.337ZM186.041 22.7707C184.503 23.9388 182.073 24.586 178.623 24.586V26.086C182.212 26.086 185.031 25.4212 186.948 23.9653L186.041 22.7707Z" fill="#F2F2F2"/>
</svg>
