<svg width="574" height="213" viewBox="0 0 574 213" fill="none" xmlns="http://www.w3.org/2000/svg">
<path d="M88.5 44.8H89.5V43.7575L88.4584 43.8009L88.5 44.8ZM87.8 49.3L88.0524 50.2676L88.5772 50.1307L88.7487 49.6162L87.8 49.3ZM84 52L83.1862 51.4187L83.1808 51.4265L84 52ZM80.5 59.9L81.4407 60.2394L81.4421 60.2353L80.5 59.9ZM67.8 95.1L68.1511 96.0363L68.5838 95.8741L68.7407 95.4394L67.8 95.1ZM63.6 95.7L62.6786 96.0886L62.9364 96.7H63.6V95.7ZM52.6 72.9L51.7042 73.3444L51.7079 73.3519L51.7118 73.3594L52.6 72.9ZM46.3 60.2L47.1958 59.7556L46.2213 57.7911L45.3771 59.815L46.3 60.2ZM31.7 95.2L32.0363 96.1417L32.4527 95.993L32.6229 95.585L31.7 95.2ZM27.4 95.7L26.4639 96.0518L26.7075 96.7H27.4V95.7ZM12 58.5L11.0829 58.8987L11.0845 58.9023L12 58.5ZM9.1 52.3L8.20557 52.7472L8.21647 52.769L8.22842 52.7903L9.1 52.3ZM7.4 50.2L6.8 51L6.85465 51.041L6.91436 51.0742L7.4 50.2ZM5 49.4L4.03648 49.6676L4.21481 50.3096L4.87597 50.3923L5 49.4ZM4.5 44.8L4.53569 43.8006L3.5 43.7636V44.8H4.5ZM26 44.8H27V43.7692L25.9697 43.8005L26 44.8ZM25.6 49.3L25.6644 50.2979L26.4301 50.2485L26.5806 49.4961L25.6 49.3ZM21.2 50.2L21.6191 51.108L21.647 51.0951L21.6741 51.0805L21.2 50.2ZM21.6 57.4L22.5104 56.9862L22.5087 56.9825L21.6 57.4ZM25.4 65.4L26.3 64.9642L26.2982 64.9604L25.4 65.4ZM32 79.7L31.0769 80.0846L31.9937 82.2848L32.9212 80.0891L32 79.7ZM46.7 44.9L46.341 43.9666L45.9442 44.1193L45.7788 44.5109L46.7 44.9ZM50.9 44.4L51.8029 43.9701L51.5314 43.4H50.9V44.4ZM57.1 57L57.9944 56.5528L57.9944 56.5528L57.1 57ZM68.1 79.8L67.1872 80.2084L68.1515 82.3639L69.0285 80.1714L68.1 79.8ZM76.1 59.8L77.0285 60.1714L77.0351 60.1547L77.0412 60.1379L76.1 59.8ZM76.1 50.8L75.4541 51.5634L75.4854 51.5899L75.5188 51.6137L76.1 50.8ZM71.9 49.3L70.9561 49.6303L71.158 50.2071L71.7634 50.2906L71.9 49.3ZM71.2 44.8L71.24 43.8008L70.2 43.7592V44.8H71.2ZM80 46C82.4839 46 85.3316 45.9329 88.5416 45.7991L88.4584 43.8009C85.2684 43.9338 82.4494 44 80 44V46ZM87.5 44.8C87.5 46.3016 87.2813 47.694 86.8513 48.9838L88.7487 49.6162C89.2521 48.106 89.5 46.4984 89.5 44.8H87.5ZM87.5476 48.3324C85.7677 48.7967 84.3098 49.8458 83.1863 51.4188L84.8137 52.5812C85.6902 51.3542 86.7657 50.6033 88.0524 50.2676L87.5476 48.3324ZM83.1808 51.4265C82.1603 52.8844 80.9554 55.6384 79.5579 59.5647L81.4421 60.2353C82.8446 56.2949 83.973 53.7823 84.8192 52.5735L83.1808 51.4265ZM79.5594 59.5606L66.8594 94.7606L68.7407 95.4394L81.4407 60.2394L79.5594 59.5606ZM67.4489 94.1637C66.5371 94.5056 65.2695 94.7 63.6 94.7V96.7C65.3972 96.7 66.9295 96.4944 68.1511 96.0363L67.4489 94.1637ZM64.5214 95.3114C62.1729 89.7422 58.4923 82.1151 53.4882 72.4406L51.7118 73.3594C56.7077 83.0182 60.3604 90.5912 62.6786 96.0886L64.5214 95.3114ZM53.4958 72.4556L47.1958 59.7556L45.4042 60.6444L51.7042 73.3444L53.4958 72.4556ZM45.3771 59.815L30.7771 94.815L32.6229 95.585L47.2229 60.585L45.3771 59.815ZM31.3637 94.2583C30.5979 94.5318 29.3063 94.7 27.4 94.7V96.7C29.3604 96.7 30.9355 96.5349 32.0363 96.1417L31.3637 94.2583ZM28.3361 95.3482C24.5939 85.3914 19.4528 72.9733 12.9155 58.0977L11.0845 58.9023C17.6139 73.7601 22.7394 86.1419 26.4639 96.0518L28.3361 95.3482ZM12.9171 58.1013C11.5857 55.0392 10.6002 52.9273 9.97158 51.8097L8.22842 52.7903C8.79977 53.806 9.74762 55.8275 11.0829 58.8987L12.9171 58.1013ZM9.99443 51.8528C9.42978 50.7235 8.74952 49.8058 7.88564 49.3258L6.91436 51.0742C7.25048 51.2609 7.70356 51.7432 8.20557 52.7472L9.99443 51.8528ZM8 49.4C7.2669 48.8502 6.26836 48.5508 5.12404 48.4077L4.87597 50.3923C5.86497 50.5159 6.46643 50.7498 6.8 51L8 49.4ZM5.96352 49.1324C5.66321 48.0513 5.5 46.6165 5.5 44.8H3.5C3.5 46.7169 3.67012 48.3487 4.03648 49.6676L5.96352 49.1324ZM4.46431 45.7994C8.20763 45.9331 11.6863 46 14.9 46V44C11.7137 44 8.25904 43.9336 4.53569 43.8006L4.46431 45.7994ZM14.9 46C17.9136 46 21.6244 45.9331 26.0303 45.7995L25.9697 43.8005C21.5756 43.9336 17.8864 44 14.9 44V46ZM25 44.8C25 46.4149 24.8707 47.8476 24.6194 49.1039L26.5806 49.4961C26.8627 48.0857 27 46.5184 27 44.8H25ZM25.5356 48.3021C23.4496 48.4367 21.7955 48.7436 20.7259 49.3195L21.6741 51.0805C22.3378 50.7231 23.6171 50.43 25.6644 50.2979L25.5356 48.3021ZM20.7809 49.292C20.211 49.5551 19.725 49.9344 19.3866 50.455C19.0472 50.9771 18.9 51.5741 18.9 52.2H20.9C20.9 51.8925 20.9695 51.6896 21.0634 51.545C21.1584 51.399 21.3223 51.2449 21.6191 51.108L20.7809 49.292ZM18.9 52.2C18.9 52.8591 19.0807 53.662 19.3745 54.5607C19.6739 55.4767 20.1156 56.5644 20.6913 57.8175L22.5087 56.9825C21.9511 55.7689 21.5427 54.7567 21.2755 53.9393C21.0026 53.1047 20.9 52.5409 20.9 52.2H18.9ZM20.6896 57.8138C21.6949 60.0253 22.9659 62.7011 24.5018 65.8396L26.2982 64.9604C24.7674 61.8323 23.5051 59.1747 22.5104 56.9862L20.6896 57.8138ZM24.5 65.8358C27.565 72.1657 29.7549 76.9116 31.0769 80.0846L32.9231 79.3154C31.5785 76.0884 29.3684 71.301 26.3 64.9642L24.5 65.8358ZM32.9212 80.0891L47.6212 45.2891L45.7788 44.5109L31.0788 79.3109L32.9212 80.0891ZM47.059 45.8333C47.7432 45.5702 48.9857 45.4 50.9 45.4V43.4C48.9476 43.4 47.3901 43.5631 46.341 43.9666L47.059 45.8333ZM49.9971 44.8299C51.3348 47.639 53.405 51.846 56.2056 57.4472L57.9944 56.5528C55.195 50.954 53.1319 46.761 51.8029 43.9701L49.9971 44.8299ZM56.2056 57.4472C61.271 67.578 64.9297 75.1622 67.1872 80.2084L69.0128 79.3916C66.737 74.3045 63.0624 66.6887 57.9944 56.5528L56.2056 57.4472ZM69.0285 80.1714L77.0285 60.1714L75.1715 59.4286L67.1715 79.4286L69.0285 80.1714ZM77.0412 60.1379C77.9809 57.5201 78.5 55.4162 78.5 53.9H76.5C76.5 55.0504 76.0858 56.8799 75.1588 59.4621L77.0412 60.1379ZM78.5 53.9C78.5 52.2574 77.9366 50.8829 76.6812 49.9863L75.5188 51.6137C76.1301 52.0504 76.5 52.7426 76.5 53.9H78.5ZM76.7459 50.0366C75.6641 49.1212 74.0386 48.5855 72.0366 48.3094L71.7634 50.2906C73.628 50.5478 74.8026 51.0122 75.4541 51.5634L76.7459 50.0366ZM72.8439 48.9696C72.4204 47.7596 72.2 46.3739 72.2 44.8H70.2C70.2 46.5594 70.4463 48.1737 70.9561 49.6303L72.8439 48.9696ZM71.16 45.7992C74.5028 45.9329 77.4499 46 80 46V44C77.4834 44 74.5639 43.9338 71.24 43.8008L71.16 45.7992ZM111.392 92.7L110.956 93.5998L110.956 93.5998L111.392 92.7ZM101.092 83.7L100.242 84.2274L100.249 84.2378L101.092 83.7ZM101.092 56.7L100.245 56.1687L100.239 56.1791L101.092 56.7ZM111.392 47.6L111.828 48.4998L111.834 48.4971L111.392 47.6ZM141.992 47.5L141.556 48.3998L141.556 48.3998L141.992 47.5ZM152.192 56.6L151.339 57.1209L151.344 57.1294L151.349 57.1378L152.192 56.6ZM152.192 83.6L151.345 83.0687L151.343 83.0726L152.192 83.6ZM141.892 92.7L142.328 93.5998L142.334 93.5971L141.892 92.7ZM140.792 85.9L140.045 85.2356L140.038 85.2435L140.792 85.9ZM142.992 59.9L142.098 60.3472L142.101 60.3542L142.992 59.9ZM135.692 51.8L135.159 52.646L135.167 52.651L135.692 51.8ZM112.492 54.4L113.247 55.0565L113.252 55.0497L112.492 54.4ZM110.392 80.6L109.498 81.0472L109.501 81.0542L110.392 80.6ZM117.592 88.5L118.112 87.6458L118.112 87.6458L117.592 88.5ZM126.592 94.9C120.984 94.9 116.071 93.8571 111.828 91.8002L110.956 93.5998C115.513 95.8095 120.734 96.9 126.592 96.9V94.9ZM111.828 91.8002C107.583 89.742 104.296 86.8625 101.935 83.1622L100.249 84.2378C102.822 88.2709 106.401 91.3913 110.956 93.5998L111.828 91.8002ZM101.942 83.1726C99.6523 79.4839 98.4922 75.1715 98.4922 70.2H96.4922C96.4922 75.4952 97.7321 80.1828 100.243 84.2274L101.942 83.1726ZM98.4922 70.2C98.4922 65.2982 99.6509 60.9819 101.946 57.2209L100.239 56.1791C97.7334 60.2847 96.4922 64.9685 96.4922 70.2H98.4922ZM101.939 57.2313C104.301 53.4655 107.588 50.5558 111.828 48.4998L110.956 46.7002C106.396 48.9108 102.817 52.0678 100.245 56.1687L101.939 57.2313ZM111.834 48.4971C116.142 46.3751 121.12 45.3 126.792 45.3V43.3C120.864 43.3 115.575 44.4249 110.95 46.7029L111.834 48.4971ZM126.792 45.3C132.4 45.3 137.313 46.3429 141.556 48.3998L142.428 46.6002C137.871 44.3905 132.651 43.3 126.792 43.3V45.3ZM141.556 48.3998C145.794 50.4548 149.045 53.3615 151.339 57.1209L153.046 56.0791C150.54 51.9719 146.99 48.8118 142.428 46.6002L141.556 48.3998ZM151.349 57.1378C153.703 60.8273 154.892 65.1032 154.892 70H156.892C156.892 64.7634 155.615 60.1061 153.035 56.0622L151.349 57.1378ZM154.892 70C154.892 74.9659 153.701 79.3111 151.345 83.0687L153.039 84.1313C155.616 80.0222 156.892 75.3007 156.892 70H154.892ZM151.343 83.0726C149.05 86.7655 145.766 89.6775 141.45 91.8029L142.334 93.5971C146.952 91.3225 150.534 88.1678 153.042 84.1274L151.343 83.0726ZM141.456 91.8002C137.215 93.8564 132.269 94.9 126.592 94.9V96.9C132.515 96.9 137.769 95.8102 142.328 93.5998L141.456 91.8002ZM127.992 92.3C133.639 92.3 138.197 90.4048 141.546 86.5565L140.038 85.2435C137.121 88.5952 133.145 90.3 127.992 90.3V92.3ZM141.54 86.5644C144.94 82.7394 146.592 77.6824 146.592 71.5H144.592C144.592 77.3176 143.045 81.8606 140.045 85.2356L141.54 86.5644ZM146.592 71.5C146.592 67.0303 145.697 63.0045 143.883 59.4458L142.101 60.3542C143.754 63.5955 144.592 67.303 144.592 71.5H146.592ZM143.887 59.4528C142.075 55.829 139.517 52.9852 136.217 50.949L135.167 52.651C138.134 54.4815 140.443 57.0377 142.098 60.3472L143.887 59.4528ZM136.225 50.9541C132.988 48.9133 129.334 47.9 125.292 47.9V49.9C128.983 49.9 132.263 50.82 135.159 52.6459L136.225 50.9541ZM125.292 47.9C119.639 47.9 115.079 49.8332 111.732 53.7503L113.252 55.0497C116.172 51.6335 120.145 49.9 125.292 49.9V47.9ZM111.738 53.7435C108.41 57.5667 106.792 62.5862 106.792 68.7H108.792C108.792 62.9471 110.307 58.4333 113.246 55.0565L111.738 53.7435ZM106.792 68.7C106.792 73.2982 107.685 77.4219 109.498 81.0472L111.287 80.1528C109.633 76.8447 108.792 73.0351 108.792 68.7H106.792ZM109.501 81.0542C111.313 84.6085 113.837 87.385 117.072 89.3542L118.112 87.6458C115.214 85.8817 112.938 83.3915 111.283 80.1458L109.501 81.0542ZM117.072 89.3542C120.308 91.3236 123.957 92.3 127.992 92.3V90.3C124.294 90.3 121.01 89.4098 118.112 87.6458L117.072 89.3542ZM210.026 83.3L210.855 82.7405L210.851 82.7348L210.026 83.3ZM215.526 89L215.007 89.8548L215.025 89.8656L215.043 89.8756L215.526 89ZM222.626 90.8H223.626V89.8465L222.673 89.8011L222.626 90.8ZM222.226 95V96H222.964L223.182 95.2941L222.226 95ZM207.826 95.7L206.962 96.2039L207.292 96.7703L207.944 96.693L207.826 95.7ZM205.126 91.5L204.275 92.0247L204.284 92.0399L204.294 92.0547L205.126 91.5ZM200.626 84.2L199.767 84.7125L199.771 84.7186L199.775 84.7247L200.626 84.2ZM190.826 74.1L191.364 73.2575L191.104 73.0908L190.795 73.1005L190.826 74.1ZM187.626 74.2L187.591 75.1994L187.624 75.2005L187.657 75.1995L187.626 74.2ZM184.726 74.1L184.76 73.1006L183.726 73.0649V74.1H184.726ZM185.226 88.1L184.271 88.3983L184.271 88.3983L185.226 88.1ZM186.826 90.3L186.347 91.1779L186.363 91.1864L186.379 91.1944L186.826 90.3ZM190.426 91L191.374 90.6838L191.156 90.0296L190.467 90.0009L190.426 91ZM190.826 95.2L190.772 96.1985L191.826 96.2555V95.2H190.826ZM169.026 95.2H168.026V96.2364L169.061 96.1994L169.026 95.2ZM169.526 91L169.446 90.0032L168.802 90.0547L168.584 90.6637L169.526 91ZM173.226 90.2L172.807 89.292L172.793 89.2986L172.779 89.3056L173.226 90.2ZM175.026 88.1L174.077 87.7838L174.077 87.7838L175.026 88.1ZM174.326 50.8L175.085 50.1492L175.085 50.1492L174.326 50.8ZM169.526 49.2L168.577 49.5162L168.792 50.1608L169.47 50.1985L169.526 49.2ZM169.026 44.8L169.078 43.8014L168.026 43.746V44.8H169.026ZM180.026 45V46.0001L180.04 45.9999L180.026 45ZM187.226 44.9L187.24 45.8999L187.252 45.8997L187.264 45.8993L187.226 44.9ZM209.626 48.4L210.228 47.602L209.626 48.4ZM210.826 67.5L211.533 68.2072L211.542 68.1976L210.826 67.5ZM200.526 72.5L200.333 71.5189L197.784 72.0209L200.011 73.3575L200.526 72.5ZM204.626 76L203.845 76.6247L203.862 76.6462L203.881 76.6668L204.626 76ZM200.326 66.7L200.803 67.5786L200.811 67.5747L200.818 67.5706L200.326 66.7ZM184.726 49.6L184.53 48.6194L183.726 48.7802V49.6H184.726ZM184.726 68.9H183.726V69.7673L184.584 69.8899L184.726 68.9ZM209.197 83.8595C211.043 86.5939 212.973 88.6197 215.007 89.8548L216.045 88.1452C214.346 87.1136 212.609 85.3395 210.855 82.7405L209.197 83.8595ZM215.043 89.8756C217.141 91.0332 219.665 91.6602 222.578 91.7989L222.673 89.8011C219.986 89.6732 217.777 89.1001 216.009 88.1244L215.043 89.8756ZM221.626 90.8C221.626 92.72 221.49 93.9918 221.27 94.7059L223.182 95.2941C223.495 94.2748 223.626 92.7466 223.626 90.8H221.626ZM222.226 94C216.535 94 211.693 94.2342 207.708 94.707L207.944 96.693C211.825 96.2325 216.583 96 222.226 96V94ZM208.69 95.1961C208.206 94.3669 207.29 92.9439 205.958 90.9453L204.294 92.0547C205.628 94.0561 206.512 95.4331 206.962 96.2039L208.69 95.1961ZM205.977 90.9753L201.477 83.6753L199.775 84.7247L204.275 92.0247L205.977 90.9753ZM201.484 83.6875C198.938 79.4204 195.562 75.9409 191.364 73.2575L190.287 74.9425C194.223 77.4591 197.38 80.7129 199.767 84.7125L201.484 83.6875ZM190.795 73.1005L187.595 73.2005L187.657 75.1995L190.857 75.0995L190.795 73.1005ZM187.66 73.2006L184.76 73.1006L184.691 75.0994L187.591 75.1994L187.66 73.2006ZM183.726 74.1V83.2H185.726V74.1H183.726ZM183.726 83.2C183.726 85.4231 183.891 87.1815 184.271 88.3983L186.18 87.8017C185.894 86.8852 185.726 85.3769 185.726 83.2H183.726ZM184.271 88.3983C184.655 89.6267 185.318 90.6164 186.347 91.1779L187.305 89.4221C186.867 89.1836 186.463 88.7067 186.18 87.8017L184.271 88.3983ZM186.379 91.1944C187.368 91.6893 188.737 91.9305 190.384 91.9991L190.467 90.0009C188.914 89.9362 187.883 89.7107 187.273 89.4056L186.379 91.1944ZM189.477 91.3162C189.687 91.947 189.826 93.2004 189.826 95.2H191.826C191.826 93.1996 191.698 91.653 191.374 90.6838L189.477 91.3162ZM190.88 94.2015C188.385 94.0666 184.73 94 179.926 94V96C184.721 96 188.333 96.0667 190.772 96.1985L190.88 94.2015ZM179.926 94C176.38 94 172.735 94.0669 168.99 94.2006L169.061 96.1994C172.784 96.0664 176.405 96 179.926 96V94ZM170.026 95.2C170.026 93.3653 170.193 92.1045 170.468 91.3363L168.584 90.6637C168.192 91.7621 168.026 93.3014 168.026 95.2H170.026ZM169.606 91.9968C171.309 91.8606 172.698 91.5821 173.673 91.0944L172.779 89.3056C172.154 89.6179 171.076 89.8728 169.446 90.0032L169.606 91.9968ZM173.645 91.108C174.79 90.5795 175.564 89.6478 175.974 88.4162L174.077 87.7838C173.821 88.5522 173.395 89.0205 172.807 89.292L173.645 91.108ZM175.974 88.4162C176.36 87.2599 176.526 85.6292 176.526 83.6H174.526C174.526 85.5708 174.358 86.9401 174.077 87.7838L175.974 88.4162ZM176.526 83.6V56.5H174.526V83.6H176.526ZM176.526 56.5C176.526 55.0269 176.424 53.7605 176.204 52.719C175.988 51.6907 175.64 50.7966 175.085 50.1492L173.567 51.4508C173.812 51.7367 174.064 52.2593 174.247 53.131C174.428 53.9895 174.526 55.1065 174.526 56.5H176.526ZM175.085 50.1492C173.999 48.8827 172.024 48.3372 169.581 48.2015L169.47 50.1985C171.828 50.3294 173.052 50.8506 173.567 51.4508L175.085 50.1492ZM170.474 48.8838C170.193 48.0379 170.026 46.6998 170.026 44.8H168.026C168.026 46.7669 168.192 48.3621 168.577 49.5162L170.474 48.8838ZM168.973 45.7986C171.533 45.9334 175.221 46 180.026 46V44C175.231 44 171.585 43.9333 169.078 43.8014L168.973 45.7986ZM180.04 45.9999L187.24 45.8999L187.212 43.9001L180.012 44.0001L180.04 45.9999ZM187.264 45.8993C190.727 45.7661 193.345 45.7 195.126 45.7V43.7C193.306 43.7 190.657 43.7673 187.187 43.9007L187.264 45.8993ZM195.126 45.7C201.423 45.7 206.003 46.9179 209.023 49.198L210.228 47.602C206.715 44.9488 201.629 43.7 195.126 43.7V45.7ZM209.023 49.198C212.057 51.4886 213.526 54.3678 213.526 57.9H215.526C215.526 53.6989 213.728 50.2447 210.228 47.602L209.023 49.198ZM213.526 57.9C213.526 61.5328 212.376 64.4741 210.109 66.8024L211.542 68.1976C214.209 65.4593 215.526 62.0005 215.526 57.9H213.526ZM210.119 66.7929C207.827 69.0841 204.593 70.6797 200.333 71.5189L200.719 73.4811C205.259 72.587 208.891 70.8492 211.533 68.2071L210.119 66.7929ZM200.011 73.3575C201.59 74.3047 202.862 75.3961 203.845 76.6247L205.407 75.3753C204.256 73.9373 202.795 72.6953 201.04 71.6425L200.011 73.3575ZM203.881 76.6668C204.965 77.8793 206.732 80.2626 209.201 83.8652L210.851 82.7348C208.386 79.1374 206.553 76.654 205.371 75.3332L203.881 76.6668ZM188.526 70.2C193.433 70.2 197.545 69.3492 200.803 67.5786L199.848 65.8214C196.973 67.3841 193.219 68.2 188.526 68.2V70.2ZM200.818 67.5706C204.168 65.6768 205.926 62.8605 205.926 59.2H203.926C203.926 62.0728 202.617 64.2565 199.834 65.8294L200.818 67.5706ZM205.926 59.2C205.926 55.5449 204.654 52.665 202.015 50.7418C199.434 48.8614 195.684 48 190.926 48V50C195.501 50 198.751 50.8386 200.837 52.3582C202.864 53.835 203.926 56.0551 203.926 59.2H205.926ZM190.926 48C188.73 48 186.597 48.2059 184.53 48.6194L184.922 50.5806C186.854 50.1941 188.855 50 190.926 50V48ZM183.726 49.6V68.9H185.726V49.6H183.726ZM184.584 69.8899C186.02 70.0951 187.335 70.2 188.526 70.2V68.2C187.45 68.2 186.231 68.1049 184.867 67.91L184.584 69.8899ZM274.146 82.7L273.402 83.3681L273.405 83.3715L274.146 82.7ZM280.746 88.2L280.218 89.0493L280.746 88.2ZM287.846 90.7H288.846V89.7571L287.905 89.7017L287.846 90.7ZM287.346 95V96H288.067L288.295 95.3162L287.346 95ZM273.546 95.6L272.76 96.2186L273.106 96.6574L273.661 96.5934L273.546 95.6ZM263.246 83.9L263.974 83.214L263.974 83.214L263.246 83.9ZM250.546 71.2L251.229 70.4693L249.546 68.8969V71.2H250.546ZM251.746 89.1L250.965 89.7247L250.988 89.7535L251.013 89.7805L251.746 89.1ZM256.646 90.7L257.612 90.4423L257.426 89.7418L256.702 89.7015L256.646 90.7ZM257.046 95.2L257.017 96.1996L258.046 96.2298V95.2H257.046ZM234.846 95.2H233.846V96.2328L234.878 96.1995L234.846 95.2ZM235.346 90.7L235.266 89.7032L234.622 89.7547L234.404 90.3637L235.346 90.7ZM239.046 89.9L238.627 88.992L238.613 88.9986L238.599 89.0056L239.046 89.9ZM240.846 52.2L241.795 51.8838L241.795 51.8838L240.846 52.2ZM239.046 50.1L238.599 50.9944L238.613 51.0014L238.627 51.008L239.046 50.1ZM235.346 49.3L234.397 49.6162L234.607 50.244L235.266 50.2968L235.346 49.3ZM234.846 44.8L234.877 43.8005L233.846 43.7683V44.8H234.846ZM257.046 44.8H258.046V43.771L257.018 43.8004L257.046 44.8ZM256.646 49.3L256.702 50.2985L257.412 50.259L257.608 49.5747L256.646 49.3ZM251.746 50.9L251.013 50.2195L251 50.2341L250.987 50.2492L251.746 50.9ZM250.546 68.8H249.546V70.9036L251.177 69.5755L250.546 68.8ZM266.146 56.1L265.517 55.3227L265.515 55.3245L266.146 56.1ZM267.346 49.3L266.392 49.5983L266.596 50.2522L267.28 50.2978L267.346 49.3ZM266.846 44.8L266.896 43.8012L265.846 43.7487V44.8H266.846ZM285.546 44.8H286.546V43.7575L285.504 43.8009L285.546 44.8ZM284.946 49.3L284.979 50.2994L285.662 50.2767L285.889 49.6328L284.946 49.3ZM279.246 50.7L278.812 49.799L278.806 49.8022L278.799 49.8056L279.246 50.7ZM272.346 55.2L271.749 54.3978L271.723 54.4174L271.698 54.4388L272.346 55.2ZM258.846 66.7L258.198 65.9388L257.353 66.658L258.156 67.4236L258.846 66.7ZM273.405 83.3715C275.401 85.5743 277.673 87.4673 280.218 89.0493L281.274 87.3507C278.886 85.866 276.757 84.0923 274.887 82.0285L273.405 83.3715ZM280.218 89.0493C282.788 90.6466 285.314 91.5528 287.787 91.6983L287.905 89.7017C285.845 89.5805 283.638 88.82 281.274 87.3507L280.218 89.0493ZM286.846 90.7C286.846 92.5286 286.68 93.8355 286.397 94.6838L288.295 95.3162C288.679 94.1645 288.846 92.6048 288.846 90.7H286.846ZM287.346 94C281.595 94 276.952 94.2003 273.431 94.6066L273.661 96.5934C277.073 96.1997 281.63 96 287.346 96V94ZM274.332 94.9814C271.839 91.8151 268.383 87.891 263.974 83.214L262.519 84.586C266.909 89.2423 270.32 93.1182 272.76 96.2186L274.332 94.9814ZM263.974 83.214C259.561 78.5342 255.313 74.2857 251.229 70.4693L249.863 71.9307C253.912 75.7143 258.131 79.9324 262.519 84.586L263.974 83.214ZM249.546 71.2V83.3H251.546V71.2H249.546ZM249.546 83.3C249.546 84.7738 249.648 86.0468 249.867 87.1026C250.083 88.1478 250.428 89.0528 250.965 89.7247L252.527 88.4753C252.264 88.1472 252.009 87.5855 251.825 86.6974C251.644 85.8199 251.546 84.6929 251.546 83.3H249.546ZM251.013 89.7805C252.158 91.0132 254.136 91.5621 256.591 91.6985L256.702 89.7015C254.356 89.5712 253.068 89.0534 252.479 88.4195L251.013 89.7805ZM255.68 90.9577C255.912 91.8281 256.046 93.2221 256.046 95.2H258.046C258.046 93.1779 257.914 91.5719 257.612 90.4423L255.68 90.9577ZM257.075 94.2004C252.538 94.067 248.86 94 246.046 94V96C248.832 96 252.488 96.0664 257.017 96.1996L257.075 94.2004ZM246.046 94C242.7 94 238.955 94.0669 234.814 94.2005L234.878 96.1995C239.003 96.0664 242.726 96 246.046 96V94ZM235.846 95.2C235.846 93.1512 236.016 91.7978 236.288 91.0363L234.404 90.3637C234.01 91.4688 233.846 93.1155 233.846 95.2H235.846ZM235.426 91.6968C237.129 91.5606 238.518 91.2821 239.493 90.7944L238.599 89.0056C237.974 89.3179 236.897 89.5728 235.266 89.7032L235.426 91.6968ZM239.465 90.808C240.61 90.2795 241.384 89.3478 241.795 88.1162L239.897 87.4838C239.641 88.2522 239.215 88.7205 238.627 88.992L239.465 90.808ZM241.795 88.1162C242.18 86.9599 242.346 85.3292 242.346 83.3H240.346C240.346 85.2708 240.179 86.6401 239.897 87.4838L241.795 88.1162ZM242.346 83.3V56.6H240.346V83.3H242.346ZM242.346 56.6C242.346 54.6331 242.179 53.0379 241.795 51.8838L239.897 52.5162C240.179 53.3621 240.346 54.7002 240.346 56.6H242.346ZM241.795 51.8838C241.384 50.6522 240.61 49.7205 239.465 49.192L238.627 51.008C239.215 51.2795 239.641 51.7478 239.897 52.5162L241.795 51.8838ZM239.493 49.2056C238.518 48.7179 237.129 48.4394 235.426 48.3032L235.266 50.2968C236.897 50.4272 237.974 50.6821 238.599 50.9944L239.493 49.2056ZM236.295 48.9838C236.014 48.1401 235.846 46.7708 235.846 44.8H233.846C233.846 46.8292 234.012 48.4599 234.397 49.6162L236.295 48.9838ZM234.815 45.7995C239.089 45.9331 242.833 46 246.046 46V44C242.859 44 239.137 43.9336 234.877 43.8005L234.815 45.7995ZM246.046 46C248.727 46 252.404 45.933 257.075 45.7996L257.018 43.8004C252.354 43.9336 248.699 44 246.046 44V46ZM256.046 44.8C256.046 46.854 255.91 48.2348 255.685 49.0253L257.608 49.5747C257.915 48.4985 258.046 46.8794 258.046 44.8H256.046ZM256.591 48.3015C254.136 48.4379 252.158 48.9868 251.013 50.2195L252.479 51.5805C253.068 50.9466 254.356 50.4287 256.702 50.2985L256.591 48.3015ZM250.987 50.2492C250.432 50.8966 250.084 51.7907 249.868 52.819C249.648 53.8605 249.546 55.1269 249.546 56.6H251.546C251.546 55.2065 251.644 54.0895 251.825 53.231C252.008 52.3593 252.26 51.8367 252.505 51.5508L250.987 50.2492ZM249.546 56.6V68.8H251.546V56.6H249.546ZM251.177 69.5755L266.777 56.8755L265.515 55.3245L249.915 68.0245L251.177 69.5755ZM266.775 56.8772C268.199 55.7247 269.307 54.6847 270.068 53.7607C270.796 52.8765 271.346 51.9346 271.346 51H269.346C269.346 51.1988 269.196 51.6735 268.524 52.4893C267.885 53.2653 266.893 54.2087 265.517 55.3228L266.775 56.8772ZM271.346 51C271.346 50.0796 270.846 49.384 270.089 48.955C269.395 48.5615 268.467 48.3725 267.413 48.3022L267.28 50.2978C268.225 50.3608 268.797 50.5218 269.103 50.695C269.346 50.8327 269.346 50.9204 269.346 51H271.346ZM268.301 49.0017C268.012 48.0771 267.846 46.6945 267.846 44.8H265.846C265.846 46.7721 266.014 48.3896 266.392 49.5983L268.301 49.0017ZM266.796 45.7987C269.483 45.9331 272.567 46 276.046 46V44C272.591 44 269.542 43.9335 266.896 43.8012L266.796 45.7987ZM276.046 46C279.194 46 282.374 45.933 285.588 45.7991L285.504 43.8009C282.318 43.9336 279.165 44 276.046 44V46ZM284.546 44.8C284.546 46.6089 284.35 47.9829 284.003 48.9672L285.889 49.6328C286.342 48.3504 286.546 46.7244 286.546 44.8H284.546ZM284.913 48.3006C282.774 48.3718 280.738 48.8719 278.812 49.799L279.68 51.601C281.354 50.7947 283.118 50.3615 284.979 50.2994L284.913 48.3006ZM278.799 49.8056C276.986 50.7119 274.631 52.2534 271.749 54.3978L272.943 56.0022C275.795 53.8799 278.039 52.4215 279.693 51.5944L278.799 49.8056ZM271.698 54.4388L258.198 65.9388L259.495 67.4612L272.995 55.9612L271.698 54.4388ZM258.156 67.4236C262.464 71.533 267.545 76.846 273.402 83.3681L274.89 82.0319C269.013 75.4873 263.895 70.1336 259.536 65.9764L258.156 67.4236Z" transform="translate(43 100)" fill="#0F0F0F"/>
<path d="M10.2 88.9L9.45014 89.5616L9.45562 89.5678L10.2 88.9ZM10.3 51.4L9.56102 50.7262L9.55562 50.7322L10.3 51.4ZM43.4 88.9L42.6562 88.2316L42.6556 88.2322L43.4 88.9ZM37.1 86.1L37.9346 86.6509L37.9396 86.6433L37.1 86.1ZM38.5 59.9L37.557 60.2328L37.5599 60.241L37.5629 60.2491L38.5 59.9ZM33.4 52L32.753 52.7625L32.753 52.7625L33.4 52ZM16.7 54.1L15.8706 53.5414L15.8666 53.5473L15.8627 53.5532L16.7 54.1ZM15.3 80.3L14.355 80.6271L14.3588 80.6382L14.3629 80.6491L15.3 80.3ZM20.5 88.3L19.8399 89.0512L19.8464 89.0569L19.853 89.0625L20.5 88.3ZM26.8 94.7C20.0372 94.7 14.7922 92.5216 10.9444 88.2322L9.45562 89.5678C13.7411 94.3451 19.5628 96.7 26.8 96.7V94.7ZM10.9498 88.2384C7.15589 83.9386 5.2 77.9673 5.2 70.2H3.2C3.2 78.2994 5.24411 84.7948 9.45016 89.5616L10.9498 88.2384ZM5.2 70.2C5.2 62.3675 7.18836 56.3663 11.0444 52.0678L9.55562 50.7322C5.27831 55.5004 3.2 62.0325 3.2 70.2H5.2ZM11.039 52.0738C14.9533 47.7806 20.2676 45.6 27.1 45.6V43.6C19.7991 43.6 13.9134 45.9527 9.56104 50.7262L11.039 52.0738ZM27.1 45.6C33.868 45.6 39.0771 47.7484 42.8551 51.9671L44.345 50.6329C40.1229 45.9183 34.332 43.6 27.1 43.6V45.6ZM42.8551 51.9671C46.6438 56.1978 48.6 62.1318 48.6 69.9H50.6C50.6 61.8015 48.5562 55.3355 44.345 50.6329L42.8551 51.9671ZM48.6 69.9C48.6 77.7969 46.5795 83.8653 42.6562 88.2316L44.1438 89.5684C48.4872 84.7347 50.6 78.1365 50.6 69.9H48.6ZM42.6556 88.2322C38.8078 92.5216 33.5628 94.7 26.8 94.7V96.7C34.0372 96.7 39.8589 94.3451 44.1444 89.5678L42.6556 88.2322ZM28.1 92.1C32.256 92.1 35.5608 90.2475 37.9346 86.6508L36.2654 85.5492C34.2392 88.6192 31.544 90.1 28.1 90.1V92.1ZM37.9396 86.6433C40.2852 83.0182 41.4 78.0337 41.4 71.8H39.4C39.4 77.833 38.3148 82.3818 36.2604 85.5567L37.9396 86.6433ZM41.4 71.8C41.4 67.176 40.7543 63.0865 39.4371 59.5509L37.5629 60.2491C38.779 63.5135 39.4 67.3573 39.4 71.8H41.4ZM39.443 59.5672C38.1986 56.0415 36.4118 53.244 34.047 51.2375L32.753 52.7625C34.7882 54.4894 36.4014 56.9585 37.557 60.2328L39.443 59.5672ZM34.047 51.2375C31.6676 49.2186 28.9053 48.2 25.8 48.2V50.2C28.428 50.2 30.7324 51.0481 32.753 52.7625L34.047 51.2375ZM25.8 48.2C21.5933 48.2 18.2523 50.0049 15.8706 53.5414L17.5294 54.6586C19.5477 51.6617 22.2734 50.2 25.8 50.2V48.2ZM15.8627 53.5532C13.5786 57.0509 12.5 61.9745 12.5 68.2H14.5C14.5 62.1588 15.5548 57.6825 17.5373 54.6468L15.8627 53.5532ZM12.5 68.2C12.5 72.8843 13.1107 77.0324 14.355 80.6271L16.245 79.9729C15.0893 76.6343 14.5 72.7157 14.5 68.2H12.5ZM14.3629 80.6491C15.6737 84.1675 17.4895 86.9857 19.8399 89.0512L21.1601 87.5488C19.1105 85.7476 17.4596 83.2325 16.2371 79.9509L14.3629 80.6491ZM19.853 89.0625C22.2324 91.0814 24.9947 92.1 28.1 92.1V90.1C25.472 90.1 23.1676 89.2519 21.147 87.5375L19.853 89.0625ZM71.5063 56.6L70.5527 56.9011L70.5598 56.9236L70.5679 56.9457L71.5063 56.6ZM68.7063 53.9L68.3645 54.8398L68.3645 54.8398L68.7063 53.9ZM61.4063 53.1H60.4063V54.1H61.4063V53.1ZM61.9063 49.3L61.7403 48.3139L61.1476 48.4136L60.9576 48.9838L61.9063 49.3ZM78.9062 44.4L79.2426 43.4583L78.857 43.3205L78.4855 43.4928L78.9062 44.4ZM80.7063 46.1L79.7576 46.4162L79.7742 46.466L79.7959 46.5138L80.7063 46.1ZM81.8063 86.8L80.8361 87.0425L80.8422 87.067L80.8496 87.0912L81.8063 86.8ZM84.1063 90L83.616 90.8716L83.6476 90.8894L83.6805 90.9048L84.1063 90ZM89.1063 91L90.0607 90.7017L89.8551 90.0435L89.1667 90.0018L89.1063 91ZM89.6063 95.3L89.5587 96.2989L90.6063 96.3488V95.3H89.6063ZM62.8063 95.3H61.8063V96.3521L62.857 96.2987L62.8063 95.3ZM63.3063 91L63.2475 90.0017L62.5578 90.0423L62.3518 90.7017L63.3063 91ZM68.5063 89.9L68.0782 88.9963L68.0686 89.0008L68.059 89.0056L68.5063 89.9ZM71.3063 86.7L72.2375 87.0644L72.2401 87.0578L72.2426 87.0511L71.3063 86.7ZM73.2063 62.9C73.2063 59.9543 72.9772 57.6998 72.4446 56.2543L70.5679 56.9457C70.9687 58.0335 71.2063 59.9791 71.2063 62.9H73.2063ZM72.4598 56.2989C71.9492 54.6819 70.7492 53.5788 69.048 52.9602L68.3645 54.8398C69.5966 55.2878 70.2633 55.9848 70.5527 56.9011L72.4598 56.2989ZM69.048 52.9602C67.4042 52.3625 64.8182 52.1 61.4063 52.1V54.1C64.7943 54.1 67.075 54.3709 68.3645 54.8398L69.048 52.9602ZM62.4063 53.1C62.4063 51.6298 62.5672 50.4793 62.8549 49.6162L60.9576 48.9838C60.5786 50.1207 60.4063 51.5035 60.4063 53.1H62.4063ZM62.0722 50.2861C68.8653 49.1427 74.6235 47.4885 79.327 45.3072L78.4855 43.4928C73.989 45.5782 68.4139 47.1906 61.7403 48.3139L62.0722 50.2861ZM78.5699 45.3417C79.2708 45.5921 79.6057 45.9606 79.7576 46.4162L81.6549 45.7838C81.2735 44.6393 80.4084 43.8746 79.2426 43.4583L78.5699 45.3417ZM79.7959 46.5138C80.0381 47.0466 80.2063 48.0034 80.2063 49.5H82.2063C82.2063 47.9299 82.0411 46.62 81.6166 45.6862L79.7959 46.5138ZM80.2063 49.5V79.7H82.2063V49.5H80.2063ZM80.2063 79.7C80.2063 82.8559 80.4058 85.3212 80.8361 87.0425L82.7764 86.5575C82.4067 85.0788 82.2063 82.8108 82.2063 79.7H80.2063ZM80.8496 87.0912C81.3672 88.792 82.2622 90.1101 83.616 90.8716L84.5965 89.1284C83.817 88.6899 83.1786 87.8746 82.7629 86.5088L80.8496 87.0912ZM83.6805 90.9048C84.9844 91.5185 86.8005 91.8621 89.0458 91.9982L89.1667 90.0018C87.012 89.8712 85.4947 89.5482 84.532 89.0952L83.6805 90.9048ZM88.1518 91.2983C88.4423 92.2278 88.6063 93.5474 88.6063 95.3H90.6063C90.6063 93.4526 90.4369 91.9055 90.0607 90.7017L88.1518 91.2983ZM89.6538 94.3011C85.4364 94.1003 80.9871 94 76.3063 94V96C80.9588 96 85.3761 96.0997 89.5587 96.2989L89.6538 94.3011ZM76.3063 94C71.2272 94 66.7097 94.1002 62.7555 94.3013L62.857 96.2987C66.7695 96.0998 71.252 96 76.3063 96V94ZM63.8063 95.3C63.8063 93.5474 63.9702 92.2278 64.2607 91.2983L62.3518 90.7017C61.9756 91.9055 61.8063 93.4526 61.8063 95.3H63.8063ZM63.365 91.9983C65.686 91.8617 67.5764 91.483 68.9535 90.7944L68.059 89.0056C67.0361 89.517 65.4598 89.8716 63.2475 90.0017L63.365 91.9983ZM68.9343 90.8037C70.471 90.0759 71.562 88.7908 72.2375 87.0644L70.375 86.3356C69.8505 87.6759 69.0749 88.5241 68.0782 88.9963L68.9343 90.8037ZM72.2426 87.0511C72.9057 85.2828 73.2063 82.8069 73.2063 79.7H71.2063C71.2063 82.7264 70.9068 84.9172 70.3699 86.3489L72.2426 87.0511ZM73.2063 79.7V62.9H71.2063V79.7H73.2063ZM103.67 94.2L102.963 94.9071L102.963 94.9071L103.67 94.2ZM103.87 84.8L103.181 84.0759L103.172 84.0843L103.163 84.0929L103.87 84.8ZM113.87 84.8L113.127 85.469L113.145 85.4885L113.163 85.5071L113.87 84.8ZM113.77 94.2L114.439 94.9433L114.439 94.9433L113.77 94.2ZM108.67 95C106.73 95 105.345 94.46 104.377 93.4929L102.963 94.9071C104.396 96.34 106.344 97 108.67 97V95ZM104.377 93.4929C103.385 92.5001 102.87 91.2306 102.87 89.6H100.87C100.87 91.7028 101.556 93.4999 102.963 94.9071L104.377 93.4929ZM102.87 89.6C102.87 88.0016 103.429 86.655 104.577 85.5071L103.163 84.0929C101.644 85.6116 100.87 87.4651 100.87 89.6H102.87ZM104.56 85.5241C105.754 84.3869 107.265 83.8 109.17 83.8V81.8C106.809 81.8 104.787 82.5464 103.181 84.0759L104.56 85.5241ZM109.17 83.8C110.845 83.8 112.133 84.3641 113.127 85.469L114.614 84.131C113.208 82.5692 111.362 81.8 109.17 81.8V83.8ZM113.163 85.5071C114.276 86.6203 114.77 87.7765 114.77 89H116.77C116.77 87.1569 115.998 85.513 114.577 84.0929L113.163 85.5071ZM114.77 89C114.77 91.0632 114.171 92.494 113.101 93.4567L114.439 94.9433C116.036 93.506 116.77 91.4702 116.77 89H114.77ZM113.101 93.4567C111.979 94.4665 110.53 95 108.67 95V97C110.944 97 112.895 96.3335 114.439 94.9433L113.101 93.4567Z" fill="#0F0F0F"/>
</svg>
