<svg width="211" height="38" viewBox="0 0 211 38" fill="none" xmlns="http://www.w3.org/2000/svg">
<path d="M54.6277 1C56.4037 1 58.4437 0.951999 60.7477 0.855998C60.7477 2.008 60.5797 3.088 60.2437 4.096C59.1397 4.384 58.2277 5.032 57.5077 6.04C56.8357 7 55.9957 8.896 54.9877 11.728L45.8437 37.072C45.0757 37.36 44.0677 37.504 42.8197 37.504C41.1397 33.52 38.4997 28.048 34.8997 21.088L30.3637 11.944L19.8517 37.144C19.1797 37.384 18.1477 37.504 16.7557 37.504C14.0677 30.352 10.3717 21.424 5.66765 10.72C4.70765 8.512 4.01165 7.024 3.57966 6.256C3.19566 5.488 2.78766 4.984 2.35565 4.744C1.97165 4.456 1.39565 4.264 0.627655 4.168C0.387655 3.304 0.267655 2.2 0.267655 0.855998C2.95566 0.951999 5.45166 1 7.75566 1C9.91566 1 12.5797 0.951999 15.7477 0.855998C15.7477 2.056 15.6517 3.136 15.4597 4.096C13.9717 4.192 12.9157 4.408 12.2917 4.744C11.6677 5.032 11.3557 5.512 11.3557 6.184C11.3557 6.904 11.7637 8.152 12.5797 9.928C13.2997 11.512 14.2117 13.432 15.3157 15.688C17.5237 20.248 19.1077 23.68 20.0677 25.984L30.6517 0.927997C31.2757 0.687997 32.2837 0.567997 33.6757 0.567997C34.6357 2.584 36.1237 5.608 38.1397 9.64C41.7877 16.936 44.4277 22.408 46.0597 26.056L51.8197 11.656C52.4917 9.784 52.8277 8.368 52.8277 7.408C52.8277 6.4 52.4917 5.656 51.8197 5.176C51.1957 4.648 50.1877 4.288 48.7957 4.096C48.4597 3.136 48.2917 2.056 48.2917 0.855998C50.6917 0.951999 52.8037 1 54.6277 1ZM90.334 37.648C86.206 37.648 82.558 36.88 79.39 35.344C76.222 33.808 73.75 31.648 71.974 28.864C70.246 26.08 69.382 22.84 69.382 19.144C69.382 15.496 70.246 12.256 71.974 9.424C73.75 6.592 76.222 4.408 79.39 2.872C82.606 1.288 86.302 0.495998 90.478 0.495998C94.606 0.495998 98.254 1.264 101.422 2.8C104.59 4.336 107.038 6.52 108.766 9.352C110.542 12.136 111.43 15.352 111.43 19C111.43 22.696 110.542 25.96 108.766 28.792C107.038 31.576 104.566 33.76 101.35 35.344C98.182 36.88 94.51 37.648 90.334 37.648ZM91.342 34.336C95.23 34.336 98.302 33.04 100.558 30.448C102.862 27.856 104.014 24.4 104.014 20.08C104.014 16.96 103.39 14.176 102.142 11.728C100.894 9.232 99.142 7.288 96.886 5.896C94.678 4.504 92.182 3.808 89.398 3.808C85.51 3.808 82.438 5.128 80.182 7.768C77.926 10.36 76.798 13.792 76.798 18.064C76.798 21.28 77.422 24.136 78.67 26.632C79.918 29.08 81.646 30.976 83.854 32.32C86.062 33.664 88.558 34.336 91.342 34.336ZM152.566 28.576C153.862 30.496 155.182 31.864 156.526 32.68C157.918 33.448 159.622 33.88 161.638 33.976C161.638 35.368 161.542 36.376 161.35 37C157.27 37 153.814 37.168 150.982 37.504C150.646 36.928 149.998 35.92 149.038 34.48L145.798 29.224C144.022 26.248 141.67 23.824 138.742 21.952L136.438 22.024L134.35 21.952L134.35 28.504C134.35 30.088 134.47 31.264 134.71 32.032C134.95 32.8 135.334 33.328 135.862 33.616C136.438 33.904 137.302 34.072 138.454 34.12C138.646 34.696 138.742 35.704 138.742 37.144C136.966 37.048 134.35 37 130.894 37C128.35 37 125.734 37.048 123.046 37.144C123.046 35.8 123.166 34.792 123.406 34.12C124.606 34.024 125.494 33.832 126.07 33.544C126.694 33.256 127.126 32.752 127.366 32.032C127.606 31.312 127.726 30.232 127.726 28.792L127.726 9.28C127.726 7.216 127.438 5.848 126.862 5.176C126.286 4.504 125.134 4.12 123.406 4.024C123.166 3.304 123.046 2.248 123.046 0.855998C124.87 0.951999 127.51 1 130.966 1L136.15 0.927997C138.646 0.831998 140.542 0.783998 141.838 0.783998C146.446 0.783998 149.926 1.672 152.278 3.448C154.63 5.224 155.806 7.504 155.806 10.288C155.806 13.072 154.918 15.376 153.142 17.2C151.366 18.976 148.894 20.176 145.726 20.8C146.926 21.52 147.91 22.36 148.678 23.32C149.494 24.232 150.79 25.984 152.566 28.576ZM137.086 18.424C140.542 18.424 143.374 17.824 145.582 16.624C147.79 15.376 148.894 13.576 148.894 11.224C148.894 6.328 145.534 3.88 138.814 3.88C137.278 3.88 135.79 4.024 134.35 4.312L134.35 18.208C135.358 18.352 136.27 18.424 137.086 18.424ZM200.893 28.144C202.285 29.68 203.869 31 205.645 32.104C207.421 33.208 209.125 33.808 210.757 33.904C210.757 35.248 210.637 36.28 210.397 37C206.269 37 202.957 37.144 200.461 37.432C198.685 35.176 196.213 32.368 193.045 29.008C189.877 25.648 186.829 22.6 183.901 19.864L183.901 28.576C183.901 30.64 184.189 32.032 184.765 32.752C185.389 33.424 186.565 33.808 188.293 33.904C188.485 34.624 188.581 35.704 188.581 37.144C185.317 37.048 182.677 37 180.661 37C178.261 37 175.573 37.048 172.597 37.144C172.597 35.656 172.717 34.576 172.957 33.904C174.157 33.808 175.045 33.616 175.621 33.328C176.245 33.04 176.677 32.536 176.917 31.816C177.157 31.096 177.277 30.016 177.277 28.576L177.277 9.352C177.277 7.96 177.157 6.904 176.917 6.184C176.677 5.464 176.245 4.96 175.621 4.672C175.045 4.384 174.157 4.192 172.957 4.096C172.717 3.376 172.597 2.296 172.597 0.855998C175.669 0.951999 178.357 1 180.661 1C182.581 1 185.221 0.951999 188.581 0.855998C188.581 2.344 188.485 3.424 188.293 4.096C186.565 4.192 185.389 4.576 184.765 5.248C184.189 5.92 183.901 7.288 183.901 9.352L183.901 18.136L195.133 8.992C197.149 7.36 198.157 6.136 198.157 5.32C198.157 4.6 197.437 4.192 195.997 4.096C195.757 3.328 195.637 2.248 195.637 0.855998C197.557 0.951999 199.765 1 202.261 1C204.517 1 206.797 0.951999 209.101 0.855998C209.101 2.2 208.957 3.28 208.669 4.096C207.229 4.144 205.861 4.48 204.565 5.104C203.317 5.728 201.661 6.808 199.597 8.344L189.877 16.624C192.997 19.6 196.669 23.44 200.893 28.144Z" fill="white"/>
</svg>
