<svg width="144" height="26" viewBox="0 0 144 26" fill="none" xmlns="http://www.w3.org/2000/svg">
<path d="M40.6769 0.903998H41.4269V0.122097L40.6456 0.154649L40.6769 0.903998ZM40.3409 3.064L40.5302 3.78971L40.9238 3.68704L41.0524 3.30117L40.3409 3.064ZM38.5169 4.36L37.9065 3.92405L37.9024 3.9299L38.5169 4.36ZM36.8369 8.152L37.5424 8.40654L37.5434 8.40349L36.8369 8.152ZM30.7409 25.048L31.0042 25.7502L31.3287 25.6286L31.4464 25.3025L30.7409 25.048ZM28.7249 25.336L28.0338 25.6274L28.2272 26.086H28.7249V25.336ZM23.4449 14.392L22.7729 14.7253L22.7787 14.7366L23.4449 14.392ZM20.4209 8.296L21.0927 7.96271L20.3619 6.48935L19.7287 8.00726L20.4209 8.296ZM13.4129 25.096L13.6651 25.8023L13.9774 25.6908L14.1051 25.3847L13.4129 25.096ZM11.3489 25.336L10.6468 25.5999L10.8295 26.086H11.3489V25.336ZM3.95687 7.48L3.26906 7.77905L3.27025 7.78174L3.95687 7.48ZM2.56487 4.504L1.89405 4.83941L1.90222 4.85576L1.91119 4.87169L2.56487 4.504ZM1.74887 3.496L1.29887 4.096L1.33985 4.12674L1.38464 4.15162L1.74887 3.496ZM0.596869 3.112L-0.12577 3.31273L0.00797829 3.79422L0.503843 3.85621L0.596869 3.112ZM0.356869 0.903998L0.383638 0.154476L-0.393131 0.126734V0.903998H0.356869ZM10.6769 0.903998H11.4269V0.130926L10.6542 0.154343L10.6769 0.903998ZM10.4849 3.064L10.5332 3.81244L11.1074 3.77539L11.2203 3.21109L10.4849 3.064ZM8.37287 3.496L8.68716 4.17697L8.70812 4.1673L8.72844 4.15635L8.37287 3.496ZM8.56487 6.952L9.24765 6.64164L9.24638 6.63887L8.56487 6.952ZM10.3889 10.792L11.0639 10.4651L11.0625 10.4623L10.3889 10.792ZM13.5569 17.656L12.8646 17.9445L13.5521 19.5946L14.2478 17.9478L13.5569 17.656ZM20.6129 0.951998L20.3436 0.251988L20.046 0.366445L19.922 0.660156L20.6129 0.951998ZM22.6289 0.711998L23.306 0.389547L23.1024 -0.038002H22.6289V0.711998ZM25.6049 6.76L26.2757 6.42459L26.2757 6.42459L25.6049 6.76ZM30.8849 17.704L30.2003 18.0103L30.9235 19.6269L31.5812 17.9825L30.8849 17.704ZM34.7249 8.104L35.4212 8.38254L35.4262 8.37005L35.4308 8.3574L34.7249 8.104ZM34.7249 3.784L34.2404 4.35654L34.2639 4.37641L34.2889 4.3943L34.7249 3.784ZM32.7089 3.064L32.001 3.31176L32.1524 3.74434L32.6064 3.80696L32.7089 3.064ZM32.3729 0.903998L32.4028 0.154598L31.6229 0.123398V0.903998H32.3729ZM36.5969 1.75C37.7938 1.75 39.1646 1.71766 40.7081 1.65335L40.6456 0.154649C39.1172 0.218336 37.7679 0.25 36.5969 0.25V1.75ZM39.9269 0.903998C39.9269 1.59816 39.8258 2.23748 39.6294 2.82683L41.0524 3.30117C41.3039 2.54652 41.4269 1.74583 41.4269 0.903998H39.9269ZM40.1516 2.33829C39.2306 2.57853 38.4792 3.12232 37.9066 3.92407L39.1272 4.79593C39.5145 4.25368 39.9791 3.93347 40.5302 3.78971L40.1516 2.33829ZM37.9024 3.9299C37.3891 4.66327 36.8004 6.01779 36.1303 7.90051L37.5434 8.40349C38.2173 6.51021 38.7487 5.33672 39.1313 4.7901L37.9024 3.9299ZM36.1314 7.89746L30.0354 24.7935L31.4464 25.3025L37.5424 8.40654L36.1314 7.89746ZM30.4775 24.3458C30.0817 24.4942 29.509 24.586 28.7249 24.586V26.086C29.6048 26.086 30.376 25.9858 31.0042 25.7502L30.4775 24.3458ZM29.4159 25.0446C28.2846 22.3616 26.5141 18.6933 24.111 14.0474L22.7787 14.7366C25.1757 19.3707 26.9252 22.9984 28.0338 25.6274L29.4159 25.0446ZM24.1167 14.0587L21.0927 7.96271L19.749 8.62929L22.773 14.7253L24.1167 14.0587ZM19.7287 8.00726L12.7207 24.8073L14.1051 25.3847L21.1131 8.58474L19.7287 8.00726ZM13.1606 24.3897C12.8383 24.5048 12.2566 24.586 11.3489 24.586V26.086C12.2972 26.086 13.0915 26.0072 13.6651 25.8023L13.1606 24.3897ZM12.0509 25.0721C10.2523 20.2866 7.78244 14.321 4.64349 7.17826L3.27025 7.78174C6.4033 14.911 8.86142 20.8494 10.6468 25.5999L12.0509 25.0721ZM4.64467 7.18095C4.00616 5.71237 3.52804 4.68651 3.21855 4.1363L1.91119 4.87169C2.1777 5.34549 2.62758 6.30363 3.26907 7.77904L4.64467 7.18095ZM3.23569 4.16859C2.9562 3.60962 2.59901 3.11033 2.1131 2.84038L1.38464 4.15162C1.47473 4.20167 1.66154 4.37438 1.89405 4.83941L3.23569 4.16859ZM2.19887 2.896C1.79304 2.59163 1.26014 2.43907 0.689895 2.36779L0.503843 3.85621C0.957596 3.91293 1.19269 4.01637 1.29887 4.096L2.19887 2.896ZM1.31951 2.91127C1.18428 2.42444 1.10687 1.76235 1.10687 0.903998H-0.393131C-0.393131 1.83765 -0.31054 2.64756 -0.12577 3.31273L1.31951 2.91127ZM0.3301 1.65352C2.12959 1.71779 3.80262 1.75 5.34887 1.75V0.25C3.82312 0.25 2.16815 0.21821 0.383638 0.154476L0.3301 1.65352ZM5.34887 1.75C6.79904 1.75 8.58316 1.71779 10.6996 1.65365L10.6542 0.154343C8.54658 0.218209 6.7787 0.25 5.34887 0.25V1.75ZM9.92687 0.903998C9.92687 1.66521 9.86587 2.33473 9.74943 2.91691L11.2203 3.21109C11.3599 2.51326 11.4269 1.74279 11.4269 0.903998H9.92687ZM10.4366 2.31556C9.43004 2.38049 8.58553 2.52967 8.01729 2.83565L8.72844 4.15635C8.99221 4.01432 9.5557 3.8755 10.5332 3.81244L10.4366 2.31556ZM8.05858 2.81503C7.74813 2.95831 7.47135 3.17078 7.27604 3.47126C7.08003 3.77281 6.99887 4.1126 6.99887 4.456H8.49887C8.49887 4.35139 8.52171 4.30719 8.5337 4.28874C8.54639 4.26922 8.58161 4.22569 8.68716 4.17697L8.05858 2.81503ZM6.99887 4.456C6.99887 4.81531 7.09614 5.233 7.24 5.67305C7.38808 6.126 7.60456 6.65832 7.88336 7.26512L9.24638 6.63887C8.98118 6.06168 8.78966 5.586 8.66574 5.20695C8.5376 4.81499 8.49887 4.57669 8.49887 4.456H6.99887ZM7.88209 7.26235C8.36601 8.32697 8.97732 9.6138 9.71521 11.1217L11.0625 10.4623C10.3284 8.9622 9.72373 7.68903 9.24764 6.64165L7.88209 7.26235ZM9.71384 11.1189C11.1846 14.1563 12.233 16.4287 12.8646 17.9445L14.2492 17.3675C13.6007 15.8113 12.5371 13.5077 11.0639 10.4651L9.71384 11.1189ZM14.2478 17.9478L21.3038 1.24384L19.922 0.660156L12.866 17.3642L14.2478 17.9478ZM20.8821 1.65201C21.1613 1.54464 21.7152 1.462 22.6289 1.462V-0.038002C21.6866 -0.038002 20.8965 0.0393578 20.3436 0.251988L20.8821 1.65201ZM21.9517 1.03445C22.595 2.38522 23.5896 4.4065 24.9341 7.09541L26.2757 6.42459C24.9321 3.7375 23.9428 1.72677 23.306 0.389547L21.9517 1.03445ZM24.9341 7.09541C27.3651 11.9575 29.1191 15.5937 30.2003 18.0103L31.5695 17.3977C30.4746 14.9503 28.7086 11.2905 26.2757 6.42459L24.9341 7.09541ZM31.5812 17.9825L35.4212 8.38254L34.0285 7.82546L30.1885 17.4255L31.5812 17.9825ZM35.4308 8.3574C35.8835 7.09611 36.1469 6.04918 36.1469 5.272H34.6469C34.6469 5.77482 34.4622 6.61589 34.019 7.8506L35.4308 8.3574ZM36.1469 5.272C36.1469 4.41806 35.8503 3.6662 35.1608 3.1737L34.2889 4.3943C34.4954 4.5418 34.6469 4.78194 34.6469 5.272H36.1469ZM35.2093 3.21146C34.6319 2.72288 33.7909 2.45614 32.8113 2.32103L32.6064 3.80696C33.4829 3.92786 33.9858 4.14112 34.2404 4.35654L35.2093 3.21146ZM33.4168 2.81624C33.2251 2.26873 33.1229 1.63444 33.1229 0.903998H31.6229C31.6229 1.77356 31.7446 2.57926 32.001 3.31176L33.4168 2.81624ZM32.3429 1.6534C33.95 1.71768 35.3683 1.75 36.5969 1.75V0.25C35.3934 0.25 33.9958 0.218316 32.4028 0.154598L32.3429 1.6534ZM54.0651 23.896L53.7379 24.5709L53.7379 24.5709L54.0651 23.896ZM49.1211 19.576L48.4838 19.9716L48.4888 19.9794L49.1211 19.576ZM49.1211 6.616L48.4857 6.2175L48.4809 6.22535L49.1211 6.616ZM54.0651 2.248L54.3923 2.92287L54.3965 2.92082L54.0651 2.248ZM68.7531 2.2L68.4259 2.87486L68.4259 2.87486L68.7531 2.2ZM73.6491 6.568L73.0089 6.95865L73.0128 6.96504L73.0168 6.97136L73.6491 6.568ZM73.6491 19.528L73.0137 19.1295L73.0119 19.1325L73.6491 19.528ZM68.7051 23.896L69.0323 24.5709L69.0365 24.5688L68.7051 23.896ZM68.1771 20.632L67.6165 20.1337L67.6114 20.1396L68.1771 20.632ZM69.2331 8.152L68.5623 8.48742L68.5649 8.49264L69.2331 8.152ZM65.7291 4.264L65.3291 4.89847L65.3353 4.90228L65.7291 4.264ZM54.5931 5.512L55.1589 6.00441L55.1633 5.99924L54.5931 5.512ZM53.5851 18.088L52.9143 18.4234L52.9169 18.4286L53.5851 18.088ZM57.0411 21.88L57.4311 21.2394L57.4311 21.2394L57.0411 21.88ZM61.3611 24.682C58.703 24.682 56.3862 24.1879 54.3923 23.2211L53.7379 24.5709C55.9681 25.6521 58.5152 26.182 61.3611 26.182V24.682ZM54.3923 23.2211C52.3966 22.2535 50.8578 20.9038 49.7534 19.1726L48.4888 19.9794C49.7524 21.9602 51.5097 23.4905 53.7379 24.5709L54.3923 23.2211ZM49.7583 19.1805C48.6892 17.4579 48.1431 15.4386 48.1431 13.096H46.6431C46.6431 15.6814 47.2491 17.9821 48.4839 19.9715L49.7583 19.1805ZM48.1431 13.096C48.1431 10.7877 48.6882 8.76545 49.7613 7.00665L48.4809 6.22535C47.2501 8.24255 46.6431 10.5403 46.6431 13.096H48.1431ZM49.7565 7.01447C50.8617 5.25216 52.3999 3.88889 54.3923 2.92286L53.7379 1.57314C51.5063 2.65511 49.7485 4.20384 48.4857 6.21753L49.7565 7.01447ZM54.3965 2.92082C56.4217 1.92333 58.7691 1.414 61.4571 1.414V-0.0860014C58.5771 -0.0860014 55.9965 0.460666 53.7337 1.57518L54.3965 2.92082ZM61.4571 1.414C64.1152 1.414 66.4321 1.90814 68.4259 2.87486L69.0803 1.52514C66.8502 0.443853 64.303 -0.0860014 61.4571 -0.0860014V1.414ZM68.4259 2.87486C70.4168 3.84013 71.9365 5.20109 73.0089 6.95865L74.2893 6.17735C73.0578 4.1589 71.3135 2.60787 69.0803 1.52514L68.4259 2.87486ZM73.0168 6.97136C74.116 8.69444 74.6751 10.6954 74.6751 13H76.1751C76.1751 10.4406 75.5502 8.15356 74.2814 6.16464L73.0168 6.97136ZM74.6751 13C74.6751 15.3384 74.1151 17.3733 73.0137 19.1295L74.2845 19.9265C75.5512 17.9067 76.1751 15.5896 76.1751 13H74.6751ZM73.0119 19.1325C71.9408 20.8581 70.4041 22.2231 68.3737 23.2232L69.0365 24.5688C71.2941 23.4569 73.0534 21.9099 74.2863 19.9235L73.0119 19.1325ZM68.3779 23.2211C66.3852 24.1873 64.0527 24.682 61.3611 24.682V26.182C64.2375 26.182 66.8011 25.6527 69.0323 24.5709L68.3779 23.2211ZM62.0331 23.974C64.8103 23.974 67.0768 23.0386 68.7428 21.1244L67.6114 20.1396C66.2695 21.6814 64.44 22.474 62.0331 22.474V23.974ZM68.7377 21.1303C70.4236 19.2336 71.2311 16.7368 71.2311 13.72H69.7311C69.7311 16.4632 69.0026 18.5744 67.6166 20.1337L68.7377 21.1303ZM71.2311 13.72C71.2311 11.5378 70.794 9.56237 69.9013 7.81136L68.5649 8.49264C69.3363 10.0056 69.7311 11.7422 69.7311 13.72H71.2311ZM69.9039 7.81659C69.013 6.03472 67.752 4.6309 66.1229 3.62572L65.3353 4.90228C66.7142 5.7531 67.7892 6.94128 68.5623 8.48741L69.9039 7.81659ZM66.1291 3.62956C64.5293 2.62098 62.7248 2.122 60.7371 2.122V3.622C62.4614 3.622 63.985 4.05102 65.3291 4.89844L66.1291 3.62956ZM60.7371 2.122C57.9552 2.122 55.6875 3.07687 54.0229 5.02476L55.1633 5.99924C56.5067 4.42713 58.335 3.622 60.7371 3.622V2.122ZM54.0274 5.01961C52.3777 6.91501 51.5871 9.39264 51.5871 12.376H53.0871C53.0871 9.66336 53.8005 7.56499 55.1588 6.00439L54.0274 5.01961ZM51.5871 12.376C51.5871 14.6186 52.0228 16.6405 52.9143 18.4234L54.2559 17.7526C53.4834 16.2075 53.0871 14.4213 53.0871 12.376H51.5871ZM52.9169 18.4286C53.8079 20.1764 55.0528 21.5478 56.6512 22.5206L57.4311 21.2394C56.0854 20.4202 55.0263 19.2636 54.2533 17.7474L52.9169 18.4286ZM56.6512 22.5206C58.2497 23.4937 60.0506 23.974 62.0331 23.974V22.474C60.3037 22.474 58.7765 22.0583 57.4311 21.2394L56.6512 22.5206ZM103.809 19.384L104.431 18.9644L104.428 18.9601L103.809 19.384ZM106.449 22.12L106.06 22.7611L106.073 22.7692L106.087 22.7767L106.449 22.12ZM109.857 22.984H110.607V22.2689L109.893 22.2348L109.857 22.984ZM109.665 25V25.75H110.219L110.382 25.2206L109.665 25ZM102.753 25.336L102.105 25.7139L102.353 26.1387L102.842 26.0808L102.753 25.336ZM101.457 23.32L100.819 23.7136L100.826 23.7249L100.833 23.736L101.457 23.32ZM99.2972 19.816L98.6531 20.2004L98.6588 20.2096L99.2972 19.816ZM94.5932 14.968L94.9972 14.3361L94.8017 14.2111L94.5698 14.2184L94.5932 14.968ZM93.0572 15.016L93.0314 15.7656L93.056 15.7664L93.0807 15.7656L93.0572 15.016ZM91.6652 14.968L91.6911 14.2184L90.9152 14.1917V14.968H91.6652ZM91.9052 21.688L91.1894 21.9117L91.1894 21.9117L91.9052 21.688ZM92.6732 22.744L92.3141 23.4024L92.3259 23.4088L92.3378 23.4148L92.6732 22.744ZM94.4012 23.08L95.1128 22.8428L94.9492 22.3522L94.4325 22.3307L94.4012 23.08ZM94.5932 25.096L94.5528 25.8449L95.3432 25.8876V25.096H94.5932ZM84.1292 25.096H83.3792V25.8733L84.156 25.8455L84.1292 25.096ZM84.3692 23.08L84.3094 22.3324L83.826 22.3711L83.6629 22.8277L84.3692 23.08ZM86.1452 22.696L85.831 22.015L85.8203 22.0199L85.8098 22.0252L86.1452 22.696ZM87.0092 21.688L86.2977 21.4508L86.2977 21.4508L87.0092 21.688ZM86.6732 3.784L87.2427 3.29591L87.2427 3.2959L86.6732 3.784ZM84.3692 3.016L83.6577 3.25317L83.8189 3.73658L84.3276 3.76484L84.3692 3.016ZM84.1292 0.903998L84.1687 0.155035L83.3792 0.113486V0.903998H84.1292ZM89.4092 1V1.75007L89.4197 1.74993L89.4092 1ZM92.8652 0.951998L92.8757 1.70193L92.8849 1.7018L92.8941 1.70144L92.8652 0.951998ZM104.193 11.8L104.724 12.3304L104.731 12.3232L104.193 11.8ZM99.2492 14.2L99.1043 13.4641L97.1926 13.8407L98.8634 14.8431L99.2492 14.2ZM101.217 15.88L100.632 16.3485L100.645 16.3647L100.658 16.3801L101.217 15.88ZM99.1532 11.416L99.5114 12.0751L99.5223 12.0689L99.1532 11.416ZM91.6652 3.208L91.5182 2.47256L90.9152 2.59315V3.208H91.6652ZM91.6652 12.472H90.9152V13.1225L91.5592 13.2145L91.6652 12.472ZM103.188 19.8036C104.086 21.1344 105.038 22.1408 106.06 22.7611L106.838 21.4789C106.068 21.0112 105.261 20.1936 104.431 18.9644L103.188 19.8036ZM106.087 22.7767C107.139 23.3569 108.393 23.6651 109.822 23.7332L109.893 22.2348C108.633 22.1749 107.616 21.9071 106.812 21.4633L106.087 22.7767ZM109.107 22.984C109.107 23.902 109.041 24.4779 108.948 24.7794L110.382 25.2206C110.545 24.6901 110.607 23.922 110.607 22.984H109.107ZM109.665 24.25C106.927 24.25 104.592 24.3626 102.665 24.5912L102.842 26.0808C104.691 25.8614 106.963 25.75 109.665 25.75V24.25ZM103.401 24.9581C103.164 24.5522 102.721 23.8629 102.081 22.904L100.833 23.736C101.474 24.6971 101.894 25.3518 102.105 25.7139L103.401 24.9581ZM102.096 22.9264L99.9357 19.4224L98.6588 20.2096L100.819 23.7136L102.096 22.9264ZM99.9413 19.4317C98.6974 17.3473 97.0471 15.6467 94.9972 14.3361L94.1893 15.5999C96.0434 16.7853 97.5291 18.3167 98.6532 20.2003L99.9413 19.4317ZM94.5698 14.2184L93.0338 14.2664L93.0807 15.7656L94.6167 15.7176L94.5698 14.2184ZM93.0831 14.2664L91.6911 14.2184L91.6394 15.7176L93.0314 15.7656L93.0831 14.2664ZM90.9152 14.968V19.336H92.4152V14.968H90.9152ZM90.9152 19.336C90.9152 20.4094 90.9942 21.2871 91.1894 21.9117L92.6211 21.4643C92.4963 21.0649 92.4152 20.3746 92.4152 19.336H90.9152ZM91.1894 21.9117C91.3873 22.545 91.7401 23.0893 92.3141 23.4024L93.0324 22.0856C92.9024 22.0147 92.7432 21.855 92.6211 21.4643L91.1894 21.9117ZM92.3378 23.4148C92.8641 23.678 93.5669 23.7959 94.37 23.8293L94.4325 22.3307C93.6996 22.3001 93.2504 22.194 93.0087 22.0732L92.3378 23.4148ZM93.6897 23.3172C93.7754 23.5742 93.8432 24.1363 93.8432 25.096H95.3432C95.3432 24.1357 95.2831 23.3538 95.1128 22.8428L93.6897 23.3172ZM94.6337 24.3471C93.429 24.282 91.6687 24.25 89.3612 24.25V25.75C91.6618 25.75 93.3895 25.782 94.5528 25.8449L94.6337 24.3471ZM89.3612 24.25C87.6558 24.25 85.9029 24.2822 84.1025 24.3465L84.156 25.8455C85.9396 25.7818 87.6747 25.75 89.3612 25.75V24.25ZM84.8792 25.096C84.8792 24.2239 84.9598 23.6564 85.0756 23.3323L83.6629 22.8277C83.4587 23.3996 83.3792 24.1761 83.3792 25.096H84.8792ZM84.4291 23.8276C85.2563 23.7614 85.9651 23.6246 86.4807 23.3668L85.8098 22.0252C85.5574 22.1514 85.0822 22.2706 84.3094 22.3324L84.4291 23.8276ZM86.4595 23.377C87.0842 23.0887 87.5029 22.5789 87.7208 21.9252L86.2977 21.4508C86.1956 21.7571 86.0383 21.9193 85.831 22.015L86.4595 23.377ZM87.7208 21.9252C87.9198 21.3279 87.9992 20.5099 87.9992 19.528H86.4992C86.4992 20.4661 86.4187 21.0881 86.2977 21.4508L87.7208 21.9252ZM87.9992 19.528V6.52H86.4992V19.528H87.9992ZM87.9992 6.52C87.9992 5.80215 87.9496 5.17411 87.8392 4.64949C87.7308 4.13474 87.5509 3.65547 87.2427 3.29591L86.1038 4.27209C86.1796 4.36053 86.2877 4.56125 86.3713 4.95851C86.4529 5.34589 86.4992 5.86185 86.4992 6.52H87.9992ZM87.2427 3.2959C86.6445 2.59802 85.5948 2.33293 84.4108 2.26715L84.3276 3.76484C85.4477 3.82707 85.934 4.07398 86.1038 4.27209L87.2427 3.2959ZM85.0808 2.77883C84.9593 2.41441 84.8792 1.80683 84.8792 0.903998H83.3792C83.3792 1.85717 83.4592 2.65759 83.6577 3.25317L85.0808 2.77883ZM84.0898 1.65296C85.3258 1.71801 87.1015 1.75 89.4092 1.75V0.25C87.109 0.25 85.3647 0.217984 84.1687 0.155035L84.0898 1.65296ZM89.4197 1.74993L92.8757 1.70193L92.8548 0.20207L89.3988 0.250072L89.4197 1.74993ZM92.8941 1.70144C94.5555 1.63754 95.808 1.606 96.6572 1.606V0.105999C95.7785 0.105999 94.503 0.138454 92.8364 0.202552L92.8941 1.70144ZM96.6572 1.606C99.6521 1.606 101.783 2.18639 103.165 3.23053L104.069 2.03347C102.316 0.709606 99.8064 0.105999 96.6572 0.105999V1.606ZM103.165 3.23053C104.558 4.28247 105.219 5.58682 105.219 7.192H106.719C106.719 5.08518 105.812 3.34952 104.069 2.03347L103.165 3.23053ZM105.219 7.192C105.219 8.87259 104.69 10.2146 103.656 11.2768L104.731 12.3232C106.064 10.9534 106.719 9.22341 106.719 7.192H105.219ZM103.663 11.2697C102.61 12.3221 101.112 13.0687 99.1043 13.4641L99.3942 14.9359C101.611 14.4993 103.408 13.6459 104.724 12.3303L103.663 11.2697ZM98.8634 14.8431C99.5974 15.2835 100.182 15.7871 100.632 16.3485L101.803 15.4115C101.228 14.6929 100.501 14.0765 99.6351 13.5569L98.8634 14.8431ZM100.658 16.3801C101.166 16.9475 102.005 18.0779 103.191 19.8079L104.428 18.9601C103.245 17.2341 102.357 16.0285 101.776 15.3799L100.658 16.3801ZM93.4892 13.366C95.8737 13.366 97.896 12.9529 99.5114 12.075L98.7951 10.757C97.4665 11.4791 95.7128 11.866 93.4892 11.866V13.366ZM99.5223 12.0689C101.207 11.1166 102.111 9.67938 102.111 7.816H100.611C100.611 9.08862 100.043 10.0514 98.7842 10.7631L99.5223 12.0689ZM102.111 7.816C102.111 5.9927 101.473 4.52127 100.123 3.53782C98.8172 2.58655 96.9501 2.17 94.6412 2.17V3.67C96.8124 3.67 98.3053 4.06945 99.2396 4.75018C100.13 5.39873 100.611 6.37529 100.611 7.816H102.111ZM94.6412 2.17C93.5701 2.17 92.5288 2.27044 91.5182 2.47256L91.8123 3.94343C92.7217 3.76155 93.6644 3.67 94.6412 3.67V2.17ZM90.9152 3.208V12.472H92.4152V3.208H90.9152ZM91.5592 13.2145C92.2581 13.3143 92.9023 13.366 93.4892 13.366V11.866C92.9882 11.866 92.4164 11.8217 91.7713 11.7295L91.5592 13.2145ZM136.987 19.096L136.429 19.5971L136.431 19.5996L136.987 19.096ZM143.563 22.936H144.313V22.2288L143.607 22.1873L143.563 22.936ZM143.323 25V25.75H143.864L144.035 25.2372L143.323 25ZM136.699 25.288L136.11 25.7519L136.369 26.0811L136.785 26.0331L136.699 25.288ZM131.755 19.672L132.301 19.1575L132.301 19.1575L131.755 19.672ZM125.659 13.576L126.171 13.028L124.909 11.8487V13.576H125.659ZM126.235 22.168L125.649 22.6365L125.667 22.6581L125.685 22.6783L126.235 22.168ZM128.587 22.936L129.312 22.7428L129.172 22.2173L128.629 22.1872L128.587 22.936ZM128.779 25.096L128.757 25.8457L129.529 25.8684V25.096H128.779ZM118.123 25.096H117.373V25.8706L118.147 25.8456L118.123 25.096ZM118.363 22.936L118.303 22.1884L117.82 22.2271L117.657 22.6837L118.363 22.936ZM120.139 22.552L119.825 21.871L119.814 21.8759L119.804 21.8812L120.139 22.552ZM121.003 4.456L121.715 4.21883L121.715 4.21883L121.003 4.456ZM120.139 3.448L119.804 4.11882L119.814 4.12406L119.825 4.12897L120.139 3.448ZM118.363 3.064L117.651 3.30117L117.808 3.77203L118.303 3.81161L118.363 3.064ZM118.123 0.903998L118.146 0.154364L117.373 0.130194V0.903998H118.123ZM128.779 0.903998H129.529V0.132263L128.758 0.154304L128.779 0.903998ZM128.587 3.064L128.629 3.81284L129.162 3.78324L129.308 3.27004L128.587 3.064ZM126.235 3.832L125.685 3.32166L125.675 3.33259L125.666 3.34391L126.235 3.832ZM125.659 12.424H124.909V14.0017L126.133 13.0056L125.659 12.424ZM133.147 6.328L132.675 5.74506L132.674 5.74637L133.147 6.328ZM133.723 3.064L133.007 3.28771L133.16 3.77816L133.673 3.81234L133.723 3.064ZM133.483 0.903998L133.52 0.154934L132.733 0.115561V0.903998H133.483ZM142.459 0.903998H143.209V0.122097L142.428 0.154649L142.459 0.903998ZM142.171 3.064L142.196 3.81358L142.708 3.79652L142.878 3.31361L142.171 3.064ZM139.435 3.736L139.11 3.06017L139.1 3.06518L139.435 3.736ZM136.123 5.896L135.675 5.29432L135.655 5.30906L135.637 5.32507L136.123 5.896ZM129.643 11.416L129.157 10.8451L128.523 11.3845L129.125 11.9587L129.643 11.416ZM136.431 19.5996C137.406 20.6757 138.516 21.6005 139.759 22.373L140.551 21.099C139.426 20.3995 138.424 19.5643 137.543 18.5924L136.431 19.5996ZM139.759 22.373C141.02 23.157 142.276 23.6116 143.519 23.6847L143.607 22.1873C142.674 22.1324 141.658 21.787 140.551 21.099L139.759 22.373ZM142.813 22.936C142.813 23.8034 142.734 24.3966 142.611 24.7628L144.035 25.2372C144.232 24.6434 144.313 23.8606 144.313 22.936H142.813ZM143.323 24.25C140.558 24.25 138.318 24.3462 136.613 24.5429L136.785 26.0331C138.408 25.8458 140.584 25.75 143.323 25.75V24.25ZM137.288 24.8241C136.085 23.2954 134.42 21.4052 132.301 19.1575L131.209 20.1865C133.314 22.4188 134.945 24.2726 136.11 25.7519L137.288 24.8241ZM132.301 19.1575C130.179 16.9077 128.136 14.8643 126.171 13.028L125.147 14.124C127.086 15.9357 129.107 17.9563 131.209 20.1865L132.301 19.1575ZM124.909 13.576V19.384H126.409V13.576H124.909ZM124.909 19.384C124.909 20.1023 124.959 20.7331 125.069 21.264C125.177 21.7869 125.354 22.2676 125.649 22.6365L126.821 21.6995C126.732 21.5884 126.621 21.3651 126.537 20.96C126.455 20.5629 126.409 20.0417 126.409 19.384H124.909ZM125.685 22.6783C126.31 23.3509 127.352 23.6186 128.545 23.6848L128.629 22.1872C127.518 22.1254 126.992 21.8811 126.785 21.6577L125.685 22.6783ZM127.862 23.1292C127.964 23.5121 128.029 24.1526 128.029 25.096H129.529C129.529 24.1194 129.466 23.3199 129.312 22.7428L127.862 23.1292ZM128.801 24.3463C126.622 24.2822 124.853 24.25 123.499 24.25V25.75C124.833 25.75 126.584 25.7818 128.757 25.8457L128.801 24.3463ZM123.499 24.25C121.889 24.25 120.089 24.2822 118.099 24.3464L118.147 25.8456C120.125 25.7818 121.909 25.75 123.499 25.75V24.25ZM118.873 25.096C118.873 24.1174 118.955 23.5074 119.069 23.1883L117.657 22.6837C117.451 23.2606 117.373 24.0906 117.373 25.096H118.873ZM118.423 23.6836C119.25 23.6174 119.959 23.4806 120.474 23.2228L119.804 21.8812C119.551 22.0074 119.076 22.1266 118.303 22.1884L118.423 23.6836ZM120.453 23.233C121.078 22.9447 121.497 22.4349 121.715 21.7812L120.291 21.3068C120.189 21.6131 120.032 21.7753 119.825 21.871L120.453 23.233ZM121.715 21.7812C121.914 21.1839 121.993 20.3659 121.993 19.384H120.493C120.493 20.3221 120.412 20.9441 120.291 21.3068L121.715 21.7812ZM121.993 19.384V6.568H120.493V19.384H121.993ZM121.993 6.568C121.993 5.61483 121.913 4.81441 121.715 4.21883L120.291 4.69317C120.413 5.05759 120.493 5.66517 120.493 6.568H121.993ZM121.715 4.21883C121.497 3.56512 121.078 3.05534 120.453 2.76703L119.825 4.12897C120.032 4.22466 120.189 4.38688 120.291 4.69317L121.715 4.21883ZM120.474 2.77718C119.959 2.51941 119.25 2.38257 118.423 2.31639L118.303 3.81161C119.076 3.87343 119.551 3.99258 119.804 4.11882L120.474 2.77718ZM119.075 2.82683C118.954 2.46408 118.873 1.84211 118.873 0.903998H117.373C117.373 1.88589 117.452 2.70392 117.651 3.30117L119.075 2.82683ZM118.1 1.65363C120.153 1.7178 121.953 1.75 123.499 1.75V0.25C121.973 0.25 120.189 0.218196 118.146 0.154364L118.1 1.65363ZM123.499 1.75C124.79 1.75 126.558 1.71777 128.8 1.65369L128.758 0.154304C126.52 0.218228 124.768 0.25 123.499 0.25V1.75ZM128.029 0.903998C128.029 1.88647 127.963 2.51713 127.866 2.85796L129.308 3.27004C129.467 2.71487 129.529 1.90553 129.529 0.903998H128.029ZM128.545 2.31515C127.352 2.38144 126.31 2.64908 125.685 3.32166L126.785 4.34234C126.992 4.11892 127.518 3.87456 128.629 3.81284L128.545 2.31515ZM125.666 3.34391C125.357 3.70347 125.177 4.18274 125.069 4.69749C124.959 5.22211 124.909 5.85015 124.909 6.568H126.409C126.409 5.90985 126.455 5.39389 126.537 5.00651C126.621 4.60925 126.729 4.40853 126.804 4.32009L125.666 3.34391ZM124.909 6.568V12.424H126.409V6.568H124.909ZM126.133 13.0056L133.621 6.90963L132.674 5.74637L125.186 11.8424L126.133 13.0056ZM133.619 6.91093C134.309 6.3525 134.856 5.84029 135.238 5.37678C135.595 4.94313 135.913 4.42792 135.913 3.88H134.413C134.413 3.87608 134.395 4.04087 134.08 4.42322C133.79 4.77571 133.329 5.2155 132.675 5.74506L133.619 6.91093ZM135.913 3.88C135.913 3.32468 135.606 2.90875 135.173 2.66348C134.787 2.4449 134.294 2.35037 133.773 2.31566L133.673 3.81234C134.112 3.84163 134.339 3.9151 134.433 3.96852C134.472 3.99024 134.46 3.99333 134.441 3.96253C134.418 3.92678 134.413 3.89164 134.413 3.88H135.913ZM134.439 2.84029C134.312 2.43481 134.233 1.80289 134.233 0.903998H132.733C132.733 1.86111 132.814 2.66919 133.007 3.28771L134.439 2.84029ZM133.446 1.65306C134.741 1.71784 136.226 1.75 137.899 1.75V0.25C136.244 0.25 134.785 0.21816 133.52 0.154934L133.446 1.65306ZM137.899 1.75C139.414 1.75 140.944 1.71777 142.49 1.65335L142.428 0.154649C140.902 0.218226 139.392 0.25 137.899 0.25V1.75ZM141.709 0.903998C141.709 1.75667 141.616 2.3822 141.464 2.81438L142.878 3.31361C143.11 2.65779 143.209 1.84332 143.209 0.903998H141.709ZM142.146 2.31442C141.082 2.34988 140.068 2.59895 139.11 3.06025L139.76 4.41175C140.53 4.04104 141.34 3.84212 142.196 3.81358L142.146 2.31442ZM139.1 3.06518C138.208 3.5109 137.062 4.26205 135.675 5.29432L136.571 6.49767C137.936 5.48195 138.998 4.7931 139.77 4.40682L139.1 3.06518ZM135.637 5.32507L129.157 10.8451L130.129 11.9869L136.609 6.46693L135.637 5.32507ZM129.125 11.9587C131.187 13.9248 133.621 16.4695 136.429 19.5971L137.545 18.5949C134.721 15.4505 132.259 12.8752 130.161 10.8733L129.125 11.9587Z" fill="#F2F2F2"/>
</svg>
