<svg width="574" height="213" viewBox="0 0 574 213" fill="none" xmlns="http://www.w3.org/2000/svg">
<path d="M88.5 44.8H90.5V42.7149L88.4167 42.8017L88.5 44.8ZM87.8 49.3L88.3048 51.2352L89.3544 50.9614L89.6974 49.9325L87.8 49.3ZM84 52L82.3725 50.8375L82.367 50.8453L82.3615 50.8531L84 52ZM80.5 59.9L82.3813 60.5788L82.3842 60.5706L80.5 59.9ZM67.8 95.1L68.5023 96.9727L69.3676 96.6481L69.6813 95.7788L67.8 95.1ZM63.6 95.7L61.7572 96.4771L62.2728 97.7H63.6V95.7ZM52.6 72.9L50.8083 73.7888L50.8158 73.8039L50.8236 73.8188L52.6 72.9ZM46.3 60.2L48.0917 59.3112L46.1427 55.3823L44.4542 59.43L46.3 60.2ZM31.7 95.2L32.3727 97.0835L33.2054 96.7861L33.5458 95.97L31.7 95.2ZM27.4 95.7L25.5279 96.4036L26.0151 97.7H27.4V95.7ZM12 58.5L10.1658 59.2975L10.169 59.3047L12 58.5ZM9.1 52.3L7.31115 53.1944L7.33295 53.238L7.35685 53.2805L9.1 52.3ZM7.4 50.2L6.2 51.8L6.30929 51.882L6.42872 51.9483L7.4 50.2ZM5 49.4L3.07296 49.9353L3.42963 51.2193L4.75193 51.3846L5 49.4ZM4.5 44.8L4.57138 42.8013L2.5 42.7273V44.8H4.5ZM26 44.8H28V42.7385L25.9394 42.8009L26 44.8ZM25.6 49.3L25.7288 51.2958L27.2602 51.197L27.5612 49.6922L25.6 49.3ZM21.2 50.2L22.0381 52.0159L22.094 51.9901L22.1482 51.9609L21.2 50.2ZM21.6 57.4L23.4207 56.5724L23.4174 56.565L21.6 57.4ZM25.4 65.4L27.2001 64.5284L27.1964 64.5209L25.4 65.4ZM32 79.7L30.1538 80.4692L31.9874 84.8697L33.8424 80.4782L32 79.7ZM46.7 44.9L45.982 43.0333L45.1885 43.3385L44.8576 44.1218L46.7 44.9ZM50.9 44.4L52.7057 43.5401L52.1628 42.4H50.9V44.4ZM57.1 57L58.8889 56.1056L58.8889 56.1056L57.1 57ZM68.1 79.8L66.2744 80.6167L68.203 84.9277L69.957 80.5428L68.1 79.8ZM76.1 59.8L77.957 60.5428L77.9703 60.5095L77.9824 60.4757L76.1 59.8ZM76.1 50.8L74.8081 52.3268L74.8708 52.3798L74.9375 52.4275L76.1 50.8ZM71.9 49.3L70.0123 49.9607L70.416 51.1142L71.6267 51.2812L71.9 49.3ZM71.2 44.8L71.2799 42.8016L69.2 42.7184V44.8H71.2ZM80 47C82.5012 47 85.3632 46.9324 88.5833 46.7983L88.4167 42.8017C85.2368 42.9342 82.4322 43 80 43V47ZM86.5 44.8C86.5 46.2031 86.2958 47.4879 85.9026 48.6675L89.6974 49.9325C90.2375 48.3121 90.5 46.5969 90.5 44.8H86.5ZM87.2952 47.3648C85.2687 47.8934 83.6197 49.0915 82.3725 50.8375L85.6275 53.1625C86.3803 52.1085 87.2647 51.5066 88.3048 51.2352L87.2952 47.3648ZM82.3615 50.8531C81.2539 52.4354 80.0108 55.3101 78.6158 59.2294L82.3842 60.5706C83.7892 56.6232 84.8794 54.2313 85.6385 53.1469L82.3615 50.8531ZM78.6187 59.2212L65.9187 94.4212L69.6813 95.7788L82.3813 60.5788L78.6187 59.2212ZM67.0978 93.2273C66.3409 93.5112 65.2056 93.7 63.6 93.7V97.7C65.4611 97.7 67.1258 97.4888 68.5023 96.9727L67.0978 93.2273ZM65.4429 94.9229C63.0792 89.3177 59.3845 81.6635 54.3764 71.9812L50.8236 73.8188C55.8155 83.4698 59.4541 91.0157 61.7572 96.4771L65.4429 94.9229ZM54.3917 72.0112L48.0917 59.3112L44.5083 61.0888L50.8083 73.7888L54.3917 72.0112ZM44.4542 59.43L29.8542 94.43L33.5458 95.97L48.1458 60.97L44.4542 59.43ZM31.0273 93.3165C30.429 93.5302 29.2792 93.7 27.4 93.7V97.7C29.3875 97.7 31.1043 97.5365 32.3727 97.0835L31.0273 93.3165ZM29.2721 94.9964C25.5212 85.0162 20.3722 72.5799 13.831 57.6953L10.169 59.3047C16.6945 74.1534 21.8121 86.5171 25.5279 96.4036L29.2721 94.9964ZM13.8341 57.7025C12.5048 54.645 11.5005 52.488 10.8432 51.3195L7.35685 53.2805C7.89955 54.2453 8.82857 56.2217 10.1659 59.2975L13.8341 57.7025ZM10.8889 51.4056C10.2929 50.2136 9.49904 49.0782 8.37128 48.4517L6.42872 51.9483C6.50096 51.9885 6.84044 52.253 7.31115 53.1944L10.8889 51.4056ZM8.6 48.6C7.66713 47.9003 6.47006 47.5682 5.24807 47.4154L4.75193 51.3846C5.66327 51.4985 6.0662 51.6996 6.2 51.8L8.6 48.6ZM6.92704 48.8647C6.65976 47.9025 6.5 46.5663 6.5 44.8H2.5C2.5 46.7671 2.67357 48.4975 3.07296 49.9353L6.92704 48.8647ZM4.42862 46.7987C8.18192 46.9328 11.6727 47 14.9 47V43C11.7273 43 8.28475 42.9339 4.57138 42.8013L4.42862 46.7987ZM14.9 47C17.9271 47 21.6488 46.9328 26.0606 46.7991L25.9394 42.8009C21.5512 42.9339 17.8729 43 14.9 43V47ZM24 44.8C24 46.3632 23.8747 47.7286 23.6388 48.9078L27.5612 49.6922C27.8587 48.2047 28 46.5701 28 44.8H24ZM25.4712 47.3041C23.3658 47.44 21.5244 47.7538 20.2518 48.4391L22.1482 51.9609C22.6089 51.7129 23.7009 51.4267 25.7288 51.2958L25.4712 47.3041ZM20.3619 48.3841C19.6554 48.7102 19.0083 49.2021 18.5481 49.91C18.0861 50.6208 17.9 51.4149 17.9 52.2H21.9C21.9 52.1214 21.9091 52.0825 21.9117 52.0728C21.9137 52.0653 21.9119 52.0746 21.9019 52.09C21.8921 52.1051 21.8869 52.1068 21.8999 52.0961C21.9146 52.0841 21.9554 52.0541 22.0381 52.0159L20.3619 48.3841ZM17.9 52.2C17.9 53.0182 18.1197 53.9407 18.424 54.8715C18.7396 55.8367 19.1978 56.9622 19.7826 58.235L23.4174 56.565C22.8688 55.3711 22.4771 54.3967 22.226 53.6285C21.9636 52.826 21.9 52.3818 21.9 52.2H17.9ZM19.7793 58.2276C20.7897 60.4506 22.0652 63.1355 23.6036 66.2791L27.1964 64.5209C25.6681 61.3979 24.4103 58.7494 23.4207 56.5724L19.7793 58.2276ZM23.5999 66.2716C26.6633 72.5981 28.843 77.3233 30.1538 80.4692L33.8462 78.9308C32.4903 75.6767 30.2701 70.8686 27.2001 64.5284L23.5999 66.2716ZM33.8424 80.4782L48.5424 45.6782L44.8576 44.1218L30.1576 78.9218L33.8424 80.4782ZM47.418 46.7667C47.9197 46.5737 49.0048 46.4 50.9 46.4V42.4C48.9286 42.4 47.2136 42.5596 45.982 43.0333L47.418 46.7667ZM49.0943 45.2599C50.4362 48.0779 52.5099 52.292 55.3111 57.8944L58.8889 56.1056C56.0901 50.508 54.0305 46.3221 52.7057 43.5401L49.0943 45.2599ZM55.3111 57.8944C60.3753 68.0227 64.026 75.5911 66.2744 80.6167L69.9256 78.9833C67.6406 73.8756 63.9581 66.244 58.8889 56.1056L55.3111 57.8944ZM69.957 80.5428L77.957 60.5428L74.2431 59.0572L66.2431 79.0572L69.957 80.5428ZM77.9824 60.4757C78.9284 57.8403 79.5 55.5991 79.5 53.9H75.5C75.5 54.8675 75.1382 56.5597 74.2176 59.1243L77.9824 60.4757ZM79.5 53.9C79.5 52.0148 78.8398 50.2992 77.2625 49.1725L74.9375 52.4275C75.2269 52.6341 75.5 52.9852 75.5 53.9H79.5ZM77.3919 49.2732C76.0948 48.1757 74.244 47.6044 72.1733 47.3188L71.6267 51.2812C73.4227 51.529 74.3719 51.9577 74.8081 52.3268L77.3919 49.2732ZM73.7877 48.6393C73.4074 47.5526 73.2 46.2812 73.2 44.8H69.2C69.2 46.6522 69.4593 48.3807 70.0123 49.9607L73.7877 48.6393ZM71.1201 46.7984C74.4722 46.9325 77.4332 47 80 47V43C77.5001 43 74.5944 42.9342 71.2799 42.8016L71.1201 46.7984ZM111.392 92.7L110.52 94.4996L110.52 94.4996L111.392 92.7ZM101.092 83.7L99.3929 84.7547L99.3994 84.7652L99.4061 84.7756L101.092 83.7ZM101.092 56.7L99.3978 55.6374L99.3913 55.6478L99.3849 55.6583L101.092 56.7ZM111.392 47.6L112.265 49.3997L112.276 49.3942L111.392 47.6ZM141.992 47.5L141.12 49.2996L141.12 49.2996L141.992 47.5ZM152.192 56.6L150.485 57.6417L150.495 57.6588L150.506 57.6756L152.192 56.6ZM152.192 83.6L150.498 82.5374L150.493 82.5453L152.192 83.6ZM141.892 92.7L142.765 94.4997L142.776 94.4942L141.892 92.7ZM140.792 85.9L139.297 84.5713L139.29 84.5791L139.284 84.587L140.792 85.9ZM142.992 59.9L141.203 60.7944L141.207 60.8014L141.21 60.8084L142.992 59.9ZM135.692 51.8L134.626 53.4918L134.634 53.497L134.642 53.5021L135.692 51.8ZM112.492 54.4L114.001 55.713L114.007 55.7062L114.013 55.6993L112.492 54.4ZM110.392 80.6L108.603 81.4944L108.607 81.5014L108.61 81.5084L110.392 80.6ZM117.592 88.5L118.632 86.7916L118.632 86.7916L117.592 88.5ZM126.592 93.9C121.109 93.9 116.35 92.8809 112.265 90.9004L110.52 94.4996C115.235 96.7857 120.608 97.9 126.592 97.9V93.9ZM112.265 90.9004C108.175 88.9173 105.033 86.1583 102.778 82.6244L99.4061 84.7756C102.085 88.9751 105.81 92.216 110.52 94.4996L112.265 90.9004ZM102.791 82.6453C100.612 79.1345 99.4922 75.0096 99.4922 70.2H95.4922C95.4922 75.6571 96.772 80.5322 99.3929 84.7547L102.791 82.6453ZM99.4922 70.2C99.4922 65.4631 100.61 61.3305 102.799 57.7417L99.3849 55.6583C96.7747 59.9361 95.4922 64.8036 95.4922 70.2H99.4922ZM102.787 57.7626C105.043 54.1644 108.184 51.3784 112.265 49.3996L110.52 45.8004C105.801 48.0883 102.075 51.3689 99.3978 55.6374L102.787 57.7626ZM112.276 49.3942C116.426 47.3502 121.248 46.3 126.792 46.3V42.3C120.736 42.3 115.292 43.4498 110.508 45.8058L112.276 49.3942ZM126.792 46.3C132.275 46.3 137.035 47.3191 141.12 49.2996L142.865 45.7004C138.15 43.4143 132.776 42.3 126.792 42.3V46.3ZM141.12 49.2996C145.197 51.2763 148.297 54.0563 150.485 57.6417L153.899 55.5583C151.287 51.2771 147.588 47.9903 142.865 45.7004L141.12 49.2996ZM150.506 57.6756C152.747 61.1878 153.892 65.2731 153.892 70H157.892C157.892 64.5935 156.571 59.7455 153.878 55.5244L150.506 57.6756ZM153.892 70C153.892 74.7985 152.744 78.9556 150.498 82.5374L153.887 84.6626C156.574 80.3777 157.892 75.4682 157.892 70H153.892ZM150.493 82.5453C148.309 86.0644 145.172 88.855 141.008 90.9058L142.776 94.4942C147.546 92.145 151.276 88.8689 153.891 84.6547L150.493 82.5453ZM141.02 90.9004C136.938 92.8795 132.146 93.9 126.592 93.9V97.9C132.639 97.9 138.047 96.7872 142.765 94.4996L141.02 90.9004ZM127.992 93.3C133.886 93.3 138.735 91.3096 142.301 87.213L139.284 84.587C136.582 87.6904 132.898 89.3 127.992 89.3V93.3ZM142.287 87.2287C145.887 83.1789 147.592 77.8648 147.592 71.5H143.592C143.592 77.1352 142.097 81.4211 139.297 84.5713L142.287 87.2287ZM147.592 71.5C147.592 66.894 146.669 62.709 144.774 58.9916L141.21 60.8084C142.782 63.891 143.592 67.4393 143.592 71.5H147.592ZM144.781 59.0056C142.891 55.2246 140.209 52.2371 136.742 50.0979L134.642 53.5021C137.442 55.2296 139.627 57.6421 141.203 60.7944L144.781 59.0056ZM136.759 50.1081C133.351 47.9599 129.51 46.9 125.292 46.9V50.9C128.808 50.9 131.9 51.7734 134.626 53.4918L136.759 50.1081ZM125.292 46.9C119.386 46.9 114.533 48.933 110.972 53.1007L114.013 55.6993C116.718 52.5337 120.399 50.9 125.292 50.9V46.9ZM110.984 53.0869C107.462 57.1334 105.792 62.4057 105.792 68.7H109.792C109.792 63.1276 111.256 58.8666 114.001 55.713L110.984 53.0869ZM105.792 68.7C105.792 73.4297 106.711 77.7105 108.603 81.4944L112.181 79.7056C110.606 76.5561 109.792 72.9036 109.792 68.7H105.792ZM108.61 81.5084C110.501 85.2169 113.149 88.1367 116.552 90.2084L118.632 86.7916C115.902 85.13 113.75 82.7831 112.174 79.6916L108.61 81.5084ZM116.552 90.2084C119.956 92.2805 123.788 93.3 127.992 93.3V89.3C124.463 89.3 121.361 88.4528 118.632 86.7916L116.552 90.2084ZM210.026 83.3L211.684 82.181L211.676 82.1695L210.026 83.3ZM215.526 89L214.488 90.7096L214.523 90.7311L214.56 90.7512L215.526 89ZM222.626 90.8H224.626V88.893L222.721 88.8023L222.626 90.8ZM222.226 95V97H223.703L224.137 95.5882L222.226 95ZM207.826 95.7L206.098 96.7077L206.759 97.8406L208.061 97.6861L207.826 95.7ZM205.126 91.5L203.423 92.5495L203.442 92.5798L203.462 92.6094L205.126 91.5ZM200.626 84.2L198.908 85.2249L198.916 85.2373L198.923 85.2495L200.626 84.2ZM190.826 74.1L191.903 72.415L191.382 72.0816L190.763 72.101L190.826 74.1ZM187.626 74.2L187.557 76.1988L187.623 76.2011L187.688 76.199L187.626 74.2ZM184.726 74.1L184.795 72.1012L182.726 72.0298V74.1H184.726ZM185.226 88.1L183.317 88.6965L183.317 88.6966L185.226 88.1ZM186.826 90.3L185.868 92.0558L185.899 92.0729L185.931 92.0889L186.826 90.3ZM190.426 91L192.323 90.3675L191.887 89.0591L190.509 89.0017L190.426 91ZM190.826 95.2L190.718 97.1971L192.826 97.311V95.2H190.826ZM169.026 95.2H167.026V97.2727L169.097 97.1987L169.026 95.2ZM169.526 91L169.366 89.0064L168.077 89.1095L167.642 90.3273L169.526 91ZM173.226 90.2L172.388 88.3841L172.359 88.3972L172.331 88.4111L173.226 90.2ZM175.026 88.1L173.128 87.4675L173.128 87.4675L175.026 88.1ZM174.326 50.8L175.844 49.4984L175.844 49.4984L174.326 50.8ZM169.526 49.2L167.628 49.8325L168.058 51.1215L169.415 51.1969L169.526 49.2ZM169.026 44.8L169.131 42.8028L167.026 42.692V44.8H169.026ZM180.026 45V47H180.04L180.054 46.9998L180.026 45ZM187.226 44.9L187.254 46.8998L187.278 46.8995L187.303 46.8985L187.226 44.9ZM209.626 48.4L210.831 46.8039L209.626 48.4ZM210.826 67.5L212.24 68.9142L212.249 68.9048L212.259 68.8952L210.826 67.5ZM200.526 72.5L200.139 70.5377L195.042 71.5418L199.497 74.215L200.526 72.5ZM204.626 76L203.064 77.2494L203.099 77.2925L203.135 77.3336L204.626 76ZM200.326 66.7L201.281 68.4572L201.295 68.4493L201.31 68.4411L200.326 66.7ZM184.726 49.6L184.334 47.6388L182.726 47.9604V49.6H184.726ZM184.726 68.9H182.726V70.6346L184.443 70.8799L184.726 68.9ZM208.368 84.4189C210.26 87.2211 212.286 89.3727 214.488 90.7096L216.564 87.2904C215.032 86.3606 213.392 84.7123 211.683 82.1811L208.368 84.4189ZM214.56 90.7512C216.823 91.9998 219.505 92.6537 222.531 92.7977L222.721 88.8023C220.146 88.6797 218.095 88.1335 216.492 87.2488L214.56 90.7512ZM220.626 90.8C220.626 92.7067 220.487 93.8503 220.314 94.4118L224.137 95.5882C224.498 94.4163 224.626 92.7599 224.626 90.8H220.626ZM222.226 93C216.511 93 211.627 93.235 207.59 93.7139L208.061 97.6861C211.891 97.2317 216.607 97 222.226 97V93ZM209.553 94.6923C209.053 93.8339 208.121 92.3878 206.79 90.3906L203.462 92.6094C204.797 94.6122 205.666 95.9661 206.098 96.7077L209.553 94.6923ZM206.828 90.4505L202.328 83.1505L198.923 85.2495L203.423 92.5495L206.828 90.4505ZM202.343 83.1751C199.717 78.7742 196.231 75.1818 191.903 72.415L189.748 75.785C193.554 78.2182 196.601 81.3591 198.908 85.2249L202.343 83.1751ZM190.763 72.101L187.563 72.201L187.688 76.199L190.888 76.099L190.763 72.101ZM187.695 72.2012L184.795 72.1012L184.657 76.0988L187.557 76.1988L187.695 72.2012ZM182.726 74.1V83.2H186.726V74.1H182.726ZM182.726 83.2C182.726 85.4463 182.89 87.3296 183.317 88.6965L187.135 87.5034C186.895 86.7371 186.726 85.3537 186.726 83.2H182.726ZM183.317 88.6966C183.751 90.0866 184.543 91.3328 185.868 92.0558L187.783 88.5442C187.642 88.4672 187.367 88.2467 187.135 87.5034L183.317 88.6966ZM185.931 92.0889C187.111 92.6785 188.649 92.9277 190.343 92.9983L190.509 89.0017C189.003 88.939 188.141 88.7214 187.72 88.5111L185.931 92.0889ZM188.528 91.6325C188.682 92.094 188.826 93.2008 188.826 95.2H192.826C192.826 93.1992 192.703 91.506 192.323 90.3675L188.528 91.6325ZM190.934 93.2029C188.412 93.0666 184.735 93 179.926 93V97C184.717 97 188.306 97.0667 190.718 97.1971L190.934 93.2029ZM179.926 93C176.367 93 172.71 93.0671 168.954 93.2013L169.097 97.1987C172.808 97.0662 176.418 97 179.926 97V93ZM171.026 95.2C171.026 93.3972 171.194 92.2757 171.409 91.6727L167.642 90.3273C167.191 91.5909 167.026 93.2695 167.026 95.2H171.026ZM169.685 92.9936C171.425 92.8545 172.969 92.5642 174.12 91.9889L172.331 88.4111C171.882 88.6358 170.96 88.8788 169.366 89.0064L169.685 92.9936ZM174.064 92.0159C175.487 91.3591 176.435 90.1957 176.923 88.7325L173.128 87.4675C172.949 88.0043 172.698 88.2409 172.388 88.3841L174.064 92.0159ZM176.923 88.7325C177.361 87.4198 177.526 85.6584 177.526 83.6H173.526C173.526 85.5416 173.358 86.7802 173.128 87.4675L176.923 88.7325ZM177.526 83.6V56.5H173.526V83.6H177.526ZM177.526 56.5C177.526 54.9871 177.421 53.6459 177.183 52.513C176.95 51.4063 176.554 50.3266 175.844 49.4984L172.807 52.1016C172.897 52.2067 173.102 52.5437 173.269 53.337C173.43 54.104 173.526 55.1463 173.526 56.5H177.526ZM175.844 49.4984C174.473 47.8987 172.122 47.3411 169.637 47.2031L169.415 51.1969C171.73 51.3255 172.578 51.8346 172.807 52.1016L175.844 49.4984ZM171.423 48.5675C171.193 47.8758 171.026 46.6662 171.026 44.8H167.026C167.026 46.8005 167.192 48.5242 167.628 49.8325L171.423 48.5675ZM168.921 46.7972C171.507 46.9334 175.216 47 180.026 47V43C175.236 43 171.611 42.9333 169.131 42.8028L168.921 46.7972ZM180.054 46.9998L187.254 46.8998L187.198 42.9002L179.998 43.0002L180.054 46.9998ZM187.303 46.8985C190.763 46.7654 193.365 46.7 195.126 46.7V42.7C193.286 42.7 190.622 42.7679 187.149 42.9015L187.303 46.8985ZM195.126 46.7C201.32 46.7 205.648 47.9024 208.421 49.9961L210.831 46.8039C207.07 43.9643 201.731 42.7 195.126 42.7V46.7ZM208.421 49.9961C211.221 52.1106 212.526 54.7022 212.526 57.9H216.526C216.526 53.3645 214.564 49.6227 210.831 46.8039L208.421 49.9961ZM212.526 57.9C212.526 61.2989 211.46 63.9815 209.393 66.1048L212.259 68.8952C215.125 65.9519 216.526 62.2344 216.526 57.9H212.526ZM209.412 66.0858C207.296 68.2016 204.26 69.726 200.139 70.5377L200.912 74.4623C205.591 73.5407 209.423 71.7317 212.24 68.9142L209.412 66.0858ZM199.497 74.215C200.987 75.1094 202.165 76.1255 203.064 77.2494L206.188 74.7506C204.953 73.2079 203.397 71.8906 201.555 70.785L199.497 74.215ZM203.135 77.3336C204.172 78.4919 205.906 80.8252 208.376 84.4305L211.676 82.1695C209.213 78.5748 207.347 76.0414 206.116 74.6664L203.135 77.3336ZM188.526 71.2C193.54 71.2 197.832 70.3318 201.281 68.4572L199.371 64.9427C196.687 66.4016 193.111 67.2 188.526 67.2V71.2ZM201.31 68.4411C204.944 66.387 206.926 63.2544 206.926 59.2H202.926C202.926 61.679 201.841 63.5463 199.342 64.9589L201.31 68.4411ZM206.926 59.2C206.926 55.2899 205.55 52.0801 202.604 49.9335C199.775 47.8728 195.776 47 190.926 47V51C195.409 51 198.41 51.8272 200.248 53.1665C201.969 54.4199 202.926 56.3101 202.926 59.2H206.926ZM190.926 47C188.667 47 186.468 47.2119 184.334 47.6388L185.118 51.5612C186.983 51.1881 188.918 51 190.926 51V47ZM182.726 49.6V68.9H186.726V49.6H182.726ZM184.443 70.8799C185.915 71.0902 187.278 71.2 188.526 71.2V67.2C187.507 67.2 186.337 67.1098 185.009 66.9201L184.443 70.8799ZM274.146 82.7L272.658 84.0363L272.664 84.043L274.146 82.7ZM280.746 88.2L279.69 89.8986L280.746 88.2ZM287.846 90.7H289.846V88.8142L287.964 88.7035L287.846 90.7ZM287.346 95V97H288.788L289.243 95.6325L287.346 95ZM273.546 95.6L271.975 96.8371L272.666 97.7149L273.775 97.5868L273.546 95.6ZM263.246 83.9L264.701 82.528L264.701 82.528L263.246 83.9ZM250.546 71.2L251.912 69.7387L248.546 66.5939V71.2H250.546ZM251.746 89.1L250.184 90.3494L250.23 90.4069L250.281 90.4609L251.746 89.1ZM256.646 90.7L258.579 90.1847L258.205 88.7835L256.757 88.7031L256.646 90.7ZM257.046 95.2L256.987 97.1991L259.046 97.2597V95.2H257.046ZM234.846 95.2H232.846V97.2656L234.911 97.199L234.846 95.2ZM235.346 90.7L235.187 88.7064L233.898 88.8095L233.463 90.0273L235.346 90.7ZM239.046 89.9L238.208 88.0841L238.18 88.0972L238.152 88.1111L239.046 89.9ZM240.846 52.2L242.743 51.5675L242.743 51.5675L240.846 52.2ZM239.046 50.1L238.152 51.8889L238.18 51.9028L238.208 51.9159L239.046 50.1ZM235.346 49.3L233.449 49.9325L233.867 51.1881L235.187 51.2936L235.346 49.3ZM234.846 44.8L234.909 42.801L232.846 42.7365V44.8H234.846ZM257.046 44.8H259.046V42.742L256.989 42.8008L257.046 44.8ZM256.646 49.3L256.757 51.2969L258.178 51.218L258.569 49.8494L256.646 49.3ZM251.746 50.9L250.281 49.5391L250.253 49.5682L250.228 49.5984L251.746 50.9ZM250.546 68.8H248.546V73.0072L251.809 70.351L250.546 68.8ZM266.146 56.1L264.888 54.5455L264.883 54.549L266.146 56.1ZM267.346 49.3L265.437 49.8965L265.846 51.2044L267.213 51.2956L267.346 49.3ZM266.846 44.8L266.946 42.8025L264.846 42.6975V44.8H266.846ZM285.546 44.8H287.546V42.7149L285.463 42.8017L285.546 44.8ZM284.946 49.3L285.013 51.2989L286.378 51.2534L286.832 49.9656L284.946 49.3ZM279.246 50.7L278.378 48.898L278.365 48.9045L278.352 48.9111L279.246 50.7ZM272.346 55.2L271.152 53.5955L271.099 53.6348L271.049 53.6775L272.346 55.2ZM258.846 66.7L257.549 65.1775L255.86 66.6161L257.466 68.1472L258.846 66.7ZM272.664 84.043C274.723 86.3153 277.067 88.268 279.69 89.8986L281.802 86.5014C279.492 85.0654 277.435 83.3513 275.628 81.357L272.664 84.043ZM279.69 89.8986C282.363 91.56 285.049 92.5389 287.729 92.6965L287.964 88.7035C286.11 88.5944 284.063 87.9067 281.802 86.5014L279.69 89.8986ZM285.846 90.7C285.846 92.4905 285.681 93.671 285.449 94.3675L289.243 95.6325C289.678 94.329 289.846 92.6428 289.846 90.7H285.846ZM287.346 93C281.578 93 276.892 93.2006 273.317 93.6132L273.775 97.5868C277.133 97.1994 281.647 97 287.346 97V93ZM275.118 94.3629C272.599 91.1636 269.121 87.2153 264.701 82.528L261.791 85.272C266.171 89.918 269.56 93.7697 271.975 96.8371L275.118 94.3629ZM264.701 82.528C260.277 77.8351 256.013 73.5714 251.912 69.7387L249.181 72.6613C253.212 76.4286 257.416 80.6316 261.791 85.272L264.701 82.528ZM248.546 71.2V83.3H252.546V71.2H248.546ZM248.546 83.3C248.546 84.8142 248.651 86.1603 248.888 87.3052C249.12 88.429 249.509 89.5055 250.184 90.3494L253.308 87.8506C253.183 87.6944 252.972 87.3044 252.805 86.4948C252.641 85.7064 252.546 84.6524 252.546 83.3H248.546ZM250.281 90.4609C251.703 91.9931 254.026 92.5575 256.535 92.6969L256.757 88.7031C254.467 88.5758 253.522 88.0735 253.212 87.7391L250.281 90.4609ZM254.714 91.2153C254.911 91.9562 255.046 93.2442 255.046 95.2H259.046C259.046 93.1558 258.914 91.4438 258.579 90.1847L254.714 91.2153ZM257.105 93.2009C252.562 93.0673 248.874 93 246.046 93V97C248.818 97 252.463 97.0661 256.987 97.1991L257.105 93.2009ZM246.046 93C242.687 93 238.932 93.0672 234.782 93.201L234.911 97.199C239.027 97.0662 242.739 97 246.046 97V93ZM236.846 95.2C236.846 93.1691 237.019 91.9623 237.23 91.3727L233.463 90.0273C233.007 91.3043 232.846 93.0976 232.846 95.2H236.846ZM235.506 92.6936C237.245 92.5545 238.79 92.2642 239.941 91.6889L238.152 88.1111C237.702 88.3358 236.781 88.5788 235.187 88.7064L235.506 92.6936ZM239.884 91.7159C241.307 91.0591 242.256 89.8957 242.743 88.4325L238.949 87.1675C238.77 87.7043 238.518 87.9409 238.208 88.0841L239.884 91.7159ZM242.743 88.4325C243.181 87.1198 243.346 85.3584 243.346 83.3H239.346C239.346 85.2416 239.178 86.4802 238.949 87.1675L242.743 88.4325ZM243.346 83.3V56.6H239.346V83.3H243.346ZM243.346 56.6C243.346 54.5995 243.18 52.8758 242.743 51.5675L238.949 52.8325C239.179 53.5242 239.346 54.7338 239.346 56.6H243.346ZM242.743 51.5675C242.256 50.1043 241.307 48.9409 239.884 48.2841L238.208 51.9159C238.518 52.0591 238.77 52.2957 238.949 52.8325L242.743 51.5675ZM239.941 48.3111C238.79 47.7358 237.245 47.4455 235.506 47.3064L235.187 51.2936C236.781 51.4212 237.702 51.6642 238.152 51.8889L239.941 48.3111ZM237.243 48.6675C237.014 47.9802 236.846 46.7416 236.846 44.8H232.846C232.846 46.8584 233.011 48.6198 233.449 49.9325L237.243 48.6675ZM234.784 46.799C239.065 46.9328 242.82 47 246.046 47V43C242.872 43 239.161 42.9339 234.909 42.801L234.784 46.799ZM246.046 47C248.741 47 252.429 46.9327 257.103 46.7992L256.989 42.8008C252.33 42.9339 248.685 43 246.046 43V47ZM255.046 44.8C255.046 46.8412 254.908 48.103 254.723 48.7506L258.569 49.8494C258.917 48.6303 259.046 46.8921 259.046 44.8H255.046ZM256.535 47.3031C254.026 47.4425 251.703 48.0069 250.281 49.5391L253.212 52.2609C253.522 51.9265 254.467 51.4242 256.757 51.2969L256.535 47.3031ZM250.228 49.5984C249.518 50.4266 249.122 51.5063 248.889 52.613C248.65 53.746 248.546 55.0871 248.546 56.6H252.546C252.546 55.2463 252.642 54.204 252.803 53.437C252.97 52.6437 253.174 52.3067 253.265 52.2016L250.228 49.5984ZM248.546 56.6V68.8H252.546V56.6H248.546ZM251.809 70.351L267.409 57.651L264.883 54.549L249.283 67.249L251.809 70.351ZM267.404 57.6545C268.852 56.4827 270.018 55.3944 270.84 54.3964C271.596 53.478 272.346 52.3025 272.346 51H268.346C268.346 50.8309 268.396 51.072 267.752 51.8536C267.174 52.5556 266.24 53.4507 264.888 54.5455L267.404 57.6545ZM272.346 51C272.346 49.6591 271.596 48.6597 270.582 48.085C269.693 47.5814 268.588 47.3783 267.479 47.3044L267.213 51.2956C267.635 51.3237 267.961 51.3721 268.204 51.4289C268.452 51.4867 268.572 51.5434 268.61 51.565C268.642 51.5833 268.56 51.5443 268.473 51.4073C268.377 51.2572 268.346 51.101 268.346 51H272.346ZM269.255 48.7034C269.01 47.9208 268.846 46.6557 268.846 44.8H264.846C264.846 46.811 265.015 48.5458 265.437 49.8965L269.255 48.7034ZM266.746 46.7975C269.454 46.9329 272.555 47 276.046 47V43C272.604 43 269.571 42.9338 266.946 42.8025L266.746 46.7975ZM276.046 47C279.208 47 282.402 46.9327 285.629 46.7983L285.463 42.8017C282.29 42.9339 279.151 43 276.046 43V47ZM283.546 44.8C283.546 46.5511 283.355 47.7992 283.06 48.6344L286.832 49.9656C287.337 48.5341 287.546 46.7822 287.546 44.8H283.546ZM284.879 47.3011C282.602 47.377 280.429 47.9105 278.378 48.898L280.114 52.502C281.663 51.7561 283.29 51.3563 285.013 51.2989L284.879 47.3011ZM278.352 48.9111C276.46 49.8571 274.048 51.4401 271.152 53.5955L273.54 56.8045C276.377 54.6932 278.566 53.2763 280.141 52.4889L278.352 48.9111ZM271.049 53.6775L257.549 65.1775L260.143 68.2225L273.643 56.7225L271.049 53.6775ZM257.466 68.1472C261.749 72.2328 266.812 77.5254 272.658 84.0363L275.634 81.3637C269.747 74.8079 264.61 69.4339 260.227 65.2528L257.466 68.1472Z" transform="translate(43 100)" fill="#0F0F0F"/>
<path d="M10.2 88.9L8.70032 90.2232L8.70576 90.2294L8.71124 90.2355L10.2 88.9ZM10.3 51.4L8.82209 50.0525L8.81664 50.0585L8.81124 50.0645L10.3 51.4ZM43.4 88.9L41.9123 87.5633L41.9112 87.5645L43.4 88.9ZM37.1 86.1L38.7692 87.2017L38.7742 87.1941L38.7791 87.1865L37.1 86.1ZM38.5 59.9L36.614 60.5656L36.6198 60.582L36.6258 60.5982L38.5 59.9ZM33.4 52L32.106 53.525L32.106 53.525L33.4 52ZM16.7 54.1L15.0411 52.9828L15.0332 52.9946L15.0255 53.0064L16.7 54.1ZM15.3 80.3L13.41 80.9542L13.4177 80.9763L13.4258 80.9982L15.3 80.3ZM20.5 88.3L19.1798 89.8023L19.1928 89.8138L19.206 89.825L20.5 88.3ZM26.8 93.7C20.2744 93.7 15.3177 91.6099 11.6888 87.5645L8.71124 90.2355C13.2156 95.2568 19.3256 97.7 26.8 97.7V93.7ZM11.6997 87.5768C8.11177 83.5105 6.2 77.8012 6.2 70.2H2.2C2.2 78.4655 4.28823 85.2229 8.70032 90.2232L11.6997 87.5768ZM6.2 70.2C6.2 62.535 8.14339 56.7992 11.7888 52.7355L8.81124 50.0645C4.32328 55.0675 2.2 61.865 2.2 70.2H6.2ZM11.7779 52.7475C15.4733 48.6945 20.5018 46.6 27.1 46.6V42.6C19.5649 42.6 13.3934 45.0388 8.82209 50.0525L11.7779 52.7475ZM27.1 46.6C33.636 46.6 38.5541 48.6634 42.1101 52.6342L45.0899 49.9658C40.6459 45.0033 34.564 42.6 27.1 42.6V46.6ZM42.1101 52.6342C45.6875 56.629 47.6 62.2969 47.6 69.9H51.6C51.6 61.6364 49.5125 54.9043 45.0899 49.9658L42.1101 52.6342ZM47.6 69.9C47.6 77.6271 45.6257 83.4307 41.9123 87.5633L44.8877 90.2367C49.441 85.1693 51.6 78.3063 51.6 69.9H47.6ZM41.9112 87.5645C38.2823 91.6099 33.3256 93.7 26.8 93.7V97.7C34.2744 97.7 40.3844 95.2568 44.8888 90.2355L41.9112 87.5645ZM28.1 93.1C32.612 93.1 36.2217 91.0616 38.7692 87.2017L35.4308 84.9983C33.5783 87.8051 31.188 89.1 28.1 89.1V93.1ZM38.7791 87.1865C41.2704 83.3364 42.4 78.134 42.4 71.8H38.4C38.4 77.7327 37.3296 82.0636 35.4209 85.0135L38.7791 87.1865ZM42.4 71.8C42.4 67.0854 41.7419 62.8731 40.3742 59.2018L36.6258 60.5982C37.7914 63.7269 38.4 67.4479 38.4 71.8H42.4ZM40.386 59.2344C39.0973 55.583 37.2235 52.6213 34.694 50.475L32.106 53.525C33.9765 55.1121 35.5027 57.417 36.614 60.5656L40.386 59.2344ZM34.694 50.475C32.1351 48.3038 29.144 47.2 25.8 47.2V51.2C28.1893 51.2 30.2649 51.9628 32.106 53.525L34.694 50.475ZM25.8 47.2C21.2532 47.2 17.6045 49.1766 15.0411 52.9828L18.3589 55.2172C20.1955 52.4901 22.6134 51.2 25.8 51.2V47.2ZM15.0255 53.0064C12.5904 56.735 11.5 61.8824 11.5 68.2H15.5C15.5 62.2509 16.5429 57.9983 18.3745 55.1936L15.0255 53.0064ZM11.5 68.2C11.5 72.9686 12.1214 77.2314 13.41 80.9542L17.19 79.6458C16.0786 76.4352 15.5 72.6314 15.5 68.2H11.5ZM13.4258 80.9982C14.7807 84.635 16.679 87.6047 19.1798 89.8023L21.8202 86.7977C19.921 85.1286 18.3526 82.765 17.1742 79.6018L13.4258 80.9982ZM19.206 89.825C21.7649 91.9962 24.756 93.1 28.1 93.1V89.1C25.7107 89.1 23.6351 88.3372 21.794 86.775L19.206 89.825ZM71.5063 56.6L69.5991 57.2023L69.6133 57.2472L69.6296 57.2914L71.5063 56.6ZM68.7063 53.9L68.0228 55.7796L68.0228 55.7796L68.7063 53.9ZM61.4063 53.1H59.4063V55.1H61.4063V53.1ZM61.9063 49.3L61.5743 47.3277L60.389 47.5272L60.0089 48.6675L61.9063 49.3ZM78.9062 44.4L79.5789 42.5165L78.8077 42.2411L78.0648 42.5856L78.9062 44.4ZM80.7063 46.1L78.8089 46.7325L78.8421 46.832L78.8855 46.9276L80.7063 46.1ZM81.8063 86.8L79.866 87.2851L79.8782 87.334L79.8929 87.3823L81.8063 86.8ZM84.1063 90L83.1257 91.7432L83.189 91.7787L83.2547 91.8096L84.1063 90ZM89.1063 91L91.0152 90.4035L90.6039 89.0871L89.2272 89.0037L89.1063 91ZM89.6063 95.3L89.5111 97.2977L91.6063 97.3975V95.3H89.6063ZM62.8063 95.3H60.8063V97.4043L62.9078 97.2974L62.8063 95.3ZM63.3063 91L63.1888 89.0035L61.8094 89.0846L61.3973 90.4034L63.3063 91ZM68.5063 89.9L67.6501 88.0925L67.6309 88.1016L67.6118 88.1111L68.5063 89.9ZM71.3063 86.7L73.1687 87.4288L73.1739 87.4156L73.1789 87.4022L71.3063 86.7ZM74.2063 62.9C74.2063 59.9418 73.9814 57.533 73.3829 55.9086L69.6296 57.2914C69.9644 58.2003 70.2063 59.9915 70.2063 62.9H74.2063ZM73.4134 55.9977C72.7922 54.0304 71.3255 52.7243 69.3897 52.0204L68.0228 55.7796C69.0203 56.1423 69.4203 56.6362 69.5991 57.2023L73.4134 55.9977ZM69.3897 52.0204C67.5688 51.3583 64.8302 51.1 61.4063 51.1V55.1C64.7823 55.1 66.9103 55.3751 68.0228 55.7796L69.3897 52.0204ZM63.4063 53.1C63.4063 51.6929 63.5616 50.6587 63.8036 49.9325L60.0089 48.6675C59.5843 49.9413 59.4063 51.4404 59.4063 53.1H63.4063ZM62.2382 51.2723C69.0911 50.1188 74.9408 48.4437 79.7477 46.2144L78.0648 42.5856C73.6717 44.623 68.1881 46.2145 61.5743 47.3277L62.2382 51.2723ZM78.2336 46.2835C78.702 46.4508 78.7718 46.6213 78.8089 46.7325L82.6036 45.4675C82.1073 43.9787 80.9771 43.0159 79.5789 42.5165L78.2336 46.2835ZM78.8855 46.9276C79.0366 47.2599 79.2063 48.0402 79.2063 49.5H83.2063C83.2063 47.8932 83.0426 46.4067 82.527 45.2724L78.8855 46.9276ZM79.2063 49.5V79.7H83.2063V49.5H79.2063ZM79.2063 79.7C79.2063 82.8784 79.4053 85.4424 79.866 87.2851L83.7465 86.3149C83.4072 84.9576 83.2063 82.7883 83.2063 79.7H79.2063ZM79.8929 87.3823C80.4616 89.2508 81.4848 90.8201 83.1257 91.7432L85.0868 88.2568C84.5944 87.9799 84.0843 87.4159 83.7196 86.2177L79.8929 87.3823ZM83.2547 91.8096C84.7293 92.5036 86.6948 92.8575 88.9853 92.9963L89.2272 89.0037C87.1177 88.8758 85.7499 88.5631 84.9578 88.1904L83.2547 91.8096ZM87.1973 91.5965C87.4449 92.389 87.6063 93.5948 87.6063 95.3H91.6063C91.6063 93.4052 91.4342 91.7443 91.0152 90.4035L87.1973 91.5965ZM89.7014 93.3023C85.4665 93.1006 81.0012 93 76.3063 93V97C80.9446 97 85.346 97.0994 89.5111 97.2977L89.7014 93.3023ZM76.3063 93C71.2147 93 66.6798 93.1005 62.7047 93.3026L62.9078 97.2974C66.7994 97.0995 71.2644 97 76.3063 97V93ZM64.8063 95.3C64.8063 93.5948 64.9676 92.389 65.2152 91.5965L61.3973 90.4034C60.9783 91.7443 60.8063 93.4052 60.8063 95.3H64.8063ZM63.4237 92.9965C65.7991 92.8568 67.8466 92.4659 69.4007 91.6889L67.6118 88.1111C66.7659 88.5341 65.3467 88.8765 63.1888 89.0035L63.4237 92.9965ZM69.3624 91.7075C71.169 90.8517 72.4177 89.3482 73.1687 87.4288L69.4438 85.9712C68.9948 87.1184 68.3768 87.7483 67.6501 88.0925L69.3624 91.7075ZM73.1789 87.4022C73.9052 85.4656 74.2063 82.8471 74.2063 79.7H70.2063C70.2063 82.6862 69.9073 84.7344 69.4336 85.9978L73.1789 87.4022ZM74.2063 79.7V62.9H70.2063V79.7H74.2063ZM103.67 94.2L102.256 95.6142L102.256 95.6142L103.67 94.2ZM103.87 84.8L102.491 83.3517L102.473 83.3685L102.456 83.3858L103.87 84.8ZM113.87 84.8L112.384 86.1379L112.419 86.177L112.456 86.2142L113.87 84.8ZM113.77 94.2L115.108 95.6866L115.108 95.6866L113.77 94.2ZM108.67 94C106.924 94 105.819 93.52 105.085 92.7858L102.256 95.6142C103.922 97.28 106.15 98 108.67 98V94ZM105.085 92.7858C104.299 92.0001 103.87 90.9945 103.87 89.6H99.8703C99.8703 91.9389 100.642 93.9999 102.256 95.6142L105.085 92.7858ZM103.87 89.6C103.87 88.2698 104.322 87.1768 105.285 86.2142L102.456 83.3858C100.752 85.0899 99.8703 87.1969 99.8703 89.6H103.87ZM105.25 86.2483C106.238 85.3071 107.493 84.8 109.17 84.8V80.8C106.581 80.8 104.303 81.6262 102.491 83.3517L105.25 86.2483ZM109.17 84.8C110.586 84.8 111.595 85.2615 112.384 86.1379L115.357 83.4621C113.746 81.6718 111.621 80.8 109.17 80.8V84.8ZM112.456 86.2142C113.416 87.1739 113.77 88.0862 113.77 89H117.77C117.77 86.8471 116.858 84.9594 115.285 83.3858L112.456 86.2142ZM113.77 89C113.77 90.8597 113.238 91.988 112.432 92.7134L115.108 95.6866C116.969 94.012 117.77 91.6736 117.77 89H113.77ZM112.432 92.7134C111.522 93.5329 110.323 94 108.67 94V98C111.151 98 113.352 97.2671 115.108 95.6866L112.432 92.7134Z" fill="#0F0F0F"/>
</svg>
